<svg xmlns="http://www.w3.org/2000/svg" width="619" height="369.898" viewBox="0 0 619 369.898">
  <g id="Grupo_17658" data-name="Grupo 17658" transform="translate(-651 -2766.102)">
    <g id="Grupo_17651" data-name="Grupo 17651">
      <path id="Trazado_36126" data-name="Trazado 36126" d="M19.089,0H16.543l-1.01-12.1L11.14,0H9.528L5.156-12.074,4.136,0H1.579L2.8-15.318H6.381L10.323-4.49,14.3-15.318h3.577Zm4.6-12.869a1.476,1.476,0,0,1-1.074-.446,1.449,1.449,0,0,1-.451-1.069,1.458,1.458,0,0,1,.446-1.069,1.47,1.47,0,0,1,1.08-.446,1.463,1.463,0,0,1,1.063.446,1.449,1.449,0,0,1,.451,1.069,1.449,1.449,0,0,1-.451,1.069A1.463,1.463,0,0,1,23.687-12.869ZM22.419,0V-10.807H24.9V0ZM33.086.193a5.484,5.484,0,0,1-4.028-1.552,5.454,5.454,0,0,1-1.568-4.055,5.426,5.426,0,0,1,1.574-4.05,5.5,5.5,0,0,1,4.023-1.547,5.491,5.491,0,0,1,3.314.994A4.691,4.691,0,0,1,38.21-7.24l-2.3.3a2.88,2.88,0,0,0-1.058-1.547,2.981,2.981,0,0,0-1.789-.537,2.835,2.835,0,0,0-2.234.994,3.827,3.827,0,0,0-.87,2.616A3.827,3.827,0,0,0,30.83-2.8a2.835,2.835,0,0,0,2.234.994,3,3,0,0,0,1.789-.532,2.852,2.852,0,0,0,1.058-1.542l2.3.29A4.7,4.7,0,0,1,36.389-.806,5.482,5.482,0,0,1,33.086.193Zm9.99-9.185a3.263,3.263,0,0,1,1.37-1.375,4.272,4.272,0,0,1,2.111-.559v2.256a3.807,3.807,0,0,0-2.551.725,3.083,3.083,0,0,0-.833,2.433V0H40.691V-10.807h2.385ZM53.238.2a5.679,5.679,0,0,1-4.093-1.52,5.4,5.4,0,0,1-1.59-4.1,5.376,5.376,0,0,1,1.59-4.077,5.679,5.679,0,0,1,4.093-1.52,5.705,5.705,0,0,1,4.1,1.515,5.372,5.372,0,0,1,1.59,4.082,5.4,5.4,0,0,1-1.59,4.1A5.694,5.694,0,0,1,53.238.2Zm-.021-2a3.03,3.03,0,0,0,2.342-1,3.734,3.734,0,0,0,.913-2.621,3.714,3.714,0,0,0-.913-2.616,3.038,3.038,0,0,0-2.342-.994,2.968,2.968,0,0,0-2.3.994,3.741,3.741,0,0,0-.9,2.616,3.775,3.775,0,0,0,.9,2.621A2.956,2.956,0,0,0,53.217-1.794ZM71.35-5.586l-.032.623H63.1A3.26,3.26,0,0,0,64.045-2.6a3.087,3.087,0,0,0,2.181.816,2.963,2.963,0,0,0,1.606-.44A2.776,2.776,0,0,0,68.9-3.48l2.256.387A4.749,4.749,0,0,1,69.287-.666a5.368,5.368,0,0,1-3.04.87A5.54,5.54,0,0,1,62.2-1.289,5.493,5.493,0,0,1,60.672-5.4,5.515,5.515,0,0,1,62.2-9.518a5.418,5.418,0,0,1,3.975-1.5,5.145,5.145,0,0,1,3.749,1.38A5.442,5.442,0,0,1,71.35-5.586Zm-5.167-3.6a3.153,3.153,0,0,0-1.95.585,2.851,2.851,0,0,0-1.026,1.789h5.661a2.6,2.6,0,0,0-.859-1.772A2.751,2.751,0,0,0,66.183-9.185Zm13.546-1.826a4,4,0,0,1,2.857.972,3.618,3.618,0,0,1,1.031,2.766V0H81.125V-6.735a2.217,2.217,0,0,0-.6-1.7A2.161,2.161,0,0,0,79-8.991a2.525,2.525,0,0,0-1.826.682,2.825,2.825,0,0,0-.72,2.1V0H73.981V-10.807h2.471v1.278a3.651,3.651,0,0,1,1.391-1.1A4.471,4.471,0,0,1,79.729-11.011ZM90.643,0a3.055,3.055,0,0,1-2.277-.827,3.176,3.176,0,0,1-.816-2.331V-8.873H85.39v-1.934h.741A1.69,1.69,0,0,0,87.4-11.22a2.089,2.089,0,0,0,.392-1.445v-1.676h2.256v3.534H92.4v1.934H90.052v5.457a1.549,1.549,0,0,0,.371,1.123,1.336,1.336,0,0,0,1,.381H92.4V0Zm9.013.2a5.679,5.679,0,0,1-4.093-1.52,5.4,5.4,0,0,1-1.59-4.1,5.376,5.376,0,0,1,1.59-4.077,5.679,5.679,0,0,1,4.093-1.52,5.705,5.705,0,0,1,4.1,1.515,5.372,5.372,0,0,1,1.59,4.082,5.4,5.4,0,0,1-1.59,4.1A5.694,5.694,0,0,1,99.655.2Zm-.021-2a3.03,3.03,0,0,0,2.342-1,3.734,3.734,0,0,0,.913-2.621,3.714,3.714,0,0,0-.913-2.616,3.038,3.038,0,0,0-2.342-.994,2.968,2.968,0,0,0-2.3.994,3.741,3.741,0,0,0-.9,2.616,3.775,3.775,0,0,0,.9,2.621A2.956,2.956,0,0,0,99.634-1.794Zm10.71-7.2a3.263,3.263,0,0,1,1.37-1.375,4.272,4.272,0,0,1,2.111-.559v2.256a3.807,3.807,0,0,0-2.551.725,3.083,3.083,0,0,0-.833,2.433V0h-2.481V-10.807h2.385Zm11.226-2.02a4,4,0,0,1,2.857.972,3.618,3.618,0,0,1,1.031,2.766V0h-2.492V-6.735a2.217,2.217,0,0,0-.6-1.7,2.161,2.161,0,0,0-1.531-.553,2.525,2.525,0,0,0-1.826.682,2.825,2.825,0,0,0-.72,2.1V0h-2.471V-10.807h2.471v1.278a3.651,3.651,0,0,1,1.391-1.1A4.471,4.471,0,0,1,121.569-11.011ZM133.536.2a5.679,5.679,0,0,1-4.093-1.52,5.4,5.4,0,0,1-1.59-4.1,5.376,5.376,0,0,1,1.59-4.077,5.679,5.679,0,0,1,4.093-1.52,5.705,5.705,0,0,1,4.1,1.515,5.372,5.372,0,0,1,1.59,4.082,5.4,5.4,0,0,1-1.59,4.1A5.694,5.694,0,0,1,133.536.2Zm-.021-2a3.03,3.03,0,0,0,2.342-1,3.734,3.734,0,0,0,.913-2.621,3.714,3.714,0,0,0-.913-2.616,3.038,3.038,0,0,0-2.342-.994,2.968,2.968,0,0,0-2.3.994,3.741,3.741,0,0,0-.9,2.616,3.775,3.775,0,0,0,.9,2.621A2.956,2.956,0,0,0,133.515-1.794Z" transform="translate(737 2782)" fill="#00223d"/>
      <path id="Trazado_36134" data-name="Trazado 36134" d="M19.089,0H16.543l-1.01-12.1L11.14,0H9.528L5.156-12.074,4.136,0H1.579L2.8-15.318H6.381L10.323-4.49,14.3-15.318h3.577Zm5.769.2a4.485,4.485,0,0,1-1.649-.285,2.621,2.621,0,0,1-1.2-.967,2.876,2.876,0,0,1-.478-1.692,3.134,3.134,0,0,1,.22-1.208,2.646,2.646,0,0,1,.58-.886,3.409,3.409,0,0,1,.913-.623,6.548,6.548,0,0,1,1.117-.424q.564-.156,1.305-.3l1.633-.3q1-.193,1-.978a1.535,1.535,0,0,0-.6-1.348,2.565,2.565,0,0,0-1.515-.424,2.535,2.535,0,0,0-1.558.457,2,2,0,0,0-.73,1.445l-2.224-.408Q22.215-11,26.329-11a7.615,7.615,0,0,1,1.284.1,4.585,4.585,0,0,1,1.171.371,3.368,3.368,0,0,1,.983.682,2.976,2.976,0,0,1,.655,1.1,4.575,4.575,0,0,1,.247,1.563V-3a1.711,1.711,0,0,0,.226,1.031.972.972,0,0,0,.795.279h.172V0H30.69Q28.854,0,28.5-1.429h-.118A3.513,3.513,0,0,1,26.85-.193,5.064,5.064,0,0,1,24.857.2Zm.58-1.944A2.873,2.873,0,0,0,27.6-2.632a3.233,3.233,0,0,0,.859-2.342L25.7-4.361a3.31,3.31,0,0,0-1.332.5,1.079,1.079,0,0,0-.44.918,1.038,1.038,0,0,0,.419.9A1.837,1.837,0,0,0,25.438-1.74ZM38.693.193a5.484,5.484,0,0,1-4.028-1.552A5.454,5.454,0,0,1,33.1-5.414a5.426,5.426,0,0,1,1.574-4.05,5.5,5.5,0,0,1,4.023-1.547,5.491,5.491,0,0,1,3.314.994,4.691,4.691,0,0,1,1.81,2.777l-2.3.3A2.88,2.88,0,0,0,40.46-8.486a2.981,2.981,0,0,0-1.789-.537,2.835,2.835,0,0,0-2.234.994,3.827,3.827,0,0,0-.87,2.616,3.827,3.827,0,0,0,.87,2.616,2.835,2.835,0,0,0,2.234.994,3,3,0,0,0,1.789-.532,2.852,2.852,0,0,0,1.058-1.542l2.3.29A4.7,4.7,0,0,1,42-.806,5.482,5.482,0,0,1,38.693.193Zm9.99-9.185a3.263,3.263,0,0,1,1.37-1.375,4.272,4.272,0,0,1,2.111-.559v2.256a3.807,3.807,0,0,0-2.551.725,3.083,3.083,0,0,0-.833,2.433V0H46.3V-10.807h2.385ZM58.846.2a5.679,5.679,0,0,1-4.093-1.52,5.4,5.4,0,0,1-1.59-4.1,5.376,5.376,0,0,1,1.59-4.077,5.679,5.679,0,0,1,4.093-1.52,5.705,5.705,0,0,1,4.1,1.515,5.372,5.372,0,0,1,1.59,4.082,5.4,5.4,0,0,1-1.59,4.1A5.694,5.694,0,0,1,58.846.2Zm-.021-2a3.03,3.03,0,0,0,2.342-1,3.734,3.734,0,0,0,.913-2.621,3.714,3.714,0,0,0-.913-2.616,3.038,3.038,0,0,0-2.342-.994,2.968,2.968,0,0,0-2.3.994,3.741,3.741,0,0,0-.9,2.616,3.775,3.775,0,0,0,.9,2.621A2.956,2.956,0,0,0,58.824-1.794ZM76.957-5.586l-.032.623H68.707A3.26,3.26,0,0,0,69.652-2.6a3.087,3.087,0,0,0,2.181.816,2.963,2.963,0,0,0,1.606-.44A2.776,2.776,0,0,0,74.508-3.48l2.256.387A4.749,4.749,0,0,1,74.895-.666a5.368,5.368,0,0,1-3.04.87A5.54,5.54,0,0,1,67.8-1.289,5.493,5.493,0,0,1,66.279-5.4,5.515,5.515,0,0,1,67.8-9.518a5.418,5.418,0,0,1,3.975-1.5,5.145,5.145,0,0,1,3.749,1.38A5.442,5.442,0,0,1,76.957-5.586Zm-5.167-3.6a3.153,3.153,0,0,0-1.95.585,2.851,2.851,0,0,0-1.026,1.789h5.661a2.6,2.6,0,0,0-.859-1.772A2.751,2.751,0,0,0,71.79-9.185Zm13.546-1.826a4,4,0,0,1,2.857.972,3.618,3.618,0,0,1,1.031,2.766V0H86.732V-6.735a2.217,2.217,0,0,0-.6-1.7,2.161,2.161,0,0,0-1.531-.553,2.525,2.525,0,0,0-1.826.682,2.825,2.825,0,0,0-.72,2.1V0H79.589V-10.807H82.06v1.278a3.651,3.651,0,0,1,1.391-1.1A4.471,4.471,0,0,1,85.336-11.011ZM96.25,0a3.055,3.055,0,0,1-2.277-.827,3.176,3.176,0,0,1-.816-2.331V-8.873H91v-1.934h.741a1.69,1.69,0,0,0,1.273-.414,2.089,2.089,0,0,0,.392-1.445v-1.676h2.256v3.534h2.353v1.934H95.659v5.457a1.549,1.549,0,0,0,.371,1.123,1.336,1.336,0,0,0,1,.381h.978V0Zm9.013.2a5.679,5.679,0,0,1-4.093-1.52,5.4,5.4,0,0,1-1.59-4.1,5.376,5.376,0,0,1,1.59-4.077,5.679,5.679,0,0,1,4.093-1.52,5.705,5.705,0,0,1,4.1,1.515,5.372,5.372,0,0,1,1.59,4.082,5.4,5.4,0,0,1-1.59,4.1A5.694,5.694,0,0,1,105.263.2Zm-.021-2a3.03,3.03,0,0,0,2.342-1,3.734,3.734,0,0,0,.913-2.621,3.714,3.714,0,0,0-.913-2.616,3.038,3.038,0,0,0-2.342-.994,2.968,2.968,0,0,0-2.3.994,3.741,3.741,0,0,0-.9,2.616,3.775,3.775,0,0,0,.9,2.621A2.956,2.956,0,0,0,105.241-1.794Zm10.71-7.2a3.263,3.263,0,0,1,1.37-1.375,4.272,4.272,0,0,1,2.111-.559v2.256a3.807,3.807,0,0,0-2.551.725,3.083,3.083,0,0,0-.833,2.433V0h-2.481V-10.807h2.385Zm11.226-2.02a4,4,0,0,1,2.857.972,3.618,3.618,0,0,1,1.031,2.766V0h-2.492V-6.735a2.217,2.217,0,0,0-.6-1.7,2.161,2.161,0,0,0-1.531-.553,2.525,2.525,0,0,0-1.826.682,2.825,2.825,0,0,0-.72,2.1V0H121.43V-10.807H123.9v1.278a3.651,3.651,0,0,1,1.391-1.1A4.471,4.471,0,0,1,127.177-11.011ZM139.144.2a5.679,5.679,0,0,1-4.093-1.52,5.4,5.4,0,0,1-1.59-4.1,5.376,5.376,0,0,1,1.59-4.077,5.679,5.679,0,0,1,4.093-1.52,5.705,5.705,0,0,1,4.1,1.515,5.372,5.372,0,0,1,1.59,4.082,5.4,5.4,0,0,1-1.59,4.1A5.694,5.694,0,0,1,139.144.2Zm-.021-2a3.03,3.03,0,0,0,2.342-1,3.734,3.734,0,0,0,.913-2.621,3.714,3.714,0,0,0-.913-2.616,3.038,3.038,0,0,0-2.342-.994,2.968,2.968,0,0,0-2.3.994,3.741,3.741,0,0,0-.9,2.616,3.775,3.775,0,0,0,.9,2.621A2.956,2.956,0,0,0,139.122-1.794Z" transform="translate(1043 2782)" fill="#00223d"/>
      <path id="Trazado_36127" data-name="Trazado 36127" d="M30,0H308V165H0V30A30,30,0,0,1,30,0Z" transform="translate(651 2804)" fill="#4bacc7"/>
      <path id="Trazado_36132" data-name="Trazado 36132" d="M0,0H278a30,30,0,0,1,30,30V165H0Z" transform="translate(962 2804)" fill="#47d972"/>
      <path id="Trazado_36135" data-name="Trazado 36135" d="M0,0H308V165H30A30,30,0,0,1,0,135Z" transform="translate(651 2971)" fill="#ade946"/>
      <path id="Trazado_36136" data-name="Trazado 36136" d="M0,0H308V135a30,30,0,0,1-30,30H0Z" transform="translate(962 2971)" fill="#f79646"/>
      <path id="Trazado_36128" data-name="Trazado 36128" d="M8.886-10.661H3.92V-7.2H8.227v1.863H3.92V0H1.793V-12.533H8.886ZM14.528.167A4.647,4.647,0,0,1,11.18-1.077a4.421,4.421,0,0,1-1.3-3.353,4.4,4.4,0,0,1,1.3-3.335,4.647,4.647,0,0,1,3.349-1.244A4.668,4.668,0,0,1,17.886-7.77a4.4,4.4,0,0,1,1.3,3.34,4.421,4.421,0,0,1-1.3,3.353A4.658,4.658,0,0,1,14.528.167Zm-.018-1.635a2.479,2.479,0,0,0,1.916-.817,3.055,3.055,0,0,0,.747-2.145,3.039,3.039,0,0,0-.747-2.14,2.485,2.485,0,0,0-1.916-.813,2.428,2.428,0,0,0-1.881.813,3.061,3.061,0,0,0-.738,2.14,3.088,3.088,0,0,0,.734,2.145A2.419,2.419,0,0,0,14.511-1.468Zm8.763-5.889a2.67,2.67,0,0,1,1.121-1.125,3.5,3.5,0,0,1,1.727-.457v1.846a3.115,3.115,0,0,0-2.087.593,2.523,2.523,0,0,0-.681,1.991V0h-2.03V-8.842h1.951ZM31.333,0A2.5,2.5,0,0,1,29.47-.677,2.6,2.6,0,0,1,28.8-2.584V-7.26H27.035V-8.842h.606a1.382,1.382,0,0,0,1.042-.338A1.709,1.709,0,0,0,29-10.362v-1.371H30.85v2.892h1.925V-7.26H30.85v4.465a1.267,1.267,0,0,0,.3.918,1.093,1.093,0,0,0,.822.312h.8V0ZM36.87.167a3.669,3.669,0,0,1-1.349-.233,2.144,2.144,0,0,1-.984-.791,2.353,2.353,0,0,1-.391-1.384,2.564,2.564,0,0,1,.18-.989,2.165,2.165,0,0,1,.475-.725,2.789,2.789,0,0,1,.747-.51,5.358,5.358,0,0,1,.914-.347q.461-.127,1.068-.242L38.865-5.3q.817-.158.817-.8a1.256,1.256,0,0,0-.492-1.1,2.1,2.1,0,0,0-1.239-.347,2.075,2.075,0,0,0-1.274.374,1.636,1.636,0,0,0-.6,1.182L34.26-6.328Q34.708-9,38.074-9a6.23,6.23,0,0,1,1.05.083,3.751,3.751,0,0,1,.958.3,2.756,2.756,0,0,1,.8.558,2.435,2.435,0,0,1,.536.9,3.743,3.743,0,0,1,.2,1.279v3.428a1.4,1.4,0,0,0,.185.844.8.8,0,0,0,.65.229H42.6V0h-.958q-1.5,0-1.793-1.169h-.1A2.874,2.874,0,0,1,38.5-.158,4.143,4.143,0,0,1,36.87.167Zm.475-1.591a2.351,2.351,0,0,0,1.767-.729,2.645,2.645,0,0,0,.7-1.916l-2.259.5a2.708,2.708,0,0,0-1.09.409.883.883,0,0,0-.36.751.849.849,0,0,0,.343.738A1.5,1.5,0,0,0,37.345-1.424ZM44.561,0V-13.5H46.6V0ZM57.489-4.57l-.026.51H50.739a2.667,2.667,0,0,0,.773,1.934,2.525,2.525,0,0,0,1.784.668,2.424,2.424,0,0,0,1.314-.36,2.272,2.272,0,0,0,.875-1.028l1.846.316A3.886,3.886,0,0,1,55.8-.545a4.392,4.392,0,0,1-2.487.712A4.533,4.533,0,0,1,50-1.055a4.494,4.494,0,0,1-1.248-3.366A4.512,4.512,0,0,1,50-7.787a4.433,4.433,0,0,1,3.252-1.23A4.21,4.21,0,0,1,56.32-7.888,4.453,4.453,0,0,1,57.489-4.57ZM53.262-7.515a2.58,2.58,0,0,0-1.6.479,2.332,2.332,0,0,0-.839,1.463h4.632a2.131,2.131,0,0,0-.7-1.45A2.251,2.251,0,0,0,53.262-7.515ZM65.593-8.842l-4.28,7.251h4.219V0H58.368l4.254-7.242H58.658v-1.6ZM69.3.167a3.669,3.669,0,0,1-1.349-.233,2.144,2.144,0,0,1-.984-.791,2.353,2.353,0,0,1-.391-1.384,2.564,2.564,0,0,1,.18-.989,2.165,2.165,0,0,1,.475-.725,2.789,2.789,0,0,1,.747-.51,5.358,5.358,0,0,1,.914-.347q.461-.127,1.068-.242L71.3-5.3q.817-.158.817-.8a1.256,1.256,0,0,0-.492-1.1,2.1,2.1,0,0,0-1.239-.347,2.075,2.075,0,0,0-1.274.374,1.636,1.636,0,0,0-.6,1.182l-1.819-.334Q67.14-9,70.506-9a6.23,6.23,0,0,1,1.05.083,3.751,3.751,0,0,1,.958.3,2.756,2.756,0,0,1,.8.558,2.435,2.435,0,0,1,.536.9,3.743,3.743,0,0,1,.2,1.279v3.428a1.4,1.4,0,0,0,.185.844.8.8,0,0,0,.65.229h.141V0h-.958q-1.5,0-1.793-1.169h-.1A2.874,2.874,0,0,1,70.932-.158,4.143,4.143,0,0,1,69.3.167Zm.475-1.591a2.351,2.351,0,0,0,1.767-.729,2.645,2.645,0,0,0,.7-1.916l-2.259.5a2.708,2.708,0,0,0-1.09.409.883.883,0,0,0-.36.751.849.849,0,0,0,.343.738A1.5,1.5,0,0,0,69.776-1.424ZM79.945.167a4.552,4.552,0,0,1-2.479-.628,2.623,2.623,0,0,1-1.213-1.824l1.714-.483a1.832,1.832,0,0,0,.694,1.112,2.138,2.138,0,0,0,1.283.374,2.049,2.049,0,0,0,1.072-.264.9.9,0,0,0,.431-.853.824.824,0,0,0-.114-.435,1.2,1.2,0,0,0-.272-.316,1.9,1.9,0,0,0-.453-.25,5.107,5.107,0,0,0-.536-.193l-.655-.193Q79-3.911,78.732-4a6.249,6.249,0,0,1-.844-.325,4,4,0,0,1-.694-.439,1.72,1.72,0,0,1-.532-.69,2.434,2.434,0,0,1-.18-.971,2.324,2.324,0,0,1,.448-1.45,2.549,2.549,0,0,1,1.178-.857A4.824,4.824,0,0,1,79.778-9a4.127,4.127,0,0,1,2.237.571A2.5,2.5,0,0,1,83.145-6.68l-1.6.378a1.594,1.594,0,0,0-.637-.984A1.96,1.96,0,0,0,79.787-7.6a1.957,1.957,0,0,0-1.024.25.828.828,0,0,0-.417.76,1.032,1.032,0,0,0,.031.259.506.506,0,0,0,.119.215l.158.171a.825.825,0,0,0,.229.154q.158.079.255.123a2.767,2.767,0,0,0,.316.11l.325.1q.105.031.365.1l.365.092q.492.132.839.246a4.843,4.843,0,0,1,.765.338,2.665,2.665,0,0,1,.677.5,2.219,2.219,0,0,1,.435.708,2.571,2.571,0,0,1,.176.971,2.623,2.623,0,0,1-.281,1.244,2.139,2.139,0,0,1-.769.835,3.768,3.768,0,0,1-1.09.453A5.449,5.449,0,0,1,79.945.167Z" transform="translate(762 2845)" fill="#00223d"/>
      <path id="Trazado_36129" data-name="Trazado 36129" d="M31.5,0A31.5,31.5,0,1,1,0,31.5,31.5,31.5,0,0,1,31.5,0Z" transform="translate(776 2866)" fill="#fff"/>
      <path id="Trazado_36130" data-name="Trazado 36130" d="M0,24.456H10.5V46H24.75V24.456H36L18,0Z" transform="translate(790 2875)" fill="#3a65b5"/>
      <path id="Trazado_36137" data-name="Trazado 36137" d="M10.477-.606A6.647,6.647,0,0,1,7.251.167,6.7,6.7,0,0,1,4.017-.606a5.631,5.631,0,0,1-2.263-2.25A6.855,6.855,0,0,1,.923-6.275,6.831,6.831,0,0,1,1.753-9.69a5.638,5.638,0,0,1,2.263-2.246,6.7,6.7,0,0,1,3.234-.773,6.673,6.673,0,0,1,3.23.773A5.646,5.646,0,0,1,12.74-9.69a6.831,6.831,0,0,1,.831,3.415,6.855,6.855,0,0,1-.831,3.419A5.631,5.631,0,0,1,10.477-.606ZM5.59-2.083a4.569,4.569,0,0,0,1.661.3,4.51,4.51,0,0,0,1.661-.3,3.914,3.914,0,0,0,1.345-.87,3.949,3.949,0,0,0,.9-1.419,5.29,5.29,0,0,0,.325-1.9,5.228,5.228,0,0,0-.325-1.885,3.911,3.911,0,0,0-.9-1.411,4,4,0,0,0-1.345-.87,4.453,4.453,0,0,0-1.661-.308,4.453,4.453,0,0,0-1.661.308,4,4,0,0,0-1.345.87,3.911,3.911,0,0,0-.9,1.411,5.228,5.228,0,0,0-.325,1.885,5.29,5.29,0,0,0,.325,1.9,3.949,3.949,0,0,0,.9,1.419A3.968,3.968,0,0,0,5.59-2.083ZM20.865-9.009a4.12,4.12,0,0,1,2.1.545,3.975,3.975,0,0,1,1.516,1.6,5.076,5.076,0,0,1,.571,2.448,5.431,5.431,0,0,1-.33,1.929,4.146,4.146,0,0,1-.9,1.459,4.038,4.038,0,0,1-1.332.905A4.128,4.128,0,0,1,20.865.2a3.624,3.624,0,0,1-1.727-.413,2.851,2.851,0,0,1-1.182-1.134V4.377H15.935V-8.842h1.934L17.921-7.4A2.805,2.805,0,0,1,19.1-8.583,3.638,3.638,0,0,1,20.865-9.009Zm-.439,7.5A2.447,2.447,0,0,0,22.28-2.3a2.946,2.946,0,0,0,.747-2.109,2.915,2.915,0,0,0-.747-2.1,2.461,2.461,0,0,0-1.854-.782,2.453,2.453,0,0,0-1.872.813,2.92,2.92,0,0,0-.756,2.07,2.948,2.948,0,0,0,.756,2.083A2.447,2.447,0,0,0,20.426-1.512ZM31.131.167a4.647,4.647,0,0,1-3.349-1.244,4.421,4.421,0,0,1-1.3-3.353,4.4,4.4,0,0,1,1.3-3.335,4.647,4.647,0,0,1,3.349-1.244A4.668,4.668,0,0,1,34.488-7.77a4.4,4.4,0,0,1,1.3,3.34,4.421,4.421,0,0,1-1.3,3.353A4.658,4.658,0,0,1,31.131.167Zm-.018-1.635a2.479,2.479,0,0,0,1.916-.817,3.055,3.055,0,0,0,.747-2.145,3.039,3.039,0,0,0-.747-2.14,2.485,2.485,0,0,0-1.916-.813,2.428,2.428,0,0,0-1.881.813,3.061,3.061,0,0,0-.738,2.14,3.088,3.088,0,0,0,.734,2.145A2.419,2.419,0,0,0,31.113-1.468Zm8.763-5.889A2.67,2.67,0,0,1,41-8.481a3.5,3.5,0,0,1,1.727-.457v1.846a3.115,3.115,0,0,0-2.087.593,2.523,2.523,0,0,0-.681,1.991V0h-2.03V-8.842h1.951ZM47.936,0a2.5,2.5,0,0,1-1.863-.677A2.6,2.6,0,0,1,45.4-2.584V-7.26H43.638V-8.842h.606a1.382,1.382,0,0,0,1.042-.338,1.709,1.709,0,0,0,.321-1.182v-1.371h1.846v2.892h1.925V-7.26H47.452v4.465a1.267,1.267,0,0,0,.3.918,1.093,1.093,0,0,0,.822.312h.8V0Zm9.2-8.842h2.021V0H57.234l-.053-1.107A3.163,3.163,0,0,1,54.457.167a3.273,3.273,0,0,1-2.338-.8,2.96,2.96,0,0,1-.844-2.263v-5.95h2.039v5.511A1.814,1.814,0,0,0,53.8-1.938a1.781,1.781,0,0,0,1.261.453,2.051,2.051,0,0,0,1.49-.558,2.322,2.322,0,0,0,.584-1.718Zm9.589-.167a3.273,3.273,0,0,1,2.338.8,2.96,2.96,0,0,1,.844,2.263V0H67.869V-5.511A1.814,1.814,0,0,0,67.381-6.9a1.768,1.768,0,0,0-1.252-.453,2.066,2.066,0,0,0-1.494.558,2.311,2.311,0,0,0-.589,1.718V0H62.024V-8.842h2.021V-7.8a2.987,2.987,0,0,1,1.138-.9A3.658,3.658,0,0,1,66.727-9.009Zm6.908-1.521a1.207,1.207,0,0,1-.879-.365,1.186,1.186,0,0,1-.369-.875,1.193,1.193,0,0,1,.365-.875,1.2,1.2,0,0,1,.883-.365,1.2,1.2,0,0,1,.87.365,1.186,1.186,0,0,1,.369.875,1.186,1.186,0,0,1-.369.875A1.2,1.2,0,0,1,73.635-10.529ZM72.6,0V-8.842h2.03V0ZM83.883-13.5H85.9V0H83.971l-.053-1.406A2.845,2.845,0,0,1,82.736-.229,3.608,3.608,0,0,1,80.974.2a4.08,4.08,0,0,1-1.622-.325,4.1,4.1,0,0,1-1.332-.91,4.2,4.2,0,0,1-.905-1.459,5.341,5.341,0,0,1-.334-1.92,5.28,5.28,0,0,1,.334-1.907,4.2,4.2,0,0,1,.905-1.455,4.082,4.082,0,0,1,1.336-.91,4.089,4.089,0,0,1,1.617-.325A3.656,3.656,0,0,1,82.7-8.6a2.84,2.84,0,0,1,1.182,1.121ZM79.55-2.312a2.472,2.472,0,0,0,1.872.8,2.42,2.42,0,0,0,1.863-.817,2.968,2.968,0,0,0,.747-2.083,2.946,2.946,0,0,0-.751-2.074A2.424,2.424,0,0,0,81.422-7.3a2.465,2.465,0,0,0-1.868.8,2.927,2.927,0,0,0-.751,2.1A2.953,2.953,0,0,0,79.55-2.312ZM90.853.167A3.669,3.669,0,0,1,89.5-.066a2.144,2.144,0,0,1-.984-.791,2.353,2.353,0,0,1-.391-1.384,2.564,2.564,0,0,1,.18-.989,2.165,2.165,0,0,1,.475-.725,2.789,2.789,0,0,1,.747-.51,5.358,5.358,0,0,1,.914-.347q.461-.127,1.068-.242L92.848-5.3q.817-.158.817-.8a1.256,1.256,0,0,0-.492-1.1,2.1,2.1,0,0,0-1.239-.347,2.075,2.075,0,0,0-1.274.374,1.636,1.636,0,0,0-.6,1.182l-1.819-.334Q88.69-9,92.057-9a6.23,6.23,0,0,1,1.05.083,3.751,3.751,0,0,1,.958.3,2.756,2.756,0,0,1,.8.558,2.435,2.435,0,0,1,.536.9,3.743,3.743,0,0,1,.2,1.279v3.428a1.4,1.4,0,0,0,.185.844.8.8,0,0,0,.65.229h.141V0h-.958q-1.5,0-1.793-1.169h-.1A2.874,2.874,0,0,1,92.483-.158,4.143,4.143,0,0,1,90.853.167Zm.475-1.591a2.351,2.351,0,0,0,1.767-.729,2.645,2.645,0,0,0,.7-1.916l-2.259.5a2.708,2.708,0,0,0-1.09.409.883.883,0,0,0-.36.751.849.849,0,0,0,.343.738A1.5,1.5,0,0,0,91.327-1.424ZM104.73-13.5h2.021V0h-1.934l-.053-1.406a2.845,2.845,0,0,1-1.182,1.178A3.608,3.608,0,0,1,101.821.2,4.08,4.08,0,0,1,100.2-.123a4.1,4.1,0,0,1-1.332-.91,4.2,4.2,0,0,1-.905-1.459,5.341,5.341,0,0,1-.334-1.92,5.28,5.28,0,0,1,.334-1.907,4.2,4.2,0,0,1,.905-1.455,4.082,4.082,0,0,1,1.336-.91,4.089,4.089,0,0,1,1.617-.325,3.656,3.656,0,0,1,1.727.409,2.84,2.84,0,0,1,1.182,1.121ZM100.4-2.312a2.472,2.472,0,0,0,1.872.8,2.42,2.42,0,0,0,1.863-.817,2.968,2.968,0,0,0,.747-2.083,2.946,2.946,0,0,0-.751-2.074A2.424,2.424,0,0,0,102.27-7.3a2.465,2.465,0,0,0-1.868.8,2.927,2.927,0,0,0-.751,2.1A2.953,2.953,0,0,0,100.4-2.312ZM117.642-4.57l-.026.51h-6.724a2.667,2.667,0,0,0,.773,1.934,2.525,2.525,0,0,0,1.784.668,2.424,2.424,0,0,0,1.314-.36,2.272,2.272,0,0,0,.875-1.028l1.846.316a3.886,3.886,0,0,1-1.529,1.986,4.392,4.392,0,0,1-2.487.712,4.533,4.533,0,0,1-3.313-1.222,4.494,4.494,0,0,1-1.248-3.366,4.512,4.512,0,0,1,1.248-3.366,4.433,4.433,0,0,1,3.252-1.23,4.21,4.21,0,0,1,3.067,1.129A4.453,4.453,0,0,1,117.642-4.57Zm-4.228-2.944a2.58,2.58,0,0,0-1.6.479,2.332,2.332,0,0,0-.839,1.463h4.632a2.131,2.131,0,0,0-.7-1.45A2.251,2.251,0,0,0,113.414-7.515ZM122.748.167a4.552,4.552,0,0,1-2.479-.628,2.623,2.623,0,0,1-1.213-1.824l1.714-.483a1.832,1.832,0,0,0,.694,1.112,2.138,2.138,0,0,0,1.283.374,2.049,2.049,0,0,0,1.072-.264.9.9,0,0,0,.431-.853.824.824,0,0,0-.114-.435,1.2,1.2,0,0,0-.272-.316,1.9,1.9,0,0,0-.453-.25,5.107,5.107,0,0,0-.536-.193l-.655-.193q-.413-.123-.686-.211a6.249,6.249,0,0,1-.844-.325A4,4,0,0,1,120-4.764a1.72,1.72,0,0,1-.532-.69,2.434,2.434,0,0,1-.18-.971,2.324,2.324,0,0,1,.448-1.45,2.549,2.549,0,0,1,1.178-.857A4.824,4.824,0,0,1,122.581-9a4.127,4.127,0,0,1,2.237.571,2.5,2.5,0,0,1,1.129,1.749l-1.6.378a1.594,1.594,0,0,0-.637-.984A1.96,1.96,0,0,0,122.59-7.6a1.957,1.957,0,0,0-1.024.25.828.828,0,0,0-.417.76,1.032,1.032,0,0,0,.031.259.506.506,0,0,0,.119.215l.158.171a.825.825,0,0,0,.229.154q.158.079.255.123a2.767,2.767,0,0,0,.316.11l.325.1q.105.031.365.1l.365.092q.492.132.839.246a4.843,4.843,0,0,1,.765.338,2.665,2.665,0,0,1,.677.5,2.219,2.219,0,0,1,.435.708,2.571,2.571,0,0,1,.176.971,2.623,2.623,0,0,1-.281,1.244,2.139,2.139,0,0,1-.769.835,3.768,3.768,0,0,1-1.09.453A5.449,5.449,0,0,1,122.748.167Z" transform="translate(1053 2845)" fill="#00223d"/>
      <path id="Trazado_36138" data-name="Trazado 36138" d="M31.5,0A31.5,31.5,0,1,1,0,31.5,31.5,31.5,0,0,1,31.5,0Z" transform="translate(1079 2866)" fill="#fff"/>
      <path id="Trazado_36139" data-name="Trazado 36139" d="M-3991.077,1335.693l-.153.153-19.164-19.163,10.077-10.077,9.24,9.24L-3971.23,1296l10.076,10.076-29.77,29.771Z" transform="translate(5096.227 1581.152)" fill="#3a65b5"/>
      <path id="Trazado_36144" data-name="Trazado 36144" d="M1.793,0V-12.533H6.082a6.831,6.831,0,0,1,2.566.453A4.772,4.772,0,0,1,10.5-10.8,5.605,5.605,0,0,1,11.6-8.82a8.185,8.185,0,0,1,.374,2.544A7.746,7.746,0,0,1,11.325-3,4.9,4.9,0,0,1,9.338-.8,6.247,6.247,0,0,1,6.082,0Zm2.1-1.881h2.1A3.448,3.448,0,0,0,8.82-3.028a4.978,4.978,0,0,0,.945-3.248A4.963,4.963,0,0,0,8.82-9.514a3.448,3.448,0,0,0-2.826-1.147h-2.1ZM22.4-4.57l-.026.51H15.653a2.667,2.667,0,0,0,.773,1.934,2.525,2.525,0,0,0,1.784.668,2.424,2.424,0,0,0,1.314-.36A2.272,2.272,0,0,0,20.4-2.848l1.846.316A3.886,3.886,0,0,1,20.716-.545a4.392,4.392,0,0,1-2.487.712,4.533,4.533,0,0,1-3.313-1.222,4.494,4.494,0,0,1-1.248-3.366,4.512,4.512,0,0,1,1.248-3.366,4.433,4.433,0,0,1,3.252-1.23,4.21,4.21,0,0,1,3.067,1.129A4.453,4.453,0,0,1,22.4-4.57ZM18.176-7.515a2.58,2.58,0,0,0-1.6.479,2.332,2.332,0,0,0-.839,1.463h4.632a2.131,2.131,0,0,0-.7-1.45A2.251,2.251,0,0,0,18.176-7.515ZM29.5-9.009a4.089,4.089,0,0,1,1.617.325,4.034,4.034,0,0,1,1.332.91,4.24,4.24,0,0,1,.9,1.455,5.28,5.28,0,0,1,.334,1.907,5.4,5.4,0,0,1-.33,1.92,4.146,4.146,0,0,1-.9,1.459,4.1,4.1,0,0,1-1.332.91A4.08,4.08,0,0,1,29.5.2a3.622,3.622,0,0,1-1.775-.435,2.81,2.81,0,0,1-1.178-1.182L26.49,0H24.557V-13.5h2.013l.009,6.038A2.813,2.813,0,0,1,27.756-8.6,3.667,3.667,0,0,1,29.5-9.009Zm-2.32,6.68a2.42,2.42,0,0,0,1.863.817,2.458,2.458,0,0,0,1.868-.8,2.943,2.943,0,0,0,.751-2.1,2.927,2.927,0,0,0-.751-2.1,2.465,2.465,0,0,0-1.868-.8,2.424,2.424,0,0,0-1.859.817,2.946,2.946,0,0,0-.751,2.074A2.968,2.968,0,0,0,27.176-2.329Zm9.694-8.2a1.207,1.207,0,0,1-.879-.365,1.186,1.186,0,0,1-.369-.875,1.193,1.193,0,0,1,.365-.875,1.2,1.2,0,0,1,.883-.365,1.2,1.2,0,0,1,.87.365,1.186,1.186,0,0,1,.369.875,1.186,1.186,0,0,1-.369.875A1.2,1.2,0,0,1,36.87-10.529ZM35.833,0V-8.842h2.03V0Zm4.9,0V-13.5h2.039V0ZM46.67-10.529a1.207,1.207,0,0,1-.879-.365,1.186,1.186,0,0,1-.369-.875,1.193,1.193,0,0,1,.365-.875,1.2,1.2,0,0,1,.883-.365,1.2,1.2,0,0,1,.87.365,1.186,1.186,0,0,1,.369.875,1.186,1.186,0,0,1-.369.875A1.2,1.2,0,0,1,46.67-10.529ZM45.633,0V-8.842h2.03V0ZM56.918-13.5h2.021V0H57.006l-.053-1.406A2.845,2.845,0,0,1,55.771-.229,3.608,3.608,0,0,1,54.009.2a4.08,4.08,0,0,1-1.622-.325,4.1,4.1,0,0,1-1.332-.91,4.2,4.2,0,0,1-.905-1.459,5.341,5.341,0,0,1-.334-1.92,5.28,5.28,0,0,1,.334-1.907,4.2,4.2,0,0,1,.905-1.455,4.082,4.082,0,0,1,1.336-.91,4.089,4.089,0,0,1,1.617-.325,3.656,3.656,0,0,1,1.727.409,2.84,2.84,0,0,1,1.182,1.121ZM52.585-2.312a2.472,2.472,0,0,0,1.872.8,2.42,2.42,0,0,0,1.863-.817,2.968,2.968,0,0,0,.747-2.083,2.946,2.946,0,0,0-.751-2.074A2.424,2.424,0,0,0,54.457-7.3a2.465,2.465,0,0,0-1.868.8,2.927,2.927,0,0,0-.751,2.1A2.953,2.953,0,0,0,52.585-2.312ZM63.888.167a3.669,3.669,0,0,1-1.349-.233,2.144,2.144,0,0,1-.984-.791,2.353,2.353,0,0,1-.391-1.384,2.564,2.564,0,0,1,.18-.989,2.165,2.165,0,0,1,.475-.725,2.789,2.789,0,0,1,.747-.51,5.358,5.358,0,0,1,.914-.347q.461-.127,1.068-.242L65.883-5.3q.817-.158.817-.8a1.256,1.256,0,0,0-.492-1.1,2.1,2.1,0,0,0-1.239-.347,2.075,2.075,0,0,0-1.274.374,1.636,1.636,0,0,0-.6,1.182l-1.819-.334Q61.726-9,65.092-9a6.23,6.23,0,0,1,1.05.083,3.751,3.751,0,0,1,.958.3,2.756,2.756,0,0,1,.8.558,2.435,2.435,0,0,1,.536.9,3.743,3.743,0,0,1,.2,1.279v3.428a1.4,1.4,0,0,0,.185.844.8.8,0,0,0,.65.229h.141V0H68.66q-1.5,0-1.793-1.169h-.1A2.874,2.874,0,0,1,65.518-.158,4.143,4.143,0,0,1,63.888.167Zm.475-1.591a2.351,2.351,0,0,0,1.767-.729,2.645,2.645,0,0,0,.7-1.916l-2.259.5a2.708,2.708,0,0,0-1.09.409.883.883,0,0,0-.36.751.849.849,0,0,0,.343.738A1.5,1.5,0,0,0,64.362-1.424ZM77.766-13.5h2.021V0H77.854L77.8-1.406A2.845,2.845,0,0,1,76.619-.229,3.608,3.608,0,0,1,74.856.2a4.08,4.08,0,0,1-1.622-.325,4.1,4.1,0,0,1-1.332-.91A4.2,4.2,0,0,1,71-2.492a5.341,5.341,0,0,1-.334-1.92A5.28,5.28,0,0,1,71-6.319,4.2,4.2,0,0,1,71.9-7.774a4.082,4.082,0,0,1,1.336-.91,4.089,4.089,0,0,1,1.617-.325,3.656,3.656,0,0,1,1.727.409,2.84,2.84,0,0,1,1.182,1.121ZM73.433-2.312a2.472,2.472,0,0,0,1.872.8,2.42,2.42,0,0,0,1.863-.817,2.968,2.968,0,0,0,.747-2.083,2.946,2.946,0,0,0-.751-2.074A2.424,2.424,0,0,0,75.3-7.3a2.465,2.465,0,0,0-1.868.8,2.927,2.927,0,0,0-.751,2.1A2.953,2.953,0,0,0,73.433-2.312ZM90.677-4.57l-.026.51H83.927A2.667,2.667,0,0,0,84.7-2.127a2.525,2.525,0,0,0,1.784.668,2.424,2.424,0,0,0,1.314-.36,2.272,2.272,0,0,0,.875-1.028l1.846.316A3.886,3.886,0,0,1,88.989-.545,4.392,4.392,0,0,1,86.5.167a4.533,4.533,0,0,1-3.313-1.222A4.494,4.494,0,0,1,81.94-4.421a4.512,4.512,0,0,1,1.248-3.366,4.433,4.433,0,0,1,3.252-1.23,4.21,4.21,0,0,1,3.067,1.129A4.453,4.453,0,0,1,90.677-4.57ZM86.449-7.515a2.58,2.58,0,0,0-1.6.479,2.332,2.332,0,0,0-.839,1.463h4.632a2.131,2.131,0,0,0-.7-1.45A2.251,2.251,0,0,0,86.449-7.515ZM95.783.167A4.552,4.552,0,0,1,93.3-.461a2.623,2.623,0,0,1-1.213-1.824l1.714-.483A1.832,1.832,0,0,0,94.5-1.657a2.138,2.138,0,0,0,1.283.374,2.049,2.049,0,0,0,1.072-.264.9.9,0,0,0,.431-.853.824.824,0,0,0-.114-.435,1.2,1.2,0,0,0-.272-.316,1.9,1.9,0,0,0-.453-.25,5.107,5.107,0,0,0-.536-.193l-.655-.193Q94.843-3.911,94.57-4a6.249,6.249,0,0,1-.844-.325,4,4,0,0,1-.694-.439,1.72,1.72,0,0,1-.532-.69,2.434,2.434,0,0,1-.18-.971,2.324,2.324,0,0,1,.448-1.45,2.549,2.549,0,0,1,1.178-.857A4.824,4.824,0,0,1,95.616-9a4.127,4.127,0,0,1,2.237.571A2.5,2.5,0,0,1,98.982-6.68l-1.6.378a1.594,1.594,0,0,0-.637-.984A1.96,1.96,0,0,0,95.625-7.6a1.957,1.957,0,0,0-1.024.25.828.828,0,0,0-.417.76,1.032,1.032,0,0,0,.031.259.506.506,0,0,0,.119.215l.158.171a.825.825,0,0,0,.229.154q.158.079.255.123a2.767,2.767,0,0,0,.316.11l.325.1q.105.031.365.1l.365.092q.492.132.839.246a4.843,4.843,0,0,1,.765.338,2.665,2.665,0,0,1,.677.5,2.219,2.219,0,0,1,.435.708,2.571,2.571,0,0,1,.176.971,2.623,2.623,0,0,1-.281,1.244,2.139,2.139,0,0,1-.769.835A3.768,3.768,0,0,1,97.1.018,5.449,5.449,0,0,1,95.783.167Z" transform="translate(756 3112)" fill="#00223d"/>
      <path id="Trazado_36140" data-name="Trazado 36140" d="M31.5,0A31.5,31.5,0,1,1,0,31.5,31.5,31.5,0,0,1,31.5,0Z" transform="translate(774 3012)" fill="#fff"/>
      <path id="Trazado_36142" data-name="Trazado 36142" d="M-4001,1317.544h10.5V1296h14.25v21.544H-3965L-3983,1342Z" transform="translate(4789 1725)" fill="#b53a3a"/>
      <path id="Trazado_36145" data-name="Trazado 36145" d="M10.02,0,9.026-2.786H3.551L2.566,0H.4L5.01-12.533H7.567L12.182,0ZM4.192-4.588h4.2l-2.1-5.924ZM23.783-9.009a3.107,3.107,0,0,1,2.171.734A2.664,2.664,0,0,1,26.763-6.2V0h-2.03V-5.634a1.736,1.736,0,0,0-.439-1.288,1.509,1.509,0,0,0-1.107-.435,1.657,1.657,0,0,0-1.27.523,2.3,2.3,0,0,0-.488,1.613V0H19.371V-5.59a1.8,1.8,0,0,0-.444-1.318A1.522,1.522,0,0,0,17.8-7.356a1.644,1.644,0,0,0-1.274.541,2.442,2.442,0,0,0-.492,1.683V0H14.019V-8.842h2.013v1.09a2.852,2.852,0,0,1,2.5-1.257,3.351,3.351,0,0,1,1.582.356,2.342,2.342,0,0,1,1.02,1.024A2.935,2.935,0,0,1,23.783-9.009ZM37.494-4.57l-.026.51H30.744a2.667,2.667,0,0,0,.773,1.934,2.525,2.525,0,0,0,1.784.668,2.424,2.424,0,0,0,1.314-.36,2.272,2.272,0,0,0,.875-1.028l1.846.316A3.886,3.886,0,0,1,35.807-.545a4.392,4.392,0,0,1-2.487.712,4.533,4.533,0,0,1-3.313-1.222,4.494,4.494,0,0,1-1.248-3.366,4.512,4.512,0,0,1,1.248-3.366,4.433,4.433,0,0,1,3.252-1.23,4.21,4.21,0,0,1,3.067,1.129A4.453,4.453,0,0,1,37.494-4.57ZM33.267-7.515a2.58,2.58,0,0,0-1.6.479,2.332,2.332,0,0,0-.839,1.463h4.632a2.131,2.131,0,0,0-.7-1.45A2.251,2.251,0,0,0,33.267-7.515ZM44.35-9.009a3.273,3.273,0,0,1,2.338.8,2.96,2.96,0,0,1,.844,2.263V0H45.492V-5.511A1.814,1.814,0,0,0,45-6.9a1.768,1.768,0,0,0-1.252-.453,2.066,2.066,0,0,0-1.494.558,2.311,2.311,0,0,0-.589,1.718V0H39.647V-8.842h2.021V-7.8a2.987,2.987,0,0,1,1.138-.9A3.658,3.658,0,0,1,44.35-9.009ZM52.3.167a3.669,3.669,0,0,1-1.349-.233,2.144,2.144,0,0,1-.984-.791,2.353,2.353,0,0,1-.391-1.384,2.564,2.564,0,0,1,.18-.989,2.165,2.165,0,0,1,.475-.725,2.789,2.789,0,0,1,.747-.51,5.358,5.358,0,0,1,.914-.347q.461-.127,1.068-.242L54.3-5.3q.817-.158.817-.8a1.256,1.256,0,0,0-.492-1.1,2.1,2.1,0,0,0-1.239-.347,2.075,2.075,0,0,0-1.274.374,1.636,1.636,0,0,0-.6,1.182l-1.819-.334Q50.142-9,53.508-9a6.23,6.23,0,0,1,1.05.083,3.751,3.751,0,0,1,.958.3,2.756,2.756,0,0,1,.8.558,2.435,2.435,0,0,1,.536.9,3.743,3.743,0,0,1,.2,1.279v3.428a1.4,1.4,0,0,0,.185.844.8.8,0,0,0,.65.229h.141V0h-.958q-1.5,0-1.793-1.169h-.1A2.874,2.874,0,0,1,53.934-.158,4.143,4.143,0,0,1,52.3.167Zm.475-1.591a2.351,2.351,0,0,0,1.767-.729,2.645,2.645,0,0,0,.7-1.916l-2.259.5a2.708,2.708,0,0,0-1.09.409.883.883,0,0,0-.36.751.849.849,0,0,0,.343.738A1.5,1.5,0,0,0,52.778-1.424Zm13.4-7.418L61.9-1.591H66.12V0H58.957l4.254-7.242H59.247v-1.6ZM69.891.167a3.669,3.669,0,0,1-1.349-.233,2.144,2.144,0,0,1-.984-.791,2.353,2.353,0,0,1-.391-1.384,2.564,2.564,0,0,1,.18-.989,2.165,2.165,0,0,1,.475-.725,2.789,2.789,0,0,1,.747-.51,5.358,5.358,0,0,1,.914-.347q.461-.127,1.068-.242L71.886-5.3q.817-.158.817-.8a1.256,1.256,0,0,0-.492-1.1,2.1,2.1,0,0,0-1.239-.347,2.075,2.075,0,0,0-1.274.374,1.636,1.636,0,0,0-.6,1.182L67.28-6.328Q67.729-9,71.095-9a6.23,6.23,0,0,1,1.05.083,3.751,3.751,0,0,1,.958.3,2.756,2.756,0,0,1,.8.558,2.435,2.435,0,0,1,.536.9,3.743,3.743,0,0,1,.2,1.279v3.428a1.4,1.4,0,0,0,.185.844.8.8,0,0,0,.65.229h.141V0h-.958q-1.5,0-1.793-1.169h-.1A2.874,2.874,0,0,1,71.521-.158,4.143,4.143,0,0,1,69.891.167Zm.475-1.591a2.351,2.351,0,0,0,1.767-.729,2.645,2.645,0,0,0,.7-1.916l-2.259.5a2.708,2.708,0,0,0-1.09.409.883.883,0,0,0-.36.751.849.849,0,0,0,.343.738A1.5,1.5,0,0,0,70.365-1.424ZM80.534.167a4.552,4.552,0,0,1-2.479-.628,2.623,2.623,0,0,1-1.213-1.824l1.714-.483a1.832,1.832,0,0,0,.694,1.112,2.138,2.138,0,0,0,1.283.374,2.049,2.049,0,0,0,1.072-.264.9.9,0,0,0,.431-.853.824.824,0,0,0-.114-.435,1.2,1.2,0,0,0-.272-.316A1.9,1.9,0,0,0,81.2-3.4a5.107,5.107,0,0,0-.536-.193l-.655-.193q-.413-.123-.686-.211a6.249,6.249,0,0,1-.844-.325,4,4,0,0,1-.694-.439,1.72,1.72,0,0,1-.532-.69,2.434,2.434,0,0,1-.18-.971,2.324,2.324,0,0,1,.448-1.45A2.549,2.549,0,0,1,78.7-8.732,4.824,4.824,0,0,1,80.367-9a4.127,4.127,0,0,1,2.237.571A2.5,2.5,0,0,1,83.733-6.68l-1.6.378a1.594,1.594,0,0,0-.637-.984A1.96,1.96,0,0,0,80.376-7.6a1.957,1.957,0,0,0-1.024.25.828.828,0,0,0-.417.76,1.032,1.032,0,0,0,.031.259.506.506,0,0,0,.119.215l.158.171a.825.825,0,0,0,.229.154q.158.079.255.123a2.767,2.767,0,0,0,.316.11l.325.1q.105.031.365.1l.365.092q.492.132.839.246a4.843,4.843,0,0,1,.765.338,2.665,2.665,0,0,1,.677.5,2.219,2.219,0,0,1,.435.708,2.571,2.571,0,0,1,.176.971,2.623,2.623,0,0,1-.281,1.244,2.139,2.139,0,0,1-.769.835,3.768,3.768,0,0,1-1.09.453A5.449,5.449,0,0,1,80.534.167Z" transform="translate(1070 3112)" fill="#00223d"/>
      <path id="Trazado_36141" data-name="Trazado 36141" d="M31.5,0A31.5,31.5,0,1,1,0,31.5,31.5,31.5,0,0,1,31.5,0Z" transform="translate(1079 3014)" fill="#fff"/>
      <path id="Trazado_36143" data-name="Trazado 36143" d="M-3981.077,1326l-9.847,9.847L-4001,1325.77l9.846-9.847-9.847-9.847,10.076-10.076,9.847,9.847,9.847-9.847,10.076,10.076-9.847,9.847,9.847,9.847-10.076,10.076Z" transform="translate(5092 1727.152)" fill="#b53a3a"/>
      <path id="Trazado_36131" data-name="Trazado 36131" d="M15,0H167a15,15,0,0,1,15,15V62a15,15,0,0,1-15,15H15A15,15,0,0,1,0,62V15A15,15,0,0,1,15,0Z" transform="translate(874 2932)" fill="#fff"/>
      <path id="Trazado_36133" data-name="Trazado 36133" d="M2.191,0V-15.318H7.434a8.349,8.349,0,0,1,3.137.553A5.832,5.832,0,0,1,12.832-13.2a6.851,6.851,0,0,1,1.343,2.417,10,10,0,0,1,.457,3.11,9.468,9.468,0,0,1-.79,4.007A5.994,5.994,0,0,1,11.414-.978,7.635,7.635,0,0,1,7.434,0ZM4.759-2.3H7.326A4.215,4.215,0,0,0,10.78-3.7,6.084,6.084,0,0,0,11.935-7.67a6.065,6.065,0,0,0-1.155-3.958,4.215,4.215,0,0,0-3.454-1.4H4.759Zm14.083-10.57a1.476,1.476,0,0,1-1.074-.446,1.449,1.449,0,0,1-.451-1.069,1.458,1.458,0,0,1,.446-1.069,1.47,1.47,0,0,1,1.08-.446,1.463,1.463,0,0,1,1.063.446,1.449,1.449,0,0,1,.451,1.069,1.449,1.449,0,0,1-.451,1.069A1.463,1.463,0,0,1,18.842-12.869ZM17.574,0V-10.807h2.481V0ZM26.1.2a4.485,4.485,0,0,1-1.649-.285,2.621,2.621,0,0,1-1.2-.967,2.876,2.876,0,0,1-.478-1.692,3.134,3.134,0,0,1,.22-1.208,2.646,2.646,0,0,1,.58-.886,3.409,3.409,0,0,1,.913-.623A6.548,6.548,0,0,1,25.6-5.881q.564-.156,1.305-.3l1.633-.3q1-.193,1-.978a1.535,1.535,0,0,0-.6-1.348,2.565,2.565,0,0,0-1.515-.424,2.535,2.535,0,0,0-1.558.457,2,2,0,0,0-.73,1.445l-2.224-.408Q23.461-11,27.575-11a7.615,7.615,0,0,1,1.284.1,4.585,4.585,0,0,1,1.171.371,3.368,3.368,0,0,1,.983.682,2.976,2.976,0,0,1,.655,1.1,4.575,4.575,0,0,1,.247,1.563V-3a1.711,1.711,0,0,0,.226,1.031.972.972,0,0,0,.795.279h.172V0H31.937Q30.1,0,29.745-1.429h-.118A3.513,3.513,0,0,1,28.1-.193,5.064,5.064,0,0,1,26.1.2Zm.58-1.944a2.873,2.873,0,0,0,2.159-.892A3.233,3.233,0,0,0,29.7-4.974l-2.761.612a3.31,3.31,0,0,0-1.332.5,1.079,1.079,0,0,0-.44.918,1.038,1.038,0,0,0,.419.9A1.837,1.837,0,0,0,26.684-1.74Zm16.188-9.066h2.385V-.677A5.883,5.883,0,0,1,43.8,3.658a5.466,5.466,0,0,1-4.044,1.456q-4.093,0-5.414-3.33L36.395.859a3.8,3.8,0,0,0,1.268,1.713,3.368,3.368,0,0,0,2,.564,2.834,2.834,0,0,0,2.32-.951,4.139,4.139,0,0,0,.784-2.7v-1.6A3.572,3.572,0,0,1,41.32-.833a4.479,4.479,0,0,1-2.079.489,4.648,4.648,0,0,1-3.5-1.5,5.346,5.346,0,0,1-1.434-3.846,5.859,5.859,0,0,1,.4-2.175,4.981,4.981,0,0,1,1.069-1.687,4.883,4.883,0,0,1,1.574-1.069,4.8,4.8,0,0,1,1.912-.387,4.341,4.341,0,0,1,2.122.521,3.484,3.484,0,0,1,1.423,1.38ZM39.843-2.385a2.955,2.955,0,0,0,2.234-.967,3.287,3.287,0,0,0,.913-2.342,3.316,3.316,0,0,0-.908-2.347,2.943,2.943,0,0,0-2.24-.972,2.965,2.965,0,0,0-2.234.945,3.3,3.3,0,0,0-.9,2.374,3.271,3.271,0,0,0,.913,2.358A2.967,2.967,0,0,0,39.843-2.385ZM54.5-11.011a4,4,0,0,1,2.857.972,3.618,3.618,0,0,1,1.031,2.766V0H55.892V-6.735a2.217,2.217,0,0,0-.6-1.7,2.161,2.161,0,0,0-1.531-.553,2.525,2.525,0,0,0-1.826.682,2.825,2.825,0,0,0-.72,2.1V0H48.748V-10.807h2.471v1.278a3.651,3.651,0,0,1,1.391-1.1A4.471,4.471,0,0,1,54.5-11.011Zm11.129-1.45L68.385-16.2l1.257.9-2.417,2.836ZM66.462.2a5.679,5.679,0,0,1-4.093-1.52,5.4,5.4,0,0,1-1.59-4.1,5.376,5.376,0,0,1,1.59-4.077,5.679,5.679,0,0,1,4.093-1.52,5.705,5.705,0,0,1,4.1,1.515,5.372,5.372,0,0,1,1.59,4.082,5.4,5.4,0,0,1-1.59,4.1A5.694,5.694,0,0,1,66.462.2Zm-.021-2a3.03,3.03,0,0,0,2.342-1A3.734,3.734,0,0,0,69.7-5.414a3.714,3.714,0,0,0-.913-2.616,3.038,3.038,0,0,0-2.342-.994,2.968,2.968,0,0,0-2.3.994,3.741,3.741,0,0,0-.9,2.616,3.775,3.775,0,0,0,.9,2.621A2.956,2.956,0,0,0,66.44-1.794ZM78.375.2a5.563,5.563,0,0,1-3.029-.768,3.206,3.206,0,0,1-1.482-2.229l2.095-.591a2.239,2.239,0,0,0,.849,1.359,2.613,2.613,0,0,0,1.568.457,2.5,2.5,0,0,0,1.311-.322,1.1,1.1,0,0,0,.526-1.042,1.007,1.007,0,0,0-.14-.532,1.461,1.461,0,0,0-.333-.387,2.324,2.324,0,0,0-.553-.306,6.242,6.242,0,0,0-.655-.236l-.8-.236q-.5-.15-.838-.258a7.637,7.637,0,0,1-1.031-.4,4.894,4.894,0,0,1-.849-.537,2.1,2.1,0,0,1-.65-.843,2.975,2.975,0,0,1-.22-1.187,2.841,2.841,0,0,1,.548-1.772,3.116,3.116,0,0,1,1.439-1.047A5.9,5.9,0,0,1,78.171-11a5.044,5.044,0,0,1,2.734.7,3.051,3.051,0,0,1,1.38,2.138L80.33-7.7a1.948,1.948,0,0,0-.779-1.2,2.4,2.4,0,0,0-1.37-.387,2.392,2.392,0,0,0-1.251.306,1.012,1.012,0,0,0-.51.929,1.261,1.261,0,0,0,.038.317.618.618,0,0,0,.145.263q.107.118.193.209a1.009,1.009,0,0,0,.279.188q.193.1.312.15a3.381,3.381,0,0,0,.387.134l.4.118q.129.038.446.118l.446.113q.6.161,1.026.3a5.92,5.92,0,0,1,.935.414,3.257,3.257,0,0,1,.827.607,2.713,2.713,0,0,1,.532.865A3.143,3.143,0,0,1,82.6-3.072a3.205,3.205,0,0,1-.344,1.52,2.614,2.614,0,0,1-.94,1.021,4.605,4.605,0,0,1-1.332.553A6.66,6.66,0,0,1,78.375.2ZM88.913,0a3.055,3.055,0,0,1-2.277-.827,3.176,3.176,0,0,1-.816-2.331V-8.873H83.66v-1.934H84.4a1.69,1.69,0,0,0,1.273-.414,2.089,2.089,0,0,0,.392-1.445v-1.676h2.256v3.534h2.353v1.934H88.322v5.457a1.549,1.549,0,0,0,.371,1.123,1.336,1.336,0,0,0,1,.381h.978V0Zm5.575-12.869a1.476,1.476,0,0,1-1.074-.446,1.449,1.449,0,0,1-.451-1.069,1.458,1.458,0,0,1,.446-1.069,1.47,1.47,0,0,1,1.08-.446,1.463,1.463,0,0,1,1.063.446A1.449,1.449,0,0,1,96-14.384a1.449,1.449,0,0,1-.451,1.069A1.463,1.463,0,0,1,94.488-12.869ZM93.221,0V-10.807H95.7V0Zm10.667.193a5.484,5.484,0,0,1-4.028-1.552,5.454,5.454,0,0,1-1.568-4.055,5.426,5.426,0,0,1,1.574-4.05,5.5,5.5,0,0,1,4.023-1.547,5.491,5.491,0,0,1,3.314.994,4.691,4.691,0,0,1,1.81,2.777l-2.3.3a2.88,2.88,0,0,0-1.058-1.547,2.981,2.981,0,0,0-1.789-.537,2.835,2.835,0,0,0-2.234.994,3.827,3.827,0,0,0-.87,2.616,3.827,3.827,0,0,0,.87,2.616,2.835,2.835,0,0,0,2.234.994,3,3,0,0,0,1.789-.532,2.852,2.852,0,0,0,1.058-1.542l2.3.29a4.7,4.7,0,0,1-1.821,2.782A5.482,5.482,0,0,1,103.888.193Zm12.4.011a5.679,5.679,0,0,1-4.093-1.52,5.4,5.4,0,0,1-1.59-4.1,5.376,5.376,0,0,1,1.59-4.077,5.679,5.679,0,0,1,4.093-1.52,5.705,5.705,0,0,1,4.1,1.515,5.372,5.372,0,0,1,1.59,4.082,5.4,5.4,0,0,1-1.59,4.1A5.694,5.694,0,0,1,116.284.2Zm-.021-2a3.03,3.03,0,0,0,2.342-1,3.734,3.734,0,0,0,.913-2.621A3.714,3.714,0,0,0,118.6-8.03a3.038,3.038,0,0,0-2.342-.994,2.968,2.968,0,0,0-2.3.994,3.741,3.741,0,0,0-.9,2.616,3.775,3.775,0,0,0,.9,2.621A2.956,2.956,0,0,0,116.263-1.794Z" transform="translate(904 2977)" fill="#00223d"/>
    </g>
  </g>
</svg>
