<svg xmlns="http://www.w3.org/2000/svg" width="713.409" height="704" viewBox="0 0 713.409 704">
  <g id="Grupo_17657" data-name="Grupo 17657" transform="translate(-607.793 -1693)">
    <g id="Grupo_17650" data-name="Grupo 17650">
      <rect id="Rectángulo_3416" data-name="Rectángulo 3416" width="266" height="65" rx="10" transform="translate(827 1693)" fill="#472ea6"/>
      <path id="Trazado_36122" data-name="Trazado 36122" d="M19.8,0H16.586L15.565-11.7,11.634,0H9.55L5.618-11.7,4.587,0H1.364l1.3-15.522h4.6L10.57-5.779l3.352-9.743h4.6ZM31.754-3a10.331,10.331,0,0,0,.269,2.7V0h-2.89l-.247-1.2A3.591,3.591,0,0,1,27.339-.14a5.7,5.7,0,0,1-2,.354,5.254,5.254,0,0,1-1.031-.1,3.506,3.506,0,0,1-.929-.328,2.82,2.82,0,0,1-.768-.575A2.52,2.52,0,0,1,22.1-1.66a3.488,3.488,0,0,1-.193-1.2,3.321,3.321,0,0,1,.2-1.2,2.807,2.807,0,0,1,.537-.9,3.258,3.258,0,0,1,.87-.655,6.658,6.658,0,0,1,1.1-.473,13.092,13.092,0,0,1,1.311-.344l1.815-.408a2,2,0,0,0,.822-.349.7.7,0,0,0,.242-.553A1.14,1.14,0,0,0,28.257-8.8a2.533,2.533,0,0,0-1.316-.322,1.894,1.894,0,0,0-2.159,1.687l-2.739-.494a3.708,3.708,0,0,1,1.6-2.519,6.362,6.362,0,0,1,3.47-.811q4.641,0,4.641,3.985ZM26.308-1.88a2.488,2.488,0,0,0,1.912-.8,3.372,3.372,0,0,0,.741-2.369l-2.621.741a3.1,3.1,0,0,0-1.1.451.927.927,0,0,0-.381.795,1.029,1.029,0,0,0,.408.875A1.689,1.689,0,0,0,26.308-1.88ZM38.726,0a3.335,3.335,0,0,1-2.492-.9,3.489,3.489,0,0,1-.881-2.551V-8.669h-2.17v-2.374h.7a1.822,1.822,0,0,0,1.375-.462,2.378,2.378,0,0,0,.44-1.644v-1.461h2.793v3.566h2.277v2.374H38.489v4.888q0,1.429,1.278,1.429h1V0Zm7.4-9.292a3.585,3.585,0,0,1,1.45-1.327,4.425,4.425,0,0,1,2.159-.553v2.761a4.183,4.183,0,0,0-2.643.666,2.908,2.908,0,0,0-.816,2.363V0H43.162V-11.043h2.965Zm7-3.405a1.737,1.737,0,0,1-1.268-.521,1.71,1.71,0,0,1-.526-1.262,1.69,1.69,0,0,1,.532-1.251,1.742,1.742,0,0,1,1.262-.521,1.712,1.712,0,0,1,1.246.521A1.7,1.7,0,0,1,54.9-14.48a1.71,1.71,0,0,1-.526,1.262A1.712,1.712,0,0,1,53.131-12.7ZM51.552,0V-11.043h3.115V0ZM65.925-11.043,61.069-2.385h4.705V0h-9.1L61.51-8.658H57.052v-2.385ZM74.164,0V-15.522h5.618a8.759,8.759,0,0,1,3.239.559,5.965,5.965,0,0,1,2.32,1.584,6.893,6.893,0,0,1,1.375,2.444,10.09,10.09,0,0,1,.467,3.169,10.127,10.127,0,0,1-.467,3.18,6.893,6.893,0,0,1-1.375,2.444,5.965,5.965,0,0,1-2.32,1.584A8.759,8.759,0,0,1,79.782,0Zm3.223-2.847h2.234a3.813,3.813,0,0,0,3.137-1.262,5.657,5.657,0,0,0,1.031-3.658,5.657,5.657,0,0,0-1.031-3.658,3.813,3.813,0,0,0-3.137-1.262H77.387ZM97.077.215A8.438,8.438,0,0,1,93-.757a7.047,7.047,0,0,1-2.831-2.8,8.416,8.416,0,0,1-1.031-4.211,8.408,8.408,0,0,1,1.031-4.216A7.021,7.021,0,0,1,93-14.771a8.476,8.476,0,0,1,4.077-.967,8.444,8.444,0,0,1,4.071.967,7.03,7.03,0,0,1,2.825,2.788A8.408,8.408,0,0,1,105-7.767a8.416,8.416,0,0,1-1.031,4.211,7.047,7.047,0,0,1-2.831,2.8A8.415,8.415,0,0,1,97.077.215ZM93.683-4.093a4.559,4.559,0,0,0,3.395,1.354A4.55,4.55,0,0,0,100.472-4.1,5.014,5.014,0,0,0,101.8-7.767a4.98,4.98,0,0,0-1.332-3.652,4.559,4.559,0,0,0-3.395-1.354,4.559,4.559,0,0,0-3.395,1.354,4.98,4.98,0,0,0-1.332,3.652A5.033,5.033,0,0,0,93.683-4.093Zm23.439-8.594h-5.908v3.523h5.1v2.8h-5.1V0H107.97V-15.522h9.152ZM128.917,0l-1.128-3.2h-6.521L120.141,0h-3.3l5.715-15.522H126.5L132.215,0Zm-6.7-5.9h4.63l-2.31-6.585Z" transform="translate(894 1733)" fill="#fff"/>
      <g id="Grupo_12184" data-name="Grupo 12184" transform="translate(22)">
        <path id="Trazado_35306" data-name="Trazado 35306" d="M4871.9,482.932,4746.043,608.785" transform="translate(-4001 1296)" fill="none" stroke="#ff8f00" stroke-width="2"/>
        <path id="Polígono_9" data-name="Polígono 9" d="M6,0l6,11H0Z" transform="translate(743.197 1915.653) rotate(-137)" fill="#ff8f00"/>
      </g>
      <path id="Trazado_36118" data-name="Trazado 36118" d="M7.251.167A6.866,6.866,0,0,1,4.742-.286a5.943,5.943,0,0,1-2.008-1.27A5.732,5.732,0,0,1,1.406-3.59,7.214,7.214,0,0,1,.923-6.275,6.831,6.831,0,0,1,1.753-9.69a5.638,5.638,0,0,1,2.263-2.246,6.7,6.7,0,0,1,3.234-.773,6.512,6.512,0,0,1,3.507.949A5.533,5.533,0,0,1,12.99-9.132l-1.96.747a3.747,3.747,0,0,0-1.49-1.74,4.255,4.255,0,0,0-2.29-.624,4.453,4.453,0,0,0-1.661.308,4,4,0,0,0-1.345.87,3.911,3.911,0,0,0-.9,1.411,5.228,5.228,0,0,0-.325,1.885,5.3,5.3,0,0,0,.325,1.894,3.9,3.9,0,0,0,.9,1.419A3.946,3.946,0,0,0,5.59-2.1a4.51,4.51,0,0,0,1.661.3,4.271,4.271,0,0,0,2.294-.62A3.73,3.73,0,0,0,11.03-4.148l1.96.747A5.516,5.516,0,0,1,10.762-.778,6.528,6.528,0,0,1,7.251.167Zm11.725,0a4.647,4.647,0,0,1-3.349-1.244,4.421,4.421,0,0,1-1.3-3.353,4.4,4.4,0,0,1,1.3-3.335,4.647,4.647,0,0,1,3.349-1.244A4.668,4.668,0,0,1,22.333-7.77a4.4,4.4,0,0,1,1.3,3.34,4.421,4.421,0,0,1-1.3,3.353A4.658,4.658,0,0,1,18.976.167Zm-.018-1.635a2.479,2.479,0,0,0,1.916-.817,3.055,3.055,0,0,0,.747-2.145,3.039,3.039,0,0,0-.747-2.14,2.485,2.485,0,0,0-1.916-.813,2.428,2.428,0,0,0-1.881.813,3.061,3.061,0,0,0-.738,2.14,3.088,3.088,0,0,0,.734,2.145A2.419,2.419,0,0,0,18.958-1.468ZM35.534-9.009a3.107,3.107,0,0,1,2.171.734A2.664,2.664,0,0,1,38.514-6.2V0h-2.03V-5.634a1.736,1.736,0,0,0-.439-1.288,1.509,1.509,0,0,0-1.107-.435,1.657,1.657,0,0,0-1.27.523,2.3,2.3,0,0,0-.488,1.613V0H31.122V-5.59a1.8,1.8,0,0,0-.444-1.318,1.522,1.522,0,0,0-1.129-.448,1.644,1.644,0,0,0-1.274.541,2.442,2.442,0,0,0-.492,1.683V0H25.77V-8.842h2.013v1.09a2.852,2.852,0,0,1,2.5-1.257,3.351,3.351,0,0,1,1.582.356,2.342,2.342,0,0,1,1.02,1.024A2.935,2.935,0,0,1,35.534-9.009Zm10.617,0a4.12,4.12,0,0,1,2.1.545,3.975,3.975,0,0,1,1.516,1.6,5.076,5.076,0,0,1,.571,2.448,5.431,5.431,0,0,1-.33,1.929,4.146,4.146,0,0,1-.9,1.459,4.038,4.038,0,0,1-1.332.905A4.128,4.128,0,0,1,46.151.2a3.624,3.624,0,0,1-1.727-.413,2.851,2.851,0,0,1-1.182-1.134V4.377H41.221V-8.842h1.934L43.207-7.4a2.805,2.805,0,0,1,1.182-1.182A3.638,3.638,0,0,1,46.151-9.009Zm-.439,7.5A2.447,2.447,0,0,0,47.566-2.3a2.946,2.946,0,0,0,.747-2.109,2.915,2.915,0,0,0-.747-2.1,2.461,2.461,0,0,0-1.854-.782,2.453,2.453,0,0,0-1.872.813,2.92,2.92,0,0,0-.756,2.07,2.948,2.948,0,0,0,.756,2.083A2.447,2.447,0,0,0,45.712-1.512Zm12.463-7.33H60.2V0H58.271l-.053-1.107A3.163,3.163,0,0,1,55.494.167a3.273,3.273,0,0,1-2.338-.8,2.96,2.96,0,0,1-.844-2.263v-5.95h2.039v5.511a1.814,1.814,0,0,0,.488,1.393,1.781,1.781,0,0,0,1.261.453,2.051,2.051,0,0,0,1.49-.558,2.322,2.322,0,0,0,.584-1.718ZM71.086-4.57l-.026.51H64.336a2.667,2.667,0,0,0,.773,1.934,2.525,2.525,0,0,0,1.784.668,2.424,2.424,0,0,0,1.314-.36,2.272,2.272,0,0,0,.875-1.028l1.846.316A3.886,3.886,0,0,1,69.4-.545a4.392,4.392,0,0,1-2.487.712A4.533,4.533,0,0,1,63.6-1.055,4.494,4.494,0,0,1,62.35-4.421,4.512,4.512,0,0,1,63.6-7.787a4.433,4.433,0,0,1,3.252-1.23,4.21,4.21,0,0,1,3.067,1.129A4.453,4.453,0,0,1,71.086-4.57ZM66.858-7.515a2.58,2.58,0,0,0-1.6.479,2.332,2.332,0,0,0-.839,1.463h4.632a2.131,2.131,0,0,0-.7-1.45A2.251,2.251,0,0,0,66.858-7.515ZM76.192.167a4.552,4.552,0,0,1-2.479-.628A2.623,2.623,0,0,1,72.5-2.285l1.714-.483a1.832,1.832,0,0,0,.694,1.112,2.138,2.138,0,0,0,1.283.374,2.049,2.049,0,0,0,1.072-.264A.9.9,0,0,0,77.7-2.4a.824.824,0,0,0-.114-.435,1.2,1.2,0,0,0-.272-.316,1.9,1.9,0,0,0-.453-.25,5.107,5.107,0,0,0-.536-.193l-.655-.193q-.413-.123-.686-.211a6.249,6.249,0,0,1-.844-.325,4,4,0,0,1-.694-.439,1.72,1.72,0,0,1-.532-.69,2.434,2.434,0,0,1-.18-.971,2.324,2.324,0,0,1,.448-1.45,2.549,2.549,0,0,1,1.178-.857A4.824,4.824,0,0,1,76.025-9a4.127,4.127,0,0,1,2.237.571A2.5,2.5,0,0,1,79.392-6.68l-1.6.378a1.594,1.594,0,0,0-.637-.984A1.96,1.96,0,0,0,76.034-7.6a1.957,1.957,0,0,0-1.024.25.828.828,0,0,0-.417.76,1.032,1.032,0,0,0,.031.259.506.506,0,0,0,.119.215l.158.171a.825.825,0,0,0,.229.154q.158.079.255.123a2.767,2.767,0,0,0,.316.11l.325.1q.105.031.365.1l.365.092q.492.132.839.246a4.843,4.843,0,0,1,.765.338,2.665,2.665,0,0,1,.677.5,2.219,2.219,0,0,1,.435.708,2.571,2.571,0,0,1,.176.971,2.623,2.623,0,0,1-.281,1.244,2.139,2.139,0,0,1-.769.835,3.768,3.768,0,0,1-1.09.453A5.449,5.449,0,0,1,76.192.167ZM84.814,0a2.5,2.5,0,0,1-1.863-.677,2.6,2.6,0,0,1-.668-1.907V-7.26H80.517V-8.842h.606a1.382,1.382,0,0,0,1.042-.338,1.709,1.709,0,0,0,.321-1.182v-1.371h1.846v2.892h1.925V-7.26H84.331v4.465a1.267,1.267,0,0,0,.3.918,1.093,1.093,0,0,0,.822.312h.8V0Zm5.537.167A3.669,3.669,0,0,1,89-.066a2.144,2.144,0,0,1-.984-.791,2.353,2.353,0,0,1-.391-1.384,2.564,2.564,0,0,1,.18-.989,2.165,2.165,0,0,1,.475-.725,2.789,2.789,0,0,1,.747-.51,5.358,5.358,0,0,1,.914-.347q.461-.127,1.068-.242L92.347-5.3q.817-.158.817-.8a1.256,1.256,0,0,0-.492-1.1,2.1,2.1,0,0,0-1.239-.347,2.075,2.075,0,0,0-1.274.374,1.636,1.636,0,0,0-.6,1.182l-1.819-.334Q88.189-9,91.556-9a6.23,6.23,0,0,1,1.05.083,3.751,3.751,0,0,1,.958.3,2.756,2.756,0,0,1,.8.558,2.435,2.435,0,0,1,.536.9,3.743,3.743,0,0,1,.2,1.279v3.428a1.4,1.4,0,0,0,.185.844.8.8,0,0,0,.65.229h.141V0h-.958q-1.5,0-1.793-1.169h-.1A2.874,2.874,0,0,1,91.982-.158,4.143,4.143,0,0,1,90.352.167Zm.475-1.591a2.351,2.351,0,0,0,1.767-.729,2.645,2.645,0,0,0,.7-1.916l-2.259.5a2.708,2.708,0,0,0-1.09.409.883.883,0,0,0-.36.751.849.849,0,0,0,.343.738A1.5,1.5,0,0,0,90.826-1.424Zm16.822-7.585a4.12,4.12,0,0,1,2.1.545,3.975,3.975,0,0,1,1.516,1.6,5.076,5.076,0,0,1,.571,2.448,5.431,5.431,0,0,1-.33,1.929,4.146,4.146,0,0,1-.9,1.459,4.038,4.038,0,0,1-1.332.905A4.128,4.128,0,0,1,107.648.2a3.624,3.624,0,0,1-1.727-.413,2.851,2.851,0,0,1-1.182-1.134V4.377h-2.021V-8.842h1.934L104.7-7.4a2.805,2.805,0,0,1,1.182-1.182A3.638,3.638,0,0,1,107.648-9.009Zm-.439,7.5a2.447,2.447,0,0,0,1.854-.791,2.946,2.946,0,0,0,.747-2.109,2.915,2.915,0,0,0-.747-2.1,2.461,2.461,0,0,0-1.854-.782,2.453,2.453,0,0,0-1.872.813,2.92,2.92,0,0,0-.756,2.07,2.948,2.948,0,0,0,.756,2.083A2.447,2.447,0,0,0,107.209-1.512ZM117.914.167a4.647,4.647,0,0,1-3.349-1.244,4.421,4.421,0,0,1-1.3-3.353,4.4,4.4,0,0,1,1.3-3.335,4.647,4.647,0,0,1,3.349-1.244,4.668,4.668,0,0,1,3.357,1.239,4.4,4.4,0,0,1,1.3,3.34,4.421,4.421,0,0,1-1.3,3.353A4.658,4.658,0,0,1,117.914.167ZM117.9-1.468a2.479,2.479,0,0,0,1.916-.817,3.055,3.055,0,0,0,.747-2.145,3.039,3.039,0,0,0-.747-2.14,2.485,2.485,0,0,0-1.916-.813,2.428,2.428,0,0,0-1.881.813,3.061,3.061,0,0,0-.738,2.14,3.088,3.088,0,0,0,.734,2.145A2.419,2.419,0,0,0,117.9-1.468Zm8.763-5.889a2.67,2.67,0,0,1,1.121-1.125,3.5,3.5,0,0,1,1.727-.457v1.846a3.115,3.115,0,0,0-2.087.593,2.523,2.523,0,0,0-.681,1.991V0h-2.03V-8.842h1.951Z" transform="translate(680 1941)" fill="#00223d"/>
      <g id="Grupo_12185" data-name="Grupo 12185" transform="translate(1027.421 1778.932)">
        <path id="Trazado_35306-2" data-name="Trazado 35306" d="M4746.042,482.932,4871.9,608.785" transform="translate(-4746.042 -482.932)" fill="none" stroke="#ff8f00" stroke-width="2"/>
        <path id="Polígono_9-2" data-name="Polígono 9" d="M6,0l6,11H0Z" transform="translate(136.475 128.537) rotate(137)" fill="#ff8f00"/>
      </g>
      <path id="Trazado_36121" data-name="Trazado 36121" d="M7.251.167A6.866,6.866,0,0,1,4.742-.286a5.943,5.943,0,0,1-2.008-1.27A5.732,5.732,0,0,1,1.406-3.59,7.214,7.214,0,0,1,.923-6.275,6.831,6.831,0,0,1,1.753-9.69a5.638,5.638,0,0,1,2.263-2.246,6.7,6.7,0,0,1,3.234-.773,6.512,6.512,0,0,1,3.507.949A5.533,5.533,0,0,1,12.99-9.132l-1.96.747a3.747,3.747,0,0,0-1.49-1.74,4.255,4.255,0,0,0-2.29-.624,4.453,4.453,0,0,0-1.661.308,4,4,0,0,0-1.345.87,3.911,3.911,0,0,0-.9,1.411,5.228,5.228,0,0,0-.325,1.885,5.3,5.3,0,0,0,.325,1.894,3.9,3.9,0,0,0,.9,1.419A3.946,3.946,0,0,0,5.59-2.1a4.51,4.51,0,0,0,1.661.3,4.271,4.271,0,0,0,2.294-.62A3.73,3.73,0,0,0,11.03-4.148l1.96.747A5.516,5.516,0,0,1,10.762-.778,6.528,6.528,0,0,1,7.251.167Zm11.725,0a4.647,4.647,0,0,1-3.349-1.244,4.421,4.421,0,0,1-1.3-3.353,4.4,4.4,0,0,1,1.3-3.335,4.647,4.647,0,0,1,3.349-1.244A4.668,4.668,0,0,1,22.333-7.77a4.4,4.4,0,0,1,1.3,3.34,4.421,4.421,0,0,1-1.3,3.353A4.658,4.658,0,0,1,18.976.167Zm-.018-1.635a2.479,2.479,0,0,0,1.916-.817,3.055,3.055,0,0,0,.747-2.145,3.039,3.039,0,0,0-.747-2.14,2.485,2.485,0,0,0-1.916-.813,2.428,2.428,0,0,0-1.881.813,3.061,3.061,0,0,0-.738,2.14,3.088,3.088,0,0,0,.734,2.145A2.419,2.419,0,0,0,18.958-1.468ZM35.534-9.009a3.107,3.107,0,0,1,2.171.734A2.664,2.664,0,0,1,38.514-6.2V0h-2.03V-5.634a1.736,1.736,0,0,0-.439-1.288,1.509,1.509,0,0,0-1.107-.435,1.657,1.657,0,0,0-1.27.523,2.3,2.3,0,0,0-.488,1.613V0H31.122V-5.59a1.8,1.8,0,0,0-.444-1.318,1.522,1.522,0,0,0-1.129-.448,1.644,1.644,0,0,0-1.274.541,2.442,2.442,0,0,0-.492,1.683V0H25.77V-8.842h2.013v1.09a2.852,2.852,0,0,1,2.5-1.257,3.351,3.351,0,0,1,1.582.356,2.342,2.342,0,0,1,1.02,1.024A2.935,2.935,0,0,1,35.534-9.009Zm10.617,0a4.12,4.12,0,0,1,2.1.545,3.975,3.975,0,0,1,1.516,1.6,5.076,5.076,0,0,1,.571,2.448,5.431,5.431,0,0,1-.33,1.929,4.146,4.146,0,0,1-.9,1.459,4.038,4.038,0,0,1-1.332.905A4.128,4.128,0,0,1,46.151.2a3.624,3.624,0,0,1-1.727-.413,2.851,2.851,0,0,1-1.182-1.134V4.377H41.221V-8.842h1.934L43.207-7.4a2.805,2.805,0,0,1,1.182-1.182A3.638,3.638,0,0,1,46.151-9.009Zm-.439,7.5A2.447,2.447,0,0,0,47.566-2.3a2.946,2.946,0,0,0,.747-2.109,2.915,2.915,0,0,0-.747-2.1,2.461,2.461,0,0,0-1.854-.782,2.453,2.453,0,0,0-1.872.813,2.92,2.92,0,0,0-.756,2.07,2.948,2.948,0,0,0,.756,2.083A2.447,2.447,0,0,0,45.712-1.512Zm12.463-7.33H60.2V0H58.271l-.053-1.107A3.163,3.163,0,0,1,55.494.167a3.273,3.273,0,0,1-2.338-.8,2.96,2.96,0,0,1-.844-2.263v-5.95h2.039v5.511a1.814,1.814,0,0,0,.488,1.393,1.781,1.781,0,0,0,1.261.453,2.051,2.051,0,0,0,1.49-.558,2.322,2.322,0,0,0,.584-1.718ZM71.086-4.57l-.026.51H64.336a2.667,2.667,0,0,0,.773,1.934,2.525,2.525,0,0,0,1.784.668,2.424,2.424,0,0,0,1.314-.36,2.272,2.272,0,0,0,.875-1.028l1.846.316A3.886,3.886,0,0,1,69.4-.545a4.392,4.392,0,0,1-2.487.712A4.533,4.533,0,0,1,63.6-1.055,4.494,4.494,0,0,1,62.35-4.421,4.512,4.512,0,0,1,63.6-7.787a4.433,4.433,0,0,1,3.252-1.23,4.21,4.21,0,0,1,3.067,1.129A4.453,4.453,0,0,1,71.086-4.57ZM66.858-7.515a2.58,2.58,0,0,0-1.6.479,2.332,2.332,0,0,0-.839,1.463h4.632a2.131,2.131,0,0,0-.7-1.45A2.251,2.251,0,0,0,66.858-7.515ZM76.192.167a4.552,4.552,0,0,1-2.479-.628A2.623,2.623,0,0,1,72.5-2.285l1.714-.483a1.832,1.832,0,0,0,.694,1.112,2.138,2.138,0,0,0,1.283.374,2.049,2.049,0,0,0,1.072-.264A.9.9,0,0,0,77.7-2.4a.824.824,0,0,0-.114-.435,1.2,1.2,0,0,0-.272-.316,1.9,1.9,0,0,0-.453-.25,5.107,5.107,0,0,0-.536-.193l-.655-.193q-.413-.123-.686-.211a6.249,6.249,0,0,1-.844-.325,4,4,0,0,1-.694-.439,1.72,1.72,0,0,1-.532-.69,2.434,2.434,0,0,1-.18-.971,2.324,2.324,0,0,1,.448-1.45,2.549,2.549,0,0,1,1.178-.857A4.824,4.824,0,0,1,76.025-9a4.127,4.127,0,0,1,2.237.571A2.5,2.5,0,0,1,79.392-6.68l-1.6.378a1.594,1.594,0,0,0-.637-.984A1.96,1.96,0,0,0,76.034-7.6a1.957,1.957,0,0,0-1.024.25.828.828,0,0,0-.417.76,1.032,1.032,0,0,0,.031.259.506.506,0,0,0,.119.215l.158.171a.825.825,0,0,0,.229.154q.158.079.255.123a2.767,2.767,0,0,0,.316.11l.325.1q.105.031.365.1l.365.092q.492.132.839.246a4.843,4.843,0,0,1,.765.338,2.665,2.665,0,0,1,.677.5,2.219,2.219,0,0,1,.435.708,2.571,2.571,0,0,1,.176.971,2.623,2.623,0,0,1-.281,1.244,2.139,2.139,0,0,1-.769.835,3.768,3.768,0,0,1-1.09.453A5.449,5.449,0,0,1,76.192.167ZM84.814,0a2.5,2.5,0,0,1-1.863-.677,2.6,2.6,0,0,1-.668-1.907V-7.26H80.517V-8.842h.606a1.382,1.382,0,0,0,1.042-.338,1.709,1.709,0,0,0,.321-1.182v-1.371h1.846v2.892h1.925V-7.26H84.331v4.465a1.267,1.267,0,0,0,.3.918,1.093,1.093,0,0,0,.822.312h.8V0Zm5.537.167A3.669,3.669,0,0,1,89-.066a2.144,2.144,0,0,1-.984-.791,2.353,2.353,0,0,1-.391-1.384,2.564,2.564,0,0,1,.18-.989,2.165,2.165,0,0,1,.475-.725,2.789,2.789,0,0,1,.747-.51,5.358,5.358,0,0,1,.914-.347q.461-.127,1.068-.242L92.347-5.3q.817-.158.817-.8a1.256,1.256,0,0,0-.492-1.1,2.1,2.1,0,0,0-1.239-.347,2.075,2.075,0,0,0-1.274.374,1.636,1.636,0,0,0-.6,1.182l-1.819-.334Q88.189-9,91.556-9a6.23,6.23,0,0,1,1.05.083,3.751,3.751,0,0,1,.958.3,2.756,2.756,0,0,1,.8.558,2.435,2.435,0,0,1,.536.9,3.743,3.743,0,0,1,.2,1.279v3.428a1.4,1.4,0,0,0,.185.844.8.8,0,0,0,.65.229h.141V0h-.958q-1.5,0-1.793-1.169h-.1A2.874,2.874,0,0,1,91.982-.158,4.143,4.143,0,0,1,90.352.167Zm.475-1.591a2.351,2.351,0,0,0,1.767-.729,2.645,2.645,0,0,0,.7-1.916l-2.259.5a2.708,2.708,0,0,0-1.09.409.883.883,0,0,0-.36.751.849.849,0,0,0,.343.738A1.5,1.5,0,0,0,90.826-1.424Zm16.822-7.585a4.12,4.12,0,0,1,2.1.545,3.975,3.975,0,0,1,1.516,1.6,5.076,5.076,0,0,1,.571,2.448,5.431,5.431,0,0,1-.33,1.929,4.146,4.146,0,0,1-.9,1.459,4.038,4.038,0,0,1-1.332.905A4.128,4.128,0,0,1,107.648.2a3.624,3.624,0,0,1-1.727-.413,2.851,2.851,0,0,1-1.182-1.134V4.377h-2.021V-8.842h1.934L104.7-7.4a2.805,2.805,0,0,1,1.182-1.182A3.638,3.638,0,0,1,107.648-9.009Zm-.439,7.5a2.447,2.447,0,0,0,1.854-.791,2.946,2.946,0,0,0,.747-2.109,2.915,2.915,0,0,0-.747-2.1,2.461,2.461,0,0,0-1.854-.782,2.453,2.453,0,0,0-1.872.813,2.92,2.92,0,0,0-.756,2.07,2.948,2.948,0,0,0,.756,2.083A2.447,2.447,0,0,0,107.209-1.512ZM117.914.167a4.647,4.647,0,0,1-3.349-1.244,4.421,4.421,0,0,1-1.3-3.353,4.4,4.4,0,0,1,1.3-3.335,4.647,4.647,0,0,1,3.349-1.244,4.668,4.668,0,0,1,3.357,1.239,4.4,4.4,0,0,1,1.3,3.34,4.421,4.421,0,0,1-1.3,3.353A4.658,4.658,0,0,1,117.914.167ZM117.9-1.468a2.479,2.479,0,0,0,1.916-.817,3.055,3.055,0,0,0,.747-2.145,3.039,3.039,0,0,0-.747-2.14,2.485,2.485,0,0,0-1.916-.813,2.428,2.428,0,0,0-1.881.813,3.061,3.061,0,0,0-.738,2.14,3.088,3.088,0,0,0,.734,2.145A2.419,2.419,0,0,0,117.9-1.468Zm8.763-5.889a2.67,2.67,0,0,1,1.121-1.125,3.5,3.5,0,0,1,1.727-.457v1.846a3.115,3.115,0,0,0-2.087.593,2.523,2.523,0,0,0-.681,1.991V0h-2.03V-8.842h1.951Z" transform="translate(1109 1941)" fill="#00223d"/>
      <ellipse id="Elipse_946" data-name="Elipse 946" cx="99.5" cy="58.5" rx="99.5" ry="58.5" transform="translate(641 1969)" fill="#ff8f00"/>
      <path id="Trazado_36119" data-name="Trazado 36119" d="M-26.055,0h-2.083l-.826-9.9L-32.559,0h-1.318l-3.577-9.879L-38.29,0h-2.092l1-12.533h2.927l3.226,8.859,3.252-8.859h2.927Zm4.72.167a3.669,3.669,0,0,1-1.349-.233,2.144,2.144,0,0,1-.984-.791,2.353,2.353,0,0,1-.391-1.384,2.564,2.564,0,0,1,.18-.989,2.165,2.165,0,0,1,.475-.725,2.789,2.789,0,0,1,.747-.51,5.358,5.358,0,0,1,.914-.347q.461-.127,1.068-.242L-19.34-5.3q.817-.158.817-.8a1.256,1.256,0,0,0-.492-1.1,2.1,2.1,0,0,0-1.239-.347,2.075,2.075,0,0,0-1.274.374,1.636,1.636,0,0,0-.6,1.182l-1.819-.334Q-23.5-9-20.131-9a6.23,6.23,0,0,1,1.05.083,3.751,3.751,0,0,1,.958.3,2.756,2.756,0,0,1,.8.558,2.435,2.435,0,0,1,.536.9,3.743,3.743,0,0,1,.2,1.279v3.428a1.4,1.4,0,0,0,.185.844.8.8,0,0,0,.65.229h.141V0h-.958q-1.5,0-1.793-1.169h-.1A2.874,2.874,0,0,1-19.705-.158,4.143,4.143,0,0,1-21.335.167Zm.475-1.591a2.351,2.351,0,0,0,1.767-.729,2.645,2.645,0,0,0,.7-1.916l-2.259.5a2.708,2.708,0,0,0-1.09.409.883.883,0,0,0-.36.751.849.849,0,0,0,.343.738A1.5,1.5,0,0,0-20.861-1.424ZM-10.674,0a2.5,2.5,0,0,1-1.863-.677,2.6,2.6,0,0,1-.668-1.907V-7.26h-1.767V-8.842h.606a1.382,1.382,0,0,0,1.042-.338A1.709,1.709,0,0,0-13-10.362v-1.371h1.846v2.892h1.925V-7.26h-1.925v4.465a1.267,1.267,0,0,0,.3.918,1.093,1.093,0,0,0,.822.312h.8V0ZM-5.2-7.356A2.67,2.67,0,0,1-4.078-8.481a3.5,3.5,0,0,1,1.727-.457v1.846A3.115,3.115,0,0,0-4.438-6.5,2.523,2.523,0,0,0-5.12-4.509V0H-7.15V-8.842H-5.2Zm5.52-3.173a1.207,1.207,0,0,1-.879-.365,1.186,1.186,0,0,1-.369-.875,1.193,1.193,0,0,1,.365-.875,1.2,1.2,0,0,1,.883-.365,1.2,1.2,0,0,1,.87.365,1.186,1.186,0,0,1,.369.875,1.186,1.186,0,0,1-.369.875A1.2,1.2,0,0,1,.321-10.529ZM-.716,0V-8.842h2.03V0ZM10.367-8.842,6.086-1.591h4.219V0H3.142L7.4-7.242H3.432v-1.6Zm13-4.658h2.021V0H23.454L23.4-1.406A2.845,2.845,0,0,1,22.219-.229,3.608,3.608,0,0,1,20.457.2a4.08,4.08,0,0,1-1.622-.325,4.1,4.1,0,0,1-1.332-.91A4.2,4.2,0,0,1,16.6-2.492a5.341,5.341,0,0,1-.334-1.92A5.28,5.28,0,0,1,16.6-6.319,4.2,4.2,0,0,1,17.5-7.774a4.082,4.082,0,0,1,1.336-.91,4.089,4.089,0,0,1,1.617-.325,3.656,3.656,0,0,1,1.727.409,2.84,2.84,0,0,1,1.182,1.121ZM19.033-2.312a2.472,2.472,0,0,0,1.872.8,2.42,2.42,0,0,0,1.863-.817,2.968,2.968,0,0,0,.747-2.083,2.946,2.946,0,0,0-.751-2.074A2.424,2.424,0,0,0,20.9-7.3a2.465,2.465,0,0,0-1.868.8,2.927,2.927,0,0,0-.751,2.1A2.953,2.953,0,0,0,19.033-2.312ZM36.277-4.57l-.026.51H29.527A2.667,2.667,0,0,0,30.3-2.127a2.525,2.525,0,0,0,1.784.668,2.424,2.424,0,0,0,1.314-.36,2.272,2.272,0,0,0,.875-1.028l1.846.316A3.886,3.886,0,0,1,34.589-.545,4.392,4.392,0,0,1,32.1.167a4.533,4.533,0,0,1-3.313-1.222,4.494,4.494,0,0,1-1.248-3.366,4.512,4.512,0,0,1,1.248-3.366,4.433,4.433,0,0,1,3.252-1.23,4.21,4.21,0,0,1,3.067,1.129A4.453,4.453,0,0,1,36.277-4.57ZM32.049-7.515a2.58,2.58,0,0,0-1.6.479,2.332,2.332,0,0,0-.839,1.463h4.632a2.131,2.131,0,0,0-.7-1.45A2.251,2.251,0,0,0,32.049-7.515ZM-37.811,20.43l-.026.51h-6.724a2.667,2.667,0,0,0,.773,1.934A2.525,2.525,0,0,0-42,23.541a2.424,2.424,0,0,0,1.314-.36,2.272,2.272,0,0,0,.875-1.028l1.846.316A3.886,3.886,0,0,1-39.5,24.455a4.392,4.392,0,0,1-2.487.712A4.533,4.533,0,0,1-45.3,23.945a4.494,4.494,0,0,1-1.248-3.366A4.512,4.512,0,0,1-45.3,17.213a4.433,4.433,0,0,1,3.252-1.23,4.21,4.21,0,0,1,3.067,1.129A4.453,4.453,0,0,1-37.811,20.43Zm-4.228-2.944a2.58,2.58,0,0,0-1.6.479,2.332,2.332,0,0,0-.839,1.463h4.632a2.131,2.131,0,0,0-.7-1.45A2.251,2.251,0,0,0-42.038,17.485Zm11.654-1.327h2.153L-31.913,25h-1.749l-3.656-8.842h2.145l2.382,6.521Zm5.44,9.009a3.669,3.669,0,0,1-1.349-.233,2.144,2.144,0,0,1-.984-.791,2.353,2.353,0,0,1-.391-1.384,2.564,2.564,0,0,1,.18-.989,2.165,2.165,0,0,1,.475-.725,2.789,2.789,0,0,1,.747-.51,5.358,5.358,0,0,1,.914-.347q.461-.127,1.068-.242l1.336-.246q.817-.158.817-.8a1.256,1.256,0,0,0-.492-1.1,2.1,2.1,0,0,0-1.239-.347,2.075,2.075,0,0,0-1.274.374,1.636,1.636,0,0,0-.6,1.182l-1.819-.334Q-27.105,16-23.739,16a6.23,6.23,0,0,1,1.05.083,3.751,3.751,0,0,1,.958.3,2.756,2.756,0,0,1,.8.558,2.435,2.435,0,0,1,.536.9,3.743,3.743,0,0,1,.2,1.279v3.428a1.4,1.4,0,0,0,.185.844.8.8,0,0,0,.65.229h.141V25h-.958q-1.5,0-1.793-1.169h-.1a2.874,2.874,0,0,1-1.252,1.011A4.143,4.143,0,0,1-24.943,25.167Zm.475-1.591a2.351,2.351,0,0,0,1.767-.729,2.645,2.645,0,0,0,.7-1.916l-2.259.5a2.708,2.708,0,0,0-1.09.409.883.883,0,0,0-.36.751.849.849,0,0,0,.343.738A1.5,1.5,0,0,0-24.469,23.576ZM-17.253,25V11.5h2.039V25Zm10.582-8.842h2.021V25H-6.574l-.053-1.107a3.163,3.163,0,0,1-2.725,1.274,3.273,3.273,0,0,1-2.338-.8,2.96,2.96,0,0,1-.844-2.263v-5.95h2.039v5.511a1.814,1.814,0,0,0,.488,1.393,1.781,1.781,0,0,0,1.261.453,2.051,2.051,0,0,0,1.49-.558,2.322,2.322,0,0,0,.584-1.718ZM.3,25.167a3.669,3.669,0,0,1-1.349-.233,2.144,2.144,0,0,1-.984-.791,2.353,2.353,0,0,1-.391-1.384,2.564,2.564,0,0,1,.18-.989,2.165,2.165,0,0,1,.475-.725,2.789,2.789,0,0,1,.747-.51,5.358,5.358,0,0,1,.914-.347q.461-.127,1.068-.242L2.294,19.7q.817-.158.817-.8a1.256,1.256,0,0,0-.492-1.1A2.1,2.1,0,0,0,1.38,17.45a2.075,2.075,0,0,0-1.274.374,1.636,1.636,0,0,0-.6,1.182l-1.819-.334Q-1.863,16,1.5,16a6.23,6.23,0,0,1,1.05.083,3.751,3.751,0,0,1,.958.3,2.756,2.756,0,0,1,.8.558,2.435,2.435,0,0,1,.536.9,3.743,3.743,0,0,1,.2,1.279v3.428a1.4,1.4,0,0,0,.185.844.8.8,0,0,0,.65.229h.141V25H5.071q-1.5,0-1.793-1.169h-.1a2.874,2.874,0,0,1-1.252,1.011A4.143,4.143,0,0,1,.3,25.167Zm.475-1.591a2.351,2.351,0,0,0,1.767-.729,2.645,2.645,0,0,0,.7-1.916l-2.259.5a2.708,2.708,0,0,0-1.09.409.883.883,0,0,0-.36.751.849.849,0,0,0,.343.738A1.5,1.5,0,0,0,.773,23.576Zm10.846,1.582A4.376,4.376,0,0,1,7.04,20.57a4.439,4.439,0,0,1,1.288-3.313,4.5,4.5,0,0,1,3.292-1.266,4.493,4.493,0,0,1,2.711.813,3.838,3.838,0,0,1,1.481,2.272l-1.881.246a2.356,2.356,0,0,0-.866-1.266,2.439,2.439,0,0,0-1.463-.439,2.32,2.32,0,0,0-1.828.813,3.131,3.131,0,0,0-.712,2.14,3.131,3.131,0,0,0,.712,2.14,2.32,2.32,0,0,0,1.828.813,2.456,2.456,0,0,0,1.463-.435,2.334,2.334,0,0,0,.866-1.261l1.881.237a3.843,3.843,0,0,1-1.49,2.276A4.485,4.485,0,0,1,11.619,25.158Zm7.26-10.687A1.207,1.207,0,0,1,18,14.106a1.226,1.226,0,0,1,0-1.749,1.236,1.236,0,0,1,1.753,0,1.239,1.239,0,0,1-.87,2.114ZM17.842,25V16.158h2.03V25Zm8.13-10.2,2.259-3.059,1.028.738L27.281,14.8Zm.686,10.362a4.647,4.647,0,0,1-3.349-1.244,4.421,4.421,0,0,1-1.3-3.353,4.4,4.4,0,0,1,1.3-3.335,4.647,4.647,0,0,1,3.349-1.244,4.668,4.668,0,0,1,3.357,1.239,4.4,4.4,0,0,1,1.3,3.34,4.421,4.421,0,0,1-1.3,3.353A4.658,4.658,0,0,1,26.657,25.167Zm-.018-1.635a2.479,2.479,0,0,0,1.916-.817A3.055,3.055,0,0,0,29.3,20.57a3.039,3.039,0,0,0-.747-2.14,2.485,2.485,0,0,0-1.916-.813,2.428,2.428,0,0,0-1.881.813,3.061,3.061,0,0,0-.738,2.14,3.088,3.088,0,0,0,.734,2.145A2.419,2.419,0,0,0,26.64,23.532Zm11.514-7.541a3.273,3.273,0,0,1,2.338.8,2.96,2.96,0,0,1,.844,2.263V25H39.3V19.489a1.814,1.814,0,0,0-.488-1.393,1.768,1.768,0,0,0-1.252-.453,2.066,2.066,0,0,0-1.494.558,2.311,2.311,0,0,0-.589,1.718V25H33.451V16.158h2.021V17.2a2.987,2.987,0,0,1,1.138-.9A3.658,3.658,0,0,1,38.153,15.991ZM-22.135,45.43l-.026.51h-6.724a2.667,2.667,0,0,0,.773,1.934,2.525,2.525,0,0,0,1.784.668,2.424,2.424,0,0,0,1.314-.36,2.272,2.272,0,0,0,.875-1.028l1.846.316a3.886,3.886,0,0,1-1.529,1.986,4.392,4.392,0,0,1-2.487.712,4.533,4.533,0,0,1-3.313-1.222,4.494,4.494,0,0,1-1.248-3.366,4.512,4.512,0,0,1,1.248-3.366,4.433,4.433,0,0,1,3.252-1.23A4.21,4.21,0,0,1-23.3,42.112,4.453,4.453,0,0,1-22.135,45.43Zm-4.228-2.944a2.58,2.58,0,0,0-1.6.479,2.332,2.332,0,0,0-.839,1.463h4.632a2.131,2.131,0,0,0-.7-1.45A2.251,2.251,0,0,0-26.363,42.485ZM-21.555,50l3.516-4.43-3.516-4.412h2.514l2.232,3.085,2.241-3.085h2.5L-15.6,45.579-12.072,50h-2.5L-16.8,46.941-19.042,50Zm14.168,0a2.5,2.5,0,0,1-1.863-.677,2.6,2.6,0,0,1-.668-1.907V42.74h-1.767V41.158h.606a1.382,1.382,0,0,0,1.042-.338,1.709,1.709,0,0,0,.321-1.182V38.267h1.846v2.892h1.925V42.74H-7.871v4.465a1.267,1.267,0,0,0,.3.918,1.093,1.093,0,0,0,.822.312h.8V50ZM4.091,45.43l-.026.51H-2.659a2.667,2.667,0,0,0,.773,1.934A2.525,2.525,0,0,0-.1,48.541a2.424,2.424,0,0,0,1.314-.36,2.272,2.272,0,0,0,.875-1.028l1.846.316A3.886,3.886,0,0,1,2.4,49.455a4.392,4.392,0,0,1-2.487.712A4.533,4.533,0,0,1-3.4,48.945a4.494,4.494,0,0,1-1.248-3.366A4.512,4.512,0,0,1-3.4,42.213a4.433,4.433,0,0,1,3.252-1.23,4.21,4.21,0,0,1,3.067,1.129A4.453,4.453,0,0,1,4.091,45.43ZM-.136,42.485a2.58,2.58,0,0,0-1.6.479,2.332,2.332,0,0,0-.839,1.463H2.061a2.131,2.131,0,0,0-.7-1.45A2.251,2.251,0,0,0-.136,42.485Zm8.332.158a2.67,2.67,0,0,1,1.121-1.125,3.5,3.5,0,0,1,1.727-.457v1.846a3.115,3.115,0,0,0-2.087.593,2.523,2.523,0,0,0-.681,1.991V50H6.245V41.158H8.2Zm9.185-1.652a3.273,3.273,0,0,1,2.338.8,2.96,2.96,0,0,1,.844,2.263V50H18.523V44.489a1.814,1.814,0,0,0-.488-1.393,1.768,1.768,0,0,0-1.252-.453,2.066,2.066,0,0,0-1.494.558A2.311,2.311,0,0,0,14.7,44.92V50H12.678V41.158H14.7V42.2a2.987,2.987,0,0,1,1.138-.9A3.658,3.658,0,0,1,17.38,40.991Zm7.954,9.176a3.669,3.669,0,0,1-1.349-.233A2.144,2.144,0,0,1,23,49.143a2.353,2.353,0,0,1-.391-1.384,2.564,2.564,0,0,1,.18-.989,2.165,2.165,0,0,1,.475-.725,2.789,2.789,0,0,1,.747-.51,5.358,5.358,0,0,1,.914-.347q.461-.127,1.068-.242L27.33,44.7q.817-.158.817-.8a1.256,1.256,0,0,0-.492-1.1,2.1,2.1,0,0,0-1.239-.347,2.075,2.075,0,0,0-1.274.374,1.636,1.636,0,0,0-.6,1.182l-1.819-.334Q23.172,41,26.539,41a6.23,6.23,0,0,1,1.05.083,3.751,3.751,0,0,1,.958.3,2.756,2.756,0,0,1,.8.558,2.435,2.435,0,0,1,.536.9,3.743,3.743,0,0,1,.2,1.279v3.428a1.4,1.4,0,0,0,.185.844.8.8,0,0,0,.65.229h.141V50h-.958q-1.5,0-1.793-1.169h-.1a2.874,2.874,0,0,1-1.252,1.011A4.143,4.143,0,0,1,25.334,50.167Zm.475-1.591a2.351,2.351,0,0,0,1.767-.729,2.645,2.645,0,0,0,.7-1.916l-2.259.5a2.708,2.708,0,0,0-1.09.409.883.883,0,0,0-.36.751.849.849,0,0,0,.343.738A1.5,1.5,0,0,0,25.809,48.576Z" transform="translate(741 2008)" fill="#00223d"/>
      <ellipse id="Elipse_947" data-name="Elipse 947" cx="99.5" cy="58.5" rx="99.5" ry="58.5" transform="translate(1075 1969)" fill="#00ffe2"/>
      <path id="Trazado_36120" data-name="Trazado 36120" d="M-26.055,0h-2.083l-.826-9.9L-32.559,0h-1.318l-3.577-9.879L-38.29,0h-2.092l1-12.533h2.927l3.226,8.859,3.252-8.859h2.927Zm4.72.167a3.669,3.669,0,0,1-1.349-.233,2.144,2.144,0,0,1-.984-.791,2.353,2.353,0,0,1-.391-1.384,2.564,2.564,0,0,1,.18-.989,2.165,2.165,0,0,1,.475-.725,2.789,2.789,0,0,1,.747-.51,5.358,5.358,0,0,1,.914-.347q.461-.127,1.068-.242L-19.34-5.3q.817-.158.817-.8a1.256,1.256,0,0,0-.492-1.1,2.1,2.1,0,0,0-1.239-.347,2.075,2.075,0,0,0-1.274.374,1.636,1.636,0,0,0-.6,1.182l-1.819-.334Q-23.5-9-20.131-9a6.23,6.23,0,0,1,1.05.083,3.751,3.751,0,0,1,.958.3,2.756,2.756,0,0,1,.8.558,2.435,2.435,0,0,1,.536.9,3.743,3.743,0,0,1,.2,1.279v3.428a1.4,1.4,0,0,0,.185.844.8.8,0,0,0,.65.229h.141V0h-.958q-1.5,0-1.793-1.169h-.1A2.874,2.874,0,0,1-19.705-.158,4.143,4.143,0,0,1-21.335.167Zm.475-1.591a2.351,2.351,0,0,0,1.767-.729,2.645,2.645,0,0,0,.7-1.916l-2.259.5a2.708,2.708,0,0,0-1.09.409.883.883,0,0,0-.36.751.849.849,0,0,0,.343.738A1.5,1.5,0,0,0-20.861-1.424ZM-10.674,0a2.5,2.5,0,0,1-1.863-.677,2.6,2.6,0,0,1-.668-1.907V-7.26h-1.767V-8.842h.606a1.382,1.382,0,0,0,1.042-.338A1.709,1.709,0,0,0-13-10.362v-1.371h1.846v2.892h1.925V-7.26h-1.925v4.465a1.267,1.267,0,0,0,.3.918,1.093,1.093,0,0,0,.822.312h.8V0ZM-5.2-7.356A2.67,2.67,0,0,1-4.078-8.481a3.5,3.5,0,0,1,1.727-.457v1.846A3.115,3.115,0,0,0-4.438-6.5,2.523,2.523,0,0,0-5.12-4.509V0H-7.15V-8.842H-5.2Zm5.52-3.173a1.207,1.207,0,0,1-.879-.365,1.186,1.186,0,0,1-.369-.875,1.193,1.193,0,0,1,.365-.875,1.2,1.2,0,0,1,.883-.365,1.2,1.2,0,0,1,.87.365,1.186,1.186,0,0,1,.369.875,1.186,1.186,0,0,1-.369.875A1.2,1.2,0,0,1,.321-10.529ZM-.716,0V-8.842h2.03V0ZM10.367-8.842,6.086-1.591h4.219V0H3.142L7.4-7.242H3.432v-1.6Zm13-4.658h2.021V0H23.454L23.4-1.406A2.845,2.845,0,0,1,22.219-.229,3.608,3.608,0,0,1,20.457.2a4.08,4.08,0,0,1-1.622-.325,4.1,4.1,0,0,1-1.332-.91A4.2,4.2,0,0,1,16.6-2.492a5.341,5.341,0,0,1-.334-1.92A5.28,5.28,0,0,1,16.6-6.319,4.2,4.2,0,0,1,17.5-7.774a4.082,4.082,0,0,1,1.336-.91,4.089,4.089,0,0,1,1.617-.325,3.656,3.656,0,0,1,1.727.409,2.84,2.84,0,0,1,1.182,1.121ZM19.033-2.312a2.472,2.472,0,0,0,1.872.8,2.42,2.42,0,0,0,1.863-.817,2.968,2.968,0,0,0,.747-2.083,2.946,2.946,0,0,0-.751-2.074A2.424,2.424,0,0,0,20.9-7.3a2.465,2.465,0,0,0-1.868.8,2.927,2.927,0,0,0-.751,2.1A2.953,2.953,0,0,0,19.033-2.312ZM36.277-4.57l-.026.51H29.527A2.667,2.667,0,0,0,30.3-2.127a2.525,2.525,0,0,0,1.784.668,2.424,2.424,0,0,0,1.314-.36,2.272,2.272,0,0,0,.875-1.028l1.846.316A3.886,3.886,0,0,1,34.589-.545,4.392,4.392,0,0,1,32.1.167a4.533,4.533,0,0,1-3.313-1.222,4.494,4.494,0,0,1-1.248-3.366,4.512,4.512,0,0,1,1.248-3.366,4.433,4.433,0,0,1,3.252-1.23,4.21,4.21,0,0,1,3.067,1.129A4.453,4.453,0,0,1,36.277-4.57ZM32.049-7.515a2.58,2.58,0,0,0-1.6.479,2.332,2.332,0,0,0-.839,1.463h4.632a2.131,2.131,0,0,0-.7-1.45A2.251,2.251,0,0,0,32.049-7.515ZM-37.811,20.43l-.026.51h-6.724a2.667,2.667,0,0,0,.773,1.934A2.525,2.525,0,0,0-42,23.541a2.424,2.424,0,0,0,1.314-.36,2.272,2.272,0,0,0,.875-1.028l1.846.316A3.886,3.886,0,0,1-39.5,24.455a4.392,4.392,0,0,1-2.487.712A4.533,4.533,0,0,1-45.3,23.945a4.494,4.494,0,0,1-1.248-3.366A4.512,4.512,0,0,1-45.3,17.213a4.433,4.433,0,0,1,3.252-1.23,4.21,4.21,0,0,1,3.067,1.129A4.453,4.453,0,0,1-37.811,20.43Zm-4.228-2.944a2.58,2.58,0,0,0-1.6.479,2.332,2.332,0,0,0-.839,1.463h4.632a2.131,2.131,0,0,0-.7-1.45A2.251,2.251,0,0,0-42.038,17.485Zm11.654-1.327h2.153L-31.913,25h-1.749l-3.656-8.842h2.145l2.382,6.521Zm5.44,9.009a3.669,3.669,0,0,1-1.349-.233,2.144,2.144,0,0,1-.984-.791,2.353,2.353,0,0,1-.391-1.384,2.564,2.564,0,0,1,.18-.989,2.165,2.165,0,0,1,.475-.725,2.789,2.789,0,0,1,.747-.51,5.358,5.358,0,0,1,.914-.347q.461-.127,1.068-.242l1.336-.246q.817-.158.817-.8a1.256,1.256,0,0,0-.492-1.1,2.1,2.1,0,0,0-1.239-.347,2.075,2.075,0,0,0-1.274.374,1.636,1.636,0,0,0-.6,1.182l-1.819-.334Q-27.105,16-23.739,16a6.23,6.23,0,0,1,1.05.083,3.751,3.751,0,0,1,.958.3,2.756,2.756,0,0,1,.8.558,2.435,2.435,0,0,1,.536.9,3.743,3.743,0,0,1,.2,1.279v3.428a1.4,1.4,0,0,0,.185.844.8.8,0,0,0,.65.229h.141V25h-.958q-1.5,0-1.793-1.169h-.1a2.874,2.874,0,0,1-1.252,1.011A4.143,4.143,0,0,1-24.943,25.167Zm.475-1.591a2.351,2.351,0,0,0,1.767-.729,2.645,2.645,0,0,0,.7-1.916l-2.259.5a2.708,2.708,0,0,0-1.09.409.883.883,0,0,0-.36.751.849.849,0,0,0,.343.738A1.5,1.5,0,0,0-24.469,23.576ZM-17.253,25V11.5h2.039V25Zm10.582-8.842h2.021V25H-6.574l-.053-1.107a3.163,3.163,0,0,1-2.725,1.274,3.273,3.273,0,0,1-2.338-.8,2.96,2.96,0,0,1-.844-2.263v-5.95h2.039v5.511a1.814,1.814,0,0,0,.488,1.393,1.781,1.781,0,0,0,1.261.453,2.051,2.051,0,0,0,1.49-.558,2.322,2.322,0,0,0,.584-1.718ZM.3,25.167a3.669,3.669,0,0,1-1.349-.233,2.144,2.144,0,0,1-.984-.791,2.353,2.353,0,0,1-.391-1.384,2.564,2.564,0,0,1,.18-.989,2.165,2.165,0,0,1,.475-.725,2.789,2.789,0,0,1,.747-.51,5.358,5.358,0,0,1,.914-.347q.461-.127,1.068-.242L2.294,19.7q.817-.158.817-.8a1.256,1.256,0,0,0-.492-1.1A2.1,2.1,0,0,0,1.38,17.45a2.075,2.075,0,0,0-1.274.374,1.636,1.636,0,0,0-.6,1.182l-1.819-.334Q-1.863,16,1.5,16a6.23,6.23,0,0,1,1.05.083,3.751,3.751,0,0,1,.958.3,2.756,2.756,0,0,1,.8.558,2.435,2.435,0,0,1,.536.9,3.743,3.743,0,0,1,.2,1.279v3.428a1.4,1.4,0,0,0,.185.844.8.8,0,0,0,.65.229h.141V25H5.071q-1.5,0-1.793-1.169h-.1a2.874,2.874,0,0,1-1.252,1.011A4.143,4.143,0,0,1,.3,25.167Zm.475-1.591a2.351,2.351,0,0,0,1.767-.729,2.645,2.645,0,0,0,.7-1.916l-2.259.5a2.708,2.708,0,0,0-1.09.409.883.883,0,0,0-.36.751.849.849,0,0,0,.343.738A1.5,1.5,0,0,0,.773,23.576Zm10.846,1.582A4.376,4.376,0,0,1,7.04,20.57a4.439,4.439,0,0,1,1.288-3.313,4.5,4.5,0,0,1,3.292-1.266,4.493,4.493,0,0,1,2.711.813,3.838,3.838,0,0,1,1.481,2.272l-1.881.246a2.356,2.356,0,0,0-.866-1.266,2.439,2.439,0,0,0-1.463-.439,2.32,2.32,0,0,0-1.828.813,3.131,3.131,0,0,0-.712,2.14,3.131,3.131,0,0,0,.712,2.14,2.32,2.32,0,0,0,1.828.813,2.456,2.456,0,0,0,1.463-.435,2.334,2.334,0,0,0,.866-1.261l1.881.237a3.843,3.843,0,0,1-1.49,2.276A4.485,4.485,0,0,1,11.619,25.158Zm7.26-10.687A1.207,1.207,0,0,1,18,14.106a1.226,1.226,0,0,1,0-1.749,1.236,1.236,0,0,1,1.753,0,1.239,1.239,0,0,1-.87,2.114ZM17.842,25V16.158h2.03V25Zm8.13-10.2,2.259-3.059,1.028.738L27.281,14.8Zm.686,10.362a4.647,4.647,0,0,1-3.349-1.244,4.421,4.421,0,0,1-1.3-3.353,4.4,4.4,0,0,1,1.3-3.335,4.647,4.647,0,0,1,3.349-1.244,4.668,4.668,0,0,1,3.357,1.239,4.4,4.4,0,0,1,1.3,3.34,4.421,4.421,0,0,1-1.3,3.353A4.658,4.658,0,0,1,26.657,25.167Zm-.018-1.635a2.479,2.479,0,0,0,1.916-.817A3.055,3.055,0,0,0,29.3,20.57a3.039,3.039,0,0,0-.747-2.14,2.485,2.485,0,0,0-1.916-.813,2.428,2.428,0,0,0-1.881.813,3.061,3.061,0,0,0-.738,2.14,3.088,3.088,0,0,0,.734,2.145A2.419,2.419,0,0,0,26.64,23.532Zm11.514-7.541a3.273,3.273,0,0,1,2.338.8,2.96,2.96,0,0,1,.844,2.263V25H39.3V19.489a1.814,1.814,0,0,0-.488-1.393,1.768,1.768,0,0,0-1.252-.453,2.066,2.066,0,0,0-1.494.558,2.311,2.311,0,0,0-.589,1.718V25H33.451V16.158h2.021V17.2a2.987,2.987,0,0,1,1.138-.9A3.658,3.658,0,0,1,38.153,15.991ZM-28.072,50V37.467h2.1V50Zm10.028-9.009a3.273,3.273,0,0,1,2.338.8,2.96,2.96,0,0,1,.844,2.263V50H-16.9V44.489a1.814,1.814,0,0,0-.488-1.393,1.768,1.768,0,0,0-1.252-.453,2.066,2.066,0,0,0-1.494.558,2.311,2.311,0,0,0-.589,1.718V50h-2.021V41.158h2.021V42.2a2.987,2.987,0,0,1,1.138-.9A3.658,3.658,0,0,1-18.044,40.991ZM-9.114,50a2.5,2.5,0,0,1-1.863-.677,2.6,2.6,0,0,1-.668-1.907V42.74h-1.767V41.158h.606a1.382,1.382,0,0,0,1.042-.338,1.709,1.709,0,0,0,.321-1.182V38.267H-9.6v2.892h1.925V42.74H-9.6v4.465a1.267,1.267,0,0,0,.3.918,1.093,1.093,0,0,0,.822.312h.8V50ZM2.364,45.43l-.026.51H-4.386a2.667,2.667,0,0,0,.773,1.934,2.525,2.525,0,0,0,1.784.668,2.424,2.424,0,0,0,1.314-.36A2.272,2.272,0,0,0,.36,47.152l1.846.316A3.886,3.886,0,0,1,.677,49.455a4.392,4.392,0,0,1-2.487.712,4.533,4.533,0,0,1-3.313-1.222,4.494,4.494,0,0,1-1.248-3.366,4.512,4.512,0,0,1,1.248-3.366,4.433,4.433,0,0,1,3.252-1.23A4.21,4.21,0,0,1,1.2,42.112,4.453,4.453,0,0,1,2.364,45.43Zm-4.228-2.944a2.58,2.58,0,0,0-1.6.479A2.332,2.332,0,0,0-4.3,44.428H.334a2.131,2.131,0,0,0-.7-1.45A2.251,2.251,0,0,0-1.863,42.485Zm8.332.158a2.67,2.67,0,0,1,1.121-1.125,3.5,3.5,0,0,1,1.727-.457v1.846a3.115,3.115,0,0,0-2.087.593,2.523,2.523,0,0,0-.681,1.991V50H4.518V41.158H6.469Zm9.185-1.652a3.273,3.273,0,0,1,2.338.8,2.96,2.96,0,0,1,.844,2.263V50H16.8V44.489a1.814,1.814,0,0,0-.488-1.393,1.768,1.768,0,0,0-1.252-.453,2.066,2.066,0,0,0-1.494.558,2.311,2.311,0,0,0-.589,1.718V50H10.951V41.158h2.021V42.2a2.987,2.987,0,0,1,1.138-.9A3.658,3.658,0,0,1,15.653,40.991Zm7.954,9.176a3.669,3.669,0,0,1-1.349-.233,2.144,2.144,0,0,1-.984-.791,2.353,2.353,0,0,1-.391-1.384,2.564,2.564,0,0,1,.18-.989,2.165,2.165,0,0,1,.475-.725,2.789,2.789,0,0,1,.747-.51,5.358,5.358,0,0,1,.914-.347q.461-.127,1.068-.242L25.6,44.7q.817-.158.817-.8a1.256,1.256,0,0,0-.492-1.1,2.1,2.1,0,0,0-1.239-.347,2.075,2.075,0,0,0-1.274.374,1.636,1.636,0,0,0-.6,1.182L21,43.672Q21.445,41,24.812,41a6.23,6.23,0,0,1,1.05.083,3.751,3.751,0,0,1,.958.3,2.756,2.756,0,0,1,.8.558,2.435,2.435,0,0,1,.536.9,3.743,3.743,0,0,1,.2,1.279v3.428a1.4,1.4,0,0,0,.185.844.8.8,0,0,0,.65.229h.141V50H28.38q-1.5,0-1.793-1.169h-.1a2.874,2.874,0,0,1-1.252,1.011A4.143,4.143,0,0,1,23.607,50.167Zm.475-1.591a2.351,2.351,0,0,0,1.767-.729,2.645,2.645,0,0,0,.7-1.916l-2.259.5a2.708,2.708,0,0,0-1.09.409.883.883,0,0,0-.36.751.849.849,0,0,0,.343.738A1.5,1.5,0,0,0,24.082,48.576Z" transform="translate(1175 2008)" fill="#00223d"/>
      <g id="Grupo_12186" data-name="Grupo 12186">
        <path id="Trazado_35307" data-name="Trazado 35307" d="M4741.5,790v77.068" transform="translate(-4001 1296)" fill="none" stroke="#ff8f00" stroke-width="2"/>
        <path id="Polígono_10" data-name="Polígono 10" d="M6,0l6,11H0Z" transform="translate(746.56 2172.039) rotate(-180)" fill="#ff8f00"/>
      </g>
      <g id="Grupo_12187" data-name="Grupo 12187" transform="translate(434)">
        <path id="Trazado_35307-2" data-name="Trazado 35307" d="M4741.5,790v77.068" transform="translate(-4001 1296)" fill="none" stroke="#ff8f00" stroke-width="2"/>
        <path id="Polígono_10-2" data-name="Polígono 10" d="M6,0l6,11H0Z" transform="translate(746.56 2172.039) rotate(-180)" fill="#ff8f00"/>
      </g>
      <path id="Trazado_36117" data-name="Trazado 36117" d="M8.789-10.661H3.92v3.472H8.227v1.854H3.92v3.454H8.789V0h-7V-12.533h7ZM16-9.009a3.273,3.273,0,0,1,2.338.8,2.96,2.96,0,0,1,.844,2.263V0H17.139V-5.511A1.814,1.814,0,0,0,16.651-6.9,1.768,1.768,0,0,0,15.4-7.356,2.066,2.066,0,0,0,13.9-6.8a2.311,2.311,0,0,0-.589,1.718V0H11.294V-8.842h2.021V-7.8a2.987,2.987,0,0,1,1.138-.9A3.658,3.658,0,0,1,16-9.009Zm10.4-2.848h-.316q-.088,0-.3.013a1.687,1.687,0,0,0-.308.04q-.1.026-.272.083a.685.685,0,0,0-.259.136q-.083.079-.2.2a.731.731,0,0,0-.171.286,3.374,3.374,0,0,0-.1.387,2.588,2.588,0,0,0-.044.5v1.371h1.969V-7.26H24.425V0H22.4V-7.26H20.689V-8.842H22.4V-10.23a5.234,5.234,0,0,1,.1-1.077,3.175,3.175,0,0,1,.281-.822,2.028,2.028,0,0,1,.461-.589,2.579,2.579,0,0,1,.6-.4,3.3,3.3,0,0,1,.747-.237,6.7,6.7,0,0,1,.848-.119q.417-.031.954-.031ZM31.843.167a4.647,4.647,0,0,1-3.349-1.244,4.421,4.421,0,0,1-1.3-3.353,4.4,4.4,0,0,1,1.3-3.335,4.647,4.647,0,0,1,3.349-1.244A4.668,4.668,0,0,1,35.2-7.77a4.4,4.4,0,0,1,1.3,3.34,4.421,4.421,0,0,1-1.3,3.353A4.658,4.658,0,0,1,31.843.167Zm-.018-1.635a2.479,2.479,0,0,0,1.916-.817,3.055,3.055,0,0,0,.747-2.145,3.039,3.039,0,0,0-.747-2.14,2.485,2.485,0,0,0-1.916-.813,2.428,2.428,0,0,0-1.881.813,3.061,3.061,0,0,0-.738,2.14,3.088,3.088,0,0,0,.734,2.145A2.419,2.419,0,0,0,31.825-1.468ZM42.469.158a4.487,4.487,0,0,1-3.3-1.27A4.462,4.462,0,0,1,37.89-4.43a4.439,4.439,0,0,1,1.288-3.313,4.5,4.5,0,0,1,3.292-1.266A4.493,4.493,0,0,1,45.18-8.2a3.838,3.838,0,0,1,1.481,2.272l-1.881.246a2.356,2.356,0,0,0-.866-1.266,2.439,2.439,0,0,0-1.463-.439,2.32,2.32,0,0,0-1.828.813,3.131,3.131,0,0,0-.712,2.14,3.131,3.131,0,0,0,.712,2.14,2.32,2.32,0,0,0,1.828.813,2.456,2.456,0,0,0,1.463-.435,2.334,2.334,0,0,0,.866-1.261l1.881.237a3.843,3.843,0,0,1-1.49,2.276A4.485,4.485,0,0,1,42.469.158Zm8.306.009a3.669,3.669,0,0,1-1.349-.233,2.144,2.144,0,0,1-.984-.791,2.353,2.353,0,0,1-.391-1.384,2.564,2.564,0,0,1,.18-.989,2.165,2.165,0,0,1,.475-.725,2.789,2.789,0,0,1,.747-.51,5.358,5.358,0,0,1,.914-.347q.461-.127,1.068-.242L52.77-5.3q.817-.158.817-.8a1.256,1.256,0,0,0-.492-1.1,2.1,2.1,0,0,0-1.239-.347,2.075,2.075,0,0,0-1.274.374,1.636,1.636,0,0,0-.6,1.182l-1.819-.334Q48.612-9,51.979-9a6.23,6.23,0,0,1,1.05.083,3.751,3.751,0,0,1,.958.3,2.756,2.756,0,0,1,.8.558,2.435,2.435,0,0,1,.536.9,3.743,3.743,0,0,1,.2,1.279v3.428a1.4,1.4,0,0,0,.185.844.8.8,0,0,0,.65.229H56.5V0h-.958q-1.5,0-1.793-1.169h-.1A2.874,2.874,0,0,1,52.4-.158,4.143,4.143,0,0,1,50.774.167Zm.475-1.591a2.351,2.351,0,0,0,1.767-.729,2.645,2.645,0,0,0,.7-1.916l-2.259.5a2.708,2.708,0,0,0-1.09.409.883.883,0,0,0-.36.751.849.849,0,0,0,.343.738A1.5,1.5,0,0,0,51.249-1.424ZM64.652-13.5h2.021V0H64.74l-.053-1.406A2.845,2.845,0,0,1,63.505-.229,3.608,3.608,0,0,1,61.743.2a4.08,4.08,0,0,1-1.622-.325,4.1,4.1,0,0,1-1.332-.91,4.2,4.2,0,0,1-.905-1.459,5.341,5.341,0,0,1-.334-1.92,5.28,5.28,0,0,1,.334-1.907,4.2,4.2,0,0,1,.905-1.455,4.082,4.082,0,0,1,1.336-.91,4.089,4.089,0,0,1,1.617-.325A3.656,3.656,0,0,1,63.47-8.6a2.84,2.84,0,0,1,1.182,1.121ZM60.319-2.312a2.472,2.472,0,0,0,1.872.8,2.42,2.42,0,0,0,1.863-.817A2.968,2.968,0,0,0,64.8-4.412a2.946,2.946,0,0,0-.751-2.074A2.424,2.424,0,0,0,62.191-7.3a2.465,2.465,0,0,0-1.868.8,2.927,2.927,0,0,0-.751,2.1A2.953,2.953,0,0,0,60.319-2.312ZM71.622.167a3.669,3.669,0,0,1-1.349-.233,2.144,2.144,0,0,1-.984-.791A2.353,2.353,0,0,1,68.9-2.241a2.564,2.564,0,0,1,.18-.989,2.165,2.165,0,0,1,.475-.725,2.789,2.789,0,0,1,.747-.51,5.358,5.358,0,0,1,.914-.347q.461-.127,1.068-.242L73.617-5.3q.817-.158.817-.8a1.256,1.256,0,0,0-.492-1.1A2.1,2.1,0,0,0,72.7-7.55a2.075,2.075,0,0,0-1.274.374,1.636,1.636,0,0,0-.6,1.182l-1.819-.334Q69.46-9,72.826-9a6.23,6.23,0,0,1,1.05.083,3.751,3.751,0,0,1,.958.3,2.756,2.756,0,0,1,.8.558,2.435,2.435,0,0,1,.536.9,3.743,3.743,0,0,1,.2,1.279v3.428a1.4,1.4,0,0,0,.185.844.8.8,0,0,0,.65.229h.141V0h-.958q-1.5,0-1.793-1.169h-.1A2.874,2.874,0,0,1,73.252-.158,4.143,4.143,0,0,1,71.622.167ZM72.1-1.424a2.351,2.351,0,0,0,1.767-.729,2.645,2.645,0,0,0,.7-1.916l-2.259.5a2.708,2.708,0,0,0-1.09.409.883.883,0,0,0-.36.751.849.849,0,0,0,.343.738A1.5,1.5,0,0,0,72.1-1.424ZM92.013-4.57l-.026.51H85.263a2.667,2.667,0,0,0,.773,1.934,2.525,2.525,0,0,0,1.784.668,2.424,2.424,0,0,0,1.314-.36,2.272,2.272,0,0,0,.875-1.028l1.846.316A3.886,3.886,0,0,1,90.325-.545a4.392,4.392,0,0,1-2.487.712,4.533,4.533,0,0,1-3.313-1.222,4.494,4.494,0,0,1-1.248-3.366,4.512,4.512,0,0,1,1.248-3.366,4.433,4.433,0,0,1,3.252-1.23,4.21,4.21,0,0,1,3.067,1.129A4.453,4.453,0,0,1,92.013-4.57ZM87.785-7.515a2.58,2.58,0,0,0-1.6.479,2.332,2.332,0,0,0-.839,1.463h4.632a2.131,2.131,0,0,0-.7-1.45A2.251,2.251,0,0,0,87.785-7.515ZM98.868-9.009a3.273,3.273,0,0,1,2.338.8,2.96,2.96,0,0,1,.844,2.263V0h-2.039V-5.511A1.814,1.814,0,0,0,99.523-6.9a1.768,1.768,0,0,0-1.252-.453,2.066,2.066,0,0,0-1.494.558,2.311,2.311,0,0,0-.589,1.718V0H94.166V-8.842h2.021V-7.8a2.987,2.987,0,0,1,1.138-.9A3.658,3.658,0,0,1,98.868-9.009Z" transform="translate(689 2203)" fill="#00223d"/>
      <path id="Trazado_36125" data-name="Trazado 36125" d="M8.789-10.661H3.92v3.472H8.227v1.854H3.92v3.454H8.789V0h-7V-12.533h7ZM16-9.009a3.273,3.273,0,0,1,2.338.8,2.96,2.96,0,0,1,.844,2.263V0H17.139V-5.511A1.814,1.814,0,0,0,16.651-6.9,1.768,1.768,0,0,0,15.4-7.356,2.066,2.066,0,0,0,13.9-6.8a2.311,2.311,0,0,0-.589,1.718V0H11.294V-8.842h2.021V-7.8a2.987,2.987,0,0,1,1.138-.9A3.658,3.658,0,0,1,16-9.009Zm10.4-2.848h-.316q-.088,0-.3.013a1.687,1.687,0,0,0-.308.04q-.1.026-.272.083a.685.685,0,0,0-.259.136q-.083.079-.2.2a.731.731,0,0,0-.171.286,3.374,3.374,0,0,0-.1.387,2.588,2.588,0,0,0-.044.5v1.371h1.969V-7.26H24.425V0H22.4V-7.26H20.689V-8.842H22.4V-10.23a5.234,5.234,0,0,1,.1-1.077,3.175,3.175,0,0,1,.281-.822,2.028,2.028,0,0,1,.461-.589,2.579,2.579,0,0,1,.6-.4,3.3,3.3,0,0,1,.747-.237,6.7,6.7,0,0,1,.848-.119q.417-.031.954-.031ZM31.843.167a4.647,4.647,0,0,1-3.349-1.244,4.421,4.421,0,0,1-1.3-3.353,4.4,4.4,0,0,1,1.3-3.335,4.647,4.647,0,0,1,3.349-1.244A4.668,4.668,0,0,1,35.2-7.77a4.4,4.4,0,0,1,1.3,3.34,4.421,4.421,0,0,1-1.3,3.353A4.658,4.658,0,0,1,31.843.167Zm-.018-1.635a2.479,2.479,0,0,0,1.916-.817,3.055,3.055,0,0,0,.747-2.145,3.039,3.039,0,0,0-.747-2.14,2.485,2.485,0,0,0-1.916-.813,2.428,2.428,0,0,0-1.881.813,3.061,3.061,0,0,0-.738,2.14,3.088,3.088,0,0,0,.734,2.145A2.419,2.419,0,0,0,31.825-1.468ZM42.469.158a4.487,4.487,0,0,1-3.3-1.27A4.462,4.462,0,0,1,37.89-4.43a4.439,4.439,0,0,1,1.288-3.313,4.5,4.5,0,0,1,3.292-1.266A4.493,4.493,0,0,1,45.18-8.2a3.838,3.838,0,0,1,1.481,2.272l-1.881.246a2.356,2.356,0,0,0-.866-1.266,2.439,2.439,0,0,0-1.463-.439,2.32,2.32,0,0,0-1.828.813,3.131,3.131,0,0,0-.712,2.14,3.131,3.131,0,0,0,.712,2.14,2.32,2.32,0,0,0,1.828.813,2.456,2.456,0,0,0,1.463-.435,2.334,2.334,0,0,0,.866-1.261l1.881.237a3.843,3.843,0,0,1-1.49,2.276A4.485,4.485,0,0,1,42.469.158Zm8.306.009a3.669,3.669,0,0,1-1.349-.233,2.144,2.144,0,0,1-.984-.791,2.353,2.353,0,0,1-.391-1.384,2.564,2.564,0,0,1,.18-.989,2.165,2.165,0,0,1,.475-.725,2.789,2.789,0,0,1,.747-.51,5.358,5.358,0,0,1,.914-.347q.461-.127,1.068-.242L52.77-5.3q.817-.158.817-.8a1.256,1.256,0,0,0-.492-1.1,2.1,2.1,0,0,0-1.239-.347,2.075,2.075,0,0,0-1.274.374,1.636,1.636,0,0,0-.6,1.182l-1.819-.334Q48.612-9,51.979-9a6.23,6.23,0,0,1,1.05.083,3.751,3.751,0,0,1,.958.3,2.756,2.756,0,0,1,.8.558,2.435,2.435,0,0,1,.536.9,3.743,3.743,0,0,1,.2,1.279v3.428a1.4,1.4,0,0,0,.185.844.8.8,0,0,0,.65.229H56.5V0h-.958q-1.5,0-1.793-1.169h-.1A2.874,2.874,0,0,1,52.4-.158,4.143,4.143,0,0,1,50.774.167Zm.475-1.591a2.351,2.351,0,0,0,1.767-.729,2.645,2.645,0,0,0,.7-1.916l-2.259.5a2.708,2.708,0,0,0-1.09.409.883.883,0,0,0-.36.751.849.849,0,0,0,.343.738A1.5,1.5,0,0,0,51.249-1.424ZM64.652-13.5h2.021V0H64.74l-.053-1.406A2.845,2.845,0,0,1,63.505-.229,3.608,3.608,0,0,1,61.743.2a4.08,4.08,0,0,1-1.622-.325,4.1,4.1,0,0,1-1.332-.91,4.2,4.2,0,0,1-.905-1.459,5.341,5.341,0,0,1-.334-1.92,5.28,5.28,0,0,1,.334-1.907,4.2,4.2,0,0,1,.905-1.455,4.082,4.082,0,0,1,1.336-.91,4.089,4.089,0,0,1,1.617-.325A3.656,3.656,0,0,1,63.47-8.6a2.84,2.84,0,0,1,1.182,1.121ZM60.319-2.312a2.472,2.472,0,0,0,1.872.8,2.42,2.42,0,0,0,1.863-.817A2.968,2.968,0,0,0,64.8-4.412a2.946,2.946,0,0,0-.751-2.074A2.424,2.424,0,0,0,62.191-7.3a2.465,2.465,0,0,0-1.868.8,2.927,2.927,0,0,0-.751,2.1A2.953,2.953,0,0,0,60.319-2.312ZM71.622.167a3.669,3.669,0,0,1-1.349-.233,2.144,2.144,0,0,1-.984-.791A2.353,2.353,0,0,1,68.9-2.241a2.564,2.564,0,0,1,.18-.989,2.165,2.165,0,0,1,.475-.725,2.789,2.789,0,0,1,.747-.51,5.358,5.358,0,0,1,.914-.347q.461-.127,1.068-.242L73.617-5.3q.817-.158.817-.8a1.256,1.256,0,0,0-.492-1.1A2.1,2.1,0,0,0,72.7-7.55a2.075,2.075,0,0,0-1.274.374,1.636,1.636,0,0,0-.6,1.182l-1.819-.334Q69.46-9,72.826-9a6.23,6.23,0,0,1,1.05.083,3.751,3.751,0,0,1,.958.3,2.756,2.756,0,0,1,.8.558,2.435,2.435,0,0,1,.536.9,3.743,3.743,0,0,1,.2,1.279v3.428a1.4,1.4,0,0,0,.185.844.8.8,0,0,0,.65.229h.141V0h-.958q-1.5,0-1.793-1.169h-.1A2.874,2.874,0,0,1,73.252-.158,4.143,4.143,0,0,1,71.622.167ZM72.1-1.424a2.351,2.351,0,0,0,1.767-.729,2.645,2.645,0,0,0,.7-1.916l-2.259.5a2.708,2.708,0,0,0-1.09.409.883.883,0,0,0-.36.751.849.849,0,0,0,.343.738A1.5,1.5,0,0,0,72.1-1.424ZM92.013-4.57l-.026.51H85.263a2.667,2.667,0,0,0,.773,1.934,2.525,2.525,0,0,0,1.784.668,2.424,2.424,0,0,0,1.314-.36,2.272,2.272,0,0,0,.875-1.028l1.846.316A3.886,3.886,0,0,1,90.325-.545a4.392,4.392,0,0,1-2.487.712,4.533,4.533,0,0,1-3.313-1.222,4.494,4.494,0,0,1-1.248-3.366,4.512,4.512,0,0,1,1.248-3.366,4.433,4.433,0,0,1,3.252-1.23,4.21,4.21,0,0,1,3.067,1.129A4.453,4.453,0,0,1,92.013-4.57ZM87.785-7.515a2.58,2.58,0,0,0-1.6.479,2.332,2.332,0,0,0-.839,1.463h4.632a2.131,2.131,0,0,0-.7-1.45A2.251,2.251,0,0,0,87.785-7.515ZM98.868-9.009a3.273,3.273,0,0,1,2.338.8,2.96,2.96,0,0,1,.844,2.263V0h-2.039V-5.511A1.814,1.814,0,0,0,99.523-6.9a1.768,1.768,0,0,0-1.252-.453,2.066,2.066,0,0,0-1.494.558,2.311,2.311,0,0,0-.589,1.718V0H94.166V-8.842h2.021V-7.8a2.987,2.987,0,0,1,1.138-.9A3.658,3.658,0,0,1,98.868-9.009Z" transform="translate(1123 2203)" fill="#00223d"/>
      <g id="Grupo_12188" data-name="Grupo 12188" transform="translate(-72 385)">
        <path id="Trazado_35306-3" data-name="Trazado 35306" d="M4813.688,482.932l-67.645,67.645" transform="translate(-4001 1354.208)" fill="none" stroke="#ff8f00" stroke-width="2"/>
        <path id="Polígono_9-3" data-name="Polígono 9" d="M6,0l6,11H0Z" transform="translate(743.197 1915.653) rotate(-137)" fill="#ff8f00"/>
      </g>
      <g id="Grupo_12189" data-name="Grupo 12189" transform="translate(740.421 2222.141)">
        <path id="Trazado_35306-4" data-name="Trazado 35306" d="M4746.043,482.932l67.645,67.645" transform="translate(-4746.043 -482.932)" fill="none" stroke="#ff8f00" stroke-width="2"/>
        <path id="Polígono_9-4" data-name="Polígono 9" d="M6,0l6,11H0Z" transform="translate(78.267 70.329) rotate(137)" fill="#ff8f00"/>
      </g>
      <path id="Trazado_36115" data-name="Trazado 36115" d="M1.793,0V-12.533H6.082a6.831,6.831,0,0,1,2.566.453A4.772,4.772,0,0,1,10.5-10.8,5.605,5.605,0,0,1,11.6-8.82a8.185,8.185,0,0,1,.374,2.544A7.746,7.746,0,0,1,11.325-3,4.9,4.9,0,0,1,9.338-.8,6.247,6.247,0,0,1,6.082,0Zm2.1-1.881h2.1A3.448,3.448,0,0,0,8.82-3.028a4.978,4.978,0,0,0,.945-3.248A4.963,4.963,0,0,0,8.82-9.514a3.448,3.448,0,0,0-2.826-1.147h-2.1ZM22.4-4.57l-.026.51H15.653a2.667,2.667,0,0,0,.773,1.934,2.525,2.525,0,0,0,1.784.668,2.424,2.424,0,0,0,1.314-.36A2.272,2.272,0,0,0,20.4-2.848l1.846.316A3.886,3.886,0,0,1,20.716-.545a4.392,4.392,0,0,1-2.487.712,4.533,4.533,0,0,1-3.313-1.222,4.494,4.494,0,0,1-1.248-3.366,4.512,4.512,0,0,1,1.248-3.366,4.433,4.433,0,0,1,3.252-1.23,4.21,4.21,0,0,1,3.067,1.129A4.453,4.453,0,0,1,22.4-4.57ZM18.176-7.515a2.58,2.58,0,0,0-1.6.479,2.332,2.332,0,0,0-.839,1.463h4.632a2.131,2.131,0,0,0-.7-1.45A2.251,2.251,0,0,0,18.176-7.515ZM29.5-9.009a4.089,4.089,0,0,1,1.617.325,4.034,4.034,0,0,1,1.332.91,4.24,4.24,0,0,1,.9,1.455,5.28,5.28,0,0,1,.334,1.907,5.4,5.4,0,0,1-.33,1.92,4.146,4.146,0,0,1-.9,1.459,4.1,4.1,0,0,1-1.332.91A4.08,4.08,0,0,1,29.5.2a3.622,3.622,0,0,1-1.775-.435,2.81,2.81,0,0,1-1.178-1.182L26.49,0H24.557V-13.5h2.013l.009,6.038A2.813,2.813,0,0,1,27.756-8.6,3.667,3.667,0,0,1,29.5-9.009Zm-2.32,6.68a2.42,2.42,0,0,0,1.863.817,2.458,2.458,0,0,0,1.868-.8,2.943,2.943,0,0,0,.751-2.1,2.927,2.927,0,0,0-.751-2.1,2.465,2.465,0,0,0-1.868-.8,2.424,2.424,0,0,0-1.859.817,2.946,2.946,0,0,0-.751,2.074A2.968,2.968,0,0,0,27.176-2.329Zm9.694-8.2a1.207,1.207,0,0,1-.879-.365,1.186,1.186,0,0,1-.369-.875,1.193,1.193,0,0,1,.365-.875,1.2,1.2,0,0,1,.883-.365,1.2,1.2,0,0,1,.87.365,1.186,1.186,0,0,1,.369.875,1.186,1.186,0,0,1-.369.875A1.2,1.2,0,0,1,36.87-10.529ZM35.833,0V-8.842h2.03V0Zm4.9,0V-13.5h2.039V0ZM46.67-10.529a1.207,1.207,0,0,1-.879-.365,1.186,1.186,0,0,1-.369-.875,1.193,1.193,0,0,1,.365-.875,1.2,1.2,0,0,1,.883-.365,1.2,1.2,0,0,1,.87.365,1.186,1.186,0,0,1,.369.875,1.186,1.186,0,0,1-.369.875A1.2,1.2,0,0,1,46.67-10.529ZM45.633,0V-8.842h2.03V0ZM56.918-13.5h2.021V0H57.006l-.053-1.406A2.845,2.845,0,0,1,55.771-.229,3.608,3.608,0,0,1,54.009.2a4.08,4.08,0,0,1-1.622-.325,4.1,4.1,0,0,1-1.332-.91,4.2,4.2,0,0,1-.905-1.459,5.341,5.341,0,0,1-.334-1.92,5.28,5.28,0,0,1,.334-1.907,4.2,4.2,0,0,1,.905-1.455,4.082,4.082,0,0,1,1.336-.91,4.089,4.089,0,0,1,1.617-.325,3.656,3.656,0,0,1,1.727.409,2.84,2.84,0,0,1,1.182,1.121ZM52.585-2.312a2.472,2.472,0,0,0,1.872.8,2.42,2.42,0,0,0,1.863-.817,2.968,2.968,0,0,0,.747-2.083,2.946,2.946,0,0,0-.751-2.074A2.424,2.424,0,0,0,54.457-7.3a2.465,2.465,0,0,0-1.868.8,2.927,2.927,0,0,0-.751,2.1A2.953,2.953,0,0,0,52.585-2.312ZM63.888.167a3.669,3.669,0,0,1-1.349-.233,2.144,2.144,0,0,1-.984-.791,2.353,2.353,0,0,1-.391-1.384,2.564,2.564,0,0,1,.18-.989,2.165,2.165,0,0,1,.475-.725,2.789,2.789,0,0,1,.747-.51,5.358,5.358,0,0,1,.914-.347q.461-.127,1.068-.242L65.883-5.3q.817-.158.817-.8a1.256,1.256,0,0,0-.492-1.1,2.1,2.1,0,0,0-1.239-.347,2.075,2.075,0,0,0-1.274.374,1.636,1.636,0,0,0-.6,1.182l-1.819-.334Q61.726-9,65.092-9a6.23,6.23,0,0,1,1.05.083,3.751,3.751,0,0,1,.958.3,2.756,2.756,0,0,1,.8.558,2.435,2.435,0,0,1,.536.9,3.743,3.743,0,0,1,.2,1.279v3.428a1.4,1.4,0,0,0,.185.844.8.8,0,0,0,.65.229h.141V0H68.66q-1.5,0-1.793-1.169h-.1A2.874,2.874,0,0,1,65.518-.158,4.143,4.143,0,0,1,63.888.167Zm.475-1.591a2.351,2.351,0,0,0,1.767-.729,2.645,2.645,0,0,0,.7-1.916l-2.259.5a2.708,2.708,0,0,0-1.09.409.883.883,0,0,0-.36.751.849.849,0,0,0,.343.738A1.5,1.5,0,0,0,64.362-1.424ZM77.766-13.5h2.021V0H77.854L77.8-1.406A2.845,2.845,0,0,1,76.619-.229,3.608,3.608,0,0,1,74.856.2a4.08,4.08,0,0,1-1.622-.325,4.1,4.1,0,0,1-1.332-.91A4.2,4.2,0,0,1,71-2.492a5.341,5.341,0,0,1-.334-1.92A5.28,5.28,0,0,1,71-6.319,4.2,4.2,0,0,1,71.9-7.774a4.082,4.082,0,0,1,1.336-.91,4.089,4.089,0,0,1,1.617-.325,3.656,3.656,0,0,1,1.727.409,2.84,2.84,0,0,1,1.182,1.121ZM73.433-2.312a2.472,2.472,0,0,0,1.872.8,2.42,2.42,0,0,0,1.863-.817,2.968,2.968,0,0,0,.747-2.083,2.946,2.946,0,0,0-.751-2.074A2.424,2.424,0,0,0,75.3-7.3a2.465,2.465,0,0,0-1.868.8,2.927,2.927,0,0,0-.751,2.1A2.953,2.953,0,0,0,73.433-2.312ZM90.677-4.57l-.026.51H83.927A2.667,2.667,0,0,0,84.7-2.127a2.525,2.525,0,0,0,1.784.668,2.424,2.424,0,0,0,1.314-.36,2.272,2.272,0,0,0,.875-1.028l1.846.316A3.886,3.886,0,0,1,88.989-.545,4.392,4.392,0,0,1,86.5.167a4.533,4.533,0,0,1-3.313-1.222A4.494,4.494,0,0,1,81.94-4.421a4.512,4.512,0,0,1,1.248-3.366,4.433,4.433,0,0,1,3.252-1.23,4.21,4.21,0,0,1,3.067,1.129A4.453,4.453,0,0,1,90.677-4.57ZM86.449-7.515a2.58,2.58,0,0,0-1.6.479,2.332,2.332,0,0,0-.839,1.463h4.632a2.131,2.131,0,0,0-.7-1.45A2.251,2.251,0,0,0,86.449-7.515ZM95.783.167A4.552,4.552,0,0,1,93.3-.461a2.623,2.623,0,0,1-1.213-1.824l1.714-.483A1.832,1.832,0,0,0,94.5-1.657a2.138,2.138,0,0,0,1.283.374,2.049,2.049,0,0,0,1.072-.264.9.9,0,0,0,.431-.853.824.824,0,0,0-.114-.435,1.2,1.2,0,0,0-.272-.316,1.9,1.9,0,0,0-.453-.25,5.107,5.107,0,0,0-.536-.193l-.655-.193Q94.843-3.911,94.57-4a6.249,6.249,0,0,1-.844-.325,4,4,0,0,1-.694-.439,1.72,1.72,0,0,1-.532-.69,2.434,2.434,0,0,1-.18-.971,2.324,2.324,0,0,1,.448-1.45,2.549,2.549,0,0,1,1.178-.857A4.824,4.824,0,0,1,95.616-9a4.127,4.127,0,0,1,2.237.571A2.5,2.5,0,0,1,98.982-6.68l-1.6.378a1.594,1.594,0,0,0-.637-.984A1.96,1.96,0,0,0,95.625-7.6a1.957,1.957,0,0,0-1.024.25.828.828,0,0,0-.417.76,1.032,1.032,0,0,0,.031.259.506.506,0,0,0,.119.215l.158.171a.825.825,0,0,0,.229.154q.158.079.255.123a2.767,2.767,0,0,0,.316.11l.325.1q.105.031.365.1l.365.092q.492.132.839.246a4.843,4.843,0,0,1,.765.338,2.665,2.665,0,0,1,.677.5,2.219,2.219,0,0,1,.435.708,2.571,2.571,0,0,1,.176.971,2.623,2.623,0,0,1-.281,1.244,2.139,2.139,0,0,1-.769.835A3.768,3.768,0,0,1,97.1.018,5.449,5.449,0,0,1,95.783.167Z" transform="translate(606 2324)" fill="#00223d"/>
      <path id="Trazado_36116" data-name="Trazado 36116" d="M10.02,0,9.026-2.786H3.551L2.566,0H.4L5.01-12.533H7.567L12.182,0ZM4.192-4.588h4.2l-2.1-5.924ZM23.783-9.009a3.107,3.107,0,0,1,2.171.734A2.664,2.664,0,0,1,26.763-6.2V0h-2.03V-5.634a1.736,1.736,0,0,0-.439-1.288,1.509,1.509,0,0,0-1.107-.435,1.657,1.657,0,0,0-1.27.523,2.3,2.3,0,0,0-.488,1.613V0H19.371V-5.59a1.8,1.8,0,0,0-.444-1.318A1.522,1.522,0,0,0,17.8-7.356a1.644,1.644,0,0,0-1.274.541,2.442,2.442,0,0,0-.492,1.683V0H14.019V-8.842h2.013v1.09a2.852,2.852,0,0,1,2.5-1.257,3.351,3.351,0,0,1,1.582.356,2.342,2.342,0,0,1,1.02,1.024A2.935,2.935,0,0,1,23.783-9.009ZM37.494-4.57l-.026.51H30.744a2.667,2.667,0,0,0,.773,1.934,2.525,2.525,0,0,0,1.784.668,2.424,2.424,0,0,0,1.314-.36,2.272,2.272,0,0,0,.875-1.028l1.846.316A3.886,3.886,0,0,1,35.807-.545a4.392,4.392,0,0,1-2.487.712,4.533,4.533,0,0,1-3.313-1.222,4.494,4.494,0,0,1-1.248-3.366,4.512,4.512,0,0,1,1.248-3.366,4.433,4.433,0,0,1,3.252-1.23,4.21,4.21,0,0,1,3.067,1.129A4.453,4.453,0,0,1,37.494-4.57ZM33.267-7.515a2.58,2.58,0,0,0-1.6.479,2.332,2.332,0,0,0-.839,1.463h4.632a2.131,2.131,0,0,0-.7-1.45A2.251,2.251,0,0,0,33.267-7.515ZM44.35-9.009a3.273,3.273,0,0,1,2.338.8,2.96,2.96,0,0,1,.844,2.263V0H45.492V-5.511A1.814,1.814,0,0,0,45-6.9a1.768,1.768,0,0,0-1.252-.453,2.066,2.066,0,0,0-1.494.558,2.311,2.311,0,0,0-.589,1.718V0H39.647V-8.842h2.021V-7.8a2.987,2.987,0,0,1,1.138-.9A3.658,3.658,0,0,1,44.35-9.009ZM52.3.167a3.669,3.669,0,0,1-1.349-.233,2.144,2.144,0,0,1-.984-.791,2.353,2.353,0,0,1-.391-1.384,2.564,2.564,0,0,1,.18-.989,2.165,2.165,0,0,1,.475-.725,2.789,2.789,0,0,1,.747-.51,5.358,5.358,0,0,1,.914-.347q.461-.127,1.068-.242L54.3-5.3q.817-.158.817-.8a1.256,1.256,0,0,0-.492-1.1,2.1,2.1,0,0,0-1.239-.347,2.075,2.075,0,0,0-1.274.374,1.636,1.636,0,0,0-.6,1.182l-1.819-.334Q50.142-9,53.508-9a6.23,6.23,0,0,1,1.05.083,3.751,3.751,0,0,1,.958.3,2.756,2.756,0,0,1,.8.558,2.435,2.435,0,0,1,.536.9,3.743,3.743,0,0,1,.2,1.279v3.428a1.4,1.4,0,0,0,.185.844.8.8,0,0,0,.65.229h.141V0h-.958q-1.5,0-1.793-1.169h-.1A2.874,2.874,0,0,1,53.934-.158,4.143,4.143,0,0,1,52.3.167Zm.475-1.591a2.351,2.351,0,0,0,1.767-.729,2.645,2.645,0,0,0,.7-1.916l-2.259.5a2.708,2.708,0,0,0-1.09.409.883.883,0,0,0-.36.751.849.849,0,0,0,.343.738A1.5,1.5,0,0,0,52.778-1.424Zm13.4-7.418L61.9-1.591H66.12V0H58.957l4.254-7.242H59.247v-1.6ZM69.891.167a3.669,3.669,0,0,1-1.349-.233,2.144,2.144,0,0,1-.984-.791,2.353,2.353,0,0,1-.391-1.384,2.564,2.564,0,0,1,.18-.989,2.165,2.165,0,0,1,.475-.725,2.789,2.789,0,0,1,.747-.51,5.358,5.358,0,0,1,.914-.347q.461-.127,1.068-.242L71.886-5.3q.817-.158.817-.8a1.256,1.256,0,0,0-.492-1.1,2.1,2.1,0,0,0-1.239-.347,2.075,2.075,0,0,0-1.274.374,1.636,1.636,0,0,0-.6,1.182L67.28-6.328Q67.729-9,71.095-9a6.23,6.23,0,0,1,1.05.083,3.751,3.751,0,0,1,.958.3,2.756,2.756,0,0,1,.8.558,2.435,2.435,0,0,1,.536.9,3.743,3.743,0,0,1,.2,1.279v3.428a1.4,1.4,0,0,0,.185.844.8.8,0,0,0,.65.229h.141V0h-.958q-1.5,0-1.793-1.169h-.1A2.874,2.874,0,0,1,71.521-.158,4.143,4.143,0,0,1,69.891.167Zm.475-1.591a2.351,2.351,0,0,0,1.767-.729,2.645,2.645,0,0,0,.7-1.916l-2.259.5a2.708,2.708,0,0,0-1.09.409.883.883,0,0,0-.36.751.849.849,0,0,0,.343.738A1.5,1.5,0,0,0,70.365-1.424ZM80.534.167a4.552,4.552,0,0,1-2.479-.628,2.623,2.623,0,0,1-1.213-1.824l1.714-.483a1.832,1.832,0,0,0,.694,1.112,2.138,2.138,0,0,0,1.283.374,2.049,2.049,0,0,0,1.072-.264.9.9,0,0,0,.431-.853.824.824,0,0,0-.114-.435,1.2,1.2,0,0,0-.272-.316A1.9,1.9,0,0,0,81.2-3.4a5.107,5.107,0,0,0-.536-.193l-.655-.193q-.413-.123-.686-.211a6.249,6.249,0,0,1-.844-.325,4,4,0,0,1-.694-.439,1.72,1.72,0,0,1-.532-.69,2.434,2.434,0,0,1-.18-.971,2.324,2.324,0,0,1,.448-1.45A2.549,2.549,0,0,1,78.7-8.732,4.824,4.824,0,0,1,80.367-9a4.127,4.127,0,0,1,2.237.571A2.5,2.5,0,0,1,83.733-6.68l-1.6.378a1.594,1.594,0,0,0-.637-.984A1.96,1.96,0,0,0,80.376-7.6a1.957,1.957,0,0,0-1.024.25.828.828,0,0,0-.417.76,1.032,1.032,0,0,0,.031.259.506.506,0,0,0,.119.215l.158.171a.825.825,0,0,0,.229.154q.158.079.255.123a2.767,2.767,0,0,0,.316.11l.325.1q.105.031.365.1l.365.092q.492.132.839.246a4.843,4.843,0,0,1,.765.338,2.665,2.665,0,0,1,.677.5,2.219,2.219,0,0,1,.435.708,2.571,2.571,0,0,1,.176.971,2.623,2.623,0,0,1-.281,1.244,2.139,2.139,0,0,1-.769.835,3.768,3.768,0,0,1-1.09.453A5.449,5.449,0,0,1,80.534.167Z" transform="translate(764 2324)" fill="#00223d"/>
      <g id="Grupo_12190" data-name="Grupo 12190" transform="translate(362 385)">
        <path id="Trazado_35306-5" data-name="Trazado 35306" d="M4813.688,482.932l-67.645,67.645" transform="translate(-4001 1354.208)" fill="none" stroke="#ff8f00" stroke-width="2"/>
        <path id="Polígono_9-5" data-name="Polígono 9" d="M6,0l6,11H0Z" transform="translate(743.197 1915.653) rotate(-137)" fill="#ff8f00"/>
      </g>
      <g id="Grupo_12191" data-name="Grupo 12191" transform="translate(1174.421 2222.141)">
        <path id="Trazado_35306-6" data-name="Trazado 35306" d="M4746.043,482.932l67.645,67.645" transform="translate(-4746.043 -482.932)" fill="none" stroke="#ff8f00" stroke-width="2"/>
        <path id="Polígono_9-6" data-name="Polígono 9" d="M6,0l6,11H0Z" transform="translate(78.267 70.329) rotate(137)" fill="#ff8f00"/>
      </g>
      <path id="Trazado_36123" data-name="Trazado 36123" d="M8.886-10.661H3.92V-7.2H8.227v1.863H3.92V0H1.793V-12.533H8.886ZM14.528.167A4.647,4.647,0,0,1,11.18-1.077a4.421,4.421,0,0,1-1.3-3.353,4.4,4.4,0,0,1,1.3-3.335,4.647,4.647,0,0,1,3.349-1.244A4.668,4.668,0,0,1,17.886-7.77a4.4,4.4,0,0,1,1.3,3.34,4.421,4.421,0,0,1-1.3,3.353A4.658,4.658,0,0,1,14.528.167Zm-.018-1.635a2.479,2.479,0,0,0,1.916-.817,3.055,3.055,0,0,0,.747-2.145,3.039,3.039,0,0,0-.747-2.14,2.485,2.485,0,0,0-1.916-.813,2.428,2.428,0,0,0-1.881.813,3.061,3.061,0,0,0-.738,2.14,3.088,3.088,0,0,0,.734,2.145A2.419,2.419,0,0,0,14.511-1.468Zm8.763-5.889a2.67,2.67,0,0,1,1.121-1.125,3.5,3.5,0,0,1,1.727-.457v1.846a3.115,3.115,0,0,0-2.087.593,2.523,2.523,0,0,0-.681,1.991V0h-2.03V-8.842h1.951ZM31.333,0A2.5,2.5,0,0,1,29.47-.677,2.6,2.6,0,0,1,28.8-2.584V-7.26H27.035V-8.842h.606a1.382,1.382,0,0,0,1.042-.338A1.709,1.709,0,0,0,29-10.362v-1.371H30.85v2.892h1.925V-7.26H30.85v4.465a1.267,1.267,0,0,0,.3.918,1.093,1.093,0,0,0,.822.312h.8V0ZM36.87.167a3.669,3.669,0,0,1-1.349-.233,2.144,2.144,0,0,1-.984-.791,2.353,2.353,0,0,1-.391-1.384,2.564,2.564,0,0,1,.18-.989,2.165,2.165,0,0,1,.475-.725,2.789,2.789,0,0,1,.747-.51,5.358,5.358,0,0,1,.914-.347q.461-.127,1.068-.242L38.865-5.3q.817-.158.817-.8a1.256,1.256,0,0,0-.492-1.1,2.1,2.1,0,0,0-1.239-.347,2.075,2.075,0,0,0-1.274.374,1.636,1.636,0,0,0-.6,1.182L34.26-6.328Q34.708-9,38.074-9a6.23,6.23,0,0,1,1.05.083,3.751,3.751,0,0,1,.958.3,2.756,2.756,0,0,1,.8.558,2.435,2.435,0,0,1,.536.9,3.743,3.743,0,0,1,.2,1.279v3.428a1.4,1.4,0,0,0,.185.844.8.8,0,0,0,.65.229H42.6V0h-.958q-1.5,0-1.793-1.169h-.1A2.874,2.874,0,0,1,38.5-.158,4.143,4.143,0,0,1,36.87.167Zm.475-1.591a2.351,2.351,0,0,0,1.767-.729,2.645,2.645,0,0,0,.7-1.916l-2.259.5a2.708,2.708,0,0,0-1.09.409.883.883,0,0,0-.36.751.849.849,0,0,0,.343.738A1.5,1.5,0,0,0,37.345-1.424ZM44.561,0V-13.5H46.6V0ZM57.489-4.57l-.026.51H50.739a2.667,2.667,0,0,0,.773,1.934,2.525,2.525,0,0,0,1.784.668,2.424,2.424,0,0,0,1.314-.36,2.272,2.272,0,0,0,.875-1.028l1.846.316A3.886,3.886,0,0,1,55.8-.545a4.392,4.392,0,0,1-2.487.712A4.533,4.533,0,0,1,50-1.055a4.494,4.494,0,0,1-1.248-3.366A4.512,4.512,0,0,1,50-7.787a4.433,4.433,0,0,1,3.252-1.23A4.21,4.21,0,0,1,56.32-7.888,4.453,4.453,0,0,1,57.489-4.57ZM53.262-7.515a2.58,2.58,0,0,0-1.6.479,2.332,2.332,0,0,0-.839,1.463h4.632a2.131,2.131,0,0,0-.7-1.45A2.251,2.251,0,0,0,53.262-7.515ZM65.593-8.842l-4.28,7.251h4.219V0H58.368l4.254-7.242H58.658v-1.6ZM69.3.167a3.669,3.669,0,0,1-1.349-.233,2.144,2.144,0,0,1-.984-.791,2.353,2.353,0,0,1-.391-1.384,2.564,2.564,0,0,1,.18-.989,2.165,2.165,0,0,1,.475-.725,2.789,2.789,0,0,1,.747-.51,5.358,5.358,0,0,1,.914-.347q.461-.127,1.068-.242L71.3-5.3q.817-.158.817-.8a1.256,1.256,0,0,0-.492-1.1,2.1,2.1,0,0,0-1.239-.347,2.075,2.075,0,0,0-1.274.374,1.636,1.636,0,0,0-.6,1.182l-1.819-.334Q67.14-9,70.506-9a6.23,6.23,0,0,1,1.05.083,3.751,3.751,0,0,1,.958.3,2.756,2.756,0,0,1,.8.558,2.435,2.435,0,0,1,.536.9,3.743,3.743,0,0,1,.2,1.279v3.428a1.4,1.4,0,0,0,.185.844.8.8,0,0,0,.65.229h.141V0h-.958q-1.5,0-1.793-1.169h-.1A2.874,2.874,0,0,1,70.932-.158,4.143,4.143,0,0,1,69.3.167Zm.475-1.591a2.351,2.351,0,0,0,1.767-.729,2.645,2.645,0,0,0,.7-1.916l-2.259.5a2.708,2.708,0,0,0-1.09.409.883.883,0,0,0-.36.751.849.849,0,0,0,.343.738A1.5,1.5,0,0,0,69.776-1.424ZM79.945.167a4.552,4.552,0,0,1-2.479-.628,2.623,2.623,0,0,1-1.213-1.824l1.714-.483a1.832,1.832,0,0,0,.694,1.112,2.138,2.138,0,0,0,1.283.374,2.049,2.049,0,0,0,1.072-.264.9.9,0,0,0,.431-.853.824.824,0,0,0-.114-.435,1.2,1.2,0,0,0-.272-.316,1.9,1.9,0,0,0-.453-.25,5.107,5.107,0,0,0-.536-.193l-.655-.193Q79-3.911,78.732-4a6.249,6.249,0,0,1-.844-.325,4,4,0,0,1-.694-.439,1.72,1.72,0,0,1-.532-.69,2.434,2.434,0,0,1-.18-.971,2.324,2.324,0,0,1,.448-1.45,2.549,2.549,0,0,1,1.178-.857A4.824,4.824,0,0,1,79.778-9a4.127,4.127,0,0,1,2.237.571A2.5,2.5,0,0,1,83.145-6.68l-1.6.378a1.594,1.594,0,0,0-.637-.984A1.96,1.96,0,0,0,79.787-7.6a1.957,1.957,0,0,0-1.024.25.828.828,0,0,0-.417.76,1.032,1.032,0,0,0,.031.259.506.506,0,0,0,.119.215l.158.171a.825.825,0,0,0,.229.154q.158.079.255.123a2.767,2.767,0,0,0,.316.11l.325.1q.105.031.365.1l.365.092q.492.132.839.246a4.843,4.843,0,0,1,.765.338,2.665,2.665,0,0,1,.677.5,2.219,2.219,0,0,1,.435.708,2.571,2.571,0,0,1,.176.971,2.623,2.623,0,0,1-.281,1.244,2.139,2.139,0,0,1-.769.835,3.768,3.768,0,0,1-1.09.453A5.449,5.449,0,0,1,79.945.167Z" transform="translate(1053 2324)" fill="#00223d"/>
      <path id="Trazado_36124" data-name="Trazado 36124" d="M10.477-.606A6.647,6.647,0,0,1,7.251.167,6.7,6.7,0,0,1,4.017-.606a5.631,5.631,0,0,1-2.263-2.25A6.855,6.855,0,0,1,.923-6.275,6.831,6.831,0,0,1,1.753-9.69a5.638,5.638,0,0,1,2.263-2.246,6.7,6.7,0,0,1,3.234-.773,6.673,6.673,0,0,1,3.23.773A5.646,5.646,0,0,1,12.74-9.69a6.831,6.831,0,0,1,.831,3.415,6.855,6.855,0,0,1-.831,3.419A5.631,5.631,0,0,1,10.477-.606ZM5.59-2.083a4.569,4.569,0,0,0,1.661.3,4.51,4.51,0,0,0,1.661-.3,3.914,3.914,0,0,0,1.345-.87,3.949,3.949,0,0,0,.9-1.419,5.29,5.29,0,0,0,.325-1.9,5.228,5.228,0,0,0-.325-1.885,3.911,3.911,0,0,0-.9-1.411,4,4,0,0,0-1.345-.87,4.453,4.453,0,0,0-1.661-.308,4.453,4.453,0,0,0-1.661.308,4,4,0,0,0-1.345.87,3.911,3.911,0,0,0-.9,1.411,5.228,5.228,0,0,0-.325,1.885,5.29,5.29,0,0,0,.325,1.9,3.949,3.949,0,0,0,.9,1.419A3.968,3.968,0,0,0,5.59-2.083ZM20.865-9.009a4.12,4.12,0,0,1,2.1.545,3.975,3.975,0,0,1,1.516,1.6,5.076,5.076,0,0,1,.571,2.448,5.431,5.431,0,0,1-.33,1.929,4.146,4.146,0,0,1-.9,1.459,4.038,4.038,0,0,1-1.332.905A4.128,4.128,0,0,1,20.865.2a3.624,3.624,0,0,1-1.727-.413,2.851,2.851,0,0,1-1.182-1.134V4.377H15.935V-8.842h1.934L17.921-7.4A2.805,2.805,0,0,1,19.1-8.583,3.638,3.638,0,0,1,20.865-9.009Zm-.439,7.5A2.447,2.447,0,0,0,22.28-2.3a2.946,2.946,0,0,0,.747-2.109,2.915,2.915,0,0,0-.747-2.1,2.461,2.461,0,0,0-1.854-.782,2.453,2.453,0,0,0-1.872.813,2.92,2.92,0,0,0-.756,2.07,2.948,2.948,0,0,0,.756,2.083A2.447,2.447,0,0,0,20.426-1.512ZM31.131.167a4.647,4.647,0,0,1-3.349-1.244,4.421,4.421,0,0,1-1.3-3.353,4.4,4.4,0,0,1,1.3-3.335,4.647,4.647,0,0,1,3.349-1.244A4.668,4.668,0,0,1,34.488-7.77a4.4,4.4,0,0,1,1.3,3.34,4.421,4.421,0,0,1-1.3,3.353A4.658,4.658,0,0,1,31.131.167Zm-.018-1.635a2.479,2.479,0,0,0,1.916-.817,3.055,3.055,0,0,0,.747-2.145,3.039,3.039,0,0,0-.747-2.14,2.485,2.485,0,0,0-1.916-.813,2.428,2.428,0,0,0-1.881.813,3.061,3.061,0,0,0-.738,2.14,3.088,3.088,0,0,0,.734,2.145A2.419,2.419,0,0,0,31.113-1.468Zm8.763-5.889A2.67,2.67,0,0,1,41-8.481a3.5,3.5,0,0,1,1.727-.457v1.846a3.115,3.115,0,0,0-2.087.593,2.523,2.523,0,0,0-.681,1.991V0h-2.03V-8.842h1.951ZM47.936,0a2.5,2.5,0,0,1-1.863-.677A2.6,2.6,0,0,1,45.4-2.584V-7.26H43.638V-8.842h.606a1.382,1.382,0,0,0,1.042-.338,1.709,1.709,0,0,0,.321-1.182v-1.371h1.846v2.892h1.925V-7.26H47.452v4.465a1.267,1.267,0,0,0,.3.918,1.093,1.093,0,0,0,.822.312h.8V0Zm9.2-8.842h2.021V0H57.234l-.053-1.107A3.163,3.163,0,0,1,54.457.167a3.273,3.273,0,0,1-2.338-.8,2.96,2.96,0,0,1-.844-2.263v-5.95h2.039v5.511A1.814,1.814,0,0,0,53.8-1.938a1.781,1.781,0,0,0,1.261.453,2.051,2.051,0,0,0,1.49-.558,2.322,2.322,0,0,0,.584-1.718Zm9.589-.167a3.273,3.273,0,0,1,2.338.8,2.96,2.96,0,0,1,.844,2.263V0H67.869V-5.511A1.814,1.814,0,0,0,67.381-6.9a1.768,1.768,0,0,0-1.252-.453,2.066,2.066,0,0,0-1.494.558,2.311,2.311,0,0,0-.589,1.718V0H62.024V-8.842h2.021V-7.8a2.987,2.987,0,0,1,1.138-.9A3.658,3.658,0,0,1,66.727-9.009Zm6.908-1.521a1.207,1.207,0,0,1-.879-.365,1.186,1.186,0,0,1-.369-.875,1.193,1.193,0,0,1,.365-.875,1.2,1.2,0,0,1,.883-.365,1.2,1.2,0,0,1,.87.365,1.186,1.186,0,0,1,.369.875,1.186,1.186,0,0,1-.369.875A1.2,1.2,0,0,1,73.635-10.529ZM72.6,0V-8.842h2.03V0ZM83.883-13.5H85.9V0H83.971l-.053-1.406A2.845,2.845,0,0,1,82.736-.229,3.608,3.608,0,0,1,80.974.2a4.08,4.08,0,0,1-1.622-.325,4.1,4.1,0,0,1-1.332-.91,4.2,4.2,0,0,1-.905-1.459,5.341,5.341,0,0,1-.334-1.92,5.28,5.28,0,0,1,.334-1.907,4.2,4.2,0,0,1,.905-1.455,4.082,4.082,0,0,1,1.336-.91,4.089,4.089,0,0,1,1.617-.325A3.656,3.656,0,0,1,82.7-8.6a2.84,2.84,0,0,1,1.182,1.121ZM79.55-2.312a2.472,2.472,0,0,0,1.872.8,2.42,2.42,0,0,0,1.863-.817,2.968,2.968,0,0,0,.747-2.083,2.946,2.946,0,0,0-.751-2.074A2.424,2.424,0,0,0,81.422-7.3a2.465,2.465,0,0,0-1.868.8,2.927,2.927,0,0,0-.751,2.1A2.953,2.953,0,0,0,79.55-2.312ZM90.853.167A3.669,3.669,0,0,1,89.5-.066a2.144,2.144,0,0,1-.984-.791,2.353,2.353,0,0,1-.391-1.384,2.564,2.564,0,0,1,.18-.989,2.165,2.165,0,0,1,.475-.725,2.789,2.789,0,0,1,.747-.51,5.358,5.358,0,0,1,.914-.347q.461-.127,1.068-.242L92.848-5.3q.817-.158.817-.8a1.256,1.256,0,0,0-.492-1.1,2.1,2.1,0,0,0-1.239-.347,2.075,2.075,0,0,0-1.274.374,1.636,1.636,0,0,0-.6,1.182l-1.819-.334Q88.69-9,92.057-9a6.23,6.23,0,0,1,1.05.083,3.751,3.751,0,0,1,.958.3,2.756,2.756,0,0,1,.8.558,2.435,2.435,0,0,1,.536.9,3.743,3.743,0,0,1,.2,1.279v3.428a1.4,1.4,0,0,0,.185.844.8.8,0,0,0,.65.229h.141V0h-.958q-1.5,0-1.793-1.169h-.1A2.874,2.874,0,0,1,92.483-.158,4.143,4.143,0,0,1,90.853.167Zm.475-1.591a2.351,2.351,0,0,0,1.767-.729,2.645,2.645,0,0,0,.7-1.916l-2.259.5a2.708,2.708,0,0,0-1.09.409.883.883,0,0,0-.36.751.849.849,0,0,0,.343.738A1.5,1.5,0,0,0,91.327-1.424ZM104.73-13.5h2.021V0h-1.934l-.053-1.406a2.845,2.845,0,0,1-1.182,1.178A3.608,3.608,0,0,1,101.821.2,4.08,4.08,0,0,1,100.2-.123a4.1,4.1,0,0,1-1.332-.91,4.2,4.2,0,0,1-.905-1.459,5.341,5.341,0,0,1-.334-1.92,5.28,5.28,0,0,1,.334-1.907,4.2,4.2,0,0,1,.905-1.455,4.082,4.082,0,0,1,1.336-.91,4.089,4.089,0,0,1,1.617-.325,3.656,3.656,0,0,1,1.727.409,2.84,2.84,0,0,1,1.182,1.121ZM100.4-2.312a2.472,2.472,0,0,0,1.872.8,2.42,2.42,0,0,0,1.863-.817,2.968,2.968,0,0,0,.747-2.083,2.946,2.946,0,0,0-.751-2.074A2.424,2.424,0,0,0,102.27-7.3a2.465,2.465,0,0,0-1.868.8,2.927,2.927,0,0,0-.751,2.1A2.953,2.953,0,0,0,100.4-2.312ZM117.642-4.57l-.026.51h-6.724a2.667,2.667,0,0,0,.773,1.934,2.525,2.525,0,0,0,1.784.668,2.424,2.424,0,0,0,1.314-.36,2.272,2.272,0,0,0,.875-1.028l1.846.316a3.886,3.886,0,0,1-1.529,1.986,4.392,4.392,0,0,1-2.487.712,4.533,4.533,0,0,1-3.313-1.222,4.494,4.494,0,0,1-1.248-3.366,4.512,4.512,0,0,1,1.248-3.366,4.433,4.433,0,0,1,3.252-1.23,4.21,4.21,0,0,1,3.067,1.129A4.453,4.453,0,0,1,117.642-4.57Zm-4.228-2.944a2.58,2.58,0,0,0-1.6.479,2.332,2.332,0,0,0-.839,1.463h4.632a2.131,2.131,0,0,0-.7-1.45A2.251,2.251,0,0,0,113.414-7.515ZM122.748.167a4.552,4.552,0,0,1-2.479-.628,2.623,2.623,0,0,1-1.213-1.824l1.714-.483a1.832,1.832,0,0,0,.694,1.112,2.138,2.138,0,0,0,1.283.374,2.049,2.049,0,0,0,1.072-.264.9.9,0,0,0,.431-.853.824.824,0,0,0-.114-.435,1.2,1.2,0,0,0-.272-.316,1.9,1.9,0,0,0-.453-.25,5.107,5.107,0,0,0-.536-.193l-.655-.193q-.413-.123-.686-.211a6.249,6.249,0,0,1-.844-.325A4,4,0,0,1,120-4.764a1.72,1.72,0,0,1-.532-.69,2.434,2.434,0,0,1-.18-.971,2.324,2.324,0,0,1,.448-1.45,2.549,2.549,0,0,1,1.178-.857A4.824,4.824,0,0,1,122.581-9a4.127,4.127,0,0,1,2.237.571,2.5,2.5,0,0,1,1.129,1.749l-1.6.378a1.594,1.594,0,0,0-.637-.984A1.96,1.96,0,0,0,122.59-7.6a1.957,1.957,0,0,0-1.024.25.828.828,0,0,0-.417.76,1.032,1.032,0,0,0,.031.259.506.506,0,0,0,.119.215l.158.171a.825.825,0,0,0,.229.154q.158.079.255.123a2.767,2.767,0,0,0,.316.11l.325.1q.105.031.365.1l.365.092q.492.132.839.246a4.843,4.843,0,0,1,.765.338,2.665,2.665,0,0,1,.677.5,2.219,2.219,0,0,1,.435.708,2.571,2.571,0,0,1,.176.971,2.623,2.623,0,0,1-.281,1.244,2.139,2.139,0,0,1-.769.835,3.768,3.768,0,0,1-1.09.453A5.449,5.449,0,0,1,122.748.167Z" transform="translate(1195 2324)" fill="#00223d"/>
      <circle id="Elipse_948" data-name="Elipse 948" cx="31.5" cy="31.5" r="31.5" transform="translate(631 2334)" fill="#e8e8e8"/>
      <path id="Unión_1" data-name="Unión 1" d="M-4001,1317.544h10.5V1296h14.25v21.544H-3965L-3983,1342Z" transform="translate(4646 1047)" fill="#b53a3a"/>
      <circle id="Elipse_949" data-name="Elipse 949" cx="31.5" cy="31.5" r="31.5" transform="translate(775 2334)" fill="#e8e8e8"/>
      <path id="Unión_2" data-name="Unión 2" d="M-3981.077,1326l-9.847,9.847L-4001,1325.77l9.846-9.847-9.847-9.847,10.076-10.076,9.847,9.847,9.847-9.847,10.076,10.076-9.847,9.847,9.847,9.847-10.076,10.076Z" transform="translate(4788 1047.152)" fill="#b53a3a"/>
      <circle id="Elipse_950" data-name="Elipse 950" cx="31.5" cy="31.5" r="31.5" transform="translate(1067 2334)" fill="#e8e8e8"/>
      <path id="Unión_3" data-name="Unión 3" d="M0,24.456H10.5V46H24.75V24.456H36L18,0Z" transform="translate(1081 2343)" fill="#3a65b5"/>
      <circle id="Elipse_951" data-name="Elipse 951" cx="31.5" cy="31.5" r="31.5" transform="translate(1219 2334)" fill="#e8e8e8"/>
      <path id="Unión_4" data-name="Unión 4" d="M-3991.077,1335.693l-.153.153-19.164-19.163,10.077-10.077,9.24,9.24L-3971.23,1296l10.076,10.076-29.77,29.771Z" transform="translate(5236.227 1049.152)" fill="#3a65b5"/>
      <circle id="Elipse_952" data-name="Elipse 952" cx="31.5" cy="31.5" r="31.5" transform="translate(1067 2334)" fill="#e8e8e8"/>
      <path id="Unión_5" data-name="Unión 5" d="M0,24.456H10.5V46H24.75V24.456H36L18,0Z" transform="translate(1081 2343)" fill="#3a65b5"/>
    </g>
  </g>
</svg>
