<svg xmlns="http://www.w3.org/2000/svg" xmlns:xlink="http://www.w3.org/1999/xlink" width="191" height="191" viewBox="0 0 191 191">
  <defs>
    <clipPath id="clip-path">
      <rect id="Rectángulo_3514" data-name="Rectángulo 3514" width="137.146" height="109.884" fill="none"/>
    </clipPath>
  </defs>
  <g id="Grupo_17663" data-name="Grupo 17663" transform="translate(-422 -7029)">
    <circle id="Elipse_968" data-name="Elipse 968" cx="95.5" cy="95.5" r="95.5" transform="translate(422 7029)" fill="#e8e8e8"/>
    <g id="Grupo_17444" data-name="Grupo 17444" transform="translate(449 7069.116)">
      <g id="Grupo_17443" data-name="Grupo 17443" clip-path="url(#clip-path)">
        <path id="Trazado_35606" data-name="Trazado 35606" d="M137.146,311.978c0,4.264-30.7,7.72-68.573,7.72S0,316.242,0,311.978s30.7-7.72,68.573-7.72,68.573,3.456,68.573,7.72" transform="translate(0 -209.814)" fill="#c7ddeb"/>
        <path id="Trazado_35607" data-name="Trazado 35607" d="M266.319,224.584v9.738c0,3.791-9.7,6.864-21.667,6.864s-21.667-3.073-21.667-6.864v-9.738" transform="translate(-153.769 -154.872)" fill="#fdc345"/>
        <path id="Trazado_35608" data-name="Trazado 35608" d="M242.016,242.373a54.057,54.057,0,0,1-15.679-2.066c-4.694-1.487-7.174-3.556-7.174-5.985v-9.738h2.373v9.738c0,2.371,7.792,5.677,20.48,5.677s20.48-3.307,20.48-5.677v-9.738h2.373v9.738c0,2.429-2.481,4.5-7.174,5.985a54.048,54.048,0,0,1-15.679,2.066" transform="translate(-151.133 -154.872)" fill="#3d4451"/>
        <path id="Trazado_35609" data-name="Trazado 35609" d="M222.985,210.655c0,3.5,9.7,6.344,21.667,6.344s21.667-2.841,21.667-6.344-9.7-6.344-21.667-6.344-21.667,2.84-21.667,6.344" transform="translate(-153.769 -140.892)" fill="#fdc345"/>
        <path id="Trazado_35610" data-name="Trazado 35610" d="M242.118,215.6c-11.334,0-22.808-2.571-22.808-7.484s11.474-7.485,22.808-7.485,22.808,2.571,22.808,7.485-11.474,7.484-22.808,7.484m0-12.687c-12.53,0-20.526,3.082-20.526,5.2s8,5.2,20.526,5.2,20.526-3.081,20.526-5.2-8-5.2-20.526-5.2" transform="translate(-151.235 -138.357)" fill="#3d4451"/>
        <path id="Trazado_35611" data-name="Trazado 35611" d="M261.224,181.744v8.686c0,3.382-8.653,6.122-19.326,6.122s-19.326-2.741-19.326-6.122v-8.686" transform="translate(-153.484 -125.329)" fill="#fdc345"/>
        <path id="Trazado_35612" data-name="Trazado 35612" d="M239.546,197.611a48.2,48.2,0,0,1-13.985-1.843c-4.186-1.326-6.4-3.172-6.4-5.338v-8.686h2.117v8.686c0,2.115,6.95,5.064,18.267,5.064s18.267-2.949,18.267-5.064v-8.686h2.117v8.686c0,2.166-2.213,4.012-6.4,5.338a48.2,48.2,0,0,1-13.985,1.843" transform="translate(-151.133 -125.329)" fill="#3d4451"/>
        <path id="Trazado_35613" data-name="Trazado 35613" d="M222.572,169.32c0,3.125,8.653,5.658,19.326,5.658s19.326-2.534,19.326-5.658-8.653-5.658-19.326-5.658-19.326,2.534-19.326,5.658" transform="translate(-153.484 -112.86)" fill="#fdc345"/>
        <path id="Trazado_35614" data-name="Trazado 35614" d="M239.637,173.735c-10.109,0-20.343-2.293-20.343-6.676s10.234-6.676,20.343-6.676,20.343,2.293,20.343,6.676-10.234,6.676-20.343,6.676m0-11.316c-11.176,0-18.308,2.748-18.308,4.641s7.132,4.641,18.308,4.641,18.308-2.748,18.308-4.641-7.132-4.641-18.308-4.641" transform="translate(-151.224 -110.599)" fill="#3d4451"/>
        <path id="Trazado_35615" data-name="Trazado 35615" d="M123.009,218.183v9.022c0,3.512-8.988,6.359-20.074,6.359s-20.074-2.847-20.074-6.359v-9.022" transform="translate(-57.14 -150.458)" fill="#fdc345"/>
        <path id="Trazado_35616" data-name="Trazado 35616" d="M100.492,234.663a50.065,50.065,0,0,1-14.526-1.914c-4.348-1.378-6.647-3.295-6.647-5.544v-9.023h2.2V227.2c0,2.2,7.218,5.26,18.974,5.26s18.975-3.063,18.975-5.26v-9.023h2.2V227.2c0,2.25-2.3,4.167-6.647,5.544a50.065,50.065,0,0,1-14.526,1.914" transform="translate(-54.698 -150.457)" fill="#3d4451"/>
        <path id="Trazado_35617" data-name="Trazado 35617" d="M82.861,205.277c0,3.246,8.988,5.878,20.074,5.878s20.074-2.632,20.074-5.878-8.988-5.877-20.074-5.877-20.074,2.632-20.074,5.877" transform="translate(-57.14 -137.505)" fill="#fdc345"/>
        <path id="Trazado_35618" data-name="Trazado 35618" d="M100.586,209.864c-10.5,0-21.131-2.382-21.131-6.934s10.63-6.934,21.131-6.934,21.131,2.382,21.131,6.934-10.63,6.934-21.131,6.934m0-11.754c-11.609,0-19.017,2.855-19.017,4.82s7.408,4.821,19.017,4.821,19.017-2.855,19.017-4.821-7.408-4.82-19.017-4.82" transform="translate(-54.792 -135.157)" fill="#3d4451"/>
        <path id="Trazado_35619" data-name="Trazado 35619" d="M188.609,266.214v9.738c0,3.791-9.7,6.864-21.667,6.864s-21.667-3.073-21.667-6.864v-9.738" transform="translate(-100.181 -183.579)" fill="#fdc345"/>
        <path id="Trazado_35620" data-name="Trazado 35620" d="M164.306,284a54.045,54.045,0,0,1-15.679-2.065c-4.693-1.487-7.174-3.557-7.174-5.985v-9.738h2.373v9.738c0,2.371,7.792,5.677,20.48,5.677s20.48-3.307,20.48-5.677v-9.738h2.373v9.738c0,2.429-2.481,4.5-7.174,5.985A54.046,54.046,0,0,1,164.306,284" transform="translate(-97.544 -183.579)" fill="#3d4451"/>
        <path id="Trazado_35621" data-name="Trazado 35621" d="M145.275,252.285c0,3.5,9.7,6.344,21.667,6.344s21.667-2.84,21.667-6.344-9.7-6.344-21.667-6.344-21.667,2.84-21.667,6.344" transform="translate(-100.181 -169.599)" fill="#fdc345"/>
        <path id="Trazado_35622" data-name="Trazado 35622" d="M164.408,257.235c-11.334,0-22.808-2.571-22.808-7.484s11.474-7.485,22.808-7.485,22.808,2.571,22.808,7.485-11.474,7.484-22.808,7.484m0-12.687c-12.53,0-20.526,3.082-20.526,5.2s8,5.2,20.526,5.2,20.526-3.081,20.526-5.2-8-5.2-20.526-5.2" transform="translate(-97.646 -167.065)" fill="#3d4451"/>
        <path id="Trazado_35623" data-name="Trazado 35623" d="M189.032,216.207v9.739c0,3.791-9.7,6.864-21.667,6.864s-21.667-3.073-21.667-6.864v-9.739" transform="translate(-100.472 -149.095)" fill="#fdc345"/>
        <path id="Trazado_35624" data-name="Trazado 35624" d="M164.729,234a54.057,54.057,0,0,1-15.679-2.066c-4.693-1.487-7.174-3.556-7.174-5.985v-9.739h2.373v9.739c0,2.371,7.792,5.677,20.48,5.677s20.48-3.307,20.48-5.677v-9.739h2.373v9.739c0,2.429-2.481,4.5-7.174,5.985A54.057,54.057,0,0,1,164.729,234" transform="translate(-97.836 -149.095)" fill="#3d4451"/>
        <path id="Trazado_35625" data-name="Trazado 35625" d="M145.7,202.278c0,3.5,9.7,6.344,21.667,6.344s21.667-2.84,21.667-6.344-9.7-6.344-21.667-6.344-21.667,2.841-21.667,6.344" transform="translate(-100.472 -135.115)" fill="#fdc345"/>
        <path id="Trazado_35626" data-name="Trazado 35626" d="M164.831,207.228c-11.334,0-22.808-2.571-22.808-7.484s11.474-7.485,22.808-7.485,22.808,2.571,22.808,7.485-11.474,7.484-22.808,7.484m0-12.687c-12.53,0-20.526,3.082-20.526,5.2s8,5.2,20.526,5.2,20.526-3.081,20.526-5.2-8-5.2-20.526-5.2" transform="translate(-97.938 -132.581)" fill="#3d4451"/>
        <path id="Trazado_35627" data-name="Trazado 35627" d="M165.654,47.9a19.8,19.8,0,1,1,19.8,19.869,19.833,19.833,0,0,1-19.8-19.869" transform="translate(-114.234 -19.332)" fill="#fdc345"/>
        <path id="Trazado_35628" data-name="Trazado 35628" d="M198.718,55.562v3.722h-2.5v-3.62a13.989,13.989,0,0,1-6.484-1.578V49.334a9.994,9.994,0,0,0,2.967,1.493,13.683,13.683,0,0,0,3.517.789V45.372q-4.014-1.492-5.481-3.233a6.369,6.369,0,0,1-1.466-4.246,6.235,6.235,0,0,1,1.9-4.589,8,8,0,0,1,5.043-2.2v-3.19h2.5v3.122a12.717,12.717,0,0,1,5.4,1.166v4.632a12.97,12.97,0,0,0-5.4-1.784v6.5a13.772,13.772,0,0,1,5.386,3.1,5.939,5.939,0,0,1,1.63,4.211,6.06,6.06,0,0,1-1.818,4.589,8.68,8.68,0,0,1-5.2,2.119m-2.5-15.01V35.114q-2.384.428-2.384,2.487,0,1.767,2.384,2.95m2.5,5.8v5.2q2.453-.376,2.453-2.453,0-1.681-2.453-2.745" transform="translate(-130.517 -19.246)" fill="#3d4451"/>
        <path id="Trazado_35629" data-name="Trazado 35629" d="M162.483,47.844A23.922,23.922,0,1,1,186.4,23.922a23.949,23.949,0,0,1-23.921,23.922m0-45.4A21.477,21.477,0,1,0,183.96,23.922,21.5,21.5,0,0,0,162.483,2.444" transform="translate(-95.551)" fill="#3d4451"/>
        <path id="Trazado_35630" data-name="Trazado 35630" d="M172.956,53.6A19.207,19.207,0,1,1,192.164,34.4,19.229,19.229,0,0,1,172.956,53.6m0-37.018A17.811,17.811,0,1,0,190.767,34.4a17.83,17.83,0,0,0-17.811-17.811" transform="translate(-106.024 -10.474)" fill="#3d4451"/>
        <path id="Trazado_35631" data-name="Trazado 35631" d="M188.609,166.3v9.739c0,3.791-9.7,6.864-21.667,6.864s-21.667-3.073-21.667-6.864V166.3" transform="translate(-100.181 -114.68)" fill="#fdc345"/>
        <path id="Trazado_35632" data-name="Trazado 35632" d="M164.306,184.089a54.056,54.056,0,0,1-15.679-2.066c-4.693-1.487-7.174-3.556-7.174-5.985V166.3h2.373v9.739c0,2.371,7.792,5.677,20.48,5.677s20.48-3.307,20.48-5.677V166.3h2.373v9.739c0,2.429-2.481,4.5-7.174,5.985a54.047,54.047,0,0,1-15.679,2.066" transform="translate(-97.544 -114.679)" fill="#3d4451"/>
        <path id="Trazado_35633" data-name="Trazado 35633" d="M145.275,152.372c0,3.5,9.7,6.344,21.667,6.344s21.667-2.84,21.667-6.344-9.7-6.344-21.667-6.344-21.667,2.841-21.667,6.344" transform="translate(-100.181 -100.7)" fill="#fdc345"/>
        <path id="Trazado_35634" data-name="Trazado 35634" d="M164.408,157.322c-11.334,0-22.808-2.571-22.808-7.484s11.474-7.485,22.808-7.485,22.808,2.571,22.808,7.485-11.474,7.484-22.808,7.484m0-12.687c-12.53,0-20.526,3.082-20.526,5.2s8,5.2,20.526,5.2,20.526-3.081,20.526-5.2-8-5.2-20.526-5.2" transform="translate(-97.646 -98.166)" fill="#3d4451"/>
        <path id="Trazado_35635" data-name="Trazado 35635" d="M191.388,121.37v9.373c0,3.649-9.337,6.606-20.854,6.606s-20.854-2.958-20.854-6.606V121.37" transform="translate(-103.218 -83.696)" fill="#fdc345"/>
        <path id="Trazado_35636" data-name="Trazado 35636" d="M168,138.492a52.018,52.018,0,0,1-15.091-1.988c-4.517-1.431-6.905-3.423-6.905-5.761V121.37h2.285v9.373c0,2.282,7.5,5.464,19.712,5.464s19.712-3.183,19.712-5.464V121.37h2.284v9.373c0,2.337-2.388,4.329-6.905,5.761A52.018,52.018,0,0,1,168,138.492" transform="translate(-100.681 -83.696)" fill="#3d4451"/>
        <path id="Trazado_35637" data-name="Trazado 35637" d="M149.68,107.964c0,3.372,9.337,6.106,20.854,6.106s20.854-2.734,20.854-6.106-9.337-6.106-20.854-6.106-20.854,2.734-20.854,6.106" transform="translate(-103.218 -70.241)" fill="#fdc345"/>
        <path id="Trazado_35638" data-name="Trazado 35638" d="M168.094,112.729c-10.909,0-21.952-2.475-21.952-7.2s11.043-7.2,21.952-7.2,21.952,2.474,21.952,7.2-11.043,7.2-21.952,7.2m0-12.212c-12.06,0-19.756,2.966-19.756,5.008s7.7,5.007,19.756,5.007,19.756-2.966,19.756-5.007-7.7-5.008-19.756-5.008" transform="translate(-100.779 -67.802)" fill="#3d4451"/>
        <path id="Trazado_35639" data-name="Trazado 35639" d="M70.227,277.181v10.267c0,4-10.227,7.237-22.843,7.237s-22.843-3.24-22.843-7.237V277.181" transform="translate(-16.923 -191.142)" fill="#fdc345"/>
        <path id="Trazado_35640" data-name="Trazado 35640" d="M44.605,295.935a56.979,56.979,0,0,1-16.53-2.178c-4.948-1.568-7.564-3.749-7.564-6.31V277.181h2.5v10.267c0,2.5,8.215,5.985,21.592,5.985S66.2,289.947,66.2,287.448V277.181h2.5v10.267c0,2.56-2.615,4.742-7.564,6.31a56.979,56.979,0,0,1-16.53,2.178" transform="translate(-14.144 -191.142)" fill="#3d4451"/>
        <path id="Trazado_35641" data-name="Trazado 35641" d="M24.541,262.5c0,3.694,10.227,6.688,22.843,6.688s22.843-2.994,22.843-6.688S60,255.808,47.384,255.808,24.541,258.8,24.541,262.5" transform="translate(-16.923 -176.404)" fill="#fdc345"/>
        <path id="Trazado_35642" data-name="Trazado 35642" d="M44.712,267.715c-11.949,0-24.046-2.711-24.046-7.891s12.1-7.891,24.046-7.891,24.046,2.71,24.046,7.891-12.1,7.891-24.046,7.891m0-13.376c-13.21,0-21.64,3.249-21.64,5.485s8.43,5.485,21.64,5.485,21.64-3.249,21.64-5.485-8.43-5.485-21.64-5.485" transform="translate(-14.251 -173.731)" fill="#3d4451"/>
        <path id="Trazado_35643" data-name="Trazado 35643" d="M314.425,276.391v9.738c0,3.791-9.7,6.864-21.667,6.864s-21.667-3.073-21.667-6.864v-9.738" transform="translate(-186.943 -190.597)" fill="#fdc345"/>
        <path id="Trazado_35644" data-name="Trazado 35644" d="M290.123,294.179a54.056,54.056,0,0,1-15.679-2.066c-4.694-1.487-7.174-3.556-7.174-5.985V276.39h2.373v9.738c0,2.371,7.792,5.677,20.48,5.677s20.48-3.307,20.48-5.677V276.39h2.373v9.738c0,2.429-2.481,4.5-7.174,5.985a54.054,54.054,0,0,1-15.679,2.066" transform="translate(-184.307 -190.597)" fill="#3d4451"/>
        <path id="Trazado_35645" data-name="Trazado 35645" d="M271.092,262.462c0,3.5,9.7,6.344,21.667,6.344s21.667-2.841,21.667-6.344-9.7-6.344-21.667-6.344-21.667,2.84-21.667,6.344" transform="translate(-186.943 -176.617)" fill="#fdc345"/>
        <path id="Trazado_35646" data-name="Trazado 35646" d="M290.225,267.412c-11.334,0-22.808-2.571-22.808-7.484s11.474-7.485,22.808-7.485,22.807,2.571,22.807,7.485-11.474,7.484-22.807,7.484m0-12.687c-12.53,0-20.526,3.082-20.526,5.2s8,5.2,20.526,5.2,20.526-3.081,20.526-5.2-8-5.2-20.526-5.2" transform="translate(-184.409 -174.083)" fill="#3d4451"/>
      </g>
    </g>
  </g>
</svg>
