<svg xmlns="http://www.w3.org/2000/svg" xmlns:xlink="http://www.w3.org/1999/xlink" width="191" height="191" viewBox="0 0 191 191">
  <defs>
    <clipPath id="clip-path">
      <rect id="Rect치ngulo_3519" data-name="Rect치ngulo 3519" width="132.047" height="105.657" fill="none"/>
    </clipPath>
  </defs>
  <g id="Grupo_17665" data-name="Grupo 17665" transform="translate(-422 -7466)">
    <circle id="Elipse_970" data-name="Elipse 970" cx="95.5" cy="95.5" r="95.5" transform="translate(422 7466)" fill="#e8e8e8"/>
    <g id="Grupo_17448" data-name="Grupo 17448" transform="translate(446 7515.343)">
      <g id="Grupo_17447" data-name="Grupo 17447" clip-path="url(#clip-path)">
        <path id="Trazado_35664" data-name="Trazado 35664" d="M241.186,373.3c0,2.925-21.05,5.3-47.016,5.3s-47.016-2.371-47.016-5.3S168.2,368,194.17,368s47.016,2.371,47.016,5.3" transform="translate(-109.14 -272.934)" fill="#c7ddeb"/>
        <path id="Trazado_35665" data-name="Trazado 35665" d="M102.488,107.853l9.4-9.353-2.182,18.493" transform="translate(-76.012 -73.054)" fill="#c7ddeb"/>
        <path id="Trazado_35666" data-name="Trazado 35666" d="M263.822,77.605,291.138,89.92l-19.973,4.167-11.821-3.047" transform="translate(-192.348 -57.558)" fill="#c7ddeb"/>
        <path id="Trazado_35667" data-name="Trazado 35667" d="M397.151,221.472,422,201.545l3.359,4.7-11.2,20.6-13.434,1.343Z" transform="translate(-294.555 -149.479)" fill="#c7ddeb"/>
        <path id="Trazado_35668" data-name="Trazado 35668" d="M147.538,188.544l4.254,11.2,11.195,2.911" transform="translate(-109.424 -139.837)" fill="#c7ddeb"/>
        <path id="Trazado_35669" data-name="Trazado 35669" d="M241.143,261.348l20.6,7.389-2.015,1.343-13.882-2.463" transform="translate(-178.848 -193.834)" fill="#a8c4cd"/>
        <path id="Trazado_35670" data-name="Trazado 35670" d="M266.277,187.866l11.2-19.255,13.21,14.329" transform="translate(-197.49 -125.053)" fill="#c7ddeb"/>
        <path id="Trazado_35671" data-name="Trazado 35671" d="M320.88,295.149l5.374,5.374,15,13.21L332.9,299.15Z" transform="translate(-237.987 -218.903)" fill="#a8c4cd"/>
        <path id="Trazado_35672" data-name="Trazado 35672" d="M147.538,164.684l14.889-2.575,3.135,15.9Z" transform="translate(-109.424 -120.231)" fill="#c7ddeb"/>
        <path id="Trazado_35673" data-name="Trazado 35673" d="M372.017,163.258l8.956-12.538,19.479-2.911,2.239,5.15-14.329,10.3Z" transform="translate(-275.913 -109.625)" fill="#c7ddeb"/>
        <path id="Trazado_35674" data-name="Trazado 35674" d="M197.192,143.993l-22.626-20.4L157.078,122l-7.115-11.346-17.185,0-9.205-21.816,10.974-17.645,27.218-11.756,18.025,1.622.167.055,18.4,6.063,18.11,6.505,5.715,14.3.956,14.154-10.3,10.063-2.4,8.14-13.746,2.4Zm-38.328-24.9,16.993,1.549,18.115,16.331-.392-16.8,14.467-2.523,2.085-7.084,9.859-9.635-.829-12.266-5.026-12.573-16.8-6.034L179.166,64.07l-16.9-1.521L136.637,73.619,127,89.107l7.8,18.49,16.848,0Z" transform="translate(-91.65 -44.082)" fill="#3d4451"/>
        <path id="Trazado_35675" data-name="Trazado 35675" d="M226.849,112.034,243.568,86.38l-6.823-21.365,1.493-.477,7.049,22.074L230.2,109.761l28.927-5.82,11.665-22.2,22.575-2.731.188,1.556L271.8,83.2l-11.63,22.13-.366.073Z" transform="translate(-168.247 -47.866)" fill="#3d4451"/>
        <path id="Trazado_35676" data-name="Trazado 35676" d="M153.591,112.612,126.715,91.477l20.109-9.322,15.815-17.84,1.173,1.04L149.022,82.038l21.812,3.182-.226,1.551-22.084-3.222Zm-23.9-20.788,21.652,17.027-4.366-25.041Z" transform="translate(-93.981 -47.7)" fill="#3d4451"/>
        <path id="Trazado_35677" data-name="Trazado 35677" d="M313.708,175.531l-13.418-6.6.535,5.542-1.56.15-.8-8.339,13,6.392-4.3-19.05-15.273-19.276,27-4.224.242,1.548-24.344,3.809,13.826,17.45Z" transform="translate(-216.484 -96.512)" fill="#3d4451"/>
        <path id="Trazado_35678" data-name="Trazado 35678" d="M370.741,118.486l-8.232-7.711-9.292-23.489L337.754,70.549l1.151-1.064,15.661,16.953,9.271,23.434,7.975,7.47Z" transform="translate(-250.502 -51.535)" fill="#3d4451"/>
        <path id="Trazado_35679" data-name="Trazado 35679" d="M376.68,183.31l-20.276-.08.006-1.567,19.739.077,16.726-12.892.957,1.241Z" transform="translate(-264.334 -125.23)" fill="#3d4451"/>
        <path id="Trazado_35680" data-name="Trazado 35680" d="M273.961,240.156,262.5,220.969l-8.811,12.458-23.374-6.88.443-1.5,22.3,6.564,9.554-13.509,11.814,19.777,15.59-11.415.926,1.265Z" transform="translate(-170.816 -161.757)" fill="#3d4451"/>
        <path id="Trazado_35681" data-name="Trazado 35681" d="M275.6,135.339a5.1,5.1,0,1,1,5.095,5.1,5.1,5.1,0,0,1-5.095-5.1" transform="translate(-204.405 -96.598)" fill="#f04f4c"/>
        <path id="Trazado_35682" data-name="Trazado 35682" d="M278.057,138.715h0a6.016,6.016,0,0,1,0-12.032h0a6.016,6.016,0,0,1,0,12.032m0-10.192a4.176,4.176,0,0,0,0,8.352h0a4.176,4.176,0,0,0,0-8.352Z" transform="translate(-201.764 -93.958)" fill="#3d4451"/>
        <path id="Trazado_35683" data-name="Trazado 35683" d="M216.28,233.4a3.847,3.847,0,1,1,3.846,3.842,3.844,3.844,0,0,1-3.846-3.842" transform="translate(-160.408 -170.256)" fill="#7eb9c7"/>
        <path id="Trazado_35684" data-name="Trazado 35684" d="M217.156,235.3h0a4.876,4.876,0,1,1,0-9.753h0a4.876,4.876,0,1,1,0,9.753m-2.812-4.877a2.813,2.813,0,0,0,2.811,2.807h0a2.812,2.812,0,0,0,2.812-2.806,2.81,2.81,0,0,0-2.811-2.807h0a2.812,2.812,0,0,0-2.812,2.806" transform="translate(-157.437 -167.285)" fill="#3d4451"/>
        <path id="Trazado_35685" data-name="Trazado 35685" d="M384.6,125.5a3.248,3.248,0,1,1,3.247,3.249A3.248,3.248,0,0,1,384.6,125.5" transform="translate(-285.244 -90.671)" fill="#7eb9c7"/>
        <path id="Trazado_35686" data-name="Trazado 35686" d="M385.534,127.242h0a4.053,4.053,0,0,1,0-8.106h0a4.053,4.053,0,0,1,0,8.106m-3.248-4.054h.8a2.443,2.443,0,0,0,2.443,2.444h0a2.443,2.443,0,0,0,0-4.886h0a2.446,2.446,0,0,0-2.443,2.443Z" transform="translate(-282.933 -88.359)" fill="#3d4451"/>
        <path id="Trazado_35687" data-name="Trazado 35687" d="M342.114,207.525a3.807,3.807,0,1,1,3.806,3.807,3.807,3.807,0,0,1-3.806-3.807" transform="translate(-253.735 -151.092)" fill="#fdc345"/>
        <path id="Trazado_35688" data-name="Trazado 35688" d="M343.28,209.611h0a4.727,4.727,0,0,1-4.726-4.727h0a4.733,4.733,0,0,1,4.727-4.726h0a4.727,4.727,0,0,1,0,9.453m0-7.614a2.887,2.887,0,0,0,0,5.774h0a2.887,2.887,0,0,0,0-5.774Z" transform="translate(-251.094 -148.451)" fill="#3d4451"/>
        <path id="Trazado_35689" data-name="Trazado 35689" d="M424.452,217.049a2.911,2.911,0,1,1,2.91,2.911,2.911,2.911,0,0,1-2.91-2.911" transform="translate(-314.803 -158.82)" fill="#c7ddeb"/>
        <path id="Trazado_35690" data-name="Trazado 35690" d="M424.791,218.284h0a3.806,3.806,0,0,1,0-7.612h0a3.806,3.806,0,0,1,0,7.612m0-5.821a2.015,2.015,0,0,0,0,4.03h0a2.015,2.015,0,0,0,0-4.03Z" transform="translate(-312.232 -156.249)" fill="#3d4451"/>
        <path id="Trazado_35691" data-name="Trazado 35691" d="M197.827,128.16a2.911,2.911,0,1,1,2.91,2.912,2.911,2.911,0,0,1-2.91-2.912" transform="translate(-146.722 -92.894)" fill="#c7ddeb"/>
        <path id="Trazado_35692" data-name="Trazado 35692" d="M198.166,129.4h0a3.806,3.806,0,0,1,0-7.613h0a3.806,3.806,0,0,1,0,7.613m-2.911-3.807h.9a2.018,2.018,0,0,0,2.015,2.016h0a2.015,2.015,0,0,0,0-4.03h0a2.017,2.017,0,0,0-2.015,2.015Z" transform="translate(-144.151 -90.323)" fill="#3d4451"/>
        <rect id="Rect치ngulo_3518" data-name="Rect치ngulo 3518" width="1.567" height="19.68" transform="matrix(0.918, -0.397, 0.397, 0.918, 95.38, 77.904)" fill="#3d4451"/>
        <path id="Trazado_35693" data-name="Trazado 35693" d="M33.293,46.225,0,0,45.212,28.015,44,29.964,8.61,8.032,35.154,44.886Z" transform="translate(0 0)" fill="#3d4451"/>
        <path id="Trazado_35694" data-name="Trazado 35694" d="M66.086,81.592l-1.473-.174L66.835,62.59,52.9,66.192l-.15-13.478L42.8,51.1l.237-1.464,11.177,1.811.143,12.833,14.2-3.671Z" transform="translate(-31.744 -36.815)" fill="#3d4451"/>
        <path id="Trazado_35695" data-name="Trazado 35695" d="M98.939,96.958a2.664,2.664,0,1,1,3.768,0,2.664,2.664,0,0,1-3.768,0" transform="translate(-72.801 -68.538)" fill="#fdc345"/>
        <path id="Trazado_35696" data-name="Trazado 35696" d="M99.172,96.666a3.238,3.238,0,1,1,2.29-.947,3.228,3.228,0,0,1-2.29.947m0-5.326a2.089,2.089,0,1,0,1.478.611,2.084,2.084,0,0,0-1.478-.611" transform="translate(-71.151 -66.891)" fill="#3d4451"/>
      </g>
    </g>
  </g>
</svg>
