<svg xmlns="http://www.w3.org/2000/svg" xmlns:xlink="http://www.w3.org/1999/xlink" width="191" height="191" viewBox="0 0 191 191">
  <defs>
    <clipPath id="clip-path">
      <rect id="Rectángulo_3517" data-name="Rectángulo 3517" width="121.651" height="122.255" fill="none"/>
    </clipPath>
  </defs>
  <g id="Grupo_17664" data-name="Grupo 17664" transform="translate(-422 -7244)">
    <circle id="Elipse_969" data-name="Elipse 969" cx="95.5" cy="95.5" r="95.5" transform="translate(422 7244)" fill="#e8e8e8"/>
    <g id="Grupo_17446" data-name="Grupo 17446" transform="translate(459 7271.666)">
      <g id="Grupo_17445" data-name="Grupo 17445" clip-path="url(#clip-path)">
        <path id="Trazado_35647" data-name="Trazado 35647" d="M89.974,31.246a45.365,45.365,0,1,0,0,64.155,45.364,45.364,0,0,0,0-64.155M84.712,90.14a37.923,37.923,0,1,1,0-53.632,37.924,37.924,0,0,1,0,53.632" transform="translate(-8.785 -12.59)" fill="#c7ddeb"/>
        <path id="Trazado_35648" data-name="Trazado 35648" d="M325.9,326.66c1.86,1.86,2.122,4.79.476,6.435l-4.364,4.365c-1.646,1.645-4.575,1.384-6.434-.477l-16.6-16.6a4.512,4.512,0,0,1-.389-6.346l4.365-4.365a4.513,4.513,0,0,1,6.347.388Z" transform="translate(-208.526 -216.297)" fill="#c7ddeb"/>
        <path id="Trazado_35649" data-name="Trazado 35649" d="M129.183,205.98c0,3.011-11.238,5.452-25.1,5.452s-25.1-2.441-25.1-5.452,11.238-5.452,25.1-5.452,25.1,2.441,25.1,5.452" transform="translate(-55.367 -140.576)" fill="#7eb9c7"/>
        <path id="Trazado_35650" data-name="Trazado 35650" d="M47.219,94.415A47.18,47.18,0,1,1,80.608,80.607,47.073,47.073,0,0,1,47.219,94.415m0-90.707A43.512,43.512,0,1,0,77.986,16.452,43.227,43.227,0,0,0,47.219,3.708" transform="translate(-0.001)" fill="#3d4451"/>
        <path id="Trazado_35651" data-name="Trazado 35651" d="M66.287,105.374A39.086,39.086,0,1,1,93.938,93.939a38.981,38.981,0,0,1-27.652,11.435m0-75.948A36.862,36.862,0,1,0,92.366,40.21,36.762,36.762,0,0,0,66.288,29.426" transform="translate(-19.069 -19.07)" fill="#3d4451"/>
        <path id="Trazado_35652" data-name="Trazado 35652" d="M269.35,267.535l-13.469-13.469,8.637-8.638L277.987,258.9Zm-10.792-13.469,10.792,10.792,5.961-5.961-10.792-10.792Z" transform="translate(-179.38 -172.053)" fill="#3d4451"/>
        <path id="Trazado_35653" data-name="Trazado 35653" d="M319.221,319.487c-.083,0-.167,0-.251-.005a5.871,5.871,0,0,1-3.9-1.726l-16.6-16.6a5.669,5.669,0,0,1-1.683-3.873,5.189,5.189,0,0,1,1.514-3.844l4.687-4.686a5.169,5.169,0,0,1,3.844-1.514,5.672,5.672,0,0,1,3.873,1.683l16.6,16.6a5.87,5.87,0,0,1,1.725,3.9,5.124,5.124,0,0,1-1.47,3.9l-4.685,4.686a5.1,5.1,0,0,1-3.652,1.475m-12.536-30.625a3.568,3.568,0,0,0-2.551,1.039l-4.687,4.686a3.576,3.576,0,0,0-1.037,2.652A4.052,4.052,0,0,0,299.616,300l16.6,16.6a4.3,4.3,0,0,0,2.822,1.251,3.527,3.527,0,0,0,2.682-.994l4.686-4.686a3.517,3.517,0,0,0,.995-2.681,4.3,4.3,0,0,0-1.251-2.823l-16.6-16.6a4.049,4.049,0,0,0-2.764-1.207h-.1" transform="translate(-208.052 -201.36)" fill="#3d4451"/>
        <path id="Trazado_35654" data-name="Trazado 35654" d="M317.652,318.588c-.093,0-.187,0-.281-.006a6.535,6.535,0,0,1-4.346-1.922l-16.6-16.6a6.336,6.336,0,0,1-1.879-4.329,5.851,5.851,0,0,1,1.709-4.335l4.687-4.686a5.875,5.875,0,0,1,4.335-1.71,6.336,6.336,0,0,1,4.329,1.879l16.6,16.6a6.541,6.541,0,0,1,1.921,4.347,5.787,5.787,0,0,1-1.666,4.405l-4.685,4.686a5.759,5.759,0,0,1-4.125,1.671m-12.536-30.625a2.906,2.906,0,0,0-2.079.843l-4.687,4.686a2.913,2.913,0,0,0-.842,2.161,3.382,3.382,0,0,0,1.011,2.307l16.6,16.6a3.627,3.627,0,0,0,2.377,1.055,2.855,2.855,0,0,0,2.179-.8l4.686-4.686a2.855,2.855,0,0,0,.8-2.179,3.627,3.627,0,0,0-1.055-2.378l-16.6-16.6a3.381,3.381,0,0,0-2.307-1.011h-.083" transform="translate(-206.483 -199.791)" fill="#3d4451"/>
        <path id="Trazado_35655" data-name="Trazado 35655" d="M330.476,337.494a.81.81,0,0,1-.575-.239l-15.572-15.572a.813.813,0,0,1,1.15-1.15L331.051,336.1a.814.814,0,0,1-.575,1.389" transform="translate(-220.187 -224.536)" fill="#3d4451"/>
        <path id="Trazado_35656" data-name="Trazado 35656" d="M132.2,272.686a10.481,10.481,0,1,0-9.926-9.917,10.482,10.482,0,0,0,9.926,9.917" transform="translate(-85.708 -176.476)" fill="#7eb9c7"/>
        <path id="Trazado_35657" data-name="Trazado 35657" d="M129.557,270.884q-.3,0-.594-.015h0a11.863,11.863,0,1,1,.594.015m-.458-2.716a9.129,9.129,0,1,0-8.644-8.636,9.166,9.166,0,0,0,8.644,8.636Z" transform="translate(-82.539 -173.308)" fill="#3d4451"/>
        <path id="Trazado_35658" data-name="Trazado 35658" d="M131.34,347.256a3.452,3.452,0,0,0,3.378-4.137c-1.816-9.093-9.238-17.227-18.121-17.227s-16.3,8.135-18.118,17.227a3.451,3.451,0,0,0,3.377,4.137Z" transform="translate(-68.988 -228.46)" fill="#7eb9c7"/>
        <path id="Trazado_35659" data-name="Trazado 35659" d="M128.17,345.439H98.686a4.8,4.8,0,0,1-4.7-5.754c2.085-10.441,10.444-18.315,19.444-18.315s17.361,7.874,19.446,18.315a4.8,4.8,0,0,1-4.7,5.754m-14.743-21.364a15.429,15.429,0,0,0-10.756,4.811,22.24,22.24,0,0,0-6.037,11.329,2.108,2.108,0,0,0,.437,1.756,2.081,2.081,0,0,0,1.615.764H128.17a2.081,2.081,0,0,0,1.615-.764,2.109,2.109,0,0,0,.437-1.757,22.239,22.239,0,0,0-6.037-11.328,15.431,15.431,0,0,0-10.758-4.811" transform="translate(-65.818 -225.29)" fill="#3d4451"/>
        <rect id="Rectángulo_3515" data-name="Rectángulo 3515" width="28.099" height="29.831" transform="translate(38.945 32.388)" fill="#fdc345"/>
        <rect id="Rectángulo_3516" data-name="Rectángulo 3516" width="24.34" height="27.463" transform="translate(35.248 27.804)" fill="#fdc345"/>
        <path id="Trazado_35660" data-name="Trazado 35660" d="M159.262,142.1H128.284v-6.2h2.4v3.8h26.185v-28.75h-5.233v-2.4h7.629Z" transform="translate(-89.931 -76.104)" fill="#3d4451"/>
        <path id="Trazado_35661" data-name="Trazado 35661" d="M130.991,113.873H99.605V78.238h31.386Zm-28.99-2.4h26.593V80.635H102Z" transform="translate(-69.826 -54.847)" fill="#3d4451"/>
        <path id="Trazado_35662" data-name="Trazado 35662" d="M133.778,117.8a2.96,2.96,0,0,1-2.006-.884l-9.853-9.723a2.181,2.181,0,0,1,.217-3.348,2.962,2.962,0,0,1,3.794.178l7.714,7.569,16.032-17.922a2.95,2.95,0,0,1,3.773-.4,2.163,2.163,0,0,1,.458,3.3L135.893,116.8a2.832,2.832,0,0,1-2.03,1Z" transform="translate(-84.991 -65.03)" fill="#4ece46"/>
        <path id="Trazado_35663" data-name="Trazado 35663" d="M131.321,116.328h-.085a4.021,4.021,0,0,1-2.765-1.194l-9.855-9.725a3.3,3.3,0,0,1-1-2.529,3.36,3.36,0,0,1,1.311-2.445,4.03,4.03,0,0,1,5.22.258l6.9,6.775,15.275-17.077a4.016,4.016,0,0,1,5.195-.575A3.4,3.4,0,0,1,153,92.189a3.21,3.21,0,0,1-.826,2.547l-18.013,20.23a3.917,3.917,0,0,1-2.839,1.362M121.4,101.77a1.848,1.848,0,0,0-1.134.374,1.176,1.176,0,0,0-.48.858,1.115,1.115,0,0,0,.355.861l9.855,9.725a1.869,1.869,0,0,0,1.245.571h.085a1.782,1.782,0,0,0,1.221-.636l18.014-20.231a1.059,1.059,0,0,0,.29-.846,1.217,1.217,0,0,0-.553-.844,1.864,1.864,0,0,0-2.35.234l-16.789,18.769-8.525-8.365a1.764,1.764,0,0,0-1.233-.47" transform="translate(-82.449 -62.476)" fill="#3d4451"/>
      </g>
    </g>
  </g>
</svg>
