<svg id="Grupo_17490" data-name="Grupo 17490" xmlns="http://www.w3.org/2000/svg" xmlns:xlink="http://www.w3.org/1999/xlink" width="87.75" height="70.307" viewBox="0 0 87.75 70.307">
  <defs>
    <clipPath id="clip-path">
      <rect id="Rectángulo_3617" data-name="Rectángulo 3617" width="87.75" height="70.307" fill="none"/>
    </clipPath>
  </defs>
  <g id="Grupo_17489" data-name="Grupo 17489" clip-path="url(#clip-path)">
    <path id="Trazado_35876" data-name="Trazado 35876" d="M87.75,309.2c0,2.728-19.644,4.94-43.875,4.94S0,311.926,0,309.2s19.644-4.94,43.875-4.94,43.875,2.211,43.875,4.94" transform="translate(0 -243.83)" fill="#c7ddeb"/>
    <path id="Trazado_35877" data-name="Trazado 35877" d="M250.711,224.584v6.231c0,2.425-6.207,4.392-13.863,4.392s-13.863-1.966-13.863-4.392v-6.231" transform="translate(-178.698 -179.98)" fill="#fdc345"/>
    <path id="Trazado_35878" data-name="Trazado 35878" d="M233.785,235.966a34.588,34.588,0,0,1-10.032-1.322c-3-.951-4.59-2.275-4.59-3.829v-6.231h1.519v6.231c0,1.517,4.985,3.633,13.1,3.633s13.1-2.116,13.1-3.633v-6.231h1.519v6.231c0,1.554-1.587,2.878-4.59,3.829a34.582,34.582,0,0,1-10.032,1.322" transform="translate(-175.635 -179.98)" fill="#3d4451"/>
    <path id="Trazado_35879" data-name="Trazado 35879" d="M222.985,208.37c0,2.241,6.207,4.059,13.863,4.059s13.863-1.817,13.863-4.059-6.207-4.059-13.863-4.059-13.863,1.817-13.863,4.059" transform="translate(-178.698 -163.733)" fill="#fdc345"/>
    <path id="Trazado_35880" data-name="Trazado 35880" d="M233.9,210.213c-7.252,0-14.593-1.645-14.593-4.789s7.341-4.789,14.593-4.789,14.593,1.645,14.593,4.789-7.341,4.789-14.593,4.789m0-8.118c-8.017,0-13.133,1.972-13.133,3.329s5.116,3.329,13.133,3.329,13.133-1.972,13.133-3.329S241.92,202.1,233.9,202.1" transform="translate(-175.753 -160.788)" fill="#3d4451"/>
    <path id="Trazado_35881" data-name="Trazado 35881" d="M247.3,181.744V187.3c0,2.164-5.536,3.917-12.365,3.917s-12.365-1.754-12.365-3.917v-5.558" transform="translate(-178.367 -145.648)" fill="#fdc345"/>
    <path id="Trazado_35882" data-name="Trazado 35882" d="M232.2,191.9a30.837,30.837,0,0,1-8.948-1.179c-2.679-.848-4.095-2.029-4.095-3.415v-5.558h1.355V187.3c0,1.353,4.447,3.24,11.688,3.24s11.688-1.887,11.688-3.24v-5.558h1.355V187.3c0,1.386-1.416,2.567-4.095,3.415A30.837,30.837,0,0,1,232.2,191.9" transform="translate(-175.635 -145.648)" fill="#3d4451"/>
    <path id="Trazado_35883" data-name="Trazado 35883" d="M222.572,167.282c0,2,5.536,3.62,12.365,3.62s12.365-1.621,12.365-3.62-5.536-3.62-12.365-3.62-12.365,1.621-12.365,3.62" transform="translate(-178.367 -131.157)" fill="#fdc345"/>
    <path id="Trazado_35884" data-name="Trazado 35884" d="M232.31,168.926c-6.468,0-13.016-1.467-13.016-4.271s6.548-4.271,13.016-4.271,13.016,1.467,13.016,4.271-6.548,4.271-13.016,4.271m0-7.241c-7.151,0-11.714,1.758-11.714,2.969s4.563,2.969,11.714,2.969,11.714-1.758,11.714-2.969-4.563-2.969-11.714-2.969" transform="translate(-175.74 -128.53)" fill="#3d4451"/>
    <path id="Trazado_35885" data-name="Trazado 35885" d="M108.549,218.183v5.773c0,2.247-5.75,4.069-12.844,4.069s-12.844-1.822-12.844-4.069v-5.773" transform="translate(-66.404 -174.85)" fill="#fdc345"/>
    <path id="Trazado_35886" data-name="Trazado 35886" d="M92.866,228.727a32.033,32.033,0,0,1-9.294-1.225c-2.782-.881-4.253-2.108-4.253-3.548v-5.773h1.407v5.773c0,1.405,4.618,3.365,12.14,3.365s12.141-1.96,12.141-3.365v-5.773h1.407v5.773c0,1.44-1.471,2.666-4.253,3.548a32.033,32.033,0,0,1-9.294,1.225" transform="translate(-63.566 -174.849)" fill="#3d4451"/>
    <path id="Trazado_35887" data-name="Trazado 35887" d="M82.861,203.16c0,2.077,5.751,3.761,12.844,3.761s12.844-1.684,12.844-3.761S102.8,199.4,95.7,199.4s-12.844,1.684-12.844,3.76" transform="translate(-66.404 -159.798)" fill="#fdc345"/>
    <path id="Trazado_35888" data-name="Trazado 35888" d="M92.975,204.869c-6.719,0-13.52-1.524-13.52-4.437s6.8-4.437,13.52-4.437,13.52,1.524,13.52,4.437-6.8,4.437-13.52,4.437m0-7.521c-7.428,0-12.168,1.827-12.168,3.084s4.74,3.084,12.168,3.084,12.168-1.827,12.168-3.084-4.74-3.084-12.168-3.084" transform="translate(-63.675 -157.069)" fill="#3d4451"/>
    <path id="Trazado_35889" data-name="Trazado 35889" d="M173,266.214v6.231c0,2.426-6.207,4.392-13.863,4.392s-13.863-1.966-13.863-4.392v-6.231" transform="translate(-116.422 -213.342)" fill="#fdc345"/>
    <path id="Trazado_35890" data-name="Trazado 35890" d="M156.075,277.6a34.58,34.58,0,0,1-10.032-1.322c-3-.952-4.59-2.276-4.59-3.83v-6.231h1.519v6.231c0,1.517,4.985,3.633,13.1,3.633s13.1-2.116,13.1-3.633v-6.231H170.7v6.231c0,1.554-1.587,2.878-4.59,3.83a34.581,34.581,0,0,1-10.032,1.322" transform="translate(-113.358 -213.342)" fill="#3d4451"/>
    <path id="Trazado_35891" data-name="Trazado 35891" d="M145.275,250c0,2.242,6.207,4.059,13.863,4.059S173,252.242,173,250s-6.207-4.059-13.863-4.059-13.863,1.817-13.863,4.059" transform="translate(-116.422 -197.095)" fill="#fdc345"/>
    <path id="Trazado_35892" data-name="Trazado 35892" d="M156.193,251.843c-7.252,0-14.593-1.645-14.593-4.789s7.341-4.789,14.593-4.789,14.593,1.645,14.593,4.789-7.341,4.789-14.593,4.789m0-8.118c-8.017,0-13.133,1.972-13.133,3.329s5.116,3.329,13.133,3.329,13.133-1.972,13.133-3.329-5.116-3.329-13.133-3.329" transform="translate(-113.477 -194.15)" fill="#3d4451"/>
    <path id="Trazado_35893" data-name="Trazado 35893" d="M173.424,216.207v6.231c0,2.425-6.207,4.392-13.863,4.392s-13.863-1.966-13.863-4.392v-6.231" transform="translate(-116.761 -173.267)" fill="#fdc345"/>
    <path id="Trazado_35894" data-name="Trazado 35894" d="M156.5,227.589a34.587,34.587,0,0,1-10.032-1.322c-3-.951-4.59-2.275-4.59-3.829v-6.231h1.519v6.231c0,1.517,4.985,3.633,13.1,3.633s13.1-2.116,13.1-3.633v-6.231h1.519v6.231c0,1.554-1.587,2.878-4.59,3.829a34.587,34.587,0,0,1-10.032,1.322" transform="translate(-113.697 -173.267)" fill="#3d4451"/>
    <path id="Trazado_35895" data-name="Trazado 35895" d="M145.7,199.993c0,2.242,6.207,4.059,13.863,4.059s13.863-1.817,13.863-4.059-6.207-4.059-13.863-4.059-13.863,1.817-13.863,4.059" transform="translate(-116.761 -157.02)" fill="#fdc345"/>
    <path id="Trazado_35896" data-name="Trazado 35896" d="M156.616,201.836c-7.252,0-14.593-1.645-14.593-4.789s7.341-4.789,14.593-4.789,14.593,1.645,14.593,4.789-7.341,4.789-14.593,4.789m0-8.118c-8.017,0-13.133,1.972-13.133,3.329s5.116,3.329,13.133,3.329,13.133-1.972,13.133-3.329-5.116-3.329-13.133-3.329" transform="translate(-113.816 -154.075)" fill="#3d4451"/>
    <path id="Trazado_35897" data-name="Trazado 35897" d="M165.654,40.747A12.667,12.667,0,1,1,178.321,53.46a12.69,12.69,0,0,1-12.667-12.713" transform="translate(-132.754 -22.466)" fill="#fdc345"/>
    <path id="Trazado_35898" data-name="Trazado 35898" d="M195.313,45.6v2.382h-1.6V45.668a8.951,8.951,0,0,1-4.149-1.01v-3.04a6.394,6.394,0,0,0,1.9.955,8.755,8.755,0,0,0,2.25.505v-4a8.484,8.484,0,0,1-3.507-2.069,4.075,4.075,0,0,1-.938-2.717,3.989,3.989,0,0,1,1.218-2.936,5.12,5.12,0,0,1,3.227-1.411V27.909h1.6v2a8.137,8.137,0,0,1,3.457.746v2.964a8.3,8.3,0,0,0-3.457-1.141v4.16a8.812,8.812,0,0,1,3.446,1.982A3.8,3.8,0,0,1,199.8,41.31a3.878,3.878,0,0,1-1.163,2.936,5.554,5.554,0,0,1-3.326,1.356m-1.6-9.6V32.519q-1.526.274-1.525,1.591,0,1.131,1.525,1.888m1.6,3.71v3.325q1.57-.24,1.569-1.569,0-1.076-1.569-1.756" transform="translate(-151.676 -22.366)" fill="#3d4451"/>
    <path id="Trazado_35899" data-name="Trazado 35899" d="M153.867,30.612a15.306,15.306,0,1,1,15.306-15.306,15.323,15.323,0,0,1-15.306,15.306m0-29.048a13.742,13.742,0,1,0,13.742,13.742A13.757,13.757,0,0,0,153.867,1.564" transform="translate(-111.042)" fill="#3d4451"/>
    <path id="Trazado_35900" data-name="Trazado 35900" d="M166.038,39.768a12.289,12.289,0,1,1,12.289-12.289,12.3,12.3,0,0,1-12.289,12.289m0-23.685a11.4,11.4,0,1,0,11.4,11.4,11.408,11.408,0,0,0-11.4-11.4" transform="translate(-123.213 -12.172)" fill="#3d4451"/>
    <path id="Trazado_35901" data-name="Trazado 35901" d="M173,166.3v6.231c0,2.425-6.207,4.392-13.863,4.392s-13.863-1.966-13.863-4.392V166.3" transform="translate(-116.422 -133.272)" fill="#fdc345"/>
    <path id="Trazado_35902" data-name="Trazado 35902" d="M156.075,177.682a34.588,34.588,0,0,1-10.032-1.322c-3-.951-4.59-2.275-4.59-3.829V166.3h1.519v6.231c0,1.517,4.985,3.633,13.1,3.633s13.1-2.116,13.1-3.633V166.3H170.7v6.231c0,1.554-1.587,2.878-4.59,3.829a34.582,34.582,0,0,1-10.032,1.322" transform="translate(-113.358 -133.271)" fill="#3d4451"/>
    <path id="Trazado_35903" data-name="Trazado 35903" d="M145.275,150.087c0,2.242,6.207,4.059,13.863,4.059S173,152.329,173,150.087s-6.207-4.059-13.863-4.059-13.863,1.817-13.863,4.059" transform="translate(-116.422 -117.026)" fill="#fdc345"/>
    <path id="Trazado_35904" data-name="Trazado 35904" d="M156.193,151.93c-7.252,0-14.593-1.645-14.593-4.789s7.341-4.789,14.593-4.789,14.593,1.645,14.593,4.789-7.341,4.789-14.593,4.789m0-8.118c-8.017,0-13.133,1.972-13.133,3.329s5.116,3.329,13.133,3.329,13.133-1.972,13.133-3.329-5.116-3.329-13.133-3.329" transform="translate(-113.477 -114.081)" fill="#3d4451"/>
    <path id="Trazado_35905" data-name="Trazado 35905" d="M176.366,121.37v6c0,2.335-5.974,4.227-13.343,4.227s-13.343-1.892-13.343-4.227v-6" transform="translate(-119.952 -97.265)" fill="#fdc345"/>
    <path id="Trazado_35906" data-name="Trazado 35906" d="M160.074,132.325a33.283,33.283,0,0,1-9.656-1.272c-2.89-.916-4.418-2.19-4.418-3.686v-6h1.462v6c0,1.46,4.8,3.5,12.612,3.5s12.612-2.036,12.612-3.5v-6h1.462v6c0,1.5-1.528,2.77-4.418,3.686a33.283,33.283,0,0,1-9.656,1.272" transform="translate(-117.003 -97.265)" fill="#3d4451"/>
    <path id="Trazado_35907" data-name="Trazado 35907" d="M149.68,105.765c0,2.157,5.974,3.907,13.343,3.907s13.343-1.749,13.343-3.907-5.974-3.907-13.343-3.907-13.343,1.749-13.343,3.907" transform="translate(-119.952 -81.628)" fill="#fdc345"/>
    <path id="Trazado_35908" data-name="Trazado 35908" d="M160.188,107.54c-6.98,0-14.046-1.583-14.046-4.609s7.066-4.609,14.046-4.609,14.046,1.583,14.046,4.609-7.066,4.609-14.046,4.609m0-7.813c-7.716,0-12.641,1.9-12.641,3.2s4.924,3.2,12.641,3.2,12.641-1.9,12.641-3.2-4.924-3.2-12.641-3.2" transform="translate(-117.117 -78.794)" fill="#3d4451"/>
    <path id="Trazado_35909" data-name="Trazado 35909" d="M53.773,277.181v6.569c0,2.557-6.544,4.63-14.616,4.63s-14.616-2.073-14.616-4.63v-6.569" transform="translate(-19.667 -222.131)" fill="#fdc345"/>
    <path id="Trazado_35910" data-name="Trazado 35910" d="M35.927,289.181a36.458,36.458,0,0,1-10.577-1.393c-3.166-1-4.839-2.4-4.839-4.037v-6.569h1.6v6.569c0,1.6,5.256,3.83,13.815,3.83s13.815-2.23,13.815-3.83v-6.569h1.6v6.569c0,1.638-1.673,3.034-4.839,4.037a36.458,36.458,0,0,1-10.577,1.393" transform="translate(-16.437 -222.131)" fill="#3d4451"/>
    <path id="Trazado_35911" data-name="Trazado 35911" d="M24.541,260.087c0,2.363,6.544,4.279,14.616,4.279s14.616-1.916,14.616-4.279-6.544-4.279-14.616-4.279-14.616,1.916-14.616,4.279" transform="translate(-19.667 -205.002)" fill="#fdc345"/>
    <path id="Trazado_35912" data-name="Trazado 35912" d="M36.051,262.031c-7.646,0-15.385-1.734-15.385-5.049s7.74-5.049,15.385-5.049,15.385,1.734,15.385,5.049-7.74,5.049-15.385,5.049m0-8.558c-8.452,0-13.846,2.079-13.846,3.51s5.394,3.51,13.846,3.51,13.846-2.079,13.846-3.51-5.394-3.51-13.846-3.51" transform="translate(-16.562 -201.897)" fill="#3d4451"/>
    <path id="Trazado_35913" data-name="Trazado 35913" d="M298.817,276.391v6.231c0,2.425-6.207,4.392-13.863,4.392s-13.863-1.966-13.863-4.392v-6.231" transform="translate(-217.25 -221.498)" fill="#fdc345"/>
    <path id="Trazado_35914" data-name="Trazado 35914" d="M281.892,287.772a34.587,34.587,0,0,1-10.032-1.322c-3-.951-4.59-2.275-4.59-3.829V276.39h1.519v6.231c0,1.517,4.985,3.633,13.1,3.633s13.1-2.116,13.1-3.633V276.39h1.519v6.231c0,1.554-1.587,2.878-4.59,3.829a34.586,34.586,0,0,1-10.032,1.322" transform="translate(-214.187 -221.497)" fill="#3d4451"/>
    <path id="Trazado_35915" data-name="Trazado 35915" d="M271.092,260.177c0,2.242,6.207,4.059,13.863,4.059s13.863-1.817,13.863-4.059-6.207-4.059-13.863-4.059-13.863,1.817-13.863,4.059" transform="translate(-217.251 -205.251)" fill="#fdc345"/>
    <path id="Trazado_35916" data-name="Trazado 35916" d="M282.01,262.02c-7.252,0-14.593-1.645-14.593-4.789s7.341-4.789,14.593-4.789,14.593,1.645,14.593,4.789-7.341,4.789-14.593,4.789m0-8.118c-8.017,0-13.133,1.972-13.133,3.329s5.116,3.329,13.133,3.329,13.133-1.972,13.133-3.329-5.116-3.329-13.133-3.329" transform="translate(-214.306 -202.306)" fill="#3d4451"/>
  </g>
</svg>
