<svg id="Grupo_12151" data-name="Grupo 12151" xmlns="http://www.w3.org/2000/svg" xmlns:xlink="http://www.w3.org/1999/xlink" width="314.109" height="325.736" viewBox="0 0 314.109 325.736">
  <defs>
    <clipPath id="clip-path">
      <rect id="Rectángulo_3249" data-name="Rectángulo 3249" width="314.109" height="325.736" fill="none"/>
    </clipPath>
  </defs>
  <path id="Trazado_33148" data-name="Trazado 33148" d="M43.545,283.35l121.1,42.385L285.764,283.35,164.647,240.96Z" fill="#afafaf"/>
  <path id="Trazado_33149" data-name="Trazado 33149" d="M164.646,256.939,89.211,283.35l75.436,26.4,75.445-26.4Z" fill="#afafaf"/>
  <path id="Trazado_33150" data-name="Trazado 33150" d="M164.646,309.752l-75.436-26.4V198.475l75.436,26.408Z" fill="#4cbed8"/>
  <path id="Trazado_33151" data-name="Trazado 33151" d="M164.646,309.752l75.445-26.4V198.475l-75.445,26.408Z" fill="#4cbed8"/>
  <path id="Trazado_33152" data-name="Trazado 33152" d="M187.943,253.34,161.588,224.1l79.023-27.663,26.354,29.248Zm-20.232-27.675,21.273,23.6,71.86-25.149L239.57,200.511Z" fill="#41464b"/>
  <path id="Trazado_33153" data-name="Trazado 33153" d="M141.363,253.34,62.339,225.685,88.69,196.438,167.707,224.1Zm-72.9-29.221,71.862,25.148,21.264-23.6L89.731,200.511Z" fill="#41464b"/>
  <path id="Trazado_33154" data-name="Trazado 33154" d="M181.672,151.685l75.441,26.4-17.021,20.39-75.445-26.4Z" fill="#fed65c"/>
  <path id="Trazado_33155" data-name="Trazado 33155" d="M147.634,151.684l-75.442,26.4,17.019,20.39,75.436-26.4Z" fill="#fed65c"/>
  <path id="Trazado_33156" data-name="Trazado 33156" d="M240.658,200.527l-1.145-.4-77.83-27.238,18.647-22.325,2.685,2.244-15.406,18.447,71.916,25.168,16.244-19.458,2.688,2.242Z" fill="#41464b"/>
  <path id="Trazado_33157" data-name="Trazado 33157" d="M88.645,200.527l-17.8-21.321,2.688-2.242,16.242,19.458,71.908-25.168L146.29,152.8l2.687-2.242,18.632,22.325Z" fill="#41464b"/>
  <path id="Trazado_33158" data-name="Trazado 33158" d="M164.646,311.606l-.578-.2L87.461,284.591V198.474h3.5v83.635L164.646,307.9l73.695-25.788V198.474h3.5v86.117Z" fill="#41464b"/>
  <rect id="Rectángulo_3182" data-name="Rectángulo 3182" width="3.5" height="84.869" transform="translate(162.896 224.883)" fill="#41464b"/>
  <rect id="Rectángulo_3183" data-name="Rectángulo 3183" width="3.5" height="43.755" transform="translate(162.896 172.071)" fill="#41464b"/>
  <rect id="Rectángulo_3184" data-name="Rectángulo 3184" width="24.304" height="3.499" transform="translate(173.021 298.174) rotate(-19.289)" fill="#41464b"/>
  <rect id="Rectángulo_3185" data-name="Rectángulo 3185" width="12.148" height="3.501" transform="translate(173.022 291.382) rotate(-19.279)" fill="#41464b"/>
  <path id="Trazado_33159" data-name="Trazado 33159" d="M120.284,289.121,96.406,280.69V267.172l23.878,8.433ZM99.906,278.213l16.878,5.961v-6.093l-16.878-5.962Z" fill="#41464b"/>
  <rect id="Rectángulo_3186" data-name="Rectángulo 3186" width="3.5" height="10.812" transform="matrix(0.333, -0.943, 0.943, 0.333, 97.573, 264.504)" fill="#41464b"/>
  <g id="Grupo_12150" data-name="Grupo 12150">
    <g id="Grupo_12149" data-name="Grupo 12149" clip-path="url(#clip-path)">
      <path id="Trazado_33160" data-name="Trazado 33160" d="M183.256,128.473h-3.5v-3.686A35.418,35.418,0,0,1,191.3,98.674c.451-.388.855-.741,1.254-1.092a41.37,41.37,0,1,0-55.786.021l.169.143c.353.305.709.61,1.051.915a35.434,35.434,0,0,1,11.567,26.126v3.686h-3.5v-3.686a31.916,31.916,0,0,0-10.411-23.527c-.314-.279-.652-.569-.989-.859l-.209-.18a44.871,44.871,0,1,1,60.446-.034c-.434.383-.85.745-1.276,1.108a31.894,31.894,0,0,0-10.357,23.492Z" fill="#41464b"/>
      <rect id="Rectángulo_3187" data-name="Rectángulo 3187" width="33.704" height="13.494" transform="translate(147.802 128.473)" fill="#afafaf"/>
      <rect id="Rectángulo_3188" data-name="Rectángulo 3188" width="42.09" height="3.5" transform="translate(143.599 126.723)" fill="#41464b"/>
      <rect id="Rectángulo_3189" data-name="Rectángulo 3189" width="42.09" height="3.5" transform="translate(143.599 133.475)" fill="#41464b"/>
      <rect id="Rectángulo_3190" data-name="Rectángulo 3190" width="42.09" height="3.5" transform="translate(143.599 140.217)" fill="#41464b"/>
      <rect id="Rectángulo_3191" data-name="Rectángulo 3191" width="14.943" height="3.5" transform="translate(157.18 146.966)" fill="#41464b"/>
      <rect id="Rectángulo_3192" data-name="Rectángulo 3192" width="3.5" height="20.255" transform="translate(168.682 108.218)" fill="#41464b"/>
      <rect id="Rectángulo_3193" data-name="Rectángulo 3193" width="3.5" height="20.255" transform="translate(157.109 108.218)" fill="#41464b"/>
      <path id="Trazado_33161" data-name="Trazado 33161" d="M180.467,91.955a6.45,6.45,0,0,0,2.564.5,6.731,6.731,0,0,0,6.735-6.72,5.5,5.5,0,0,0-.19-1.49,6.745,6.745,0,0,0,4.9-11.076,6.734,6.734,0,0,0,0-12.246,6.736,6.736,0,0,0-4.9-11.069,5.625,5.625,0,0,0,.19-1.489,6.747,6.747,0,0,0-6.735-6.753,6.6,6.6,0,0,0-2.564.519,6.8,6.8,0,0,0-6.65-5.449,6.732,6.732,0,0,0-6.727,6.742V90.669a6.735,6.735,0,0,0,6.727,6.741,6.815,6.815,0,0,0,6.65-5.455" fill="#ff7443"/>
      <path id="Trazado_33162" data-name="Trazado 33162" d="M148.865,91.955a6.664,6.664,0,0,1-2.567.5,6.732,6.732,0,0,1-6.757-6.72,7.376,7.376,0,0,1,.162-1.49,6.849,6.849,0,0,1-4.5-1.981,6.725,6.725,0,0,1-.373-9.1,6.738,6.738,0,0,1,0-12.246A6.728,6.728,0,0,1,139.7,49.854a7.57,7.57,0,0,1-.162-1.489,6.748,6.748,0,0,1,6.757-6.753,6.832,6.832,0,0,1,2.567.519,6.74,6.74,0,0,1,13.355,1.293V90.669a6.739,6.739,0,0,1-13.355,1.286" fill="#ff7443"/>
      <path id="Trazado_33163" data-name="Trazado 33163" d="M155.469,99.162a8.493,8.493,0,0,1,0-16.985v3.5a4.993,4.993,0,1,0,5,4.994V43.424a4.991,4.991,0,1,0-5,4.989v3.5a8.492,8.492,0,1,1,8.5-8.489V90.671a8.5,8.5,0,0,1-8.5,8.491" fill="#41464b"/>
      <path id="Trazado_33164" data-name="Trazado 33164" d="M152.1,65.444a8.506,8.506,0,0,1-8.492-8.5h3.5a5,5,0,0,0,4.992,5Z" fill="#41464b"/>
      <path id="Trazado_33165" data-name="Trazado 33165" d="M147.113,77.125h-3.5a8.491,8.491,0,0,1,8.491-8.471v3.5a4.987,4.987,0,0,0-4.991,4.971" fill="#41464b"/>
      <path id="Trazado_33166" data-name="Trazado 33166" d="M163.965,80.529h-3.5a5,5,0,0,0-4.988-4.993v-3.5a8.5,8.5,0,0,1,8.488,8.493" fill="#41464b"/>
      <path id="Trazado_33167" data-name="Trazado 33167" d="M155.469,62.037v-3.5a4.994,4.994,0,0,0,5-4.98h3.5a8.5,8.5,0,0,1-8.5,8.48" fill="#41464b"/>
      <path id="Trazado_33168" data-name="Trazado 33168" d="M137.987,50.2a9.212,9.212,0,0,1-.2-1.832,8.515,8.515,0,0,1,8.509-8.5,8.406,8.406,0,0,1,3.237.654l-1.344,3.233a4.9,4.9,0,0,0-1.893-.387,5.011,5.011,0,0,0-5.009,5,5.756,5.756,0,0,0,.132,1.139Z" fill="#41464b"/>
      <path id="Trazado_33169" data-name="Trazado 33169" d="M133.965,62.6a8.5,8.5,0,0,1,6.018-14.507,8.438,8.438,0,0,1,6.01,2.495l-2.478,2.473a4.991,4.991,0,0,0-7.073,0,5.027,5.027,0,0,0,0,7.068Z" fill="#41464b"/>
      <path id="Trazado_33170" data-name="Trazado 33170" d="M137.644,75.536a8.5,8.5,0,0,1,0-17v3.5a5,5,0,0,0,0,10Z" fill="#41464b"/>
      <path id="Trazado_33171" data-name="Trazado 33171" d="M139.982,85.985a8.5,8.5,0,0,1-6.021-14.5l2.487,2.465a5,5,0,1,0,7.067,7.075l2.477,2.473a8.47,8.47,0,0,1-6.01,2.487" fill="#41464b"/>
      <path id="Trazado_33172" data-name="Trazado 33172" d="M146.3,94.213a8.5,8.5,0,0,1-8.509-8.479,9.424,9.424,0,0,1,.2-1.85l3.434.682a5.928,5.928,0,0,0-.133,1.168,5.006,5.006,0,0,0,6.909,4.6l1.33,3.239a8.488,8.488,0,0,1-3.23.637" fill="#41464b"/>
      <path id="Trazado_33173" data-name="Trazado 33173" d="M173.807,99.162a8.488,8.488,0,0,1-8.467-8.491V43.424a8.48,8.48,0,1,1,8.467,8.489v-3.5a4.993,4.993,0,1,0-4.967-4.989V90.671a4.98,4.98,0,1,0,4.967-4.994v-3.5a8.493,8.493,0,0,1,0,16.985" fill="#41464b"/>
      <path id="Trazado_33174" data-name="Trazado 33174" d="M177.2,65.444v-3.5a5,5,0,0,0,4.982-5h3.5a8.5,8.5,0,0,1-8.482,8.5" fill="#41464b"/>
      <path id="Trazado_33175" data-name="Trazado 33175" d="M185.678,77.125h-3.5a4.983,4.983,0,0,0-4.982-4.971v-3.5a8.487,8.487,0,0,1,8.482,8.471" fill="#41464b"/>
      <path id="Trazado_33176" data-name="Trazado 33176" d="M168.84,80.529h-3.5a8.488,8.488,0,0,1,8.467-8.493v3.5a4.986,4.986,0,0,0-4.967,4.993" fill="#41464b"/>
      <path id="Trazado_33177" data-name="Trazado 33177" d="M173.807,62.037a8.483,8.483,0,0,1-8.467-8.48h3.5a4.98,4.98,0,0,0,4.967,4.98Z" fill="#41464b"/>
      <path id="Trazado_33178" data-name="Trazado 33178" d="M191.252,50.323l-3.369-.945a3.747,3.747,0,0,0,.133-1.013,5,5,0,0,0-4.981-5,4.779,4.779,0,0,0-1.887.379l-1.378-3.217a8.242,8.242,0,0,1,3.265-.662,8.5,8.5,0,0,1,8.481,8.5,7.176,7.176,0,0,1-.264,1.958" fill="#41464b"/>
      <path id="Trazado_33179" data-name="Trazado 33179" d="M195.316,62.6l-2.479-2.471a5.019,5.019,0,0,0,0-7.071,4.965,4.965,0,0,0-3.527-1.466H189.3a4.927,4.927,0,0,0-3.507,1.465l-2.483-2.467a8.4,8.4,0,0,1,5.984-2.5h.014a8.44,8.44,0,0,1,6,2.494,8.525,8.525,0,0,1,0,12.014" fill="#41464b"/>
      <path id="Trazado_33180" data-name="Trazado 33180" d="M191.658,75.536v-3.5a5,5,0,0,0,0-10v-3.5a8.5,8.5,0,0,1,0,17" fill="#41464b"/>
      <path id="Trazado_33181" data-name="Trazado 33181" d="M189.311,85.991H189.3a8.4,8.4,0,0,1-5.982-2.495l2.48-2.469a4.923,4.923,0,0,0,3.508,1.464h.008a4.97,4.97,0,0,0,3.531-1.468,5.021,5.021,0,0,0-.006-7.072l2.483-2.467a8.5,8.5,0,0,1-6.008,14.507" fill="#41464b"/>
      <path id="Trazado_33182" data-name="Trazado 33182" d="M183.035,94.213a8.29,8.29,0,0,1-3.258-.646l1.365-3.222a4.83,4.83,0,0,0,1.893.368,4.985,4.985,0,0,0,4.98-4.979,3.9,3.9,0,0,0-.134-1.044l3.375-.93a7.462,7.462,0,0,1,.259,1.974,8.489,8.489,0,0,1-8.48,8.479" fill="#41464b"/>
      <path id="Trazado_33183" data-name="Trazado 33183" d="M125.4,102.029c-.8-.9-1.573-1.83-2.3-2.773l2.768-2.143c.682.881,1.405,1.752,2.151,2.59ZM204,101.918l-2.621-2.32c.742-.836,1.463-1.709,2.142-2.594l2.774,2.135c-.729.948-1.5,1.882-2.295,2.779M120.991,96.33c-.665-.993-1.306-2.024-1.9-3.063l3.033-1.744c.559.97,1.156,1.932,1.777,2.86Zm87.4-.12-2.914-1.94c.618-.926,1.211-1.89,1.768-2.864l3.039,1.736c-.6,1.042-1.232,2.075-1.893,3.068m-91-6.125c-.525-1.078-1.019-2.187-1.468-3.294l3.244-1.315c.418,1.034.88,2.068,1.371,3.074Zm94.569-.132-3.151-1.525c.489-1.005.946-2.04,1.364-3.079l3.248,1.307c-.448,1.111-.94,2.221-1.461,3.3m-97.279-6.547c-.375-1.142-.713-2.308-1.006-3.462l3.392-.861c.274,1.077.59,2.164.941,3.231Zm99.97-.139-3.328-1.082c.344-1.059.658-2.147.93-3.234l3.394.852c-.291,1.164-.627,2.33-1,3.464M112.915,76.423c-.214-1.172-.39-2.372-.524-3.566l3.478-.39c.125,1.114.29,2.234.489,3.329Zm103.5-.146-3.445-.619c.2-1.1.359-2.221.48-3.331l3.479.379c-.129,1.19-.3,2.392-.514,3.571m-104.3-7.015c-.031-.738-.048-1.477-.047-2.218q0-.694.019-1.389l3.5.092q-.017.648-.017,1.3,0,1.038.043,2.067Zm105.08-.152-3.5-.138q.039-.961.039-1.926c0-.482-.008-.962-.021-1.44l3.5-.1q.022.768.023,1.543,0,1.034-.041,2.064M115.785,62.39l-3.484-.331c.113-1.194.268-2.4.463-3.575l3.453.569c-.181,1.1-.326,2.221-.432,3.337m97.717-.142c-.11-1.121-.258-2.243-.442-3.336l3.452-.578c.2,1.171.355,2.373.472,3.572Zm-96.625-6.494-3.406-.805c.275-1.164.594-2.334.95-3.477l3.342,1.037c-.331,1.068-.629,2.16-.886,3.245m95.515-.138c-.263-1.093-.564-2.184-.9-3.242l3.34-1.049c.357,1.134.68,2.3.961,3.475Zm-93.518-6.288-3.264-1.266c.432-1.111.91-2.227,1.422-3.317l3.168,1.488c-.478,1.018-.925,2.059-1.326,3.095m91.5-.131c-.4-1.027-.85-2.064-1.332-3.082l3.164-1.5c.518,1.092,1,2.2,1.428,3.309Zm-88.637-5.961-3.058-1.7c.583-1.048,1.21-2.087,1.862-3.089l2.933,1.91c-.609.935-1.193,1.9-1.737,2.882m85.764-.109c-.543-.968-1.129-1.936-1.742-2.874l2.929-1.916c.657,1.006,1.286,2.043,1.868,3.081ZM125.408,37.6l-2.8-2.1c.721-.959,1.483-1.9,2.264-2.806l2.646,2.291c-.729.843-1.44,1.724-2.113,2.619m78.414-.094c-.67-.886-1.381-1.765-2.119-2.612l2.641-2.3c.791.908,1.554,1.85,2.271,2.8Zm-74.012-5-2.486-2.463c.837-.845,1.719-1.677,2.621-2.472l2.315,2.625c-.844.744-1.668,1.521-2.45,2.31m69.6-.08c-.8-.8-1.623-1.575-2.457-2.3l2.307-2.633c.892.781,1.775,1.611,2.629,2.464Zm-64.553-4.366-2.129-2.777c.95-.727,1.936-1.432,2.932-2.093L137.6,26.1c-.931.618-1.852,1.275-2.739,1.954m59.491-.069c-.893-.681-1.817-1.337-2.745-1.949l1.926-2.922c1,.656,1.985,1.359,2.942,2.088Zm-53.887-3.646L138.73,21.3c1.049-.6,2.123-1.161,3.193-1.674l1.513,3.156c-1,.478-2,1-2.973,1.559m48.269-.062c-.976-.553-1.98-1.076-2.986-1.557l1.51-3.158c1.078.516,2.154,1.077,3.2,1.668Zm-42.216-2.853-1.3-3.25c1.112-.445,2.254-.856,3.393-1.221l1.069,3.334c-1.063.34-2.126.723-3.163,1.137m36.142-.05c-1.047-.414-2.113-.8-3.172-1.131l1.061-3.336c1.135.36,2.277.769,3.4,1.213Zm-29.742-2.006-.836-3.4c1.161-.286,2.349-.535,3.528-.741l.6,3.448c-1.1.192-2.209.425-3.294.692m23.33-.034c-1.088-.265-2.2-.494-3.295-.683l.592-3.449c1.176.2,2.365.447,3.531.731Zm-16.707-1.121-.361-3.481c1.185-.123,2.394-.208,3.593-.251l.125,3.5c-1.119.04-2.25.119-3.357.234m10.082-.015c-1.113-.112-2.244-.188-3.357-.225l.113-3.5c1.193.039,2.4.12,3.6.241Z" fill="#41464b"/>
      <path id="Trazado_33184" data-name="Trazado 33184" d="M94.6,64.085H91.1V61.369a10.74,10.74,0,0,1,5.087-9.16l.158-.088a2.974,2.974,0,0,0,.323-.187,7.288,7.288,0,1,0-11.1-6.218h-3.5a10.791,10.791,0,1,1,16.493,9.159,6.228,6.228,0,0,1-.589.344,7.259,7.259,0,0,0-3.375,6.15Z" fill="#41464b"/>
      <rect id="Rectángulo_3194" data-name="Rectángulo 3194" width="3.5" height="3.163" transform="translate(91.102 67.247)" fill="#41464b"/>
      <path id="Trazado_33185" data-name="Trazado 33185" d="M224.584,115.157h-3.5v-1.714a7.461,7.461,0,0,1,3.535-6.361c.137-.082.264-.154.389-.221a4,4,0,1,0-6.162-3.362h-3.5a7.492,7.492,0,1,1,11.47,6.36l-.144.082c-.082.041-.162.087-.233.129a3.97,3.97,0,0,0-1.855,3.373Z" fill="#41464b"/>
      <rect id="Rectángulo_3195" data-name="Rectángulo 3195" width="3.5" height="3.344" transform="translate(221.084 118.514)" fill="#41464b"/>
      <path id="Trazado_33186" data-name="Trazado 33186" d="M73.574,83.16h-3.5v-1.3a6.1,6.1,0,0,1,2.867-5.192l.313-.171a2.619,2.619,0,1,0-4.049-2.2h-3.5a6.116,6.116,0,1,1,9.366,5.193l-.312.171a2.617,2.617,0,0,0-1.185,2.2Z" fill="#41464b"/>
      <rect id="Rectángulo_3196" data-name="Rectángulo 3196" width="3.5" height="2.545" transform="translate(70.074 85.714)" fill="#41464b"/>
      <path id="Trazado_33187" data-name="Trazado 33187" d="M81.676,131.028a7.849,7.849,0,1,1-7.841-7.845,7.844,7.844,0,0,1,7.841,7.845" fill="#afafaf"/>
      <path id="Trazado_33188" data-name="Trazado 33188" d="M73.835,148.259a17.235,17.235,0,1,1,17.229-17.231,17.258,17.258,0,0,1-17.229,17.231m0-30.97a13.735,13.735,0,1,0,13.729,13.739,13.757,13.757,0,0,0-13.729-13.739" fill="#41464b"/>
      <rect id="Rectángulo_3197" data-name="Rectángulo 3197" width="3.5" height="6.209" transform="translate(72.085 109.33)" fill="#41464b"/>
      <rect id="Rectángulo_3198" data-name="Rectángulo 3198" width="3.5" height="6.206" transform="translate(61.47 113.118) rotate(-29.99)" fill="#41464b"/>
      <rect id="Rectángulo_3199" data-name="Rectángulo 3199" width="3.501" height="6.211" transform="matrix(0.499, -0.866, 0.866, 0.499, 54.169, 121.697)" fill="#41464b"/>
      <rect id="Rectángulo_3200" data-name="Rectángulo 3200" width="6.203" height="3.5" transform="translate(52.137 129.278)" fill="#41464b"/>
      <rect id="Rectángulo_3201" data-name="Rectángulo 3201" width="6.214" height="3.5" transform="matrix(0.866, -0.5, 0.5, 0.866, 54.168, 140.362)" fill="#41464b"/>
      <rect id="Rectángulo_3202" data-name="Rectángulo 3202" width="6.205" height="3.5" transform="translate(61.47 148.938) rotate(-59.999)" fill="#41464b"/>
      <rect id="Rectángulo_3203" data-name="Rectángulo 3203" width="3.5" height="6.217" transform="translate(72.085 146.508)" fill="#41464b"/>
      <rect id="Rectángulo_3204" data-name="Rectángulo 3204" width="3.5" height="6.214" transform="translate(80.045 145.318) rotate(-30.138)" fill="#41464b"/>
      <rect id="Rectángulo_3205" data-name="Rectángulo 3205" width="3.5" height="6.215" transform="translate(86.369 140.286) rotate(-60.023)" fill="#41464b"/>
      <rect id="Rectángulo_3206" data-name="Rectángulo 3206" width="6.214" height="3.5" transform="translate(89.314 129.278)" fill="#41464b"/>
      <rect id="Rectángulo_3207" data-name="Rectángulo 3207" width="6.214" height="3.499" transform="translate(86.37 121.767) rotate(-29.972)" fill="#41464b"/>
      <rect id="Rectángulo_3208" data-name="Rectángulo 3208" width="6.215" height="3.5" transform="translate(80.045 116.738) rotate(-59.853)" fill="#41464b"/>
      <path id="Trazado_33189" data-name="Trazado 33189" d="M266.83,63.754a19.284,19.284,0,1,1-19.273-19.277A19.288,19.288,0,0,1,266.83,63.754" fill="#fed65c"/>
      <rect id="Rectángulo_3209" data-name="Rectángulo 3209" width="3.5" height="13.605" transform="translate(245.803 54.389)" fill="#41464b"/>
      <rect id="Rectángulo_3210" data-name="Rectángulo 3210" width="3.5" height="3.467" transform="translate(245.803 70.565)" fill="#41464b"/>
      <path id="Trazado_33190" data-name="Trazado 33190" d="M182.918,206.393h-3.5c0-1.151.035-2.321.1-3.475l3.494.206c-.064,1.086-.1,2.186-.1,3.269m.382-6.534-3.476-.4c.129-1.127.295-2.282.494-3.435l3.449.592c-.187,1.089-.344,2.181-.467,3.245m1.112-6.459L181,192.621c.254-1.115.543-2.244.859-3.357l3.367.956c-.3,1.054-.574,2.125-.814,3.18m1.795-6.314-3.313-1.131c.373-1.091.777-2.185,1.2-3.249l3.25,1.3c-.4,1.009-.787,2.046-1.14,3.081m2.435-6.1-3.18-1.463c.483-1.046,1-2.092,1.53-3.109l3.1,1.625c-.505.963-.992,1.955-1.449,2.947m3.047-5.818-3.014-1.779c.588-1,1.207-1.984,1.842-2.939l2.916,1.938c-.6.9-1.187,1.838-1.744,2.78m3.631-5.47-2.811-2.086c.688-.927,1.409-1.846,2.143-2.729l2.693,2.236c-.693.835-1.375,1.7-2.025,2.579m4.185-5.043-2.566-2.381c.793-.854,1.613-1.688,2.434-2.478l2.425,2.523c-.773.744-1.544,1.529-2.293,2.336m53.456-.807a13.814,13.814,0,0,1-1.711-.11l.437-3.473a8.75,8.75,0,0,0,2.795-.06l.691,3.432a11.3,11.3,0,0,1-2.212.211m-5.336-.98a26.119,26.119,0,0,1-3.323-1.426l1.588-3.119a22.775,22.775,0,0,0,2.875,1.236Zm11.345-.977-2.209-2.714a4.228,4.228,0,0,0,1.348-1.943l3.312,1.129a7.752,7.752,0,0,1-2.451,3.528m-54.748-1.774-2.275-2.658q.9-.775,1.84-1.51c.287-.227.58-.453.875-.675l2.1,2.795c-.273.208-.547.418-.816.631-.588.461-1.162.934-1.729,1.417m36.948-.652a19.082,19.082,0,0,1-2.686-2.559l2.646-2.289a15.6,15.6,0,0,0,2.194,2.088Zm-31.731-3.291-1.941-2.912c.955-.637,1.947-1.257,2.947-1.844l1.769,3.019c-.941.553-1.877,1.137-2.775,1.737m48.846-1.415a6.289,6.289,0,0,0-.981-2.435l2.92-1.932a9.772,9.772,0,0,1,1.512,3.785Zm-21.944-.86a22.3,22.3,0,0,1-1.572-3.3l3.272-1.243a18.725,18.725,0,0,0,1.322,2.782Zm-21.255-1.039-1.594-3.115c1.025-.525,2.082-1.028,3.137-1.5l1.417,3.2c-1,.44-1.992.915-2.96,1.41m40.312-2.515a10,10,0,0,0-2.078-1.168l-.5-.2,1.3-3.25.546.225a13.48,13.48,0,0,1,2.809,1.583Zm-34.318-.138-1.235-3.276c1.08-.407,2.186-.789,3.287-1.133l1.047,3.34c-1.039.325-2.08.684-3.1,1.069m6.25-1.957-.854-3.4c1.121-.281,2.266-.533,3.4-.747l.648,3.44c-1.066.2-2.141.437-3.195.7m22.478-.288c-1-.279-2.056-.516-3.129-.705l.61-3.448c1.181.21,2.343.472,3.453.78Zm-16.064-.854a26.306,26.306,0,0,1-.512-3.575l1.135-.085c.808-.084,1.621-.15,2.424-.2l.088,1.489c.076.553.171,1.1.287,1.633l-.19.041.02.331c-.854.05-1.719.124-2.58.22Zm9.74-.275c-1.057-.095-2.147-.15-3.238-.163l.045-3.5c1.179.015,2.359.075,3.5.177Zm-6.789-6.7-3.494-.2a28.161,28.161,0,0,1,.429-3.57l3.442.639a24.664,24.664,0,0,0-.377,3.127m1.141-6.187-3.334-1.064a28.259,28.259,0,0,1,1.308-3.35l3.172,1.481a24.8,24.8,0,0,0-1.146,2.933m2.666-5.686-2.954-1.879c.62-.973,1.3-1.946,2.036-2.89l2.767,2.143c-.666.859-1.289,1.743-1.849,2.626m3.931-5.093-2.58-2.365c.77-.841,1.6-1.68,2.463-2.492l2.4,2.548c-.8.754-1.568,1.531-2.281,2.309m4.731-4.455L246.945,116c.875-.718,1.8-1.433,2.76-2.125l2.052,2.836c-.9.65-1.773,1.322-2.593,2m5.3-3.837-1.884-2.949c.968-.619,1.968-1.222,2.97-1.789l1.725,3.045c-.947.537-1.893,1.107-2.811,1.693m5.713-3.24-1.568-3.129c1.035-.519,2.092-1.014,3.139-1.473l1.4,3.205c-.992.436-1.994.9-2.975,1.4m6.016-2.638-1.234-3.275c1.1-.415,2.207-.8,3.285-1.134l1.045,3.34c-1.016.317-2.057.676-3.1,1.069" fill="#41464b"/>
      <path id="Trazado_33191" data-name="Trazado 33191" d="M263.91,90.569l45.422,4.874L272.1,121.9l2.938-17.494Z" fill="#ff7443"/>
      <path id="Trazado_33192" data-name="Trazado 33192" d="M273.113,123.324l-2.027-2.854,33.468-23.78-40.83-4.381.373-3.48L314.109,94.2Z" fill="#41464b"/>
      <rect id="Rectángulo_3211" data-name="Rectángulo 3211" width="13.175" height="3.501" transform="matrix(0.967, -0.253, 0.253, 0.967, 273.158, 103.086)" fill="#41464b"/>
      <rect id="Rectángulo_3212" data-name="Rectángulo 3212" width="3.5" height="31.643" transform="translate(100.564 108.339) rotate(-30.013)" fill="#41464b"/>
      <rect id="Rectángulo_3213" data-name="Rectángulo 3213" width="3.499" height="12.157" transform="translate(41.499 45.489) rotate(-35.373)" fill="#41464b"/>
      <rect id="Rectángulo_3214" data-name="Rectángulo 3214" width="3.5" height="47.734" transform="translate(11.839 40.844) rotate(-41.574)" fill="#41464b"/>
      <rect id="Rectángulo_3215" data-name="Rectángulo 3215" width="3.501" height="3.302" transform="translate(35.725 89.557) rotate(-45.209)" fill="#41464b"/>
      <rect id="Rectángulo_3216" data-name="Rectángulo 3216" width="11.548" height="3.501" transform="translate(205.777 141.091) rotate(-59.971)" fill="#41464b"/>
      <rect id="Rectángulo_3217" data-name="Rectángulo 3217" width="3.5" height="17.856" transform="translate(130.053 198.486) rotate(-60.775)" fill="#41464b"/>
      <rect id="Rectángulo_3218" data-name="Rectángulo 3218" width="38.307" height="3.501" transform="matrix(0.579, -0.815, 0.815, 0.579, 280.821, 49.267)" fill="#41464b"/>
      <rect id="Rectángulo_3219" data-name="Rectángulo 3219" width="4.383" height="3.5" transform="matrix(0.654, -0.757, 0.757, 0.654, 291.652, 65.469)" fill="#41464b"/>
      <rect id="Rectángulo_3220" data-name="Rectángulo 3220" width="20.764" height="3.501" transform="matrix(0.773, -0.635, 0.635, 0.773, 214.826, 172.381)" fill="#41464b"/>
      <rect id="Rectángulo_3221" data-name="Rectángulo 3221" width="35.414" height="3.501" transform="translate(271.638 154.008) rotate(-29.223)" fill="#41464b"/>
      <rect id="Rectángulo_3222" data-name="Rectángulo 3222" width="3.5" height="6.909" transform="translate(121.401 116.227) rotate(-23.129)" fill="#41464b"/>
      <rect id="Rectángulo_3223" data-name="Rectángulo 3223" width="45.523" height="3.5" transform="matrix(0.385, -0.923, 0.923, 0.385, 190.356, 149.57)" fill="#41464b"/>
      <rect id="Rectángulo_3224" data-name="Rectángulo 3224" width="9.014" height="3.5" transform="translate(239.523 31.565) rotate(-67.378)" fill="#41464b"/>
      <rect id="Rectángulo_3225" data-name="Rectángulo 3225" width="3.499" height="15.009" transform="translate(120.027 156.047) rotate(-35.372)" fill="#41464b"/>
      <rect id="Rectángulo_3226" data-name="Rectángulo 3226" width="3.5" height="7.137" transform="translate(63.228 98.779) rotate(-41.507)" fill="#41464b"/>
      <rect id="Rectángulo_3227" data-name="Rectángulo 3227" width="3.501" height="4.175" transform="matrix(0.633, -0.774, 0.774, 0.633, 117.112, 179.084)" fill="#41464b"/>
      <rect id="Rectángulo_3228" data-name="Rectángulo 3228" width="3.499" height="4.594" transform="translate(5.193 33.342) rotate(-41.488)" fill="#41464b"/>
      <rect id="Rectángulo_3229" data-name="Rectángulo 3229" width="3.501" height="6.97" transform="translate(86.414 174.216) rotate(-61.696)" fill="#41464b"/>
      <rect id="Rectángulo_3230" data-name="Rectángulo 3230" width="3.5" height="30.198" transform="translate(55.922 157.057) rotate(-60.577)" fill="#41464b"/>
      <rect id="Rectángulo_3231" data-name="Rectángulo 3231" width="4.914" height="3.501" transform="translate(306.199 134.68) rotate(-29.223)" fill="#41464b"/>
      <rect id="Rectángulo_3232" data-name="Rectángulo 3232" width="3.953" height="3.5" transform="matrix(0.579, -0.815, 0.815, 0.579, 249.271, 93.689)" fill="#41464b"/>
      <rect id="Rectángulo_3233" data-name="Rectángulo 3233" width="21.323" height="3.5" transform="matrix(0.579, -0.815, 0.815, 0.579, 234.461, 114.529)" fill="#41464b"/>
      <rect id="Rectángulo_3234" data-name="Rectángulo 3234" width="3.5" height="9.009" transform="translate(4.617 128.129) rotate(-60.575)" fill="#41464b"/>
      <rect id="Rectángulo_3235" data-name="Rectángulo 3235" width="6.137" height="3.501" transform="translate(171.427 194.992) rotate(-67.317)" fill="#41464b"/>
      <rect id="Rectángulo_3236" data-name="Rectángulo 3236" width="13.478" height="3.501" transform="translate(189.753 199.79) rotate(-29.223)" fill="#41464b"/>
      <path id="Trazado_33193" data-name="Trazado 33193" d="M13.331,94.2l0-3.5a9.87,9.87,0,0,0,3.036-.478l1.08,3.33a13.361,13.361,0,0,1-4.114.648M9.218,93.56A13.291,13.291,0,0,1,5.5,91.672l2.055-2.834a9.79,9.79,0,0,0,2.736,1.392Zm11.941-1.9L19.1,88.832a9.866,9.866,0,0,0,2.174-2.172l2.83,2.061a13.36,13.36,0,0,1-2.945,2.941M2.554,88.734a13.222,13.222,0,0,1-1.9-3.709l3.326-1.086a9.816,9.816,0,0,0,1.4,2.73ZM26,85.011,22.67,83.927a9.771,9.771,0,0,0,.478-3.032l3.5-.046v.046A13.277,13.277,0,0,1,26,85.011m-26-4.1v-.014a13.318,13.318,0,0,1,.644-4.1l3.33,1.076A9.844,9.844,0,0,0,3.5,80.895Zm22.659-3.085A9.805,9.805,0,0,0,21.253,75.1l2.823-2.068a13.263,13.263,0,0,1,1.907,3.705ZM5.367,75.135,2.533,73.08a13.347,13.347,0,0,1,2.939-2.949l2.063,2.828a9.815,9.815,0,0,0-2.168,2.176m13.705-2.207a9.808,9.808,0,0,0-2.739-1.388l1.073-3.332a13.271,13.271,0,0,1,3.716,1.884Zm-8.806-1.373L9.178,68.229a13.341,13.341,0,0,1,4.11-.659l.012,3.5a9.858,9.858,0,0,0-3.034.485" fill="#41464b"/>
      <path id="Trazado_33194" data-name="Trazado 33194" d="M31.453,178.088l-.014-3.5a4.993,4.993,0,0,0,2.491-.673l1.762,3.023a8.481,8.481,0,0,1-4.239,1.15M27.2,176.964a8.531,8.531,0,0,1-3.116-3.089l3.022-1.768a5.02,5.02,0,0,0,1.836,1.822Zm11.583-3.135-3.032-1.748a5.005,5.005,0,0,0,.665-2.5l3.5-.08v.08a8.5,8.5,0,0,1-1.133,4.244m-15.858-4.2v-.042a8.5,8.5,0,0,1,1.11-4.2l3.041,1.733a4.987,4.987,0,0,0-.651,2.467Zm12.795-2.587a5.036,5.036,0,0,0-1.846-1.812l1.725-3.045a8.541,8.541,0,0,1,3.133,3.073ZM28.9,165.273l-1.779-3.014a8.494,8.494,0,0,1,4.232-1.174l.033,3.5a4.987,4.987,0,0,0-2.486.688" fill="#41464b"/>
      <path id="Trazado_33195" data-name="Trazado 33195" d="M271.985,36.579l-.014-3.5a5,5,0,0,0,2.494-.673l1.76,3.025a8.509,8.509,0,0,1-4.24,1.148m-4.25-1.125a8.544,8.544,0,0,1-3.118-3.089l3.02-1.77a5.044,5.044,0,0,0,1.84,1.824Zm11.587-3.132-3.031-1.75a4.993,4.993,0,0,0,.666-2.5l2.832-.064.668.009a8.545,8.545,0,0,1-1.135,4.3m-15.867-4.2v-.042a8.5,8.5,0,0,1,1.112-4.2l3.041,1.735a4.97,4.97,0,0,0-.653,2.467Zm12.807-2.587a5.046,5.046,0,0,0-1.85-1.812l1.723-3.047a8.554,8.554,0,0,1,3.137,3.071Zm-6.836-1.767-1.779-3.014a8.461,8.461,0,0,1,4.234-1.174l.031,3.5a4.98,4.98,0,0,0-2.486.688" fill="#41464b"/>
      <rect id="Rectángulo_3237" data-name="Rectángulo 3237" width="3.5" height="3.919" transform="translate(195.358 8.377) rotate(-45)" fill="#41464b"/>
      <rect id="Rectángulo_3238" data-name="Rectángulo 3238" width="3.499" height="3.91" transform="matrix(0.705, -0.709, 0.709, 0.705, 189.463, 2.48)" fill="#41464b"/>
      <rect id="Rectángulo_3239" data-name="Rectángulo 3239" width="3.91" height="3.499" transform="matrix(0.709, -0.706, 0.706, 0.709, 195.362, 2.758)" fill="#41464b"/>
      <rect id="Rectángulo_3240" data-name="Rectángulo 3240" width="3.919" height="3.5" transform="translate(189.461 8.673) rotate(-45)" fill="#41464b"/>
      <rect id="Rectángulo_3241" data-name="Rectángulo 3241" width="3.5" height="6.968" transform="translate(291.367 178.339) rotate(-44.959)" fill="#41464b"/>
      <rect id="Rectángulo_3242" data-name="Rectángulo 3242" width="3.5" height="6.963" transform="translate(280.865 167.862) rotate(-45.128)" fill="#41464b"/>
      <rect id="Rectángulo_3243" data-name="Rectángulo 3243" width="6.955" height="3.502" transform="matrix(0.708, -0.706, 0.706, 0.708, 291.369, 170.294)" fill="#41464b"/>
      <rect id="Rectángulo_3244" data-name="Rectángulo 3244" width="6.977" height="3.501" transform="matrix(0.707, -0.707, 0.707, 0.707, 280.861, 180.796)" fill="#41464b"/>
      <rect id="Rectángulo_3245" data-name="Rectángulo 3245" width="3.5" height="5.228" transform="translate(93.269 17.699) rotate(-45.039)" fill="#41464b"/>
      <rect id="Rectángulo_3246" data-name="Rectángulo 3246" width="3.5" height="5.221" transform="matrix(0.707, -0.708, 0.708, 0.707, 85.4, 9.832)" fill="#41464b"/>
      <rect id="Rectángulo_3247" data-name="Rectángulo 3247" width="5.224" height="3.5" transform="translate(93.27 11.043) rotate(-44.908)" fill="#41464b"/>
      <rect id="Rectángulo_3248" data-name="Rectángulo 3248" width="5.224" height="3.5" transform="translate(85.399 18.917) rotate(-45)" fill="#41464b"/>
      <path id="Trazado_33196" data-name="Trazado 33196" d="M18.815,153.568a9.27,9.27,0,1,1-9.267-9.27,9.261,9.261,0,0,1,9.267,9.27" fill="#ff7443"/>
      <path id="Trazado_33197" data-name="Trazado 33197" d="M229.529,21.326a6.485,6.485,0,1,1-6.492-6.479,6.491,6.491,0,0,1,6.492,6.479" fill="#afafaf"/>
      <path id="Trazado_33198" data-name="Trazado 33198" d="M55.627,205.676a3.708,3.708,0,1,1-3.713-3.7,3.705,3.705,0,0,1,3.713,3.7" fill="#afafaf"/>
      <path id="Trazado_33199" data-name="Trazado 33199" d="M284.887,77.87a2.783,2.783,0,1,1-2.787-2.776,2.784,2.784,0,0,1,2.787,2.776" fill="#afafaf"/>
    </g>
  </g>
</svg>
