<svg id="Grupo_17633" data-name="Grupo 17633" xmlns="http://www.w3.org/2000/svg" xmlns:xlink="http://www.w3.org/1999/xlink" width="191.531" height="125.238" viewBox="0 0 191.531 125.238">
  <defs>
    <clipPath id="clip-path">
      <rect id="Rectángulo_3178" data-name="Rectángulo 3178" width="191.531" height="125.238" fill="none"/>
    </clipPath>
  </defs>
  <path id="Trazado_33125" data-name="Trazado 33125" d="M254.206,243.278l-20.569,11.067-20.569-11.067V221.145l20.569-11.067,20.569,11.067Z" transform="translate(-140.322 -138.353)" fill="#f5fafc"/>
  <path id="Trazado_33126" data-name="Trazado 33126" d="M259.281,253.2l-14.739,8.315L229.8,253.2V236.575l14.739-8.315,14.739,8.315Z" transform="translate(-151.343 -150.327)" fill="#fdc345"/>
  <path id="Trazado_33127" data-name="Trazado 33127" d="M231,252.9l-21.934-11.8V217.338L231,205.536l21.934,11.8V241.1ZM211.8,239.47,231,249.8l19.2-10.332v-20.5L231,208.637l-19.2,10.332Z" transform="translate(-137.688 -135.361)" fill="#3d4451"/>
  <rect id="Rectángulo_3173" data-name="Rectángulo 3173" width="2.731" height="22.768" transform="translate(91.645 93.296)" fill="#3d4451"/>
  <rect id="Rectángulo_3174" data-name="Rectángulo 3174" width="23.219" height="2.732" transform="matrix(0.892, -0.453, 0.453, 0.892, 92.676, 92.092)" fill="#3d4451"/>
  <rect id="Rectángulo_3175" data-name="Rectángulo 3175" width="2.732" height="23.044" transform="translate(72.167 84.008) rotate(-62.846)" fill="#3d4451"/>
  <g id="Grupo_12147" data-name="Grupo 12147">
    <g id="Grupo_12146" data-name="Grupo 12146" clip-path="url(#clip-path)">
      <path id="Trazado_33128" data-name="Trazado 33128" d="M78.151,234.406l4.963,12.674C67.7,249.862,51.77,266.245,51.77,266.245l1.045-19.165L37.665,240.9s19.59-20.711,36.829-20.711" transform="translate(-24.805 -145.01)" fill="#f04f4c"/>
      <path id="Trazado_33129" data-name="Trazado 33129" d="M44.894,267.288,46.1,245.128l-16.213-6.616,1.54-1.628a98.669,98.669,0,0,1,12.156-10.538c9.628-7.069,18.3-10.653,25.787-10.653v3.069c-4.678,0-12.628,1.74-23.93,10.028a100.919,100.919,0,0,0-10.18,8.6l14.022,5.722-.893,16.382C53.461,254.869,64.55,245.755,75.9,243l-4.3-10.99,2.857-1.119L80.1,245.3l-1.837.332C63.526,248.291,47.9,264.2,47.748,264.355Z" transform="translate(-19.684 -142.05)" fill="#3d4451"/>
      <path id="Trazado_33130" data-name="Trazado 33130" d="M382.3,234.406l-4.963,12.674c15.411,2.782,31.344,19.165,31.344,19.165l-1.045-19.165,15.15-6.182s-19.59-20.711-36.829-20.711" transform="translate(-248.506 -145.01)" fill="#f04f4c"/>
      <path id="Trazado_33131" data-name="Trazado 33131" d="M406.37,267.288l-2.854-2.932c-.156-.16-15.778-16.064-30.517-18.725l-1.837-.332,5.643-14.411,2.857,1.119-4.3,10.99c11.355,2.759,22.444,11.873,27.512,16.5l-.893-16.382L416,237.391a100.93,100.93,0,0,0-10.18-8.6c-6.239-4.574-15.454-10.028-23.93-10.028v-3.069c7.483,0,16.159,3.584,25.787,10.653a98.67,98.67,0,0,1,12.156,10.538l1.54,1.628-16.213,6.616Z" transform="translate(-244.438 -142.05)" fill="#3d4451"/>
      <path id="Trazado_33132" data-name="Trazado 33132" d="M213.02,159.047l-12.136,27.368c-33-24.79-72.512-24.782-105.5,0q-6.069-13.684-12.135-27.368c40.258-30.523,89.518-30.523,129.774,0" transform="translate(-54.824 -89.668)" fill="#fff"/>
      <path id="Trazado_33133" data-name="Trazado 33133" d="M196.645,183.8c-33.221-25.831-73.468-25.822-106.678,0q-7.028-15.293-14.051-30.588c19.457-15.289,42.339-25.354,67.39-25.354s47.931,10.063,67.39,25.354Q203.67,168.51,196.645,183.8M91.192,178.1c32.764-23.721,71.464-23.721,104.229,0l10.3-24.076c-38.962-28.454-85.87-28.451-124.828,0q5.15,12.038,10.3,24.076" transform="translate(-49.997 -84.207)" fill="#3d4451"/>
      <path id="Trazado_33134" data-name="Trazado 33134" d="M218.187,174.411c-2.546,4.828-4.588,9.873-7.134,14.7-16.284-9.271-32-16.217-51.031-15.676-18.854.536-33.965,6.971-50.111,16.349a99.767,99.767,0,0,0-7.369-14.7c18.612-11.094,35.569-18.084,57.48-18.595,22.093-.515,39.426,6.865,58.165,17.921" transform="translate(-67.532 -103.043)" fill="#f04f4c"/>
      <path id="Trazado_33135" data-name="Trazado 33135" d="M207.041,188.451c-16.482-9.537-32.377-16.856-51.712-16.311-19.17.54-34.652,7.431-51.039,16.984a112.687,112.687,0,0,0-8.874-16.879c9.545-5.659,19.1-11.791,29.689-15.329,9.593-3.2,20.157-4.237,30.224-4.469,23.123-.533,41.02,7.584,60.586,19.124-3.2,5.518-5.674,11.362-8.874,16.879m-100.822-3.3c15.834-9.154,30.671-15.162,49.11-15.679,18.673-.523,34.127,5.988,50.188,15.005,1.98-4.162,3.7-8.425,5.682-12.587-17.958-10.536-34.848-17.257-55.869-16.77-20.864.483-37.335,6.827-55.154,17.443a96.519,96.519,0,0,1,6.044,12.587" transform="translate(-62.839 -100.382)" fill="#3d4451"/>
      <path id="Trazado_33136" data-name="Trazado 33136" d="M281.069,25.593l-12.99-.015.014-12.334s.006-5.2.007-6.217a2.158,2.158,0,0,0-.918-1.632l-7.441-.009c-1.224,0-1.529.61-1.529.61s-6.745,15.385-9.706,20.374-8.976,4.78-8.976,4.78l-.03,26.505,8.767.01,5.7,4.9,24.158.027a6.336,6.336,0,0,0,4.072-1.475l2.9-2.427a6.339,6.339,0,0,0,2.271-4.854l.025-21.9a6.337,6.337,0,0,0-6.329-6.343" transform="translate(-157.728 -3.548)" fill="#f5fafc"/>
      <path id="Trazado_33137" data-name="Trazado 33137" d="M278.643,56.228l-12.235-.014.011-9.649s0-4.066.005-4.863a1.69,1.69,0,0,0-.865-1.277l-7.008-.008c-1.153,0-1.44.477-1.44.477s-6.35,12.033-9.138,15.936-8.454,3.738-8.454,3.738L239.5,81.3l8.258.01,5.372,3.832,22.753.026a6.749,6.749,0,0,0,3.835-1.153l2.733-1.9a4.671,4.671,0,0,0,2.139-3.8l.019-17.131a4.854,4.854,0,0,0-2.886-4.25,6.912,6.912,0,0,0-3.076-.713" transform="translate(-157.726 -26.618)" fill="#fdc345"/>
      <path id="Trazado_33138" data-name="Trazado 33138" d="M274.582,60.883h-.009l-24.838-.028-5.7-4.9-9.926-.011L234.14,25.7l1.9.067c.2,0,4.981.08,7.33-3.881,2.87-4.836,9.537-20.021,9.6-20.174l.04-.084A3.383,3.383,0,0,1,256.186,0h.006l8,.009.462.308a3.934,3.934,0,0,1,1.737,3.164l-.019,16.712,11.151.012a8.176,8.176,0,0,1,8.166,8.185l-.025,21.9a8.159,8.159,0,0,1-2.931,6.262l-2.9,2.427a8.188,8.188,0,0,1-5.244,1.9m-23.483-3.7,23.478.026h.005a4.505,4.505,0,0,0,2.885-1.047l2.9-2.428a4.485,4.485,0,0,0,1.612-3.445l.025-21.9a4.5,4.5,0,0,0-4.492-4.5l-14.829-.017.023-20.182-6.522-.007a.307.307,0,0,0-.059,0c-1.2,2.719-6.874,15.5-9.593,20.083a11.882,11.882,0,0,1-8.721,5.546l-.026,22.964,7.609.009Z" transform="translate(-154.177)" fill="#3d4451"/>
      <rect id="Rectángulo_3176" data-name="Rectángulo 3176" width="34.86" height="29.14" transform="matrix(0.001, -1, 1, 0.001, 55.959, 58.411)" fill="#7eb9c7"/>
      <path id="Trazado_33139" data-name="Trazado 33139" d="M191.325,102.16l-32.818-.037.044-38.538,32.818.037Zm-29.135-3.711,25.462.029.035-31.182-25.461-.029Z" transform="translate(-104.389 -41.876)" fill="#3d4451"/>
      <rect id="Rectángulo_3177" data-name="Rectángulo 3177" width="6.85" height="24.465" transform="matrix(0.001, -1, 1, 0.001, 58.38, 32.589)" fill="#f5fafc"/>
      <path id="Trazado_33140" data-name="Trazado 33140" d="M72.481,115.137l5.407-6.969a1.164,1.164,0,0,0,.163-1.142l-3.248-8.2,6.969,5.407a1.164,1.164,0,0,0,1.143.163l8.2-3.248-5.407,6.969a1.164,1.164,0,0,0-.163,1.142l3.248,8.2-6.969-5.407a1.164,1.164,0,0,0-1.142-.163Z" transform="translate(-47.734 -65.083)" fill="#fdc345"/>
      <path id="Trazado_33141" data-name="Trazado 33141" d="M85.309,114.71l-9.789-7.594a.191.191,0,0,0-.185-.027l-11.519,4.562,7.595-9.789a.19.19,0,0,0,.026-.185L66.875,90.159l9.789,7.594a.19.19,0,0,0,.185.027l11.519-4.562-7.594,9.789a.19.19,0,0,0-.026.185ZM75.4,105.126a2.147,2.147,0,0,1,1.315.448l4.15,3.219-1.934-4.883a2.15,2.15,0,0,1,.3-2.1l3.219-4.15-4.883,1.934a2.15,2.15,0,0,1-2.1-.3l-4.15-3.22,1.934,4.883a2.149,2.149,0,0,1-.3,2.1l-3.22,4.15,4.883-1.934a2.135,2.135,0,0,1,.785-.149" transform="translate(-42.028 -59.377)" fill="#3d4451"/>
      <path id="Trazado_33142" data-name="Trazado 33142" d="M6.758,212.768l3.855-6.757a1.027,1.027,0,0,0,0-1.018l-3.855-6.757,6.757,3.855a1.026,1.026,0,0,0,1.017,0l6.757-3.855-3.855,6.757a1.029,1.029,0,0,0,0,1.018l3.855,6.757-6.757-3.855a1.026,1.026,0,0,0-1.017,0Z" transform="translate(-4.451 -130.554)" fill="#fdc345"/>
      <path id="Trazado_33143" data-name="Trazado 33143" d="M19.147,210.625,9.656,205.21a.166.166,0,0,0-.164,0L0,210.625l5.415-9.491a.166.166,0,0,0,0-.165L0,191.478l9.491,5.415a.168.168,0,0,0,.165,0l9.491-5.415-5.414,9.491a.168.168,0,0,0,0,.165ZM4.615,196.093l2.3,4.023a1.9,1.9,0,0,1,0,1.871l-2.3,4.023,4.024-2.3a1.9,1.9,0,0,1,1.871,0l4.023,2.3-2.3-4.023a1.9,1.9,0,0,1,0-1.871l2.3-4.023-4.023,2.3a1.9,1.9,0,0,1-1.871,0Z" transform="translate(0 -126.103)" fill="#3d4451"/>
      <path id="Trazado_33144" data-name="Trazado 33144" d="M421.467,100.532l7.823,4.463a1.187,1.187,0,0,0,1.178,0l7.823-4.463-4.463,7.823a1.189,1.189,0,0,0,0,1.178l4.463,7.823-7.823-4.463a1.189,1.189,0,0,0-1.178,0l-7.823,4.463,4.463-7.823a1.189,1.189,0,0,0,0-1.178Z" transform="translate(-277.568 -66.208)" fill="#fdc345"/>
      <path id="Trazado_33145" data-name="Trazado 33145" d="M435.81,114.875l-10.988-6.268a.192.192,0,0,0-.191,0l-10.988,6.268,6.269-10.987a.192.192,0,0,0,0-.191l-6.269-10.988,10.988,6.268a.194.194,0,0,0,.191,0l10.988-6.268L429.542,103.7a.192.192,0,0,0,0,.191ZM418.986,98.051l2.657,4.658a2.193,2.193,0,0,1,0,2.166l-2.657,4.658,4.658-2.657a2.192,2.192,0,0,1,2.166,0l4.658,2.657-2.657-4.658a2.194,2.194,0,0,1,0-2.166l2.657-4.658-4.658,2.657a2.2,2.2,0,0,1-2.166,0Z" transform="translate(-272.416 -61.056)" fill="#3d4451"/>
      <path id="Trazado_33146" data-name="Trazado 33146" d="M503.878,187l7.823,4.463a1.187,1.187,0,0,0,1.178,0L520.7,187l-4.463,7.823a1.189,1.189,0,0,0,0,1.178l4.463,7.823-7.823-4.463a1.188,1.188,0,0,0-1.178,0l-7.823,4.463L508.341,196a1.189,1.189,0,0,0,0-1.178Z" transform="translate(-331.842 -123.153)" fill="#fdc345"/>
      <path id="Trazado_33147" data-name="Trazado 33147" d="M518.221,201.342l-10.988-6.268a.191.191,0,0,0-.19,0l-10.988,6.268,6.269-10.987a.194.194,0,0,0,0-.191l-6.269-10.987,10.988,6.268a.192.192,0,0,0,.191,0l10.988-6.268-6.269,10.987a.192.192,0,0,0,0,.191ZM501.4,184.518l2.657,4.658a2.194,2.194,0,0,1,0,2.166L501.4,196l4.658-2.657a2.193,2.193,0,0,1,2.166,0L512.879,196l-2.657-4.658a2.194,2.194,0,0,1,0-2.166l2.657-4.658-4.658,2.657a2.194,2.194,0,0,1-2.166,0Z" transform="translate(-326.69 -118.001)" fill="#3d4451"/>
    </g>
  </g>
</svg>
