<svg id="Grupo_12159" data-name="Grupo 12159" xmlns="http://www.w3.org/2000/svg" xmlns:xlink="http://www.w3.org/1999/xlink" width="278.151" height="278.014" viewBox="0 0 278.151 278.014">
  <defs>
    <clipPath id="clip-path">
      <rect id="Rectángulo_3389" data-name="Rectángulo 3389" width="278.151" height="278.014" fill="none"/>
    </clipPath>
  </defs>
  <g id="Grupo_12158" data-name="Grupo 12158" clip-path="url(#clip-path)">
    <path id="Trazado_35156" data-name="Trazado 35156" d="M23.683,265.853a7.628,7.628,0,0,1-.752-3.384v-.115l2.926.036a4.762,4.762,0,0,0,.453,2.174Zm2.6-5.9-2.8-.869a19.15,19.15,0,0,1,1.2-2.92l2.611,1.321a16.011,16.011,0,0,0-1.021,2.467m2.407-4.865-2.46-1.586c.516-.8,1.1-1.635,1.739-2.482l2.339,1.758c-.6.793-1.14,1.569-1.618,2.31m3.393-4.536-2.241-1.883c.615-.732,1.278-1.488,1.969-2.246l2.162,1.972c-.665.728-1.3,1.453-1.89,2.156m3.866-4.249-2.1-2.043q1.007-1.033,2.1-2.1l2.037,2.1q-1.065,1.032-2.044,2.038m26.893-22.12L61.151,221.8q1.186-.84,2.4-1.69l1.675,2.4q-1.209.844-2.386,1.678m4.784-3.334-1.654-2.416q1.2-.822,2.43-1.651l1.636,2.427q-1.22.822-2.412,1.64m4.835-3.262-1.619-2.438q1.213-.805,2.451-1.616l1.6,2.447q-1.23.806-2.436,1.607m4.882-3.2-1.587-2.459q1.224-.79,2.472-1.584l1.573,2.467q-1.24.79-2.457,1.576m4.923-3.135L80.71,208.78q1.234-.776,2.491-1.555l1.542,2.488q-1.248.774-2.475,1.545m4.96-3.079-1.529-2.5q1.244-.763,2.508-1.527l1.514,2.5q-1.255.761-2.493,1.519m4.994-3.023-1.5-2.512q1.252-.748,2.522-1.5l1.49,2.518q-1.263.749-2.51,1.493m5.027-2.972-1.477-2.527q1.262-.737,2.538-1.475l1.463,2.535q-1.271.732-2.523,1.467m5.055-2.922-1.452-2.542q1.268-.724,2.551-1.45l1.44,2.548q-1.277.722-2.538,1.444m5.084-2.877-1.429-2.554q1.276-.712,2.564-1.426l1.416,2.561q-1.283.71-2.552,1.42m5.11-2.829-1.406-2.567q1.281-.7,2.575-1.4l1.4,2.572q-1.289.7-2.564,1.4m5.135-2.784-1.384-2.579q1.288-.691,2.588-1.381l1.372,2.585q-1.294.687-2.576,1.375m5.159-2.74-1.361-2.59q1.294-.68,2.6-1.36l1.352,2.6q-1.3.677-2.59,1.355m5.182-2.7-1.34-2.6q1.3-.67,2.61-1.339L130.573,184q-1.3.663-2.6,1.331m5.2-2.654-1.319-2.613q1.306-.658,2.62-1.316l1.309,2.618q-1.311.656-2.611,1.311m5.22-2.61-1.3-2.622q1.18-.584,2.368-1.167l.258-.126,1.3,2.623-.262.129q-1.19.584-2.364,1.164m5.246-2.571-1.278-2.632q1.323-.642,2.641-1.275l1.268,2.638q-1.314.631-2.631,1.269m5.266-2.527-1.256-2.644q1.328-.631,2.652-1.253l1.245,2.649q-1.318.62-2.641,1.248m5.287-2.487-1.233-2.654q1.333-.62,2.661-1.231l1.223,2.658q-1.323.61-2.651,1.227m5.308-2.441-1.213-2.663q1.339-.611,2.674-1.211l1.2,2.671q-1.327.594-2.659,1.2m5.325-2.4-1.189-2.673q1.344-.6,2.682-1.186l1.179,2.678q-1.333.587-2.672,1.181m5.347-2.352-1.166-2.684q1.351-.587,2.694-1.163l1.153,2.69q-1.337.573-2.681,1.157m5.367-2.3-1.141-2.695q1.357-.574,2.7-1.138l1.129,2.7q-1.341.561-2.692,1.134m5.388-2.254-1.117-2.7q1.362-.562,2.714-1.114l1.106,2.709q-1.347.551-2.7,1.109m5.409-2.2-1.092-2.717q1.37-.549,2.727-1.087l1.076,2.722q-1.351.532-2.712,1.081m5.429-2.151-1.064-2.726q1.375-.537,2.737-1.059l1.049,2.732q-1.356.522-2.723,1.054m5.451-2.092-1.035-2.737q1.382-.523,2.75-1.03l1.018,2.744q-1.36.5-2.732,1.023m5.472-2.03-1-2.75q1.388-.507,2.76-1l.988,2.755q-1.365.49-2.746.993m5.5-1.967-.97-2.762q1.4-.489,2.775-.963l.951,2.768q-1.368.47-2.756.957m5.518-1.9-.933-2.774q1.4-.472,2.789-.926l.911,2.781q-1.375.45-2.768.919m5.542-1.819-.892-2.788q1.413-.453,2.8-.885l.869,2.794q-1.378.429-2.779.878m5.568-1.734-.849-2.8q1.422-.431,2.819-.839l.823,2.809q-1.385.405-2.793.831m5.592-1.636-.8-2.815q1.434-.405,2.834-.786l.768,2.824q-1.388.378-2.807.778m5.62-1.527-.737-2.831q1.446-.376,2.855-.725l.7,2.84q-1.391.345-2.82.716m5.648-1.4-.665-2.85q1.459-.34,2.875-.65l.625,2.86q-1.4.3-2.835.64m35.812-.826a7.55,7.55,0,0,0-2.079-1.27l1.147-2.691a10.416,10.416,0,0,1,2.882,1.779Zm-30.136-.411-.579-2.87q1.476-.3,2.9-.559l.53,2.878q-1.4.258-2.85.55m5.7-1.042-.467-2.889q1.5-.243,2.93-.439l.4,2.9q-1.4.191-2.86.429m19.822-.6a24.359,24.359,0,0,0-2.724-.43l.3-2.91a27.311,27.311,0,0,1,3.054.482Zm-14.1-.18-.315-2.91q1.529-.166,2.966-.272l.215,2.919q-1.388.1-2.865.263m5.724-.414-.087-2.925q1.573-.049,3.008-.012l-.077,2.925q-1.356-.034-2.844.012" transform="translate(-3.758 -21.935)" fill="#41464b"/>
    <path id="Trazado_35157" data-name="Trazado 35157" d="M278.426,249.813l-2.735-1.04c2.044-5.375-8.4-15.866-27.937-28.065-20.7-12.924-49.547-26.684-81.231-38.745S104.147,161.007,80.093,156.9c-22.7-3.878-37.48-2.984-39.527,2.391l-2.735-1.043c3.409-8.949,25.132-7.242,42.755-4.233,24.236,4.138,55.125,13.093,86.978,25.214s60.885,25.975,81.74,39c15.164,9.468,32.526,22.635,29.122,31.587" transform="translate(-6.199 -24.842)" fill="#41464b"/>
    <path id="Trazado_35158" data-name="Trazado 35158" d="M184.8,244.546h-2.926V234.92a59.224,59.224,0,0,1,19.311-43.67l2.146-1.86a72.526,72.526,0,1,0-97.786.027l2.1,1.809a59.249,59.249,0,0,1,19.338,43.695v9.626H124.05V234.92a56.3,56.3,0,0,0-18.356-41.508l-2.1-1.809a75.452,75.452,0,1,1,101.674-.026l-2.147,1.861A56.272,56.272,0,0,0,184.8,234.92Z" transform="translate(-12.94 -9.894)" fill="#41464b"/>
    <rect id="Rectángulo_3370" data-name="Rectángulo 3370" width="57.821" height="30.65" transform="translate(112.574 234.651)" fill="#4cbed8"/>
    <rect id="Rectángulo_3371" data-name="Rectángulo 3371" width="68.595" height="2.926" transform="translate(107.185 233.188)" fill="#41464b"/>
    <rect id="Rectángulo_3372" data-name="Rectángulo 3372" width="68.595" height="2.926" transform="translate(107.185 239.214)" fill="#41464b"/>
    <rect id="Rectángulo_3373" data-name="Rectángulo 3373" width="68.595" height="2.926" transform="translate(107.185 245.247)" fill="#41464b"/>
    <path id="Trazado_35159" data-name="Trazado 35159" d="M172.988,329.722H160.132a7.083,7.083,0,0,1-7.088-7.088v-7.088H180.08v7.088a7.09,7.09,0,0,1-7.092,7.088M155.97,318.472v4.161a4.156,4.156,0,0,0,4.161,4.161h12.856a4.165,4.165,0,0,0,4.166-4.161v-4.161Z" transform="translate(-25.079 -51.708)" fill="#41464b"/>
    <path id="Trazado_35160" data-name="Trazado 35160" d="M102.889,139.765A55.454,55.454,0,1,0,158.34,84.314a55.458,55.458,0,0,0-55.451,55.451" transform="translate(-16.86 -13.816)" fill="#fed65c"/>
    <path id="Trazado_35161" data-name="Trazado 35161" d="M165.547,182.5h-8.19l-1.718-8.547a31.046,31.046,0,0,1-4.712-1.262l-5.758,6.549-7.095-4.09,2.8-8.27a31.013,31.013,0,0,1-3.439-3.442l-8.267,2.8-4.1-7.1,6.554-5.753a31.1,31.1,0,0,1-1.265-4.7l-8.544-1.721v-8.189l8.543-1.7a31.228,31.228,0,0,1,1.268-4.724l-6.556-5.751,4.1-7.1,8.262,2.8a31.372,31.372,0,0,1,3.443-3.445l-2.8-8.274,7.095-4.085,5.76,6.546a31.5,31.5,0,0,1,4.7-1.258l1.716-8.549h8.2l1.7,8.547a31.543,31.543,0,0,1,4.7,1.254l5.77-6.534,7.092,4.078-2.8,8.275a31.965,31.965,0,0,1,3.444,3.444l8.28-2.8,4.071,7.1-6.539,5.756a31.82,31.82,0,0,1,1.263,4.713l8.543,1.709v8.187l-8.544,1.726a31.783,31.783,0,0,1-1.258,4.686l6.534,5.764-4.069,7.1-8.285-2.8a31.612,31.612,0,0,1-3.44,3.442l2.8,8.269-7.092,4.09-5.766-6.543a31.048,31.048,0,0,1-4.707,1.258Zm-5.794-2.926h3.392l1.632-8.195,1.021-.15a28.262,28.262,0,0,0,6.064-1.616l.952-.369,5.521,6.263,2.937-1.694-2.676-7.917.8-.64a28.8,28.8,0,0,0,4.437-4.442l.641-.8,7.927,2.679,1.687-2.944-6.262-5.523.369-.952a28.9,28.9,0,0,0,1.623-6.048l.155-1.011,8.182-1.651v-3.395l-8.182-1.637-.154-1.013a28.926,28.926,0,0,0-1.627-6.075l-.37-.952,6.265-5.517-1.686-2.938-7.923,2.681-.64-.8a29.167,29.167,0,0,0-4.443-4.447l-.8-.64,2.674-7.917-2.937-1.69-5.528,6.259-.95-.369a28.518,28.518,0,0,0-6.062-1.615l-1.018-.152-1.631-8.192h-3.4l-1.643,8.192-1.014.154a28.572,28.572,0,0,0-6.062,1.62l-.953.37-5.516-6.268-2.938,1.691,2.676,7.923-.8.64a28.5,28.5,0,0,0-4.437,4.441l-.641.8-7.917-2.685-1.7,2.94,6.276,5.506-.371.956a28.285,28.285,0,0,0-1.63,6.082l-.151,1.018-8.189,1.633v3.393l8.191,1.65.151,1.015a28.091,28.091,0,0,0,1.627,6.056l.372.954-6.277,5.511,1.7,2.946,7.921-2.681.64.8a28.176,28.176,0,0,0,4.433,4.433l.8.64-2.679,7.922,2.938,1.694,5.513-6.271.953.37a28.072,28.072,0,0,0,6.065,1.622l1.019.15Z" transform="translate(-19.96 -16.916)" fill="#41464b"/>
    <path id="Trazado_35162" data-name="Trazado 35162" d="M165.05,167.744a21.293,21.293,0,1,1,21.3-21.287,21.269,21.269,0,0,1-21.3,21.287" transform="translate(-23.556 -20.51)" fill="#fff"/>
    <path id="Trazado_35163" data-name="Trazado 35163" d="M167.03,159.878h-.041a11.578,11.578,0,0,1-3.238-.46l.818-2.809a8.641,8.641,0,0,0,2.421.343Zm3.245-.475-.834-2.805a8.546,8.546,0,0,0,2.216-1.023l1.592,2.456a11.465,11.465,0,0,1-2.974,1.372m-9.507-1.342a11.527,11.527,0,0,1-2.475-2.141L160.5,154a8.626,8.626,0,0,0,1.849,1.6Zm14.947-2.184-2.217-1.909a8.549,8.549,0,0,0,1.314-2.058l2.666,1.207a11.484,11.484,0,0,1-1.763,2.76m-19.2-2.712a11.439,11.439,0,0,1-.922-3.146l2.9-.413a8.47,8.47,0,0,0,.686,2.34Zm21.87-3.195-2.9-.4a8.694,8.694,0,0,0,.083-1.192,8.783,8.783,0,0,0-.09-1.253l2.9-.423a11.619,11.619,0,0,1,.011,3.272m-19.9-2.811-2.9-.408a11.446,11.446,0,0,1,.916-3.146l2.664,1.212a8.519,8.519,0,0,0-.681,2.342m16.3-2.376a8.577,8.577,0,0,0-1.328-2.049l2.2-1.924a11.494,11.494,0,0,1,1.781,2.748Zm-14.3-2.022-2.214-1.914a11.518,11.518,0,0,1,2.471-2.149l1.586,2.46a8.6,8.6,0,0,0-1.843,1.6m11.121-1.625a8.521,8.521,0,0,0-2.222-1.008l.814-2.81a11.429,11.429,0,0,1,2.985,1.353Zm-7.061-1-.825-2.807a11.51,11.51,0,0,1,3.238-.469l.008,2.926a8.7,8.7,0,0,0-2.42.35" transform="translate(-25.497 -22.427)" fill="#41464b"/>
    <path id="Trazado_35164" data-name="Trazado 35164" d="M233.163,254.928c-23.881-4.324-53.91-13.128-84.556-24.791-31.853-12.121-60.882-25.968-81.739-38.993C51.7,181.674,34.344,168.506,37.75,159.55l2.735,1.04c-2.045,5.376,8.4,15.871,27.933,28.071,20.7,12.928,49.548,26.686,81.229,38.74,30.484,11.6,60.328,20.356,84.037,24.648Z" transform="translate(-6.115 -26.145)" fill="#41464b"/>
    <path id="Trazado_35165" data-name="Trazado 35165" d="M308.072,275.4l-.184-2.92c6.891-.435,11.06-2.047,12.059-4.662l2.734,1.044c-1.457,3.819-6.373,6.02-14.609,6.539" transform="translate(-50.453 -43.887)" fill="#41464b"/>
    <path id="Trazado_35166" data-name="Trazado 35166" d="M38.911,272.593c-7.854,0-13.177-1.746-15.08-5.625l2.627-1.288c5.637,11.488,62.35-1.069,137.789-38.075S284.331,153.442,278.7,141.949l2.627-1.288c8.108,16.541-52.506,58.531-115.789,89.571-48.441,23.763-101,42.36-126.625,42.361" transform="translate(-3.905 -23.05)" fill="#41464b"/>
    <path id="Trazado_35167" data-name="Trazado 35167" d="M59.437,250.727A6.431,6.431,0,1,1,53,244.3a6.438,6.438,0,0,1,6.433,6.427" transform="translate(-7.632 -40.033)" fill="#ff7443"/>
    <path id="Trazado_35168" data-name="Trazado 35168" d="M51.785,262.161a12.647,12.647,0,1,1,12.647-12.652,12.664,12.664,0,0,1-12.647,12.652m0-22.368a9.721,9.721,0,1,0,9.721,9.717,9.729,9.729,0,0,0-9.721-9.717" transform="translate(-6.413 -38.815)" fill="#41464b"/>
    <path id="Trazado_35169" data-name="Trazado 35169" d="M299.8,273.674a6.428,6.428,0,1,1-6.428-6.427,6.427,6.427,0,0,1,6.428,6.427" transform="translate(-47.021 -43.793)" fill="#ff7443"/>
    <path id="Trazado_35170" data-name="Trazado 35170" d="M292.154,285.109A12.648,12.648,0,1,1,304.8,272.456a12.664,12.664,0,0,1-12.648,12.652m0-22.369a9.721,9.721,0,1,0,9.722,9.717,9.73,9.73,0,0,0-9.722-9.717" transform="translate(-45.802 -42.575)" fill="#41464b"/>
    <path id="Trazado_35171" data-name="Trazado 35171" d="M269.767,322.994a7.088,7.088,0,1,1,7.088-7.087,7.1,7.1,0,0,1-7.088,7.087m0-11.249a4.161,4.161,0,1,0,4.161,4.162,4.169,4.169,0,0,0-4.161-4.162" transform="translate(-43.044 -50.605)" fill="#41464b"/>
    <path id="Trazado_35172" data-name="Trazado 35172" d="M89.648,260.491a8.695,8.695,0,1,1,8.7-8.695,8.7,8.7,0,0,1-8.7,8.695m0-14.463a5.768,5.768,0,1,0,5.774,5.768,5.775,5.775,0,0,0-5.774-5.768" transform="translate(-13.266 -39.836)" fill="#41464b"/>
    <path id="Trazado_35173" data-name="Trazado 35173" d="M309.521,204.648a9.2,9.2,0,1,1,9.2-9.206,9.211,9.211,0,0,1-9.2,9.206m0-15.475a6.274,6.274,0,1,0,6.274,6.269,6.276,6.276,0,0,0-6.274-6.269" transform="translate(-49.214 -30.52)" fill="#41464b"/>
    <path id="Trazado_35174" data-name="Trazado 35174" d="M28.5,175.39a8.038,8.038,0,1,1-8.035-8.037A8.03,8.03,0,0,1,28.5,175.39" transform="translate(-2.036 -27.424)" fill="#afafaf"/>
    <path id="Trazado_35175" data-name="Trazado 35175" d="M51.309,315.232a5.625,5.625,0,1,1-5.625-5.625,5.626,5.626,0,0,1,5.625,5.625" transform="translate(-6.565 -50.735)" fill="#afafaf"/>
    <path id="Trazado_35176" data-name="Trazado 35176" d="M260.282,235.41a3.214,3.214,0,1,1-3.215-3.215,3.217,3.217,0,0,1,3.215,3.215" transform="translate(-41.598 -38.049)" fill="#afafaf"/>
    <path id="Trazado_35177" data-name="Trazado 35177" d="M32.384,199.655a2.411,2.411,0,1,1-2.411-2.411,2.412,2.412,0,0,1,2.411,2.411" transform="translate(-4.516 -32.322)" fill="#afafaf"/>
    <path id="Trazado_35178" data-name="Trazado 35178" d="M315.9,294.494a4.413,4.413,0,1,1,4.413-4.409,4.414,4.414,0,0,1-4.413,4.409m0-5.9a1.487,1.487,0,1,0,1.487,1.491,1.487,1.487,0,0,0-1.487-1.491" transform="translate(-51.044 -46.812)" fill="#41464b"/>
    <path id="Trazado_35179" data-name="Trazado 35179" d="M5.084,226.07a5.079,5.079,0,1,1,5.08-5.078,5.086,5.086,0,0,1-5.08,5.078m0-7.231a2.152,2.152,0,1,0,2.153,2.153,2.158,2.158,0,0,0-2.153-2.153" transform="translate(0 -35.381)" fill="#41464b"/>
    <path id="Trazado_35180" data-name="Trazado 35180" d="M257.027,65.331a19.433,19.433,0,0,1-16.509-19.308h2.926a16.519,16.519,0,0,0,14.033,16.416Z" transform="translate(-39.413 -7.542)" fill="#41464b"/>
    <path id="Trazado_35181" data-name="Trazado 35181" d="M266.933,61.5l-.451-2.892A16.618,16.618,0,0,0,263.9,25.574V22.648A19.545,19.545,0,0,1,266.933,61.5" transform="translate(-43.244 -3.711)" fill="#41464b"/>
    <path id="Trazado_35182" data-name="Trazado 35182" d="M256.26,34.749,248.3,26.8,267.059,8.038,275.011,16Z" transform="translate(-40.689 -1.317)" fill="#4cbed8"/>
    <path id="Trazado_35183" data-name="Trazado 35183" d="M255.855,36.413,245.829,26.392,266.654,5.563l10.019,10.032Zm-5.887-10.021,5.886,5.883,16.682-16.682L266.653,9.7Z" transform="translate(-40.283 -0.912)" fill="#41464b"/>
    <path id="Trazado_35184" data-name="Trazado 35184" d="M276.682,15.281l-6.045-6.044,6.045-6.044,6.051,6.044Zm-1.906-6.044,1.907,1.906,1.909-1.906L276.683,7.33Z" transform="translate(-44.349 -0.523)" fill="#41464b"/>
    <rect id="Rectángulo_3374" data-name="Rectángulo 3374" width="5.623" height="2.926" transform="translate(206.581 32.398) rotate(-45)" fill="#41464b"/>
    <rect id="Rectángulo_3375" data-name="Rectángulo 3375" width="20.092" height="2.926" transform="translate(192.524 37.018)" fill="#41464b"/>
    <path id="Trazado_35185" data-name="Trazado 35185" d="M275.116,25.134a4.02,4.02,0,1,1-4.022-4.018,4.018,4.018,0,0,1,4.022,4.018" transform="translate(-43.765 -3.46)" fill="#fff"/>
    <path id="Trazado_35186" data-name="Trazado 35186" d="M270.808,30.328a5.481,5.481,0,1,1,5.485-5.481,5.487,5.487,0,0,1-5.485,5.481m0-8.035a2.554,2.554,0,1,0,2.559,2.554,2.557,2.557,0,0,0-2.559-2.554" transform="translate(-43.479 -3.173)" fill="#41464b"/>
    <path id="Trazado_35187" data-name="Trazado 35187" d="M267.333,73.829h-8.552v-11.1a4.276,4.276,0,1,1,8.552,0ZM261.707,70.9h2.7V62.725a1.369,1.369,0,0,0-.4-.96,1.405,1.405,0,0,0-1.908,0,1.366,1.366,0,0,0-.394.957Z" transform="translate(-42.406 -9.579)" fill="#41464b"/>
    <path id="Trazado_35188" data-name="Trazado 35188" d="M279.611,80.43h-2.926V76.269h-33.24V80.43h-2.926V73.342h39.093Z" transform="translate(-39.413 -12.018)" fill="#41464b"/>
    <path id="Trazado_35189" data-name="Trazado 35189" d="M317.006,76.235H306.737L301.6,67.344l5.135-8.891h10.269l5.141,8.891Zm-8.58-2.926h6.891l3.449-5.964-3.449-5.965h-6.891l-3.445,5.965Z" transform="translate(-49.423 -9.579)" fill="#41464b"/>
    <path id="Trazado_35190" data-name="Trazado 35190" d="M179.372,39.39H169.1l-5.14-8.89,5.14-8.9h10.269l5.135,8.9Zm-8.58-2.926h6.89l3.446-5.965-3.446-5.973h-6.89L167.344,30.5Z" transform="translate(-26.868 -3.539)" fill="#41464b"/>
    <path id="Trazado_35191" data-name="Trazado 35191" d="M194.764,30.507H184.5l-5.135-8.9,5.135-8.89h10.269l5.136,8.89Zm-8.579-2.926h6.889l3.447-5.974-3.447-5.964h-6.889l-3.446,5.964Z" transform="translate(-29.391 -2.084)" fill="#41464b"/>
    <rect id="Rectángulo_3376" data-name="Rectángulo 3376" width="2.927" height="4.291" transform="translate(139.663 16.543) rotate(-30.077)" fill="#41464b"/>
    <rect id="Rectángulo_3377" data-name="Rectángulo 3377" width="2.927" height="4.289" transform="translate(163.261 27.693) rotate(-30.019)" fill="#41464b"/>
    <path id="Trazado_35192" data-name="Trazado 35192" d="M291.646,111.57H281.376l-5.137-8.9,5.137-8.89h10.269l5.135,8.89Zm-8.58-2.926h6.889l3.446-5.974-3.445-5.964h-6.891l-3.447,5.964Z" transform="translate(-45.267 -15.367)" fill="#41464b"/>
    <rect id="Rectángulo_3378" data-name="Rectángulo 3378" width="4.289" height="2.926" transform="matrix(0.5, -0.866, 0.866, 0.5, 244.267, 79.143)" fill="#41464b"/>
    <path id="Trazado_35193" data-name="Trazado 35193" d="M37.119,94.106a16.073,16.073,0,1,0,32.145,0Z" transform="translate(-6.083 -15.421)" fill="#ff7443"/>
    <path id="Trazado_35194" data-name="Trazado 35194" d="M52.908,104.362A17.529,17.529,0,0,1,47.424,70.18V49.635H58.388V70.18a17.53,17.53,0,0,1-5.48,34.182m-2.558-51.8V72.41l-1.1.283a14.608,14.608,0,1,0,7.309,0l-1.1-.283V52.561Z" transform="translate(-5.796 -8.134)" fill="#41464b"/>
    <rect id="Rectángulo_3379" data-name="Rectángulo 3379" width="17.682" height="2.926" transform="translate(38.268 41.501)" fill="#41464b"/>
    <rect id="Rectángulo_3380" data-name="Rectángulo 3380" width="2.926" height="3.507" transform="matrix(0.707, -0.708, 0.708, 0.707, 56.208, 33.532)" fill="#41464b"/>
    <rect id="Rectángulo_3381" data-name="Rectángulo 3381" width="2.927" height="3.497" transform="matrix(0.706, -0.709, 0.709, 0.706, 50.935, 28.26)" fill="#41464b"/>
    <rect id="Rectángulo_3382" data-name="Rectángulo 3382" width="3.5" height="2.927" transform="translate(56.21 28.653) rotate(-44.838)" fill="#41464b"/>
    <rect id="Rectángulo_3383" data-name="Rectángulo 3383" width="3.504" height="2.927" transform="translate(50.933 33.941) rotate(-45.012)" fill="#41464b"/>
    <rect id="Rectángulo_3384" data-name="Rectángulo 3384" width="2.927" height="4.914" transform="translate(35.219 26.331) rotate(-44.931)" fill="#41464b"/>
    <rect id="Rectángulo_3385" data-name="Rectángulo 3385" width="2.926" height="4.892" transform="matrix(0.706, -0.708, 0.708, 0.706, 27.838, 18.968)" fill="#41464b"/>
    <rect id="Rectángulo_3386" data-name="Rectángulo 3386" width="4.896" height="2.926" transform="matrix(0.709, -0.706, 0.706, 0.709, 35.223, 20.348)" fill="#41464b"/>
    <rect id="Rectángulo_3387" data-name="Rectángulo 3387" width="4.911" height="2.927" transform="translate(27.833 27.743) rotate(-45.093)" fill="#41464b"/>
    <path id="Trazado_35195" data-name="Trazado 35195" d="M21.981,137.348a9.191,9.191,0,1,1,6.5-2.692,9.13,9.13,0,0,1-6.5,2.692m0-15.453a6.262,6.262,0,1,0,4.426,1.832,6.229,6.229,0,0,0-4.426-1.832" transform="translate(-2.097 -19.495)" fill="#41464b"/>
    <rect id="Rectángulo_3388" data-name="Rectángulo 3388" width="15.445" height="2.926" transform="translate(2.462 124.011) rotate(-45)" fill="#41464b"/>
    <path id="Trazado_35196" data-name="Trazado 35196" d="M119.187,15.642A22.414,22.414,0,0,0,100.2,26.126a22.44,22.44,0,0,0,37.98,0,22.419,22.419,0,0,0-18.99-10.484" transform="translate(-16.419 -2.563)" fill="#4cbed8"/>
    <path id="Trazado_35197" data-name="Trazado 35197" d="M120.568,37.787a11.947,11.947,0,1,1,11.948-11.948,11.961,11.961,0,0,1-11.948,11.948m0-20.969a9.021,9.021,0,1,0,9.022,9.021,9.031,9.031,0,0,0-9.022-9.021" transform="translate(-17.799 -2.276)" fill="#41464b"/>
    <path id="Trazado_35198" data-name="Trazado 35198" d="M126.032,27.419a3.884,3.884,0,1,1-3.885-3.889,3.889,3.889,0,0,1,3.885,3.889" transform="translate(-19.379 -3.856)" fill="#fff"/>
    <path id="Trazado_35199" data-name="Trazado 35199" d="M118.314,47.127h-.023a23.856,23.856,0,0,1-3.048-.195l.375-2.9a20.887,20.887,0,0,0,2.672.171Zm3.073-.2-.38-2.9a20.214,20.214,0,0,0,2.645-.526l.758,2.827a23.426,23.426,0,0,1-3.023.6m-9.167-.587a23.617,23.617,0,0,1-2.921-.988l1.116-2.7a20.577,20.577,0,0,0,2.558.864Zm15.107-1.008-1.121-2.7a20.431,20.431,0,0,0,2.415-1.195l1.467,2.533a23.643,23.643,0,0,1-2.761,1.365m-20.795-1.343a23.867,23.867,0,0,1-2.562-1.71l1.778-2.324a20.953,20.953,0,0,0,2.247,1.5Zm26.112-1.737-1.783-2.32a21,21,0,0,0,2.028-1.78l2.069,2.069a23.822,23.822,0,0,1-2.314,2.032m-30.992-2a23.741,23.741,0,0,1-2.035-2.312l2.318-1.787a20.829,20.829,0,0,0,1.783,2.026ZM136.99,37.9l-2.322-1.782a20.869,20.869,0,0,0,1.5-2.244l2.533,1.465A23.675,23.675,0,0,1,136.99,37.9M97.9,35.38a23.627,23.627,0,0,1-1.369-2.758l2.7-1.126a20.573,20.573,0,0,0,1.2,2.414Zm42.169-2.8-2.7-1.12a20.388,20.388,0,0,0,.867-2.556l2.828.754a23.329,23.329,0,0,1-.991,2.922M95.536,29.705a23.729,23.729,0,0,1-.6-3.021l2.9-.385a20.544,20.544,0,0,0,.529,2.646Zm46.122-3.07-2.9-.379a20.9,20.9,0,0,0,.174-2.694v-.091h2.926v.091a23.941,23.941,0,0,1-.2,3.073M95.278,23.6l-.551,0a23.893,23.893,0,0,1,.191-3.055l2.9.372a20.859,20.859,0,0,0-.169,2.65Zm43.466-2.816a20.521,20.521,0,0,0-.534-2.643l2.824-.768a23.765,23.765,0,0,1,.61,3.02ZM98.339,18.265l-2.829-.75a23.579,23.579,0,0,1,.985-2.922L99.2,15.707a20.624,20.624,0,0,0-.861,2.559m38.994-2.675a20.659,20.659,0,0,0-1.2-2.412l2.528-1.475a23.681,23.681,0,0,1,1.374,2.754ZM100.39,13.285l-2.536-1.46a23.6,23.6,0,0,1,1.708-2.564l2.324,1.778a20.631,20.631,0,0,0-1.5,2.246m34.231-2.342a20.914,20.914,0,0,0-1.788-2.023l2.062-2.078a23.89,23.89,0,0,1,2.039,2.307ZM103.662,9.006l-2.074-2.064A23.625,23.625,0,0,1,103.9,4.9l1.788,2.317a20.914,20.914,0,0,0-2.024,1.784M130.8,7.146a20.634,20.634,0,0,0-2.248-1.493l1.457-2.538a23.829,23.829,0,0,1,2.566,1.7ZM107.924,5.716l-1.472-2.53a23.651,23.651,0,0,1,2.758-1.371l1.127,2.7a20.448,20.448,0,0,0-2.413,1.2m18.2-1.25a20.345,20.345,0,0,0-2.556-.859l.746-2.83a23.327,23.327,0,0,1,2.925.982Zm-13.236-.825L112.124.815a23.588,23.588,0,0,1,3.021-.606l.388,2.9a20.68,20.68,0,0,0-2.645.531m8.031-.548a20.838,20.838,0,0,0-2.629-.166L118.221,0h.069a23.873,23.873,0,0,1,3,.189Z" transform="translate(-15.523)" fill="#41464b"/>
  </g>
</svg>
