<svg xmlns="http://www.w3.org/2000/svg" xmlns:xlink="http://www.w3.org/1999/xlink" width="522.156" height="214.565" viewBox="0 0 522.156 214.565">
  <defs>
    <clipPath id="clip-path">
      <rect id="Rect치ngulo_3414" data-name="Rect치ngulo 3414" width="522.156" height="214.565" fill="none"/>
    </clipPath>
    <clipPath id="clip-path-2">
      <rect id="Rect치ngulo_3412" data-name="Rect치ngulo 3412" width="520.677" height="214.565" fill="none"/>
    </clipPath>
  </defs>
  <g id="Grupo_12183" data-name="Grupo 12183" transform="translate(-712 -698)">
    <g id="Grupo_12178" data-name="Grupo 12178" transform="translate(713.48 698)" opacity="0.2">
      <g id="Grupo_12177" data-name="Grupo 12177" transform="translate(0)">
        <g id="Grupo_12176" data-name="Grupo 12176" clip-path="url(#clip-path-2)">
          <path id="Trazado_35251" data-name="Trazado 35251" d="M44.81,114.782a23.988,23.988,0,0,0-1.193-2.444,24.258,24.258,0,0,0-1.483-2.277L36.258,111.1a17.259,17.259,0,0,0-3.415-2.658l-.431-5.95a22.775,22.775,0,0,0-5.236-1.444l-3.419,4.885a17.636,17.636,0,0,0-4.294.536l-4.512-3.9a24.385,24.385,0,0,0-2.438,1.188,24.666,24.666,0,0,0-2.278,1.488l1.031,5.875a17.621,17.621,0,0,0-2.656,3.415l-5.95.43A23.068,23.068,0,0,0,1.219,120.2l4.888,3.422a17.656,17.656,0,0,0,.528,4.291l-3.9,4.513a23.632,23.632,0,0,0,1.2,2.442,22.066,22.066,0,0,0,1.482,2.273L11.29,136.1a17.3,17.3,0,0,0,3.412,2.66l.43,5.951a22.823,22.823,0,0,0,5.236,1.436l3.42-4.887a17.337,17.337,0,0,0,4.294-.525l4.512,3.9a24.113,24.113,0,0,0,2.444-1.194,23.644,23.644,0,0,0,2.277-1.487l-1.036-5.869a17.483,17.483,0,0,0,2.658-3.415l5.947-.432a23.122,23.122,0,0,0,1.444-5.234l-4.884-3.422a17.426,17.426,0,0,0-.533-4.29Zm-17.13,15.7A7.913,7.913,0,1,1,30.654,119.7a7.911,7.911,0,0,1-2.975,10.788" transform="translate(-1.218 21.708)" fill="#feffff"/>
          <path id="Trazado_35252" data-name="Trazado 35252" d="M23.249,118.568a3.308,3.308,0,1,1-4.509-1.244,3.3,3.3,0,0,1,4.509,1.244" transform="translate(2.186 25.112)" fill="#feffff"/>
          <path id="Trazado_35253" data-name="Trazado 35253" d="M433.808,8.486a15.568,15.568,0,0,0-.739-1.508,14.347,14.347,0,0,0-.915-1.407l-3.629.641a10.652,10.652,0,0,0-2.111-1.642L426.146.89A14.653,14.653,0,0,0,422.912,0L420.8,3.021a10.778,10.778,0,0,0-2.651.329L415.36.943a12.6,12.6,0,0,0-1.508.737,13.462,13.462,0,0,0-1.408.916l.638,3.627a10.983,10.983,0,0,0-1.64,2.11l-3.675.267a14.159,14.159,0,0,0-.894,3.235l3.023,2.116a10.624,10.624,0,0,0,.328,2.643l-2.413,2.794a16.13,16.13,0,0,0,.739,1.508,14.978,14.978,0,0,0,.92,1.407l3.627-.641a10.911,10.911,0,0,0,2.109,1.645l.268,3.67a13.754,13.754,0,0,0,3.233.89l2.113-3.019a10.571,10.571,0,0,0,2.654-.324l2.788,2.408a15.361,15.361,0,0,0,1.508-.733,15.964,15.964,0,0,0,1.409-.921l-.64-3.627a10.856,10.856,0,0,0,1.64-2.117l3.676-.262a14.11,14.11,0,0,0,.89-3.233l-3.019-2.109a10.82,10.82,0,0,0-.327-2.654Zm-10.585,9.7a4.89,4.89,0,1,1,1.839-6.669,4.888,4.888,0,0,1-1.839,6.669" transform="translate(85.93)" fill="#feffff"/>
          <path id="Trazado_35254" data-name="Trazado 35254" d="M420.485,10.826a2.044,2.044,0,1,1-2.787-.771,2.036,2.036,0,0,1,2.787.771" transform="translate(88.034 2.103)" fill="#feffff"/>
          <path id="Trazado_35255" data-name="Trazado 35255" d="M335.429,137.384a36.285,36.285,0,0,0,2.277-3.766,35.5,35.5,0,0,0,1.794-4.008l-6.547-7.078a28.091,28.091,0,0,0,.624-6.961l7.706-5.79a37.267,37.267,0,0,0-2.619-8.374l-9.632-.371a28.159,28.159,0,0,0-4.478-5.361l1.35-9.549a35.145,35.145,0,0,0-7.771-4.066l-7.072,6.546a28,28,0,0,0-6.965-.621L298.3,80.278a37.183,37.183,0,0,0-8.374,2.616l-.375,9.635a28.61,28.61,0,0,0-5.367,4.483l-9.536-1.357a38,38,0,0,0-2.275,3.766,36.811,36.811,0,0,0-1.793,4.011l6.546,7.075a28.535,28.535,0,0,0-.623,6.957l-7.7,5.791a37.074,37.074,0,0,0,2.613,8.379l9.635.366a28.285,28.285,0,0,0,4.478,5.368l-1.346,9.549a36.1,36.1,0,0,0,7.766,4.061l7.078-6.543a28.171,28.171,0,0,0,6.959.618l5.794,7.7a37.042,37.042,0,0,0,8.378-2.616l.368-9.626a28.672,28.672,0,0,0,5.362-4.484Zm-36.319-9.533a12.79,12.79,0,1,1,17.26-5.4,12.786,12.786,0,0,1-17.26,5.4" transform="translate(56.268 17.246)" fill="#feffff"/>
          <path id="Trazado_35256" data-name="Trazado 35256" d="M304.312,113.537a5.346,5.346,0,1,1-2.256-7.215,5.34,5.34,0,0,1,2.256,7.215" transform="translate(61.731 22.71)" fill="#feffff"/>
          <path id="Trazado_35257" data-name="Trazado 35257" d="M401.043,101.332a37.1,37.1,0,0,0-1.073-4.14,38.053,38.053,0,0,0-1.571-3.986l-9.385-.243a28.15,28.15,0,0,0-4.428-5.179l1.2-9.3a36.257,36.257,0,0,0-7.613-3.873l-6.81,6.46a27.443,27.443,0,0,0-6.79-.528l-5.729-7.434a35.993,35.993,0,0,0-4.145,1.076,37.995,37.995,0,0,0-3.982,1.573l-.245,9.382a27.9,27.9,0,0,0-5.172,4.431l-9.309-1.209a36.52,36.52,0,0,0-3.87,7.622l6.458,6.809a27.612,27.612,0,0,0-.527,6.786l-7.435,5.73a35.092,35.092,0,0,0,2.652,8.122l9.379.254a27.839,27.839,0,0,0,4.429,5.164l-1.2,9.314a36.017,36.017,0,0,0,7.617,3.872l6.809-6.46a27.656,27.656,0,0,0,6.784.526l5.733,7.436a36.1,36.1,0,0,0,4.147-1.076,37.075,37.075,0,0,0,3.974-1.571l.251-9.382a27.863,27.863,0,0,0,5.173-4.432l9.306,1.208a35.976,35.976,0,0,0,3.87-7.619l-6.457-6.816a27.821,27.821,0,0,0,.53-6.786Zm-16.274-2.054-8.241,2.686a12.467,12.467,0,0,0-11.864-6.037l-2.686-8.243a21,21,0,0,1,22.791,11.593m-17.33,13.994a5.2,5.2,0,1,1,3.34-6.56,5.2,5.2,0,0,1-3.34,6.56M356.777,89.378l2.686,8.248a12.454,12.454,0,0,0-6.024,11.867l-8.243,2.688a21,21,0,0,1,11.581-22.8m-9.888,27.991,8.243-2.681A12.449,12.449,0,0,0,367,120.715l2.685,8.243a20.979,20.979,0,0,1-22.792-11.588m27.993,9.888-2.688-8.235a12.469,12.469,0,0,0,6.029-11.867l8.238-2.686a20.984,20.984,0,0,1-11.579,22.788" transform="translate(69.547 15.706)" fill="#feffff"/>
          <path id="Trazado_35258" data-name="Trazado 35258" d="M259.441,62.1a7.055,7.055,0,1,1-4.953-8.665,7.058,7.058,0,0,1,4.953,8.665" transform="translate(51.278 11.425)" fill="#feffff"/>
          <path id="Trazado_35259" data-name="Trazado 35259" d="M163.074,102.544V97.077h-14.32a28.682,28.682,0,0,0-1.109-5.575l13.22-5.489-2.1-5.05-13.222,5.5a28.011,28.011,0,0,0-3.117-4.672l10.124-10.12-3.867-3.864L138.558,77.927a28.168,28.168,0,0,0-4.727-3.14l5.463-13.247-5.051-2.085L128.783,72.7a27.141,27.141,0,0,0-5.509-1.082V57.28H117.81V71.614a28.04,28.04,0,0,0-5.58,1.092L106.742,59.49l-5.048,2.1,5.5,13.22a28.774,28.774,0,0,0-4.669,3.117L92.4,67.809l-3.863,3.864L98.66,81.793a28.383,28.383,0,0,0-3.151,4.737l-13.24-5.47-2.087,5.05,13.237,5.463a28.456,28.456,0,0,0-1.087,5.5H78.008v5.467H92.331a28.5,28.5,0,0,0,1.1,5.575l-13.22,5.495,2.1,5.044,13.22-5.487a28.728,28.728,0,0,0,3.126,4.664L88.532,127.954l3.863,3.864,10.127-10.124a28.736,28.736,0,0,0,4.726,3.154l-5.461,13.23,5.048,2.1,5.464-13.242a28.057,28.057,0,0,0,5.51,1.092v14.32h5.464v-14.32a28.044,28.044,0,0,0,5.571-1.107l5.5,13.225,5.046-2.1-5.5-13.226a27.627,27.627,0,0,0,4.665-3.121l10.124,10.124,3.867-3.864-10.124-10.121a28.749,28.749,0,0,0,3.151-4.732l13.236,5.455,2.087-5.038-13.237-5.466a28.186,28.186,0,0,0,1.092-5.509Zm-42.534,7.922A10.65,10.65,0,1,1,131.195,99.81a10.654,10.654,0,0,1-10.654,10.655" transform="translate(15.279 12.306)" fill="#feffff"/>
          <path id="Trazado_35260" data-name="Trazado 35260" d="M408.129,164.3l.491-3.547-9.274-1.3a18.941,18.941,0,0,0-.2-3.714l9.059-2.353-.9-3.455-9.066,2.358a18.934,18.934,0,0,0-1.6-3.309l7.48-5.631-2.155-2.856-7.481,5.625a18.4,18.4,0,0,0-2.766-2.462l4.74-8.085-3.081-1.81-4.741,8.079a19.047,19.047,0,0,0-3.467-1.2l1.293-9.274-3.535-.5-1.3,9.272a18.76,18.76,0,0,0-3.709.21l-2.357-9.063-3.466.9,2.357,9.068a18.091,18.091,0,0,0-3.3,1.594l-5.65-7.479-2.849,2.151,5.642,7.476a18.382,18.382,0,0,0-2.475,2.783l-8.076-4.75-1.81,3.087,8.07,4.737a18.654,18.654,0,0,0-1.194,3.476l-9.285-1.3-.5,3.53,9.289,1.312a17.651,17.651,0,0,0,.2,3.708l-9.065,2.352.891,3.467,9.077-2.359a18.428,18.428,0,0,0,1.59,3.3l-7.471,5.643,2.147,2.851,7.482-5.636a18.385,18.385,0,0,0,2.776,2.464l-4.746,8.076,3.082,1.819,4.741-8.076a18.644,18.644,0,0,0,3.471,1.2l-1.3,9.284,3.54.5,1.3-9.284a17.49,17.49,0,0,0,3.708-.209l2.364,9.068,3.456-.906-2.356-9.06a19.085,19.085,0,0,0,3.3-1.589l5.643,7.471,2.85-2.15-5.638-7.479a18.229,18.229,0,0,0,2.479-2.776l8.075,4.74,1.808-3.081-8.076-4.735a18.794,18.794,0,0,0,1.21-3.471Zm-28.272,1.261a6.969,6.969,0,1,1,7.868-5.931,6.973,6.973,0,0,1-7.868,5.931" transform="translate(74.363 28.113)" fill="#feffff"/>
          <path id="Trazado_35261" data-name="Trazado 35261" d="M182.337,84.277a30.971,30.971,0,0,0-7.458-.38l-3.148,7.583a24.779,24.779,0,0,0-5.613,1.984l-7.22-3.9a31.7,31.7,0,0,0-5.552,5.006l3.135,7.585a24.212,24.212,0,0,0-2.558,5.379l-7.866,2.349a32.532,32.532,0,0,0-.42,3.722,31.424,31.424,0,0,0,.034,3.739l7.585,3.148a24.172,24.172,0,0,0,1.986,5.61l-3.9,7.216a31.571,31.571,0,0,0,5,5.555l7.59-3.138a23.975,23.975,0,0,0,5.371,2.556l2.351,7.873a32.082,32.082,0,0,0,3.719.414,30.19,30.19,0,0,0,3.739-.027l3.148-7.588a24.047,24.047,0,0,0,5.614-1.994l7.217,3.907a31.854,31.854,0,0,0,5.557-5.005l-3.138-7.59a23.934,23.934,0,0,0,2.562-5.376l7.866-2.349a33.242,33.242,0,0,0,.425-3.714,31.3,31.3,0,0,0-.044-3.734l-7.578-3.159a23.677,23.677,0,0,0-2-5.6l3.9-7.229a31.661,31.661,0,0,0-5-5.552L190.067,94.7a24.276,24.276,0,0,0-5.384-2.557Zm5.542,31.513a10.895,10.895,0,1,1-10.315-11.436,10.9,10.9,0,0,1,10.315,11.436" transform="translate(29.799 18.008)" fill="#feffff"/>
          <path id="Trazado_35262" data-name="Trazado 35262" d="M172.489,105.931a4.552,4.552,0,1,1-4.783,4.315,4.547,4.547,0,0,1,4.783-4.315" transform="translate(34.548 22.756)" fill="#feffff"/>
          <path id="Trazado_35263" data-name="Trazado 35263" d="M245.068,80.258l9.273-.089c.351-.795.679-1.6.967-2.438s.533-1.675.748-2.51l-7.247-5.794,1.3-3.75-1.74-3.573,6.5-6.617a32.8,32.8,0,0,0-2.291-4.716L243.357,51.8l-1.734-3.567-3.754-1.3-.084-9.274c-.793-.349-1.607-.677-2.438-.968s-1.672-.528-2.517-.747l-5.789,7.246L223.289,41.9l-3.568,1.736-6.618-6.5a31.763,31.763,0,0,0-4.711,2.291l1.027,9.224-3.569,1.73-1.294,3.749-9.275.086c-.35.794-.68,1.608-.971,2.444s-.525,1.67-.74,2.509l7.242,5.795-1.294,3.749,1.736,3.566-6.5,6.623a32.014,32.014,0,0,0,2.292,4.711l9.217-1.027L208,86.153l3.751,1.3.083,9.279c.8.349,1.6.672,2.439.961s1.673.539,2.516.751l5.794-7.246,3.751,1.29,3.57-1.73,6.611,6.494a31.749,31.749,0,0,0,4.717-2.288L240.2,85.74l3.57-1.734Zm-9.359-3.4-10.026,4.88-10.531-3.645-4.878-10.018,3.643-10.535,10.02-4.875L234.474,56.3l4.873,10.024Z" transform="translate(40.105 7.723)" fill="#feffff"/>
          <path id="Trazado_35264" data-name="Trazado 35264" d="M226.742,65.018a6.644,6.644,0,1,1-4.113-8.455,6.648,6.648,0,0,1,4.113,8.455" transform="translate(44.455 12.073)" fill="#feffff"/>
          <path id="Trazado_35265" data-name="Trazado 35265" d="M105.957,128.743a31.973,31.973,0,0,0,0-7.966l-8.241-2.929a26.156,26.156,0,0,0-2.433-5.865l3.751-7.907a33.949,33.949,0,0,0-5.627-5.632l-7.9,3.76a25.676,25.676,0,0,0-5.869-2.432l-2.928-8.243a32.158,32.158,0,0,0-7.969,0l-2.93,8.243a25.6,25.6,0,0,0-5.864,2.432l-7.9-3.76a33.829,33.829,0,0,0-5.638,5.632l3.761,7.907a25.6,25.6,0,0,0-2.431,5.865l-8.25,2.929a33.095,33.095,0,0,0,0,7.966l8.25,2.929a25.669,25.669,0,0,0,2.431,5.869l-3.761,7.9a33.622,33.622,0,0,0,5.638,5.636l7.9-3.757a25.855,25.855,0,0,0,5.864,2.427L68.738,158a33.633,33.633,0,0,0,7.969,0l2.928-8.249a25.938,25.938,0,0,0,5.869-2.427l7.9,3.757a33.74,33.74,0,0,0,5.627-5.636l-3.751-7.9a26.231,26.231,0,0,0,2.433-5.869Zm-13.832-6.529H84.041a11.6,11.6,0,0,0-8.769-8.775v-8.082a19.563,19.563,0,0,1,16.852,16.857m-19.4,7.4a4.854,4.854,0,1,1,4.854-4.857,4.856,4.856,0,0,1-4.854,4.857m-2.55-24.259v8.082a11.6,11.6,0,0,0-8.772,8.775H53.313a19.578,19.578,0,0,1,16.858-16.857M53.313,127.309H61.4a11.64,11.64,0,0,0,8.772,8.781v8.079a19.574,19.574,0,0,1-16.858-16.859m21.959,16.859V136.09a11.632,11.632,0,0,0,8.769-8.781h8.084a19.568,19.568,0,0,1-16.852,16.859" transform="translate(6.951 19.61)" fill="#feffff"/>
          <path id="Trazado_35266" data-name="Trazado 35266" d="M389.132,30.2a5.99,5.99,0,1,1-6.292,5.673,5.992,5.992,0,0,1,6.292-5.673" transform="translate(80.766 6.486)" fill="#feffff"/>
          <path id="Trazado_35267" data-name="Trazado 35267" d="M390.8,7.079l-1.815,3.777L386.1,7.829c-.782.183-1.555.383-2.315.607l-.985,4.093-3.465-2.368c-.728.338-1.44.7-2.142,1.095l-.117,4.19-3.867-1.59c-.647.482-1.26,1-1.864,1.519l.751,4.112-4.112-.752c-.528.607-1.035,1.217-1.519,1.855l1.6,3.891-4.195.121c-.39.695-.748,1.4-1.084,2.131l2.368,3.461-4.077.995c-.226.759-.432,1.534-.611,2.318l3.03,2.885-3.765,1.815c-.041.4-.075.795-.091,1.2s-.026.805-.035,1.2l3.564,2.192-3.31,2.558c.09.8.214,1.589.363,2.375l3.949,1.412-2.71,3.191c.262.754.548,1.5.858,2.233l4.162.555-1.995,3.7c.417.678.856,1.347,1.323,2l4.166-.307L368.8,64.52q.825.877,1.69,1.7l4.025-1.187-.317,4.179c.655.459,1.322.894,2.009,1.312l3.689-1.994.566,4.157c.729.313,1.475.593,2.241.849l3.184-2.714,1.413,3.934c.779.164,1.576.279,2.371.373l2.556-3.306,2.2,3.55c.8-.012,1.6-.045,2.392-.121l1.816-3.767,2.9,3.03c.773-.183,1.551-.38,2.3-.62l.995-4.076L408.3,72.18c.725-.341,1.435-.7,2.137-1.087l.112-4.192,3.872,1.593c.649-.482,1.265-.99,1.865-1.519l-.75-4.115,4.115.742c.524-.6,1.031-1.21,1.521-1.855l-1.6-3.877,4.2-.126c.378-.692.743-1.407,1.075-2.131l-2.364-3.459,4.072-1c.231-.759.432-1.532.61-2.311l-3.033-2.895,3.77-1.81c.033-.4.073-.8.1-1.2s.022-.812.026-1.209l-3.557-2.189,3.31-2.561c-.092-.8-.211-1.582-.366-2.368L423.45,33.2l2.716-3.2c-.264-.752-.545-1.5-.852-2.235l-4.168-.543,2-3.7c-.415-.683-.869-1.35-1.316-2l-4.183.317,1.18-4.011c-.55-.589-1.108-1.155-1.7-1.707l-4.015,1.18.316-4.173q-.979-.694-2.014-1.306l-3.692,1.994-.558-4.164c-.731-.309-1.482-.593-2.232-.852l-3.2,2.716-1.41-3.941c-.785-.149-1.572-.272-2.374-.367l-2.557,3.314L393.2,6.96c-.8.015-1.606.052-2.4.119m26,35.285A23.02,23.02,0,1,1,395,18.181,23.014,23.014,0,0,1,416.8,42.364" transform="translate(75.775 1.495)" fill="#feffff"/>
          <path id="Trazado_35268" data-name="Trazado 35268" d="M169.086,42.285l-3.323-.177-.453,8.7a17.054,17.054,0,0,0-3.416.5l-2.92-8.2-3.127,1.113,2.918,8.207a17.118,17.118,0,0,0-2.934,1.746l-5.82-6.465-2.472,2.218,5.826,6.468a17.066,17.066,0,0,0-2.058,2.783l-7.866-3.747-1.425,3.007,7.861,3.73a17.609,17.609,0,0,0-.83,3.315l-8.7-.451-.171,3.312,8.7.458a18.243,18.243,0,0,0,.49,3.42l-8.2,2.918,1.115,3.129,8.2-2.92a17.568,17.568,0,0,0,1.746,2.93l-6.457,5.84L148,86.572l6.457-5.83a17.034,17.034,0,0,0,2.778,2.06l-3.726,7.872L156.5,92.1l3.736-7.873a16.9,16.9,0,0,0,3.309.831l-.456,8.7,3.326.171.448-8.7a17.044,17.044,0,0,0,3.425-.492l2.918,8.2,3.132-1.113-2.922-8.211a17.057,17.057,0,0,0,2.927-1.742l5.829,6.468,2.472-2.228-5.826-6.465a17.691,17.691,0,0,0,2.057-2.773l7.865,3.727,1.425-2.992L182.3,73.871a17.062,17.062,0,0,0,.83-3.308l8.7.456L192,67.7l-8.692-.451a17.627,17.627,0,0,0-.5-3.415l8.2-2.935L189.9,57.777l-8.206,2.918a17.266,17.266,0,0,0-1.753-2.923l6.468-5.832-2.226-2.47L177.718,55.3a17.356,17.356,0,0,0-2.776-2.069l3.736-7.859-3-1.429-3.73,7.861a17.223,17.223,0,0,0-3.31-.831Zm3.473,26.072a6.479,6.479,0,1,1-6.132-6.806,6.472,6.472,0,0,1,6.132,6.806" transform="translate(28.635 9.046)" fill="#feffff"/>
        </g>
      </g>
    </g>
    <path id="Trazado_35269" data-name="Trazado 35269" d="M225.239,141.2H175.008a17.94,17.94,0,0,1-7.514-34.229,18.012,18.012,0,0,1,12.844-30.823,15.433,15.433,0,0,1,4.517.678,17.932,17.932,0,0,1,17.189-23.083,17.628,17.628,0,0,1,13.284,6.047,18.005,18.005,0,0,1,35.682,3.354v52.282A25.806,25.806,0,0,1,225.239,141.2m-44.9-62.016a15.294,15.294,0,0,0-15.168,15.01,14.967,14.967,0,0,0,6.159,12.063,1.517,1.517,0,0,1,.6,1.489,1.5,1.5,0,0,1-1.068,1.189,14.911,14.911,0,0,0,4.151,29.233h50.231a22.771,22.771,0,0,0,22.739-22.743V63.142a14.966,14.966,0,0,0-29.932,0c0,.135,0,.273-.006.408,0,.2-.012.4,0,.6a1.517,1.517,0,0,1-2.866.788,14.72,14.72,0,0,0-13.132-8.165A14.908,14.908,0,0,0,189,78.9a1.514,1.514,0,0,1-2.026,2.076,13.817,13.817,0,0,0-6.631-1.791" transform="translate(745.744 707.711)" fill="#472ea6"/>
    <path id="Trazado_35270" data-name="Trazado 35270" d="M222.628,81.473a17.811,17.811,0,0,1-17.86-18.134,17.808,17.808,0,0,1,17.86-18.134,1.516,1.516,0,0,1,0,3.032,15.105,15.105,0,0,0,0,30.206,1.515,1.515,0,0,1,0,3.03" transform="translate(755.991 707.712)" fill="#472ea6"/>
    <path id="Trazado_35271" data-name="Trazado 35271" d="M197.3,88.023a18.156,18.156,0,0,1-18.135-18.136c0-9.9,7.963-17.656,18.135-17.656a1.517,1.517,0,1,1,0,3.035c-8.471,0-15.1,6.426-15.1,14.622a15.119,15.119,0,0,0,15.1,15.105,1.516,1.516,0,1,1,0,3.031" transform="translate(750.491 709.221)" fill="#472ea6"/>
    <path id="Trazado_35272" data-name="Trazado 35272" d="M179.638,106.844a18.155,18.155,0,0,1-18.131-18.136,17.765,17.765,0,0,1,17.879-18.034,1.518,1.518,0,0,1,0,3.036,14.765,14.765,0,0,0-14.849,15,15.1,15.1,0,0,0,30.209,0,1.514,1.514,0,1,1,3.029,0,18.155,18.155,0,0,1-18.136,18.136" transform="translate(746.697 713.183)" fill="#472ea6"/>
    <path id="Trazado_35273" data-name="Trazado 35273" d="M175.2,127.7a18.158,18.158,0,0,1-18.134-18.135,1.514,1.514,0,1,1,3.029,0,15.105,15.105,0,0,0,30.21,0,1.514,1.514,0,1,1,3.029,0A18.161,18.161,0,0,1,175.2,127.7" transform="translate(745.744 721.211)" fill="#472ea6"/>
    <path id="Trazado_35274" data-name="Trazado 35274" d="M219.181,114.016a1.518,1.518,0,0,1-1.517-1.515,15.1,15.1,0,1,0-30.2,0,1.514,1.514,0,1,1-3.029,0,18.134,18.134,0,1,1,36.269,0,1.519,1.519,0,0,1-1.52,1.515" transform="translate(751.622 718.273)" fill="#472ea6"/>
    <path id="Trazado_35275" data-name="Trazado 35275" d="M206.057,92.218A1.52,1.52,0,0,1,204.54,90.7a18.158,18.158,0,0,1,18.137-18.133,1.515,1.515,0,0,1,0,3.03,15.122,15.122,0,0,0-15.1,15.1,1.52,1.52,0,0,1-1.516,1.521" transform="translate(755.942 713.589)" fill="#472ea6"/>
    <path id="Trazado_35276" data-name="Trazado 35276" d="M312.242,141.2H262a25.8,25.8,0,0,1-25.767-25.773V63.142a18,18,0,0,1,35.675-3.354,17.645,17.645,0,0,1,13.29-6.049,17.933,17.933,0,0,1,17.177,23.132,16.376,16.376,0,0,1,4.533-.618,17.943,17.943,0,0,1,12.844,30.716,17.939,17.939,0,0,1-7.509,34.228m-58.073-92.96a14.921,14.921,0,0,0-14.9,14.906v52.282A22.768,22.768,0,0,0,262,138.166h50.243a14.913,14.913,0,0,0,4.15-29.231,1.508,1.508,0,0,1-.48-2.679,14.9,14.9,0,0,0-9.006-26.969,13.88,13.88,0,0,0-6.633,1.685,1.516,1.516,0,0,1-2.03-2.076A14.84,14.84,0,1,0,272.057,64.94a1.514,1.514,0,0,1-1.744.774,1.532,1.532,0,0,1-1.12-1.562,3.834,3.834,0,0,0,0-.6v-.407a14.985,14.985,0,0,0-15.024-14.906" transform="translate(762.751 707.711)" fill="#472ea6"/>
    <path id="Trazado_35277" data-name="Trazado 35277" d="M251.424,81.473a1.515,1.515,0,0,1,0-3.03,15.105,15.105,0,0,0,0-30.206,1.516,1.516,0,0,1,0-3.032,17.806,17.806,0,0,1,17.868,18.134,17.809,17.809,0,0,1-17.868,18.134" transform="translate(765.69 707.712)" fill="#472ea6"/>
    <path id="Trazado_35278" data-name="Trazado 35278" d="M279.538,88.023c-9.507,0-16.958-7.756-16.958-17.659,0-10,7.615-18.134,16.958-18.134a1.517,1.517,0,1,1,0,3.035c-7.677,0-13.921,6.773-13.921,15.1,0,8.2,6.114,14.628,13.921,14.628a1.516,1.516,0,1,1,0,3.031" transform="translate(768.411 709.221)" fill="#472ea6"/>
    <path id="Trazado_35279" data-name="Trazado 35279" d="M294.457,106.826a1.516,1.516,0,0,1,0-3.032,15.118,15.118,0,0,0,15.1-15.1A14.7,14.7,0,0,0,294.723,73.8a1.517,1.517,0,1,1,0-3.035A17.707,17.707,0,0,1,312.6,88.69a18.159,18.159,0,0,1-18.139,18.136" transform="translate(774.935 713.202)" fill="#472ea6"/>
    <path id="Trazado_35280" data-name="Trazado 35280" d="M301.833,127.7A18.16,18.16,0,0,1,283.7,109.563a1.517,1.517,0,1,1,3.035,0,15.1,15.1,0,1,0,30.2,0,1.519,1.519,0,1,1,3.037,0A18.165,18.165,0,0,1,301.833,127.7" transform="translate(772.949 721.211)" fill="#472ea6"/>
    <path id="Trazado_35281" data-name="Trazado 35281" d="M288.157,114.016a1.515,1.515,0,0,1-1.516-1.515,15.124,15.124,0,0,0-15.1-15.106,1.514,1.514,0,0,1,0-3.029A18.157,18.157,0,0,1,289.676,112.5a1.52,1.52,0,0,1-1.519,1.515" transform="translate(770.011 718.273)" fill="#472ea6"/>
    <path id="Trazado_35282" data-name="Trazado 35282" d="M237.952,92.218a1.517,1.517,0,0,1-1.515-1.521,18.148,18.148,0,0,1,18.127-18.133,1.515,1.515,0,1,1,0,3.03,15.116,15.116,0,0,0-15.1,15.1,1.518,1.518,0,0,1-1.515,1.521" transform="translate(762.795 713.589)" fill="#472ea6"/>
    <path id="Trazado_35283" data-name="Trazado 35283" d="M257.863,127.7a1.516,1.516,0,1,1,0-3.031,15.127,15.127,0,0,0,15.1-15.1,1.517,1.517,0,1,1,3.035,0A18.162,18.162,0,0,1,257.863,127.7" transform="translate(767.072 721.211)" fill="#472ea6"/>
    <path id="Trazado_35284" data-name="Trazado 35284" d="M148.9,185.055c-8.674,0-15.731-7.3-15.731-16.284V95.918c0-7.31-5.521-13.254-12.306-13.254s-12.305,5.944-12.305,13.254v17.7A16.3,16.3,0,0,1,92.27,129.9h-17.4a1.516,1.516,0,1,1,0-3.031h17.4a13.269,13.269,0,0,0,13.254-13.255v-17.7c0-8.98,6.88-16.285,15.336-16.285s15.337,7.3,15.337,16.285v72.854c0,7.307,5.7,13.253,12.7,13.253s12.7-5.945,12.7-13.253V147.113a16.3,16.3,0,0,1,16.284-16.285h52.9a1.515,1.515,0,1,1,0,3.03h-52.9a13.27,13.27,0,0,0-13.254,13.255v21.658c0,8.979-7.057,16.284-15.731,16.284" transform="translate(727.758 715.108)" fill="#ff8f00"/>
    <path id="Trazado_35285" data-name="Trazado 35285" d="M396.293,183.891c-8.674,0-15.73-7.3-15.73-16.284V118.384c0-7.307-5.52-13.254-12.3-13.254a11.8,11.8,0,0,0-8.669,3.846,13.675,13.675,0,0,0-3.637,9.408c0,.029,0,.056,0,.084a16.3,16.3,0,0,1-16.284,16.177H284.848a1.516,1.516,0,0,1,0-3.031h54.819a13.269,13.269,0,0,0,13.254-13.254c0-.028,0-.056,0-.084a16.693,16.693,0,0,1,4.456-11.37A14.8,14.8,0,0,1,368.26,102.1c8.455,0,15.334,7.306,15.334,16.285v49.224c0,7.307,5.7,13.253,12.7,13.253s12.7-5.945,12.7-13.253V77.026a1.515,1.515,0,1,1,3.03,0v90.582c0,8.979-7.057,16.284-15.732,16.284" transform="translate(772.87 714.222)" fill="#ff8f00"/>
    <path id="Trazado_35286" data-name="Trazado 35286" d="M388.614,77.6a3.151,3.151,0,0,1-3.417-2.982,1.609,1.609,0,0,1,3.2-.233.7.7,0,0,0,.556-.053,1.445,1.445,0,0,1,1.537-1.459,1.675,1.675,0,0,1,1.527,1.746,3.137,3.137,0,0,1-3.4,2.982" transform="translate(794.754 713.656)" fill="#ff8f00"/>
    <path id="Trazado_35287" data-name="Trazado 35287" d="M391.812,71.232c-7.187,0-15.58-2.335-15.58-8.919-.046-.711-1.253-4.506-1.833-6.331l-.109-.333c-2.012-6.1-3.975-12.424-3.975-16.876a21.508,21.508,0,1,1,43.015,0c0,4.62-2.281,11.611-3.948,16.716l-.1.31a63.653,63.653,0,0,0-1.889,6.527c0,6.571-8.392,8.906-15.58,8.906m0-51.047a18.549,18.549,0,0,0-18.467,18.588c0,4.338,2.392,11.588,3.819,15.918l.123.373c1.366,4.3,1.975,6.363,1.975,7.249,0,4.648,7.888,5.888,12.549,5.888s12.55-1.24,12.55-5.888c0-.955.655-3.161,2.034-7.442l.1-.322c1.6-4.91,3.8-11.637,3.8-15.776a18.559,18.559,0,0,0-18.487-18.588" transform="translate(791.556 701.685)" fill="#ff8f00"/>
    <path id="Trazado_35288" data-name="Trazado 35288" d="M390.364,67.841a24.714,24.714,0,0,1-8.077-1.218c-4.557-1.7-5.236-4.568-5.236-6.128a1.516,1.516,0,1,1,3.031,0c0,1.356,1.122,2.492,3.246,3.281a21.663,21.663,0,0,0,7.036,1.034c4.942,0,10.262-1.35,10.262-4.315a1.515,1.515,0,1,1,3.03,0c0,5.416-6.865,7.346-13.292,7.346" transform="translate(793.003 710.671)" fill="#ff8f00"/>
    <path id="Trazado_35289" data-name="Trazado 35289" d="M390.364,72.3a24.714,24.714,0,0,1-8.077-1.218c-4.557-1.7-5.236-4.568-5.236-6.129a1.516,1.516,0,0,1,3.031,0c0,1.357,1.122,2.492,3.246,3.282a21.663,21.663,0,0,0,7.036,1.034c4.942,0,10.262-1.35,10.262-4.316a1.515,1.515,0,1,1,3.03,0c0,5.417-6.865,7.347-13.292,7.347" transform="translate(793.003 711.628)" fill="#ff8f00"/>
    <path id="Trazado_35290" data-name="Trazado 35290" d="M390.364,76.756a24.714,24.714,0,0,1-8.077-1.218c-4.557-1.7-5.236-4.567-5.236-6.128a1.516,1.516,0,0,1,3.031,0c0,1.357,1.122,2.492,3.246,3.281a21.661,21.661,0,0,0,7.036,1.035c4.942,0,10.262-1.35,10.262-4.316a1.515,1.515,0,1,1,3.03,0c0,5.417-6.865,7.346-13.292,7.346" transform="translate(793.003 712.586)" fill="#ff8f00"/>
    <path id="Trazado_35291" data-name="Trazado 35291" d="M38.131,148.1H9.654A9.665,9.665,0,0,1,0,138.451V109.967a9.662,9.662,0,0,1,9.654-9.648H38.131a9.662,9.662,0,0,1,9.654,9.648v28.484a9.665,9.665,0,0,1-9.654,9.652M9.654,103.35a6.628,6.628,0,0,0-6.623,6.617v28.484a6.63,6.63,0,0,0,6.623,6.621H38.131a6.63,6.63,0,0,0,6.623-6.621V109.967a6.628,6.628,0,0,0-6.623-6.617Z" transform="translate(712 719.552)" fill="#00ffe2"/>
    <path id="Trazado_35292" data-name="Trazado 35292" d="M22.218,136.963a14.427,14.427,0,1,1,14.426-14.425,14.442,14.442,0,0,1-14.426,14.425m0-25.823a11.4,11.4,0,1,0,11.4,11.4,11.41,11.41,0,0,0-11.4-11.4" transform="translate(713.674 721.226)" fill="#00ffe2"/>
    <path id="Trazado_35293" data-name="Trazado 35293" d="M25.294,123.794a3.237,3.237,0,1,1,3.238-3.235,3.239,3.239,0,0,1-3.238,3.235m0-3.443a.207.207,0,0,0-.205.208c0,.225.412.225.412,0a.207.207,0,0,0-.207-.208" transform="translate(716.739 723.204)" fill="#00ffe2"/>
    <path id="Trazado_35294" data-name="Trazado 35294" d="M15.184,123.794a3.237,3.237,0,1,1,3.236-3.235,3.24,3.24,0,0,1-3.236,3.235m0-3.443a.207.207,0,0,0-.207.208c0,.225.412.225.412,0a.207.207,0,0,0-.205-.208" transform="translate(714.566 723.204)" fill="#00ffe2"/>
    <path id="Trazado_35295" data-name="Trazado 35295" d="M62.409,136.963H58.258a1.514,1.514,0,0,1-1.515-1.515V109.624a1.515,1.515,0,0,1,1.515-1.515h4.151a1.515,1.515,0,0,1,1.515,1.515v25.824a1.514,1.514,0,0,1-1.515,1.515m-2.636-3.031h1.12V111.14h-1.12Z" transform="translate(724.19 721.226)" fill="#ff8f00"/>
    <path id="Trazado_35296" data-name="Trazado 35296" d="M67.9,133.3H61.675a1.515,1.515,0,1,1,0-3.03H67.9a8.284,8.284,0,1,0,0-16.568H61.675a1.516,1.516,0,1,1,0-3.031H67.9a11.314,11.314,0,1,1,0,22.629" transform="translate(724.924 721.776)" fill="#ff8f00"/>
    <path id="Trazado_35297" data-name="Trazado 35297" d="M60.369,130.451H47.9a1.516,1.516,0,0,1,0-3.031H58.853V115.693H47.9a1.516,1.516,0,0,1,0-3.031H60.369a1.516,1.516,0,0,1,1.516,1.515v14.758a1.517,1.517,0,0,1-1.516,1.516" transform="translate(721.965 722.204)" fill="#ff8f00"/>
    <path id="Trazado_35298" data-name="Trazado 35298" d="M419.756,35.881h-8.37a1.516,1.516,0,0,1,0-3.031h8.37a1.516,1.516,0,0,1,0,3.031" transform="translate(800.054 705.057)" fill="#ff8f00"/>
    <path id="Trazado_35299" data-name="Trazado 35299" d="M366.669,35.881H358.3a1.516,1.516,0,0,1,0-3.031h8.37a1.516,1.516,0,0,1,0,3.031" transform="translate(788.649 705.057)" fill="#ff8f00"/>
    <path id="Trazado_35300" data-name="Trazado 35300" d="M388.286,14.262a1.515,1.515,0,0,1-1.515-1.514V4.378a1.516,1.516,0,0,1,3.031,0v8.37a1.516,1.516,0,0,1-1.516,1.514" transform="translate(795.092 698.615)" fill="#ff8f00"/>
    <path id="Trazado_35301" data-name="Trazado 35301" d="M367.082,58.133a1.515,1.515,0,0,1-1.071-2.586l5.916-5.919a1.516,1.516,0,0,1,2.145,2.142l-5.917,5.92a1.517,1.517,0,0,1-1.073.443" transform="translate(790.536 708.566)" fill="#ff8f00"/>
    <path id="Trazado_35302" data-name="Trazado 35302" d="M404.62,20.595a1.515,1.515,0,0,1-1.071-2.586l5.916-5.92a1.516,1.516,0,0,1,2.143,2.145l-5.917,5.917a1.51,1.51,0,0,1-1.07.443" transform="translate(798.601 700.502)" fill="#ff8f00"/>
    <path id="Trazado_35303" data-name="Trazado 35303" d="M373,20.593a1.514,1.514,0,0,1-1.071-.443l-5.916-5.916a1.516,1.516,0,1,1,2.142-2.145l5.917,5.917A1.516,1.516,0,0,1,373,20.593" transform="translate(790.536 700.502)" fill="#ff8f00"/>
    <path id="Trazado_35304" data-name="Trazado 35304" d="M410.539,58.131a1.514,1.514,0,0,1-1.071-.443l-5.919-5.917a1.515,1.515,0,1,1,2.142-2.144l5.92,5.917a1.515,1.515,0,0,1-1.071,2.588" transform="translate(798.601 708.566)" fill="#ff8f00"/>
  </g>
</svg>
