<svg id="Grupo_12175" data-name="Grupo 12175" xmlns="http://www.w3.org/2000/svg" xmlns:xlink="http://www.w3.org/1999/xlink" width="242.32" height="242.312" viewBox="0 0 242.32 242.312">
  <defs>
    <clipPath id="clip-path">
      <rect id="Rectángulo_3400" data-name="Rectángulo 3400" width="242.32" height="242.312" fill="none"/>
    </clipPath>
    <clipPath id="clip-path-2">
      <rect id="Rectángulo_3399" data-name="Rectángulo 3399" width="242.321" height="242.311" fill="none"/>
    </clipPath>
    <clipPath id="clip-path-3">
      <rect id="Rectángulo_3398" data-name="Rectángulo 3398" width="212.503" height="226.992" fill="none"/>
    </clipPath>
    <clipPath id="clip-path-4">
      <path id="Trazado_35209" data-name="Trazado 35209" d="M280.45,193.43a4.414,4.414,0,0,0-3.691-2.067L271.507,87.6a4.424,4.424,0,1,0-4.442-6.36L167.239,38.856a4.411,4.411,0,1,0-8.106.482l-82.4,47.19a4.421,4.421,0,1,0-3.177,6.813l18.985,105.5a4.418,4.418,0,1,0,4.723,6.732l82.8,47.993a4.415,4.415,0,1,0,7.8-.181l85.363-54.894a4.413,4.413,0,0,0,7.218-5.063M76.062,92.193A4.409,4.409,0,0,0,77,87.013l82.4-47.189a4.4,4.4,0,0,0,.638.756L98.658,113.4a4.418,4.418,0,0,0-4.977-.2c-.083.052-.15.12-.228.177l-5.9-7.182ZM274.08,192.24a4.4,4.4,0,0,0-1.7,4.423l-98.9,23.282a4.172,4.172,0,0,0-2.125-2.6L220.015,112a4.4,4.4,0,0,0,3.695-.237L234.9,129.643Zm-56.846-83.763a4.3,4.3,0,0,0,2.28,3.283l-48.66,105.35a4.4,4.4,0,0,0-3.9.343L98.782,120.391a4.4,4.4,0,0,0,1.661-3.476l71.295-5.152Zm1.345-3.812a4.413,4.413,0,0,0-1.38,3.258l-93.885,6.783-22.907,1.655a4.2,4.2,0,0,0-1.327-2.594l61.376-72.822a4.419,4.419,0,0,0,4.976.2c.09-.056.161-.129.245-.19L184.34,63.427Zm-122.4,16.692a4.38,4.38,0,0,0,2.155-.633l68.173,97.063a4.379,4.379,0,0,0-1.459,2.143L97.936,203.876A4.374,4.374,0,0,0,94,198.732l1.184-41.939Zm86.346,130.015-.046-.107-11.228-26.114c.12-.061.244-.106.36-.178a4.423,4.423,0,0,0,2.01-4.491L272.519,197.2a4.383,4.383,0,0,0,.389.846l-85.34,54.881a4.411,4.411,0,0,0-5.04-1.553m93.68-59.975a4.387,4.387,0,0,0-1.664.538l-50.363-80.47a4.4,4.4,0,0,0,1.493-5.3l41.519-20.732c.025.043.038.089.065.132a4.413,4.413,0,0,0,3.7,2.067ZM266.852,81.75a4.4,4.4,0,0,0,.093,3.184l-41.519,20.732c-.025-.043-.038-.089-.065-.131a4.425,4.425,0,0,0-6.1-1.4c-.09.056-.161.129-.245.19l-52.9-63.714a4.375,4.375,0,0,0,.91-1.244ZM74.1,93.237a4.383,4.383,0,0,0,1.3-.529c.083-.052.149-.12.227-.176l6.762,8.236,10.63,12.95a4.406,4.406,0,0,0,2.611,7.624L93.44,198.718c-.118,0-.235.009-.353.022ZM97.539,205.093a4.431,4.431,0,0,0,.265-.675l67.116,16.051a4.4,4.4,0,0,0,5.832,4.918l11.279,26.219c-.12.061-.245.106-.362.179a4.4,4.4,0,0,0-1.325,1.3Z" transform="translate(-68.622 -32.967)" fill="none"/>
    </clipPath>
    <linearGradient id="linear-gradient" x1="0.031" y1="0.994" x2="0.032" y2="0.994" gradientUnits="objectBoundingBox">
      <stop offset="0" stop-color="#027ab3"/>
      <stop offset="0.021" stop-color="#027ab3"/>
      <stop offset="0.495" stop-color="#c7549f"/>
      <stop offset="1" stop-color="#027ab3"/>
    </linearGradient>
  </defs>
  <g id="Grupo_12168" data-name="Grupo 12168" clip-path="url(#clip-path)">
    <g id="Grupo_12167" data-name="Grupo 12167" transform="translate(0 0.001)">
      <g id="Grupo_12166" data-name="Grupo 12166" clip-path="url(#clip-path-2)">
        <path id="Trazado_35208" data-name="Trazado 35208" d="M187.165,161.1c.916,1.1,1.591,2.273,1.187,3.719-.813,2.9-1.63,5.8-2.655,8.627-.458,1.26-.742,3.514-2.837,2.634-1.844-.774-2.273-2.58-2.062-4.765.434-4.489,3.167-7.351,6.368-10.216m2.646-111.5c1.4.71,2.315,2.731,4.428,1.928.745-.282,1.212-.709.711-1.315-1.68-2.041-1.066-3.8.743-5.127,1.594-1.166,3.235-2.5,5.312-2.706a9,9,0,0,0,5.219-2.184c-6.462-1.093-13.26,1.909-15.918,6.894-.4.761-1.757,1.87-.495,2.51M124.859,60.268c-.4-.969-.946-2.33-2.679-1.962a20.054,20.054,0,0,1-5.005.55c-.8-.038-1.561-.878-2.172.3-.488.944.237,1.589.487,2.393.565,1.807,2.3,1.164,3.236,1.852,1.786.544,2.849-1.012,4.349-1.248.816-.128,2.324-.57,1.784-1.885M152.3,39.7a8.986,8.986,0,0,0,1.92,1.066c.841.233,1.278-.434,1.752-1.088.632-.874,1.211-1.936,2.528-1.987.6,2.662,2,2.434,4.414,1.287l-2.922-1.372c.441-1.176-1.492-.421-1.2-1.476A11.521,11.521,0,0,0,161.772,36c1.537-.477,4.209-.124,4.03-2.315-.126-1.556-2.509-.612-3.875-.838-.852-.141-1.694-.347-2.549-.465-1.616-.221-2.282.627-2.308,2.143-1.357.147-2.38-1.214-3.882-.75-.855.265-2.143-.707-2.681.539-.968,2.238,3.3,2.873,1.791,5.392m37.508-6.875a.911.911,0,0,0-.249-.66c-.9-1.035-7.286-.637-8.9.834,2.757.246,5.2.5,7.658.656.567.035,1.315-.037,1.495-.829M56.46,119.04c2.7.177,3.827,5.768,8,2.35-2.861-1.109-4.995-3.23-8-2.35m8.357,5.812c2.1.493,3.761-.8,5.872-.982-3.1-2.384-4.31-2.155-5.872.982m130.326-95.8c.011.026.026.052.04.078.026,0,.046-.012.073-.017Zm.274,2.342c1.394-.88.141-1.535-.234-2.264-1.176.2-1.515.913-1.042,1.988a.861.861,0,0,0,1.277.276M60.163,124.261c.052.63.554.734,1.036.762a.933.933,0,0,0,1.166-.844,4.138,4.138,0,0,0-1.325-.836.79.79,0,0,0-.877.918m182.158-3.176A121.209,121.209,0,0,1,120.957,242.316C55.042,242.467.807,188.363.009,122.918-.793,57.065,51.766,1.293,118.681.028c69.785-1.319,123.81,55.522,123.64,121.057M38.555,36.1c.567-.159,1.184-.717,1.625.107a.538.538,0,0,1,.126.088l-.064.021a5.488,5.488,0,0,1,2.345,1.9,1.737,1.737,0,0,1,1.19-.317c.226.069.459.126.693.179.047-.037.1-.066.15-.1-.524-.1-1.005-.229-.531-1.184a1.147,1.147,0,0,0,1.1-.535c-.158-.161-.315-.323-.479-.477-.465-1.19-2.922-2.073-.949-3.649a3.371,3.371,0,0,0-.159-.32.541.541,0,0,1-.441-.586c-1.7,1.473-3.845,2.518-4.606,4.876M59.424,77.05c.961-1.405,2.953-2.811,1.33-5-1.449-3.036-1.111-6.079-.035-9.124-.7-1.638.1-2.7,1.608-2.433,3.861.7,2.824-2.664,3.238-4.162.481-1.741-3.931-4.6-6.173-4.4-2.3.484-1.692,2.051-1.295,3.517.347,1.282.778,2.571-1.277,2.707l-1.438.852q.373,1.2.745,2.39c-2.422,2.386-3.281,2.527-4.357.718l-1.113-.138a15.5,15.5,0,0,0-1.96,1.131c-6.391,5-6.18,6.264.748,10.186,2.337,1.323,5.258,1.715,7.021,3.86.869,1.057.6,3.738,1.871,3.672,2.115-.106.2-2.48,1.086-3.774m-9.543,8.693a4.678,4.678,0,0,0-2.608,2.01L50.53,87.5c1.021-1.042-.993-.967-.648-1.76M51.3,93.278c1.009-1.075,1.595-2.19,1.041-3.536a.766.766,0,0,0-.684-.045c-.993,1.078-.548,2.358-.357,3.581M56.9,90.985c.621-.047,1.633.532,1.707-.477.07-.954-.942-.877-1.675-.858a.809.809,0,0,1-.033,1.334m-2.293-38.9c-5.287.2-7.5-2.2-5.745-6.226.044-.035.089-.068.134-.1l-.5-.5c-.915.63-1.549,1.7-2.865,1.7-.7,0-1.452.9-1.072,1.108,2.256,1.261,2.381,5.3,3.766,5.3,2.828-.019,2.136,2.27,2.982,3.308,2.157-1.052,1.791-3.453,3.3-4.585m57.918-23.2c-.069-.016-.139-.023-.207-.042-.1-.016-.194-.022-.292-.03v.036c.035,0,.069,0,.1.007l.4.028M33.892,49.173a5.394,5.394,0,0,0,.844.692c.672-.614,2.851,1.269,2.294-1.384-2.173-2.282,1.532-3.605.919-5.633l2.2.216c.7.309,1.144.744.824,1.549a1.23,1.23,0,0,1,.366.214,2.711,2.711,0,0,1,.889-1.893,1.633,1.633,0,0,1-1.3-.611q-.015-.325-.032-.649a3.364,3.364,0,0,0-3.386-1.243,1.419,1.419,0,0,1,.259,1.869c-1.8.2-3.011-1.188-4.562-1.658-1.362,1.627-3.614,3.127-3.871,4.914-.367,2.555,3.253,2.023,4.558,3.618m200.037,93.36a3.428,3.428,0,0,1-.822-1.277c-1.065-2.491.46-2.177,2.005-1.822,1.236.093,1.707-.585,1.729-1.715a19.01,19.01,0,0,1-.7-5.237c-.13-1.895,1.9-5.674-3-4.808-.265.046-.869-.645-.974-1.075-.579-2.364-1.19-5.319-3.529-5.831-2.367-.52-3.88,2.368-5.732,3.815-.6.468-1.254.866-1.854,1.335-3.354,2.623-4.248,6.348-2.269,10.05.675,1.264,1.333,2.334-.068,3.8-.628-1.079-1.005-2.562-1.637-2.679-4.25-.794-5.182-4.494-5.47-7.468-.434-4.489-2.662-7.638-5.235-10.869-2.837-3.561-6.548-1.774-11.159-2.219,4.08,2.863,2.485,5.314,1.011,7.5-2.386,3.537-12.12,7.381-15.629,6.427l-.008-.011h0v0l-.012-.209a8.508,8.508,0,0,0-1.909-6.98c-1.049-2.42-1.846-4.98-3.858-6.859l-1.33-.007q1.3,2.69,2.6,5.379c-.147,3.717,3.164,5.636,4.473,8.6l-.009.083c.018.006.037.008.055.012,1.186,1.768,1.7,4.572,4.991,2.875,1.043-.539,2.382-1.716,3.467-.684.976.929.092,2.5-.207,3.6a7.965,7.965,0,0,1-1.224,3.006c-2.156,2.8-4.641,5.263-6.951,7.887-2.494,2.832-4.062,6.4-2.671,10.641.9,2.752,2.782,6.3-.48,8.364-3.283,2.078-5.295,3.99-3.981,8.074.28.869-.62,1.576-1.452,2.029a3.576,3.576,0,0,0-1.527,2.532c-1.218,4.473-7.518,9.328-12.051,9.292-1.555-.012-2.648-.47-2.833-2.335-.541-5.436-3.23-10.243-4.773-15.392-.87-2.907-1.573-5.379-.252-8.374,1.245-2.824,1.825-6.426-.576-8.646-3.25-3-3.395-6.371-2.936-10.14.077-.629.486-1.316-.283-1.6-3.494-1.311-7-2.776-10.814-1.2a21.075,21.075,0,0,1-5.964,1.041,2.807,2.807,0,0,1-3.111-1.69c-1.962-4.973-8.129-8.549-5.152-15.193a1.392,1.392,0,0,0-.073-.753c-1.01-4.574.853-8.045,4.232-10.9a4.622,4.622,0,0,0,2.012-3.424c.276-3.662,3.252-6.084,7.1-6.232.765-.03,1.889.51,2.05-.933,3.1-.1,5.989-1.513,9.165-1.384,2.29.093,4.192-.028,3.06,3.233-.61,1.757.917,2.476,2.144,3.06,1.891.9,4.841,3.334,5.682,1.942,2.6-4.294,5.252-1.184,7.817-.844,3.027.4,6.029,1.207,8.276-1.788.149-1.3-.654-2.724-1.538-2.694-3.471.119-6.1-2.224-9.286-2.777-1.463.957-3.032,2.011-3.187-.976-.054-1.034-.722-1.466-1.233-2.1-1.27-1.084-1.666.448-2.449.817-.576.443-.54,1.462-1.475,1.565-.342.916-.469,2.174-1.945,1.6-.539-.21-1.179-.706-1.017-1.419.29-1.27,1.564-.367,2.229-.883.018-3.584-3.674-3.875-5.313-5.988q-.11,1.434-.217,2.868a1.622,1.622,0,0,1,.042,2.091A.929.929,0,0,1,147,98.57c-.462-.672-1.306-1.426-.012-2.131-1.092-1.165-.321-2.4-.133-3.61-6.084.1-7.351,5.373-9.928,9.238h0a16.394,16.394,0,0,0-2.591.043c-2.158.364-4.481.14-5.371-1.805-1.005-2.2.781-4.81.042-7.284a5.651,5.651,0,0,1,1.649-.541c1.007-.07,2.024.045,3.037.069,3.754.087,3.929-.226,2.082-3.7-.963-.846-3-.26-3.089-2.263-.081-1.763,1.488-1.369,2.452-1.762-.479-1.068-2.137-.032-2.382-1.413a.565.565,0,0,1,.055-.54c.012-1.154-.413-1.869-1.713-1.705-.982.195-2.525,1.652-2.764.311-.2-1.152-.976-3.28.848-4.269a38.171,38.171,0,0,1,4.106-1.678c-2.314-.453-1.314-1.933-1-3.205.216-.867.86-1.478,1.63-1.166,1,.4,2.023.683,2.246,2.339.363,2.683,2.543,4.59,3.993,6.8.341.751,1.037.86,1.738.959-.151.072-.3.152-.442.233a1.38,1.38,0,0,0,.442-.233c.787-.566,1.535-1.543,2.369-1.623,3.106-.3,2.923-1.979,2.15-4.181a5.293,5.293,0,0,1,.053-1.847c-.231-1.206-2.149-.3-2.187-1.745.006-.506.2-1.124-.013-1.5-2.351-4.062.518-5.737,3.3-7.565,2.534-1.664,5.385-3.466,6.477-6.16a9.473,9.473,0,0,1,6-5.5c2.886-1.108,6.351-2.192,8.9-.29a15.711,15.711,0,0,0,6.839,3.221c3.145.536,3.963,2.15,2.951,4.959l-.077.008.05.071c.01-.027.017-.052.027-.079.873-.1,2.376-.144,2.394-.332.391-3.963,1.892-5.138,5.25-2.353,2.463-2.539,5.758-1.528,8.65-1.78,3.164-.275,6.133-3.431,9.512-.795q.443-.443.885-.885a5.732,5.732,0,0,1-.211-1.48c.293-2.44,1.528-4.783,3.966-4.674,2.614.117,1.47,2.919,1.784,4.616l.174-.01.151-.009c.864-1.7,1.474-3.823,5.091-1.552A104.946,104.946,0,0,0,202.647,34.4c-1.027-.933-1.855-2.544-3.763-1.236-.593.406-1.327-.217-.99-.988,1.329-3.04-1.031-2.712-2.636-3.09.4-1.717-1.175-2.075-2.073-2.735-28.4-20.894-59.937-28.665-94.7-22.116a112.492,112.492,0,0,0-50.755,23.4,4.926,4.926,0,0,0-3,2.264c2.2-.914,4.577-.985,6.871-1.445,2.965-.089,6.118.429,8.853-.408A37.8,37.8,0,0,1,73.4,26.865c1.468.062,3.7-.205,3.968,2.327,1.4-.063,2.618-1.309,4.129-.626,1.425.162,2.91-.24,4.233.762,1.791,1.356,2.845-2.384,4.746-.784l1.075-.12a30.08,30.08,0,0,1,18.109-2.984c2.571.325,5.1,1,7.641,1.521,1.112.748,1.437,1.71-.186,1.831-.836.062-1.687.185-2.542.228A80.784,80.784,0,0,1,126.4,30.21c-1.87,1.13-3.974,1.954-5.273,3.843-.962,1.4-3.738,2.578-.675,4.584-1.562,2.179-1.249,5.037-2.615,7.247a3.154,3.154,0,0,0-.726,1.507c-.474,5.674-1.888,7.23-7.808,8.064-2.039.287-3.918.328-4.611,2.747a1.575,1.575,0,0,1-1.1.964c-6.449.09-6.061,5.891-8.132,9.632-10.116-4.7-12.031-8.231-8.042-14.849-3.042.382-5.149-.081-3.544-3.911l-.189-.862c-2.222-.964.4-2.7-.834-4.277C79.8,41.02,76.839,39.534,71.38,41c-1.571.423-2.3-.24-3.415-.74-1.411-.634-1.559-1.925-1.629-3.051-.083-1.362,1.381-1.254,2.266-1.58,1.18-.435,2.413-.728,3.623-1.082-.776-1.063-1.98-1.288-3.141-1.6-4.509.581-6.281,4.84-9.54,7.1-.814,1.158.272,3.226-1.81,3.777a.553.553,0,0,1-.034.681c3.2-1.579,4.381,1.874,6.439,2.9,1.426.712,2.812,1.819,4.414,2.476,1.531.628,3.063,1.357,2.741,3.52-.305,2.053,1.346,1.725,2.536,2.111,4.018,1.305,4,1.349,2.076,4.873a.781.781,0,0,1-.242.323L73.876,63.1h0l-1.02,1.431c-1.059,2.617-3.649-.468-4.931,1.323h0c1.476.347,1.193,1.482,1.441,2.6.348,1.572,1.961,2.779,3.1,1.059,1.532-2.319,1.888-.951,2.635.311,1.657,2.794,2.614,6.084,5.949,7.685.456.22,3.588,1.007,1,2.925.542,2.093,2.336,3.132,3.8,4.42a1.866,1.866,0,0,1,.79,1.958c-.352.969-1.3.3-1.94.273-1.732-.065-3.459-.3-5.116-.452-.624-1.766,2.253-3.123.286-4.834-1.21.077-1.693,1.658-3.033,1.467-1.25-.939-2.437-.7-4.106.034l3.17,1.195c-2.12.646-2.521,1.933-1.411,3.783.5,1.082,2.519.352,2.468,1.783s-1.721,1.623-2.643,2.376c-1.654,1.351-1.791-1.116-2.87-1.333-3.211,3.285-7.277,5.687-9.129,10.334-1.826,4.585-6.552,8.1-3.912,14.515a5.979,5.979,0,0,1-3.164-3.487c-1.152-2.225-3.79-3.527-5.223-2.37a4.119,4.119,0,0,1-3.686.923c-2.389-.308-4.375.132-5.242,2.6-1.342,3.831-.148,8.084,2.739,9.8,2.763,1.641,3.366-1.183,4.679-2.453.676-.655,1.338-1.277,2.316-.813,1.087.517.7,1.51.54,2.346a8.622,8.622,0,0,1-.68,2.164c-.856,1.73-.74,2.639,1.549,2.375,2.541-.292,3.505,1.011,3.055,3.452a6.406,6.406,0,0,0,.146,3.384c.174.13.333.245.495.363,1.513.86,3.579-.025,5.054,1.528.826.869,1.293-1.091,2.089-1.509,1.3-.68,1.478-3.591,3.921-1.982.78-.2,1.576-.77,2.311.1,1.7.723,3.193,1.79,5.357,1.094,2.2-.707,2.634,2.013,4.061,2.969,2.742,1.836,6.247,2.1,8.623,4.524.423.431,1.3.792,1.309,1.2.095,6.448,5.13,6.02,9.28,6.659,5.8.893,7.761,5.375,4.134,10.034a12.258,12.258,0,0,0-2.866,7.226,8.8,8.8,0,0,1-5.2,8.144c-2.5,1.227-4.678,3.166-5.111,6.6-.35,2.774-2.615,4.8-4.81,6.509-1.54,1.195-4.163,1.427-3.319,4.428.071.251-.559.983-.921,1.028-5.739.72-5.9,6.419-7.87,9.92-1.018,1.809-1.234,4.822-2.414,7.291-.726,1.522.839,3.78,2.59,5.072-3.55,2.429-3.837,2.368-6.275-.859-.819-1.084-1.744-2.09-2.62-3.131-1.676-2.245-1.219-4.515-.078-6.792,1.794-2.822,1.5-5.925,1.691-9.11.479-7.9,3.194-15.544,3.08-23.577-.025-1.692.5-3.688-1.071-4.536-5.057-2.739-6.007-8.268-8.7-12.529-2.386-3.778-.841-8.108,1.158-11.82,1.639-3.045,1.157-4.566-2.148-5.214-2.09-.41-4.267-.851-4.788-3.484-2.146-4.247-6.068-5.634-10.354-6.487-4.561-.909-9.056-1.892-9.866-7.708a4.247,4.247,0,0,0-1.987-2.67c-.894-2.958-3.759-4.691-4.729-7.6-.144.168-.287.337-.431.5a2.652,2.652,0,0,0,.153.246,22.331,22.331,0,0,0,2.553,4.107c.788.914,1.768,1.84.808,3.219-3.954-1.26-5.3-4.436-5.963-8.114-4.859-6.037-10.316-11.826-8.544-20.612a1.555,1.555,0,0,1-.3-.742c-.774-1.9-1.593-3.7-3.768-4.756-1.5-.733-1.288.79-2.013.874A116.132,116.132,0,0,0,5.03,147.736c13.937,61.819,75.436,103,137.561,90.611,47.041-9.379,77.944-38.049,92.984-83.687,1.44-4.372,2.581-8.569-1.647-12.127M209.673,58.791a6.689,6.689,0,0,0,3.446-4.272,1.357,1.357,0,0,1-1.715-.036c.312,1.369-.579,2.433-1.731,4.308m-11.14,33.348c1.422-.776.586-1.853.376-2.846q-.744.5-1.489,1c1.587-.113,1.513.77,1.112,1.851m-6.945-2.03c-1.364-2.184-2.686-2.355-4.5-.913-1.591,1.262-2.329,2.293-.864,4.251,1.056,1.411,2.554,2.863.771,5.152-.767.983,1.142,1.944,2.265,2.492.627.305,1.66,1.127,1.942.325.689-1.963.8-4.618-.317-5.95-2.017-2.413-3.714-4,.707-5.357m-5.358,20.327c.907,1.9.428,3.933,2.3,5.05.045-1.711,1.39-.926,2.208-1.151-1.47-1.1-2.2-3.026-4.5-3.9M162.574,69.818h0l5.247-.969c-2.246-2.372-4.221-.676-6.224-.007-1.768-1.36-1.741-3.156-1.228-5.069-1.4-1.582-2.07,1.151-3.3.554-1.757.877-1.546,2.059-.522,3.368.615.786,1.652,2.062.827,2.578-2.473,1.546-2.284,5.717-6.05,5.9-.67.033-1.327.748-.9,1.927a16.926,16.926,0,0,1,4.239-.752c3.319.242,4.441-1.622,4.868-4.406,1.4-.666.737-3.338,3.04-3.129M175.111,95.53c1.288.576,3.1.852,3.771-.541.744-1.535-.9-2.362-2.084-3.086-.428-.263-.9-.461-1.345-.69-.067-.728,1.386-1.466.072-2.146a1.566,1.566,0,0,0-1.962.605c-.708,1.253,1.383.564,1.261,1.554-1.389.415-3.029,2.2-3.663-.92-.215-1.057-1.305-1.046-1.988-.206-.712.877-1.252,1.892-1.9,2.827-.5.722-1.238,1.363-.53,2.351s1.672.469,2.433.245a8.13,8.13,0,0,1,5.932.006m.606-34.9a1.637,1.637,0,0,1-1.948,0c.135,1.284.79,2.358,2.105,1.933.908-.292-.112-1.259-.158-1.935m63.857,76.12c-.166-2.1.738-4.019-1-6.134-.719,2.57-.686,4.314,1,6.134" transform="translate(0 -0.005)" fill="#cedcff"/>
        <g id="Grupo_12165" data-name="Grupo 12165" transform="translate(14.909 7.162)" style="mix-blend-mode: multiply;isolation: isolate">
          <g id="Grupo_12164" data-name="Grupo 12164">
            <g id="Grupo_12163" data-name="Grupo 12163" clip-path="url(#clip-path-3)">
              <g id="Grupo_12162" data-name="Grupo 12162" transform="translate(0 -0.001)">
                <g id="Grupo_12161" data-name="Grupo 12161" clip-path="url(#clip-path-4)">
                  <rect id="Rectángulo_3397" data-name="Rectángulo 3397" width="258.198" height="246.091" transform="matrix(0.153, -0.988, 0.988, 0.153, -35.064, 222.293)" fill="url(#linear-gradient)"/>
                </g>
              </g>
            </g>
          </g>
        </g>
      </g>
    </g>
  </g>
</svg>
