<svg xmlns="http://www.w3.org/2000/svg" width="1074.938" height="425.203" viewBox="0 0 1074.938 425.203">
  <g id="Grupo_17656" data-name="Grupo 17656" transform="translate(-422 -7553)">
    <g id="Elipse_940" data-name="Elipse 940" transform="translate(968 7781)" fill="#fff" stroke="#707070" stroke-width="1">
      <ellipse cx="2.5" cy="1" rx="2.5" ry="1" stroke="none"/>
      <ellipse cx="2.5" cy="1" rx="2" ry="0.5" fill="none"/>
    </g>
    <circle id="Elipse_943" data-name="Elipse 943" cx="137" cy="137" r="137" transform="translate(422 7553)" fill="#472ea6"/>
    <path id="Trazado_36220" data-name="Trazado 36220" d="M18.936-48.945q9.5,0,13.74,7.827,3.281,6.05,3.281,16.577,0,9.98-2.974,16.509Q28.677,1.333,18.9,1.333A14.1,14.1,0,0,1,5.776-6.323Q2.188-12.715,2.188-23.481A42.394,42.394,0,0,1,4.341-37.8Q8.374-48.945,18.936-48.945ZM18.867-4.272a8.755,8.755,0,0,0,7.622-4.238q2.837-4.238,2.837-15.791a39.014,39.014,0,0,0-2.051-13.723q-2.051-5.383-7.964-5.383a8.325,8.325,0,0,0-7.947,5.11q-2.512,5.11-2.512,15.056a36.973,36.973,0,0,0,1.606,12.031Q12.92-4.272,18.867-4.272ZM57.114,1.333q-8.682,0-12.6-4.768a17.7,17.7,0,0,1-3.914-11.6h6.426q.41,4.751,1.777,6.9Q51.2-4.272,57.456-4.272a11.337,11.337,0,0,0,7.793-2.6,8.53,8.53,0,0,0,2.939-6.7q0-5.059-3.093-7.075t-8.6-2.017q-.615,0-1.248.017t-1.282.051v-5.435q.957.1,1.606.137t1.4.034a12.844,12.844,0,0,0,5.674-1.094q3.9-1.914,3.9-6.836a6.675,6.675,0,0,0-2.6-5.64,9.693,9.693,0,0,0-6.05-1.982q-6.152,0-8.511,4.1a14.217,14.217,0,0,0-1.47,6.426H41.836a18.461,18.461,0,0,1,2.188-9.3q3.76-6.836,13.228-6.836,7.485,0,11.587,3.333t4.1,9.656a10.776,10.776,0,0,1-2.427,7.314,10.193,10.193,0,0,1-3.9,2.734,10.62,10.62,0,0,1,6.033,4.084,12.359,12.359,0,0,1,2.17,7.4A15.082,15.082,0,0,1,70.205-3.076Q65.591,1.333,57.114,1.333Z" transform="translate(466 7655)" fill="#00ffe2"/>
    <path id="Trazado_36222" data-name="Trazado 36222" d="M7.568.264A5.879,5.879,0,0,1,11.8,1.7a5.07,5.07,0,0,1,1.67,3.262H11.572a3.943,3.943,0,0,0-1.284-2.2,4.07,4.07,0,0,0-2.7-.811A4.33,4.33,0,0,0,4.165,3.442a6.789,6.789,0,0,0-1.3,4.565,6.631,6.631,0,0,0,1.177,4.087,4.112,4.112,0,0,0,3.511,1.567,3.709,3.709,0,0,0,3.271-1.65,6.277,6.277,0,0,0,.889-2.285H13.6a6.474,6.474,0,0,1-1.68,3.8,5.977,5.977,0,0,1-4.609,1.846,6.084,6.084,0,0,1-4.2-1.514q-2.236-2-2.236-6.182a7.9,7.9,0,0,1,1.68-5.205A6.135,6.135,0,0,1,7.568.264Zm12.314,13.6a2.424,2.424,0,0,0,2.4-1.323A6.592,6.592,0,0,0,22.93,9.6a5.242,5.242,0,0,0-.469-2.383A2.637,2.637,0,0,0,19.9,5.771,2.523,2.523,0,0,0,17.559,7a5.7,5.7,0,0,0-.732,2.969,4.961,4.961,0,0,0,.732,2.783A2.58,2.58,0,0,0,19.883,13.867Zm.068-9.629a4.736,4.736,0,0,1,3.418,1.348,5.263,5.263,0,0,1,1.4,3.965,6.8,6.8,0,0,1-1.23,4.18,4.451,4.451,0,0,1-3.818,1.65,4.311,4.311,0,0,1-3.428-1.46A5.767,5.767,0,0,1,15.02,10a6.239,6.239,0,0,1,1.338-4.2A4.49,4.49,0,0,1,19.951,4.238ZM21.992.332,19.385,3.154H18.037L19.824.332Zm4.863,4.209h1.738V6.025A5.843,5.843,0,0,1,29.727,4.9a3.407,3.407,0,0,1,1.973-.6,3.1,3.1,0,0,1,2.012.615,3.216,3.216,0,0,1,.781,1.035,3.8,3.8,0,0,1,1.377-1.245,3.841,3.841,0,0,1,1.777-.405A2.906,2.906,0,0,1,40.518,5.83a4.98,4.98,0,0,1,.41,2.207V15H39.1V7.734A1.692,1.692,0,0,0,38.579,6.3,2.068,2.068,0,0,0,37.3,5.908a2.53,2.53,0,0,0-1.782.693,3.045,3.045,0,0,0-.747,2.314V15H32.988V8.174a3.547,3.547,0,0,0-.254-1.553,1.548,1.548,0,0,0-1.494-.732,2.578,2.578,0,0,0-1.812.771,3.781,3.781,0,0,0-.815,2.793V15H26.855Zm20.811,9.326a2.424,2.424,0,0,0,2.4-1.323A6.592,6.592,0,0,0,50.713,9.6a5.242,5.242,0,0,0-.469-2.383,2.637,2.637,0,0,0-2.559-1.445A2.523,2.523,0,0,0,45.342,7a5.7,5.7,0,0,0-.732,2.969,4.961,4.961,0,0,0,.732,2.783A2.58,2.58,0,0,0,47.666,13.867Zm.068-9.629a4.736,4.736,0,0,1,3.418,1.348,5.263,5.263,0,0,1,1.4,3.965,6.8,6.8,0,0,1-1.23,4.18,4.451,4.451,0,0,1-3.818,1.65,4.311,4.311,0,0,1-3.428-1.46A5.767,5.767,0,0,1,42.8,10a6.239,6.239,0,0,1,1.338-4.2A4.49,4.49,0,0,1,47.734,4.238Zm14.219.3v6.943a2.928,2.928,0,0,0,.254,1.309,1.772,1.772,0,0,0,1.748.938,2.471,2.471,0,0,0,2.5-1.641,6.509,6.509,0,0,0,.361-2.412V4.541h1.758V15h-1.66l.02-1.543a3.546,3.546,0,0,1-.85,1.006,3.739,3.739,0,0,1-2.441.82A3.149,3.149,0,0,1,60.6,13.789a4.45,4.45,0,0,1-.439-2.139V4.541Zm10.41,7.178a2.556,2.556,0,0,0,.439,1.348,2.762,2.762,0,0,0,2.3.85,3.4,3.4,0,0,0,1.719-.425,1.411,1.411,0,0,0,.742-1.313,1.123,1.123,0,0,0-.6-1.025,7.083,7.083,0,0,0-1.5-.5l-1.4-.352A6.812,6.812,0,0,1,72.1,9.561a2.218,2.218,0,0,1-1.133-1.973,3.014,3.014,0,0,1,1.069-2.4,4.266,4.266,0,0,1,2.876-.918A3.992,3.992,0,0,1,78.32,5.654a3.009,3.009,0,0,1,.635,1.895h-1.66a2.034,2.034,0,0,0-.42-1.084,2.678,2.678,0,0,0-2.1-.693,2.51,2.51,0,0,0-1.509.381,1.194,1.194,0,0,0-.513,1.006,1.238,1.238,0,0,0,.674,1.094,4.049,4.049,0,0,0,1.152.43l1.162.283a8.985,8.985,0,0,1,2.539.889,2.353,2.353,0,0,1,1.025,2.119,3.229,3.229,0,0,1-1.06,2.412A4.51,4.51,0,0,1,75.02,15.4a4.33,4.33,0,0,1-3.306-1.06,4.007,4.007,0,0,1-1.04-2.622Zm10.3.5a1.448,1.448,0,0,0,.557,1.2,2.064,2.064,0,0,0,1.318.439,4.008,4.008,0,0,0,1.8-.43A2.418,2.418,0,0,0,87.8,11.094V9.678a3.007,3.007,0,0,1-.83.342,7.073,7.073,0,0,1-1,.2l-1.064.137a4.071,4.071,0,0,0-1.436.4A1.56,1.56,0,0,0,82.666,12.217Zm4.258-3.555a.955.955,0,0,0,.811-.508,1.545,1.545,0,0,0,.117-.674,1.428,1.428,0,0,0-.64-1.3,3.432,3.432,0,0,0-1.831-.405,2.327,2.327,0,0,0-1.953.742,2.442,2.442,0,0,0-.42,1.221H81.367a3.02,3.02,0,0,1,1.255-2.69,5.152,5.152,0,0,1,2.8-.757,5.693,5.693,0,0,1,3,.7,2.385,2.385,0,0,1,1.143,2.188V13.2a.771.771,0,0,0,.112.439.542.542,0,0,0,.474.166q.117,0,.264-.015t.313-.044v1.3a4.9,4.9,0,0,1-.625.146,4.567,4.567,0,0,1-.586.029,1.446,1.446,0,0,1-1.318-.645,2.487,2.487,0,0,1-.3-.967,4.472,4.472,0,0,1-1.543,1.221,4.773,4.773,0,0,1-2.217.518,3.3,3.3,0,0,1-2.378-.884,2.936,2.936,0,0,1-.923-2.212A2.849,2.849,0,0,1,81.738,10a4.321,4.321,0,0,1,2.383-.986ZM92.49,4.541h1.67V6.348a3.992,3.992,0,0,1,1.006-1.284,2.608,2.608,0,0,1,1.846-.757q.049,0,.166.01t.4.039V6.211a2.625,2.625,0,0,0-.288-.039q-.132-.01-.288-.01a2.508,2.508,0,0,0-2.041.854,2.983,2.983,0,0,0-.713,1.968V15H92.49ZM104.707.654h1.758V15h-1.758Zm5.742,11.563a1.448,1.448,0,0,0,.557,1.2,2.064,2.064,0,0,0,1.318.439,4.008,4.008,0,0,0,1.8-.43,2.418,2.418,0,0,0,1.465-2.334V9.678a3.007,3.007,0,0,1-.83.342,7.073,7.073,0,0,1-1,.2l-1.064.137a4.071,4.071,0,0,0-1.436.4A1.56,1.56,0,0,0,110.449,12.217Zm4.258-3.555a.955.955,0,0,0,.811-.508,1.545,1.545,0,0,0,.117-.674,1.428,1.428,0,0,0-.64-1.3,3.432,3.432,0,0,0-1.831-.405,2.327,2.327,0,0,0-1.953.742,2.442,2.442,0,0,0-.42,1.221H109.15a3.02,3.02,0,0,1,1.255-2.69,5.152,5.152,0,0,1,2.8-.757,5.693,5.693,0,0,1,3,.7,2.385,2.385,0,0,1,1.143,2.188V13.2a.771.771,0,0,0,.112.439.542.542,0,0,0,.474.166q.117,0,.264-.015t.313-.044v1.3a4.9,4.9,0,0,1-.625.146,4.567,4.567,0,0,1-.586.029,1.446,1.446,0,0,1-1.318-.645,2.487,2.487,0,0,1-.3-.967,4.472,4.472,0,0,1-1.543,1.221,4.773,4.773,0,0,1-2.217.518,3.3,3.3,0,0,1-2.378-.884,2.936,2.936,0,0,1-.923-2.212A2.849,2.849,0,0,1,109.521,10a4.321,4.321,0,0,1,2.383-.986Zm6.563,3.057a2.556,2.556,0,0,0,.439,1.348,2.762,2.762,0,0,0,2.3.85,3.4,3.4,0,0,0,1.719-.425,1.411,1.411,0,0,0,.742-1.313,1.123,1.123,0,0,0-.6-1.025,7.083,7.083,0,0,0-1.5-.5l-1.4-.352a6.812,6.812,0,0,1-1.973-.742,2.218,2.218,0,0,1-1.133-1.973,3.014,3.014,0,0,1,1.069-2.4,4.266,4.266,0,0,1,2.876-.918,3.992,3.992,0,0,1,3.408,1.387,3.009,3.009,0,0,1,.635,1.895H126.2a2.034,2.034,0,0,0-.42-1.084,2.678,2.678,0,0,0-2.1-.693,2.51,2.51,0,0,0-1.509.381,1.194,1.194,0,0,0-.513,1.006,1.238,1.238,0,0,0,.674,1.094,4.049,4.049,0,0,0,1.152.43l1.162.283a8.985,8.985,0,0,1,2.539.889,2.353,2.353,0,0,1,1.025,2.119,3.229,3.229,0,0,1-1.06,2.412,4.51,4.51,0,0,1-3.228,1.016,4.33,4.33,0,0,1-3.306-1.06,4.007,4.007,0,0,1-1.04-2.622Zm14.951-8.77a3.134,3.134,0,0,1,.381-1.6,2.692,2.692,0,0,1,2.373-.9q.166,0,.342.01t.4.029v1.6q-.273-.02-.4-.024t-.229,0q-.8,0-.957.415a8.205,8.205,0,0,0-.156,2.114h1.738V5.977h-1.758V15h-1.738V5.977h-1.455V4.59h1.455Zm9.268,10.918a2.424,2.424,0,0,0,2.4-1.323,6.592,6.592,0,0,0,.649-2.944,5.242,5.242,0,0,0-.469-2.383,2.637,2.637,0,0,0-2.559-1.445A2.523,2.523,0,0,0,143.164,7a5.7,5.7,0,0,0-.732,2.969,4.961,4.961,0,0,0,.732,2.783A2.58,2.58,0,0,0,145.488,13.867Zm.068-9.629a4.736,4.736,0,0,1,3.418,1.348,5.263,5.263,0,0,1,1.4,3.965,6.8,6.8,0,0,1-1.23,4.18,4.451,4.451,0,0,1-3.818,1.65,4.311,4.311,0,0,1-3.428-1.46A5.767,5.767,0,0,1,140.625,10a6.239,6.239,0,0,1,1.338-4.2A4.49,4.49,0,0,1,145.557,4.238Zm6.953.3h1.67V6.348a3.992,3.992,0,0,1,1.006-1.284,2.608,2.608,0,0,1,1.846-.757q.049,0,.166.01t.4.039V6.211a2.626,2.626,0,0,0-.288-.039q-.132-.01-.288-.01a2.508,2.508,0,0,0-2.041.854,2.983,2.983,0,0,0-.713,1.968V15H152.51Zm6.963-2.92h1.777v2.92h1.67V5.977h-1.67V12.8a.739.739,0,0,0,.371.732,1.577,1.577,0,0,0,.684.107q.127,0,.273,0t.342-.024V15a3.924,3.924,0,0,1-.63.127,5.988,5.988,0,0,1-.708.039,1.908,1.908,0,0,1-1.67-.63,2.8,2.8,0,0,1-.439-1.636V5.977h-1.416V4.541h1.416Zm6.553,10.6a1.448,1.448,0,0,0,.557,1.2,2.064,2.064,0,0,0,1.318.439,4.008,4.008,0,0,0,1.8-.43,2.418,2.418,0,0,0,1.465-2.334V9.678a3.007,3.007,0,0,1-.83.342,7.074,7.074,0,0,1-1,.2l-1.064.137a4.071,4.071,0,0,0-1.436.4A1.56,1.56,0,0,0,166.025,12.217Zm4.258-3.555a.955.955,0,0,0,.811-.508,1.545,1.545,0,0,0,.117-.674,1.428,1.428,0,0,0-.64-1.3,3.432,3.432,0,0,0-1.831-.405,2.327,2.327,0,0,0-1.953.742,2.442,2.442,0,0,0-.42,1.221h-1.641a3.02,3.02,0,0,1,1.255-2.69,5.152,5.152,0,0,1,2.8-.757,5.693,5.693,0,0,1,3,.7,2.385,2.385,0,0,1,1.143,2.188V13.2a.771.771,0,0,0,.112.439.542.542,0,0,0,.474.166q.117,0,.264-.015t.313-.044v1.3a4.9,4.9,0,0,1-.625.146,4.567,4.567,0,0,1-.586.029,1.446,1.446,0,0,1-1.318-.645,2.487,2.487,0,0,1-.3-.967,4.472,4.472,0,0,1-1.543,1.221,4.773,4.773,0,0,1-2.217.518,3.3,3.3,0,0,1-2.378-.884,2.936,2.936,0,0,1-.923-2.212A2.849,2.849,0,0,1,165.1,10a4.321,4.321,0,0,1,2.383-.986ZM175.85.654h1.758V15H175.85Zm8.75,3.652a4.771,4.771,0,0,1,2.158.522,3.98,3.98,0,0,1,1.592,1.353,4.666,4.666,0,0,1,.7,1.846,12.075,12.075,0,0,1,.156,2.3h-7.666a4.473,4.473,0,0,0,.752,2.554,2.518,2.518,0,0,0,2.178.962,2.815,2.815,0,0,0,2.2-.908,3.062,3.062,0,0,0,.664-1.221h1.729A3.641,3.641,0,0,1,188.608,13a4.567,4.567,0,0,1-.864,1.157,4.1,4.1,0,0,1-1.982,1.055,6.022,6.022,0,0,1-1.436.156,4.4,4.4,0,0,1-3.311-1.421,5.529,5.529,0,0,1-1.357-3.979,6.011,6.011,0,0,1,1.367-4.092A4.51,4.51,0,0,1,184.6,4.307Zm2.8,4.629a4.554,4.554,0,0,0-.5-1.826,2.553,2.553,0,0,0-2.412-1.27,2.674,2.674,0,0,0-2.031.874,3.3,3.3,0,0,0-.869,2.222Zm3.184,4.678,6.2-7.5h-5.742V4.541h8.105V5.977l-6.162,7.451h6.348V15h-8.75Zm12.129-1.4a1.448,1.448,0,0,0,.557,1.2,2.064,2.064,0,0,0,1.318.439,4.008,4.008,0,0,0,1.8-.43,2.418,2.418,0,0,0,1.465-2.334V9.678a3.007,3.007,0,0,1-.83.342,7.074,7.074,0,0,1-1,.2l-1.064.137a4.071,4.071,0,0,0-1.436.4A1.56,1.56,0,0,0,202.715,12.217Zm4.258-3.555a.955.955,0,0,0,.811-.508,1.545,1.545,0,0,0,.117-.674,1.428,1.428,0,0,0-.64-1.3,3.432,3.432,0,0,0-1.831-.405,2.327,2.327,0,0,0-1.953.742,2.442,2.442,0,0,0-.42,1.221h-1.641a3.02,3.02,0,0,1,1.255-2.69,5.152,5.152,0,0,1,2.8-.757,5.693,5.693,0,0,1,3,.7,2.385,2.385,0,0,1,1.143,2.188V13.2a.771.771,0,0,0,.112.439.542.542,0,0,0,.474.166q.117,0,.264-.015t.313-.044v1.3a4.9,4.9,0,0,1-.625.146,4.567,4.567,0,0,1-.586.029,1.446,1.446,0,0,1-1.318-.645,2.487,2.487,0,0,1-.3-.967,4.472,4.472,0,0,1-1.543,1.221,4.773,4.773,0,0,1-2.217.518,3.3,3.3,0,0,1-2.378-.884,2.936,2.936,0,0,1-.923-2.212A2.849,2.849,0,0,1,201.787,10a4.321,4.321,0,0,1,2.383-.986Zm6.563,3.057a2.556,2.556,0,0,0,.439,1.348,2.762,2.762,0,0,0,2.3.85A3.4,3.4,0,0,0,218,13.491a1.411,1.411,0,0,0,.742-1.313,1.123,1.123,0,0,0-.6-1.025,7.082,7.082,0,0,0-1.5-.5l-1.4-.352a6.812,6.812,0,0,1-1.973-.742,2.218,2.218,0,0,1-1.133-1.973,3.014,3.014,0,0,1,1.069-2.4,4.266,4.266,0,0,1,2.876-.918,3.992,3.992,0,0,1,3.408,1.387,3.009,3.009,0,0,1,.635,1.895h-1.66a2.034,2.034,0,0,0-.42-1.084,2.678,2.678,0,0,0-2.1-.693,2.51,2.51,0,0,0-1.509.381,1.194,1.194,0,0,0-.513,1.006,1.238,1.238,0,0,0,.674,1.094,4.049,4.049,0,0,0,1.152.43l1.162.283a8.985,8.985,0,0,1,2.539.889,2.353,2.353,0,0,1,1.025,2.119,3.229,3.229,0,0,1-1.06,2.412,4.51,4.51,0,0,1-3.228,1.016,4.33,4.33,0,0,1-3.306-1.06,4.007,4.007,0,0,1-1.04-2.622ZM234.58,4.541h1.943q-.371,1.006-1.65,4.59-.957,2.7-1.6,4.395a29.709,29.709,0,0,1-2.148,4.883,2.456,2.456,0,0,1-2.148.879,4.215,4.215,0,0,1-.571-.029,4.512,4.512,0,0,1-.493-.107v-1.6a6.064,6.064,0,0,0,.664.156,2.592,2.592,0,0,0,.361.029,1.265,1.265,0,0,0,.718-.161,1.486,1.486,0,0,0,.386-.4q.049-.078.352-.8t.439-1.074L226.963,4.541h1.992l2.8,8.516Zm13.379-.234a4.771,4.771,0,0,1,2.158.522,3.98,3.98,0,0,1,1.592,1.353,4.666,4.666,0,0,1,.7,1.846,12.075,12.075,0,0,1,.156,2.3H244.9a4.473,4.473,0,0,0,.752,2.554,2.518,2.518,0,0,0,2.178.962,2.815,2.815,0,0,0,2.2-.908,3.062,3.062,0,0,0,.664-1.221h1.729A3.641,3.641,0,0,1,251.968,13a4.567,4.567,0,0,1-.864,1.157,4.1,4.1,0,0,1-1.982,1.055,6.022,6.022,0,0,1-1.436.156,4.4,4.4,0,0,1-3.311-1.421,5.529,5.529,0,0,1-1.357-3.979,6.011,6.011,0,0,1,1.367-4.092A4.51,4.51,0,0,1,247.959,4.307Zm2.8,4.629a4.554,4.554,0,0,0-.5-1.826,2.553,2.553,0,0,0-2.412-1.27,2.674,2.674,0,0,0-2.031.874,3.3,3.3,0,0,0-.869,2.222Zm4.824-4.395,2.793,8.516,2.92-8.516h1.924L259.277,15H257.4L253.545,4.541Zm9.141.049h1.787V15h-1.787Zm0-3.936h1.787V2.646h-1.787Zm4.795.967H271.3v2.92h1.67V5.977H271.3V12.8a.739.739,0,0,0,.371.732,1.577,1.577,0,0,0,.684.107q.127,0,.273,0t.342-.024V15a3.924,3.924,0,0,1-.63.127,5.989,5.989,0,0,1-.708.039,1.908,1.908,0,0,1-1.67-.63,2.8,2.8,0,0,1-.439-1.636V5.977h-1.416V4.541h1.416Zm6.553,10.6a1.448,1.448,0,0,0,.557,1.2,2.064,2.064,0,0,0,1.318.439,4.008,4.008,0,0,0,1.8-.43,2.418,2.418,0,0,0,1.465-2.334V9.678a3.007,3.007,0,0,1-.83.342,7.073,7.073,0,0,1-1,.2l-1.064.137a4.071,4.071,0,0,0-1.436.4A1.56,1.56,0,0,0,276.074,12.217Zm4.258-3.555a.955.955,0,0,0,.811-.508,1.545,1.545,0,0,0,.117-.674,1.428,1.428,0,0,0-.64-1.3,3.432,3.432,0,0,0-1.831-.405,2.327,2.327,0,0,0-1.953.742,2.442,2.442,0,0,0-.42,1.221h-1.641a3.02,3.02,0,0,1,1.255-2.69,5.152,5.152,0,0,1,2.8-.757,5.693,5.693,0,0,1,3,.7,2.385,2.385,0,0,1,1.143,2.188V13.2a.772.772,0,0,0,.112.439.542.542,0,0,0,.474.166q.117,0,.264-.015t.313-.044v1.3a4.9,4.9,0,0,1-.625.146,4.567,4.567,0,0,1-.586.029,1.446,1.446,0,0,1-1.318-.645,2.488,2.488,0,0,1-.3-.967,4.472,4.472,0,0,1-1.543,1.221,4.773,4.773,0,0,1-2.217.518,3.3,3.3,0,0,1-2.378-.884,2.936,2.936,0,0,1-.923-2.212A2.849,2.849,0,0,1,275.146,10a4.321,4.321,0,0,1,2.383-.986ZM285.9,4.541h1.67V6.348a3.992,3.992,0,0,1,1.006-1.284,2.608,2.608,0,0,1,1.846-.757q.049,0,.166.01t.4.039V6.211a2.625,2.625,0,0,0-.288-.039q-.132-.01-.288-.01a2.508,2.508,0,0,0-2.041.854,2.983,2.983,0,0,0-.713,1.968V15H285.9ZM298.115.654h1.758V15h-1.758Zm5.742,11.563a1.448,1.448,0,0,0,.557,1.2,2.064,2.064,0,0,0,1.318.439,4.008,4.008,0,0,0,1.8-.43,2.418,2.418,0,0,0,1.465-2.334V9.678a3.007,3.007,0,0,1-.83.342,7.073,7.073,0,0,1-1,.2l-1.064.137a4.071,4.071,0,0,0-1.436.4A1.56,1.56,0,0,0,303.857,12.217Zm4.258-3.555a.955.955,0,0,0,.811-.508,1.545,1.545,0,0,0,.117-.674,1.428,1.428,0,0,0-.64-1.3,3.432,3.432,0,0,0-1.831-.405,2.327,2.327,0,0,0-1.953.742,2.442,2.442,0,0,0-.42,1.221h-1.641a3.02,3.02,0,0,1,1.255-2.69,5.152,5.152,0,0,1,2.8-.757,5.693,5.693,0,0,1,3,.7,2.385,2.385,0,0,1,1.143,2.188V13.2a.772.772,0,0,0,.112.439.542.542,0,0,0,.474.166q.117,0,.264-.015t.313-.044v1.3a4.9,4.9,0,0,1-.625.146,4.567,4.567,0,0,1-.586.029,1.446,1.446,0,0,1-1.318-.645,2.488,2.488,0,0,1-.3-.967,4.472,4.472,0,0,1-1.543,1.221,4.773,4.773,0,0,1-2.217.518,3.3,3.3,0,0,1-2.378-.884,2.936,2.936,0,0,1-.923-2.212A2.849,2.849,0,0,1,302.93,10a4.321,4.321,0,0,1,2.383-.986Zm6.563,3.057a2.556,2.556,0,0,0,.439,1.348,2.762,2.762,0,0,0,2.3.85,3.4,3.4,0,0,0,1.719-.425,1.411,1.411,0,0,0,.742-1.313,1.123,1.123,0,0,0-.6-1.025,7.083,7.083,0,0,0-1.5-.5l-1.4-.352a6.812,6.812,0,0,1-1.973-.742,2.218,2.218,0,0,1-1.133-1.973,3.014,3.014,0,0,1,1.069-2.4,4.266,4.266,0,0,1,2.876-.918,3.992,3.992,0,0,1,3.408,1.387,3.009,3.009,0,0,1,.635,1.895h-1.66a2.034,2.034,0,0,0-.42-1.084,2.678,2.678,0,0,0-2.1-.693,2.51,2.51,0,0,0-1.509.381,1.194,1.194,0,0,0-.513,1.006,1.238,1.238,0,0,0,.674,1.094,4.049,4.049,0,0,0,1.152.43l1.162.283a8.985,8.985,0,0,1,2.539.889,2.353,2.353,0,0,1,1.025,2.119,3.229,3.229,0,0,1-1.06,2.412,4.51,4.51,0,0,1-3.228,1.016,4.33,4.33,0,0,1-3.306-1.06,4.007,4.007,0,0,1-1.04-2.622ZM2.637,42.217a1.448,1.448,0,0,0,.557,1.2,2.064,2.064,0,0,0,1.318.439,4.008,4.008,0,0,0,1.8-.43,2.418,2.418,0,0,0,1.465-2.334V39.678a3.007,3.007,0,0,1-.83.342,7.073,7.073,0,0,1-1,.2l-1.064.137a4.071,4.071,0,0,0-1.436.4A1.56,1.56,0,0,0,2.637,42.217Zm4.258-3.555a.955.955,0,0,0,.811-.508,1.545,1.545,0,0,0,.117-.674,1.428,1.428,0,0,0-.64-1.3,3.432,3.432,0,0,0-1.831-.405,2.327,2.327,0,0,0-1.953.742,2.442,2.442,0,0,0-.42,1.221H1.338a3.02,3.02,0,0,1,1.255-2.69,5.152,5.152,0,0,1,2.8-.757,5.693,5.693,0,0,1,3,.7,2.385,2.385,0,0,1,1.143,2.188V43.2a.771.771,0,0,0,.112.439.542.542,0,0,0,.474.166q.117,0,.264-.015t.313-.044v1.3a4.9,4.9,0,0,1-.625.146,4.567,4.567,0,0,1-.586.029,1.446,1.446,0,0,1-1.318-.645,2.487,2.487,0,0,1-.3-.967,4.472,4.472,0,0,1-1.543,1.221,4.773,4.773,0,0,1-2.217.518,3.3,3.3,0,0,1-2.378-.884A2.936,2.936,0,0,1,.8,42.256,2.849,2.849,0,0,1,1.709,40a4.321,4.321,0,0,1,2.383-.986Zm5.518-4.121H14.15v1.484A5.843,5.843,0,0,1,15.283,34.9a3.407,3.407,0,0,1,1.973-.6,3.1,3.1,0,0,1,2.012.615,3.216,3.216,0,0,1,.781,1.035,3.8,3.8,0,0,1,1.377-1.245,3.841,3.841,0,0,1,1.777-.405,2.906,2.906,0,0,1,2.871,1.523,4.98,4.98,0,0,1,.41,2.207V45H24.658V37.734a1.692,1.692,0,0,0-.522-1.436,2.068,2.068,0,0,0-1.274-.391,2.53,2.53,0,0,0-1.782.693,3.045,3.045,0,0,0-.747,2.314V45H18.545V38.174a3.547,3.547,0,0,0-.254-1.553,1.548,1.548,0,0,0-1.494-.732,2.578,2.578,0,0,0-1.812.771,3.781,3.781,0,0,0-.815,2.793V45H12.412Zm21.016-.234a4.771,4.771,0,0,1,2.158.522,3.98,3.98,0,0,1,1.592,1.353,4.666,4.666,0,0,1,.7,1.846,12.076,12.076,0,0,1,.156,2.3H30.371a4.473,4.473,0,0,0,.752,2.554,2.518,2.518,0,0,0,2.178.962,2.815,2.815,0,0,0,2.2-.908,3.062,3.062,0,0,0,.664-1.221h1.729A3.64,3.64,0,0,1,37.437,43a4.567,4.567,0,0,1-.864,1.157,4.1,4.1,0,0,1-1.982,1.055,6.022,6.022,0,0,1-1.436.156,4.4,4.4,0,0,1-3.311-1.421,5.529,5.529,0,0,1-1.357-3.979,6.011,6.011,0,0,1,1.367-4.092A4.51,4.51,0,0,1,33.428,34.307Zm2.8,4.629a4.554,4.554,0,0,0-.5-1.826,2.553,2.553,0,0,0-2.412-1.27,2.674,2.674,0,0,0-2.031.874,3.3,3.3,0,0,0-.869,2.222ZM40.2,34.541h1.67v1.484a4.684,4.684,0,0,1,1.572-1.318,4.193,4.193,0,0,1,1.846-.4,3.043,3.043,0,0,1,3.008,1.553,5.514,5.514,0,0,1,.43,2.432V45H46.934V38.408a3.569,3.569,0,0,0-.283-1.543,1.717,1.717,0,0,0-1.7-.977,3.46,3.46,0,0,0-1.025.127,2.641,2.641,0,0,0-1.27.859,2.587,2.587,0,0,0-.571,1.069,7.2,7.2,0,0,0-.132,1.577V45H40.2Zm12.471,7.676a1.448,1.448,0,0,0,.557,1.2,2.064,2.064,0,0,0,1.318.439,4.008,4.008,0,0,0,1.8-.43A2.418,2.418,0,0,0,57.8,41.094V39.678a3.007,3.007,0,0,1-.83.342,7.074,7.074,0,0,1-1,.2l-1.064.137a4.071,4.071,0,0,0-1.436.4A1.56,1.56,0,0,0,52.666,42.217Zm4.258-3.555a.955.955,0,0,0,.811-.508,1.545,1.545,0,0,0,.117-.674,1.428,1.428,0,0,0-.64-1.3,3.432,3.432,0,0,0-1.831-.405,2.327,2.327,0,0,0-1.953.742,2.442,2.442,0,0,0-.42,1.221H51.367a3.02,3.02,0,0,1,1.255-2.69,5.152,5.152,0,0,1,2.8-.757,5.693,5.693,0,0,1,3,.7,2.385,2.385,0,0,1,1.143,2.188V43.2a.771.771,0,0,0,.112.439.542.542,0,0,0,.474.166q.117,0,.264-.015t.313-.044v1.3a4.9,4.9,0,0,1-.625.146,4.567,4.567,0,0,1-.586.029,1.446,1.446,0,0,1-1.318-.645,2.487,2.487,0,0,1-.3-.967,4.472,4.472,0,0,1-1.543,1.221,4.773,4.773,0,0,1-2.217.518,3.3,3.3,0,0,1-2.378-.884,2.936,2.936,0,0,1-.923-2.212A2.849,2.849,0,0,1,51.738,40a4.321,4.321,0,0,1,2.383-.986Zm4.736,4.951,6.2-7.5H62.119V34.541h8.105v1.436l-6.162,7.451H70.41V45H61.66Zm12.129-1.4a1.448,1.448,0,0,0,.557,1.2,2.064,2.064,0,0,0,1.318.439,4.008,4.008,0,0,0,1.8-.43,2.418,2.418,0,0,0,1.465-2.334V39.678a3.007,3.007,0,0,1-.83.342,7.073,7.073,0,0,1-1,.2l-1.064.137a4.071,4.071,0,0,0-1.436.4A1.56,1.56,0,0,0,73.789,42.217Zm4.258-3.555a.955.955,0,0,0,.811-.508,1.545,1.545,0,0,0,.117-.674,1.428,1.428,0,0,0-.64-1.3,3.432,3.432,0,0,0-1.831-.405,2.327,2.327,0,0,0-1.953.742,2.442,2.442,0,0,0-.42,1.221H72.49a3.02,3.02,0,0,1,1.255-2.69,5.152,5.152,0,0,1,2.8-.757,5.693,5.693,0,0,1,3,.7,2.385,2.385,0,0,1,1.143,2.188V43.2a.771.771,0,0,0,.112.439.542.542,0,0,0,.474.166q.117,0,.264-.015t.313-.044v1.3a4.9,4.9,0,0,1-.625.146,4.567,4.567,0,0,1-.586.029,1.446,1.446,0,0,1-1.318-.645,2.487,2.487,0,0,1-.3-.967,4.472,4.472,0,0,1-1.543,1.221,4.773,4.773,0,0,1-2.217.518,3.3,3.3,0,0,1-2.378-.884,2.936,2.936,0,0,1-.923-2.212A2.849,2.849,0,0,1,72.861,40a4.321,4.321,0,0,1,2.383-.986Zm6.563,3.057a2.556,2.556,0,0,0,.439,1.348,2.762,2.762,0,0,0,2.3.85,3.4,3.4,0,0,0,1.719-.425,1.411,1.411,0,0,0,.742-1.313,1.123,1.123,0,0,0-.6-1.025,7.082,7.082,0,0,0-1.5-.5l-1.4-.352a6.812,6.812,0,0,1-1.973-.742,2.218,2.218,0,0,1-1.133-1.973,3.014,3.014,0,0,1,1.069-2.4,4.266,4.266,0,0,1,2.876-.918,3.992,3.992,0,0,1,3.408,1.387,3.009,3.009,0,0,1,.635,1.895h-1.66a2.034,2.034,0,0,0-.42-1.084,2.678,2.678,0,0,0-2.1-.693,2.51,2.51,0,0,0-1.509.381A1.194,1.194,0,0,0,85,37.158a1.238,1.238,0,0,0,.674,1.094,4.049,4.049,0,0,0,1.152.43l1.162.283a8.985,8.985,0,0,1,2.539.889,2.353,2.353,0,0,1,1.025,2.119,3.229,3.229,0,0,1-1.06,2.412A4.51,4.51,0,0,1,87.266,45.4a4.33,4.33,0,0,1-3.306-1.06,4.007,4.007,0,0,1-1.04-2.622Zm18.867-7.412a4.771,4.771,0,0,1,2.158.522,3.98,3.98,0,0,1,1.592,1.353,4.666,4.666,0,0,1,.7,1.846,12.076,12.076,0,0,1,.156,2.3H100.42a4.473,4.473,0,0,0,.752,2.554,2.518,2.518,0,0,0,2.178.962,2.815,2.815,0,0,0,2.2-.908,3.062,3.062,0,0,0,.664-1.221h1.729A3.64,3.64,0,0,1,107.485,43a4.568,4.568,0,0,1-.864,1.157,4.1,4.1,0,0,1-1.982,1.055,6.022,6.022,0,0,1-1.436.156,4.4,4.4,0,0,1-3.311-1.421,5.529,5.529,0,0,1-1.357-3.979A6.011,6.011,0,0,1,99.9,35.879,4.51,4.51,0,0,1,103.477,34.307Zm2.8,4.629a4.554,4.554,0,0,0-.5-1.826,2.553,2.553,0,0,0-2.412-1.27,2.674,2.674,0,0,0-2.031.874,3.3,3.3,0,0,0-.869,2.222Zm2.969-4.395h2.275l2.4,3.682,2.432-3.682,2.139.049-3.525,5.049L118.652,45h-2.246l-2.6-3.926L111.289,45h-2.227l3.682-5.361Zm11,.049h1.787V45h-1.787Zm0-3.936h1.787v1.992h-1.787Zm5.488,11.064a2.556,2.556,0,0,0,.439,1.348,2.762,2.762,0,0,0,2.3.85,3.4,3.4,0,0,0,1.719-.425,1.411,1.411,0,0,0,.742-1.313,1.123,1.123,0,0,0-.6-1.025,7.082,7.082,0,0,0-1.5-.5l-1.4-.352a6.812,6.812,0,0,1-1.973-.742,2.218,2.218,0,0,1-1.133-1.973,3.014,3.014,0,0,1,1.069-2.4,4.266,4.266,0,0,1,2.876-.918,3.992,3.992,0,0,1,3.408,1.387,3.009,3.009,0,0,1,.635,1.895h-1.66a2.034,2.034,0,0,0-.42-1.084,2.678,2.678,0,0,0-2.1-.693,2.51,2.51,0,0,0-1.509.381,1.194,1.194,0,0,0-.513,1.006,1.238,1.238,0,0,0,.674,1.094,4.049,4.049,0,0,0,1.152.43l1.162.283a8.985,8.985,0,0,1,2.539.889,2.353,2.353,0,0,1,1.025,2.119,3.229,3.229,0,0,1-1.06,2.412,4.51,4.51,0,0,1-3.228,1.016,4.33,4.33,0,0,1-3.306-1.06,4.007,4.007,0,0,1-1.04-2.622Zm9.307-10.1h1.777v2.92h1.67v1.436h-1.67V42.8a.739.739,0,0,0,.371.732,1.577,1.577,0,0,0,.684.107q.127,0,.273,0t.342-.024V45a3.924,3.924,0,0,1-.63.127,5.988,5.988,0,0,1-.708.039,1.908,1.908,0,0,1-1.67-.63,2.8,2.8,0,0,1-.439-1.636V35.977h-1.416V34.541h1.416Zm9.561,2.686a4.771,4.771,0,0,1,2.158.522,3.98,3.98,0,0,1,1.592,1.353,4.666,4.666,0,0,1,.7,1.846,12.075,12.075,0,0,1,.156,2.3h-7.666a4.473,4.473,0,0,0,.752,2.554,2.518,2.518,0,0,0,2.178.962,2.815,2.815,0,0,0,2.2-.908,3.062,3.062,0,0,0,.664-1.221h1.729A3.641,3.641,0,0,1,148.608,43a4.567,4.567,0,0,1-.864,1.157,4.1,4.1,0,0,1-1.982,1.055,6.022,6.022,0,0,1-1.436.156,4.4,4.4,0,0,1-3.311-1.421,5.529,5.529,0,0,1-1.357-3.979,6.011,6.011,0,0,1,1.367-4.092A4.51,4.51,0,0,1,144.6,34.307Zm2.8,4.629a4.554,4.554,0,0,0-.5-1.826,2.553,2.553,0,0,0-2.412-1.27,2.674,2.674,0,0,0-2.031.874,3.3,3.3,0,0,0-.869,2.222Zm3.965-4.395h1.67v1.484a4.684,4.684,0,0,1,1.572-1.318,4.193,4.193,0,0,1,1.846-.4,3.043,3.043,0,0,1,3.008,1.553,5.514,5.514,0,0,1,.43,2.432V45h-1.787V38.408a3.569,3.569,0,0,0-.283-1.543,1.717,1.717,0,0,0-1.7-.977,3.46,3.46,0,0,0-1.025.127,2.641,2.641,0,0,0-1.27.859,2.587,2.587,0,0,0-.571,1.069,7.2,7.2,0,0,0-.132,1.577V45h-1.758Zm11.475-2.92h1.777v2.92h1.67v1.436h-1.67V42.8a.739.739,0,0,0,.371.732,1.577,1.577,0,0,0,.684.107q.127,0,.273,0t.342-.024V45a3.924,3.924,0,0,1-.63.127,5.988,5.988,0,0,1-.708.039,1.908,1.908,0,0,1-1.67-.63,2.8,2.8,0,0,1-.439-1.636V35.977h-1.416V34.541h1.416Zm9.561,2.686a4.771,4.771,0,0,1,2.158.522,3.98,3.98,0,0,1,1.592,1.353,4.666,4.666,0,0,1,.7,1.846,12.075,12.075,0,0,1,.156,2.3h-7.666a4.473,4.473,0,0,0,.752,2.554,2.518,2.518,0,0,0,2.178.962,2.815,2.815,0,0,0,2.2-.908,3.062,3.062,0,0,0,.664-1.221h1.729A3.641,3.641,0,0,1,176.411,43a4.567,4.567,0,0,1-.864,1.157,4.1,4.1,0,0,1-1.982,1.055,6.022,6.022,0,0,1-1.436.156,4.4,4.4,0,0,1-3.311-1.421,5.529,5.529,0,0,1-1.357-3.979,6.011,6.011,0,0,1,1.367-4.092A4.51,4.51,0,0,1,172.4,34.307Zm2.8,4.629a4.554,4.554,0,0,0-.5-1.826,2.553,2.553,0,0,0-2.412-1.27,2.674,2.674,0,0,0-2.031.874,3.3,3.3,0,0,0-.869,2.222Zm5.01,2.783a2.556,2.556,0,0,0,.439,1.348,2.762,2.762,0,0,0,2.3.85,3.4,3.4,0,0,0,1.719-.425,1.411,1.411,0,0,0,.742-1.313,1.123,1.123,0,0,0-.6-1.025,7.082,7.082,0,0,0-1.5-.5l-1.4-.352a6.812,6.812,0,0,1-1.973-.742,2.218,2.218,0,0,1-1.133-1.973,3.014,3.014,0,0,1,1.069-2.4,4.266,4.266,0,0,1,2.876-.918,3.992,3.992,0,0,1,3.408,1.387,3.009,3.009,0,0,1,.635,1.895h-1.66a2.034,2.034,0,0,0-.42-1.084,2.678,2.678,0,0,0-2.1-.693,2.51,2.51,0,0,0-1.509.381,1.194,1.194,0,0,0-.513,1.006,1.238,1.238,0,0,0,.674,1.094,4.049,4.049,0,0,0,1.152.43l1.162.283a8.985,8.985,0,0,1,2.539.889,2.353,2.353,0,0,1,1.025,2.119,3.229,3.229,0,0,1-1.06,2.412,4.51,4.51,0,0,1-3.228,1.016,4.33,4.33,0,0,1-3.306-1.06,4.007,4.007,0,0,1-1.04-2.622Zm9.375,1.152h2.041V45H189.59Z" transform="translate(540 7852)" fill="#00223d"/>
    <path id="Trazado_35206" data-name="Trazado 35206" d="M2194.526,6031.5v198.2h446.911V5885.026h-378.8" transform="translate(-1701 1746)" fill="none" stroke="#00ffe2" stroke-width="5"/>
    <rect id="Rectángulo_3394" data-name="Rectángulo 3394" width="448" height="107" transform="translate(466 7676)" fill="#00ffe2"/>
    <path id="Trazado_36221" data-name="Trazado 36221" d="M2.563-21.519H18.252v2.637H5.405v6.533h11.88v2.49H5.405v7.295H18.472V0H2.563Zm20.947,16.6A3.834,3.834,0,0,0,24.17-2.9a4.142,4.142,0,0,0,3.457,1.274,5.1,5.1,0,0,0,2.578-.637,2.116,2.116,0,0,0,1.113-1.97,1.685,1.685,0,0,0-.894-1.538,10.624,10.624,0,0,0-2.256-.747l-2.095-.527a10.219,10.219,0,0,1-2.959-1.113,3.327,3.327,0,0,1-1.7-2.959,4.521,4.521,0,0,1,1.6-3.6A6.4,6.4,0,0,1,27.334-16.1q3.545,0,5.112,2.08a4.514,4.514,0,0,1,.952,2.842h-2.49a3.05,3.05,0,0,0-.63-1.626,4.017,4.017,0,0,0-3.149-1.04,3.765,3.765,0,0,0-2.263.571,1.79,1.79,0,0,0-.769,1.509,1.857,1.857,0,0,0,1.011,1.641,6.074,6.074,0,0,0,1.729.645l1.743.425A13.478,13.478,0,0,1,32.388-7.72a3.53,3.53,0,0,1,1.538,3.179A4.844,4.844,0,0,1,32.336-.923,6.766,6.766,0,0,1,27.5.6q-3.5,0-4.958-1.589a6.011,6.011,0,0,1-1.56-3.933Zm13.96-15.146h2.666v4.38h2.5v2.153h-2.5V-3.3a1.108,1.108,0,0,0,.557,1.1,2.366,2.366,0,0,0,1.025.161q.19,0,.41-.007t.513-.037V0A5.886,5.886,0,0,1,41.7.19a8.983,8.983,0,0,1-1.062.059A2.862,2.862,0,0,1,38.13-.7a4.2,4.2,0,0,1-.659-2.454V-13.535H35.347v-2.153h2.124Zm7.881,4.38h2.5v2.71A5.987,5.987,0,0,1,49.365-14.9a3.912,3.912,0,0,1,2.769-1.135q.073,0,.249.015t.6.059v2.783a3.938,3.938,0,0,0-.432-.059q-.2-.015-.432-.015a3.763,3.763,0,0,0-3.062,1.282,4.474,4.474,0,0,0-1.069,2.952V0H45.352ZM57.29-4.175a2.171,2.171,0,0,0,.835,1.8,3.1,3.1,0,0,0,1.978.659,6.013,6.013,0,0,0,2.7-.645,3.627,3.627,0,0,0,2.2-3.5V-7.983a4.511,4.511,0,0,1-1.245.513,10.61,10.61,0,0,1-1.494.293l-1.6.205a6.107,6.107,0,0,0-2.153.6A2.34,2.34,0,0,0,57.29-4.175Zm6.387-5.332a1.432,1.432,0,0,0,1.216-.762,2.318,2.318,0,0,0,.176-1.011,2.141,2.141,0,0,0-.959-1.956,5.148,5.148,0,0,0-2.747-.608,3.49,3.49,0,0,0-2.93,1.113A3.663,3.663,0,0,0,57.8-10.9H55.342q.073-2.9,1.882-4.036a7.728,7.728,0,0,1,4.2-1.135,8.539,8.539,0,0,1,4.5,1.055,3.578,3.578,0,0,1,1.714,3.281V-2.7a1.157,1.157,0,0,0,.168.659.812.812,0,0,0,.71.249q.176,0,.4-.022t.469-.066V.073a7.344,7.344,0,0,1-.937.22,6.851,6.851,0,0,1-.879.044A2.169,2.169,0,0,1,65.581-.63a3.731,3.731,0,0,1-.454-1.45A6.708,6.708,0,0,1,62.813-.249a7.159,7.159,0,0,1-3.325.776A4.945,4.945,0,0,1,55.92-.8a4.4,4.4,0,0,1-1.384-3.318A4.273,4.273,0,0,1,55.9-7.5a6.482,6.482,0,0,1,3.574-1.479Zm8.8-10.562h2.666v4.38h2.5v2.153h-2.5V-3.3A1.108,1.108,0,0,0,75.7-2.2a2.366,2.366,0,0,0,1.025.161q.19,0,.41-.007t.513-.037V0a5.886,5.886,0,0,1-.945.19,8.983,8.983,0,0,1-1.062.059A2.862,2.862,0,0,1,73.14-.7a4.2,4.2,0,0,1-.659-2.454V-13.535H70.356v-2.153H72.48ZM86.821-16.04a7.156,7.156,0,0,1,3.237.784,5.97,5.97,0,0,1,2.388,2.029A7,7,0,0,1,93.5-10.459,18.114,18.114,0,0,1,93.735-7h-11.5a6.71,6.71,0,0,0,1.128,3.831,3.777,3.777,0,0,0,3.267,1.443,4.223,4.223,0,0,0,3.3-1.362,4.592,4.592,0,0,0,1-1.831h2.593A5.461,5.461,0,0,1,92.834-3a6.851,6.851,0,0,1-1.3,1.736A6.144,6.144,0,0,1,88.564.322a9.033,9.033,0,0,1-2.153.234,6.607,6.607,0,0,1-4.966-2.131,8.293,8.293,0,0,1-2.036-5.969,9.017,9.017,0,0,1,2.051-6.138A6.765,6.765,0,0,1,86.821-16.04Zm4.2,6.943a6.831,6.831,0,0,0-.747-2.739,3.829,3.829,0,0,0-3.618-1.9,4.011,4.011,0,0,0-3.047,1.311A4.953,4.953,0,0,0,82.31-9.1Zm11.484-6.87a5.718,5.718,0,0,1,3.223.908,7.238,7.238,0,0,1,1.523,1.494v-1.978h2.432V-1.274a10.521,10.521,0,0,1-.879,4.717q-1.641,3.193-6.2,3.193A7.6,7.6,0,0,1,98.35,5.5a4.427,4.427,0,0,1-1.934-3.552H99.1a2.983,2.983,0,0,0,.762,1.626,3.884,3.884,0,0,0,2.813.879q3.032,0,3.97-2.139a12.045,12.045,0,0,0,.513-4.5,5.173,5.173,0,0,1-1.9,1.787A6.335,6.335,0,0,1,102.3.19a6.285,6.285,0,0,1-4.46-1.809Q95.933-3.428,95.933-7.6a9.062,9.062,0,0,1,1.926-6.152A5.956,5.956,0,0,1,102.51-15.967Zm4.746,8.057a6.541,6.541,0,0,0-1.2-4.321,3.848,3.848,0,0,0-3.062-1.406,3.781,3.781,0,0,0-3.809,2.607,10.224,10.224,0,0,0-.542,3.647,6.475,6.475,0,0,0,1.077,4.036,3.476,3.476,0,0,0,2.893,1.384,4.062,4.062,0,0,0,4-2.563A8.268,8.268,0,0,0,107.256-7.91Zm6.4-7.705h2.681V0h-2.681Zm0-5.9h2.681v2.988h-2.681Zm8.687,17.344a2.171,2.171,0,0,0,.835,1.8,3.1,3.1,0,0,0,1.978.659,6.013,6.013,0,0,0,2.7-.645,3.627,3.627,0,0,0,2.2-3.5V-7.983a4.511,4.511,0,0,1-1.245.513,10.61,10.61,0,0,1-1.494.293l-1.6.205a6.107,6.107,0,0,0-2.153.6A2.34,2.34,0,0,0,122.344-4.175Zm6.387-5.332a1.432,1.432,0,0,0,1.216-.762,2.318,2.318,0,0,0,.176-1.011,2.141,2.141,0,0,0-.959-1.956,5.148,5.148,0,0,0-2.747-.608,3.49,3.49,0,0,0-2.93,1.113,3.663,3.663,0,0,0-.63,1.831H120.4q.073-2.9,1.882-4.036a7.728,7.728,0,0,1,4.2-1.135,8.539,8.539,0,0,1,4.5,1.055,3.578,3.578,0,0,1,1.714,3.281V-2.7a1.157,1.157,0,0,0,.168.659.812.812,0,0,0,.71.249q.176,0,.4-.022t.469-.066V.073a7.344,7.344,0,0,1-.937.22,6.851,6.851,0,0,1-.879.044,2.169,2.169,0,0,1-1.978-.967,3.731,3.731,0,0,1-.454-1.45,6.708,6.708,0,0,1-2.314,1.831,7.159,7.159,0,0,1-3.325.776A4.945,4.945,0,0,1,120.974-.8a4.4,4.4,0,0,1-1.384-3.318A4.273,4.273,0,0,1,120.952-7.5a6.482,6.482,0,0,1,3.574-1.479Zm9.844,4.585a3.834,3.834,0,0,0,.659,2.021,4.142,4.142,0,0,0,3.457,1.274,5.1,5.1,0,0,0,2.578-.637,2.116,2.116,0,0,0,1.113-1.97,1.685,1.685,0,0,0-.894-1.538,10.624,10.624,0,0,0-2.256-.747l-2.095-.527a10.219,10.219,0,0,1-2.959-1.113,3.327,3.327,0,0,1-1.7-2.959,4.521,4.521,0,0,1,1.6-3.6A6.4,6.4,0,0,1,142.4-16.1q3.545,0,5.112,2.08a4.514,4.514,0,0,1,.952,2.842h-2.49a3.05,3.05,0,0,0-.63-1.626,4.017,4.017,0,0,0-3.149-1.04,3.765,3.765,0,0,0-2.263.571,1.79,1.79,0,0,0-.769,1.509,1.857,1.857,0,0,0,1.011,1.641,6.074,6.074,0,0,0,1.729.645l1.743.425a13.478,13.478,0,0,1,3.809,1.333,3.53,3.53,0,0,1,1.538,3.179A4.844,4.844,0,0,1,147.4-.923,6.766,6.766,0,0,1,142.559.6q-3.5,0-4.958-1.589a6.011,6.011,0,0,1-1.56-3.933Zm22.4-16.6H175.9v2.637H163.887v6.533h10.562v2.563H163.887V0h-2.915Zm27.451,12.7-3.267-9.507-3.472,9.507Zm-4.79-12.7h3.3L194.736,0h-3.193L189.36-6.445H180.85L178.521,0h-2.988ZM8.877,13.13a51.148,51.148,0,0,0-2.988,6.577,24.045,24.045,0,0,0-1.04,7.412,24.16,24.16,0,0,0,1.187,7.764,46.883,46.883,0,0,0,2.886,6.24H7.148Q5.01,37.783,4.5,36.86a19.8,19.8,0,0,1-1.113-2.5,20.589,20.589,0,0,1-1.143-4.629,19.41,19.41,0,0,1-.161-2.432,20.536,20.536,0,0,1,1.362-7.72,44.431,44.431,0,0,1,3.6-6.445Zm3.677.352H27.48v2.637H15.469v6.533H26.03v2.563H15.469V35H12.554ZM36.475,33.3a3.636,3.636,0,0,0,3.6-1.985,9.889,9.889,0,0,0,.974-4.417,7.864,7.864,0,0,0-.7-3.574A3.955,3.955,0,0,0,36.5,21.157,3.785,3.785,0,0,0,32.988,23a8.555,8.555,0,0,0-1.1,4.453,7.442,7.442,0,0,0,1.1,4.175A3.869,3.869,0,0,0,36.475,33.3Zm.1-14.443A7.1,7.1,0,0,1,41.7,20.879,7.894,7.894,0,0,1,43.8,26.826a10.2,10.2,0,0,1-1.846,6.27q-1.846,2.476-5.728,2.476a6.466,6.466,0,0,1-5.142-2.19,8.65,8.65,0,0,1-1.9-5.881,9.358,9.358,0,0,1,2.007-6.3A6.735,6.735,0,0,1,36.577,18.857Zm10.43.454h2.5v2.71A5.987,5.987,0,0,1,51.021,20.1a3.912,3.912,0,0,1,2.769-1.135q.073,0,.249.015t.6.059v2.783a3.938,3.938,0,0,0-.432-.059q-.2-.015-.432-.015a3.763,3.763,0,0,0-3.062,1.282,4.474,4.474,0,0,0-1.069,2.952V35H47.007Zm10.444-4.38h2.666v4.38h2.5v2.153h-2.5V31.7a1.108,1.108,0,0,0,.557,1.1,2.366,2.366,0,0,0,1.025.161q.19,0,.41-.007t.513-.037V35a5.886,5.886,0,0,1-.945.19,8.983,8.983,0,0,1-1.062.059,2.862,2.862,0,0,1-2.5-.945,4.2,4.2,0,0,1-.659-2.454V21.465H55.327V19.312h2.124ZM67.28,30.825a2.171,2.171,0,0,0,.835,1.8,3.1,3.1,0,0,0,1.978.659,6.013,6.013,0,0,0,2.7-.645,3.627,3.627,0,0,0,2.2-3.5V27.017a4.511,4.511,0,0,1-1.245.513,10.61,10.61,0,0,1-1.494.293l-1.6.205a6.107,6.107,0,0,0-2.153.6A2.34,2.34,0,0,0,67.28,30.825Zm6.387-5.332a1.432,1.432,0,0,0,1.216-.762,2.318,2.318,0,0,0,.176-1.011,2.141,2.141,0,0,0-.959-1.956,5.148,5.148,0,0,0-2.747-.608,3.49,3.49,0,0,0-2.93,1.113,3.663,3.663,0,0,0-.63,1.831H65.332q.073-2.9,1.882-4.036a7.728,7.728,0,0,1,4.2-1.135,8.539,8.539,0,0,1,4.5,1.055,3.578,3.578,0,0,1,1.714,3.281V32.3a1.157,1.157,0,0,0,.168.659.812.812,0,0,0,.71.249q.176,0,.4-.022t.469-.066v1.948a7.344,7.344,0,0,1-.937.22,6.851,6.851,0,0,1-.879.044,2.169,2.169,0,0,1-1.978-.967,3.731,3.731,0,0,1-.454-1.45A6.708,6.708,0,0,1,72.8,34.751a7.159,7.159,0,0,1-3.325.776A4.945,4.945,0,0,1,65.911,34.2a4.4,4.4,0,0,1-1.384-3.318A4.273,4.273,0,0,1,65.889,27.5a6.482,6.482,0,0,1,3.574-1.479Zm8.35-12.012h2.637V35H82.017ZM95.142,18.96a7.156,7.156,0,0,1,3.237.784,5.97,5.97,0,0,1,2.388,2.029,7,7,0,0,1,1.055,2.769A18.114,18.114,0,0,1,102.056,28h-11.5a6.71,6.71,0,0,0,1.128,3.831,3.777,3.777,0,0,0,3.267,1.443,4.223,4.223,0,0,0,3.3-1.362,4.592,4.592,0,0,0,1-1.831h2.593A5.461,5.461,0,0,1,101.155,32a6.851,6.851,0,0,1-1.3,1.736,6.144,6.144,0,0,1-2.974,1.582,9.033,9.033,0,0,1-2.153.234,6.607,6.607,0,0,1-4.966-2.131,8.293,8.293,0,0,1-2.036-5.969,9.017,9.017,0,0,1,2.051-6.138A6.765,6.765,0,0,1,95.142,18.96Zm4.2,6.943a6.831,6.831,0,0,0-.747-2.739,3.829,3.829,0,0,0-3.618-1.9,4.011,4.011,0,0,0-3.047,1.311,4.953,4.953,0,0,0-1.3,3.333Zm4.775,7.017,9.3-11.25H104.81V19.312h12.158v2.153l-9.243,11.177h9.521V35H104.121Zm18.193-2.095a2.171,2.171,0,0,0,.835,1.8,3.1,3.1,0,0,0,1.978.659,6.013,6.013,0,0,0,2.7-.645,3.627,3.627,0,0,0,2.2-3.5V27.017a4.511,4.511,0,0,1-1.245.513,10.61,10.61,0,0,1-1.494.293l-1.6.205a6.107,6.107,0,0,0-2.153.6A2.34,2.34,0,0,0,122.314,30.825Zm6.387-5.332a1.432,1.432,0,0,0,1.216-.762,2.318,2.318,0,0,0,.176-1.011,2.141,2.141,0,0,0-.959-1.956,5.148,5.148,0,0,0-2.747-.608,3.49,3.49,0,0,0-2.93,1.113,3.663,3.663,0,0,0-.63,1.831h-2.461q.073-2.9,1.882-4.036a7.728,7.728,0,0,1,4.2-1.135,8.539,8.539,0,0,1,4.5,1.055,3.578,3.578,0,0,1,1.714,3.281V32.3a1.157,1.157,0,0,0,.168.659.812.812,0,0,0,.71.249q.176,0,.4-.022t.469-.066v1.948a7.344,7.344,0,0,1-.937.22,6.851,6.851,0,0,1-.879.044,2.169,2.169,0,0,1-1.978-.967,3.731,3.731,0,0,1-.454-1.45,6.708,6.708,0,0,1-2.314,1.831,7.159,7.159,0,0,1-3.325.776,4.945,4.945,0,0,1-3.567-1.326,4.4,4.4,0,0,1-1.384-3.318,4.273,4.273,0,0,1,1.362-3.384,6.482,6.482,0,0,1,3.574-1.479ZM141.87,13.481H144.1L137.271,35h-2.227Zm14.839,12.7-3.267-9.507-3.472,9.507Zm-4.79-12.7h3.3L163.022,35h-3.193l-2.183-6.445h-8.511L146.807,35h-2.988Zm13.4,5.83h2.607v2.227a8.764,8.764,0,0,1,1.7-1.685,5.11,5.11,0,0,1,2.959-.894,4.657,4.657,0,0,1,3.018.923,4.824,4.824,0,0,1,1.172,1.553,5.7,5.7,0,0,1,2.065-1.868,5.761,5.761,0,0,1,2.666-.608q3.164,0,4.307,2.285a7.47,7.47,0,0,1,.615,3.311V35h-2.739V24.1a2.538,2.538,0,0,0-.784-2.153A3.1,3.1,0,0,0,181,21.362a3.8,3.8,0,0,0-2.673,1.04,4.567,4.567,0,0,0-1.121,3.472V35h-2.681V24.761a5.32,5.32,0,0,0-.381-2.329,2.323,2.323,0,0,0-2.241-1.1,3.867,3.867,0,0,0-2.717,1.157q-1.223,1.157-1.223,4.189V35h-2.637Zm31.523-.352a7.156,7.156,0,0,1,3.237.784,5.97,5.97,0,0,1,2.388,2.029,7,7,0,0,1,1.055,2.769A18.114,18.114,0,0,1,203.76,28h-11.5a6.71,6.71,0,0,0,1.128,3.831,3.777,3.777,0,0,0,3.267,1.443,4.223,4.223,0,0,0,3.3-1.362,4.592,4.592,0,0,0,1-1.831h2.593A5.461,5.461,0,0,1,202.859,32a6.851,6.851,0,0,1-1.3,1.736,6.144,6.144,0,0,1-2.974,1.582,9.033,9.033,0,0,1-2.153.234,6.607,6.607,0,0,1-4.966-2.131,8.293,8.293,0,0,1-2.036-5.969,9.017,9.017,0,0,1,2.051-6.138A6.765,6.765,0,0,1,196.846,18.96Zm4.2,6.943a6.831,6.831,0,0,0-.747-2.739,3.829,3.829,0,0,0-3.618-1.9,4.011,4.011,0,0,0-3.047,1.311,4.953,4.953,0,0,0-1.3,3.333ZM207,19.312h2.5v2.227a7.026,7.026,0,0,1,2.358-1.978,6.289,6.289,0,0,1,2.769-.6q3.34,0,4.512,2.329a8.27,8.27,0,0,1,.645,3.647V35H217.1V25.112a5.354,5.354,0,0,0-.425-2.314,2.575,2.575,0,0,0-2.549-1.465,5.19,5.19,0,0,0-1.538.19,3.961,3.961,0,0,0-1.9,1.289,3.881,3.881,0,0,0-.857,1.6,10.8,10.8,0,0,0-.2,2.366V35H207ZM225.7,30.825a2.171,2.171,0,0,0,.835,1.8,3.1,3.1,0,0,0,1.978.659,6.013,6.013,0,0,0,2.7-.645,3.627,3.627,0,0,0,2.2-3.5V27.017a4.511,4.511,0,0,1-1.245.513,10.61,10.61,0,0,1-1.494.293l-1.6.205a6.107,6.107,0,0,0-2.153.6A2.34,2.34,0,0,0,225.7,30.825Zm6.387-5.332a1.432,1.432,0,0,0,1.216-.762,2.318,2.318,0,0,0,.176-1.011,2.141,2.141,0,0,0-.959-1.956,5.148,5.148,0,0,0-2.747-.608,3.49,3.49,0,0,0-2.93,1.113,3.663,3.663,0,0,0-.63,1.831h-2.461q.073-2.9,1.882-4.036a7.728,7.728,0,0,1,4.2-1.135,8.539,8.539,0,0,1,4.5,1.055,3.578,3.578,0,0,1,1.714,3.281V32.3a1.157,1.157,0,0,0,.168.659.812.812,0,0,0,.71.249q.176,0,.4-.022t.469-.066v1.948a7.344,7.344,0,0,1-.937.22,6.851,6.851,0,0,1-.879.044,2.169,2.169,0,0,1-1.978-.967,3.731,3.731,0,0,1-.454-1.45,6.708,6.708,0,0,1-2.314,1.831,7.159,7.159,0,0,1-3.325.776,4.945,4.945,0,0,1-3.567-1.326,4.4,4.4,0,0,1-1.384-3.318,4.273,4.273,0,0,1,1.362-3.384,6.482,6.482,0,0,1,3.574-1.479Zm7.1,7.427,9.3-11.25h-8.613V19.312h12.158v2.153L242.8,32.642h9.521V35H239.194Zm18.193-2.095a2.171,2.171,0,0,0,.835,1.8,3.1,3.1,0,0,0,1.978.659,6.013,6.013,0,0,0,2.7-.645,3.627,3.627,0,0,0,2.2-3.5V27.017a4.511,4.511,0,0,1-1.245.513,10.61,10.61,0,0,1-1.494.293l-1.6.205a6.107,6.107,0,0,0-2.153.6A2.34,2.34,0,0,0,257.388,30.825Zm6.387-5.332a1.432,1.432,0,0,0,1.216-.762,2.318,2.318,0,0,0,.176-1.011,2.141,2.141,0,0,0-.959-1.956,5.148,5.148,0,0,0-2.747-.608,3.49,3.49,0,0,0-2.93,1.113,3.663,3.663,0,0,0-.63,1.831h-2.461q.073-2.9,1.882-4.036a7.728,7.728,0,0,1,4.2-1.135,8.539,8.539,0,0,1,4.5,1.055,3.578,3.578,0,0,1,1.714,3.281V32.3a1.157,1.157,0,0,0,.168.659.812.812,0,0,0,.71.249q.176,0,.4-.022t.469-.066v1.948a7.344,7.344,0,0,1-.937.22,6.851,6.851,0,0,1-.879.044,2.169,2.169,0,0,1-1.978-.967,3.731,3.731,0,0,1-.454-1.45,6.708,6.708,0,0,1-2.314,1.831,7.159,7.159,0,0,1-3.325.776,4.945,4.945,0,0,1-3.567-1.326,4.4,4.4,0,0,1-1.384-3.318A4.273,4.273,0,0,1,256,27.5a6.482,6.482,0,0,1,3.574-1.479Zm7.383,15.63a51.714,51.714,0,0,0,3-6.621,23.9,23.9,0,0,0,1.025-7.383A24.111,24.111,0,0,0,274,19.37a46.883,46.883,0,0,0-2.886-6.24h1.772q2.256,3.6,2.732,4.446A17.187,17.187,0,0,1,276.65,19.9a18.765,18.765,0,0,1,1,3.618,20.776,20.776,0,0,1,.3,3.442,20.455,20.455,0,0,1-1.377,7.734,42.479,42.479,0,0,1-3.589,6.431Zm12.275-21.606h3.062V22.71h-3.062Zm0,12.29h3.062V35h-3.062Z" transform="translate(517 7719)" fill="#472ea6"/>
    <circle id="Elipse_945" data-name="Elipse 945" cx="137" cy="137" r="137" transform="translate(976 7553)" fill="#472ea6"/>
    <path id="Trazado_36223" data-name="Trazado 36223" d="M18.936-48.945q9.5,0,13.74,7.827,3.281,6.05,3.281,16.577,0,9.98-2.974,16.509Q28.677,1.333,18.9,1.333A14.1,14.1,0,0,1,5.776-6.323Q2.188-12.715,2.188-23.481A42.394,42.394,0,0,1,4.341-37.8Q8.374-48.945,18.936-48.945ZM18.867-4.272a8.755,8.755,0,0,0,7.622-4.238q2.837-4.238,2.837-15.791a39.014,39.014,0,0,0-2.051-13.723q-2.051-5.383-7.964-5.383a8.325,8.325,0,0,0-7.947,5.11q-2.512,5.11-2.512,15.056a36.973,36.973,0,0,0,1.606,12.031Q12.92-4.272,18.867-4.272Zm43.2-13.057V-39.512L46.382-17.329ZM62.173,0V-11.963H40.708v-6.016l22.422-31.1h5.2v31.753h7.212v5.366H68.325V0Z" transform="translate(1020 7655)" fill="#00ffe2"/>
    <path id="Trazado_36225" data-name="Trazado 36225" d="M5.322,4.238A4.56,4.56,0,0,1,8.2,5.1,4.117,4.117,0,0,1,9.531,8.057H7.822A3.155,3.155,0,0,0,7.109,6.45a2.252,2.252,0,0,0-1.787-.64,2.469,2.469,0,0,0-2.4,1.641,6.517,6.517,0,0,0-.469,2.627,4.943,4.943,0,0,0,.664,2.646A2.278,2.278,0,0,0,5.205,13.8a2.285,2.285,0,0,0,1.733-.669A3.678,3.678,0,0,0,7.822,11.3H9.531a4.587,4.587,0,0,1-1.465,3.042,4.57,4.57,0,0,1-3,.962A4,4,0,0,1,1.8,13.8,5.738,5.738,0,0,1,.576,10.059,6.309,6.309,0,0,1,1.914,5.771,4.323,4.323,0,0,1,5.322,4.238Zm10.117,9.629a2.424,2.424,0,0,0,2.4-1.323A6.592,6.592,0,0,0,18.486,9.6a5.242,5.242,0,0,0-.469-2.383,2.637,2.637,0,0,0-2.559-1.445A2.523,2.523,0,0,0,13.115,7a5.7,5.7,0,0,0-.732,2.969,4.961,4.961,0,0,0,.732,2.783A2.58,2.58,0,0,0,15.439,13.867Zm.068-9.629a4.736,4.736,0,0,1,3.418,1.348,5.263,5.263,0,0,1,1.4,3.965,6.8,6.8,0,0,1-1.23,4.18,4.451,4.451,0,0,1-3.818,1.65,4.311,4.311,0,0,1-3.428-1.46A5.767,5.767,0,0,1,10.576,10a6.239,6.239,0,0,1,1.338-4.2A4.49,4.49,0,0,1,15.508,4.238ZM17.549.332,14.941,3.154H13.594L15.381.332Zm4.863,4.209H24.15V6.025A5.843,5.843,0,0,1,25.283,4.9a3.407,3.407,0,0,1,1.973-.6,3.1,3.1,0,0,1,2.012.615,3.216,3.216,0,0,1,.781,1.035,3.8,3.8,0,0,1,1.377-1.245A3.841,3.841,0,0,1,33.2,4.307,2.906,2.906,0,0,1,36.074,5.83a4.98,4.98,0,0,1,.41,2.207V15H34.658V7.734A1.692,1.692,0,0,0,34.136,6.3a2.068,2.068,0,0,0-1.274-.391,2.53,2.53,0,0,0-1.782.693,3.045,3.045,0,0,0-.747,2.314V15H28.545V8.174a3.547,3.547,0,0,0-.254-1.553A1.548,1.548,0,0,0,26.8,5.889a2.578,2.578,0,0,0-1.812.771,3.781,3.781,0,0,0-.815,2.793V15H22.412Zm20.811,9.326a2.424,2.424,0,0,0,2.4-1.323A6.592,6.592,0,0,0,46.27,9.6,5.242,5.242,0,0,0,45.8,7.217a2.637,2.637,0,0,0-2.559-1.445A2.523,2.523,0,0,0,40.9,7a5.7,5.7,0,0,0-.732,2.969,4.961,4.961,0,0,0,.732,2.783A2.58,2.58,0,0,0,43.223,13.867Zm.068-9.629a4.736,4.736,0,0,1,3.418,1.348,5.263,5.263,0,0,1,1.4,3.965,6.8,6.8,0,0,1-1.23,4.18,4.451,4.451,0,0,1-3.818,1.65,4.311,4.311,0,0,1-3.428-1.46A5.767,5.767,0,0,1,38.359,10,6.239,6.239,0,0,1,39.7,5.8,4.49,4.49,0,0,1,43.291,4.238Zm12.51.3h1.67V6.348a3.992,3.992,0,0,1,1.006-1.284,2.608,2.608,0,0,1,1.846-.757q.049,0,.166.01t.4.039V6.211a2.626,2.626,0,0,0-.288-.039q-.132-.01-.288-.01a2.508,2.508,0,0,0-2.041.854,2.983,2.983,0,0,0-.713,1.968V15H55.8Zm10.967-.234a4.771,4.771,0,0,1,2.158.522,3.98,3.98,0,0,1,1.592,1.353,4.666,4.666,0,0,1,.7,1.846,12.076,12.076,0,0,1,.156,2.3H63.711a4.473,4.473,0,0,0,.752,2.554,2.518,2.518,0,0,0,2.178.962,2.815,2.815,0,0,0,2.2-.908,3.062,3.062,0,0,0,.664-1.221H71.23A3.64,3.64,0,0,1,70.776,13a4.568,4.568,0,0,1-.864,1.157,4.1,4.1,0,0,1-1.982,1.055,6.022,6.022,0,0,1-1.436.156,4.4,4.4,0,0,1-3.311-1.421,5.529,5.529,0,0,1-1.357-3.979,6.011,6.011,0,0,1,1.367-4.092A4.51,4.51,0,0,1,66.768,4.307Zm2.8,4.629a4.554,4.554,0,0,0-.5-1.826A2.553,2.553,0,0,0,66.66,5.84a2.674,2.674,0,0,0-2.031.874,3.3,3.3,0,0,0-.869,2.222Zm5.078.957a5.184,5.184,0,0,0,.713,2.813,2.5,2.5,0,0,0,2.285,1.133,2.407,2.407,0,0,0,2.007-1.05,4.958,4.958,0,0,0,.786-3.013,4.455,4.455,0,0,0-.811-2.935,2.528,2.528,0,0,0-2-.952A2.643,2.643,0,0,0,75.474,6.9,4.652,4.652,0,0,0,74.648,9.893Zm2.646-5.537a3.721,3.721,0,0,1,2.012.508,4.725,4.725,0,0,1,1.064,1.025V.605h1.689V15H80.479V13.545a3.8,3.8,0,0,1-1.455,1.4,4.165,4.165,0,0,1-1.924.43,3.9,3.9,0,0,1-3.027-1.47A5.746,5.746,0,0,1,72.793,9.99,6.752,6.752,0,0,1,73.96,6.03,3.821,3.821,0,0,1,77.295,4.355Zm9.121.186v6.943a2.928,2.928,0,0,0,.254,1.309,1.772,1.772,0,0,0,1.748.938,2.471,2.471,0,0,0,2.5-1.641,6.509,6.509,0,0,0,.361-2.412V4.541h1.758V15h-1.66l.02-1.543a3.546,3.546,0,0,1-.85,1.006,3.739,3.739,0,0,1-2.441.82,3.149,3.149,0,0,1-3.047-1.494,4.45,4.45,0,0,1-.439-2.139V4.541Zm13.4-.3a4.56,4.56,0,0,1,2.876.859,4.117,4.117,0,0,1,1.333,2.959h-1.709A3.155,3.155,0,0,0,101.6,6.45a2.252,2.252,0,0,0-1.787-.64,2.469,2.469,0,0,0-2.4,1.641,6.517,6.517,0,0,0-.469,2.627,4.943,4.943,0,0,0,.664,2.646,2.574,2.574,0,0,0,3.823.405,3.678,3.678,0,0,0,.884-1.831h1.709a4.587,4.587,0,0,1-1.465,3.042,4.57,4.57,0,0,1-3,.962,4,4,0,0,1-3.271-1.5,5.737,5.737,0,0,1-1.221-3.745,6.309,6.309,0,0,1,1.338-4.287A4.323,4.323,0,0,1,99.814,4.238Zm5.967.352h1.787V15h-1.787Zm0-3.936h1.787V2.646h-1.787Zm4.492,3.887h1.67V6.348a3.992,3.992,0,0,1,1.006-1.284,2.608,2.608,0,0,1,1.846-.757q.049,0,.166.01t.4.039V6.211a2.625,2.625,0,0,0-.288-.039q-.132-.01-.288-.01a2.508,2.508,0,0,0-2.041.854,2.983,2.983,0,0,0-.713,1.968V15h-1.758ZM122.49.654h1.758V15H122.49Zm5.742,11.563a1.448,1.448,0,0,0,.557,1.2,2.064,2.064,0,0,0,1.318.439,4.008,4.008,0,0,0,1.8-.43,2.418,2.418,0,0,0,1.465-2.334V9.678a3.007,3.007,0,0,1-.83.342,7.074,7.074,0,0,1-1,.2l-1.064.137a4.071,4.071,0,0,0-1.436.4A1.56,1.56,0,0,0,128.232,12.217Zm4.258-3.555a.955.955,0,0,0,.811-.508,1.545,1.545,0,0,0,.117-.674,1.428,1.428,0,0,0-.64-1.3,3.432,3.432,0,0,0-1.831-.405,2.327,2.327,0,0,0-1.953.742,2.442,2.442,0,0,0-.42,1.221h-1.641a3.02,3.02,0,0,1,1.255-2.69,5.152,5.152,0,0,1,2.8-.757,5.693,5.693,0,0,1,3,.7,2.385,2.385,0,0,1,1.143,2.188V13.2a.771.771,0,0,0,.112.439.542.542,0,0,0,.474.166q.117,0,.264-.015t.313-.044v1.3a4.9,4.9,0,0,1-.625.146,4.567,4.567,0,0,1-.586.029,1.446,1.446,0,0,1-1.318-.645,2.487,2.487,0,0,1-.3-.967,4.472,4.472,0,0,1-1.543,1.221,4.773,4.773,0,0,1-2.217.518,3.3,3.3,0,0,1-2.378-.884,2.936,2.936,0,0,1-.923-2.212A2.849,2.849,0,0,1,127.3,10a4.321,4.321,0,0,1,2.383-.986Zm6.563,3.057a2.556,2.556,0,0,0,.439,1.348,2.762,2.762,0,0,0,2.3.85,3.4,3.4,0,0,0,1.719-.425,1.411,1.411,0,0,0,.742-1.313,1.123,1.123,0,0,0-.6-1.025,7.082,7.082,0,0,0-1.5-.5l-1.4-.352a6.812,6.812,0,0,1-1.973-.742,2.218,2.218,0,0,1-1.133-1.973,3.014,3.014,0,0,1,1.069-2.4,4.266,4.266,0,0,1,2.876-.918,3.992,3.992,0,0,1,3.408,1.387,3.009,3.009,0,0,1,.635,1.895h-1.66a2.034,2.034,0,0,0-.42-1.084,2.678,2.678,0,0,0-2.1-.693,2.51,2.51,0,0,0-1.509.381,1.194,1.194,0,0,0-.513,1.006,1.238,1.238,0,0,0,.674,1.094,4.049,4.049,0,0,0,1.152.43l1.162.283a8.985,8.985,0,0,1,2.539.889A2.353,2.353,0,0,1,146,11.973a3.229,3.229,0,0,1-1.06,2.412,4.51,4.51,0,0,1-3.228,1.016,4.33,4.33,0,0,1-3.306-1.06,4.007,4.007,0,0,1-1.04-2.622Zm15.625-1.826a5.184,5.184,0,0,0,.713,2.813,2.5,2.5,0,0,0,2.285,1.133,2.407,2.407,0,0,0,2.007-1.05,4.958,4.958,0,0,0,.786-3.013,4.455,4.455,0,0,0-.811-2.935,2.528,2.528,0,0,0-2-.952A2.643,2.643,0,0,0,155.5,6.9,4.652,4.652,0,0,0,154.678,9.893Zm2.646-5.537a3.721,3.721,0,0,1,2.012.508A4.726,4.726,0,0,1,160.4,5.889V.605h1.689V15h-1.582V13.545a3.8,3.8,0,0,1-1.455,1.4,4.165,4.165,0,0,1-1.924.43A3.9,3.9,0,0,1,154.1,13.9a5.746,5.746,0,0,1-1.279-3.911,6.751,6.751,0,0,1,1.167-3.96A3.821,3.821,0,0,1,157.324,4.355Zm11.719-.049a4.771,4.771,0,0,1,2.158.522,3.98,3.98,0,0,1,1.592,1.353,4.666,4.666,0,0,1,.7,1.846,12.075,12.075,0,0,1,.156,2.3h-7.666a4.473,4.473,0,0,0,.752,2.554,2.518,2.518,0,0,0,2.178.962,2.815,2.815,0,0,0,2.2-.908,3.062,3.062,0,0,0,.664-1.221h1.729A3.641,3.641,0,0,1,173.052,13a4.567,4.567,0,0,1-.864,1.157,4.1,4.1,0,0,1-1.982,1.055,6.022,6.022,0,0,1-1.436.156,4.4,4.4,0,0,1-3.311-1.421A5.529,5.529,0,0,1,164.1,9.971a6.011,6.011,0,0,1,1.367-4.092A4.51,4.51,0,0,1,169.043,4.307Zm2.8,4.629a4.554,4.554,0,0,0-.5-1.826,2.553,2.553,0,0,0-2.412-1.27,2.674,2.674,0,0,0-2.031.874,3.3,3.3,0,0,0-.869,2.222Zm3.828-8.33h1.709V5.811A3.83,3.83,0,0,1,180.5,4.268a4.075,4.075,0,0,1,3.169,1.343,5.72,5.72,0,0,1,1.216,3.96,6.791,6.791,0,0,1-1.2,4.121,3.9,3.9,0,0,1-3.33,1.641,3.412,3.412,0,0,1-2.012-.576,4.858,4.858,0,0,1-1.045-1.094V15h-1.621Zm4.57,13.174a2.349,2.349,0,0,0,2.134-1.133,5.578,5.578,0,0,0,.708-2.988,4.9,4.9,0,0,0-.708-2.734,2.332,2.332,0,0,0-2.085-1.084,2.908,2.908,0,0,0-2.1.889,3.991,3.991,0,0,0-.9,2.93,6.475,6.475,0,0,0,.371,2.393A2.564,2.564,0,0,0,180.244,13.779Zm6.689-9.189h1.787V15h-1.787Zm0-3.936h1.787V2.646h-1.787Zm4.492,0h1.758V15h-1.758ZM195.82,4.59h1.787V15H195.82Zm0-3.936h1.787V2.646H195.82Zm5.557,9.238a5.184,5.184,0,0,0,.713,2.813,2.5,2.5,0,0,0,2.285,1.133,2.407,2.407,0,0,0,2.007-1.05,4.958,4.958,0,0,0,.786-3.013,4.455,4.455,0,0,0-.811-2.935,2.528,2.528,0,0,0-2-.952A2.643,2.643,0,0,0,202.2,6.9,4.652,4.652,0,0,0,201.377,9.893Zm2.646-5.537a3.721,3.721,0,0,1,2.012.508A4.726,4.726,0,0,1,207.1,5.889V.605h1.689V15h-1.582V13.545a3.8,3.8,0,0,1-1.455,1.4,4.165,4.165,0,0,1-1.924.43A3.9,3.9,0,0,1,200.8,13.9a5.746,5.746,0,0,1-1.279-3.911,6.751,6.751,0,0,1,1.167-3.96A3.821,3.821,0,0,1,204.023,4.355Zm8.711,7.861a1.448,1.448,0,0,0,.557,1.2,2.064,2.064,0,0,0,1.318.439,4.008,4.008,0,0,0,1.8-.43,2.418,2.418,0,0,0,1.465-2.334V9.678a3.007,3.007,0,0,1-.83.342,7.074,7.074,0,0,1-1,.2l-1.064.137a4.071,4.071,0,0,0-1.436.4A1.56,1.56,0,0,0,212.734,12.217Zm4.258-3.555a.955.955,0,0,0,.811-.508,1.545,1.545,0,0,0,.117-.674,1.428,1.428,0,0,0-.64-1.3,3.432,3.432,0,0,0-1.831-.405,2.327,2.327,0,0,0-1.953.742,2.442,2.442,0,0,0-.42,1.221h-1.641a3.02,3.02,0,0,1,1.255-2.69,5.152,5.152,0,0,1,2.8-.757,5.693,5.693,0,0,1,3,.7,2.385,2.385,0,0,1,1.143,2.188V13.2a.771.771,0,0,0,.112.439.542.542,0,0,0,.474.166q.117,0,.264-.015t.313-.044v1.3a4.9,4.9,0,0,1-.625.146,4.567,4.567,0,0,1-.586.029,1.446,1.446,0,0,1-1.318-.645,2.487,2.487,0,0,1-.3-.967,4.472,4.472,0,0,1-1.543,1.221,4.773,4.773,0,0,1-2.217.518,3.3,3.3,0,0,1-2.378-.884,2.936,2.936,0,0,1-.923-2.212A2.849,2.849,0,0,1,211.807,10a4.321,4.321,0,0,1,2.383-.986Zm6.631,1.23a5.184,5.184,0,0,0,.713,2.813,2.5,2.5,0,0,0,2.285,1.133,2.407,2.407,0,0,0,2.007-1.05,4.958,4.958,0,0,0,.786-3.013,4.455,4.455,0,0,0-.811-2.935,2.528,2.528,0,0,0-2-.952A2.643,2.643,0,0,0,224.448,6.9,4.652,4.652,0,0,0,223.623,9.893Zm2.646-5.537a3.721,3.721,0,0,1,2.012.508,4.726,4.726,0,0,1,1.064,1.025V.605h1.689V15h-1.582V13.545a3.8,3.8,0,0,1-1.455,1.4,4.165,4.165,0,0,1-1.924.43,3.9,3.9,0,0,1-3.027-1.47,5.746,5.746,0,0,1-1.279-3.911,6.751,6.751,0,0,1,1.167-3.96A3.821,3.821,0,0,1,226.27,4.355Zm11.719-.049a4.771,4.771,0,0,1,2.158.522,3.98,3.98,0,0,1,1.592,1.353,4.666,4.666,0,0,1,.7,1.846,12.075,12.075,0,0,1,.156,2.3h-7.666a4.473,4.473,0,0,0,.752,2.554,2.518,2.518,0,0,0,2.178.962,2.815,2.815,0,0,0,2.2-.908,3.062,3.062,0,0,0,.664-1.221h1.729A3.641,3.641,0,0,1,242,13a4.567,4.567,0,0,1-.864,1.157,4.1,4.1,0,0,1-1.982,1.055,6.022,6.022,0,0,1-1.436.156A4.4,4.4,0,0,1,234.4,13.95a5.529,5.529,0,0,1-1.357-3.979,6.011,6.011,0,0,1,1.367-4.092A4.51,4.51,0,0,1,237.988,4.307Zm2.8,4.629a4.554,4.554,0,0,0-.5-1.826,2.553,2.553,0,0,0-2.412-1.27,2.674,2.674,0,0,0-2.031.874,3.3,3.3,0,0,0-.869,2.222Zm5.01,2.783a2.556,2.556,0,0,0,.439,1.348,2.762,2.762,0,0,0,2.3.85,3.4,3.4,0,0,0,1.719-.425,1.411,1.411,0,0,0,.742-1.313,1.123,1.123,0,0,0-.6-1.025,7.082,7.082,0,0,0-1.5-.5l-1.4-.352a6.812,6.812,0,0,1-1.973-.742A2.218,2.218,0,0,1,244.4,7.588a3.014,3.014,0,0,1,1.069-2.4,4.266,4.266,0,0,1,2.876-.918,3.992,3.992,0,0,1,3.408,1.387,3.009,3.009,0,0,1,.635,1.895h-1.66a2.034,2.034,0,0,0-.42-1.084,2.678,2.678,0,0,0-2.1-.693,2.51,2.51,0,0,0-1.509.381,1.194,1.194,0,0,0-.513,1.006,1.238,1.238,0,0,0,.674,1.094,4.049,4.049,0,0,0,1.152.43l1.162.283a8.985,8.985,0,0,1,2.539.889,2.353,2.353,0,0,1,1.025,2.119,3.229,3.229,0,0,1-1.06,2.412,4.51,4.51,0,0,1-3.228,1.016,4.33,4.33,0,0,1-3.306-1.06,4.007,4.007,0,0,1-1.04-2.622Zm21.045-7.178h1.943q-.371,1.006-1.65,4.59-.957,2.7-1.6,4.395a29.711,29.711,0,0,1-2.148,4.883,2.456,2.456,0,0,1-2.148.879,4.215,4.215,0,0,1-.571-.029,4.513,4.513,0,0,1-.493-.107v-1.6a6.065,6.065,0,0,0,.664.156,2.592,2.592,0,0,0,.361.029,1.265,1.265,0,0,0,.718-.161,1.486,1.486,0,0,0,.386-.4q.049-.078.352-.8T263.1,15.3L259.229,4.541h1.992l2.8,8.516Zm13.379-.234a4.771,4.771,0,0,1,2.158.522,3.98,3.98,0,0,1,1.592,1.353,4.666,4.666,0,0,1,.7,1.846,12.077,12.077,0,0,1,.156,2.3h-7.666a4.473,4.473,0,0,0,.752,2.554,2.518,2.518,0,0,0,2.178.962,2.815,2.815,0,0,0,2.2-.908,3.062,3.062,0,0,0,.664-1.221h1.729A3.64,3.64,0,0,1,284.233,13a4.568,4.568,0,0,1-.864,1.157,4.1,4.1,0,0,1-1.982,1.055,6.022,6.022,0,0,1-1.436.156,4.4,4.4,0,0,1-3.311-1.421,5.529,5.529,0,0,1-1.357-3.979,6.011,6.011,0,0,1,1.367-4.092A4.51,4.51,0,0,1,280.225,4.307Zm2.8,4.629a4.554,4.554,0,0,0-.5-1.826,2.553,2.553,0,0,0-2.412-1.27,2.674,2.674,0,0,0-2.031.874,3.3,3.3,0,0,0-.869,2.222Zm4.824-4.395,2.793,8.516,2.92-8.516h1.924L291.543,15h-1.875L285.811,4.541Zm9.141.049h1.787V15h-1.787Zm0-3.936h1.787V2.646h-1.787Zm4.795.967h1.777v2.92h1.67V5.977h-1.67V12.8a.739.739,0,0,0,.371.732,1.577,1.577,0,0,0,.684.107q.127,0,.273,0t.342-.024V15a3.924,3.924,0,0,1-.63.127,5.989,5.989,0,0,1-.708.039,1.908,1.908,0,0,1-1.67-.63,2.8,2.8,0,0,1-.439-1.636V5.977h-1.416V4.541h1.416Zm6.553,10.6a1.448,1.448,0,0,0,.557,1.2,2.064,2.064,0,0,0,1.318.439,4.008,4.008,0,0,0,1.8-.43,2.418,2.418,0,0,0,1.465-2.334V9.678a3.007,3.007,0,0,1-.83.342,7.073,7.073,0,0,1-1,.2l-1.064.137a4.071,4.071,0,0,0-1.436.4A1.56,1.56,0,0,0,308.34,12.217ZM312.6,8.662a.955.955,0,0,0,.811-.508,1.545,1.545,0,0,0,.117-.674,1.428,1.428,0,0,0-.64-1.3,3.432,3.432,0,0,0-1.831-.405,2.327,2.327,0,0,0-1.953.742,2.442,2.442,0,0,0-.42,1.221h-1.641a3.02,3.02,0,0,1,1.255-2.69,5.152,5.152,0,0,1,2.8-.757,5.693,5.693,0,0,1,3,.7,2.385,2.385,0,0,1,1.143,2.188V13.2a.772.772,0,0,0,.112.439.542.542,0,0,0,.474.166q.117,0,.264-.015t.313-.044v1.3a4.9,4.9,0,0,1-.625.146,4.567,4.567,0,0,1-.586.029,1.446,1.446,0,0,1-1.318-.645,2.488,2.488,0,0,1-.3-.967,4.472,4.472,0,0,1-1.543,1.221,4.773,4.773,0,0,1-2.217.518,3.3,3.3,0,0,1-2.378-.884,2.936,2.936,0,0,1-.923-2.212A2.849,2.849,0,0,1,307.412,10a4.321,4.321,0,0,1,2.383-.986Zm5.566-4.121h1.67V6.348a3.992,3.992,0,0,1,1.006-1.284,2.608,2.608,0,0,1,1.846-.757q.049,0,.166.01t.4.039V6.211a2.625,2.625,0,0,0-.288-.039q-.132-.01-.288-.01a2.508,2.508,0,0,0-2.041.854,2.983,2.983,0,0,0-.713,1.968V15h-1.758ZM330.381.654h1.758V15h-1.758Zm5.742,11.563a1.448,1.448,0,0,0,.557,1.2,2.064,2.064,0,0,0,1.318.439,4.008,4.008,0,0,0,1.8-.43,2.418,2.418,0,0,0,1.465-2.334V9.678a3.007,3.007,0,0,1-.83.342,7.073,7.073,0,0,1-1,.2l-1.064.137a4.071,4.071,0,0,0-1.436.4A1.56,1.56,0,0,0,336.123,12.217Zm4.258-3.555a.955.955,0,0,0,.811-.508,1.545,1.545,0,0,0,.117-.674,1.428,1.428,0,0,0-.64-1.3,3.432,3.432,0,0,0-1.831-.405,2.327,2.327,0,0,0-1.953.742,2.442,2.442,0,0,0-.42,1.221h-1.641a3.02,3.02,0,0,1,1.255-2.69,5.152,5.152,0,0,1,2.8-.757,5.693,5.693,0,0,1,3,.7,2.385,2.385,0,0,1,1.143,2.188V13.2a.772.772,0,0,0,.112.439.542.542,0,0,0,.474.166q.117,0,.264-.015t.313-.044v1.3a4.9,4.9,0,0,1-.625.146,4.567,4.567,0,0,1-.586.029,1.446,1.446,0,0,1-1.318-.645,2.488,2.488,0,0,1-.3-.967,4.472,4.472,0,0,1-1.543,1.221,4.773,4.773,0,0,1-2.217.518,3.3,3.3,0,0,1-2.378-.884,2.936,2.936,0,0,1-.923-2.212A2.849,2.849,0,0,1,335.2,10a4.321,4.321,0,0,1,2.383-.986Zm6.563,3.057a2.556,2.556,0,0,0,.439,1.348,2.762,2.762,0,0,0,2.3.85,3.4,3.4,0,0,0,1.719-.425,1.411,1.411,0,0,0,.742-1.313,1.123,1.123,0,0,0-.6-1.025,7.083,7.083,0,0,0-1.5-.5l-1.4-.352a6.812,6.812,0,0,1-1.973-.742,2.218,2.218,0,0,1-1.133-1.973,3.014,3.014,0,0,1,1.069-2.4,4.266,4.266,0,0,1,2.876-.918A3.992,3.992,0,0,1,352.9,5.654a3.009,3.009,0,0,1,.635,1.895h-1.66a2.034,2.034,0,0,0-.42-1.084,2.678,2.678,0,0,0-2.1-.693,2.51,2.51,0,0,0-1.509.381,1.194,1.194,0,0,0-.513,1.006,1.238,1.238,0,0,0,.674,1.094,4.049,4.049,0,0,0,1.152.43l1.162.283a8.985,8.985,0,0,1,2.539.889,2.353,2.353,0,0,1,1.025,2.119,3.229,3.229,0,0,1-1.06,2.412A4.51,4.51,0,0,1,349.6,15.4a4.33,4.33,0,0,1-3.306-1.06,4.007,4.007,0,0,1-1.04-2.622ZM2.637,42.217a1.448,1.448,0,0,0,.557,1.2,2.064,2.064,0,0,0,1.318.439,4.008,4.008,0,0,0,1.8-.43,2.418,2.418,0,0,0,1.465-2.334V39.678a3.007,3.007,0,0,1-.83.342,7.073,7.073,0,0,1-1,.2l-1.064.137a4.071,4.071,0,0,0-1.436.4A1.56,1.56,0,0,0,2.637,42.217Zm4.258-3.555a.955.955,0,0,0,.811-.508,1.545,1.545,0,0,0,.117-.674,1.428,1.428,0,0,0-.64-1.3,3.432,3.432,0,0,0-1.831-.405,2.327,2.327,0,0,0-1.953.742,2.442,2.442,0,0,0-.42,1.221H1.338a3.02,3.02,0,0,1,1.255-2.69,5.152,5.152,0,0,1,2.8-.757,5.693,5.693,0,0,1,3,.7,2.385,2.385,0,0,1,1.143,2.188V43.2a.771.771,0,0,0,.112.439.542.542,0,0,0,.474.166q.117,0,.264-.015t.313-.044v1.3a4.9,4.9,0,0,1-.625.146,4.567,4.567,0,0,1-.586.029,1.446,1.446,0,0,1-1.318-.645,2.487,2.487,0,0,1-.3-.967,4.472,4.472,0,0,1-1.543,1.221,4.773,4.773,0,0,1-2.217.518,3.3,3.3,0,0,1-2.378-.884A2.936,2.936,0,0,1,.8,42.256,2.849,2.849,0,0,1,1.709,40a4.321,4.321,0,0,1,2.383-.986Zm5.518-4.121H14.15v1.484A5.843,5.843,0,0,1,15.283,34.9a3.407,3.407,0,0,1,1.973-.6,3.1,3.1,0,0,1,2.012.615,3.216,3.216,0,0,1,.781,1.035,3.8,3.8,0,0,1,1.377-1.245,3.841,3.841,0,0,1,1.777-.405,2.906,2.906,0,0,1,2.871,1.523,4.98,4.98,0,0,1,.41,2.207V45H24.658V37.734a1.692,1.692,0,0,0-.522-1.436,2.068,2.068,0,0,0-1.274-.391,2.53,2.53,0,0,0-1.782.693,3.045,3.045,0,0,0-.747,2.314V45H18.545V38.174a3.547,3.547,0,0,0-.254-1.553,1.548,1.548,0,0,0-1.494-.732,2.578,2.578,0,0,0-1.812.771,3.781,3.781,0,0,0-.815,2.793V45H12.412Zm21.016-.234a4.771,4.771,0,0,1,2.158.522,3.98,3.98,0,0,1,1.592,1.353,4.666,4.666,0,0,1,.7,1.846,12.076,12.076,0,0,1,.156,2.3H30.371a4.473,4.473,0,0,0,.752,2.554,2.518,2.518,0,0,0,2.178.962,2.815,2.815,0,0,0,2.2-.908,3.062,3.062,0,0,0,.664-1.221h1.729A3.64,3.64,0,0,1,37.437,43a4.567,4.567,0,0,1-.864,1.157,4.1,4.1,0,0,1-1.982,1.055,6.022,6.022,0,0,1-1.436.156,4.4,4.4,0,0,1-3.311-1.421,5.529,5.529,0,0,1-1.357-3.979,6.011,6.011,0,0,1,1.367-4.092A4.51,4.51,0,0,1,33.428,34.307Zm2.8,4.629a4.554,4.554,0,0,0-.5-1.826,2.553,2.553,0,0,0-2.412-1.27,2.674,2.674,0,0,0-2.031.874,3.3,3.3,0,0,0-.869,2.222ZM40.2,34.541h1.67v1.484a4.684,4.684,0,0,1,1.572-1.318,4.193,4.193,0,0,1,1.846-.4,3.043,3.043,0,0,1,3.008,1.553,5.514,5.514,0,0,1,.43,2.432V45H46.934V38.408a3.569,3.569,0,0,0-.283-1.543,1.717,1.717,0,0,0-1.7-.977,3.46,3.46,0,0,0-1.025.127,2.641,2.641,0,0,0-1.27.859,2.587,2.587,0,0,0-.571,1.069,7.2,7.2,0,0,0-.132,1.577V45H40.2Zm12.471,7.676a1.448,1.448,0,0,0,.557,1.2,2.064,2.064,0,0,0,1.318.439,4.008,4.008,0,0,0,1.8-.43A2.418,2.418,0,0,0,57.8,41.094V39.678a3.007,3.007,0,0,1-.83.342,7.074,7.074,0,0,1-1,.2l-1.064.137a4.071,4.071,0,0,0-1.436.4A1.56,1.56,0,0,0,52.666,42.217Zm4.258-3.555a.955.955,0,0,0,.811-.508,1.545,1.545,0,0,0,.117-.674,1.428,1.428,0,0,0-.64-1.3,3.432,3.432,0,0,0-1.831-.405,2.327,2.327,0,0,0-1.953.742,2.442,2.442,0,0,0-.42,1.221H51.367a3.02,3.02,0,0,1,1.255-2.69,5.152,5.152,0,0,1,2.8-.757,5.693,5.693,0,0,1,3,.7,2.385,2.385,0,0,1,1.143,2.188V43.2a.771.771,0,0,0,.112.439.542.542,0,0,0,.474.166q.117,0,.264-.015t.313-.044v1.3a4.9,4.9,0,0,1-.625.146,4.567,4.567,0,0,1-.586.029,1.446,1.446,0,0,1-1.318-.645,2.487,2.487,0,0,1-.3-.967,4.472,4.472,0,0,1-1.543,1.221,4.773,4.773,0,0,1-2.217.518,3.3,3.3,0,0,1-2.378-.884,2.936,2.936,0,0,1-.923-2.212A2.849,2.849,0,0,1,51.738,40a4.321,4.321,0,0,1,2.383-.986Zm4.736,4.951,6.2-7.5H62.119V34.541h8.105v1.436l-6.162,7.451H70.41V45H61.66Zm12.129-1.4a1.448,1.448,0,0,0,.557,1.2,2.064,2.064,0,0,0,1.318.439,4.008,4.008,0,0,0,1.8-.43,2.418,2.418,0,0,0,1.465-2.334V39.678a3.007,3.007,0,0,1-.83.342,7.073,7.073,0,0,1-1,.2l-1.064.137a4.071,4.071,0,0,0-1.436.4A1.56,1.56,0,0,0,73.789,42.217Zm4.258-3.555a.955.955,0,0,0,.811-.508,1.545,1.545,0,0,0,.117-.674,1.428,1.428,0,0,0-.64-1.3,3.432,3.432,0,0,0-1.831-.405,2.327,2.327,0,0,0-1.953.742,2.442,2.442,0,0,0-.42,1.221H72.49a3.02,3.02,0,0,1,1.255-2.69,5.152,5.152,0,0,1,2.8-.757,5.693,5.693,0,0,1,3,.7,2.385,2.385,0,0,1,1.143,2.188V43.2a.771.771,0,0,0,.112.439.542.542,0,0,0,.474.166q.117,0,.264-.015t.313-.044v1.3a4.9,4.9,0,0,1-.625.146,4.567,4.567,0,0,1-.586.029,1.446,1.446,0,0,1-1.318-.645,2.487,2.487,0,0,1-.3-.967,4.472,4.472,0,0,1-1.543,1.221,4.773,4.773,0,0,1-2.217.518,3.3,3.3,0,0,1-2.378-.884,2.936,2.936,0,0,1-.923-2.212A2.849,2.849,0,0,1,72.861,40a4.321,4.321,0,0,1,2.383-.986Zm6.563,3.057a2.556,2.556,0,0,0,.439,1.348,2.762,2.762,0,0,0,2.3.85,3.4,3.4,0,0,0,1.719-.425,1.411,1.411,0,0,0,.742-1.313,1.123,1.123,0,0,0-.6-1.025,7.082,7.082,0,0,0-1.5-.5l-1.4-.352a6.812,6.812,0,0,1-1.973-.742,2.218,2.218,0,0,1-1.133-1.973,3.014,3.014,0,0,1,1.069-2.4,4.266,4.266,0,0,1,2.876-.918,3.992,3.992,0,0,1,3.408,1.387,3.009,3.009,0,0,1,.635,1.895h-1.66a2.034,2.034,0,0,0-.42-1.084,2.678,2.678,0,0,0-2.1-.693,2.51,2.51,0,0,0-1.509.381A1.194,1.194,0,0,0,85,37.158a1.238,1.238,0,0,0,.674,1.094,4.049,4.049,0,0,0,1.152.43l1.162.283a8.985,8.985,0,0,1,2.539.889,2.353,2.353,0,0,1,1.025,2.119,3.229,3.229,0,0,1-1.06,2.412A4.51,4.51,0,0,1,87.266,45.4a4.33,4.33,0,0,1-3.306-1.06,4.007,4.007,0,0,1-1.04-2.622Zm9.375,1.152h2.041V45H93.984ZM109.307,30.42a34.1,34.1,0,0,0-1.992,4.385,16.03,16.03,0,0,0-.693,4.941,16.107,16.107,0,0,0,.791,5.176,31.255,31.255,0,0,0,1.924,4.16h-1.182q-1.426-2.227-1.768-2.842a13.2,13.2,0,0,1-.742-1.67,13.726,13.726,0,0,1-.762-3.086,12.939,12.939,0,0,1-.107-1.621,13.691,13.691,0,0,1,.908-5.146,29.621,29.621,0,0,1,2.4-4.3Zm2.217.234h2.783l4.121,12.129,4.092-12.129h2.754V45h-1.846V36.533q0-.439.02-1.455t.02-2.178L119.375,45h-1.924L113.33,32.9v.439q0,.527.024,1.606t.024,1.587V45h-1.855Zm18.232,3.887v6.943a2.928,2.928,0,0,0,.254,1.309,1.772,1.772,0,0,0,1.748.938,2.471,2.471,0,0,0,2.5-1.641,6.509,6.509,0,0,0,.361-2.412V34.541h1.758V45h-1.66l.02-1.543a3.546,3.546,0,0,1-.85,1.006,3.739,3.739,0,0,1-2.441.82,3.149,3.149,0,0,1-3.047-1.494,4.45,4.45,0,0,1-.439-2.139V34.541Zm9.414,0h1.67v1.807a3.992,3.992,0,0,1,1.006-1.284,2.608,2.608,0,0,1,1.846-.757q.049,0,.166.01t.4.039v1.855a2.626,2.626,0,0,0-.288-.039q-.132-.01-.288-.01a2.508,2.508,0,0,0-2.041.854,2.983,2.983,0,0,0-.713,1.968V45H139.17Zm10.645-.3a4.56,4.56,0,0,1,2.876.859,4.117,4.117,0,0,1,1.333,2.959h-1.709a3.155,3.155,0,0,0-.713-1.606,2.252,2.252,0,0,0-1.787-.64,2.469,2.469,0,0,0-2.4,1.641,6.517,6.517,0,0,0-.469,2.627,4.943,4.943,0,0,0,.664,2.646,2.574,2.574,0,0,0,3.823.405,3.678,3.678,0,0,0,.884-1.831h1.709a4.133,4.133,0,0,1-4.463,4,4,4,0,0,1-3.271-1.5,5.738,5.738,0,0,1-1.221-3.745,6.309,6.309,0,0,1,1.338-4.287A4.323,4.323,0,0,1,149.814,34.238Zm5.967.352h1.787V45h-1.787Zm0-3.936h1.787v1.992h-1.787Zm5.791,11.563a1.448,1.448,0,0,0,.557,1.2,2.064,2.064,0,0,0,1.318.439,4.008,4.008,0,0,0,1.8-.43,2.418,2.418,0,0,0,1.465-2.334V39.678a3.007,3.007,0,0,1-.83.342,7.074,7.074,0,0,1-1,.2l-1.064.137a4.071,4.071,0,0,0-1.436.4A1.56,1.56,0,0,0,161.572,42.217Zm4.258-3.555a.955.955,0,0,0,.811-.508,1.545,1.545,0,0,0,.117-.674,1.428,1.428,0,0,0-.64-1.3,3.432,3.432,0,0,0-1.831-.405,2.327,2.327,0,0,0-1.953.742,2.442,2.442,0,0,0-.42,1.221h-1.641a3.02,3.02,0,0,1,1.255-2.69,5.152,5.152,0,0,1,2.8-.757,5.693,5.693,0,0,1,3,.7,2.385,2.385,0,0,1,1.143,2.188V43.2a.771.771,0,0,0,.112.439.542.542,0,0,0,.474.166q.117,0,.264-.015t.313-.044v1.3A4.9,4.9,0,0,1,169,45.2a4.567,4.567,0,0,1-.586.029,1.446,1.446,0,0,1-1.318-.645,2.487,2.487,0,0,1-.3-.967,4.472,4.472,0,0,1-1.543,1.221,4.773,4.773,0,0,1-2.217.518,3.3,3.3,0,0,1-2.378-.884,2.936,2.936,0,0,1-.923-2.212A2.849,2.849,0,0,1,160.645,40a4.321,4.321,0,0,1,2.383-.986Zm5.889,8.379a1.232,1.232,0,0,0,.947-.947,2.681,2.681,0,0,0,.146-.85q0-.068,0-.122a.673.673,0,0,0-.024-.122h-1.064V42.871h2.09v1.973a4.273,4.273,0,0,1-.469,2.041,2.136,2.136,0,0,1-1.621,1.084ZM188.74,30.264a5.879,5.879,0,0,1,4.229,1.436,5.07,5.07,0,0,1,1.67,3.262h-1.895a3.943,3.943,0,0,0-1.284-2.2,4.07,4.07,0,0,0-2.7-.811,4.33,4.33,0,0,0-3.423,1.489,6.789,6.789,0,0,0-1.3,4.565,6.631,6.631,0,0,0,1.177,4.087,4.112,4.112,0,0,0,3.511,1.567,3.709,3.709,0,0,0,3.271-1.65,6.277,6.277,0,0,0,.889-2.285h1.895a6.474,6.474,0,0,1-1.68,3.8,5.977,5.977,0,0,1-4.609,1.846,6.084,6.084,0,0,1-4.2-1.514q-2.236-2-2.236-6.182a7.9,7.9,0,0,1,1.68-5.205A6.135,6.135,0,0,1,188.74,30.264Zm8.584,12.607h2.041V45h-2.041ZM208.3,30.654h1.963v5.928h7.461V30.654h1.963V45h-1.963V38.291h-7.461V45H208.3Zm14.58,12.217h2.041V45h-2.041Zm10.977-12.217h1.963v5.928h7.461V30.654h1.963V45h-1.963V38.291H235.82V45h-1.963Zm14.531,16.387a1.232,1.232,0,0,0,.947-.947,2.681,2.681,0,0,0,.146-.85q0-.068,0-.122a.673.673,0,0,0-.024-.122h-1.064V42.871h2.09v1.973a4.273,4.273,0,0,1-.469,2.041,2.136,2.136,0,0,1-1.621,1.084ZM258.467,45a8.156,8.156,0,0,1,.747-3.145,6.048,6.048,0,0,1,2.534-2.432l1.875-1.084a8.827,8.827,0,0,0,1.768-1.25,2.729,2.729,0,0,0,.068-3.794,2.67,2.67,0,0,0-1.953-.718,2.552,2.552,0,0,0-2.5,1.367,4.894,4.894,0,0,0-.41,2.031h-1.787A6.277,6.277,0,0,1,259.482,33a4.229,4.229,0,0,1,4.033-2.031,4.149,4.149,0,0,1,4.619,4.189,3.93,3.93,0,0,1-1.182,2.871,11.568,11.568,0,0,1-2.451,1.68l-1.338.742a8.666,8.666,0,0,0-1.5,1.006,3.664,3.664,0,0,0-1.23,1.885h7.637V45Zm15.908-13.984a4.132,4.132,0,0,1,3.926,2.236,10.005,10.005,0,0,1,.938,4.736,11.405,11.405,0,0,1-.85,4.717,4.16,4.16,0,0,1-4.023,2.676,4.029,4.029,0,0,1-3.75-2.187,10.016,10.016,0,0,1-1.025-4.9,12.112,12.112,0,0,1,.615-4.092Q271.357,31.016,274.375,31.016Zm-.02,12.764a2.5,2.5,0,0,0,2.178-1.211q.811-1.211.811-4.512a11.147,11.147,0,0,0-.586-3.921,2.23,2.23,0,0,0-2.275-1.538,2.379,2.379,0,0,0-2.271,1.46,10.081,10.081,0,0,0-.718,4.3,10.564,10.564,0,0,0,.459,3.438A2.5,2.5,0,0,0,274.355,43.779ZM282,35.1V33.75a7.161,7.161,0,0,0,2.656-.62,3.056,3.056,0,0,0,1.123-2.056h1.387V45h-1.875V35.1Zm9.648,0V33.75a7.161,7.161,0,0,0,2.656-.62,3.056,3.056,0,0,0,1.123-2.056h1.387V45h-1.875V35.1ZM302.52,47.041a1.232,1.232,0,0,0,.947-.947,2.681,2.681,0,0,0,.146-.85q0-.068,0-.122a.673.673,0,0,0-.024-.122H302.52V42.871h2.09v1.973a4.273,4.273,0,0,1-.469,2.041,2.136,2.136,0,0,1-1.621,1.084Zm15.156-3.223a2.508,2.508,0,0,0,2.046-1.03,4.9,4.9,0,0,0,.815-3.081,5.751,5.751,0,0,0-.361-2.148,2.648,2.648,0,0,0-5,.1,7.238,7.238,0,0,0-.361,2.48,5.258,5.258,0,0,0,.361,2.061A2.493,2.493,0,0,0,317.676,43.818Zm-4.551-9.229h1.709v1.387a4.267,4.267,0,0,1,1.152-1.1,3.709,3.709,0,0,1,2.09-.586,3.93,3.93,0,0,1,3.018,1.362,5.582,5.582,0,0,1,1.24,3.892q0,3.418-1.787,4.883a4.038,4.038,0,0,1-2.637.928,3.579,3.579,0,0,1-1.982-.518,4.568,4.568,0,0,1-1.045-1.006V49.17h-1.758Zm11.68,8.281h2.041V45H324.8Zm9.7-11.914a3.863,3.863,0,0,1,3.267,1.216,4.1,4.1,0,0,1,.923,2.5h-1.738a3.205,3.205,0,0,0-.5-1.3,2.216,2.216,0,0,0-1.924-.879,2.663,2.663,0,0,0-2.344,1.362,7.85,7.85,0,0,0-.967,3.9,3.822,3.822,0,0,1,1.523-1.328,4.393,4.393,0,0,1,1.875-.391,4.561,4.561,0,0,1,3.066,1.123,4.172,4.172,0,0,1,1.309,3.35,5.081,5.081,0,0,1-1.24,3.374,4.369,4.369,0,0,1-3.535,1.47,4.534,4.534,0,0,1-3.389-1.489q-1.426-1.489-1.426-5.015a13.5,13.5,0,0,1,.635-4.424Q331.26,30.957,334.5,30.957ZM334.375,43.8a2.412,2.412,0,0,0,2.075-.933,3.606,3.606,0,0,0,.688-2.2,3.765,3.765,0,0,0-.615-2.046,2.438,2.438,0,0,0-2.236-.972,2.916,2.916,0,0,0-1.987.752,2.86,2.86,0,0,0-.854,2.266,3.3,3.3,0,0,0,.776,2.231A2.688,2.688,0,0,0,334.375,43.8ZM340.4,45a8.156,8.156,0,0,1,.747-3.145,6.048,6.048,0,0,1,2.534-2.432l1.875-1.084a8.827,8.827,0,0,0,1.768-1.25,2.729,2.729,0,0,0,.068-3.794,2.67,2.67,0,0,0-1.953-.718,2.552,2.552,0,0,0-2.5,1.367,4.894,4.894,0,0,0-.41,2.031h-1.787A6.277,6.277,0,0,1,341.416,33a4.229,4.229,0,0,1,4.033-2.031,4.149,4.149,0,0,1,4.619,4.189,3.93,3.93,0,0,1-1.182,2.871,11.568,11.568,0,0,1-2.451,1.68l-1.338.742a8.666,8.666,0,0,0-1.5,1.006,3.664,3.664,0,0,0-1.23,1.885H350V45Zm11.191,4.082a34.474,34.474,0,0,0,2-4.414,15.935,15.935,0,0,0,.684-4.922,16.074,16.074,0,0,0-.791-5.166,31.256,31.256,0,0,0-1.924-4.16h1.182q1.5,2.4,1.821,2.964a11.461,11.461,0,0,1,.688,1.548,12.509,12.509,0,0,1,.669,2.412,13.852,13.852,0,0,1,.2,2.295,13.637,13.637,0,0,1-.918,5.156,28.32,28.32,0,0,1-2.393,4.287Z" transform="translate(1094 7852)" fill="#00223d"/>
    <path id="Trazado_35207" data-name="Trazado 35207" d="M2194.526,6031.5v198.2h446.911V5885.026h-378.8" transform="translate(-1147 1746)" fill="none" stroke="#00ffe2" stroke-width="5"/>
    <rect id="Rectángulo_3395" data-name="Rectángulo 3395" width="448" height="107" transform="translate(1020 7676)" fill="#00ffe2"/>
    <path id="Trazado_36224" data-name="Trazado 36224" d="M2.563-21.519H18.252v2.637H5.405v6.533h11.88v2.49H5.405v7.295H18.472V0H2.563Zm20.947,16.6A3.834,3.834,0,0,0,24.17-2.9a4.142,4.142,0,0,0,3.457,1.274,5.1,5.1,0,0,0,2.578-.637,2.116,2.116,0,0,0,1.113-1.97,1.685,1.685,0,0,0-.894-1.538,10.624,10.624,0,0,0-2.256-.747l-2.095-.527a10.219,10.219,0,0,1-2.959-1.113,3.327,3.327,0,0,1-1.7-2.959,4.521,4.521,0,0,1,1.6-3.6A6.4,6.4,0,0,1,27.334-16.1q3.545,0,5.112,2.08a4.514,4.514,0,0,1,.952,2.842h-2.49a3.05,3.05,0,0,0-.63-1.626,4.017,4.017,0,0,0-3.149-1.04,3.765,3.765,0,0,0-2.263.571,1.79,1.79,0,0,0-.769,1.509,1.857,1.857,0,0,0,1.011,1.641,6.074,6.074,0,0,0,1.729.645l1.743.425A13.478,13.478,0,0,1,32.388-7.72a3.53,3.53,0,0,1,1.538,3.179A4.844,4.844,0,0,1,32.336-.923,6.766,6.766,0,0,1,27.5.6q-3.5,0-4.958-1.589a6.011,6.011,0,0,1-1.56-3.933Zm13.96-15.146h2.666v4.38h2.5v2.153h-2.5V-3.3a1.108,1.108,0,0,0,.557,1.1,2.366,2.366,0,0,0,1.025.161q.19,0,.41-.007t.513-.037V0A5.886,5.886,0,0,1,41.7.19a8.983,8.983,0,0,1-1.062.059A2.862,2.862,0,0,1,38.13-.7a4.2,4.2,0,0,1-.659-2.454V-13.535H35.347v-2.153h2.124Zm7.881,4.38h2.5v2.71A5.987,5.987,0,0,1,49.365-14.9a3.912,3.912,0,0,1,2.769-1.135q.073,0,.249.015t.6.059v2.783a3.938,3.938,0,0,0-.432-.059q-.2-.015-.432-.015a3.763,3.763,0,0,0-3.062,1.282,4.474,4.474,0,0,0-1.069,2.952V0H45.352ZM57.29-4.175a2.171,2.171,0,0,0,.835,1.8,3.1,3.1,0,0,0,1.978.659,6.013,6.013,0,0,0,2.7-.645,3.627,3.627,0,0,0,2.2-3.5V-7.983a4.511,4.511,0,0,1-1.245.513,10.61,10.61,0,0,1-1.494.293l-1.6.205a6.107,6.107,0,0,0-2.153.6A2.34,2.34,0,0,0,57.29-4.175Zm6.387-5.332a1.432,1.432,0,0,0,1.216-.762,2.318,2.318,0,0,0,.176-1.011,2.141,2.141,0,0,0-.959-1.956,5.148,5.148,0,0,0-2.747-.608,3.49,3.49,0,0,0-2.93,1.113A3.663,3.663,0,0,0,57.8-10.9H55.342q.073-2.9,1.882-4.036a7.728,7.728,0,0,1,4.2-1.135,8.539,8.539,0,0,1,4.5,1.055,3.578,3.578,0,0,1,1.714,3.281V-2.7a1.157,1.157,0,0,0,.168.659.812.812,0,0,0,.71.249q.176,0,.4-.022t.469-.066V.073a7.344,7.344,0,0,1-.937.22,6.851,6.851,0,0,1-.879.044A2.169,2.169,0,0,1,65.581-.63a3.731,3.731,0,0,1-.454-1.45A6.708,6.708,0,0,1,62.813-.249a7.159,7.159,0,0,1-3.325.776A4.945,4.945,0,0,1,55.92-.8a4.4,4.4,0,0,1-1.384-3.318A4.273,4.273,0,0,1,55.9-7.5a6.482,6.482,0,0,1,3.574-1.479Zm8.8-10.562h2.666v4.38h2.5v2.153h-2.5V-3.3A1.108,1.108,0,0,0,75.7-2.2a2.366,2.366,0,0,0,1.025.161q.19,0,.41-.007t.513-.037V0a5.886,5.886,0,0,1-.945.19,8.983,8.983,0,0,1-1.062.059A2.862,2.862,0,0,1,73.14-.7a4.2,4.2,0,0,1-.659-2.454V-13.535H70.356v-2.153H72.48ZM86.821-16.04a7.156,7.156,0,0,1,3.237.784,5.97,5.97,0,0,1,2.388,2.029A7,7,0,0,1,93.5-10.459,18.114,18.114,0,0,1,93.735-7h-11.5a6.71,6.71,0,0,0,1.128,3.831,3.777,3.777,0,0,0,3.267,1.443,4.223,4.223,0,0,0,3.3-1.362,4.592,4.592,0,0,0,1-1.831h2.593A5.461,5.461,0,0,1,92.834-3a6.851,6.851,0,0,1-1.3,1.736A6.144,6.144,0,0,1,88.564.322a9.033,9.033,0,0,1-2.153.234,6.607,6.607,0,0,1-4.966-2.131,8.293,8.293,0,0,1-2.036-5.969,9.017,9.017,0,0,1,2.051-6.138A6.765,6.765,0,0,1,86.821-16.04Zm4.2,6.943a6.831,6.831,0,0,0-.747-2.739,3.829,3.829,0,0,0-3.618-1.9,4.011,4.011,0,0,0-3.047,1.311A4.953,4.953,0,0,0,82.31-9.1Zm11.484-6.87a5.718,5.718,0,0,1,3.223.908,7.238,7.238,0,0,1,1.523,1.494v-1.978h2.432V-1.274a10.521,10.521,0,0,1-.879,4.717q-1.641,3.193-6.2,3.193A7.6,7.6,0,0,1,98.35,5.5a4.427,4.427,0,0,1-1.934-3.552H99.1a2.983,2.983,0,0,0,.762,1.626,3.884,3.884,0,0,0,2.813.879q3.032,0,3.97-2.139a12.045,12.045,0,0,0,.513-4.5,5.173,5.173,0,0,1-1.9,1.787A6.335,6.335,0,0,1,102.3.19a6.285,6.285,0,0,1-4.46-1.809Q95.933-3.428,95.933-7.6a9.062,9.062,0,0,1,1.926-6.152A5.956,5.956,0,0,1,102.51-15.967Zm4.746,8.057a6.541,6.541,0,0,0-1.2-4.321,3.848,3.848,0,0,0-3.062-1.406,3.781,3.781,0,0,0-3.809,2.607,10.224,10.224,0,0,0-.542,3.647,6.475,6.475,0,0,0,1.077,4.036,3.476,3.476,0,0,0,2.893,1.384,4.062,4.062,0,0,0,4-2.563A8.268,8.268,0,0,0,107.256-7.91Zm6.4-7.705h2.681V0h-2.681Zm0-5.9h2.681v2.988h-2.681Zm8.687,17.344a2.171,2.171,0,0,0,.835,1.8,3.1,3.1,0,0,0,1.978.659,6.013,6.013,0,0,0,2.7-.645,3.627,3.627,0,0,0,2.2-3.5V-7.983a4.511,4.511,0,0,1-1.245.513,10.61,10.61,0,0,1-1.494.293l-1.6.205a6.107,6.107,0,0,0-2.153.6A2.34,2.34,0,0,0,122.344-4.175Zm6.387-5.332a1.432,1.432,0,0,0,1.216-.762,2.318,2.318,0,0,0,.176-1.011,2.141,2.141,0,0,0-.959-1.956,5.148,5.148,0,0,0-2.747-.608,3.49,3.49,0,0,0-2.93,1.113,3.663,3.663,0,0,0-.63,1.831H120.4q.073-2.9,1.882-4.036a7.728,7.728,0,0,1,4.2-1.135,8.539,8.539,0,0,1,4.5,1.055,3.578,3.578,0,0,1,1.714,3.281V-2.7a1.157,1.157,0,0,0,.168.659.812.812,0,0,0,.71.249q.176,0,.4-.022t.469-.066V.073a7.344,7.344,0,0,1-.937.22,6.851,6.851,0,0,1-.879.044,2.169,2.169,0,0,1-1.978-.967,3.731,3.731,0,0,1-.454-1.45,6.708,6.708,0,0,1-2.314,1.831,7.159,7.159,0,0,1-3.325.776A4.945,4.945,0,0,1,120.974-.8a4.4,4.4,0,0,1-1.384-3.318A4.273,4.273,0,0,1,120.952-7.5a6.482,6.482,0,0,1,3.574-1.479Zm9.844,4.585a3.834,3.834,0,0,0,.659,2.021,4.142,4.142,0,0,0,3.457,1.274,5.1,5.1,0,0,0,2.578-.637,2.116,2.116,0,0,0,1.113-1.97,1.685,1.685,0,0,0-.894-1.538,10.624,10.624,0,0,0-2.256-.747l-2.095-.527a10.219,10.219,0,0,1-2.959-1.113,3.327,3.327,0,0,1-1.7-2.959,4.521,4.521,0,0,1,1.6-3.6A6.4,6.4,0,0,1,142.4-16.1q3.545,0,5.112,2.08a4.514,4.514,0,0,1,.952,2.842h-2.49a3.05,3.05,0,0,0-.63-1.626,4.017,4.017,0,0,0-3.149-1.04,3.765,3.765,0,0,0-2.263.571,1.79,1.79,0,0,0-.769,1.509,1.857,1.857,0,0,0,1.011,1.641,6.074,6.074,0,0,0,1.729.645l1.743.425a13.478,13.478,0,0,1,3.809,1.333,3.53,3.53,0,0,1,1.538,3.179A4.844,4.844,0,0,1,147.4-.923,6.766,6.766,0,0,1,142.559.6q-3.5,0-4.958-1.589a6.011,6.011,0,0,1-1.56-3.933ZM168.955-2.49a8.057,8.057,0,0,0,2.432-.308A5.348,5.348,0,0,0,174.17-5a9,9,0,0,0,1.245-3.34,12.739,12.739,0,0,0,.22-2.256,10.505,10.505,0,0,0-1.589-6.211q-1.589-2.212-5.12-2.212h-5.171V-2.49Zm-8.13-19.028h8.716a8.215,8.215,0,0,1,6.885,3.149,11.611,11.611,0,0,1,2.183,7.28,14.505,14.505,0,0,1-1.289,6.2A7.953,7.953,0,0,1,169.512,0h-8.687ZM193.4-8.818l-3.267-9.507-3.472,9.507Zm-4.79-12.7h3.3L199.717,0h-3.193l-2.183-6.445H185.83L183.5,0h-2.988ZM8.877,13.13a51.148,51.148,0,0,0-2.988,6.577,24.045,24.045,0,0,0-1.04,7.412,24.16,24.16,0,0,0,1.187,7.764,46.883,46.883,0,0,0,2.886,6.24H7.148Q5.01,37.783,4.5,36.86a19.8,19.8,0,0,1-1.113-2.5,20.589,20.589,0,0,1-1.143-4.629,19.41,19.41,0,0,1-.161-2.432,20.536,20.536,0,0,1,1.362-7.72,44.431,44.431,0,0,1,3.6-6.445Zm11.66,19.38a8.057,8.057,0,0,0,2.432-.308A5.348,5.348,0,0,0,25.752,30,9,9,0,0,0,27,26.665a12.739,12.739,0,0,0,.22-2.256A10.505,10.505,0,0,0,25.627,18.2q-1.589-2.212-5.12-2.212H15.337V32.51Zm-8.13-19.028h8.716a8.215,8.215,0,0,1,6.885,3.149,11.611,11.611,0,0,1,2.183,7.28,14.505,14.505,0,0,1-1.289,6.2A7.953,7.953,0,0,1,21.094,35H12.407ZM40.122,18.96a7.156,7.156,0,0,1,3.237.784,5.97,5.97,0,0,1,2.388,2.029A7,7,0,0,1,46.8,24.541,18.114,18.114,0,0,1,47.036,28h-11.5a6.71,6.71,0,0,0,1.128,3.831,3.777,3.777,0,0,0,3.267,1.443,4.223,4.223,0,0,0,3.3-1.362,4.592,4.592,0,0,0,1-1.831h2.593A5.461,5.461,0,0,1,46.135,32a6.851,6.851,0,0,1-1.3,1.736,6.144,6.144,0,0,1-2.974,1.582,9.033,9.033,0,0,1-2.153.234,6.607,6.607,0,0,1-4.966-2.131,8.293,8.293,0,0,1-2.036-5.969,9.017,9.017,0,0,1,2.051-6.138A6.765,6.765,0,0,1,40.122,18.96Zm4.2,6.943a6.831,6.831,0,0,0-.747-2.739,3.829,3.829,0,0,0-3.618-1.9,4.011,4.011,0,0,0-3.047,1.311,4.953,4.953,0,0,0-1.3,3.333Zm5.742-12.5h2.563v7.808A5.746,5.746,0,0,1,57.3,18.9a6.112,6.112,0,0,1,4.753,2.014q1.824,2.014,1.824,5.94a10.187,10.187,0,0,1-1.8,6.182,5.845,5.845,0,0,1-5,2.461,5.118,5.118,0,0,1-3.018-.864A7.287,7.287,0,0,1,52.5,32.993V35H50.068Zm6.855,19.761a3.523,3.523,0,0,0,3.2-1.7,8.367,8.367,0,0,0,1.062-4.482,7.357,7.357,0,0,0-1.062-4.1A3.5,3.5,0,0,0,57,21.26a4.362,4.362,0,0,0-3.157,1.333q-1.355,1.333-1.355,4.395a9.712,9.712,0,0,0,.557,3.589A3.846,3.846,0,0,0,56.924,33.169ZM66.958,19.385h2.681V35H66.958Zm0-5.9h2.681V16.47H66.958Zm6.738,0h2.637V35H73.7Zm6.592,5.9h2.681V35H80.288Zm0-5.9h2.681V16.47H80.288Zm8.335,13.857a7.777,7.777,0,0,0,1.069,4.219,3.747,3.747,0,0,0,3.428,1.7,3.61,3.61,0,0,0,3.01-1.575,7.437,7.437,0,0,0,1.179-4.519,6.682,6.682,0,0,0-1.216-4.4,3.793,3.793,0,0,0-3-1.428,3.964,3.964,0,0,0-3.23,1.523A6.977,6.977,0,0,0,88.623,27.339Zm3.97-8.306a5.582,5.582,0,0,1,3.018.762,7.088,7.088,0,0,1,1.6,1.538V13.408h2.534V35H97.368V32.817a5.7,5.7,0,0,1-2.183,2.095,6.247,6.247,0,0,1-2.886.645,5.844,5.844,0,0,1-4.541-2.2,8.619,8.619,0,0,1-1.919-5.867,10.127,10.127,0,0,1,1.75-5.94A5.731,5.731,0,0,1,92.593,19.033Zm13.066,11.792a2.171,2.171,0,0,0,.835,1.8,3.1,3.1,0,0,0,1.978.659,6.013,6.013,0,0,0,2.7-.645,3.627,3.627,0,0,0,2.2-3.5V27.017a4.511,4.511,0,0,1-1.245.513,10.61,10.61,0,0,1-1.494.293l-1.6.205a6.107,6.107,0,0,0-2.153.6A2.34,2.34,0,0,0,105.659,30.825Zm6.387-5.332a1.432,1.432,0,0,0,1.216-.762,2.318,2.318,0,0,0,.176-1.011,2.141,2.141,0,0,0-.959-1.956,5.148,5.148,0,0,0-2.747-.608,3.49,3.49,0,0,0-2.93,1.113,3.663,3.663,0,0,0-.63,1.831h-2.461q.073-2.9,1.882-4.036a7.728,7.728,0,0,1,4.2-1.135,8.539,8.539,0,0,1,4.5,1.055A3.578,3.578,0,0,1,116,23.267V32.3a1.157,1.157,0,0,0,.168.659.812.812,0,0,0,.71.249q.176,0,.4-.022t.469-.066v1.948a7.344,7.344,0,0,1-.937.22,6.851,6.851,0,0,1-.879.044,2.169,2.169,0,0,1-1.978-.967,3.731,3.731,0,0,1-.454-1.45,6.708,6.708,0,0,1-2.314,1.831,7.159,7.159,0,0,1-3.325.776A4.945,4.945,0,0,1,104.29,34.2a4.4,4.4,0,0,1-1.384-3.318,4.273,4.273,0,0,1,1.362-3.384,6.482,6.482,0,0,1,3.574-1.479Zm9.946,1.846a7.777,7.777,0,0,0,1.069,4.219,3.747,3.747,0,0,0,3.428,1.7,3.61,3.61,0,0,0,3.01-1.575,7.437,7.437,0,0,0,1.179-4.519,6.682,6.682,0,0,0-1.216-4.4,3.793,3.793,0,0,0-3-1.428,3.964,3.964,0,0,0-3.23,1.523A6.977,6.977,0,0,0,121.992,27.339Zm3.97-8.306a5.582,5.582,0,0,1,3.018.762,7.088,7.088,0,0,1,1.6,1.538V13.408h2.534V35h-2.373V32.817a5.7,5.7,0,0,1-2.183,2.095,6.247,6.247,0,0,1-2.886.645,5.844,5.844,0,0,1-4.541-2.2,8.619,8.619,0,0,1-1.919-5.867,10.127,10.127,0,0,1,1.75-5.94A5.731,5.731,0,0,1,125.962,19.033ZM141.9,13.481h2.227L137.3,35h-2.227Zm14.839,12.7-3.267-9.507L150,26.182Zm-4.79-12.7h3.3L163.052,35h-3.193l-2.183-6.445h-8.511L146.836,35h-2.988Zm13.4,5.83h2.607v2.227a8.764,8.764,0,0,1,1.7-1.685,5.11,5.11,0,0,1,2.959-.894,4.657,4.657,0,0,1,3.018.923,4.824,4.824,0,0,1,1.172,1.553,5.7,5.7,0,0,1,2.065-1.868,5.761,5.761,0,0,1,2.666-.608q3.164,0,4.307,2.285a7.47,7.47,0,0,1,.615,3.311V35h-2.739V24.1a2.538,2.538,0,0,0-.784-2.153,3.1,3.1,0,0,0-1.912-.586,3.8,3.8,0,0,0-2.673,1.04,4.567,4.567,0,0,0-1.121,3.472V35h-2.681V24.761a5.32,5.32,0,0,0-.381-2.329,2.323,2.323,0,0,0-2.241-1.1,3.867,3.867,0,0,0-2.717,1.157q-1.223,1.157-1.223,4.189V35h-2.637Zm31.523-.352a7.156,7.156,0,0,1,3.237.784,5.97,5.97,0,0,1,2.388,2.029,7,7,0,0,1,1.055,2.769A18.114,18.114,0,0,1,203.789,28h-11.5a6.71,6.71,0,0,0,1.128,3.831,3.777,3.777,0,0,0,3.267,1.443,4.223,4.223,0,0,0,3.3-1.362,4.592,4.592,0,0,0,1-1.831h2.593A5.461,5.461,0,0,1,202.888,32a6.851,6.851,0,0,1-1.3,1.736,6.144,6.144,0,0,1-2.974,1.582,9.033,9.033,0,0,1-2.153.234,6.607,6.607,0,0,1-4.966-2.131,8.293,8.293,0,0,1-2.036-5.969,9.017,9.017,0,0,1,2.051-6.138A6.765,6.765,0,0,1,196.875,18.96Zm4.2,6.943a6.831,6.831,0,0,0-.747-2.739,3.829,3.829,0,0,0-3.618-1.9,4.011,4.011,0,0,0-3.047,1.311,4.953,4.953,0,0,0-1.3,3.333Zm5.947-6.592h2.5v2.227a7.026,7.026,0,0,1,2.358-1.978,6.289,6.289,0,0,1,2.769-.6q3.34,0,4.512,2.329a8.27,8.27,0,0,1,.645,3.647V35h-2.681V25.112a5.354,5.354,0,0,0-.425-2.314,2.575,2.575,0,0,0-2.549-1.465,5.19,5.19,0,0,0-1.538.19,3.961,3.961,0,0,0-1.9,1.289,3.881,3.881,0,0,0-.857,1.6,10.8,10.8,0,0,0-.2,2.366V35h-2.637Zm18.706,11.514a2.171,2.171,0,0,0,.835,1.8,3.1,3.1,0,0,0,1.978.659,6.013,6.013,0,0,0,2.7-.645,3.627,3.627,0,0,0,2.2-3.5V27.017a4.511,4.511,0,0,1-1.245.513,10.61,10.61,0,0,1-1.494.293l-1.6.205a6.107,6.107,0,0,0-2.153.6A2.34,2.34,0,0,0,225.732,30.825Zm6.387-5.332a1.432,1.432,0,0,0,1.216-.762,2.318,2.318,0,0,0,.176-1.011,2.141,2.141,0,0,0-.959-1.956,5.148,5.148,0,0,0-2.747-.608,3.49,3.49,0,0,0-2.93,1.113,3.663,3.663,0,0,0-.63,1.831h-2.461q.073-2.9,1.882-4.036a7.728,7.728,0,0,1,4.2-1.135,8.539,8.539,0,0,1,4.5,1.055,3.578,3.578,0,0,1,1.714,3.281V32.3a1.157,1.157,0,0,0,.168.659.812.812,0,0,0,.71.249q.176,0,.4-.022t.469-.066v1.948a7.344,7.344,0,0,1-.937.22,6.851,6.851,0,0,1-.879.044,2.169,2.169,0,0,1-1.978-.967,3.731,3.731,0,0,1-.454-1.45,6.708,6.708,0,0,1-2.314,1.831,7.159,7.159,0,0,1-3.325.776,4.945,4.945,0,0,1-3.567-1.326,4.4,4.4,0,0,1-1.384-3.318,4.273,4.273,0,0,1,1.362-3.384,6.482,6.482,0,0,1,3.574-1.479Zm7.1,7.427,9.3-11.25h-8.613V19.312H252.07v2.153l-9.243,11.177h9.521V35H239.224Zm18.193-2.095a2.171,2.171,0,0,0,.835,1.8,3.1,3.1,0,0,0,1.978.659,6.013,6.013,0,0,0,2.7-.645,3.627,3.627,0,0,0,2.2-3.5V27.017a4.511,4.511,0,0,1-1.245.513,10.61,10.61,0,0,1-1.494.293l-1.6.205a6.107,6.107,0,0,0-2.153.6A2.34,2.34,0,0,0,257.417,30.825Zm6.387-5.332a1.432,1.432,0,0,0,1.216-.762,2.318,2.318,0,0,0,.176-1.011,2.141,2.141,0,0,0-.959-1.956,5.148,5.148,0,0,0-2.747-.608,3.49,3.49,0,0,0-2.93,1.113,3.663,3.663,0,0,0-.63,1.831h-2.461q.073-2.9,1.882-4.036a7.728,7.728,0,0,1,4.2-1.135,8.539,8.539,0,0,1,4.5,1.055,3.578,3.578,0,0,1,1.714,3.281V32.3a1.157,1.157,0,0,0,.168.659.812.812,0,0,0,.71.249q.176,0,.4-.022t.469-.066v1.948a7.344,7.344,0,0,1-.937.22,6.851,6.851,0,0,1-.879.044,2.169,2.169,0,0,1-1.978-.967,3.731,3.731,0,0,1-.454-1.45,6.708,6.708,0,0,1-2.314,1.831,7.159,7.159,0,0,1-3.325.776,4.945,4.945,0,0,1-3.567-1.326,4.4,4.4,0,0,1-1.384-3.318,4.273,4.273,0,0,1,1.362-3.384,6.482,6.482,0,0,1,3.574-1.479Zm7.383,15.63a51.714,51.714,0,0,0,3-6.621,23.9,23.9,0,0,0,1.025-7.383,24.111,24.111,0,0,0-1.187-7.749,46.883,46.883,0,0,0-2.886-6.24h1.772q2.256,3.6,2.732,4.446A17.187,17.187,0,0,1,276.68,19.9a18.765,18.765,0,0,1,1,3.618,20.776,20.776,0,0,1,.3,3.442,20.455,20.455,0,0,1-1.377,7.734,42.479,42.479,0,0,1-3.589,6.431Z" transform="translate(1071 7719)" fill="#472ea6"/>
  </g>
</svg>
