<svg xmlns="http://www.w3.org/2000/svg" width="1078.5" height="425.203" viewBox="0 0 1078.5 425.203">
  <g id="Grupo_17655" data-name="Grupo 17655" transform="translate(-422 -7086)">
    <circle id="Elipse_941" data-name="Elipse 941" cx="137" cy="137" r="137" transform="translate(422 7086)" fill="#472ea6"/>
    <path id="Trazado_36214" data-name="Trazado 36214" d="M18.936-48.945q9.5,0,13.74,7.827,3.281,6.05,3.281,16.577,0,9.98-2.974,16.509Q28.677,1.333,18.9,1.333A14.1,14.1,0,0,1,5.776-6.323Q2.188-12.715,2.188-23.481A42.394,42.394,0,0,1,4.341-37.8Q8.374-48.945,18.936-48.945ZM18.867-4.272a8.755,8.755,0,0,0,7.622-4.238q2.837-4.238,2.837-15.791a39.014,39.014,0,0,0-2.051-13.723q-2.051-5.383-7.964-5.383a8.325,8.325,0,0,0-7.947,5.11q-2.512,5.11-2.512,15.056a36.973,36.973,0,0,0,1.606,12.031Q12.92-4.272,18.867-4.272ZM45.63-34.658v-4.717q6.665-.649,9.3-2.17t3.931-7.195h4.854V0H57.148V-34.658Z" transform="translate(466 7188)" fill="#00ffe2"/>
    <path id="Trazado_36216" data-name="Trazado 36216" d="M7.568.264A5.879,5.879,0,0,1,11.8,1.7a5.07,5.07,0,0,1,1.67,3.262H11.572a3.943,3.943,0,0,0-1.284-2.2,4.07,4.07,0,0,0-2.7-.811A4.33,4.33,0,0,0,4.165,3.442a6.789,6.789,0,0,0-1.3,4.565,6.631,6.631,0,0,0,1.177,4.087,4.112,4.112,0,0,0,3.511,1.567,3.709,3.709,0,0,0,3.271-1.65,6.277,6.277,0,0,0,.889-2.285H13.6a6.474,6.474,0,0,1-1.68,3.8,5.977,5.977,0,0,1-4.609,1.846,6.084,6.084,0,0,1-4.2-1.514q-2.236-2-2.236-6.182a7.9,7.9,0,0,1,1.68-5.205A6.135,6.135,0,0,1,7.568.264Zm12.314,13.6a2.424,2.424,0,0,0,2.4-1.323A6.592,6.592,0,0,0,22.93,9.6a5.242,5.242,0,0,0-.469-2.383A2.637,2.637,0,0,0,19.9,5.771,2.523,2.523,0,0,0,17.559,7a5.7,5.7,0,0,0-.732,2.969,4.961,4.961,0,0,0,.732,2.783A2.58,2.58,0,0,0,19.883,13.867Zm.068-9.629a4.736,4.736,0,0,1,3.418,1.348,5.263,5.263,0,0,1,1.4,3.965,6.8,6.8,0,0,1-1.23,4.18,4.451,4.451,0,0,1-3.818,1.65,4.311,4.311,0,0,1-3.428-1.46A5.767,5.767,0,0,1,15.02,10a6.239,6.239,0,0,1,1.338-4.2A4.49,4.49,0,0,1,19.951,4.238ZM21.992.332,19.385,3.154H18.037L19.824.332Zm4.863,4.209h1.738V6.025A5.843,5.843,0,0,1,29.727,4.9a3.407,3.407,0,0,1,1.973-.6,3.1,3.1,0,0,1,2.012.615,3.216,3.216,0,0,1,.781,1.035,3.8,3.8,0,0,1,1.377-1.245,3.841,3.841,0,0,1,1.777-.405A2.906,2.906,0,0,1,40.518,5.83a4.98,4.98,0,0,1,.41,2.207V15H39.1V7.734A1.692,1.692,0,0,0,38.579,6.3,2.068,2.068,0,0,0,37.3,5.908a2.53,2.53,0,0,0-1.782.693,3.045,3.045,0,0,0-.747,2.314V15H32.988V8.174a3.547,3.547,0,0,0-.254-1.553,1.548,1.548,0,0,0-1.494-.732,2.578,2.578,0,0,0-1.812.771,3.781,3.781,0,0,0-.815,2.793V15H26.855Zm20.811,9.326a2.424,2.424,0,0,0,2.4-1.323A6.592,6.592,0,0,0,50.713,9.6a5.242,5.242,0,0,0-.469-2.383,2.637,2.637,0,0,0-2.559-1.445A2.523,2.523,0,0,0,45.342,7a5.7,5.7,0,0,0-.732,2.969,4.961,4.961,0,0,0,.732,2.783A2.58,2.58,0,0,0,47.666,13.867Zm.068-9.629a4.736,4.736,0,0,1,3.418,1.348,5.263,5.263,0,0,1,1.4,3.965,6.8,6.8,0,0,1-1.23,4.18,4.451,4.451,0,0,1-3.818,1.65,4.311,4.311,0,0,1-3.428-1.46A5.767,5.767,0,0,1,42.8,10a6.239,6.239,0,0,1,1.338-4.2A4.49,4.49,0,0,1,47.734,4.238Zm14.219.3v6.943a2.928,2.928,0,0,0,.254,1.309,1.772,1.772,0,0,0,1.748.938,2.471,2.471,0,0,0,2.5-1.641,6.509,6.509,0,0,0,.361-2.412V4.541h1.758V15h-1.66l.02-1.543a3.546,3.546,0,0,1-.85,1.006,3.739,3.739,0,0,1-2.441.82A3.149,3.149,0,0,1,60.6,13.789a4.45,4.45,0,0,1-.439-2.139V4.541Zm10.41,7.178a2.556,2.556,0,0,0,.439,1.348,2.762,2.762,0,0,0,2.3.85,3.4,3.4,0,0,0,1.719-.425,1.411,1.411,0,0,0,.742-1.313,1.123,1.123,0,0,0-.6-1.025,7.083,7.083,0,0,0-1.5-.5l-1.4-.352A6.812,6.812,0,0,1,72.1,9.561a2.218,2.218,0,0,1-1.133-1.973,3.014,3.014,0,0,1,1.069-2.4,4.266,4.266,0,0,1,2.876-.918A3.992,3.992,0,0,1,78.32,5.654a3.009,3.009,0,0,1,.635,1.895h-1.66a2.034,2.034,0,0,0-.42-1.084,2.678,2.678,0,0,0-2.1-.693,2.51,2.51,0,0,0-1.509.381,1.194,1.194,0,0,0-.513,1.006,1.238,1.238,0,0,0,.674,1.094,4.049,4.049,0,0,0,1.152.43l1.162.283a8.985,8.985,0,0,1,2.539.889,2.353,2.353,0,0,1,1.025,2.119,3.229,3.229,0,0,1-1.06,2.412A4.51,4.51,0,0,1,75.02,15.4a4.33,4.33,0,0,1-3.306-1.06,4.007,4.007,0,0,1-1.04-2.622Zm10.3.5a1.448,1.448,0,0,0,.557,1.2,2.064,2.064,0,0,0,1.318.439,4.008,4.008,0,0,0,1.8-.43A2.418,2.418,0,0,0,87.8,11.094V9.678a3.007,3.007,0,0,1-.83.342,7.073,7.073,0,0,1-1,.2l-1.064.137a4.071,4.071,0,0,0-1.436.4A1.56,1.56,0,0,0,82.666,12.217Zm4.258-3.555a.955.955,0,0,0,.811-.508,1.545,1.545,0,0,0,.117-.674,1.428,1.428,0,0,0-.64-1.3,3.432,3.432,0,0,0-1.831-.405,2.327,2.327,0,0,0-1.953.742,2.442,2.442,0,0,0-.42,1.221H81.367a3.02,3.02,0,0,1,1.255-2.69,5.152,5.152,0,0,1,2.8-.757,5.693,5.693,0,0,1,3,.7,2.385,2.385,0,0,1,1.143,2.188V13.2a.771.771,0,0,0,.112.439.542.542,0,0,0,.474.166q.117,0,.264-.015t.313-.044v1.3a4.9,4.9,0,0,1-.625.146,4.567,4.567,0,0,1-.586.029,1.446,1.446,0,0,1-1.318-.645,2.487,2.487,0,0,1-.3-.967,4.472,4.472,0,0,1-1.543,1.221,4.773,4.773,0,0,1-2.217.518,3.3,3.3,0,0,1-2.378-.884,2.936,2.936,0,0,1-.923-2.212A2.849,2.849,0,0,1,81.738,10a4.321,4.321,0,0,1,2.383-.986ZM92.49,4.541h1.67V6.348a3.992,3.992,0,0,1,1.006-1.284,2.608,2.608,0,0,1,1.846-.757q.049,0,.166.01t.4.039V6.211a2.625,2.625,0,0,0-.288-.039q-.132-.01-.288-.01a2.508,2.508,0,0,0-2.041.854,2.983,2.983,0,0,0-.713,1.968V15H92.49ZM104.707.654h1.758V15h-1.758Zm5.742,11.563a1.448,1.448,0,0,0,.557,1.2,2.064,2.064,0,0,0,1.318.439,4.008,4.008,0,0,0,1.8-.43,2.418,2.418,0,0,0,1.465-2.334V9.678a3.007,3.007,0,0,1-.83.342,7.073,7.073,0,0,1-1,.2l-1.064.137a4.071,4.071,0,0,0-1.436.4A1.56,1.56,0,0,0,110.449,12.217Zm4.258-3.555a.955.955,0,0,0,.811-.508,1.545,1.545,0,0,0,.117-.674,1.428,1.428,0,0,0-.64-1.3,3.432,3.432,0,0,0-1.831-.405,2.327,2.327,0,0,0-1.953.742,2.442,2.442,0,0,0-.42,1.221H109.15a3.02,3.02,0,0,1,1.255-2.69,5.152,5.152,0,0,1,2.8-.757,5.693,5.693,0,0,1,3,.7,2.385,2.385,0,0,1,1.143,2.188V13.2a.771.771,0,0,0,.112.439.542.542,0,0,0,.474.166q.117,0,.264-.015t.313-.044v1.3a4.9,4.9,0,0,1-.625.146,4.567,4.567,0,0,1-.586.029,1.446,1.446,0,0,1-1.318-.645,2.487,2.487,0,0,1-.3-.967,4.472,4.472,0,0,1-1.543,1.221,4.773,4.773,0,0,1-2.217.518,3.3,3.3,0,0,1-2.378-.884,2.936,2.936,0,0,1-.923-2.212A2.849,2.849,0,0,1,109.521,10a4.321,4.321,0,0,1,2.383-.986Zm6.563,3.057a2.556,2.556,0,0,0,.439,1.348,2.762,2.762,0,0,0,2.3.85,3.4,3.4,0,0,0,1.719-.425,1.411,1.411,0,0,0,.742-1.313,1.123,1.123,0,0,0-.6-1.025,7.083,7.083,0,0,0-1.5-.5l-1.4-.352a6.812,6.812,0,0,1-1.973-.742,2.218,2.218,0,0,1-1.133-1.973,3.014,3.014,0,0,1,1.069-2.4,4.266,4.266,0,0,1,2.876-.918,3.992,3.992,0,0,1,3.408,1.387,3.009,3.009,0,0,1,.635,1.895H126.2a2.034,2.034,0,0,0-.42-1.084,2.678,2.678,0,0,0-2.1-.693,2.51,2.51,0,0,0-1.509.381,1.194,1.194,0,0,0-.513,1.006,1.238,1.238,0,0,0,.674,1.094,4.049,4.049,0,0,0,1.152.43l1.162.283a8.985,8.985,0,0,1,2.539.889,2.353,2.353,0,0,1,1.025,2.119,3.229,3.229,0,0,1-1.06,2.412,4.51,4.51,0,0,1-3.228,1.016,4.33,4.33,0,0,1-3.306-1.06,4.007,4.007,0,0,1-1.04-2.622Zm14.951-8.77a3.134,3.134,0,0,1,.381-1.6,2.692,2.692,0,0,1,2.373-.9q.166,0,.342.01t.4.029v1.6q-.273-.02-.4-.024t-.229,0q-.8,0-.957.415a8.205,8.205,0,0,0-.156,2.114h1.738V5.977h-1.758V15h-1.738V5.977h-1.455V4.59h1.455Zm9.268,10.918a2.424,2.424,0,0,0,2.4-1.323,6.592,6.592,0,0,0,.649-2.944,5.242,5.242,0,0,0-.469-2.383,2.637,2.637,0,0,0-2.559-1.445A2.523,2.523,0,0,0,143.164,7a5.7,5.7,0,0,0-.732,2.969,4.961,4.961,0,0,0,.732,2.783A2.58,2.58,0,0,0,145.488,13.867Zm.068-9.629a4.736,4.736,0,0,1,3.418,1.348,5.263,5.263,0,0,1,1.4,3.965,6.8,6.8,0,0,1-1.23,4.18,4.451,4.451,0,0,1-3.818,1.65,4.311,4.311,0,0,1-3.428-1.46A5.767,5.767,0,0,1,140.625,10a6.239,6.239,0,0,1,1.338-4.2A4.49,4.49,0,0,1,145.557,4.238Zm6.953.3h1.67V6.348a3.992,3.992,0,0,1,1.006-1.284,2.608,2.608,0,0,1,1.846-.757q.049,0,.166.01t.4.039V6.211a2.626,2.626,0,0,0-.288-.039q-.132-.01-.288-.01a2.508,2.508,0,0,0-2.041.854,2.983,2.983,0,0,0-.713,1.968V15H152.51Zm6.963-2.92h1.777v2.92h1.67V5.977h-1.67V12.8a.739.739,0,0,0,.371.732,1.577,1.577,0,0,0,.684.107q.127,0,.273,0t.342-.024V15a3.924,3.924,0,0,1-.63.127,5.988,5.988,0,0,1-.708.039,1.908,1.908,0,0,1-1.67-.63,2.8,2.8,0,0,1-.439-1.636V5.977h-1.416V4.541h1.416Zm6.553,10.6a1.448,1.448,0,0,0,.557,1.2,2.064,2.064,0,0,0,1.318.439,4.008,4.008,0,0,0,1.8-.43,2.418,2.418,0,0,0,1.465-2.334V9.678a3.007,3.007,0,0,1-.83.342,7.074,7.074,0,0,1-1,.2l-1.064.137a4.071,4.071,0,0,0-1.436.4A1.56,1.56,0,0,0,166.025,12.217Zm4.258-3.555a.955.955,0,0,0,.811-.508,1.545,1.545,0,0,0,.117-.674,1.428,1.428,0,0,0-.64-1.3,3.432,3.432,0,0,0-1.831-.405,2.327,2.327,0,0,0-1.953.742,2.442,2.442,0,0,0-.42,1.221h-1.641a3.02,3.02,0,0,1,1.255-2.69,5.152,5.152,0,0,1,2.8-.757,5.693,5.693,0,0,1,3,.7,2.385,2.385,0,0,1,1.143,2.188V13.2a.771.771,0,0,0,.112.439.542.542,0,0,0,.474.166q.117,0,.264-.015t.313-.044v1.3a4.9,4.9,0,0,1-.625.146,4.567,4.567,0,0,1-.586.029,1.446,1.446,0,0,1-1.318-.645,2.487,2.487,0,0,1-.3-.967,4.472,4.472,0,0,1-1.543,1.221,4.773,4.773,0,0,1-2.217.518,3.3,3.3,0,0,1-2.378-.884,2.936,2.936,0,0,1-.923-2.212A2.849,2.849,0,0,1,165.1,10a4.321,4.321,0,0,1,2.383-.986ZM175.85.654h1.758V15H175.85Zm8.75,3.652a4.771,4.771,0,0,1,2.158.522,3.98,3.98,0,0,1,1.592,1.353,4.666,4.666,0,0,1,.7,1.846,12.075,12.075,0,0,1,.156,2.3h-7.666a4.473,4.473,0,0,0,.752,2.554,2.518,2.518,0,0,0,2.178.962,2.815,2.815,0,0,0,2.2-.908,3.062,3.062,0,0,0,.664-1.221h1.729A3.641,3.641,0,0,1,188.608,13a4.567,4.567,0,0,1-.864,1.157,4.1,4.1,0,0,1-1.982,1.055,6.022,6.022,0,0,1-1.436.156,4.4,4.4,0,0,1-3.311-1.421,5.529,5.529,0,0,1-1.357-3.979,6.011,6.011,0,0,1,1.367-4.092A4.51,4.51,0,0,1,184.6,4.307Zm2.8,4.629a4.554,4.554,0,0,0-.5-1.826,2.553,2.553,0,0,0-2.412-1.27,2.674,2.674,0,0,0-2.031.874,3.3,3.3,0,0,0-.869,2.222Zm3.184,4.678,6.2-7.5h-5.742V4.541h8.105V5.977l-6.162,7.451h6.348V15h-8.75Zm12.129-1.4a1.448,1.448,0,0,0,.557,1.2,2.064,2.064,0,0,0,1.318.439,4.008,4.008,0,0,0,1.8-.43,2.418,2.418,0,0,0,1.465-2.334V9.678a3.007,3.007,0,0,1-.83.342,7.074,7.074,0,0,1-1,.2l-1.064.137a4.071,4.071,0,0,0-1.436.4A1.56,1.56,0,0,0,202.715,12.217Zm4.258-3.555a.955.955,0,0,0,.811-.508,1.545,1.545,0,0,0,.117-.674,1.428,1.428,0,0,0-.64-1.3,3.432,3.432,0,0,0-1.831-.405,2.327,2.327,0,0,0-1.953.742,2.442,2.442,0,0,0-.42,1.221h-1.641a3.02,3.02,0,0,1,1.255-2.69,5.152,5.152,0,0,1,2.8-.757,5.693,5.693,0,0,1,3,.7,2.385,2.385,0,0,1,1.143,2.188V13.2a.771.771,0,0,0,.112.439.542.542,0,0,0,.474.166q.117,0,.264-.015t.313-.044v1.3a4.9,4.9,0,0,1-.625.146,4.567,4.567,0,0,1-.586.029,1.446,1.446,0,0,1-1.318-.645,2.487,2.487,0,0,1-.3-.967,4.472,4.472,0,0,1-1.543,1.221,4.773,4.773,0,0,1-2.217.518,3.3,3.3,0,0,1-2.378-.884,2.936,2.936,0,0,1-.923-2.212A2.849,2.849,0,0,1,201.787,10a4.321,4.321,0,0,1,2.383-.986Zm6.563,3.057a2.556,2.556,0,0,0,.439,1.348,2.762,2.762,0,0,0,2.3.85A3.4,3.4,0,0,0,218,13.491a1.411,1.411,0,0,0,.742-1.313,1.123,1.123,0,0,0-.6-1.025,7.082,7.082,0,0,0-1.5-.5l-1.4-.352a6.812,6.812,0,0,1-1.973-.742,2.218,2.218,0,0,1-1.133-1.973,3.014,3.014,0,0,1,1.069-2.4,4.266,4.266,0,0,1,2.876-.918,3.992,3.992,0,0,1,3.408,1.387,3.009,3.009,0,0,1,.635,1.895h-1.66a2.034,2.034,0,0,0-.42-1.084,2.678,2.678,0,0,0-2.1-.693,2.51,2.51,0,0,0-1.509.381,1.194,1.194,0,0,0-.513,1.006,1.238,1.238,0,0,0,.674,1.094,4.049,4.049,0,0,0,1.152.43l1.162.283a8.985,8.985,0,0,1,2.539.889,2.353,2.353,0,0,1,1.025,2.119,3.229,3.229,0,0,1-1.06,2.412,4.51,4.51,0,0,1-3.228,1.016,4.33,4.33,0,0,1-3.306-1.06,4.007,4.007,0,0,1-1.04-2.622Zm18.926,2.1a2.508,2.508,0,0,0,2.046-1.03,4.9,4.9,0,0,0,.815-3.081,5.751,5.751,0,0,0-.361-2.148,2.648,2.648,0,0,0-5,.1,7.237,7.237,0,0,0-.361,2.48,5.258,5.258,0,0,0,.361,2.061A2.493,2.493,0,0,0,232.461,13.818ZM227.91,4.59h1.709V5.977a4.267,4.267,0,0,1,1.152-1.1,3.709,3.709,0,0,1,2.09-.586,3.93,3.93,0,0,1,3.018,1.362,5.581,5.581,0,0,1,1.24,3.892q0,3.418-1.787,4.883a4.038,4.038,0,0,1-2.637.928,3.579,3.579,0,0,1-1.982-.518,4.567,4.567,0,0,1-1.045-1.006V19.17H227.91Zm15.615-.283a4.771,4.771,0,0,1,2.158.522,3.98,3.98,0,0,1,1.592,1.353,4.666,4.666,0,0,1,.7,1.846,12.075,12.075,0,0,1,.156,2.3h-7.666a4.473,4.473,0,0,0,.752,2.554,2.518,2.518,0,0,0,2.178.962,2.815,2.815,0,0,0,2.2-.908,3.062,3.062,0,0,0,.664-1.221h1.729A3.641,3.641,0,0,1,247.534,13a4.567,4.567,0,0,1-.864,1.157,4.1,4.1,0,0,1-1.982,1.055,6.022,6.022,0,0,1-1.436.156,4.4,4.4,0,0,1-3.311-1.421,5.529,5.529,0,0,1-1.357-3.979,6.011,6.011,0,0,1,1.367-4.092A4.51,4.51,0,0,1,243.525,4.307Zm2.8,4.629a4.554,4.554,0,0,0-.5-1.826,2.553,2.553,0,0,0-2.412-1.27,2.674,2.674,0,0,0-2.031.874,3.3,3.3,0,0,0-.869,2.222Zm4.014-4.395h1.67V6.348a3.992,3.992,0,0,1,1.006-1.284,2.608,2.608,0,0,1,1.846-.757q.049,0,.166.01t.4.039V6.211a2.626,2.626,0,0,0-.288-.039q-.132-.01-.288-.01a2.508,2.508,0,0,0-2.041.854,2.983,2.983,0,0,0-.713,1.968V15h-1.758ZM258,11.719a2.556,2.556,0,0,0,.439,1.348,2.762,2.762,0,0,0,2.3.85,3.4,3.4,0,0,0,1.719-.425,1.411,1.411,0,0,0,.742-1.313,1.123,1.123,0,0,0-.6-1.025,7.083,7.083,0,0,0-1.5-.5l-1.4-.352a6.812,6.812,0,0,1-1.973-.742A2.218,2.218,0,0,1,256.6,7.588a3.014,3.014,0,0,1,1.069-2.4,4.266,4.266,0,0,1,2.876-.918,3.992,3.992,0,0,1,3.408,1.387,3.009,3.009,0,0,1,.635,1.895h-1.66a2.034,2.034,0,0,0-.42-1.084,2.678,2.678,0,0,0-2.1-.693,2.51,2.51,0,0,0-1.509.381,1.194,1.194,0,0,0-.513,1.006,1.238,1.238,0,0,0,.674,1.094,4.049,4.049,0,0,0,1.152.43l1.162.283a8.985,8.985,0,0,1,2.539.889,2.353,2.353,0,0,1,1.025,2.119,3.229,3.229,0,0,1-1.06,2.412,4.51,4.51,0,0,1-3.228,1.016,4.33,4.33,0,0,1-3.306-1.06,4.007,4.007,0,0,1-1.04-2.622ZM271.1,13.867a2.424,2.424,0,0,0,2.4-1.323A6.592,6.592,0,0,0,274.15,9.6a5.242,5.242,0,0,0-.469-2.383,2.637,2.637,0,0,0-2.559-1.445A2.523,2.523,0,0,0,268.779,7a5.7,5.7,0,0,0-.732,2.969,4.961,4.961,0,0,0,.732,2.783A2.58,2.58,0,0,0,271.1,13.867Zm.068-9.629a4.736,4.736,0,0,1,3.418,1.348,5.263,5.263,0,0,1,1.4,3.965,6.8,6.8,0,0,1-1.23,4.18,4.451,4.451,0,0,1-3.818,1.65,4.311,4.311,0,0,1-3.428-1.46A5.767,5.767,0,0,1,266.24,10a6.239,6.239,0,0,1,1.338-4.2A4.49,4.49,0,0,1,271.172,4.238Zm6.9.3h1.67V6.025a4.684,4.684,0,0,1,1.572-1.318,4.193,4.193,0,0,1,1.846-.4,3.043,3.043,0,0,1,3.008,1.553,5.513,5.513,0,0,1,.43,2.432V15h-1.787V8.408a3.569,3.569,0,0,0-.283-1.543,1.717,1.717,0,0,0-1.7-.977,3.46,3.46,0,0,0-1.025.127,2.641,2.641,0,0,0-1.27.859,2.587,2.587,0,0,0-.571,1.069,7.2,7.2,0,0,0-.132,1.577V15h-1.758Zm12.471,7.676a1.448,1.448,0,0,0,.557,1.2,2.064,2.064,0,0,0,1.318.439,4.008,4.008,0,0,0,1.8-.43,2.418,2.418,0,0,0,1.465-2.334V9.678a3.007,3.007,0,0,1-.83.342,7.073,7.073,0,0,1-1,.2l-1.064.137a4.071,4.071,0,0,0-1.436.4A1.56,1.56,0,0,0,290.547,12.217ZM294.8,8.662a.955.955,0,0,0,.811-.508,1.545,1.545,0,0,0,.117-.674,1.428,1.428,0,0,0-.64-1.3,3.432,3.432,0,0,0-1.831-.405,2.327,2.327,0,0,0-1.953.742,2.442,2.442,0,0,0-.42,1.221h-1.641a3.02,3.02,0,0,1,1.255-2.69,5.152,5.152,0,0,1,2.8-.757,5.693,5.693,0,0,1,3,.7,2.385,2.385,0,0,1,1.143,2.188V13.2a.772.772,0,0,0,.112.439.542.542,0,0,0,.474.166q.117,0,.264-.015t.313-.044v1.3a4.9,4.9,0,0,1-.625.146,4.567,4.567,0,0,1-.586.029,1.446,1.446,0,0,1-1.318-.645,2.488,2.488,0,0,1-.3-.967,4.472,4.472,0,0,1-1.543,1.221,4.773,4.773,0,0,1-2.217.518,3.3,3.3,0,0,1-2.378-.884,2.936,2.936,0,0,1-.923-2.212A2.849,2.849,0,0,1,289.619,10,4.321,4.321,0,0,1,292,9.014ZM300.371.654h1.758V15h-1.758Zm8.75,3.652a4.771,4.771,0,0,1,2.158.522,3.98,3.98,0,0,1,1.592,1.353,4.666,4.666,0,0,1,.7,1.846,12.077,12.077,0,0,1,.156,2.3h-7.666a4.473,4.473,0,0,0,.752,2.554,2.518,2.518,0,0,0,2.178.962,2.815,2.815,0,0,0,2.2-.908,3.062,3.062,0,0,0,.664-1.221h1.729A3.64,3.64,0,0,1,313.13,13a4.568,4.568,0,0,1-.864,1.157,4.1,4.1,0,0,1-1.982,1.055,6.022,6.022,0,0,1-1.436.156,4.4,4.4,0,0,1-3.311-1.421,5.529,5.529,0,0,1-1.357-3.979,6.011,6.011,0,0,1,1.367-4.092A4.51,4.51,0,0,1,309.121,4.307Zm2.8,4.629a4.554,4.554,0,0,0-.5-1.826,2.553,2.553,0,0,0-2.412-1.27,2.674,2.674,0,0,0-2.031.874,3.3,3.3,0,0,0-.869,2.222Zm5.01,2.783a2.556,2.556,0,0,0,.439,1.348,2.762,2.762,0,0,0,2.3.85,3.4,3.4,0,0,0,1.719-.425,1.411,1.411,0,0,0,.742-1.313,1.123,1.123,0,0,0-.6-1.025,7.083,7.083,0,0,0-1.5-.5l-1.4-.352a6.812,6.812,0,0,1-1.973-.742,2.218,2.218,0,0,1-1.133-1.973,3.014,3.014,0,0,1,1.069-2.4,4.266,4.266,0,0,1,2.876-.918,3.992,3.992,0,0,1,3.408,1.387,3.009,3.009,0,0,1,.635,1.895h-1.66a2.034,2.034,0,0,0-.42-1.084,2.678,2.678,0,0,0-2.1-.693,2.51,2.51,0,0,0-1.509.381,1.194,1.194,0,0,0-.513,1.006A1.238,1.238,0,0,0,318,8.252a4.049,4.049,0,0,0,1.152.43l1.162.283a8.985,8.985,0,0,1,2.539.889,2.353,2.353,0,0,1,1.025,2.119,3.229,3.229,0,0,1-1.06,2.412A4.51,4.51,0,0,1,319.59,15.4a4.33,4.33,0,0,1-3.306-1.06,4.007,4.007,0,0,1-1.04-2.622Zm21.045-7.178h1.943q-.371,1.006-1.65,4.59-.957,2.7-1.6,4.395a29.711,29.711,0,0,1-2.148,4.883,2.456,2.456,0,0,1-2.148.879,4.215,4.215,0,0,1-.571-.029,4.513,4.513,0,0,1-.493-.107v-1.6a6.065,6.065,0,0,0,.664.156,2.592,2.592,0,0,0,.361.029,1.265,1.265,0,0,0,.718-.161,1.486,1.486,0,0,0,.386-.4q.049-.078.352-.8t.439-1.074L330.361,4.541h1.992l2.8,8.516ZM2.637,42.217a1.448,1.448,0,0,0,.557,1.2,2.064,2.064,0,0,0,1.318.439,4.008,4.008,0,0,0,1.8-.43,2.418,2.418,0,0,0,1.465-2.334V39.678a3.007,3.007,0,0,1-.83.342,7.073,7.073,0,0,1-1,.2l-1.064.137a4.071,4.071,0,0,0-1.436.4A1.56,1.56,0,0,0,2.637,42.217Zm4.258-3.555a.955.955,0,0,0,.811-.508,1.545,1.545,0,0,0,.117-.674,1.428,1.428,0,0,0-.64-1.3,3.432,3.432,0,0,0-1.831-.405,2.327,2.327,0,0,0-1.953.742,2.442,2.442,0,0,0-.42,1.221H1.338a3.02,3.02,0,0,1,1.255-2.69,5.152,5.152,0,0,1,2.8-.757,5.693,5.693,0,0,1,3,.7,2.385,2.385,0,0,1,1.143,2.188V43.2a.771.771,0,0,0,.112.439.542.542,0,0,0,.474.166q.117,0,.264-.015t.313-.044v1.3a4.9,4.9,0,0,1-.625.146,4.567,4.567,0,0,1-.586.029,1.446,1.446,0,0,1-1.318-.645,2.487,2.487,0,0,1-.3-.967,4.472,4.472,0,0,1-1.543,1.221,4.773,4.773,0,0,1-2.217.518,3.3,3.3,0,0,1-2.378-.884A2.936,2.936,0,0,1,.8,42.256,2.849,2.849,0,0,1,1.709,40a4.321,4.321,0,0,1,2.383-.986Zm9.932,5.156a2.508,2.508,0,0,0,2.046-1.03,4.9,4.9,0,0,0,.815-3.081,5.751,5.751,0,0,0-.361-2.148,2.494,2.494,0,0,0-2.5-1.729,2.493,2.493,0,0,0-2.5,1.826,7.238,7.238,0,0,0-.361,2.48,5.258,5.258,0,0,0,.361,2.061A2.493,2.493,0,0,0,16.826,43.818ZM12.275,34.59h1.709v1.387a4.267,4.267,0,0,1,1.152-1.1,3.709,3.709,0,0,1,2.09-.586,3.93,3.93,0,0,1,3.018,1.362,5.582,5.582,0,0,1,1.24,3.892q0,3.418-1.787,4.883a4.038,4.038,0,0,1-2.637.928,3.579,3.579,0,0,1-1.982-.518,4.567,4.567,0,0,1-1.045-1.006V49.17H12.275Zm11.309-.049h1.67v1.807a3.992,3.992,0,0,1,1.006-1.284,2.608,2.608,0,0,1,1.846-.757q.049,0,.166.01t.4.039v1.855a2.626,2.626,0,0,0-.288-.039q-.132-.01-.288-.01a2.508,2.508,0,0,0-2.041.854,2.983,2.983,0,0,0-.713,1.968V45H23.584Zm10.762,9.326a2.424,2.424,0,0,0,2.4-1.323,6.592,6.592,0,0,0,.649-2.944,5.242,5.242,0,0,0-.469-2.383,2.637,2.637,0,0,0-2.559-1.445A2.523,2.523,0,0,0,32.021,37a5.7,5.7,0,0,0-.732,2.969,4.961,4.961,0,0,0,.732,2.783A2.58,2.58,0,0,0,34.346,43.867Zm.068-9.629a4.736,4.736,0,0,1,3.418,1.348,5.263,5.263,0,0,1,1.4,3.965A6.8,6.8,0,0,1,38,43.73a4.451,4.451,0,0,1-3.818,1.65,4.311,4.311,0,0,1-3.428-1.46A5.767,5.767,0,0,1,29.482,40a6.239,6.239,0,0,1,1.338-4.2A4.49,4.49,0,0,1,34.414,34.238Zm7.764.3,2.793,8.516,2.92-8.516h1.924L45.869,45H43.994L40.137,34.541Zm13.5-.234a4.771,4.771,0,0,1,2.158.522,3.98,3.98,0,0,1,1.592,1.353,4.666,4.666,0,0,1,.7,1.846,12.076,12.076,0,0,1,.156,2.3H52.617a4.473,4.473,0,0,0,.752,2.554,2.518,2.518,0,0,0,2.178.962,2.815,2.815,0,0,0,2.2-.908,3.062,3.062,0,0,0,.664-1.221h1.729A3.64,3.64,0,0,1,59.683,43a4.567,4.567,0,0,1-.864,1.157,4.1,4.1,0,0,1-1.982,1.055,6.022,6.022,0,0,1-1.436.156A4.4,4.4,0,0,1,52.09,43.95a5.529,5.529,0,0,1-1.357-3.979A6.011,6.011,0,0,1,52.1,35.879,4.51,4.51,0,0,1,55.674,34.307Zm2.8,4.629a4.554,4.554,0,0,0-.5-1.826,2.553,2.553,0,0,0-2.412-1.27,2.674,2.674,0,0,0-2.031.874,3.3,3.3,0,0,0-.869,2.222Zm8-4.7a4.56,4.56,0,0,1,2.876.859,4.117,4.117,0,0,1,1.333,2.959H68.975a3.155,3.155,0,0,0-.713-1.606,2.252,2.252,0,0,0-1.787-.64,2.469,2.469,0,0,0-2.4,1.641,6.517,6.517,0,0,0-.469,2.627,4.943,4.943,0,0,0,.664,2.646,2.574,2.574,0,0,0,3.823.405,3.678,3.678,0,0,0,.884-1.831h1.709a4.133,4.133,0,0,1-4.463,4,4,4,0,0,1-3.271-1.5,5.738,5.738,0,0,1-1.221-3.745,6.309,6.309,0,0,1,1.338-4.287A4.323,4.323,0,0,1,66.475,34.238Zm5.967-3.633H74.2v5.352a5.075,5.075,0,0,1,1.123-1.113,3.789,3.789,0,0,1,2.119-.557,3.134,3.134,0,0,1,3.086,1.592,5.428,5.428,0,0,1,.439,2.412V45H79.16V38.408a3.687,3.687,0,0,0-.293-1.689,1.872,1.872,0,0,0-1.8-.859,2.993,2.993,0,0,0-1.982.752,3.616,3.616,0,0,0-.889,2.842V45H72.441ZM84.912,42.217a1.448,1.448,0,0,0,.557,1.2,2.064,2.064,0,0,0,1.318.439,4.008,4.008,0,0,0,1.8-.43,2.418,2.418,0,0,0,1.465-2.334V39.678a3.007,3.007,0,0,1-.83.342,7.073,7.073,0,0,1-1,.2l-1.064.137a4.071,4.071,0,0,0-1.436.4A1.56,1.56,0,0,0,84.912,42.217Zm4.258-3.555a.955.955,0,0,0,.811-.508,1.545,1.545,0,0,0,.117-.674,1.428,1.428,0,0,0-.64-1.3,3.432,3.432,0,0,0-1.831-.405,2.327,2.327,0,0,0-1.953.742,2.442,2.442,0,0,0-.42,1.221H83.613a3.02,3.02,0,0,1,1.255-2.69,5.152,5.152,0,0,1,2.8-.757,5.693,5.693,0,0,1,3,.7,2.385,2.385,0,0,1,1.143,2.188V43.2a.771.771,0,0,0,.112.439.542.542,0,0,0,.474.166q.117,0,.264-.015t.313-.044v1.3a4.9,4.9,0,0,1-.625.146,4.567,4.567,0,0,1-.586.029,1.446,1.446,0,0,1-1.318-.645,2.487,2.487,0,0,1-.3-.967,4.472,4.472,0,0,1-1.543,1.221,4.773,4.773,0,0,1-2.217.518A3.3,3.3,0,0,1,84,44.468a2.936,2.936,0,0,1-.923-2.212A2.849,2.849,0,0,1,83.984,40a4.321,4.321,0,0,1,2.383-.986Zm5.566-4.121h1.67v1.807a3.992,3.992,0,0,1,1.006-1.284,2.608,2.608,0,0,1,1.846-.757q.049,0,.166.01t.4.039v1.855a2.626,2.626,0,0,0-.288-.039q-.132-.01-.288-.01a2.508,2.508,0,0,0-2.041.854,2.983,2.983,0,0,0-.713,1.968V45H94.736Zm12.217-3.887h1.758V45h-1.758ZM112.7,42.217a1.448,1.448,0,0,0,.557,1.2,2.064,2.064,0,0,0,1.318.439,4.008,4.008,0,0,0,1.8-.43,2.418,2.418,0,0,0,1.465-2.334V39.678a3.007,3.007,0,0,1-.83.342,7.073,7.073,0,0,1-1,.2l-1.064.137a4.071,4.071,0,0,0-1.436.4A1.56,1.56,0,0,0,112.7,42.217Zm4.258-3.555a.955.955,0,0,0,.811-.508,1.545,1.545,0,0,0,.117-.674,1.428,1.428,0,0,0-.64-1.3,3.432,3.432,0,0,0-1.831-.405,2.327,2.327,0,0,0-1.953.742,2.442,2.442,0,0,0-.42,1.221H111.4a3.02,3.02,0,0,1,1.255-2.69,5.152,5.152,0,0,1,2.8-.757,5.693,5.693,0,0,1,3,.7,2.385,2.385,0,0,1,1.143,2.188V43.2a.771.771,0,0,0,.112.439.542.542,0,0,0,.474.166q.117,0,.264-.015t.313-.044v1.3a4.9,4.9,0,0,1-.625.146,4.567,4.567,0,0,1-.586.029,1.446,1.446,0,0,1-1.318-.645,2.487,2.487,0,0,1-.3-.967,4.472,4.472,0,0,1-1.543,1.221,4.773,4.773,0,0,1-2.217.518,3.3,3.3,0,0,1-2.378-.884,2.936,2.936,0,0,1-.923-2.212A2.849,2.849,0,0,1,111.768,40a4.321,4.321,0,0,1,2.383-.986Zm6.563,3.057a2.556,2.556,0,0,0,.439,1.348,2.762,2.762,0,0,0,2.3.85,3.4,3.4,0,0,0,1.719-.425,1.411,1.411,0,0,0,.742-1.313,1.123,1.123,0,0,0-.6-1.025,7.082,7.082,0,0,0-1.5-.5l-1.4-.352a6.812,6.812,0,0,1-1.973-.742,2.218,2.218,0,0,1-1.133-1.973,3.014,3.014,0,0,1,1.069-2.4,4.266,4.266,0,0,1,2.876-.918,3.992,3.992,0,0,1,3.408,1.387,3.009,3.009,0,0,1,.635,1.895h-1.66a2.034,2.034,0,0,0-.42-1.084,2.678,2.678,0,0,0-2.1-.693,2.51,2.51,0,0,0-1.509.381,1.194,1.194,0,0,0-.513,1.006,1.238,1.238,0,0,0,.674,1.094,4.049,4.049,0,0,0,1.152.43l1.162.283a8.985,8.985,0,0,1,2.539.889,2.353,2.353,0,0,1,1.025,2.119,3.229,3.229,0,0,1-1.06,2.412,4.51,4.51,0,0,1-3.228,1.016,4.33,4.33,0,0,1-3.306-1.06,4.007,4.007,0,0,1-1.04-2.622Zm18.662,2.148a2.424,2.424,0,0,0,2.4-1.323,6.592,6.592,0,0,0,.649-2.944,5.242,5.242,0,0,0-.469-2.383,2.637,2.637,0,0,0-2.559-1.445A2.523,2.523,0,0,0,139.854,37a5.7,5.7,0,0,0-.732,2.969,4.961,4.961,0,0,0,.732,2.783A2.58,2.58,0,0,0,142.178,43.867Zm.068-9.629a4.736,4.736,0,0,1,3.418,1.348,5.263,5.263,0,0,1,1.4,3.965,6.8,6.8,0,0,1-1.23,4.18,4.451,4.451,0,0,1-3.818,1.65,4.311,4.311,0,0,1-3.428-1.46A5.767,5.767,0,0,1,137.314,40a6.239,6.239,0,0,1,1.338-4.2A4.49,4.49,0,0,1,142.246,34.238Zm11.318,9.58a2.508,2.508,0,0,0,2.046-1.03,4.9,4.9,0,0,0,.815-3.081,5.751,5.751,0,0,0-.361-2.148,2.648,2.648,0,0,0-5,.1,7.237,7.237,0,0,0-.361,2.48,5.258,5.258,0,0,0,.361,2.061A2.493,2.493,0,0,0,153.564,43.818Zm-4.551-9.229h1.709v1.387a4.267,4.267,0,0,1,1.152-1.1,3.709,3.709,0,0,1,2.09-.586,3.93,3.93,0,0,1,3.018,1.362,5.581,5.581,0,0,1,1.24,3.892q0,3.418-1.787,4.883a4.038,4.038,0,0,1-2.637.928,3.579,3.579,0,0,1-1.982-.518,4.567,4.567,0,0,1-1.045-1.006V49.17h-1.758Zm15.41,9.277a2.424,2.424,0,0,0,2.4-1.323,6.592,6.592,0,0,0,.649-2.944A5.242,5.242,0,0,0,167,37.217a2.637,2.637,0,0,0-2.559-1.445A2.523,2.523,0,0,0,162.1,37a5.7,5.7,0,0,0-.732,2.969,4.961,4.961,0,0,0,.732,2.783A2.58,2.58,0,0,0,164.424,43.867Zm.068-9.629a4.736,4.736,0,0,1,3.418,1.348,5.263,5.263,0,0,1,1.4,3.965,6.8,6.8,0,0,1-1.23,4.18,4.451,4.451,0,0,1-3.818,1.65,4.311,4.311,0,0,1-3.428-1.46A5.767,5.767,0,0,1,159.561,40a6.239,6.239,0,0,1,1.338-4.2A4.49,4.49,0,0,1,164.492,34.238Zm6.953.3h1.67v1.807a3.992,3.992,0,0,1,1.006-1.284,2.608,2.608,0,0,1,1.846-.757q.049,0,.166.01t.4.039v1.855a2.626,2.626,0,0,0-.288-.039q-.132-.01-.288-.01a2.508,2.508,0,0,0-2.041.854,2.983,2.983,0,0,0-.713,1.968V45h-1.758Zm6.963-2.92h1.777v2.92h1.67v1.436h-1.67V42.8a.739.739,0,0,0,.371.732,1.577,1.577,0,0,0,.684.107q.127,0,.273,0t.342-.024V45a3.924,3.924,0,0,1-.63.127,5.988,5.988,0,0,1-.708.039,1.908,1.908,0,0,1-1.67-.63,2.8,2.8,0,0,1-.439-1.636V35.977h-1.416V34.541h1.416Zm6.963,2.92v6.943a2.928,2.928,0,0,0,.254,1.309,1.772,1.772,0,0,0,1.748.938,2.471,2.471,0,0,0,2.5-1.641,6.509,6.509,0,0,0,.361-2.412V34.541h1.758V45h-1.66l.02-1.543a3.546,3.546,0,0,1-.85,1.006,3.739,3.739,0,0,1-2.441.82,3.149,3.149,0,0,1-3.047-1.494,4.45,4.45,0,0,1-.439-2.139V34.541Zm9.365,0h1.67v1.484a4.684,4.684,0,0,1,1.572-1.318,4.193,4.193,0,0,1,1.846-.4,3.043,3.043,0,0,1,3.008,1.553,5.514,5.514,0,0,1,.43,2.432V45h-1.787V38.408a3.569,3.569,0,0,0-.283-1.543,1.717,1.717,0,0,0-1.7-.977,3.46,3.46,0,0,0-1.025.127,2.641,2.641,0,0,0-1.27.859,2.587,2.587,0,0,0-.571,1.069,7.2,7.2,0,0,0-.132,1.577V45h-1.758Zm11.123.049h1.787V45h-1.787Zm0-3.936h1.787v1.992h-1.787Zm5.557,9.238a5.184,5.184,0,0,0,.713,2.813,2.5,2.5,0,0,0,2.285,1.133,2.407,2.407,0,0,0,2.007-1.05,4.958,4.958,0,0,0,.786-3.013,4.455,4.455,0,0,0-.811-2.935,2.528,2.528,0,0,0-2-.952,2.643,2.643,0,0,0-2.153,1.016A4.652,4.652,0,0,0,211.416,39.893Zm2.646-5.537a3.721,3.721,0,0,1,2.012.508,4.726,4.726,0,0,1,1.064,1.025V30.605h1.689V45h-1.582V43.545a3.8,3.8,0,0,1-1.455,1.4,4.165,4.165,0,0,1-1.924.43,3.9,3.9,0,0,1-3.027-1.47,5.746,5.746,0,0,1-1.279-3.911,6.751,6.751,0,0,1,1.167-3.96A3.821,3.821,0,0,1,214.063,34.355Zm8.711,7.861a1.448,1.448,0,0,0,.557,1.2,2.064,2.064,0,0,0,1.318.439,4.008,4.008,0,0,0,1.8-.43,2.418,2.418,0,0,0,1.465-2.334V39.678a3.007,3.007,0,0,1-.83.342,7.074,7.074,0,0,1-1,.2l-1.064.137a4.071,4.071,0,0,0-1.436.4A1.56,1.56,0,0,0,222.773,42.217Zm4.258-3.555a.955.955,0,0,0,.811-.508,1.545,1.545,0,0,0,.117-.674,1.428,1.428,0,0,0-.64-1.3,3.432,3.432,0,0,0-1.831-.405,2.327,2.327,0,0,0-1.953.742,2.442,2.442,0,0,0-.42,1.221h-1.641a3.02,3.02,0,0,1,1.255-2.69,5.152,5.152,0,0,1,2.8-.757,5.693,5.693,0,0,1,3,.7,2.385,2.385,0,0,1,1.143,2.188V43.2a.771.771,0,0,0,.112.439.542.542,0,0,0,.474.166q.117,0,.264-.015t.313-.044v1.3a4.9,4.9,0,0,1-.625.146,4.567,4.567,0,0,1-.586.029,1.446,1.446,0,0,1-1.318-.645,2.487,2.487,0,0,1-.3-.967,4.472,4.472,0,0,1-1.543,1.221,4.773,4.773,0,0,1-2.217.518,3.3,3.3,0,0,1-2.378-.884,2.936,2.936,0,0,1-.923-2.212A2.849,2.849,0,0,1,221.846,40a4.321,4.321,0,0,1,2.383-.986Zm6.631,1.23a5.184,5.184,0,0,0,.713,2.813,2.5,2.5,0,0,0,2.285,1.133,2.407,2.407,0,0,0,2.007-1.05,4.958,4.958,0,0,0,.786-3.013,4.455,4.455,0,0,0-.811-2.935,2.528,2.528,0,0,0-2-.952,2.643,2.643,0,0,0-2.153,1.016A4.652,4.652,0,0,0,233.662,39.893Zm2.646-5.537a3.721,3.721,0,0,1,2.012.508,4.726,4.726,0,0,1,1.064,1.025V30.605h1.689V45h-1.582V43.545a3.8,3.8,0,0,1-1.455,1.4,4.165,4.165,0,0,1-1.924.43,3.9,3.9,0,0,1-3.027-1.47,5.746,5.746,0,0,1-1.279-3.911,6.751,6.751,0,0,1,1.167-3.96A3.821,3.821,0,0,1,236.309,34.355Zm11.719-.049a4.771,4.771,0,0,1,2.158.522,3.98,3.98,0,0,1,1.592,1.353,4.666,4.666,0,0,1,.7,1.846,12.075,12.075,0,0,1,.156,2.3h-7.666a4.473,4.473,0,0,0,.752,2.554,2.518,2.518,0,0,0,2.178.962,2.815,2.815,0,0,0,2.2-.908,3.062,3.062,0,0,0,.664-1.221h1.729A3.641,3.641,0,0,1,252.036,43a4.567,4.567,0,0,1-.864,1.157,4.1,4.1,0,0,1-1.982,1.055,6.022,6.022,0,0,1-1.436.156,4.4,4.4,0,0,1-3.311-1.421,5.529,5.529,0,0,1-1.357-3.979,6.011,6.011,0,0,1,1.367-4.092A4.51,4.51,0,0,1,248.027,34.307Zm2.8,4.629a4.554,4.554,0,0,0-.5-1.826,2.553,2.553,0,0,0-2.412-1.27,2.674,2.674,0,0,0-2.031.874,3.3,3.3,0,0,0-.869,2.222Zm5.01,2.783a2.556,2.556,0,0,0,.439,1.348,2.762,2.762,0,0,0,2.3.85,3.4,3.4,0,0,0,1.719-.425,1.411,1.411,0,0,0,.742-1.313,1.123,1.123,0,0,0-.6-1.025,7.083,7.083,0,0,0-1.5-.5l-1.4-.352a6.812,6.812,0,0,1-1.973-.742,2.218,2.218,0,0,1-1.133-1.973,3.014,3.014,0,0,1,1.069-2.4,4.266,4.266,0,0,1,2.876-.918,3.992,3.992,0,0,1,3.408,1.387,3.009,3.009,0,0,1,.635,1.895h-1.66a2.034,2.034,0,0,0-.42-1.084,2.678,2.678,0,0,0-2.1-.693,2.51,2.51,0,0,0-1.509.381,1.194,1.194,0,0,0-.513,1.006,1.238,1.238,0,0,0,.674,1.094,4.049,4.049,0,0,0,1.152.43l1.162.283a8.985,8.985,0,0,1,2.539.889,2.353,2.353,0,0,1,1.025,2.119,3.229,3.229,0,0,1-1.06,2.412A4.51,4.51,0,0,1,258.5,45.4a4.33,4.33,0,0,1-3.306-1.06,4.007,4.007,0,0,1-1.04-2.622Zm18.867-7.412a4.771,4.771,0,0,1,2.158.522,3.98,3.98,0,0,1,1.592,1.353,4.666,4.666,0,0,1,.7,1.846,12.077,12.077,0,0,1,.156,2.3H271.65a4.473,4.473,0,0,0,.752,2.554,2.518,2.518,0,0,0,2.178.962,2.815,2.815,0,0,0,2.2-.908,3.062,3.062,0,0,0,.664-1.221h1.729A3.64,3.64,0,0,1,278.716,43a4.568,4.568,0,0,1-.864,1.157,4.1,4.1,0,0,1-1.982,1.055,6.022,6.022,0,0,1-1.436.156,4.4,4.4,0,0,1-3.311-1.421,5.529,5.529,0,0,1-1.357-3.979,6.011,6.011,0,0,1,1.367-4.092A4.51,4.51,0,0,1,274.707,34.307Zm2.8,4.629a4.554,4.554,0,0,0-.5-1.826,2.553,2.553,0,0,0-2.412-1.27,2.674,2.674,0,0,0-2.031.874,3.3,3.3,0,0,0-.869,2.222Zm2.969-4.395h2.275l2.4,3.682,2.432-3.682,2.139.049L286.2,39.639,289.883,45h-2.246l-2.6-3.926L282.52,45h-2.227l3.682-5.361Zm11,.049h1.787V45h-1.787Zm0-3.936h1.787v1.992h-1.787Zm5.488,11.064a2.556,2.556,0,0,0,.439,1.348,2.762,2.762,0,0,0,2.3.85,3.4,3.4,0,0,0,1.719-.425,1.411,1.411,0,0,0,.742-1.313,1.123,1.123,0,0,0-.6-1.025,7.083,7.083,0,0,0-1.5-.5l-1.4-.352a6.812,6.812,0,0,1-1.973-.742,2.218,2.218,0,0,1-1.133-1.973,3.014,3.014,0,0,1,1.069-2.4,4.266,4.266,0,0,1,2.876-.918,3.992,3.992,0,0,1,3.408,1.387,3.009,3.009,0,0,1,.635,1.895h-1.66a2.034,2.034,0,0,0-.42-1.084,2.678,2.678,0,0,0-2.1-.693,2.51,2.51,0,0,0-1.509.381,1.194,1.194,0,0,0-.513,1.006,1.238,1.238,0,0,0,.674,1.094,4.049,4.049,0,0,0,1.152.43l1.162.283a8.985,8.985,0,0,1,2.539.889,2.353,2.353,0,0,1,1.025,2.119,3.229,3.229,0,0,1-1.06,2.412,4.51,4.51,0,0,1-3.228,1.016,4.33,4.33,0,0,1-3.306-1.06,4.007,4.007,0,0,1-1.04-2.622Zm9.307-10.1h1.777v2.92h1.67v1.436h-1.67V42.8a.739.739,0,0,0,.371.732,1.577,1.577,0,0,0,.684.107q.127,0,.273,0t.342-.024V45a3.924,3.924,0,0,1-.63.127,5.988,5.988,0,0,1-.708.039,1.908,1.908,0,0,1-1.67-.63,2.8,2.8,0,0,1-.439-1.636V35.977h-1.416V34.541h1.416Zm9.561,2.686a4.771,4.771,0,0,1,2.158.522,3.98,3.98,0,0,1,1.592,1.353,4.666,4.666,0,0,1,.7,1.846,12.077,12.077,0,0,1,.156,2.3h-7.666a4.473,4.473,0,0,0,.752,2.554,2.518,2.518,0,0,0,2.178.962,2.815,2.815,0,0,0,2.2-.908,3.062,3.062,0,0,0,.664-1.221h1.729A3.64,3.64,0,0,1,319.839,43a4.568,4.568,0,0,1-.864,1.157,4.1,4.1,0,0,1-1.982,1.055,6.022,6.022,0,0,1-1.436.156,4.4,4.4,0,0,1-3.311-1.421,5.529,5.529,0,0,1-1.357-3.979,6.011,6.011,0,0,1,1.367-4.092A4.51,4.51,0,0,1,315.83,34.307Zm2.8,4.629a4.554,4.554,0,0,0-.5-1.826,2.553,2.553,0,0,0-2.412-1.27,2.674,2.674,0,0,0-2.031.874,3.3,3.3,0,0,0-.869,2.222Zm3.965-4.395h1.67v1.484a4.684,4.684,0,0,1,1.572-1.318,4.193,4.193,0,0,1,1.846-.4,3.043,3.043,0,0,1,3.008,1.553,5.513,5.513,0,0,1,.43,2.432V45h-1.787V38.408a3.569,3.569,0,0,0-.283-1.543,1.717,1.717,0,0,0-1.7-.977,3.46,3.46,0,0,0-1.025.127,2.641,2.641,0,0,0-1.27.859,2.587,2.587,0,0,0-.571,1.069,7.2,7.2,0,0,0-.132,1.577V45H322.6Zm11.475-2.92h1.777v2.92h1.67v1.436h-1.67V42.8a.739.739,0,0,0,.371.732,1.577,1.577,0,0,0,.684.107q.127,0,.273,0t.342-.024V45a3.924,3.924,0,0,1-.63.127,5.988,5.988,0,0,1-.708.039,1.908,1.908,0,0,1-1.67-.63,2.8,2.8,0,0,1-.439-1.636V35.977h-1.416V34.541h1.416Zm9.561,2.686a4.771,4.771,0,0,1,2.158.522,3.98,3.98,0,0,1,1.592,1.353,4.666,4.666,0,0,1,.7,1.846,12.077,12.077,0,0,1,.156,2.3h-7.666a4.473,4.473,0,0,0,.752,2.554,2.518,2.518,0,0,0,2.178.962,2.815,2.815,0,0,0,2.2-.908,3.062,3.062,0,0,0,.664-1.221H348.1A3.64,3.64,0,0,1,347.642,43a4.568,4.568,0,0,1-.864,1.157,4.1,4.1,0,0,1-1.982,1.055,6.022,6.022,0,0,1-1.436.156,4.4,4.4,0,0,1-3.311-1.421,5.529,5.529,0,0,1-1.357-3.979,6.011,6.011,0,0,1,1.367-4.092A4.51,4.51,0,0,1,343.633,34.307Zm2.8,4.629a4.554,4.554,0,0,0-.5-1.826,2.553,2.553,0,0,0-2.412-1.27,2.674,2.674,0,0,0-2.031.874,3.3,3.3,0,0,0-.869,2.222Zm5.01,2.783a2.556,2.556,0,0,0,.439,1.348,2.762,2.762,0,0,0,2.3.85,3.4,3.4,0,0,0,1.719-.425,1.411,1.411,0,0,0,.742-1.313,1.123,1.123,0,0,0-.6-1.025,7.083,7.083,0,0,0-1.5-.5l-1.4-.352a6.812,6.812,0,0,1-1.973-.742,2.218,2.218,0,0,1-1.133-1.973,3.014,3.014,0,0,1,1.069-2.4,4.266,4.266,0,0,1,2.876-.918,3.992,3.992,0,0,1,3.408,1.387,3.009,3.009,0,0,1,.635,1.895h-1.66a2.034,2.034,0,0,0-.42-1.084,2.678,2.678,0,0,0-2.1-.693,2.51,2.51,0,0,0-1.509.381,1.194,1.194,0,0,0-.513,1.006,1.238,1.238,0,0,0,.674,1.094,4.049,4.049,0,0,0,1.152.43l1.162.283a8.985,8.985,0,0,1,2.539.889,2.353,2.353,0,0,1,1.025,2.119,3.229,3.229,0,0,1-1.06,2.412A4.51,4.51,0,0,1,354.1,45.4a4.33,4.33,0,0,1-3.306-1.06,4.007,4.007,0,0,1-1.04-2.622Zm9.375,1.152h2.041V45H360.82Z" transform="translate(540 7385)" fill="#00223d"/>
    <path id="Trazado_35204" data-name="Trazado 35204" d="M2194.526,6031.5v198.2h446.911V5885.026h-378.8" transform="translate(-1701 1279)" fill="none" stroke="#00ffe2" stroke-width="5"/>
    <rect id="Rectángulo_3392" data-name="Rectángulo 3392" width="448" height="107" transform="translate(466 7209)" fill="#00ffe2"/>
    <path id="Trazado_36215" data-name="Trazado 36215" d="M2.563-21.519H18.252v2.637H5.405v6.533h11.88v2.49H5.405v7.295H18.472V0H2.563Zm20.947,16.6A3.834,3.834,0,0,0,24.17-2.9a4.142,4.142,0,0,0,3.457,1.274,5.1,5.1,0,0,0,2.578-.637,2.116,2.116,0,0,0,1.113-1.97,1.685,1.685,0,0,0-.894-1.538,10.624,10.624,0,0,0-2.256-.747l-2.095-.527a10.219,10.219,0,0,1-2.959-1.113,3.327,3.327,0,0,1-1.7-2.959,4.521,4.521,0,0,1,1.6-3.6A6.4,6.4,0,0,1,27.334-16.1q3.545,0,5.112,2.08a4.514,4.514,0,0,1,.952,2.842h-2.49a3.05,3.05,0,0,0-.63-1.626,4.017,4.017,0,0,0-3.149-1.04,3.765,3.765,0,0,0-2.263.571,1.79,1.79,0,0,0-.769,1.509,1.857,1.857,0,0,0,1.011,1.641,6.074,6.074,0,0,0,1.729.645l1.743.425A13.478,13.478,0,0,1,32.388-7.72a3.53,3.53,0,0,1,1.538,3.179A4.844,4.844,0,0,1,32.336-.923,6.766,6.766,0,0,1,27.5.6q-3.5,0-4.958-1.589a6.011,6.011,0,0,1-1.56-3.933Zm13.96-15.146h2.666v4.38h2.5v2.153h-2.5V-3.3a1.108,1.108,0,0,0,.557,1.1,2.366,2.366,0,0,0,1.025.161q.19,0,.41-.007t.513-.037V0A5.886,5.886,0,0,1,41.7.19a8.983,8.983,0,0,1-1.062.059A2.862,2.862,0,0,1,38.13-.7a4.2,4.2,0,0,1-.659-2.454V-13.535H35.347v-2.153h2.124Zm7.881,4.38h2.5v2.71A5.987,5.987,0,0,1,49.365-14.9a3.912,3.912,0,0,1,2.769-1.135q.073,0,.249.015t.6.059v2.783a3.938,3.938,0,0,0-.432-.059q-.2-.015-.432-.015a3.763,3.763,0,0,0-3.062,1.282,4.474,4.474,0,0,0-1.069,2.952V0H45.352ZM57.29-4.175a2.171,2.171,0,0,0,.835,1.8,3.1,3.1,0,0,0,1.978.659,6.013,6.013,0,0,0,2.7-.645,3.627,3.627,0,0,0,2.2-3.5V-7.983a4.511,4.511,0,0,1-1.245.513,10.61,10.61,0,0,1-1.494.293l-1.6.205a6.107,6.107,0,0,0-2.153.6A2.34,2.34,0,0,0,57.29-4.175Zm6.387-5.332a1.432,1.432,0,0,0,1.216-.762,2.318,2.318,0,0,0,.176-1.011,2.141,2.141,0,0,0-.959-1.956,5.148,5.148,0,0,0-2.747-.608,3.49,3.49,0,0,0-2.93,1.113A3.663,3.663,0,0,0,57.8-10.9H55.342q.073-2.9,1.882-4.036a7.728,7.728,0,0,1,4.2-1.135,8.539,8.539,0,0,1,4.5,1.055,3.578,3.578,0,0,1,1.714,3.281V-2.7a1.157,1.157,0,0,0,.168.659.812.812,0,0,0,.71.249q.176,0,.4-.022t.469-.066V.073a7.344,7.344,0,0,1-.937.22,6.851,6.851,0,0,1-.879.044A2.169,2.169,0,0,1,65.581-.63a3.731,3.731,0,0,1-.454-1.45A6.708,6.708,0,0,1,62.813-.249a7.159,7.159,0,0,1-3.325.776A4.945,4.945,0,0,1,55.92-.8a4.4,4.4,0,0,1-1.384-3.318A4.273,4.273,0,0,1,55.9-7.5a6.482,6.482,0,0,1,3.574-1.479Zm8.8-10.562h2.666v4.38h2.5v2.153h-2.5V-3.3A1.108,1.108,0,0,0,75.7-2.2a2.366,2.366,0,0,0,1.025.161q.19,0,.41-.007t.513-.037V0a5.886,5.886,0,0,1-.945.19,8.983,8.983,0,0,1-1.062.059A2.862,2.862,0,0,1,73.14-.7a4.2,4.2,0,0,1-.659-2.454V-13.535H70.356v-2.153H72.48ZM86.821-16.04a7.156,7.156,0,0,1,3.237.784,5.97,5.97,0,0,1,2.388,2.029A7,7,0,0,1,93.5-10.459,18.114,18.114,0,0,1,93.735-7h-11.5a6.71,6.71,0,0,0,1.128,3.831,3.777,3.777,0,0,0,3.267,1.443,4.223,4.223,0,0,0,3.3-1.362,4.592,4.592,0,0,0,1-1.831h2.593A5.461,5.461,0,0,1,92.834-3a6.851,6.851,0,0,1-1.3,1.736A6.144,6.144,0,0,1,88.564.322a9.033,9.033,0,0,1-2.153.234,6.607,6.607,0,0,1-4.966-2.131,8.293,8.293,0,0,1-2.036-5.969,9.017,9.017,0,0,1,2.051-6.138A6.765,6.765,0,0,1,86.821-16.04Zm4.2,6.943a6.831,6.831,0,0,0-.747-2.739,3.829,3.829,0,0,0-3.618-1.9,4.011,4.011,0,0,0-3.047,1.311A4.953,4.953,0,0,0,82.31-9.1Zm11.484-6.87a5.718,5.718,0,0,1,3.223.908,7.238,7.238,0,0,1,1.523,1.494v-1.978h2.432V-1.274a10.521,10.521,0,0,1-.879,4.717q-1.641,3.193-6.2,3.193A7.6,7.6,0,0,1,98.35,5.5a4.427,4.427,0,0,1-1.934-3.552H99.1a2.983,2.983,0,0,0,.762,1.626,3.884,3.884,0,0,0,2.813.879q3.032,0,3.97-2.139a12.045,12.045,0,0,0,.513-4.5,5.173,5.173,0,0,1-1.9,1.787A6.335,6.335,0,0,1,102.3.19a6.285,6.285,0,0,1-4.46-1.809Q95.933-3.428,95.933-7.6a9.062,9.062,0,0,1,1.926-6.152A5.956,5.956,0,0,1,102.51-15.967Zm4.746,8.057a6.541,6.541,0,0,0-1.2-4.321,3.848,3.848,0,0,0-3.062-1.406,3.781,3.781,0,0,0-3.809,2.607,10.224,10.224,0,0,0-.542,3.647,6.475,6.475,0,0,0,1.077,4.036,3.476,3.476,0,0,0,2.893,1.384,4.062,4.062,0,0,0,4-2.563A8.268,8.268,0,0,0,107.256-7.91Zm6.4-7.705h2.681V0h-2.681Zm0-5.9h2.681v2.988h-2.681Zm8.687,17.344a2.171,2.171,0,0,0,.835,1.8,3.1,3.1,0,0,0,1.978.659,6.013,6.013,0,0,0,2.7-.645,3.627,3.627,0,0,0,2.2-3.5V-7.983a4.511,4.511,0,0,1-1.245.513,10.61,10.61,0,0,1-1.494.293l-1.6.205a6.107,6.107,0,0,0-2.153.6A2.34,2.34,0,0,0,122.344-4.175Zm6.387-5.332a1.432,1.432,0,0,0,1.216-.762,2.318,2.318,0,0,0,.176-1.011,2.141,2.141,0,0,0-.959-1.956,5.148,5.148,0,0,0-2.747-.608,3.49,3.49,0,0,0-2.93,1.113,3.663,3.663,0,0,0-.63,1.831H120.4q.073-2.9,1.882-4.036a7.728,7.728,0,0,1,4.2-1.135,8.539,8.539,0,0,1,4.5,1.055,3.578,3.578,0,0,1,1.714,3.281V-2.7a1.157,1.157,0,0,0,.168.659.812.812,0,0,0,.71.249q.176,0,.4-.022t.469-.066V.073a7.344,7.344,0,0,1-.937.22,6.851,6.851,0,0,1-.879.044,2.169,2.169,0,0,1-1.978-.967,3.731,3.731,0,0,1-.454-1.45,6.708,6.708,0,0,1-2.314,1.831,7.159,7.159,0,0,1-3.325.776A4.945,4.945,0,0,1,120.974-.8a4.4,4.4,0,0,1-1.384-3.318A4.273,4.273,0,0,1,120.952-7.5a6.482,6.482,0,0,1,3.574-1.479Zm9.844,4.585a3.834,3.834,0,0,0,.659,2.021,4.142,4.142,0,0,0,3.457,1.274,5.1,5.1,0,0,0,2.578-.637,2.116,2.116,0,0,0,1.113-1.97,1.685,1.685,0,0,0-.894-1.538,10.624,10.624,0,0,0-2.256-.747l-2.095-.527a10.219,10.219,0,0,1-2.959-1.113,3.327,3.327,0,0,1-1.7-2.959,4.521,4.521,0,0,1,1.6-3.6A6.4,6.4,0,0,1,142.4-16.1q3.545,0,5.112,2.08a4.514,4.514,0,0,1,.952,2.842h-2.49a3.05,3.05,0,0,0-.63-1.626,4.017,4.017,0,0,0-3.149-1.04,3.765,3.765,0,0,0-2.263.571,1.79,1.79,0,0,0-.769,1.509,1.857,1.857,0,0,0,1.011,1.641,6.074,6.074,0,0,0,1.729.645l1.743.425a13.478,13.478,0,0,1,3.809,1.333,3.53,3.53,0,0,1,1.538,3.179A4.844,4.844,0,0,1,147.4-.923,6.766,6.766,0,0,1,142.559.6q-3.5,0-4.958-1.589a6.011,6.011,0,0,1-1.56-3.933Zm22.4-16.6H175.9v2.637H163.887v6.533h10.562v2.563H163.887V0h-2.915Zm27.334-.586q5.7,0,8.438,3.662a11.868,11.868,0,0,1,2.139,7.31,12.791,12.791,0,0,1-2.446,8.013A9.7,9.7,0,0,1,188.247.63a9.787,9.787,0,0,1-7.808-3.281,12.39,12.39,0,0,1-2.534-8,12.721,12.721,0,0,1,2.168-7.471A9.392,9.392,0,0,1,188.306-22.1ZM188.6-1.978a6.069,6.069,0,0,0,5.574-2.761,11.753,11.753,0,0,0,1.721-6.35,9.058,9.058,0,0,0-1.985-6.108,6.775,6.775,0,0,0-5.427-2.314,7.067,7.067,0,0,0-5.449,2.292q-2.109,2.292-2.109,6.76a9.877,9.877,0,0,0,1.809,6.028Q184.541-1.978,188.6-1.978ZM8.877,13.13a51.148,51.148,0,0,0-2.988,6.577,24.045,24.045,0,0,0-1.04,7.412,24.16,24.16,0,0,0,1.187,7.764,46.883,46.883,0,0,0,2.886,6.24H7.148Q5.01,37.783,4.5,36.86a19.8,19.8,0,0,1-1.113-2.5,20.589,20.589,0,0,1-1.143-4.629,19.41,19.41,0,0,1-.161-2.432,20.536,20.536,0,0,1,1.362-7.72,44.431,44.431,0,0,1,3.6-6.445Zm3.677.352H27.48v2.637H15.469v6.533H26.03v2.563H15.469V35H12.554ZM36.475,33.3a3.636,3.636,0,0,0,3.6-1.985,9.889,9.889,0,0,0,.974-4.417,7.864,7.864,0,0,0-.7-3.574A3.955,3.955,0,0,0,36.5,21.157,3.785,3.785,0,0,0,32.988,23a8.555,8.555,0,0,0-1.1,4.453,7.442,7.442,0,0,0,1.1,4.175A3.869,3.869,0,0,0,36.475,33.3Zm.1-14.443A7.1,7.1,0,0,1,41.7,20.879,7.894,7.894,0,0,1,43.8,26.826a10.2,10.2,0,0,1-1.846,6.27q-1.846,2.476-5.728,2.476a6.466,6.466,0,0,1-5.142-2.19,8.65,8.65,0,0,1-1.9-5.881,9.358,9.358,0,0,1,2.007-6.3A6.735,6.735,0,0,1,36.577,18.857Zm10.43.454h2.5v2.71A5.987,5.987,0,0,1,51.021,20.1a3.912,3.912,0,0,1,2.769-1.135q.073,0,.249.015t.6.059v2.783a3.938,3.938,0,0,0-.432-.059q-.2-.015-.432-.015a3.763,3.763,0,0,0-3.062,1.282,4.474,4.474,0,0,0-1.069,2.952V35H47.007Zm10.444-4.38h2.666v4.38h2.5v2.153h-2.5V31.7a1.108,1.108,0,0,0,.557,1.1,2.366,2.366,0,0,0,1.025.161q.19,0,.41-.007t.513-.037V35a5.886,5.886,0,0,1-.945.19,8.983,8.983,0,0,1-1.062.059,2.862,2.862,0,0,1-2.5-.945,4.2,4.2,0,0,1-.659-2.454V21.465H55.327V19.312h2.124ZM67.28,30.825a2.171,2.171,0,0,0,.835,1.8,3.1,3.1,0,0,0,1.978.659,6.013,6.013,0,0,0,2.7-.645,3.627,3.627,0,0,0,2.2-3.5V27.017a4.511,4.511,0,0,1-1.245.513,10.61,10.61,0,0,1-1.494.293l-1.6.205a6.107,6.107,0,0,0-2.153.6A2.34,2.34,0,0,0,67.28,30.825Zm6.387-5.332a1.432,1.432,0,0,0,1.216-.762,2.318,2.318,0,0,0,.176-1.011,2.141,2.141,0,0,0-.959-1.956,5.148,5.148,0,0,0-2.747-.608,3.49,3.49,0,0,0-2.93,1.113,3.663,3.663,0,0,0-.63,1.831H65.332q.073-2.9,1.882-4.036a7.728,7.728,0,0,1,4.2-1.135,8.539,8.539,0,0,1,4.5,1.055,3.578,3.578,0,0,1,1.714,3.281V32.3a1.157,1.157,0,0,0,.168.659.812.812,0,0,0,.71.249q.176,0,.4-.022t.469-.066v1.948a7.344,7.344,0,0,1-.937.22,6.851,6.851,0,0,1-.879.044,2.169,2.169,0,0,1-1.978-.967,3.731,3.731,0,0,1-.454-1.45A6.708,6.708,0,0,1,72.8,34.751a7.159,7.159,0,0,1-3.325.776A4.945,4.945,0,0,1,65.911,34.2a4.4,4.4,0,0,1-1.384-3.318A4.273,4.273,0,0,1,65.889,27.5a6.482,6.482,0,0,1,3.574-1.479Zm8.35-12.012h2.637V35H82.017ZM95.142,18.96a7.156,7.156,0,0,1,3.237.784,5.97,5.97,0,0,1,2.388,2.029,7,7,0,0,1,1.055,2.769A18.114,18.114,0,0,1,102.056,28h-11.5a6.71,6.71,0,0,0,1.128,3.831,3.777,3.777,0,0,0,3.267,1.443,4.223,4.223,0,0,0,3.3-1.362,4.592,4.592,0,0,0,1-1.831h2.593A5.461,5.461,0,0,1,101.155,32a6.851,6.851,0,0,1-1.3,1.736,6.144,6.144,0,0,1-2.974,1.582,9.033,9.033,0,0,1-2.153.234,6.607,6.607,0,0,1-4.966-2.131,8.293,8.293,0,0,1-2.036-5.969,9.017,9.017,0,0,1,2.051-6.138A6.765,6.765,0,0,1,95.142,18.96Zm4.2,6.943a6.831,6.831,0,0,0-.747-2.739,3.829,3.829,0,0,0-3.618-1.9,4.011,4.011,0,0,0-3.047,1.311,4.953,4.953,0,0,0-1.3,3.333Zm4.775,7.017,9.3-11.25H104.81V19.312h12.158v2.153l-9.243,11.177h9.521V35H104.121Zm18.193-2.095a2.171,2.171,0,0,0,.835,1.8,3.1,3.1,0,0,0,1.978.659,6.013,6.013,0,0,0,2.7-.645,3.627,3.627,0,0,0,2.2-3.5V27.017a4.511,4.511,0,0,1-1.245.513,10.61,10.61,0,0,1-1.494.293l-1.6.205a6.107,6.107,0,0,0-2.153.6A2.34,2.34,0,0,0,122.314,30.825Zm6.387-5.332a1.432,1.432,0,0,0,1.216-.762,2.318,2.318,0,0,0,.176-1.011,2.141,2.141,0,0,0-.959-1.956,5.148,5.148,0,0,0-2.747-.608,3.49,3.49,0,0,0-2.93,1.113,3.663,3.663,0,0,0-.63,1.831h-2.461q.073-2.9,1.882-4.036a7.728,7.728,0,0,1,4.2-1.135,8.539,8.539,0,0,1,4.5,1.055,3.578,3.578,0,0,1,1.714,3.281V32.3a1.157,1.157,0,0,0,.168.659.812.812,0,0,0,.71.249q.176,0,.4-.022t.469-.066v1.948a7.344,7.344,0,0,1-.937.22,6.851,6.851,0,0,1-.879.044,2.169,2.169,0,0,1-1.978-.967,3.731,3.731,0,0,1-.454-1.45,6.708,6.708,0,0,1-2.314,1.831,7.159,7.159,0,0,1-3.325.776,4.945,4.945,0,0,1-3.567-1.326,4.4,4.4,0,0,1-1.384-3.318,4.273,4.273,0,0,1,1.362-3.384,6.482,6.482,0,0,1,3.574-1.479ZM141.87,13.481H144.1L137.271,35h-2.227Zm13.081-.586q5.7,0,8.438,3.662a11.868,11.868,0,0,1,2.139,7.31,12.791,12.791,0,0,1-2.446,8.013,10.87,10.87,0,0,1-16,.469,12.39,12.39,0,0,1-2.534-8,12.721,12.721,0,0,1,2.168-7.471A9.392,9.392,0,0,1,154.951,12.9Zm.293,20.127a6.069,6.069,0,0,0,5.574-2.761,11.753,11.753,0,0,0,1.721-6.35,9.058,9.058,0,0,0-1.985-6.108,6.775,6.775,0,0,0-5.427-2.314,7.067,7.067,0,0,0-5.449,2.292q-2.109,2.292-2.109,6.76a9.877,9.877,0,0,0,1.809,6.028Q151.187,33.022,155.244,33.022Zm20.024.205a3.762,3.762,0,0,0,3.069-1.545,7.354,7.354,0,0,0,1.223-4.622,8.627,8.627,0,0,0-.542-3.223,3.971,3.971,0,0,0-7.5.146,10.856,10.856,0,0,0-.542,3.721,7.887,7.887,0,0,0,.542,3.091A3.739,3.739,0,0,0,175.269,33.228Zm-6.826-13.843h2.563v2.08a6.4,6.4,0,0,1,1.729-1.655,5.564,5.564,0,0,1,3.135-.879,5.894,5.894,0,0,1,4.526,2.043,8.372,8.372,0,0,1,1.86,5.837q0,5.127-2.681,7.324a6.057,6.057,0,0,1-3.955,1.392,5.369,5.369,0,0,1-2.974-.776,6.851,6.851,0,0,1-1.567-1.509v8.013h-2.637ZM191.558,33.3a3.636,3.636,0,0,0,3.6-1.985,9.889,9.889,0,0,0,.974-4.417,7.864,7.864,0,0,0-.7-3.574,3.955,3.955,0,0,0-3.838-2.168A3.785,3.785,0,0,0,188.071,23a8.555,8.555,0,0,0-1.1,4.453,7.442,7.442,0,0,0,1.1,4.175A3.869,3.869,0,0,0,191.558,33.3Zm.1-14.443a7.1,7.1,0,0,1,5.127,2.021,7.894,7.894,0,0,1,2.095,5.947,10.2,10.2,0,0,1-1.846,6.27q-1.846,2.476-5.728,2.476a6.466,6.466,0,0,1-5.142-2.19,8.65,8.65,0,0,1-1.9-5.881,9.358,9.358,0,0,1,2.007-6.3A6.735,6.735,0,0,1,191.66,18.857Zm10.43.454h2.5v2.71A5.987,5.987,0,0,1,206.1,20.1a3.912,3.912,0,0,1,2.769-1.135q.073,0,.249.015t.6.059v2.783a3.938,3.938,0,0,0-.432-.059q-.2-.015-.432-.015a3.763,3.763,0,0,0-3.062,1.282,4.474,4.474,0,0,0-1.069,2.952V35H202.09Zm10.444-4.38H215.2v4.38h2.5v2.153h-2.5V31.7a1.108,1.108,0,0,0,.557,1.1,2.366,2.366,0,0,0,1.025.161q.19,0,.41-.007t.513-.037V35a5.886,5.886,0,0,1-.945.19,8.983,8.983,0,0,1-1.062.059,2.862,2.862,0,0,1-2.5-.945,4.2,4.2,0,0,1-.659-2.454V21.465H210.41V19.312h2.124Zm10.444,4.38V29.727a4.391,4.391,0,0,0,.381,1.963,2.658,2.658,0,0,0,2.622,1.406,3.706,3.706,0,0,0,3.75-2.461,9.764,9.764,0,0,0,.542-3.618V19.312h2.637V35h-2.49l.029-2.314a5.319,5.319,0,0,1-1.274,1.509,5.608,5.608,0,0,1-3.662,1.23q-3.354,0-4.57-2.241a6.675,6.675,0,0,1-.659-3.208V19.312Zm14.048,0h2.5v2.227a7.026,7.026,0,0,1,2.358-1.978,6.289,6.289,0,0,1,2.769-.6q3.34,0,4.512,2.329a8.27,8.27,0,0,1,.645,3.647V35h-2.681V25.112a5.354,5.354,0,0,0-.425-2.314,2.575,2.575,0,0,0-2.549-1.465,5.19,5.19,0,0,0-1.538.19,3.961,3.961,0,0,0-1.9,1.289,3.881,3.881,0,0,0-.857,1.6,10.8,10.8,0,0,0-.2,2.366V35h-2.637Zm16.685.073h2.681V35h-2.681Zm0-5.9h2.681V16.47h-2.681Zm8.335,13.857a7.777,7.777,0,0,0,1.069,4.219,3.747,3.747,0,0,0,3.428,1.7,3.61,3.61,0,0,0,3.01-1.575,7.437,7.437,0,0,0,1.179-4.519,6.682,6.682,0,0,0-1.216-4.4,3.793,3.793,0,0,0-3-1.428,3.964,3.964,0,0,0-3.23,1.523A6.977,6.977,0,0,0,262.046,27.339Zm3.97-8.306a5.582,5.582,0,0,1,3.018.762,7.088,7.088,0,0,1,1.6,1.538V13.408h2.534V35h-2.373V32.817a5.7,5.7,0,0,1-2.183,2.095,6.247,6.247,0,0,1-2.886.645,5.844,5.844,0,0,1-4.541-2.2,8.619,8.619,0,0,1-1.919-5.867,10.127,10.127,0,0,1,1.75-5.94A5.731,5.731,0,0,1,266.016,19.033Zm13.066,11.792a2.171,2.171,0,0,0,.835,1.8,3.1,3.1,0,0,0,1.978.659,6.013,6.013,0,0,0,2.7-.645,3.627,3.627,0,0,0,2.2-3.5V27.017a4.511,4.511,0,0,1-1.245.513,10.61,10.61,0,0,1-1.494.293l-1.6.205a6.107,6.107,0,0,0-2.153.6A2.34,2.34,0,0,0,279.082,30.825Zm6.387-5.332a1.432,1.432,0,0,0,1.216-.762,2.318,2.318,0,0,0,.176-1.011,2.141,2.141,0,0,0-.959-1.956,5.148,5.148,0,0,0-2.747-.608,3.49,3.49,0,0,0-2.93,1.113,3.663,3.663,0,0,0-.63,1.831h-2.461q.073-2.9,1.882-4.036a7.728,7.728,0,0,1,4.2-1.135,8.539,8.539,0,0,1,4.5,1.055,3.578,3.578,0,0,1,1.714,3.281V32.3a1.157,1.157,0,0,0,.168.659.812.812,0,0,0,.71.249q.176,0,.4-.022t.469-.066v1.948a7.344,7.344,0,0,1-.937.22,6.851,6.851,0,0,1-.879.044,2.169,2.169,0,0,1-1.978-.967,3.731,3.731,0,0,1-.454-1.45,6.708,6.708,0,0,1-2.314,1.831,7.159,7.159,0,0,1-3.325.776,4.945,4.945,0,0,1-3.567-1.326,4.4,4.4,0,0,1-1.384-3.318A4.273,4.273,0,0,1,277.69,27.5a6.482,6.482,0,0,1,3.574-1.479Zm9.946,1.846a7.777,7.777,0,0,0,1.069,4.219,3.747,3.747,0,0,0,3.428,1.7,3.61,3.61,0,0,0,3.01-1.575,7.437,7.437,0,0,0,1.179-4.519,6.682,6.682,0,0,0-1.216-4.4,3.793,3.793,0,0,0-3-1.428,3.964,3.964,0,0,0-3.23,1.523A6.977,6.977,0,0,0,295.415,27.339Zm3.97-8.306a5.582,5.582,0,0,1,3.018.762,7.088,7.088,0,0,1,1.6,1.538V13.408h2.534V35H304.16V32.817a5.7,5.7,0,0,1-2.183,2.095,6.247,6.247,0,0,1-2.886.645,5.844,5.844,0,0,1-4.541-2.2,8.619,8.619,0,0,1-1.919-5.867,10.127,10.127,0,0,1,1.75-5.94A5.731,5.731,0,0,1,299.385,19.033Zm10.151,22.09a51.714,51.714,0,0,0,3-6.621,23.9,23.9,0,0,0,1.025-7.383,24.111,24.111,0,0,0-1.187-7.749,46.883,46.883,0,0,0-2.886-6.24h1.772q2.256,3.6,2.732,4.446a17.187,17.187,0,0,1,1.033,2.322,18.765,18.765,0,0,1,1,3.618,20.776,20.776,0,0,1,.3,3.442,20.455,20.455,0,0,1-1.377,7.734,42.479,42.479,0,0,1-3.589,6.431Z" transform="translate(517 7252)" fill="#472ea6"/>
    <circle id="Elipse_942" data-name="Elipse 942" cx="137" cy="137" r="137" transform="translate(979.563 7086)" fill="#472ea6"/>
    <path id="Trazado_36218" data-name="Trazado 36218" d="M18.936-48.945q9.5,0,13.74,7.827,3.281,6.05,3.281,16.577,0,9.98-2.974,16.509Q28.677,1.333,18.9,1.333A14.1,14.1,0,0,1,5.776-6.323Q2.188-12.715,2.188-23.481A42.394,42.394,0,0,1,4.341-37.8Q8.374-48.945,18.936-48.945ZM18.867-4.272a8.755,8.755,0,0,0,7.622-4.238q2.837-4.238,2.837-15.791a39.014,39.014,0,0,0-2.051-13.723q-2.051-5.383-7.964-5.383a8.325,8.325,0,0,0-7.947,5.11q-2.512,5.11-2.512,15.056a36.973,36.973,0,0,0,1.606,12.031Q12.92-4.272,18.867-4.272ZM41.118,0a28.546,28.546,0,0,1,2.615-11.006q2.273-4.683,8.87-8.511l6.563-3.794a30.9,30.9,0,0,0,6.187-4.375,8.988,8.988,0,0,0,2.8-6.494,9.065,9.065,0,0,0-2.563-6.785,9.345,9.345,0,0,0-6.836-2.512q-6.323,0-8.75,4.785a17.131,17.131,0,0,0-1.436,7.109H42.314a21.969,21.969,0,0,1,2.358-10.425q4-7.109,14.116-7.109,8.408,0,12.288,4.546a15.208,15.208,0,0,1,3.879,10.117A13.753,13.753,0,0,1,70.82-24.4a40.489,40.489,0,0,1-8.579,5.879l-4.683,2.6a30.33,30.33,0,0,0-5.264,3.521,12.824,12.824,0,0,0-4.307,6.6H74.717V0Z" transform="translate(1023.563 7188)" fill="#00ffe2"/>
    <path id="Trazado_36219" data-name="Trazado 36219" d="M7.568.264A5.879,5.879,0,0,1,11.8,1.7a5.07,5.07,0,0,1,1.67,3.262H11.572a3.943,3.943,0,0,0-1.284-2.2,4.07,4.07,0,0,0-2.7-.811A4.33,4.33,0,0,0,4.165,3.442a6.789,6.789,0,0,0-1.3,4.565,6.631,6.631,0,0,0,1.177,4.087,4.112,4.112,0,0,0,3.511,1.567,3.709,3.709,0,0,0,3.271-1.65,6.277,6.277,0,0,0,.889-2.285H13.6a6.474,6.474,0,0,1-1.68,3.8,5.977,5.977,0,0,1-4.609,1.846,6.084,6.084,0,0,1-4.2-1.514q-2.236-2-2.236-6.182a7.9,7.9,0,0,1,1.68-5.205A6.135,6.135,0,0,1,7.568.264Zm12.314,13.6a2.424,2.424,0,0,0,2.4-1.323A6.592,6.592,0,0,0,22.93,9.6a5.242,5.242,0,0,0-.469-2.383A2.637,2.637,0,0,0,19.9,5.771,2.523,2.523,0,0,0,17.559,7a5.7,5.7,0,0,0-.732,2.969,4.961,4.961,0,0,0,.732,2.783A2.58,2.58,0,0,0,19.883,13.867Zm.068-9.629a4.736,4.736,0,0,1,3.418,1.348,5.263,5.263,0,0,1,1.4,3.965,6.8,6.8,0,0,1-1.23,4.18,4.451,4.451,0,0,1-3.818,1.65,4.311,4.311,0,0,1-3.428-1.46A5.767,5.767,0,0,1,15.02,10a6.239,6.239,0,0,1,1.338-4.2A4.49,4.49,0,0,1,19.951,4.238ZM21.992.332,19.385,3.154H18.037L19.824.332Zm4.863,4.209h1.738V6.025A5.843,5.843,0,0,1,29.727,4.9a3.407,3.407,0,0,1,1.973-.6,3.1,3.1,0,0,1,2.012.615,3.216,3.216,0,0,1,.781,1.035,3.8,3.8,0,0,1,1.377-1.245,3.841,3.841,0,0,1,1.777-.405A2.906,2.906,0,0,1,40.518,5.83a4.98,4.98,0,0,1,.41,2.207V15H39.1V7.734A1.692,1.692,0,0,0,38.579,6.3,2.068,2.068,0,0,0,37.3,5.908a2.53,2.53,0,0,0-1.782.693,3.045,3.045,0,0,0-.747,2.314V15H32.988V8.174a3.547,3.547,0,0,0-.254-1.553,1.548,1.548,0,0,0-1.494-.732,2.578,2.578,0,0,0-1.812.771,3.781,3.781,0,0,0-.815,2.793V15H26.855Zm20.811,9.326a2.424,2.424,0,0,0,2.4-1.323A6.592,6.592,0,0,0,50.713,9.6a5.242,5.242,0,0,0-.469-2.383,2.637,2.637,0,0,0-2.559-1.445A2.523,2.523,0,0,0,45.342,7a5.7,5.7,0,0,0-.732,2.969,4.961,4.961,0,0,0,.732,2.783A2.58,2.58,0,0,0,47.666,13.867Zm.068-9.629a4.736,4.736,0,0,1,3.418,1.348,5.263,5.263,0,0,1,1.4,3.965,6.8,6.8,0,0,1-1.23,4.18,4.451,4.451,0,0,1-3.818,1.65,4.311,4.311,0,0,1-3.428-1.46A5.767,5.767,0,0,1,42.8,10a6.239,6.239,0,0,1,1.338-4.2A4.49,4.49,0,0,1,47.734,4.238Zm13.506,7.48a2.556,2.556,0,0,0,.439,1.348,2.762,2.762,0,0,0,2.3.85,3.4,3.4,0,0,0,1.719-.425,1.411,1.411,0,0,0,.742-1.313,1.123,1.123,0,0,0-.6-1.025,7.083,7.083,0,0,0-1.5-.5l-1.4-.352a6.812,6.812,0,0,1-1.973-.742,2.218,2.218,0,0,1-1.133-1.973,3.014,3.014,0,0,1,1.069-2.4,4.266,4.266,0,0,1,2.876-.918A3.992,3.992,0,0,1,67.2,5.654a3.009,3.009,0,0,1,.635,1.895h-1.66a2.034,2.034,0,0,0-.42-1.084,2.678,2.678,0,0,0-2.1-.693,2.51,2.51,0,0,0-1.509.381,1.194,1.194,0,0,0-.513,1.006A1.238,1.238,0,0,0,62.3,8.252a4.049,4.049,0,0,0,1.152.43l1.162.283a8.985,8.985,0,0,1,2.539.889,2.353,2.353,0,0,1,1.025,2.119,3.229,3.229,0,0,1-1.06,2.412A4.51,4.51,0,0,1,63.9,15.4a4.33,4.33,0,0,1-3.306-1.06,4.007,4.007,0,0,1-1.04-2.622ZM71.953,4.541v6.943a2.928,2.928,0,0,0,.254,1.309,1.772,1.772,0,0,0,1.748.938,2.471,2.471,0,0,0,2.5-1.641,6.509,6.509,0,0,0,.361-2.412V4.541h1.758V15h-1.66l.02-1.543a3.546,3.546,0,0,1-.85,1.006,3.739,3.739,0,0,1-2.441.82A3.149,3.149,0,0,1,70.6,13.789a4.45,4.45,0,0,1-.439-2.139V4.541Zm13.779,9.277a2.508,2.508,0,0,0,2.046-1.03,4.9,4.9,0,0,0,.815-3.081,5.751,5.751,0,0,0-.361-2.148,2.648,2.648,0,0,0-5,.1,7.238,7.238,0,0,0-.361,2.48,5.258,5.258,0,0,0,.361,2.061A2.493,2.493,0,0,0,85.732,13.818ZM81.182,4.59h1.709V5.977a4.267,4.267,0,0,1,1.152-1.1,3.709,3.709,0,0,1,2.09-.586A3.93,3.93,0,0,1,89.15,5.649a5.582,5.582,0,0,1,1.24,3.892q0,3.418-1.787,4.883a4.038,4.038,0,0,1-2.637.928,3.579,3.579,0,0,1-1.982-.518,4.568,4.568,0,0,1-1.045-1.006V19.17H81.182ZM96.8,4.307a4.771,4.771,0,0,1,2.158.522,3.98,3.98,0,0,1,1.592,1.353,4.666,4.666,0,0,1,.7,1.846,12.076,12.076,0,0,1,.156,2.3H93.74a4.473,4.473,0,0,0,.752,2.554,2.518,2.518,0,0,0,2.178.962,2.815,2.815,0,0,0,2.2-.908,3.062,3.062,0,0,0,.664-1.221h1.729A3.64,3.64,0,0,1,100.806,13a4.568,4.568,0,0,1-.864,1.157,4.1,4.1,0,0,1-1.982,1.055,6.022,6.022,0,0,1-1.436.156,4.4,4.4,0,0,1-3.311-1.421,5.529,5.529,0,0,1-1.357-3.979,6.011,6.011,0,0,1,1.367-4.092A4.51,4.51,0,0,1,96.8,4.307Zm2.8,4.629a4.554,4.554,0,0,0-.5-1.826,2.553,2.553,0,0,0-2.412-1.27,2.674,2.674,0,0,0-2.031.874,3.3,3.3,0,0,0-.869,2.222Zm4.014-4.395h1.67V6.348a3.992,3.992,0,0,1,1.006-1.284,2.608,2.608,0,0,1,1.846-.757q.049,0,.166.01t.4.039V6.211a2.625,2.625,0,0,0-.288-.039q-.132-.01-.288-.01a2.508,2.508,0,0,0-2.041.854,2.983,2.983,0,0,0-.713,1.968V15h-1.758Zm7.959,7.676a1.448,1.448,0,0,0,.557,1.2,2.064,2.064,0,0,0,1.318.439,4.008,4.008,0,0,0,1.8-.43,2.418,2.418,0,0,0,1.465-2.334V9.678a3.007,3.007,0,0,1-.83.342,7.073,7.073,0,0,1-1,.2l-1.064.137a4.071,4.071,0,0,0-1.436.4A1.56,1.56,0,0,0,111.572,12.217Zm4.258-3.555a.955.955,0,0,0,.811-.508,1.545,1.545,0,0,0,.117-.674,1.428,1.428,0,0,0-.64-1.3,3.432,3.432,0,0,0-1.831-.405,2.327,2.327,0,0,0-1.953.742,2.442,2.442,0,0,0-.42,1.221h-1.641a3.02,3.02,0,0,1,1.255-2.69,5.152,5.152,0,0,1,2.8-.757,5.693,5.693,0,0,1,3,.7,2.385,2.385,0,0,1,1.143,2.188V13.2a.771.771,0,0,0,.112.439.542.542,0,0,0,.474.166q.117,0,.264-.015t.313-.044v1.3A4.9,4.9,0,0,1,119,15.2a4.567,4.567,0,0,1-.586.029,1.446,1.446,0,0,1-1.318-.645,2.487,2.487,0,0,1-.3-.967,4.472,4.472,0,0,1-1.543,1.221,4.773,4.773,0,0,1-2.217.518,3.3,3.3,0,0,1-2.378-.884,2.936,2.936,0,0,1-.923-2.212A2.849,2.849,0,0,1,110.645,10a4.321,4.321,0,0,1,2.383-.986ZM121.4,4.541h1.67V6.348a3.992,3.992,0,0,1,1.006-1.284,2.608,2.608,0,0,1,1.846-.757q.049,0,.166.01t.4.039V6.211a2.625,2.625,0,0,0-.288-.039q-.132-.01-.288-.01a2.508,2.508,0,0,0-2.041.854,2.983,2.983,0,0,0-.713,1.968V15H121.4ZM133.613.654h1.758V15h-1.758Zm5.742,11.563a1.448,1.448,0,0,0,.557,1.2,2.064,2.064,0,0,0,1.318.439,4.008,4.008,0,0,0,1.8-.43,2.418,2.418,0,0,0,1.465-2.334V9.678a3.007,3.007,0,0,1-.83.342,7.074,7.074,0,0,1-1,.2l-1.064.137a4.071,4.071,0,0,0-1.436.4A1.56,1.56,0,0,0,139.355,12.217Zm4.258-3.555a.955.955,0,0,0,.811-.508,1.545,1.545,0,0,0,.117-.674,1.428,1.428,0,0,0-.64-1.3,3.432,3.432,0,0,0-1.831-.405,2.327,2.327,0,0,0-1.953.742,2.442,2.442,0,0,0-.42,1.221h-1.641a3.02,3.02,0,0,1,1.255-2.69,5.152,5.152,0,0,1,2.8-.757,5.693,5.693,0,0,1,3,.7,2.385,2.385,0,0,1,1.143,2.188V13.2a.771.771,0,0,0,.112.439.542.542,0,0,0,.474.166q.117,0,.264-.015t.313-.044v1.3a4.9,4.9,0,0,1-.625.146,4.567,4.567,0,0,1-.586.029,1.446,1.446,0,0,1-1.318-.645,2.487,2.487,0,0,1-.3-.967,4.472,4.472,0,0,1-1.543,1.221,4.773,4.773,0,0,1-2.217.518,3.3,3.3,0,0,1-2.378-.884,2.936,2.936,0,0,1-.923-2.212A2.849,2.849,0,0,1,138.428,10a4.321,4.321,0,0,1,2.383-.986Zm6.563,3.057a2.556,2.556,0,0,0,.439,1.348,2.762,2.762,0,0,0,2.3.85,3.4,3.4,0,0,0,1.719-.425,1.411,1.411,0,0,0,.742-1.313,1.123,1.123,0,0,0-.6-1.025,7.082,7.082,0,0,0-1.5-.5l-1.4-.352a6.812,6.812,0,0,1-1.973-.742,2.218,2.218,0,0,1-1.133-1.973,3.014,3.014,0,0,1,1.069-2.4,4.266,4.266,0,0,1,2.876-.918,3.992,3.992,0,0,1,3.408,1.387,3.009,3.009,0,0,1,.635,1.895h-1.66a2.034,2.034,0,0,0-.42-1.084,2.678,2.678,0,0,0-2.1-.693,2.51,2.51,0,0,0-1.509.381,1.194,1.194,0,0,0-.513,1.006,1.238,1.238,0,0,0,.674,1.094,4.049,4.049,0,0,0,1.152.43l1.162.283a8.985,8.985,0,0,1,2.539.889,2.353,2.353,0,0,1,1.025,2.119,3.229,3.229,0,0,1-1.06,2.412,4.51,4.51,0,0,1-3.228,1.016,4.33,4.33,0,0,1-3.306-1.06,4.007,4.007,0,0,1-1.04-2.622ZM165.8,9.893a5.184,5.184,0,0,0,.713,2.813,2.5,2.5,0,0,0,2.285,1.133,2.407,2.407,0,0,0,2.007-1.05,4.958,4.958,0,0,0,.786-3.013,4.455,4.455,0,0,0-.811-2.935,2.528,2.528,0,0,0-2-.952A2.643,2.643,0,0,0,166.626,6.9,4.652,4.652,0,0,0,165.8,9.893Zm2.646-5.537a3.721,3.721,0,0,1,2.012.508,4.726,4.726,0,0,1,1.064,1.025V.605h1.689V15h-1.582V13.545a3.8,3.8,0,0,1-1.455,1.4,4.165,4.165,0,0,1-1.924.43,3.9,3.9,0,0,1-3.027-1.47,5.746,5.746,0,0,1-1.279-3.911,6.751,6.751,0,0,1,1.167-3.96A3.821,3.821,0,0,1,168.447,4.355Zm11.719-.049a4.771,4.771,0,0,1,2.158.522,3.98,3.98,0,0,1,1.592,1.353,4.666,4.666,0,0,1,.7,1.846,12.075,12.075,0,0,1,.156,2.3h-7.666a4.473,4.473,0,0,0,.752,2.554,2.518,2.518,0,0,0,2.178.962,2.815,2.815,0,0,0,2.2-.908,3.062,3.062,0,0,0,.664-1.221h1.729A3.641,3.641,0,0,1,184.175,13a4.567,4.567,0,0,1-.864,1.157,4.1,4.1,0,0,1-1.982,1.055,6.022,6.022,0,0,1-1.436.156,4.4,4.4,0,0,1-3.311-1.421,5.529,5.529,0,0,1-1.357-3.979,6.011,6.011,0,0,1,1.367-4.092A4.51,4.51,0,0,1,180.166,4.307Zm2.8,4.629a4.554,4.554,0,0,0-.5-1.826,2.553,2.553,0,0,0-2.412-1.27,2.674,2.674,0,0,0-2.031.874,3.3,3.3,0,0,0-.869,2.222ZM186.8.605h1.709V5.811a3.83,3.83,0,0,1,3.115-1.543A4.075,4.075,0,0,1,194.79,5.61a5.72,5.72,0,0,1,1.216,3.96,6.791,6.791,0,0,1-1.2,4.121,3.9,3.9,0,0,1-3.33,1.641,3.412,3.412,0,0,1-2.012-.576,4.858,4.858,0,0,1-1.045-1.094V15H186.8Zm4.57,13.174a2.349,2.349,0,0,0,2.134-1.133,5.578,5.578,0,0,0,.708-2.988,4.9,4.9,0,0,0-.708-2.734,2.332,2.332,0,0,0-2.085-1.084,2.908,2.908,0,0,0-2.1.889,3.991,3.991,0,0,0-.9,2.93,6.475,6.475,0,0,0,.371,2.393A2.564,2.564,0,0,0,191.367,13.779Zm6.689-9.189h1.787V15h-1.787Zm0-3.936h1.787V2.646h-1.787Zm4.492,0h1.758V15h-1.758Zm4.395,3.936h1.787V15h-1.787Zm0-3.936h1.787V2.646h-1.787ZM212.5,9.893a5.184,5.184,0,0,0,.713,2.813,2.5,2.5,0,0,0,2.285,1.133,2.407,2.407,0,0,0,2.007-1.05,4.958,4.958,0,0,0,.786-3.013,4.455,4.455,0,0,0-.811-2.935,2.528,2.528,0,0,0-2-.952A2.643,2.643,0,0,0,213.325,6.9,4.652,4.652,0,0,0,212.5,9.893Zm2.646-5.537a3.721,3.721,0,0,1,2.012.508,4.726,4.726,0,0,1,1.064,1.025V.605h1.689V15H218.33V13.545a3.8,3.8,0,0,1-1.455,1.4,4.165,4.165,0,0,1-1.924.43,3.9,3.9,0,0,1-3.027-1.47,5.746,5.746,0,0,1-1.279-3.911,6.751,6.751,0,0,1,1.167-3.96A3.821,3.821,0,0,1,215.146,4.355Zm8.711,7.861a1.448,1.448,0,0,0,.557,1.2,2.064,2.064,0,0,0,1.318.439,4.008,4.008,0,0,0,1.8-.43,2.418,2.418,0,0,0,1.465-2.334V9.678a3.007,3.007,0,0,1-.83.342,7.074,7.074,0,0,1-1,.2l-1.064.137a4.071,4.071,0,0,0-1.436.4A1.56,1.56,0,0,0,223.857,12.217Zm4.258-3.555a.955.955,0,0,0,.811-.508,1.545,1.545,0,0,0,.117-.674,1.428,1.428,0,0,0-.64-1.3,3.432,3.432,0,0,0-1.831-.405,2.327,2.327,0,0,0-1.953.742,2.442,2.442,0,0,0-.42,1.221h-1.641a3.02,3.02,0,0,1,1.255-2.69,5.152,5.152,0,0,1,2.8-.757,5.693,5.693,0,0,1,3,.7,2.385,2.385,0,0,1,1.143,2.188V13.2a.771.771,0,0,0,.112.439.542.542,0,0,0,.474.166q.117,0,.264-.015t.313-.044v1.3a4.9,4.9,0,0,1-.625.146,4.567,4.567,0,0,1-.586.029,1.446,1.446,0,0,1-1.318-.645,2.487,2.487,0,0,1-.3-.967,4.472,4.472,0,0,1-1.543,1.221,4.773,4.773,0,0,1-2.217.518,3.3,3.3,0,0,1-2.378-.884,2.936,2.936,0,0,1-.923-2.212A2.849,2.849,0,0,1,222.93,10a4.321,4.321,0,0,1,2.383-.986Zm6.631,1.23a5.184,5.184,0,0,0,.713,2.813,2.5,2.5,0,0,0,2.285,1.133,2.407,2.407,0,0,0,2.007-1.05,4.958,4.958,0,0,0,.786-3.013,4.455,4.455,0,0,0-.811-2.935,2.528,2.528,0,0,0-2-.952A2.643,2.643,0,0,0,235.571,6.9,4.652,4.652,0,0,0,234.746,9.893Zm2.646-5.537a3.721,3.721,0,0,1,2.012.508,4.726,4.726,0,0,1,1.064,1.025V.605h1.689V15h-1.582V13.545a3.8,3.8,0,0,1-1.455,1.4,4.165,4.165,0,0,1-1.924.43,3.9,3.9,0,0,1-3.027-1.47,5.746,5.746,0,0,1-1.279-3.911,6.751,6.751,0,0,1,1.167-3.96A3.821,3.821,0,0,1,237.393,4.355Zm11.719-.049a4.771,4.771,0,0,1,2.158.522,3.98,3.98,0,0,1,1.592,1.353,4.666,4.666,0,0,1,.7,1.846,12.075,12.075,0,0,1,.156,2.3h-7.666a4.473,4.473,0,0,0,.752,2.554,2.518,2.518,0,0,0,2.178.962,2.815,2.815,0,0,0,2.2-.908,3.062,3.062,0,0,0,.664-1.221h1.729A3.641,3.641,0,0,1,253.12,13a4.567,4.567,0,0,1-.864,1.157,4.1,4.1,0,0,1-1.982,1.055,6.022,6.022,0,0,1-1.436.156,4.4,4.4,0,0,1-3.311-1.421,5.529,5.529,0,0,1-1.357-3.979,6.011,6.011,0,0,1,1.367-4.092A4.51,4.51,0,0,1,249.111,4.307Zm2.8,4.629a4.554,4.554,0,0,0-.5-1.826A2.553,2.553,0,0,0,249,5.84a2.674,2.674,0,0,0-2.031.874,3.3,3.3,0,0,0-.869,2.222Zm5.01,2.783a2.556,2.556,0,0,0,.439,1.348,2.762,2.762,0,0,0,2.3.85,3.4,3.4,0,0,0,1.719-.425,1.411,1.411,0,0,0,.742-1.313,1.123,1.123,0,0,0-.6-1.025,7.083,7.083,0,0,0-1.5-.5l-1.4-.352a6.812,6.812,0,0,1-1.973-.742,2.218,2.218,0,0,1-1.133-1.973,3.014,3.014,0,0,1,1.069-2.4,4.266,4.266,0,0,1,2.876-.918,3.992,3.992,0,0,1,3.408,1.387,3.009,3.009,0,0,1,.635,1.895h-1.66a2.034,2.034,0,0,0-.42-1.084,2.678,2.678,0,0,0-2.1-.693,2.51,2.51,0,0,0-1.509.381,1.194,1.194,0,0,0-.513,1.006,1.238,1.238,0,0,0,.674,1.094,4.049,4.049,0,0,0,1.152.43l1.162.283a8.985,8.985,0,0,1,2.539.889,2.353,2.353,0,0,1,1.025,2.119,3.229,3.229,0,0,1-1.06,2.412A4.51,4.51,0,0,1,259.58,15.4a4.33,4.33,0,0,1-3.306-1.06,4.007,4.007,0,0,1-1.04-2.622Zm9.326,5.322a1.232,1.232,0,0,0,.947-.947,2.681,2.681,0,0,0,.146-.85q0-.068,0-.122a.673.673,0,0,0-.024-.122H266.25V12.871h2.09v1.973a4.273,4.273,0,0,1-.469,2.041,2.136,2.136,0,0,1-1.621,1.084ZM2.637,42.217a1.448,1.448,0,0,0,.557,1.2,2.064,2.064,0,0,0,1.318.439,4.008,4.008,0,0,0,1.8-.43,2.418,2.418,0,0,0,1.465-2.334V39.678a3.007,3.007,0,0,1-.83.342,7.073,7.073,0,0,1-1,.2l-1.064.137a4.071,4.071,0,0,0-1.436.4A1.56,1.56,0,0,0,2.637,42.217Zm4.258-3.555a.955.955,0,0,0,.811-.508,1.545,1.545,0,0,0,.117-.674,1.428,1.428,0,0,0-.64-1.3,3.432,3.432,0,0,0-1.831-.405,2.327,2.327,0,0,0-1.953.742,2.442,2.442,0,0,0-.42,1.221H1.338a3.02,3.02,0,0,1,1.255-2.69,5.152,5.152,0,0,1,2.8-.757,5.693,5.693,0,0,1,3,.7,2.385,2.385,0,0,1,1.143,2.188V43.2a.771.771,0,0,0,.112.439.542.542,0,0,0,.474.166q.117,0,.264-.015t.313-.044v1.3a4.9,4.9,0,0,1-.625.146,4.567,4.567,0,0,1-.586.029,1.446,1.446,0,0,1-1.318-.645,2.487,2.487,0,0,1-.3-.967,4.472,4.472,0,0,1-1.543,1.221,4.773,4.773,0,0,1-2.217.518,3.3,3.3,0,0,1-2.378-.884A2.936,2.936,0,0,1,.8,42.256,2.849,2.849,0,0,1,1.709,40a4.321,4.321,0,0,1,2.383-.986Zm9.932,5.156a2.508,2.508,0,0,0,2.046-1.03,4.9,4.9,0,0,0,.815-3.081,5.751,5.751,0,0,0-.361-2.148,2.494,2.494,0,0,0-2.5-1.729,2.493,2.493,0,0,0-2.5,1.826,7.238,7.238,0,0,0-.361,2.48,5.258,5.258,0,0,0,.361,2.061A2.493,2.493,0,0,0,16.826,43.818ZM12.275,34.59h1.709v1.387a4.267,4.267,0,0,1,1.152-1.1,3.709,3.709,0,0,1,2.09-.586,3.93,3.93,0,0,1,3.018,1.362,5.582,5.582,0,0,1,1.24,3.892q0,3.418-1.787,4.883a4.038,4.038,0,0,1-2.637.928,3.579,3.579,0,0,1-1.982-.518,4.567,4.567,0,0,1-1.045-1.006V49.17H12.275Zm11.309-.049h1.67v1.807a3.992,3.992,0,0,1,1.006-1.284,2.608,2.608,0,0,1,1.846-.757q.049,0,.166.01t.4.039v1.855a2.626,2.626,0,0,0-.288-.039q-.132-.01-.288-.01a2.508,2.508,0,0,0-2.041.854,2.983,2.983,0,0,0-.713,1.968V45H23.584Zm10.762,9.326a2.424,2.424,0,0,0,2.4-1.323,6.592,6.592,0,0,0,.649-2.944,5.242,5.242,0,0,0-.469-2.383,2.637,2.637,0,0,0-2.559-1.445A2.523,2.523,0,0,0,32.021,37a5.7,5.7,0,0,0-.732,2.969,4.961,4.961,0,0,0,.732,2.783A2.58,2.58,0,0,0,34.346,43.867Zm.068-9.629a4.736,4.736,0,0,1,3.418,1.348,5.263,5.263,0,0,1,1.4,3.965A6.8,6.8,0,0,1,38,43.73a4.451,4.451,0,0,1-3.818,1.65,4.311,4.311,0,0,1-3.428-1.46A5.767,5.767,0,0,1,29.482,40a6.239,6.239,0,0,1,1.338-4.2A4.49,4.49,0,0,1,34.414,34.238Zm7.764.3,2.793,8.516,2.92-8.516h1.924L45.869,45H43.994L40.137,34.541Zm13.5-.234a4.771,4.771,0,0,1,2.158.522,3.98,3.98,0,0,1,1.592,1.353,4.666,4.666,0,0,1,.7,1.846,12.076,12.076,0,0,1,.156,2.3H52.617a4.473,4.473,0,0,0,.752,2.554,2.518,2.518,0,0,0,2.178.962,2.815,2.815,0,0,0,2.2-.908,3.062,3.062,0,0,0,.664-1.221h1.729A3.64,3.64,0,0,1,59.683,43a4.567,4.567,0,0,1-.864,1.157,4.1,4.1,0,0,1-1.982,1.055,6.022,6.022,0,0,1-1.436.156A4.4,4.4,0,0,1,52.09,43.95a5.529,5.529,0,0,1-1.357-3.979A6.011,6.011,0,0,1,52.1,35.879,4.51,4.51,0,0,1,55.674,34.307Zm2.8,4.629a4.554,4.554,0,0,0-.5-1.826,2.553,2.553,0,0,0-2.412-1.27,2.674,2.674,0,0,0-2.031.874,3.3,3.3,0,0,0-.869,2.222Zm8-4.7a4.56,4.56,0,0,1,2.876.859,4.117,4.117,0,0,1,1.333,2.959H68.975a3.155,3.155,0,0,0-.713-1.606,2.252,2.252,0,0,0-1.787-.64,2.469,2.469,0,0,0-2.4,1.641,6.517,6.517,0,0,0-.469,2.627,4.943,4.943,0,0,0,.664,2.646,2.574,2.574,0,0,0,3.823.405,3.678,3.678,0,0,0,.884-1.831h1.709a4.133,4.133,0,0,1-4.463,4,4,4,0,0,1-3.271-1.5,5.738,5.738,0,0,1-1.221-3.745,6.309,6.309,0,0,1,1.338-4.287A4.323,4.323,0,0,1,66.475,34.238Zm5.967-3.633H74.2v5.352a5.075,5.075,0,0,1,1.123-1.113,3.789,3.789,0,0,1,2.119-.557,3.134,3.134,0,0,1,3.086,1.592,5.428,5.428,0,0,1,.439,2.412V45H79.16V38.408a3.687,3.687,0,0,0-.293-1.689,1.872,1.872,0,0,0-1.8-.859,2.993,2.993,0,0,0-1.982.752,3.616,3.616,0,0,0-.889,2.842V45H72.441ZM84.912,42.217a1.448,1.448,0,0,0,.557,1.2,2.064,2.064,0,0,0,1.318.439,4.008,4.008,0,0,0,1.8-.43,2.418,2.418,0,0,0,1.465-2.334V39.678a3.007,3.007,0,0,1-.83.342,7.073,7.073,0,0,1-1,.2l-1.064.137a4.071,4.071,0,0,0-1.436.4A1.56,1.56,0,0,0,84.912,42.217Zm4.258-3.555a.955.955,0,0,0,.811-.508,1.545,1.545,0,0,0,.117-.674,1.428,1.428,0,0,0-.64-1.3,3.432,3.432,0,0,0-1.831-.405,2.327,2.327,0,0,0-1.953.742,2.442,2.442,0,0,0-.42,1.221H83.613a3.02,3.02,0,0,1,1.255-2.69,5.152,5.152,0,0,1,2.8-.757,5.693,5.693,0,0,1,3,.7,2.385,2.385,0,0,1,1.143,2.188V43.2a.771.771,0,0,0,.112.439.542.542,0,0,0,.474.166q.117,0,.264-.015t.313-.044v1.3a4.9,4.9,0,0,1-.625.146,4.567,4.567,0,0,1-.586.029,1.446,1.446,0,0,1-1.318-.645,2.487,2.487,0,0,1-.3-.967,4.472,4.472,0,0,1-1.543,1.221,4.773,4.773,0,0,1-2.217.518A3.3,3.3,0,0,1,84,44.468a2.936,2.936,0,0,1-.923-2.212A2.849,2.849,0,0,1,83.984,40a4.321,4.321,0,0,1,2.383-.986Zm5.518-4.121h1.67v1.484a4.684,4.684,0,0,1,1.572-1.318,4.193,4.193,0,0,1,1.846-.4,3.043,3.043,0,0,1,3.008,1.553,5.514,5.514,0,0,1,.43,2.432V45h-1.787V38.408a3.569,3.569,0,0,0-.283-1.543,1.717,1.717,0,0,0-1.7-.977,3.46,3.46,0,0,0-1.025.127,2.641,2.641,0,0,0-1.27.859,2.587,2.587,0,0,0-.571,1.069,7.2,7.2,0,0,0-.132,1.577V45H94.688Zm12.236,5.352a5.184,5.184,0,0,0,.713,2.813,2.5,2.5,0,0,0,2.285,1.133,2.407,2.407,0,0,0,2.007-1.05,4.958,4.958,0,0,0,.786-3.013,4.455,4.455,0,0,0-.811-2.935,2.528,2.528,0,0,0-2-.952,2.643,2.643,0,0,0-2.153,1.016A4.652,4.652,0,0,0,106.924,39.893Zm2.646-5.537a3.721,3.721,0,0,1,2.012.508,4.725,4.725,0,0,1,1.064,1.025V30.605h1.689V45h-1.582V43.545a3.8,3.8,0,0,1-1.455,1.4,4.165,4.165,0,0,1-1.924.43,3.9,3.9,0,0,1-3.027-1.47,5.746,5.746,0,0,1-1.279-3.911,6.752,6.752,0,0,1,1.167-3.96A3.821,3.821,0,0,1,109.57,34.355Zm11.514,9.512a2.424,2.424,0,0,0,2.4-1.323,6.592,6.592,0,0,0,.649-2.944,5.242,5.242,0,0,0-.469-2.383,2.637,2.637,0,0,0-2.559-1.445A2.523,2.523,0,0,0,118.76,37a5.7,5.7,0,0,0-.732,2.969,4.961,4.961,0,0,0,.732,2.783A2.58,2.58,0,0,0,121.084,43.867Zm.068-9.629a4.736,4.736,0,0,1,3.418,1.348,5.263,5.263,0,0,1,1.4,3.965,6.8,6.8,0,0,1-1.23,4.18,4.451,4.451,0,0,1-3.818,1.65,4.311,4.311,0,0,1-3.428-1.46A5.767,5.767,0,0,1,116.221,40a6.239,6.239,0,0,1,1.338-4.2A4.49,4.49,0,0,1,121.152,34.238Zm12.51-3.584h1.758V45h-1.758ZM139.4,42.217a1.448,1.448,0,0,0,.557,1.2,2.064,2.064,0,0,0,1.318.439,4.008,4.008,0,0,0,1.8-.43,2.418,2.418,0,0,0,1.465-2.334V39.678a3.007,3.007,0,0,1-.83.342,7.074,7.074,0,0,1-1,.2l-1.064.137a4.071,4.071,0,0,0-1.436.4A1.56,1.56,0,0,0,139.4,42.217Zm4.258-3.555a.955.955,0,0,0,.811-.508,1.545,1.545,0,0,0,.117-.674,1.428,1.428,0,0,0-.64-1.3,3.432,3.432,0,0,0-1.831-.405,2.327,2.327,0,0,0-1.953.742,2.442,2.442,0,0,0-.42,1.221h-1.641a3.02,3.02,0,0,1,1.255-2.69,5.152,5.152,0,0,1,2.8-.757,5.693,5.693,0,0,1,3,.7,2.385,2.385,0,0,1,1.143,2.188V43.2a.771.771,0,0,0,.112.439.542.542,0,0,0,.474.166q.117,0,.264-.015t.313-.044v1.3a4.9,4.9,0,0,1-.625.146,4.567,4.567,0,0,1-.586.029,1.446,1.446,0,0,1-1.318-.645,2.487,2.487,0,0,1-.3-.967,4.472,4.472,0,0,1-1.543,1.221,4.773,4.773,0,0,1-2.217.518,3.3,3.3,0,0,1-2.378-.884,2.936,2.936,0,0,1-.923-2.212A2.849,2.849,0,0,1,138.477,40a4.321,4.321,0,0,1,2.383-.986Zm6.563,3.057a2.556,2.556,0,0,0,.439,1.348,2.762,2.762,0,0,0,2.3.85,3.4,3.4,0,0,0,1.719-.425,1.411,1.411,0,0,0,.742-1.313,1.123,1.123,0,0,0-.6-1.025,7.082,7.082,0,0,0-1.5-.5l-1.4-.352a6.812,6.812,0,0,1-1.973-.742,2.218,2.218,0,0,1-1.133-1.973,3.014,3.014,0,0,1,1.069-2.4,4.266,4.266,0,0,1,2.876-.918,3.992,3.992,0,0,1,3.408,1.387,3.009,3.009,0,0,1,.635,1.895h-1.66a2.034,2.034,0,0,0-.42-1.084,2.678,2.678,0,0,0-2.1-.693,2.51,2.51,0,0,0-1.509.381,1.194,1.194,0,0,0-.513,1.006,1.238,1.238,0,0,0,.674,1.094,4.049,4.049,0,0,0,1.152.43l1.162.283a8.985,8.985,0,0,1,2.539.889,2.353,2.353,0,0,1,1.025,2.119,3.229,3.229,0,0,1-1.06,2.412,4.51,4.51,0,0,1-3.228,1.016,4.33,4.33,0,0,1-3.306-1.06,4.007,4.007,0,0,1-1.04-2.622Zm18.662,2.148a2.424,2.424,0,0,0,2.4-1.323,6.592,6.592,0,0,0,.649-2.944,5.242,5.242,0,0,0-.469-2.383,2.637,2.637,0,0,0-2.559-1.445A2.523,2.523,0,0,0,166.563,37a5.7,5.7,0,0,0-.732,2.969,4.961,4.961,0,0,0,.732,2.783A2.58,2.58,0,0,0,168.887,43.867Zm.068-9.629a4.736,4.736,0,0,1,3.418,1.348,5.263,5.263,0,0,1,1.4,3.965,6.8,6.8,0,0,1-1.23,4.18,4.451,4.451,0,0,1-3.818,1.65,4.311,4.311,0,0,1-3.428-1.46A5.767,5.767,0,0,1,164.023,40a6.239,6.239,0,0,1,1.338-4.2A4.49,4.49,0,0,1,168.955,34.238Zm11.318,9.58a2.508,2.508,0,0,0,2.046-1.03,4.9,4.9,0,0,0,.815-3.081,5.751,5.751,0,0,0-.361-2.148,2.648,2.648,0,0,0-5,.1,7.237,7.237,0,0,0-.361,2.48,5.258,5.258,0,0,0,.361,2.061A2.493,2.493,0,0,0,180.273,43.818Zm-4.551-9.229h1.709v1.387a4.267,4.267,0,0,1,1.152-1.1,3.709,3.709,0,0,1,2.09-.586,3.93,3.93,0,0,1,3.018,1.362,5.581,5.581,0,0,1,1.24,3.892q0,3.418-1.787,4.883a4.038,4.038,0,0,1-2.637.928,3.579,3.579,0,0,1-1.982-.518,4.567,4.567,0,0,1-1.045-1.006V49.17h-1.758Zm15.41,9.277a2.424,2.424,0,0,0,2.4-1.323,6.592,6.592,0,0,0,.649-2.944,5.242,5.242,0,0,0-.469-2.383,2.637,2.637,0,0,0-2.559-1.445A2.523,2.523,0,0,0,188.809,37a5.7,5.7,0,0,0-.732,2.969,4.961,4.961,0,0,0,.732,2.783A2.58,2.58,0,0,0,191.133,43.867Zm.068-9.629a4.736,4.736,0,0,1,3.418,1.348,5.263,5.263,0,0,1,1.4,3.965,6.8,6.8,0,0,1-1.23,4.18,4.451,4.451,0,0,1-3.818,1.65,4.311,4.311,0,0,1-3.428-1.46A5.767,5.767,0,0,1,186.27,40a6.239,6.239,0,0,1,1.338-4.2A4.49,4.49,0,0,1,191.2,34.238Zm6.953.3h1.67v1.807a3.992,3.992,0,0,1,1.006-1.284,2.608,2.608,0,0,1,1.846-.757q.049,0,.166.01t.4.039v1.855a2.626,2.626,0,0,0-.288-.039q-.132-.01-.288-.01a2.508,2.508,0,0,0-2.041.854,2.983,2.983,0,0,0-.713,1.968V45h-1.758Zm6.963-2.92h1.777v2.92h1.67v1.436h-1.67V42.8a.739.739,0,0,0,.371.732,1.577,1.577,0,0,0,.684.107q.127,0,.273,0t.342-.024V45a3.924,3.924,0,0,1-.63.127,5.988,5.988,0,0,1-.708.039,1.908,1.908,0,0,1-1.67-.63,2.8,2.8,0,0,1-.439-1.636V35.977H203.7V34.541h1.416Zm6.963,2.92v6.943a2.928,2.928,0,0,0,.254,1.309,1.772,1.772,0,0,0,1.748.938,2.471,2.471,0,0,0,2.5-1.641,6.509,6.509,0,0,0,.361-2.412V34.541H218.7V45h-1.66l.02-1.543a3.546,3.546,0,0,1-.85,1.006,3.739,3.739,0,0,1-2.441.82,3.149,3.149,0,0,1-3.047-1.494,4.45,4.45,0,0,1-.439-2.139V34.541Zm9.365,0h1.67v1.484a4.684,4.684,0,0,1,1.572-1.318,4.193,4.193,0,0,1,1.846-.4,3.043,3.043,0,0,1,3.008,1.553,5.514,5.514,0,0,1,.43,2.432V45h-1.787V38.408a3.569,3.569,0,0,0-.283-1.543,1.717,1.717,0,0,0-1.7-.977,3.46,3.46,0,0,0-1.025.127,2.641,2.641,0,0,0-1.27.859,2.587,2.587,0,0,0-.571,1.069,7.2,7.2,0,0,0-.132,1.577V45h-1.758Zm11.123.049h1.787V45h-1.787Zm0-3.936h1.787v1.992h-1.787Zm5.557,9.238a5.184,5.184,0,0,0,.713,2.813,2.5,2.5,0,0,0,2.285,1.133,2.407,2.407,0,0,0,2.007-1.05,4.958,4.958,0,0,0,.786-3.013,4.455,4.455,0,0,0-.811-2.935,2.528,2.528,0,0,0-2-.952A2.643,2.643,0,0,0,238.95,36.9,4.652,4.652,0,0,0,238.125,39.893Zm2.646-5.537a3.721,3.721,0,0,1,2.012.508,4.726,4.726,0,0,1,1.064,1.025V30.605h1.689V45h-1.582V43.545a3.8,3.8,0,0,1-1.455,1.4,4.165,4.165,0,0,1-1.924.43,3.9,3.9,0,0,1-3.027-1.47,5.746,5.746,0,0,1-1.279-3.911,6.751,6.751,0,0,1,1.167-3.96A3.821,3.821,0,0,1,240.771,34.355Zm8.711,7.861a1.448,1.448,0,0,0,.557,1.2,2.064,2.064,0,0,0,1.318.439,4.008,4.008,0,0,0,1.8-.43,2.418,2.418,0,0,0,1.465-2.334V39.678a3.007,3.007,0,0,1-.83.342,7.074,7.074,0,0,1-1,.2l-1.064.137a4.071,4.071,0,0,0-1.436.4A1.56,1.56,0,0,0,249.482,42.217Zm4.258-3.555a.955.955,0,0,0,.811-.508,1.545,1.545,0,0,0,.117-.674,1.428,1.428,0,0,0-.64-1.3,3.432,3.432,0,0,0-1.831-.405,2.327,2.327,0,0,0-1.953.742,2.442,2.442,0,0,0-.42,1.221h-1.641a3.02,3.02,0,0,1,1.255-2.69,5.152,5.152,0,0,1,2.8-.757,5.693,5.693,0,0,1,3,.7,2.385,2.385,0,0,1,1.143,2.188V43.2a.772.772,0,0,0,.112.439.542.542,0,0,0,.474.166q.117,0,.264-.015t.313-.044v1.3a4.9,4.9,0,0,1-.625.146,4.567,4.567,0,0,1-.586.029,1.446,1.446,0,0,1-1.318-.645,2.487,2.487,0,0,1-.3-.967,4.472,4.472,0,0,1-1.543,1.221,4.773,4.773,0,0,1-2.217.518,3.3,3.3,0,0,1-2.378-.884,2.936,2.936,0,0,1-.923-2.212A2.849,2.849,0,0,1,248.555,40a4.321,4.321,0,0,1,2.383-.986Zm6.631,1.23a5.184,5.184,0,0,0,.713,2.813,2.5,2.5,0,0,0,2.285,1.133,2.407,2.407,0,0,0,2.007-1.05,4.958,4.958,0,0,0,.786-3.013,4.455,4.455,0,0,0-.811-2.935,2.528,2.528,0,0,0-2-.952A2.643,2.643,0,0,0,261.2,36.9,4.652,4.652,0,0,0,260.371,39.893Zm2.646-5.537a3.721,3.721,0,0,1,2.012.508,4.725,4.725,0,0,1,1.064,1.025V30.605h1.689V45H266.2V43.545a3.8,3.8,0,0,1-1.455,1.4,4.165,4.165,0,0,1-1.924.43,3.9,3.9,0,0,1-3.027-1.47,5.746,5.746,0,0,1-1.279-3.911,6.752,6.752,0,0,1,1.167-3.96A3.821,3.821,0,0,1,263.018,34.355Zm11.719-.049a4.771,4.771,0,0,1,2.158.522,3.98,3.98,0,0,1,1.592,1.353,4.666,4.666,0,0,1,.7,1.846,12.077,12.077,0,0,1,.156,2.3H271.68a4.473,4.473,0,0,0,.752,2.554,2.518,2.518,0,0,0,2.178.962,2.815,2.815,0,0,0,2.2-.908,3.062,3.062,0,0,0,.664-1.221H279.2A3.64,3.64,0,0,1,278.745,43a4.568,4.568,0,0,1-.864,1.157,4.1,4.1,0,0,1-1.982,1.055,6.022,6.022,0,0,1-1.436.156,4.4,4.4,0,0,1-3.311-1.421,5.529,5.529,0,0,1-1.357-3.979,6.011,6.011,0,0,1,1.367-4.092A4.51,4.51,0,0,1,274.736,34.307Zm2.8,4.629a4.554,4.554,0,0,0-.5-1.826,2.553,2.553,0,0,0-2.412-1.27,2.674,2.674,0,0,0-2.031.874,3.3,3.3,0,0,0-.869,2.222Zm5.01,2.783a2.556,2.556,0,0,0,.439,1.348,2.762,2.762,0,0,0,2.3.85,3.4,3.4,0,0,0,1.719-.425,1.411,1.411,0,0,0,.742-1.313,1.123,1.123,0,0,0-.6-1.025,7.083,7.083,0,0,0-1.5-.5l-1.4-.352a6.812,6.812,0,0,1-1.973-.742,2.218,2.218,0,0,1-1.133-1.973,3.014,3.014,0,0,1,1.069-2.4,4.266,4.266,0,0,1,2.876-.918,3.992,3.992,0,0,1,3.408,1.387,3.009,3.009,0,0,1,.635,1.895h-1.66a2.034,2.034,0,0,0-.42-1.084,2.678,2.678,0,0,0-2.1-.693,2.51,2.51,0,0,0-1.509.381,1.194,1.194,0,0,0-.513,1.006,1.238,1.238,0,0,0,.674,1.094,4.049,4.049,0,0,0,1.152.43l1.162.283a8.985,8.985,0,0,1,2.539.889,2.353,2.353,0,0,1,1.025,2.119,3.229,3.229,0,0,1-1.06,2.412,4.51,4.51,0,0,1-3.228,1.016,4.33,4.33,0,0,1-3.306-1.06,4.007,4.007,0,0,1-1.04-2.622Zm9.375,1.152h2.041V45h-2.041Z" transform="translate(1097.563 7385)" fill="#00223d"/>
    <path id="Trazado_35205" data-name="Trazado 35205" d="M2194.526,6031.5v198.2h446.911V5885.026h-378.8" transform="translate(-1143.438 1279)" fill="none" stroke="#00ffe2" stroke-width="5"/>
    <rect id="Rectángulo_3393" data-name="Rectángulo 3393" width="448" height="107" transform="translate(1023.563 7209)" fill="#00ffe2"/>
    <path id="Trazado_36217" data-name="Trazado 36217" d="M2.563-21.519H18.252v2.637H5.405v6.533h11.88v2.49H5.405v7.295H18.472V0H2.563Zm20.947,16.6A3.834,3.834,0,0,0,24.17-2.9a4.142,4.142,0,0,0,3.457,1.274,5.1,5.1,0,0,0,2.578-.637,2.116,2.116,0,0,0,1.113-1.97,1.685,1.685,0,0,0-.894-1.538,10.624,10.624,0,0,0-2.256-.747l-2.095-.527a10.219,10.219,0,0,1-2.959-1.113,3.327,3.327,0,0,1-1.7-2.959,4.521,4.521,0,0,1,1.6-3.6A6.4,6.4,0,0,1,27.334-16.1q3.545,0,5.112,2.08a4.514,4.514,0,0,1,.952,2.842h-2.49a3.05,3.05,0,0,0-.63-1.626,4.017,4.017,0,0,0-3.149-1.04,3.765,3.765,0,0,0-2.263.571,1.79,1.79,0,0,0-.769,1.509,1.857,1.857,0,0,0,1.011,1.641,6.074,6.074,0,0,0,1.729.645l1.743.425A13.478,13.478,0,0,1,32.388-7.72a3.53,3.53,0,0,1,1.538,3.179A4.844,4.844,0,0,1,32.336-.923,6.766,6.766,0,0,1,27.5.6q-3.5,0-4.958-1.589a6.011,6.011,0,0,1-1.56-3.933Zm13.96-15.146h2.666v4.38h2.5v2.153h-2.5V-3.3a1.108,1.108,0,0,0,.557,1.1,2.366,2.366,0,0,0,1.025.161q.19,0,.41-.007t.513-.037V0A5.886,5.886,0,0,1,41.7.19a8.983,8.983,0,0,1-1.062.059A2.862,2.862,0,0,1,38.13-.7a4.2,4.2,0,0,1-.659-2.454V-13.535H35.347v-2.153h2.124Zm7.881,4.38h2.5v2.71A5.987,5.987,0,0,1,49.365-14.9a3.912,3.912,0,0,1,2.769-1.135q.073,0,.249.015t.6.059v2.783a3.938,3.938,0,0,0-.432-.059q-.2-.015-.432-.015a3.763,3.763,0,0,0-3.062,1.282,4.474,4.474,0,0,0-1.069,2.952V0H45.352ZM57.29-4.175a2.171,2.171,0,0,0,.835,1.8,3.1,3.1,0,0,0,1.978.659,6.013,6.013,0,0,0,2.7-.645,3.627,3.627,0,0,0,2.2-3.5V-7.983a4.511,4.511,0,0,1-1.245.513,10.61,10.61,0,0,1-1.494.293l-1.6.205a6.107,6.107,0,0,0-2.153.6A2.34,2.34,0,0,0,57.29-4.175Zm6.387-5.332a1.432,1.432,0,0,0,1.216-.762,2.318,2.318,0,0,0,.176-1.011,2.141,2.141,0,0,0-.959-1.956,5.148,5.148,0,0,0-2.747-.608,3.49,3.49,0,0,0-2.93,1.113A3.663,3.663,0,0,0,57.8-10.9H55.342q.073-2.9,1.882-4.036a7.728,7.728,0,0,1,4.2-1.135,8.539,8.539,0,0,1,4.5,1.055,3.578,3.578,0,0,1,1.714,3.281V-2.7a1.157,1.157,0,0,0,.168.659.812.812,0,0,0,.71.249q.176,0,.4-.022t.469-.066V.073a7.344,7.344,0,0,1-.937.22,6.851,6.851,0,0,1-.879.044A2.169,2.169,0,0,1,65.581-.63a3.731,3.731,0,0,1-.454-1.45A6.708,6.708,0,0,1,62.813-.249a7.159,7.159,0,0,1-3.325.776A4.945,4.945,0,0,1,55.92-.8a4.4,4.4,0,0,1-1.384-3.318A4.273,4.273,0,0,1,55.9-7.5a6.482,6.482,0,0,1,3.574-1.479Zm8.8-10.562h2.666v4.38h2.5v2.153h-2.5V-3.3A1.108,1.108,0,0,0,75.7-2.2a2.366,2.366,0,0,0,1.025.161q.19,0,.41-.007t.513-.037V0a5.886,5.886,0,0,1-.945.19,8.983,8.983,0,0,1-1.062.059A2.862,2.862,0,0,1,73.14-.7a4.2,4.2,0,0,1-.659-2.454V-13.535H70.356v-2.153H72.48ZM86.821-16.04a7.156,7.156,0,0,1,3.237.784,5.97,5.97,0,0,1,2.388,2.029A7,7,0,0,1,93.5-10.459,18.114,18.114,0,0,1,93.735-7h-11.5a6.71,6.71,0,0,0,1.128,3.831,3.777,3.777,0,0,0,3.267,1.443,4.223,4.223,0,0,0,3.3-1.362,4.592,4.592,0,0,0,1-1.831h2.593A5.461,5.461,0,0,1,92.834-3a6.851,6.851,0,0,1-1.3,1.736A6.144,6.144,0,0,1,88.564.322a9.033,9.033,0,0,1-2.153.234,6.607,6.607,0,0,1-4.966-2.131,8.293,8.293,0,0,1-2.036-5.969,9.017,9.017,0,0,1,2.051-6.138A6.765,6.765,0,0,1,86.821-16.04Zm4.2,6.943a6.831,6.831,0,0,0-.747-2.739,3.829,3.829,0,0,0-3.618-1.9,4.011,4.011,0,0,0-3.047,1.311A4.953,4.953,0,0,0,82.31-9.1Zm11.484-6.87a5.718,5.718,0,0,1,3.223.908,7.238,7.238,0,0,1,1.523,1.494v-1.978h2.432V-1.274a10.521,10.521,0,0,1-.879,4.717q-1.641,3.193-6.2,3.193A7.6,7.6,0,0,1,98.35,5.5a4.427,4.427,0,0,1-1.934-3.552H99.1a2.983,2.983,0,0,0,.762,1.626,3.884,3.884,0,0,0,2.813.879q3.032,0,3.97-2.139a12.045,12.045,0,0,0,.513-4.5,5.173,5.173,0,0,1-1.9,1.787A6.335,6.335,0,0,1,102.3.19a6.285,6.285,0,0,1-4.46-1.809Q95.933-3.428,95.933-7.6a9.062,9.062,0,0,1,1.926-6.152A5.956,5.956,0,0,1,102.51-15.967Zm4.746,8.057a6.541,6.541,0,0,0-1.2-4.321,3.848,3.848,0,0,0-3.062-1.406,3.781,3.781,0,0,0-3.809,2.607,10.224,10.224,0,0,0-.542,3.647,6.475,6.475,0,0,0,1.077,4.036,3.476,3.476,0,0,0,2.893,1.384,4.062,4.062,0,0,0,4-2.563A8.268,8.268,0,0,0,107.256-7.91Zm6.4-7.705h2.681V0h-2.681Zm0-5.9h2.681v2.988h-2.681Zm8.687,17.344a2.171,2.171,0,0,0,.835,1.8,3.1,3.1,0,0,0,1.978.659,6.013,6.013,0,0,0,2.7-.645,3.627,3.627,0,0,0,2.2-3.5V-7.983a4.511,4.511,0,0,1-1.245.513,10.61,10.61,0,0,1-1.494.293l-1.6.205a6.107,6.107,0,0,0-2.153.6A2.34,2.34,0,0,0,122.344-4.175Zm6.387-5.332a1.432,1.432,0,0,0,1.216-.762,2.318,2.318,0,0,0,.176-1.011,2.141,2.141,0,0,0-.959-1.956,5.148,5.148,0,0,0-2.747-.608,3.49,3.49,0,0,0-2.93,1.113,3.663,3.663,0,0,0-.63,1.831H120.4q.073-2.9,1.882-4.036a7.728,7.728,0,0,1,4.2-1.135,8.539,8.539,0,0,1,4.5,1.055,3.578,3.578,0,0,1,1.714,3.281V-2.7a1.157,1.157,0,0,0,.168.659.812.812,0,0,0,.71.249q.176,0,.4-.022t.469-.066V.073a7.344,7.344,0,0,1-.937.22,6.851,6.851,0,0,1-.879.044,2.169,2.169,0,0,1-1.978-.967,3.731,3.731,0,0,1-.454-1.45,6.708,6.708,0,0,1-2.314,1.831,7.159,7.159,0,0,1-3.325.776A4.945,4.945,0,0,1,120.974-.8a4.4,4.4,0,0,1-1.384-3.318A4.273,4.273,0,0,1,120.952-7.5a6.482,6.482,0,0,1,3.574-1.479Zm9.844,4.585a3.834,3.834,0,0,0,.659,2.021,4.142,4.142,0,0,0,3.457,1.274,5.1,5.1,0,0,0,2.578-.637,2.116,2.116,0,0,0,1.113-1.97,1.685,1.685,0,0,0-.894-1.538,10.624,10.624,0,0,0-2.256-.747l-2.095-.527a10.219,10.219,0,0,1-2.959-1.113,3.327,3.327,0,0,1-1.7-2.959,4.521,4.521,0,0,1,1.6-3.6A6.4,6.4,0,0,1,142.4-16.1q3.545,0,5.112,2.08a4.514,4.514,0,0,1,.952,2.842h-2.49a3.05,3.05,0,0,0-.63-1.626,4.017,4.017,0,0,0-3.149-1.04,3.765,3.765,0,0,0-2.263.571,1.79,1.79,0,0,0-.769,1.509,1.857,1.857,0,0,0,1.011,1.641,6.074,6.074,0,0,0,1.729.645l1.743.425a13.478,13.478,0,0,1,3.809,1.333,3.53,3.53,0,0,1,1.538,3.179A4.844,4.844,0,0,1,147.4-.923,6.766,6.766,0,0,1,142.559.6q-3.5,0-4.958-1.589a6.011,6.011,0,0,1-1.56-3.933ZM168.955-2.49a8.057,8.057,0,0,0,2.432-.308A5.348,5.348,0,0,0,174.17-5a9,9,0,0,0,1.245-3.34,12.739,12.739,0,0,0,.22-2.256,10.505,10.505,0,0,0-1.589-6.211q-1.589-2.212-5.12-2.212h-5.171V-2.49Zm-8.13-19.028h8.716a8.215,8.215,0,0,1,6.885,3.149,11.611,11.611,0,0,1,2.183,7.28,14.505,14.505,0,0,1-1.289,6.2A7.953,7.953,0,0,1,169.512,0h-8.687Zm30.82-.586q5.7,0,8.438,3.662a11.868,11.868,0,0,1,2.139,7.31,12.791,12.791,0,0,1-2.446,8.013A9.7,9.7,0,0,1,191.587.63a9.787,9.787,0,0,1-7.808-3.281,12.39,12.39,0,0,1-2.534-8,12.721,12.721,0,0,1,2.168-7.471A9.392,9.392,0,0,1,191.646-22.1Zm.293,20.127a6.069,6.069,0,0,0,5.574-2.761,11.753,11.753,0,0,0,1.721-6.35,9.058,9.058,0,0,0-1.985-6.108,6.775,6.775,0,0,0-5.427-2.314,7.067,7.067,0,0,0-5.449,2.292q-2.109,2.292-2.109,6.76a9.877,9.877,0,0,0,1.809,6.028Q187.881-1.978,191.938-1.978ZM8.877,13.13a51.148,51.148,0,0,0-2.988,6.577,24.045,24.045,0,0,0-1.04,7.412,24.16,24.16,0,0,0,1.187,7.764,46.883,46.883,0,0,0,2.886,6.24H7.148Q5.01,37.783,4.5,36.86a19.8,19.8,0,0,1-1.113-2.5,20.589,20.589,0,0,1-1.143-4.629,19.41,19.41,0,0,1-.161-2.432,20.536,20.536,0,0,1,1.362-7.72,44.431,44.431,0,0,1,3.6-6.445Zm11.66,19.38a8.057,8.057,0,0,0,2.432-.308A5.348,5.348,0,0,0,25.752,30,9,9,0,0,0,27,26.665a12.739,12.739,0,0,0,.22-2.256A10.505,10.505,0,0,0,25.627,18.2q-1.589-2.212-5.12-2.212H15.337V32.51Zm-8.13-19.028h8.716a8.215,8.215,0,0,1,6.885,3.149,11.611,11.611,0,0,1,2.183,7.28,14.505,14.505,0,0,1-1.289,6.2A7.953,7.953,0,0,1,21.094,35H12.407ZM40.122,18.96a7.156,7.156,0,0,1,3.237.784,5.97,5.97,0,0,1,2.388,2.029A7,7,0,0,1,46.8,24.541,18.114,18.114,0,0,1,47.036,28h-11.5a6.71,6.71,0,0,0,1.128,3.831,3.777,3.777,0,0,0,3.267,1.443,4.223,4.223,0,0,0,3.3-1.362,4.592,4.592,0,0,0,1-1.831h2.593A5.461,5.461,0,0,1,46.135,32a6.851,6.851,0,0,1-1.3,1.736,6.144,6.144,0,0,1-2.974,1.582,9.033,9.033,0,0,1-2.153.234,6.607,6.607,0,0,1-4.966-2.131,8.293,8.293,0,0,1-2.036-5.969,9.017,9.017,0,0,1,2.051-6.138A6.765,6.765,0,0,1,40.122,18.96Zm4.2,6.943a6.831,6.831,0,0,0-.747-2.739,3.829,3.829,0,0,0-3.618-1.9,4.011,4.011,0,0,0-3.047,1.311,4.953,4.953,0,0,0-1.3,3.333Zm5.742-12.5h2.563v7.808A5.746,5.746,0,0,1,57.3,18.9a6.112,6.112,0,0,1,4.753,2.014q1.824,2.014,1.824,5.94a10.187,10.187,0,0,1-1.8,6.182,5.845,5.845,0,0,1-5,2.461,5.118,5.118,0,0,1-3.018-.864A7.287,7.287,0,0,1,52.5,32.993V35H50.068Zm6.855,19.761a3.523,3.523,0,0,0,3.2-1.7,8.367,8.367,0,0,0,1.062-4.482,7.357,7.357,0,0,0-1.062-4.1A3.5,3.5,0,0,0,57,21.26a4.362,4.362,0,0,0-3.157,1.333q-1.355,1.333-1.355,4.395a9.712,9.712,0,0,0,.557,3.589A3.846,3.846,0,0,0,56.924,33.169ZM66.958,19.385h2.681V35H66.958Zm0-5.9h2.681V16.47H66.958Zm6.738,0h2.637V35H73.7Zm6.592,5.9h2.681V35H80.288Zm0-5.9h2.681V16.47H80.288Zm8.335,13.857a7.777,7.777,0,0,0,1.069,4.219,3.747,3.747,0,0,0,3.428,1.7,3.61,3.61,0,0,0,3.01-1.575,7.437,7.437,0,0,0,1.179-4.519,6.682,6.682,0,0,0-1.216-4.4,3.793,3.793,0,0,0-3-1.428,3.964,3.964,0,0,0-3.23,1.523A6.977,6.977,0,0,0,88.623,27.339Zm3.97-8.306a5.582,5.582,0,0,1,3.018.762,7.088,7.088,0,0,1,1.6,1.538V13.408h2.534V35H97.368V32.817a5.7,5.7,0,0,1-2.183,2.095,6.247,6.247,0,0,1-2.886.645,5.844,5.844,0,0,1-4.541-2.2,8.619,8.619,0,0,1-1.919-5.867,10.127,10.127,0,0,1,1.75-5.94A5.731,5.731,0,0,1,92.593,19.033Zm13.066,11.792a2.171,2.171,0,0,0,.835,1.8,3.1,3.1,0,0,0,1.978.659,6.013,6.013,0,0,0,2.7-.645,3.627,3.627,0,0,0,2.2-3.5V27.017a4.511,4.511,0,0,1-1.245.513,10.61,10.61,0,0,1-1.494.293l-1.6.205a6.107,6.107,0,0,0-2.153.6A2.34,2.34,0,0,0,105.659,30.825Zm6.387-5.332a1.432,1.432,0,0,0,1.216-.762,2.318,2.318,0,0,0,.176-1.011,2.141,2.141,0,0,0-.959-1.956,5.148,5.148,0,0,0-2.747-.608,3.49,3.49,0,0,0-2.93,1.113,3.663,3.663,0,0,0-.63,1.831h-2.461q.073-2.9,1.882-4.036a7.728,7.728,0,0,1,4.2-1.135,8.539,8.539,0,0,1,4.5,1.055A3.578,3.578,0,0,1,116,23.267V32.3a1.157,1.157,0,0,0,.168.659.812.812,0,0,0,.71.249q.176,0,.4-.022t.469-.066v1.948a7.344,7.344,0,0,1-.937.22,6.851,6.851,0,0,1-.879.044,2.169,2.169,0,0,1-1.978-.967,3.731,3.731,0,0,1-.454-1.45,6.708,6.708,0,0,1-2.314,1.831,7.159,7.159,0,0,1-3.325.776A4.945,4.945,0,0,1,104.29,34.2a4.4,4.4,0,0,1-1.384-3.318,4.273,4.273,0,0,1,1.362-3.384,6.482,6.482,0,0,1,3.574-1.479Zm9.946,1.846a7.777,7.777,0,0,0,1.069,4.219,3.747,3.747,0,0,0,3.428,1.7,3.61,3.61,0,0,0,3.01-1.575,7.437,7.437,0,0,0,1.179-4.519,6.682,6.682,0,0,0-1.216-4.4,3.793,3.793,0,0,0-3-1.428,3.964,3.964,0,0,0-3.23,1.523A6.977,6.977,0,0,0,121.992,27.339Zm3.97-8.306a5.582,5.582,0,0,1,3.018.762,7.088,7.088,0,0,1,1.6,1.538V13.408h2.534V35h-2.373V32.817a5.7,5.7,0,0,1-2.183,2.095,6.247,6.247,0,0,1-2.886.645,5.844,5.844,0,0,1-4.541-2.2,8.619,8.619,0,0,1-1.919-5.867,10.127,10.127,0,0,1,1.75-5.94A5.731,5.731,0,0,1,125.962,19.033ZM141.9,13.481h2.227L137.3,35h-2.227ZM154.98,12.9q5.7,0,8.438,3.662a11.868,11.868,0,0,1,2.139,7.31,12.791,12.791,0,0,1-2.446,8.013,10.87,10.87,0,0,1-16,.469,12.39,12.39,0,0,1-2.534-8,12.721,12.721,0,0,1,2.168-7.471A9.392,9.392,0,0,1,154.98,12.9Zm.293,20.127a6.069,6.069,0,0,0,5.574-2.761,11.753,11.753,0,0,0,1.721-6.35,9.058,9.058,0,0,0-1.985-6.108,6.775,6.775,0,0,0-5.427-2.314,7.067,7.067,0,0,0-5.449,2.292q-2.109,2.292-2.109,6.76a9.877,9.877,0,0,0,1.809,6.028Q151.216,33.022,155.273,33.022Zm20.024.205a3.762,3.762,0,0,0,3.069-1.545,7.354,7.354,0,0,0,1.223-4.622,8.627,8.627,0,0,0-.542-3.223,3.971,3.971,0,0,0-7.5.146,10.856,10.856,0,0,0-.542,3.721,7.887,7.887,0,0,0,.542,3.091A3.739,3.739,0,0,0,175.3,33.228Zm-6.826-13.843h2.563v2.08a6.4,6.4,0,0,1,1.729-1.655,5.564,5.564,0,0,1,3.135-.879,5.894,5.894,0,0,1,4.526,2.043,8.372,8.372,0,0,1,1.86,5.837q0,5.127-2.681,7.324a6.057,6.057,0,0,1-3.955,1.392,5.369,5.369,0,0,1-2.974-.776,6.851,6.851,0,0,1-1.567-1.509v8.013h-2.637ZM191.587,33.3a3.636,3.636,0,0,0,3.6-1.985,9.889,9.889,0,0,0,.974-4.417,7.864,7.864,0,0,0-.7-3.574,3.955,3.955,0,0,0-3.838-2.168A3.785,3.785,0,0,0,188.1,23a8.555,8.555,0,0,0-1.1,4.453,7.442,7.442,0,0,0,1.1,4.175A3.869,3.869,0,0,0,191.587,33.3Zm.1-14.443a7.1,7.1,0,0,1,5.127,2.021,7.894,7.894,0,0,1,2.095,5.947,10.2,10.2,0,0,1-1.846,6.27q-1.846,2.476-5.728,2.476a6.466,6.466,0,0,1-5.142-2.19,8.65,8.65,0,0,1-1.9-5.881,9.358,9.358,0,0,1,2.007-6.3A6.735,6.735,0,0,1,191.689,18.857Zm10.43.454h2.5v2.71a5.987,5.987,0,0,1,1.509-1.926A3.912,3.912,0,0,1,208.9,18.96q.073,0,.249.015t.6.059v2.783a3.938,3.938,0,0,0-.432-.059q-.2-.015-.432-.015a3.763,3.763,0,0,0-3.062,1.282,4.474,4.474,0,0,0-1.069,2.952V35h-2.637Zm10.444-4.38h2.666v4.38h2.5v2.153h-2.5V31.7a1.108,1.108,0,0,0,.557,1.1,2.366,2.366,0,0,0,1.025.161q.19,0,.41-.007t.513-.037V35a5.886,5.886,0,0,1-.945.19,8.983,8.983,0,0,1-1.062.059,2.862,2.862,0,0,1-2.5-.945,4.2,4.2,0,0,1-.659-2.454V21.465h-2.124V19.312h2.124Zm10.444,4.38V29.727a4.391,4.391,0,0,0,.381,1.963,2.658,2.658,0,0,0,2.622,1.406,3.706,3.706,0,0,0,3.75-2.461,9.764,9.764,0,0,0,.542-3.618V19.312h2.637V35h-2.49l.029-2.314a5.319,5.319,0,0,1-1.274,1.509,5.608,5.608,0,0,1-3.662,1.23q-3.354,0-4.57-2.241a6.675,6.675,0,0,1-.659-3.208V19.312Zm14.048,0h2.5v2.227a7.026,7.026,0,0,1,2.358-1.978,6.289,6.289,0,0,1,2.769-.6q3.34,0,4.512,2.329a8.27,8.27,0,0,1,.645,3.647V35h-2.681V25.112a5.354,5.354,0,0,0-.425-2.314,2.575,2.575,0,0,0-2.549-1.465,5.19,5.19,0,0,0-1.538.19,3.961,3.961,0,0,0-1.9,1.289,3.881,3.881,0,0,0-.857,1.6,10.8,10.8,0,0,0-.2,2.366V35h-2.637Zm16.685.073h2.681V35H253.74Zm0-5.9h2.681V16.47H253.74Zm8.335,13.857a7.777,7.777,0,0,0,1.069,4.219,3.747,3.747,0,0,0,3.428,1.7,3.61,3.61,0,0,0,3.01-1.575,7.437,7.437,0,0,0,1.179-4.519,6.682,6.682,0,0,0-1.216-4.4,3.793,3.793,0,0,0-3-1.428,3.964,3.964,0,0,0-3.23,1.523A6.977,6.977,0,0,0,262.075,27.339Zm3.97-8.306a5.582,5.582,0,0,1,3.018.762,7.088,7.088,0,0,1,1.6,1.538V13.408h2.534V35H270.82V32.817a5.7,5.7,0,0,1-2.183,2.095,6.247,6.247,0,0,1-2.886.645,5.844,5.844,0,0,1-4.541-2.2,8.619,8.619,0,0,1-1.919-5.867,10.127,10.127,0,0,1,1.75-5.94A5.731,5.731,0,0,1,266.045,19.033Zm13.066,11.792a2.171,2.171,0,0,0,.835,1.8,3.1,3.1,0,0,0,1.978.659,6.013,6.013,0,0,0,2.7-.645,3.627,3.627,0,0,0,2.2-3.5V27.017a4.511,4.511,0,0,1-1.245.513,10.61,10.61,0,0,1-1.494.293l-1.6.205a6.107,6.107,0,0,0-2.153.6A2.34,2.34,0,0,0,279.111,30.825Zm6.387-5.332a1.432,1.432,0,0,0,1.216-.762,2.318,2.318,0,0,0,.176-1.011,2.141,2.141,0,0,0-.959-1.956,5.148,5.148,0,0,0-2.747-.608,3.49,3.49,0,0,0-2.93,1.113,3.663,3.663,0,0,0-.63,1.831h-2.461q.073-2.9,1.882-4.036a7.728,7.728,0,0,1,4.2-1.135,8.539,8.539,0,0,1,4.5,1.055,3.578,3.578,0,0,1,1.714,3.281V32.3a1.157,1.157,0,0,0,.168.659.812.812,0,0,0,.71.249q.176,0,.4-.022t.469-.066v1.948a7.344,7.344,0,0,1-.937.22,6.851,6.851,0,0,1-.879.044,2.169,2.169,0,0,1-1.978-.967,3.731,3.731,0,0,1-.454-1.45,6.708,6.708,0,0,1-2.314,1.831,7.159,7.159,0,0,1-3.325.776,4.945,4.945,0,0,1-3.567-1.326,4.4,4.4,0,0,1-1.384-3.318A4.273,4.273,0,0,1,277.72,27.5a6.482,6.482,0,0,1,3.574-1.479Zm9.946,1.846a7.777,7.777,0,0,0,1.069,4.219,3.747,3.747,0,0,0,3.428,1.7,3.61,3.61,0,0,0,3.01-1.575,7.437,7.437,0,0,0,1.179-4.519,6.682,6.682,0,0,0-1.216-4.4,3.793,3.793,0,0,0-3-1.428,3.964,3.964,0,0,0-3.23,1.523A6.977,6.977,0,0,0,295.444,27.339Zm3.97-8.306a5.582,5.582,0,0,1,3.018.762,7.088,7.088,0,0,1,1.6,1.538V13.408h2.534V35h-2.373V32.817a5.7,5.7,0,0,1-2.183,2.095,6.247,6.247,0,0,1-2.886.645,5.844,5.844,0,0,1-4.541-2.2,8.619,8.619,0,0,1-1.919-5.867,10.127,10.127,0,0,1,1.75-5.94A5.731,5.731,0,0,1,299.414,19.033Zm10.151,22.09a51.714,51.714,0,0,0,3-6.621,23.9,23.9,0,0,0,1.025-7.383,24.111,24.111,0,0,0-1.187-7.749,46.883,46.883,0,0,0-2.886-6.24h1.772q2.256,3.6,2.732,4.446a17.187,17.187,0,0,1,1.033,2.322,18.765,18.765,0,0,1,1,3.618,20.776,20.776,0,0,1,.3,3.442,20.455,20.455,0,0,1-1.377,7.734,42.479,42.479,0,0,1-3.589,6.431Zm12.275-21.606H324.9V22.71h-3.062Zm0,12.29H324.9V35h-3.062Z" transform="translate(1074.563 7252)" fill="#472ea6"/>
  </g>
</svg>
