<svg xmlns="http://www.w3.org/2000/svg" xmlns:xlink="http://www.w3.org/1999/xlink" width="191" height="191" viewBox="0 0 191 191">
  <defs>
    <clipPath id="clip-path">
      <rect id="Rect치ngulo_3527" data-name="Rect치ngulo 3527" width="146.442" height="83.828" fill="none"/>
    </clipPath>
  </defs>
  <g id="Grupo_17667" data-name="Grupo 17667" transform="translate(-422 -7899)">
    <circle id="Elipse_972" data-name="Elipse 972" cx="95.5" cy="95.5" r="95.5" transform="translate(422 7899)" fill="#e8e8e8"/>
    <g id="Grupo_17453" data-name="Grupo 17453" transform="translate(445 7952)">
      <rect id="Rect치ngulo_3526" data-name="Rect치ngulo 3526" width="63.396" height="2.105" transform="translate(117.22 70.885) rotate(-89.544)" fill="#3d4451"/>
      <path id="Trazado_35704" data-name="Trazado 35704" d="M650.719,35.9l23.9,7.992L650.847,49.9Z" transform="translate(-532.091 -29.352)" fill="#f04f4c"/>
      <path id="Trazado_35705" data-name="Trazado 35705" d="M646.824,30.537l18.859,6.307-18.757,4.742Zm-2.08,13.877L673.52,37.14l-28.931-9.677Z" transform="translate(-527.078 -22.456)" fill="#3d4451"/>
      <g id="Grupo_17452" data-name="Grupo 17452">
        <g id="Grupo_17451" data-name="Grupo 17451" clip-path="url(#clip-path)">
          <path id="Trazado_35706" data-name="Trazado 35706" d="M6,404.32H6c0-6.835,5.2-12.375,11.611-12.375H127.255c6.413,0,11.611,5.541,11.611,12.375" transform="translate(-4.906 -320.492)" fill="#c7ddeb"/>
          <path id="Trazado_35707" data-name="Trazado 35707" d="M135.054,399.414h-2.188c0-6.221-4.718-11.281-10.517-11.281H12.705c-5.8,0-10.517,5.061-10.517,11.281H0c0-7.427,5.7-13.469,12.705-13.469H122.349c7.006,0,12.705,6.042,12.705,13.469" transform="translate(0 -315.586)" fill="#3d4451"/>
          <path id="Trazado_35708" data-name="Trazado 35708" d="M495.385,141.871a6.942,6.942,0,1,0-7.292-6.007,7.06,7.06,0,0,0,7.292,6.007" transform="translate(-399.063 -104.663)" fill="#3d4451"/>
          <path id="Trazado_35709" data-name="Trazado 35709" d="M439.46,207.828l-5.212-1.681a3.182,3.182,0,0,1-2.086-4.075l4.622-13.214a3.376,3.376,0,0,1,4.225-2.039,8.439,8.439,0,0,1,5.532,10.805l-2.856,8.165a3.376,3.376,0,0,1-4.225,2.039" transform="translate(-353.233 -152.626)" fill="#3d4451"/>
          <path id="Trazado_35710" data-name="Trazado 35710" d="M470.3,292.94a2.707,2.707,0,0,1-2.705-2.649l-.194-9.159-6.584-4.591a2.707,2.707,0,1,1,3.1-4.441l8.842,6.165.253,11.911a2.707,2.707,0,0,1-2.649,2.763H470.3" transform="translate(-375.861 -222.098)" fill="#3d4451"/>
          <path id="Trazado_35711" data-name="Trazado 35711" d="M375.134,291.887a2.707,2.707,0,0,1-2.228-4.241l7.015-10.2,3.1-7.559a2.707,2.707,0,1,1,5.009,2.052l-3.317,8.1-7.344,10.675a2.7,2.7,0,0,1-2.232,1.173" transform="translate(-304.535 -219.314)" fill="#3d4451"/>
          <path id="Trazado_35712" data-name="Trazado 35712" d="M437.274,147.125a2.228,2.228,0,0,1-.837-.164l-7.3-2.956-2.633-9.387a2.232,2.232,0,0,1,4.3-1.206l2.042,7.277,5.269,2.133a2.233,2.233,0,0,1-.838,4.3" transform="translate(-348.682 -107.759)" fill="#3d4451"/>
          <path id="Trazado_35713" data-name="Trazado 35713" d="M500.821,212.445h25.44v.951a1.543,1.543,0,0,1-1.543,1.543h-2.447l-.008,1.52a2.154,2.154,0,0,1-2.043,1.473h-19.4" transform="translate(-409.52 -173.716)" fill="#3d4451"/>
          <path id="Trazado_35714" data-name="Trazado 35714" d="M260.8,22.209a9.312,9.312,0,0,0,1.573-1.962l2.893.38,1.051-3.755L263.7,15.7a9.35,9.35,0,0,0-.284-2.6l2.233-1.718-1.917-3.409-2.582.981a9.424,9.424,0,0,0-2.111-1.692l.346-2.716-3.762-1.066-1.1,2.477a9.359,9.359,0,0,0-2.716.318l-1.665-2.156-3.4,1.9.985,2.564a9.3,9.3,0,0,0-1.648,2.127l-2.747-.361-1.051,3.755,2.583,1.158a9.378,9.378,0,0,0,.343,2.585L242.938,19.6,244.855,23l2.724-1.035a9.412,9.412,0,0,0,1.994,1.547L249.2,26.43l3.762,1.066,1.2-2.7a9.362,9.362,0,0,0,2.466-.287l1.815,2.351,3.4-1.9Zm-9.642-3.279a4.783,4.783,0,1,1,6.77-.368,4.793,4.793,0,0,1-6.77.368" transform="translate(-198.108 -2.85)" fill="#f04f4c"/>
          <path id="Trazado_35715" data-name="Trazado 35715" d="M250.114,25.282a.635.635,0,0,1-.174-.024l-3.762-1.066a.635.635,0,0,1-.457-.692l.319-2.505a10.04,10.04,0,0,1-1.465-1.138l-2.345.891a.636.636,0,0,1-.78-.283l-1.917-3.409a.636.636,0,0,1,.166-.815l1.931-1.486a10.023,10.023,0,0,1-.253-1.923l-2.213-.992a.636.636,0,0,1-.352-.751l1.051-3.755a.636.636,0,0,1,.695-.459l2.332.307a9.916,9.916,0,0,1,1.239-1.6l-.837-2.18a.635.635,0,0,1,.283-.783l3.4-1.9a.636.636,0,0,1,.813.166L249.2,2.714a9.988,9.988,0,0,1,2.055-.24l.934-2.1a.636.636,0,0,1,.754-.353l3.762,1.066a.635.635,0,0,1,.457.692l-.294,2.31a10.048,10.048,0,0,1,1.593,1.275l2.193-.833a.635.635,0,0,1,.78.282l1.917,3.409a.635.635,0,0,1-.166.815l-1.909,1.469a10.006,10.006,0,0,1,.212,1.931l2.232,1a.636.636,0,0,1,.352.751l-1.051,3.755a.636.636,0,0,1-.695.459l-2.489-.327a9.93,9.93,0,0,1-1.152,1.438l.907,2.361a.635.635,0,0,1-.283.783l-3.4,1.9a.635.635,0,0,1-.813-.166l-1.566-2.028a10.006,10.006,0,0,1-1.8.21L250.695,24.9a.636.636,0,0,1-.58.377m-3.063-2.164,2.706.767.98-2.2a.636.636,0,0,1,.581-.377h.011a8.671,8.671,0,0,0,2.3-.268.636.636,0,0,1,.66.228l1.481,1.917,2.444-1.365-.858-2.233a.635.635,0,0,1,.155-.689,8.673,8.673,0,0,0,1.465-1.828.635.635,0,0,1,.628-.3l2.346.308.755-2.7-2.112-.947a.635.635,0,0,1-.375-.6,8.716,8.716,0,0,0-.265-2.419.636.636,0,0,1,.228-.66l1.8-1.382L260.6,5.917l-2.071.787a.636.636,0,0,1-.69-.16,8.785,8.785,0,0,0-1.969-1.578.636.636,0,0,1-.308-.628l.277-2.173L253.129,1.4l-.88,1.975a.646.646,0,0,1-.6.376,8.735,8.735,0,0,0-2.531.3.635.635,0,0,1-.668-.225L247.12,2.1l-2.444,1.365.788,2.049a.635.635,0,0,1-.152.686,8.665,8.665,0,0,0-1.535,1.982.634.634,0,0,1-.636.318l-2.2-.289-.755,2.7,2.083.934a.635.635,0,0,1,.376.585,8.749,8.749,0,0,0,.319,2.41.635.635,0,0,1-.225.674l-1.827,1.405,1.379,2.453,2.213-.841a.635.635,0,0,1,.679.149,8.779,8.779,0,0,0,1.86,1.443.636.636,0,0,1,.312.63Zm4.456-5.18a5.45,5.45,0,0,1-5.439-5.127,5.371,5.371,0,0,1,1.363-3.92,5.444,5.444,0,0,1,9.479,3.325,5.4,5.4,0,0,1-5.4,5.723m-2.781-2.331a4.164,4.164,0,0,0,5.872-.318,4.109,4.109,0,0,0,1.043-3,4.173,4.173,0,0,0-7.262-2.553,4.157,4.157,0,0,0,.347,5.869" transform="translate(-195.257 0)" fill="#3d4451"/>
          <path id="Trazado_35716" data-name="Trazado 35716" d="M388.412,65.7a7.276,7.276,0,0,0-1.919-.375l-.779-2.118-2.968.624.132,2.209a7.305,7.305,0,0,0-1.688,1.124l-1.988-.914-1.662,2.534,1.606,1.418a7.254,7.254,0,0,0-.407,2.052l-2,.735.618,2.959,2.106-.131a7.232,7.232,0,0,0,1.2,1.747l-.888,1.913,2.535,1.651,1.414-1.593a7.276,7.276,0,0,0,2.06.367l.739,2.011,2.968-.624-.13-2.184a7.3,7.3,0,0,0,1.66-1.16l2.015.927L394.7,76.34,393,74.845a7.257,7.257,0,0,0,.35-1.92l2.144-.789-.618-2.959-2.3.142a7.228,7.228,0,0,0-1.085-1.586l.968-2.085L389.928,64Zm1.208,7.779a3.719,3.719,0,1,1-2.69-4.506,3.733,3.733,0,0,1,2.69,4.506" transform="translate(-308.061 -51.687)" fill="#7eb9c7"/>
          <path id="Trazado_35717" data-name="Trazado 35717" d="M384.134,80.059a.533.533,0,0,1-.5-.349l-.619-1.683a7.8,7.8,0,0,1-1.51-.27l-1.187,1.337a.532.532,0,0,1-.689.093L377.1,77.537a.532.532,0,0,1-.193-.67l.741-1.6a7.743,7.743,0,0,1-.88-1.286l-1.76.109a.534.534,0,0,1-.554-.422l-.618-2.959a.532.532,0,0,1,.337-.608l1.676-.617a7.791,7.791,0,0,1,.3-1.5L374.8,66.8a.532.532,0,0,1-.093-.691l1.662-2.534a.533.533,0,0,1,.668-.192l1.68.773a7.828,7.828,0,0,1,1.221-.814l-.111-1.861a.533.533,0,0,1,.422-.553l2.968-.624a.532.532,0,0,1,.609.337l.661,1.8a7.827,7.827,0,0,1,1.368.267l1.286-1.449a.532.532,0,0,1,.689-.093l2.535,1.651a.532.532,0,0,1,.193.67l-.824,1.774a7.761,7.761,0,0,1,.767,1.121l1.956-.121a.531.531,0,0,1,.554.422l.618,2.959a.532.532,0,0,1-.337.608l-1.82.67a7.773,7.773,0,0,1-.249,1.366l1.439,1.27a.532.532,0,0,1,.093.691l-1.662,2.534a.533.533,0,0,1-.668.192l-1.7-.782a7.834,7.834,0,0,1-1.2.839l.11,1.845a.533.533,0,0,1-.422.553l-2.968.624a.529.529,0,0,1-.11.012m-2.8-3.443a.534.534,0,0,1,.168.027,6.737,6.737,0,0,0,1.909.341.533.533,0,0,1,.483.348l.58,1.579,2.068-.435-.1-1.726a.532.532,0,0,1,.29-.506,6.76,6.76,0,0,0,1.539-1.076.532.532,0,0,1,.585-.094l1.6.735,1.157-1.765-1.348-1.19a.532.532,0,0,1-.154-.564,6.727,6.727,0,0,0,.324-1.779.533.533,0,0,1,.348-.476l1.712-.63-.43-2.058-1.838.114a.534.534,0,0,1-.508-.292,6.694,6.694,0,0,0-1.005-1.469.532.532,0,0,1-.087-.58l.774-1.667L387.633,62.3l-1.211,1.364a.533.533,0,0,1-.569.151,6.745,6.745,0,0,0-1.779-.347.532.532,0,0,1-.469-.348l-.62-1.686-2.068.435.1,1.751a.532.532,0,0,1-.3.511,6.761,6.761,0,0,0-1.565,1.042.532.532,0,0,1-.576.086l-1.572-.723L375.851,66.3l1.26,1.112a.532.532,0,0,1,.149.577,6.723,6.723,0,0,0-.377,1.9.533.533,0,0,1-.348.473l-1.567.577L375.4,73l1.646-.1a.53.53,0,0,1,.511.3,6.7,6.7,0,0,0,1.108,1.618.532.532,0,0,1,.092.586l-.693,1.494,1.764,1.149,1.11-1.25a.532.532,0,0,1,.4-.179m2.279-2.183a4.252,4.252,0,1,1,4.134-3.209,4.243,4.243,0,0,1-4.134,3.209m.021-7.426a3.205,3.205,0,0,0-3.1,2.407,3.169,3.169,0,0,0,2.3,3.858,3.2,3.2,0,0,0,3.878-2.311,3.169,3.169,0,0,0-2.3-3.858,3.2,3.2,0,0,0-.778-.1" transform="translate(-305.673 -49.298)" fill="#3d4451"/>
          <path id="Trazado_35718" data-name="Trazado 35718" d="M281.019,157.8a12.149,12.149,0,0,0-.193-3.278l3.137-2.161L281.7,147.8l-3.556,1.149a12.241,12.241,0,0,0-2.546-2.268l.661-3.618-4.841-1.629-1.644,3.21a12.309,12.309,0,0,0-3.526.206l-2.041-2.935-4.579,2.256,1.1,3.367a12.223,12.223,0,0,0-2.355,2.684l-3.5-.634-1.636,4.819,3.2,1.624a12.142,12.142,0,0,0,.264,3.5l-2.978,2.052,2.266,4.559,3.517-1.136a12.243,12.243,0,0,0,2.594,2.207l-.67,3.666,4.841,1.629L268,169.124a12.312,12.312,0,0,0,3.287-.244l2.19,3.15,4.579-2.257-1.2-3.673a12.212,12.212,0,0,0,2.139-2.435l3.816.691,1.636-4.819ZM268.8,163.051a6.245,6.245,0,1,1,6.24-6.278,6.259,6.259,0,0,1-6.24,6.278" transform="translate(-207.066 -115.649)" fill="#fdc345"/>
          <path id="Trazado_35719" data-name="Trazado 35719" d="M262.817,169.835a.771.771,0,0,1-.245-.04l-4.841-1.629a.768.768,0,0,1-.511-.866l.579-3.168a13.017,13.017,0,0,1-1.978-1.685l-3.05.985a.768.768,0,0,1-.924-.389l-2.266-4.559a.768.768,0,0,1,.252-.974l2.561-1.765a12.909,12.909,0,0,1-.2-2.7l-2.753-1.4a.768.768,0,0,1-.38-.932l1.635-4.819a.77.77,0,0,1,.864-.509l3.007.545a12.981,12.981,0,0,1,1.824-2.08l-.941-2.889a.768.768,0,0,1,.391-.927l4.579-2.256a.768.768,0,0,1,.97.25l1.758,2.529a13.1,13.1,0,0,1,2.725-.16l1.414-2.761a.769.769,0,0,1,.928-.378l4.841,1.628a.768.768,0,0,1,.51.866l-.572,3.132a13.02,13.02,0,0,1,1.944,1.73l3.078-.994a.768.768,0,0,1,.924.389l2.266,4.559a.768.768,0,0,1-.252.974l-2.731,1.882a12.941,12.941,0,0,1,.146,2.468l2.98,1.513a.768.768,0,0,1,.38.931l-1.636,4.819a.768.768,0,0,1-.864.509l-3.331-.6a12.977,12.977,0,0,1-1.6,1.826l1.043,3.2a.768.768,0,0,1-.391.927l-4.579,2.257a.768.768,0,0,1-.97-.25l-1.905-2.74a12.984,12.984,0,0,1-2.481.184l-1.511,2.949a.768.768,0,0,1-.683.418m-3.965-2.912,3.584,1.206,1.433-2.8a.765.765,0,0,1,.729-.416,11.533,11.533,0,0,0,3.082-.229.768.768,0,0,1,.79.313l1.813,2.607,3.39-1.67-.991-3.041a.768.768,0,0,1,.225-.817,11.451,11.451,0,0,0,2-2.282.769.769,0,0,1,.776-.33l3.165.574,1.209-3.563-2.834-1.439a.768.768,0,0,1-.418-.744,11.382,11.382,0,0,0-.18-3.071.769.769,0,0,1,.318-.781l2.589-1.783-1.676-3.371-2.927.945a.767.767,0,0,1-.822-.234,11.477,11.477,0,0,0-2.386-2.125.767.767,0,0,1-.33-.777l.542-2.964-3.584-1.206-1.343,2.621a.764.764,0,0,1-.749.415,11.517,11.517,0,0,0-3.306.194.769.769,0,0,1-.785-.314l-1.663-2.393-3.39,1.67.891,2.735a.768.768,0,0,1-.233.823,11.442,11.442,0,0,0-2.207,2.515.769.769,0,0,1-.782.339l-2.849-.516-1.209,3.563,2.6,1.323a.768.768,0,0,1,.418.739,11.366,11.366,0,0,0,.247,3.282.768.768,0,0,1-.314.8l-2.43,1.674,1.675,3.371,2.888-.933a.768.768,0,0,1,.81.221,11.488,11.488,0,0,0,2.431,2.068.767.767,0,0,1,.344.786Zm6.474-6.547a7.035,7.035,0,0,1-7.04-6.976,7.027,7.027,0,0,1,7-7.05h.038a7.035,7.035,0,0,1,7.04,6.976,7.027,7.027,0,0,1-7,7.05l0-.768,0,.768Zm0-12.49h-.03a5.482,5.482,0,0,0-3.885,1.626,5.427,5.427,0,0,0-1.59,3.88,5.5,5.5,0,0,0,5.5,5.448h.029a5.477,5.477,0,1,0-.028-10.954" transform="translate(-203.621 -112.205)" fill="#3d4451"/>
          <path id="Trazado_35720" data-name="Trazado 35720" d="M188.77,118.3a6.8,6.8,0,1,0-6.655-6.427,6.913,6.913,0,0,0,6.655,6.427" transform="translate(-148.907 -85.629)" fill="#3d4451"/>
          <path id="Trazado_35721" data-name="Trazado 35721" d="M175.443,200.2l-5.325-.63a3.117,3.117,0,0,1-2.775-3.521l1.943-13.57a3.306,3.306,0,0,1,3.674-2.758,8.264,8.264,0,0,1,7.358,9.336l-1.2,8.385a3.306,3.306,0,0,1-3.674,2.758" transform="translate(-136.81 -146.942)" fill="#3d4451"/>
          <path id="Trazado_35722" data-name="Trazado 35722" d="M207.471,288.7a2.651,2.651,0,0,1-2.631-2.36l-1.215-11-6.281-5.161a2.651,2.651,0,1,1,3.365-4.1l7.948,6.531,1.451,13.147a2.653,2.653,0,0,1-2.638,2.942" transform="translate(-160.576 -217.081)" fill="#3d4451"/>
          <path id="Trazado_35723" data-name="Trazado 35723" d="M126.139,284.776a2.651,2.651,0,0,1-2.368-3.836l5.893-11.786,2.05-7.4a2.651,2.651,0,0,1,5.109,1.416l-2.188,7.891-6.123,12.245a2.65,2.65,0,0,1-2.373,1.466" transform="translate(-100.977 -212.45)" fill="#3d4451"/>
          <path id="Trazado_35724" data-name="Trazado 35724" d="M208.921,208.086l-8.8-5.922a2.186,2.186,0,0,1,2.44-3.627l7.478,5.031,5.745-.621a2.186,2.186,0,1,1,.47,4.346Z" transform="translate(-162.847 -162.038)" fill="#3d4451"/>
        </g>
      </g>
    </g>
  </g>
</svg>
