<svg xmlns="http://www.w3.org/2000/svg" xmlns:xlink="http://www.w3.org/1999/xlink" width="191" height="191" viewBox="0 0 191 191">
  <defs>
    <clipPath id="clip-path">
      <rect id="Rectángulo_3509" data-name="Rectángulo 3509" width="121.102" height="124.63" fill="none"/>
    </clipPath>
  </defs>
  <g id="Grupo_17661" data-name="Grupo 17661" transform="translate(-422 -6626)">
    <circle id="Elipse_966" data-name="Elipse 966" cx="95.5" cy="95.5" r="95.5" transform="translate(422 6626)" fill="#e8e8e8"/>
    <g id="Grupo_17440" data-name="Grupo 17440" transform="translate(459 6656)">
      <g id="Grupo_17439" data-name="Grupo 17439" clip-path="url(#clip-path)">
        <path id="Trazado_35554" data-name="Trazado 35554" d="M124.07,262.772l.19,27.4c.007,1.046,1.445,1.887,3.211,1.879l19.118-.085c10.7-.047,21.4-.12,32.093-.137l3.114-.005a2.844,2.844,0,0,0,2.385-.793,5.28,5.28,0,0,0,.7-3.217q.054-10.958.109-21.916.028-6.05.09-12.1c.007-.822-.077-1.836-.668-2.153a1.316,1.316,0,0,0-1.191.175c-3.265,1.615-6.536,3.183-9.821,4.726l-11.458,5.387c-3.386,1.592-6.766,3.69-10.438,3.695l-3.419,0" transform="translate(-88.246 -178.922)" fill="#c7ddeb"/>
        <path id="Trazado_35555" data-name="Trazado 35555" d="M151.649,300.832H92.605c-2.684,0-4.868-1.87-4.868-4.169V258.056a1.388,1.388,0,1,1,2.775,0v38.608c0,.742.978,1.393,2.093,1.393h59.044c1.115,0,2.093-.651,2.093-1.393V257.172a1.388,1.388,0,1,1,2.775,0v39.492c0,2.3-2.184,4.169-4.868,4.169" transform="translate(-62.404 -181.928)" fill="#3d4451"/>
        <path id="Trazado_35556" data-name="Trazado 35556" d="M170.636,316.981H123.848a1.388,1.388,0,1,1,0-2.775h46.789a1.388,1.388,0,1,1,0,2.775" transform="translate(-87.101 -223.481)" fill="#3d4451"/>
        <path id="Trazado_35557" data-name="Trazado 35557" d="M151.48,350.7H123.848a1.388,1.388,0,0,1,0-2.775H151.48a1.388,1.388,0,1,1,0,2.775" transform="translate(-87.101 -247.465)" fill="#3d4451"/>
        <path id="Trazado_35558" data-name="Trazado 35558" d="M101.918,98.347s-24.379-20.138-19.265-37.1,25.086-28.184,40.675-11.819c0,0,13.421-14.591,31,1.243S151.7,85.32,151.7,85.32s1.374,9.668-2.939,15-27.147,17.825-46.839-1.974" transform="translate(-58.285 -29.48)" fill="#c7ddeb"/>
        <path id="Trazado_35559" data-name="Trazado 35559" d="M250.5,99.74s2.457,15.841-3.984,15.357c-14.563-1.094-21.582-13.533-21.582-13.533s16.034,7.521,25.566-1.825" transform="translate(-159.987 -70.941)" fill="#7eb9c7"/>
        <path id="Trazado_35560" data-name="Trazado 35560" d="M248.278,136.68a15.933,15.933,0,0,1-2.556-.212,54.974,54.974,0,0,1-10.358-3.191l-.763-.291a79.886,79.886,0,0,1-11.547-5.513,1.769,1.769,0,0,1,1.772-3.061,76.3,76.3,0,0,0,11.034,5.269l.767.293a51.5,51.5,0,0,0,9.664,3,9.373,9.373,0,0,0,6.174-.866,7.625,7.625,0,0,0,3.29-5.128,6.678,6.678,0,0,0-1.047-5.377,9.329,9.329,0,0,0-3.776-2.436c-2.773-1.173-5.709-2.145-8.549-3.086-2.74-.907-5.572-1.845-8.319-2.979a48.833,48.833,0,0,1-9.531-4.987,21.544,21.544,0,0,1-7.363-8.449,1.768,1.768,0,0,1,3.2-1.507c2.807,5.962,8.889,9.134,15.043,11.673,2.629,1.085,5.4,2,8.081,2.89,2.906.962,5.911,1.957,8.815,3.186a12.406,12.406,0,0,1,5.181,3.511,10.191,10.191,0,0,1,1.739,8.221,11.084,11.084,0,0,1-4.976,7.52,11.734,11.734,0,0,1-5.975,1.517" transform="translate(-154.344 -69.097)" fill="#3d4451"/>
        <path id="Trazado_35561" data-name="Trazado 35561" d="M233.951,264.134a10.679,10.679,0,0,1-3.722-.906,1.474,1.474,0,0,1,1.179-2.7,7.219,7.219,0,0,0,2.687.653c.757-.132,2.921-1.993,3.069-2.78l-.221-2.575,2.142,1.078c.356.035,2.764.085,7.272-4.309a1.474,1.474,0,1,1,2.057,2.111c-4.1,3.992-7,4.986-8.671,5.137-1.011,2.1-3.847,4.111-5.336,4.269a4.292,4.292,0,0,1-.455.023" transform="translate(-163.123 -179.361)" fill="#3d4451"/>
        <path id="Trazado_35562" data-name="Trazado 35562" d="M60.888,76.717C50.316,71.281,37.365,60.208,32.723,45.431a35.7,35.7,0,0,1,2.763-28.318A33.1,33.1,0,0,1,59.666.326a26.875,26.875,0,0,1,23.65,7.684l-2.522,2.48A23.423,23.423,0,0,0,60.178,3.827,29.5,29.5,0,0,0,38.612,18.77a32.274,32.274,0,0,0-2.514,25.6c4.316,13.737,16.471,24.091,26.408,29.2Z" transform="translate(-22.04 0.001)" fill="#3d4451"/>
        <path id="Trazado_35563" data-name="Trazado 35563" d="M244.964,234.315l-.225,0c-6.942-.163-18.96-6.831-19.468-7.115A1.769,1.769,0,0,1,227,224.109c.117.065,11.758,6.525,17.826,6.667,4.84.122,5.3-6.28,5.321-6.552a1.769,1.769,0,1,1,3.53.23c-.223,3.437-2.334,9.861-8.708,9.861" transform="translate(-159.581 -158.304)" fill="#3d4451"/>
        <path id="Trazado_35564" data-name="Trazado 35564" d="M246.249,266.5a1.464,1.464,0,0,1-.614-.135l-4.8-2.206a1.474,1.474,0,1,1,1.23-2.678l4.8,2.206a1.474,1.474,0,0,1-.616,2.813" transform="translate(-170.683 -185.884)" fill="#3d4451"/>
        <path id="Trazado_35565" data-name="Trazado 35565" d="M102.309,249.447a7.619,7.619,0,0,1-6.076-11.42l2.987,1.894-1.494-.947,1.5.934a3.719,3.719,0,0,0,.422,4.512c.724.755,1.816,1.622,2.918,1.471.93-.128,1.883-1.028,2.685-2.533l3.122,1.663c-1.728,3.246-3.848,4.17-5.322,4.374a5.372,5.372,0,0,1-.744.051" transform="translate(-67.651 -169.298)" fill="#3d4451"/>
        <path id="Trazado_35566" data-name="Trazado 35566" d="M134.154,246.137a6.658,6.658,0,0,1-3.022-.7,6.289,6.289,0,0,1-3.131-3.89,7.464,7.464,0,0,1,.633-4.946l.1-.264c1.243-3.222,2.844-6.807,6.128-8.58a6.6,6.6,0,0,1,5.452-.338A6.17,6.17,0,0,1,144,231.054c1.6,4.271-2.048,9.456-3.2,10.944a11.531,11.531,0,0,1-3.846,3.539,6.633,6.633,0,0,1-2.8.6m-2.117-8.53-.107.274a4.34,4.34,0,0,0-.517,2.733,2.735,2.735,0,0,0,1.334,1.674,3.261,3.261,0,0,0,2.7.046A9.5,9.5,0,0,0,138,239.826c1.85-2.379,3.4-5.63,2.685-7.531a2.705,2.705,0,0,0-1.614-1.566,3.1,3.1,0,0,0-2.531.138c-2.224,1.2-3.493,4.108-4.508,6.74" transform="translate(-90.897 -161.443)" fill="#3d4451"/>
        <path id="Trazado_35567" data-name="Trazado 35567" d="M198.53,54.332a1.769,1.769,0,0,1-1.393-2.857,29.09,29.09,0,0,0,4.383-27.4A27.45,27.45,0,0,0,182.593,5.989a27.978,27.978,0,0,0-18.487,1.7c-13.418,6.118-22.432,18.763-25.38,35.6a4.892,4.892,0,0,0-.019,2.472.725.725,0,0,0,.552.434,6.611,6.611,0,0,0,4.383-1.008c1.725-1.173,3.109-3.345,4.116-6.455,1.577-4.876,4.012-8.017,7.236-9.336a10.341,10.341,0,0,1,8.418.554l.01-.015.151.1q.053.035.1.072c1.285.851,8.143,5.1,14.584,3.358,3.886-1.049,7.007-4.139,9.276-9.187a1.768,1.768,0,1,1,3.226,1.451c-2.73,6.07-6.633,9.824-11.6,11.156-7.9,2.12-15.742-2.695-17.439-3.829a6.723,6.723,0,0,0-5.388-.388c-2.215.906-3.968,3.312-5.21,7.151-1.254,3.876-3.1,6.666-5.492,8.291-1.442.981-4.715,2.25-7.361,1.479a4.236,4.236,0,0,1-2.811-2.431,7.718,7.718,0,0,1-.216-4.482,56.765,56.765,0,0,1,9.017-22.724,44.652,44.652,0,0,1,18.38-15.488,31.523,31.523,0,0,1,20.833-1.908,30.974,30.974,0,0,1,21.4,20.366,32.615,32.615,0,0,1-4.944,30.723,1.765,1.765,0,0,1-1.395.68M162.648,29.775a1.777,1.777,0,0,0-1.526.877l1.277.753,1.013-1.449a1.687,1.687,0,0,0-.763-.181" transform="translate(-96.029 -1.14)" fill="#3d4451"/>
        <path id="Trazado_35568" data-name="Trazado 35568" d="M200.036,269.514a5.115,5.115,0,0,1-3.351-1.227,5.646,5.646,0,0,1-1.9-5.646,45.6,45.6,0,0,1,1.871-5.341,8.881,8.881,0,0,1,2.246-3.455,4.534,4.534,0,0,1,3.828-1,5.731,5.731,0,0,1,3.9,2.815c1.141,2.071.77,4.213.443,6.1q-.025.142-.048.28.089-.067.182-.134l1.719,2.394a12.691,12.691,0,0,0-1.6,1.43,14.464,14.464,0,0,1-2.084,1.817,9.281,9.281,0,0,1-5.2,1.959m1.8-13.8a1.524,1.524,0,0,0-1.019.372,6.429,6.429,0,0,0-1.446,2.361,42.6,42.6,0,0,0-1.749,4.994,2.739,2.739,0,0,0,.958,2.586c1.107.927,2.781.625,4.976-.9a11.893,11.893,0,0,0,1.676-1.476c.233-.233.469-.469.722-.707l-2.015-.253c.061-.483.144-.965.225-1.43.28-1.617.522-3.013-.12-4.178a2.751,2.751,0,0,0-1.841-1.337,2.039,2.039,0,0,0-.366-.035" transform="translate(-138.418 -179.783)" fill="#3d4451"/>
        <path id="Trazado_35569" data-name="Trazado 35569" d="M166.62,254.642a8.1,8.1,0,0,1-.847-.044,6.1,6.1,0,0,1-4.019-1.945c-1.791-2.063-.944-4.5-.606-5.445.01-.031.028-.087.053-.164l2.8.925-.067.2c-.525,1.47-.372,2.065.047,2.546a3.292,3.292,0,0,0,2.1.946c1.451.154,3.425-.331,4.217-1.407a14.424,14.424,0,0,0,2.009-5c.338-1.4,1.131-4.665-.213-5.684a2.744,2.744,0,0,0-2.054-.693,4.93,4.93,0,0,0-2.852,2.244l-2.384-1.734c1.469-2.02,3.086-3.172,4.806-3.426a5.586,5.586,0,0,1,4.266,1.26c2.882,2.186,1.811,6.6,1.3,8.727a16.952,16.952,0,0,1-2.5,6.051,7.625,7.625,0,0,1-6.054,2.635" transform="translate(-114.264 -167.796)" fill="#3d4451"/>
        <path id="Trazado_35570" data-name="Trazado 35570" d="M182.944,109.285a.811.811,0,0,1-.123-.01.8.8,0,0,1-.671-.915,7.117,7.117,0,0,0-.838-4.993.8.8,0,0,1,1.3-.943,8.687,8.687,0,0,1,1.125,6.181.8.8,0,0,1-.792.68" transform="translate(-128.851 -72.614)" fill="#3d4451"/>
        <path id="Trazado_35571" data-name="Trazado 35571" d="M256.388,368.58v15.026l5.548-5.739,5.346,6.157V369.247" transform="translate(-182.358 -262.155)" fill="#f04f4c"/>
        <path id="Trazado_35572" data-name="Trazado 35572" d="M265.773,386.785l-6.418-7.392-6.539,6.764V368.58h2.063v12.475l4.557-4.714,4.274,4.922V369.247h2.063Z" transform="translate(-179.817 -262.155)" fill="#3d4451"/>
        <path id="Trazado_35573" data-name="Trazado 35573" d="M253.569,343.038a6.261,6.261,0,1,1,6.261,6.261,6.261,6.261,0,0,1-6.261-6.261" transform="translate(-180.353 -239.535)" fill="#fdc345"/>
        <path id="Trazado_35574" data-name="Trazado 35574" d="M256.926,347.575a7.44,7.44,0,1,1,7.44-7.44,7.448,7.448,0,0,1-7.44,7.44m0-12.522a5.082,5.082,0,1,0,5.082,5.082,5.088,5.088,0,0,0-5.082-5.082" transform="translate(-177.449 -236.632)" fill="#3d4451"/>
        <path id="Trazado_35575" data-name="Trazado 35575" d="M367.646,278.805v9.351h4.761V302.4c-3.244.229-4.813,4.116-4.813,4.116h10.568V288.042h4.394V274.276a9.7,9.7,0,0,0-4.447-7.89" transform="translate(-261.454 -189.469)" fill="#3d4451"/>
        <path id="Trazado_35576" data-name="Trazado 35576" d="M361.729,231.566a6.554,6.554,0,1,1,6.207-6.2,6.554,6.554,0,0,1-6.207,6.2" transform="translate(-252.381 -155.386)" fill="#3d4451"/>
        <path id="Trazado_35577" data-name="Trazado 35577" d="M367.189,260.306v15.925h4.761v14.247c-3.244.229-4.813,4.116-4.813,4.116H377.7V276.117H382.1V262.35c0-5.26-9.287-12.73-9.287-12.73l-5.86,3.357" transform="translate(-260.997 -177.544)" fill="#3d4451"/>
        <path id="Trazado_35578" data-name="Trazado 35578" d="M336.564,253.294l-10.773,10.773a2.235,2.235,0,0,1-1.607.654l-.923-.011a2.235,2.235,0,1,0-.027,4.469H327.5a2.235,2.235,0,0,0,1.58-.655l5.65-5.65" transform="translate(-228.314 -180.157)" fill="#3d4451"/>
        <path id="Trazado_35579" data-name="Trazado 35579" d="M14.91,278.805v9.351H10.149V302.4c3.244.229,4.813,4.116,4.813,4.116H4.394V288.042H0V274.276a9.7,9.7,0,0,1,4.447-7.89" transform="translate(0 -189.469)" fill="#3d4451"/>
        <path id="Trazado_35580" data-name="Trazado 35580" d="M25.4,231.566a6.554,6.554,0,1,0-6.207-6.2,6.554,6.554,0,0,0,6.207,6.2" transform="translate(-13.643 -155.386)" fill="#3d4451"/>
        <path id="Trazado_35581" data-name="Trazado 35581" d="M14.91,260.306v15.925H10.149v14.247c3.244.229,4.813,4.116,4.813,4.116H4.394V276.117H0V262.35c0-5.26,9.287-12.73,9.287-12.73l5.86,3.357" transform="translate(0 -177.544)" fill="#3d4451"/>
        <path id="Trazado_35582" data-name="Trazado 35582" d="M44.51,253.294l10.773,10.773a2.234,2.234,0,0,0,1.607.654l.923-.011a2.235,2.235,0,1,1,.027,4.469H53.578a2.235,2.235,0,0,1-1.58-.655l-5.65-5.65" transform="translate(-31.658 -180.157)" fill="#3d4451"/>
      </g>
    </g>
  </g>
</svg>
