<svg xmlns="http://www.w3.org/2000/svg" xmlns:xlink="http://www.w3.org/1999/xlink" width="191" height="191" viewBox="0 0 191 191">
  <defs>
    <clipPath id="clip-path">
      <rect id="Rectángulo_3529" data-name="Rectángulo 3529" width="96.672" height="119.65" fill="none"/>
    </clipPath>
  </defs>
  <g id="Grupo_17662" data-name="Grupo 17662" transform="translate(-422 -6833)">
    <circle id="Elipse_967" data-name="Elipse 967" cx="95.5" cy="95.5" r="95.5" transform="translate(422 6833)" fill="#e8e8e8"/>
    <g id="Grupo_17456" data-name="Grupo 17456" transform="translate(476 6869)">
      <g id="Grupo_17455" data-name="Grupo 17455" clip-path="url(#clip-path)">
        <path id="Trazado_35725" data-name="Trazado 35725" d="M122.872,38.129a37.356,37.356,0,0,1,4.871-5.331,19.5,19.5,0,0,1,2.773-1.983,15.032,15.032,0,0,0-29.988,1.136,14.387,14.387,0,0,0,1.625,6.65,60.521,60.521,0,0,1,9.086,7.435,15.3,15.3,0,0,0,6.736.422c.479-3.13,3.038-5.948,4.9-8.329" transform="translate(-74.013 -12.699)" fill="#fdc345"/>
        <path id="Trazado_35726" data-name="Trazado 35726" d="M127.685,363.895c2.841-.005,4.945-3.236,4.349-6.655-2.483-14.244-12.8-24.713-25.177-24.713h-10.7c-12.371,0-22.689,10.547-25.175,24.808-.6,3.425,1.516,6.658,4.362,6.653Z" transform="translate(-52.187 -244.823)" fill="#7eb9c7"/>
        <path id="Trazado_35727" data-name="Trazado 35727" d="M45.984,153.523S16.269,166.615,5.847,128.107c0,0,45.169-1.83,40.137,25.415" transform="translate(-4.305 -94.3)" fill="#6b968b"/>
        <path id="Trazado_35728" data-name="Trazado 35728" d="M170.809,129.319s-6.759-37.3,51.445-33.979c0,0-16.355,49.682-51.445,33.979" transform="translate(-125.581 -70.04)" fill="#6b968b"/>
        <path id="Trazado_35729" data-name="Trazado 35729" d="M178.812,105.42a33.943,33.943,0,0,1-11.009-1.941l-.652-.223-.166-.668a28.556,28.556,0,0,1,5.121-22.636c7.734-10.285,22.579-15.911,44.12-16.722l1.7-.064-.426,1.645a83.937,83.937,0,0,1-5.782,14.882C205.042,93.067,197.453,99.205,192.262,102a28.014,28.014,0,0,1-13.45,3.421m-9.5-4.106c7.852,2.521,15.168,2,21.754-1.542,14.469-7.787,21.658-28,23.5-33.937-19.789,1.008-33.388,6.265-40.435,15.637a26.43,26.43,0,0,0-4.819,19.842" transform="translate(-122.537 -46.506)" fill="#3d4451"/>
        <path id="Trazado_35730" data-name="Trazado 35730" d="M34.164,124.011a30.9,30.9,0,0,1-16.514-4.616C8.82,113.847,2.986,103.676.311,89.163L0,87.474l1.7.2a91.231,91.231,0,0,1,15.229,3.447c11.013,3.5,18.668,8.34,22.754,14.379,3.34,4.937,4.188,10.591,2.519,16.806l-.188.7-.7.191a29.31,29.31,0,0,1-7.154.808m6.821-2.028h0ZM3.139,90.445c2.67,12.858,8,21.872,15.856,26.808,8.848,5.558,18.332,4.2,20.952,3.668a17.077,17.077,0,0,0-2.355-14C29.9,95.554,9.264,91.437,3.139,90.445" transform="translate(0 -64.403)" fill="#3d4451"/>
        <path id="Trazado_35731" data-name="Trazado 35731" d="M162.534,225.18a1.581,1.581,0,0,1-1.581-1.581V191.741a1.581,1.581,0,0,1,3.162,0V223.6a1.581,1.581,0,0,1-1.581,1.581" transform="translate(-118.502 -140.005)" fill="#3d4451"/>
        <path id="Trazado_35732" data-name="Trazado 35732" d="M172.637,143.278a1.265,1.265,0,0,1-.75-2.284l29.945-21.985a1.265,1.265,0,1,1,1.5,2.039l-29.945,21.985a1.257,1.257,0,0,1-.747.246" transform="translate(-126.172 -87.44)" fill="#3d4451"/>
        <path id="Trazado_35733" data-name="Trazado 35733" d="M79.653,153.717a1.258,1.258,0,0,1-.767-.26L49.38,130.888a1.265,1.265,0,1,1,1.537-2.009l29.506,22.569a1.265,1.265,0,0,1-.769,2.269" transform="translate(-35.99 -94.695)" fill="#3d4451"/>
        <path id="Trazado_35734" data-name="Trazado 35734" d="M37.279,346.333a5.961,5.961,0,0,1-4.582-2.238,8.594,8.594,0,0,1-1.749-6.959,38.94,38.94,0,0,1,10.446-20.849,27.592,27.592,0,0,1,19.441-8.4h12.1a27.656,27.656,0,0,1,19.442,8.349,38.691,38.691,0,0,1,10.447,20.79,8.6,8.6,0,0,1-1.742,6.951,5.965,5.965,0,0,1-4.58,2.248l-59.214.106ZM96.5,344.8h0ZM60.834,310.738A24.437,24.437,0,0,0,43.4,318.306a36.072,36.072,0,0,0-9.649,19.319,5.718,5.718,0,0,0,1.121,4.634,3.162,3.162,0,0,0,2.4,1.224h0l59.214-.106a3.165,3.165,0,0,0,2.4-1.23,5.725,5.725,0,0,0,1.117-4.63,35.824,35.824,0,0,0-9.645-19.256,24.5,24.5,0,0,0-17.435-7.523Z" transform="translate(-22.685 -226.683)" fill="#3d4451"/>
        <path id="Trazado_35735" data-name="Trazado 35735" d="M143.772,63.02V65.6a.059.059,0,0,1-.059.059h-1.692a.059.059,0,0,1-.059-.059V63.1a.058.058,0,0,0-.057-.058,10.1,10.1,0,0,1-4.6-1.123.06.06,0,0,1-.032-.053V58.587a.057.057,0,0,1,.092-.046,7.556,7.556,0,0,0,2.052,1.006,9.975,9.975,0,0,0,2.478.566.059.059,0,0,0,.063-.06V55.646a.059.059,0,0,0-.038-.055A9.518,9.518,0,0,1,138,53.269a4.353,4.353,0,0,1-.824-1.485,4.906,4.906,0,0,1,2.117-5.662,6.279,6.279,0,0,1,2.615-.825.058.058,0,0,0,.052-.057V43.046a.058.058,0,0,1,.059-.059h1.692a.059.059,0,0,1,.059.059v2.142a.059.059,0,0,0,.056.058,9.2,9.2,0,0,1,3.818.823.06.06,0,0,1,.031.053v3.21a.057.057,0,0,1-.087.049,9.38,9.38,0,0,0-3.751-1.229.06.06,0,0,0-.067.059V52.8a.059.059,0,0,0,.039.055,9.884,9.884,0,0,1,3.853,2.224,4.291,4.291,0,0,1,1.178,3.043,4.378,4.378,0,0,1-1.314,3.316,6.241,6.241,0,0,1-3.7,1.525.058.058,0,0,0-.052.057m-1.81-10.995V48.266a.061.061,0,0,0-.073-.059q-1.65.327-1.65,1.783,0,1.244,1.635,2.088a.061.061,0,0,0,.088-.053m1.81,4.378V60a.061.061,0,0,0,.071.059q1.7-.291,1.7-1.761,0-1.185-1.687-1.946a.06.06,0,0,0-.085.054" transform="translate(-100.827 -31.649)" fill="#3d4451"/>
        <path id="Trazado_35736" data-name="Trazado 35736" d="M115.506,19.664c.742-.392,1.485-.785,2.22-1.19A23.5,23.5,0,0,0,71.266,23.5c0,.4.014.805.034,1.2q1.251.441,2.487.922a21.089,21.089,0,0,1,41.719-5.965" transform="translate(-52.47 0.001)" fill="#3d4451"/>
        <path id="Trazado_35737" data-name="Trazado 35737" d="M127.412,38.483c.126-.085.252-.17.378-.252.433-.285.874-.555,1.319-.82A17.637,17.637,0,0,0,111.842,21.5c-9.588,0-17.387,8.073-17.387,18a18.574,18.574,0,0,0,.356,3.615c.137.061.275.12.412.181q.824.373,1.65.756a16.58,16.58,0,0,1-.635-4.552c0-8.906,7-16.151,15.6-16.151a15.861,15.861,0,0,1,15.57,15.136" transform="translate(-69.543 -15.83)" fill="#3d4451"/>
        <path id="Trazado_35738" data-name="Trazado 35738" d="M95.732,364.394c0-1.048,1.628-1.9,3.636-1.9s3.636.849,3.636,1.9-1.628,1.9-3.636,1.9-3.636-.849-3.636-1.9" transform="translate(-70.483 -266.889)" fill="#3d4451"/>
        <path id="Trazado_35739" data-name="Trazado 35739" d="M153.273,345.213c0-1.048,1.628-1.9,3.636-1.9s3.636.849,3.636,1.9-1.628,1.9-3.636,1.9-3.636-.849-3.636-1.9" transform="translate(-112.847 -252.767)" fill="#3d4451"/>
        <path id="Trazado_35740" data-name="Trazado 35740" d="M210.815,365.592c0-1.048,1.628-1.9,3.636-1.9s3.636.849,3.636,1.9-1.628,1.9-3.636,1.9-3.636-.849-3.636-1.9" transform="translate(-155.213 -267.771)" fill="#3d4451"/>
      </g>
    </g>
  </g>
</svg>
