<svg xmlns="http://www.w3.org/2000/svg" xmlns:xlink="http://www.w3.org/1999/xlink" width="191" height="191" viewBox="0 0 191 191">
  <defs>
    <clipPath id="clip-path">
      <rect id="Rectángulo_3508" data-name="Rectángulo 3508" width="121.604" height="132.948" fill="none"/>
    </clipPath>
  </defs>
  <g id="Grupo_17668" data-name="Grupo 17668" transform="translate(-422 -8134)">
    <circle id="Elipse_973" data-name="Elipse 973" cx="95.5" cy="95.5" r="95.5" transform="translate(422 8134)" fill="#e8e8e8"/>
    <g id="Grupo_17454" data-name="Grupo 17454" transform="translate(456 8163.091)">
      <g id="Grupo_17430" data-name="Grupo 17430" clip-path="url(#clip-path)">
        <path id="Trazado_35526" data-name="Trazado 35526" d="M24.037,203.032a1.451,1.451,0,0,1-1.451-1.451V155.236a1.451,1.451,0,1,1,2.9,0v46.344a1.451,1.451,0,0,1-1.451,1.451" transform="translate(-16.03 -109.148)" fill="#3d4451"/>
        <path id="Trazado_35527" data-name="Trazado 35527" d="M92.913,377.806a1.447,1.447,0,0,1-.7-.182L56.248,357.707a1.451,1.451,0,0,1,1.406-2.539l35.963,19.917a1.451,1.451,0,0,1-.7,2.721" transform="translate(-39.391 -251.95)" fill="#3d4451"/>
        <path id="Trazado_35528" data-name="Trazado 35528" d="M237.952,373.317a1.451,1.451,0,0,1-.712-2.717l38.281-21.5a1.451,1.451,0,0,1,1.421,2.531l-38.281,21.5a1.444,1.444,0,0,1-.709.186" transform="translate(-167.854 -247.64)" fill="#3d4451"/>
        <path id="Trazado_35529" data-name="Trazado 35529" d="M391.378,190.7a1.451,1.451,0,0,1-1.451-1.451V143.82a1.451,1.451,0,1,1,2.9,0v45.424a1.451,1.451,0,0,1-1.451,1.451" transform="translate(-276.749 -101.046)" fill="#3d4451"/>
        <path id="Trazado_35530" data-name="Trazado 35530" d="M268.994,48.352a1.442,1.442,0,0,1-.688-.174l-36.788-19.85a1.451,1.451,0,1,1,1.378-2.555l36.788,19.85a1.451,1.451,0,0,1-.691,2.729" transform="translate(-163.778 -18.169)" fill="#3d4451"/>
        <path id="Trazado_35531" data-name="Trazado 35531" d="M43.39,58.623a1.451,1.451,0,0,1-.709-2.718L79.924,35.084a1.451,1.451,0,0,1,1.416,2.534L44.1,58.438a1.444,1.444,0,0,1-.707.185" transform="translate(-29.765 -24.77)" fill="#3d4451"/>
        <path id="Trazado_35532" data-name="Trazado 35532" d="M380.275,111.381a6.693,6.693,0,1,1,0-9.466,6.693,6.693,0,0,1,0,9.466" transform="translate(-261.788 -70.942)" fill="#fdc345"/>
        <path id="Trazado_35533" data-name="Trazado 35533" d="M372.711,111.669a7.851,7.851,0,1,1,5.554-2.3,7.831,7.831,0,0,1-5.554,2.3m0-13.38a5.53,5.53,0,1,0,3.912,1.618,5.515,5.515,0,0,0-3.912-1.618" transform="translate(-258.958 -68.113)" fill="#3d4451"/>
        <path id="Trazado_35534" data-name="Trazado 35534" d="M19.737,328.655a6.693,6.693,0,1,1,0-9.466,6.693,6.693,0,0,1,0,9.466" transform="translate(-5.898 -225.151)" fill="#fdc345"/>
        <path id="Trazado_35535" data-name="Trazado 35535" d="M12.174,328.942a7.851,7.851,0,1,1,5.554-2.3,7.831,7.831,0,0,1-5.554,2.3m0-13.381a5.53,5.53,0,1,0,3.912,1.618,5.516,5.516,0,0,0-3.912-1.618" transform="translate(-3.068 -222.321)" fill="#3d4451"/>
        <path id="Trazado_35536" data-name="Trazado 35536" d="M197.608,419.356a6.694,6.694,0,1,1,0-9.466,6.693,6.693,0,0,1,0,9.466" transform="translate(-132.141 -289.526)" fill="#f04f4c"/>
        <path id="Trazado_35537" data-name="Trazado 35537" d="M190.044,419.644a7.851,7.851,0,1,1,5.554-2.3,7.831,7.831,0,0,1-5.554,2.3m0-13.381a5.53,5.53,0,1,0,3.912,1.618,5.516,5.516,0,0,0-3.912-1.618" transform="translate(-129.311 -286.696)" fill="#3d4451"/>
        <path id="Trazado_35538" data-name="Trazado 35538" d="M198.822,15.413a6.694,6.694,0,1,1,0-9.466,6.693,6.693,0,0,1,0,9.466" transform="translate(-133.003 -2.829)" fill="#f04f4c"/>
        <path id="Trazado_35539" data-name="Trazado 35539" d="M191.258,15.7a7.851,7.851,0,1,1,5.554-2.3,7.831,7.831,0,0,1-5.554,2.3m0-13.381a5.53,5.53,0,1,0,3.912,1.618,5.516,5.516,0,0,0-3.912-1.618" transform="translate(-130.172 0)" fill="#3d4451"/>
        <path id="Trazado_35540" data-name="Trazado 35540" d="M167.692,186.091a23.91,23.91,0,1,0-23.909,23.75,23.83,23.83,0,0,0,23.909-23.75" transform="translate(-85.08 -115.221)" fill="#c7ddeb"/>
        <path id="Trazado_35541" data-name="Trazado 35541" d="M122.3,261.9l1.308-.861-.755-3.4,3.484-3.37,5.142,3.2,1.334-4.475h3.15l1.007,7.512L141,263.188l11.094-1.344,1.345,8.74,4.582,2.891S128.469,279.1,122.3,261.9" transform="translate(-86.799 -179.556)" fill="#7eb9c7"/>
        <path id="Trazado_35542" data-name="Trazado 35542" d="M145.154,273.223c-1.609,0-3.318-.063-5.068-.223-11-1-18.21-5.414-20.844-12.755l-.208-.581,1.371-.9-.733-3.3,4.24-4.1,4.789,2.979,1.207-4.05h4.422l1.051,7.84,3.5,2.332,11.56-1.4,1.406,9.138,5.963,3.762-1.955.373a62.757,62.757,0,0,1-10.7.9M120.938,260.29c5.322,13.167,25.942,11.656,32.563,10.8l-3.1-1.956-1.284-8.343-10.628,1.288-4.571-3.047-.962-7.183h-1.879l-1.461,4.9-5.495-3.417-2.729,2.639.777,3.5Z" transform="translate(-84.483 -177.638)" fill="#3d4451"/>
        <path id="Trazado_35543" data-name="Trazado 35543" d="M134.232,185.37a30.9,30.9,0,1,1,30.9-30.9,30.933,30.933,0,0,1-30.9,30.9m0-59.078a28.18,28.18,0,1,0,28.179,28.18,28.212,28.212,0,0,0-28.179-28.18" transform="translate(-73.341 -87.706)" fill="#3d4451"/>
        <path id="Trazado_35544" data-name="Trazado 35544" d="M182.867,130.091l1.647,3.975-3.235,1.259-4.418-1.423-8.823,5.509,1.1,5.826-3.937,3.778,5.64,4.174,8.379-4.022,10.39,9.049,1.256-4,5.983-2.047,1.417,3.779,4.252-3.9-6.6-5.555h9.437s-8.792-15.7-22.492-16.4" transform="translate(-117.251 -92.331)" fill="#7eb9c7"/>
        <path id="Trazado_35545" data-name="Trazado 35545" d="M187.038,157.526l-10.9-9.5-8.34,4-6.765-5.006,4.3-4.126-1.121-5.935,9.585-5.984,4.5,1.449,2.231-.868-1.816-4.38,1.237.063c5.8.3,11.648,3.3,16.9,8.7a42.968,42.968,0,0,1,6.231,8.1l.652,1.164h-8.628l5.637,4.747-5.762,5.282-1.557-4.153-4.89,1.673Zm-10.653-11.353,9.876,8.6,1.016-3.241,7.077-2.422,1.277,3.405L198.373,150l-7.554-6.362H201c-2.246-3.452-9.584-13.462-19.874-14.726l1.461,3.523-4.24,1.65-4.337-1.4-8.061,5.033,1.079,5.717-3.574,3.429,4.517,3.342Z" transform="translate(-114.29 -90.266)" fill="#3d4451"/>
        <path id="Trazado_35546" data-name="Trazado 35546" d="M208.713,77.071H205.86V70.414h2.853Zm0-11.06H205.86V59.354h2.853Z" transform="translate(-146.108 -42.126)" fill="#3d4451"/>
        <rect id="Rectángulo_3502" data-name="Rectángulo 3502" width="4.755" height="2.853" transform="translate(13.506 95.282) rotate(-31.428)" fill="#3d4451"/>
        <rect id="Rectángulo_3503" data-name="Rectángulo 3503" width="6.255" height="2.853" transform="translate(20.668 90.905) rotate(-31.428)" fill="#3d4451"/>
        <rect id="Rectángulo_3504" data-name="Rectángulo 3504" width="4.755" height="2.853" transform="translate(29.109 85.747) rotate(-31.428)" fill="#3d4451"/>
        <path id="Trazado_35547" data-name="Trazado 35547" d="M320.331,296.5l-3.745-2.557,1.609-2.356,3.745,2.557Zm-7.382-5.039-5.5-3.753,1.609-2.356,5.5,3.753Zm-9.135-6.236-5.5-3.753,1.609-2.356,5.5,3.753Z" transform="translate(-211.729 -198.098)" fill="#3d4451"/>
        <rect id="Rectángulo_3505" data-name="Rectángulo 3505" width="4.755" height="2.853" transform="translate(103.774 39.475) rotate(-31.428)" fill="#3d4451"/>
        <rect id="Rectángulo_3506" data-name="Rectángulo 3506" width="6.255" height="2.853" transform="translate(95.332 44.634) rotate(-31.428)" fill="#3d4451"/>
        <rect id="Rectángulo_3507" data-name="Rectángulo 3507" width="4.755" height="2.853" transform="translate(88.171 49.01) rotate(-31.42)" fill="#3d4451"/>
        <path id="Trazado_35548" data-name="Trazado 35548" d="M61.613,141.336l-5.792-3.281,1.406-2.482,5.792,3.281Zm-9.623-5.452L46.2,132.6l1.406-2.482L53.4,133.4Zm-9.623-5.452-4.776-2.706L39,125.244l4.776,2.706Z" transform="translate(-26.68 -88.891)" fill="#3d4451"/>
        <path id="Trazado_35549" data-name="Trazado 35549" d="M207.721,368.573h-2.853v-6.657h2.853Zm0-11.06h-2.853v-6.656h2.853Z" transform="translate(-145.404 -249.018)" fill="#3d4451"/>
        <path id="Trazado_35550" data-name="Trazado 35550" d="M15.426,110.406a6.693,6.693,0,1,1,0-9.466,6.693,6.693,0,0,1,0,9.466" transform="translate(-2.839 -70.25)" fill="#7eb9c7"/>
        <path id="Trazado_35551" data-name="Trazado 35551" d="M7.854,110.688a7.854,7.854,0,1,1,5.554-2.3,7.8,7.8,0,0,1-5.554,2.3m0-13.387a5.532,5.532,0,1,0,3.912,1.62A5.5,5.5,0,0,0,7.854,97.3" transform="translate(0.001 -67.411)" fill="#3d4451"/>
        <path id="Trazado_35552" data-name="Trazado 35552" d="M378.406,328.878a6.693,6.693,0,1,1,0-9.466,6.693,6.693,0,0,1,0,9.466" transform="translate(-260.462 -225.31)" fill="#7eb9c7"/>
        <path id="Trazado_35553" data-name="Trazado 35553" d="M370.842,329.167a7.851,7.851,0,1,1,5.554-2.3,7.831,7.831,0,0,1-5.554,2.3m0-13.381a5.53,5.53,0,1,0,3.912,1.618,5.515,5.515,0,0,0-3.912-1.618" transform="translate(-257.631 -222.48)" fill="#3d4451"/>
      </g>
    </g>
  </g>
</svg>
