<svg xmlns="http://www.w3.org/2000/svg" xmlns:xlink="http://www.w3.org/1999/xlink" width="191" height="191" viewBox="0 0 191 191">
  <defs>
    <clipPath id="clip-path">
      <rect id="Rectángulo_3513" data-name="Rectángulo 3513" width="140.604" height="139.093" fill="none"/>
    </clipPath>
  </defs>
  <g id="Grupo_17660" data-name="Grupo 17660" transform="translate(-422 -6403)">
    <circle id="Elipse_965" data-name="Elipse 965" cx="95.5" cy="95.5" r="95.5" transform="translate(422 6403)" fill="#e8e8e8"/>
    <g id="Grupo_17442" data-name="Grupo 17442" transform="translate(454 6431.792)">
      <g id="Grupo_17441" data-name="Grupo 17441" clip-path="url(#clip-path)">
        <path id="Trazado_35583" data-name="Trazado 35583" d="M63.063,320.393c1.287-7.206,6.321-10.777,11.054-15.7,3.05-3.171,6.378-6.043,8.357-9.972a16.623,16.623,0,0,1,2.384-3.957,4.753,4.753,0,0,1,6.716-.381c2.046,1.989,1.987,5.263,1.016,7.762-1.068,2.749-3.785,4.313-4.949,7.023-.887,2.066-2.225,5.067-.232,6.273,7.291,4.41,12.126-.025,14.807-3.124a33.448,33.448,0,0,1,6.587-5.932,30.249,30.249,0,0,1,3.961-2.244c1.024-.483,3.553-.936,4.123-1.916,1.526-2.626,2.549-4.755,6.354-4.37,3.7.374,4.951,3.264,6.522,6.113,12.991,23.577-14.017,44.806-35.837,44.369-5.069-.1-10.1-1.145-15.168-.982s-10.452,1.8-13.47,5.869" transform="translate(-46.027 -211.052)" fill="#c7ddeb"/>
        <path id="Trazado_35584" data-name="Trazado 35584" d="M62.422,345.976l-2.481-1.839c3.977-5.366,10.892-6.371,14.661-6.492a64.973,64.973,0,0,1,8.719.493c2.148.219,4.369.445,6.53.488a40.709,40.709,0,0,0,19.363-4.912A37.831,37.831,0,0,0,123.946,320.4c3.222-5.332,5.9-13.8.359-23.854q-.2-.355-.386-.709c-1.5-2.78-2.476-4.365-4.939-4.613-2.626-.267-3.258.829-4.642,3.227l-.221.383c-.694,1.194-2.3,1.706-3.72,2.159a11.327,11.327,0,0,0-1.079.378,28.783,28.783,0,0,0-3.759,2.129,32.009,32.009,0,0,0-6.28,5.661,16.478,16.478,0,0,1-6.287,4.808c-3.331,1.282-6.859.82-10.486-1.373-3.107-1.879-1.37-5.919-.437-8.089l.049-.115a14.157,14.157,0,0,1,2.706-3.835,10.925,10.925,0,0,0,2.222-3.136c.766-1.973.862-4.623-.653-6.1a2.815,2.815,0,0,0-2.075-.777,3.456,3.456,0,0,0-2.432,1.1,12.774,12.774,0,0,0-1.858,3.04q-.14.282-.28.563c-1.707,3.388-4.321,6.011-6.85,8.548-.586.588-1.192,1.2-1.773,1.8-.888.924-1.785,1.8-2.653,2.646-3.773,3.682-7.031,6.862-7.994,12.254l-3.04-.543c1.137-6.367,4.9-10.036,8.877-13.921.851-.83,1.73-1.688,2.584-2.577.6-.625,1.216-1.242,1.812-1.84,2.466-2.473,4.795-4.81,6.279-7.757.091-.181.181-.363.271-.545a15.272,15.272,0,0,1,2.358-3.766,6.561,6.561,0,0,1,4.617-2.09,5.933,5.933,0,0,1,4.309,1.65c1.688,1.641,3.062,5.1,1.379,9.429a13.421,13.421,0,0,1-2.8,4.075,11.637,11.637,0,0,0-2.172,3l-.05.116c-.562,1.307-1.608,3.74-.8,4.227,6.056,3.663,10.043.421,12.84-2.813a35.091,35.091,0,0,1,6.893-6.2A31.953,31.953,0,0,1,108,294.578a12.529,12.529,0,0,1,1.459-.528,8.669,8.669,0,0,0,2.016-.817l.189-.327c1.481-2.567,3.013-5.221,7.627-4.756,4.209.425,5.875,3.5,7.344,6.216q.186.343.375.688c6.252,11.347,3.222,20.914-.421,26.941C119.631,333.51,104.55,341.72,90.5,341.72c-.239,0-.476,0-.715-.007-2.286-.046-4.571-.279-6.781-.5a62.015,62.015,0,0,0-8.307-.479c-5.464.176-9.939,2.088-12.279,5.245m49.072-52.761h0Z" transform="translate(-41.921 -206.883)" fill="#3d4451"/>
        <path id="Trazado_35585" data-name="Trazado 35585" d="M123.616,377.266a1.544,1.544,0,0,1-.628-2.955c5.485-2.438,5.178-6.657,4.852-11.125-.018-.245-.036-.487-.052-.728a1.544,1.544,0,0,1,3.081-.211q.024.354.051.714c.334,4.579.792,10.852-6.677,14.171a1.54,1.54,0,0,1-.626.133" transform="translate(-89.094 -263.339)" fill="#3d4451"/>
        <path id="Trazado_35586" data-name="Trazado 35586" d="M149.118,392.6c-.145,0-.291,0-.44-.011-3.13-.161-6.155-1.663-8.823-2.989-.759-.377-1.476-.733-2.175-1.051-16.4-7.457-22.107.617-22.342.964a1.544,1.544,0,0,1-2.58-1.7,12.822,12.822,0,0,1,6.161-4.427c5.466-2,12.208-1.212,20.038,2.348.747.34,1.522.724,2.271,1.1,2.516,1.25,5.118,2.542,7.608,2.67,4.066.205,6.5-4.447,8.467-8.827,1.53-3.411,4.659-6.408,8.2-5.41a6.121,6.121,0,0,1,3.988,3.553,4.866,4.866,0,0,1-.212,4.292,1.544,1.544,0,0,1-2.676-1.54,1.823,1.823,0,0,0,.029-1.585,3.053,3.053,0,0,0-1.964-1.747c-1.882-.526-3.751,1.924-4.548,3.7-1.682,3.751-4.782,10.658-11,10.659" transform="translate(-82.115 -273.747)" fill="#3d4451"/>
        <path id="Trazado_35587" data-name="Trazado 35587" d="M181.115,378.587a16.217,16.217,0,0,1,8.088,8.088" transform="translate(-132.188 -276.314)" fill="#fff"/>
        <path id="Trazado_35588" data-name="Trazado 35588" d="M185.04,384.047a1.544,1.544,0,0,1-1.4-.9,14.85,14.85,0,0,0-7.24-7.29,1.544,1.544,0,0,1,1.105-2.883,17.709,17.709,0,0,1,8.941,8.887,1.545,1.545,0,0,1-1.4,2.188" transform="translate(-128.024 -272.142)" fill="#3d4451"/>
        <path id="Trazado_35589" data-name="Trazado 35589" d="M211.6,335.694a1.544,1.544,0,0,1-.912-2.791c.141-.1,9.805-7.279,12.42-16.533a1.544,1.544,0,1,1,2.972.839c-2.915,10.314-13.137,17.871-13.571,18.187a1.536,1.536,0,0,1-.909.3" transform="translate(-153.309 -230.084)" fill="#3d4451"/>
        <path id="Trazado_35590" data-name="Trazado 35590" d="M238.692,336.938a1.544,1.544,0,0,1-.9-2.8c7.849-5.606,11.513-11.894,13.205-16.182a23.749,23.749,0,0,0,1.818-8.066,1.544,1.544,0,0,1,3.087-.051c.011.611.079,15.1-16.316,26.811a1.538,1.538,0,0,1-.9.288" transform="translate(-173.083 -225.034)" fill="#3d4451"/>
        <path id="Trazado_35591" data-name="Trazado 35591" d="M296.768,339.945a1.544,1.544,0,0,1-1.38-2.234c1.218-2.443,4.018-9.882,1.015-11.937-.488-.334-1.161-.689-1.6-.486-.849.388-1.511,2.449-1.662,3.788a1.544,1.544,0,0,1-3.068-.348c.057-.5.639-4.964,3.446-6.248.968-.442,2.558-.673,4.632.746,1.768,1.21,3.582,3.894,2.178,9.813a31.221,31.221,0,0,1-2.175,6.052,1.544,1.544,0,0,1-1.382.854" transform="translate(-211.701 -235.116)" fill="#3d4451"/>
        <path id="Trazado_35592" data-name="Trazado 35592" d="M299.878,342.979s5.425-10.794.505-13.9c-4.8-3.033-6.066,5.307-6.066,5.307" transform="translate(-214.81 -239.696)" fill="#c7ddeb"/>
        <path id="Trazado_35593" data-name="Trazado 35593" d="M295.706,340.354a1.545,1.545,0,0,1-1.379-2.237,29.012,29.012,0,0,0,1.987-5.5c.549-2.308.834-5.293-.926-6.4-.955-.6-1.383-.408-1.524-.344-1.088.5-1.951,3.025-2.191,4.579a1.544,1.544,0,0,1-3.053-.465c.085-.562.92-5.534,3.959-6.922a4.5,4.5,0,0,1,4.457.541c1.829,1.155,3.708,3.79,2.269,9.781a31.735,31.735,0,0,1-2.219,6.118,1.544,1.544,0,0,1-1.381.851" transform="translate(-210.639 -235.526)" fill="#3d4451"/>
        <path id="Trazado_35594" data-name="Trazado 35594" d="M190.363,92.591l-40.177,23.145L110.009,92.591V46.3l40.177-23.144L190.363,46.3Z" transform="translate(-80.291 -16.901)" fill="#fff"/>
        <path id="Trazado_35595" data-name="Trazado 35595" d="M145.18,112.1,103.15,87.884V39.453l42.03-24.212,42.03,24.212V87.884ZM106.856,85.743,145.18,107.82,183.5,85.743V41.595L145.18,19.518,106.856,41.595Z" transform="translate(-75.285 -11.124)" fill="#3d4451"/>
        <path id="Trazado_35596" data-name="Trazado 35596" d="M211.1,123.5,183.11,139.628,155.119,123.5V91.254L183.11,75.13,211.1,91.254Z" transform="translate(-113.214 -54.834)" fill="#fdc345"/>
        <rect id="Rectángulo_3510" data-name="Rectángulo 3510" width="2.976" height="47.617" transform="translate(67.812 51.368)" fill="#3d4451"/>
        <rect id="Rectángulo_3511" data-name="Rectángulo 3511" width="46.03" height="2.976" transform="matrix(0.878, -0.478, 0.478, 0.878, 69.144, 50.089)" fill="#3d4451"/>
        <rect id="Rectángulo_3512" data-name="Rectángulo 3512" width="2.976" height="45.693" transform="translate(29.088 30.704) rotate(-61.225)" fill="#3d4451"/>
        <path id="Trazado_35597" data-name="Trazado 35597" d="M225.746,145.333,206.361,156.5l-19.385-11.167V123l19.385-11.167L225.746,123Z" transform="translate(-136.465 -81.621)" fill="#f04f4c"/>
        <path id="Trazado_35598" data-name="Trazado 35598" d="M201.355,152.861l-21.238-12.234V116.151l21.238-12.235,21.238,12.235v24.476Zm-17.532-14.376,17.532,10.1,17.532-10.1V118.292l-17.532-10.1-17.532,10.1Z" transform="translate(-131.459 -75.844)" fill="#3d4451"/>
        <path id="Trazado_35599" data-name="Trazado 35599" d="M89.358,11.85a6.35,6.35,0,1,1,8.674-2.324,6.349,6.349,0,0,1-8.674,2.324" transform="translate(-62.9 -0.001)" fill="#c7ddeb"/>
        <path id="Trazado_35600" data-name="Trazado 35600" d="M374.968,6.354a6.35,6.35,0,1,1,6.35,6.35,6.35,6.35,0,0,1-6.35-6.35" transform="translate(-273.673 -0.003)" fill="#7eb9c7"/>
        <path id="Trazado_35601" data-name="Trazado 35601" d="M472.348,193.43a6.5,6.5,0,1,1,6.5,6.5,6.5,6.5,0,0,1-6.5-6.5" transform="translate(-344.746 -136.431)" fill="#7eb9c7"/>
        <path id="Trazado_35602" data-name="Trazado 35602" d="M0,112.206a3.628,3.628,0,1,1,3.629,3.629A3.629,3.629,0,0,1,0,112.206" transform="translate(0 -79.246)" fill="#7eb9c7"/>
        <path id="Trazado_35603" data-name="Trazado 35603" d="M445.484,98.774a3.628,3.628,0,1,1,3.629,3.629,3.628,3.628,0,0,1-3.629-3.629" transform="translate(-325.139 -69.442)" fill="#c7ddeb"/>
        <path id="Trazado_35604" data-name="Trazado 35604" d="M385.042,334.311a6.35,6.35,0,1,1,6.35,6.35,6.35,6.35,0,0,1-6.35-6.35" transform="translate(-281.025 -239.364)" fill="#c7ddeb"/>
        <path id="Trazado_35605" data-name="Trazado 35605" d="M26.863,213.639a5.443,5.443,0,1,1,5.443,5.443,5.443,5.443,0,0,1-5.443-5.443" transform="translate(-19.606 -151.953)" fill="#7eb9c7"/>
      </g>
    </g>
  </g>
</svg>
