<svg id="Grupo_17482" data-name="Grupo 17482" xmlns="http://www.w3.org/2000/svg" xmlns:xlink="http://www.w3.org/1999/xlink" width="69.864" height="75.174" viewBox="0 0 69.864 75.174">
  <defs>
    <clipPath id="clip-path">
      <rect id="Rectángulo_3605" data-name="Rectángulo 3605" width="69.864" height="75.174" fill="none"/>
    </clipPath>
  </defs>
  <g id="Grupo_17481" data-name="Grupo 17481" clip-path="url(#clip-path)">
    <path id="Trazado_35800" data-name="Trazado 35800" d="M141.794,204.351c9.184,0,16.628-5.406,16.628-12.075S150.977,180.2,141.794,180.2s-16.628,5.406-16.628,12.075c0,4.185,2.932,7.872,7.386,10.038a8.165,8.165,0,0,1-3.691,7.445s8.211-1.635,9.169-5.283Z" transform="translate(-104.315 -150.182)" fill="#c7ddeb"/>
    <path id="Trazado_35801" data-name="Trazado 35801" d="M18.4,112.648a1.386,1.386,0,0,1-1.375-1.229,33.024,33.024,0,0,1-.211-3.728A32.53,32.53,0,0,1,35.663,78.173a1.386,1.386,0,0,1,1.167,2.514,29.758,29.758,0,0,0-17.243,27,30.231,30.231,0,0,0,.194,3.414,1.386,1.386,0,0,1-1.22,1.534,1.427,1.427,0,0,1-.159.009" transform="translate(-14.015 -65.043)" fill="#7eb9c7"/>
    <path id="Trazado_35802" data-name="Trazado 35802" d="M124.331,414.828a32.471,32.471,0,0,1-16.87-4.712,1.386,1.386,0,1,1,1.439-2.368,29.787,29.787,0,0,0,30.852.006,1.386,1.386,0,0,1,1.438,2.369,32.472,32.472,0,0,1-16.86,4.705" transform="translate(-89.004 -339.654)" fill="#f04f4c"/>
    <path id="Trazado_35803" data-name="Trazado 35803" d="M305.85,111.036a1.386,1.386,0,0,1-1.386-1.386A29.756,29.756,0,0,0,288,83.02a1.386,1.386,0,1,1,1.239-2.479,32.526,32.526,0,0,1,18,29.109,1.386,1.386,0,0,1-1.386,1.386" transform="translate(-239.382 -67.002)" fill="#fdc345"/>
    <path id="Trazado_35804" data-name="Trazado 35804" d="M38.58,309.912a3.306,3.306,0,1,0-2.829-3.114,3.149,3.149,0,0,0,2.829,3.114" transform="translate(-29.793 -252.802)" fill="#7eb9c7"/>
    <path id="Trazado_35805" data-name="Trazado 35805" d="M36.4,364.156a1.216,1.216,0,0,0,1.03-1.509c-.554-3.317-2.817-6.285-5.524-6.285s-4.97,2.968-5.524,6.285a1.216,1.216,0,0,0,1.03,1.509Z" transform="translate(-21.972 -296.995)" fill="#7eb9c7"/>
    <path id="Trazado_35806" data-name="Trazado 35806" d="M22.717,301.289c-.085,0-.17,0-.255-.007a5.091,5.091,0,1,1,.255.007m0-8.638a3.557,3.557,0,0,0-3.549,3.745,3.584,3.584,0,0,0,3.367,3.364,3.557,3.557,0,0,0,3.736-3.739,3.583,3.583,0,0,0-3.366-3.365c-.063,0-.126,0-.189,0" transform="translate(-14.702 -242.627)" fill="#3d4451"/>
    <path id="Trazado_35807" data-name="Trazado 35807" d="M14.333,356.3H2.182a2.185,2.185,0,0,1-2.14-2.617c.878-4.4,4.41-7.713,8.215-7.713s7.337,3.316,8.215,7.713a2.185,2.185,0,0,1-2.14,2.617m-6.076-8.8c-3.395,0-6.082,3.3-6.719,6.486a.664.664,0,0,0,.137.553.646.646,0,0,0,.506.24h12.15a.646.646,0,0,0,.506-.24.664.664,0,0,0,.137-.553c-.637-3.188-3.324-6.486-6.72-6.486" transform="translate(0 -288.335)" fill="#3d4451"/>
    <path id="Trazado_35808" data-name="Trazado 35808" d="M358.82,309.912a3.306,3.306,0,1,0-2.829-3.114,3.15,3.15,0,0,0,2.829,3.114" transform="translate(-296.684 -252.802)" fill="#7eb9c7"/>
    <path id="Trazado_35809" data-name="Trazado 35809" d="M356.643,364.156a1.216,1.216,0,0,0,1.03-1.509c-.554-3.317-2.816-6.285-5.524-6.285s-4.97,2.968-5.524,6.285a1.216,1.216,0,0,0,1.03,1.509Z" transform="translate(-288.863 -296.995)" fill="#7eb9c7"/>
    <path id="Trazado_35810" data-name="Trazado 35810" d="M342.956,301.289c-.085,0-.17,0-.255-.007a5.092,5.092,0,1,1,.255.007m0-8.638a3.557,3.557,0,0,0-3.549,3.745,3.584,3.584,0,0,0,3.367,3.364,3.557,3.557,0,0,0,3.736-3.739,3.584,3.584,0,0,0-3.366-3.365c-.063,0-.126,0-.189,0" transform="translate(-281.593 -242.627)" fill="#3d4451"/>
    <path id="Trazado_35811" data-name="Trazado 35811" d="M334.572,356.3h-12.15a2.185,2.185,0,0,1-2.14-2.617c.878-4.4,4.41-7.713,8.215-7.713s7.337,3.316,8.215,7.713a2.185,2.185,0,0,1-2.14,2.617m-6.075-8.8c-3.395,0-6.082,3.3-6.719,6.486a.664.664,0,0,0,.137.553.646.646,0,0,0,.507.24h12.15a.646.646,0,0,0,.506-.24.664.664,0,0,0,.137-.553c-.637-3.188-3.324-6.486-6.719-6.486" transform="translate(-266.89 -288.335)" fill="#3d4451"/>
    <path id="Trazado_35812" data-name="Trazado 35812" d="M200.78,18.785a3.149,3.149,0,0,0,3.136-3.458,3,3,0,1,0-5.965.345,3.162,3.162,0,0,0,2.829,3.114" transform="translate(-164.972 -10.173)" fill="#7eb9c7"/>
    <path id="Trazado_35813" data-name="Trazado 35813" d="M198.6,73.028a1.216,1.216,0,0,0,1.03-1.509c-.554-3.317-2.816-6.285-5.524-6.285s-4.97,2.968-5.524,6.285a1.216,1.216,0,0,0,1.03,1.509Z" transform="translate(-157.15 -54.367)" fill="#7eb9c7"/>
    <path id="Trazado_35814" data-name="Trazado 35814" d="M184.916,10.163c-.085,0-.17,0-.255-.006a5.082,5.082,0,0,1-3.334-8.667,5.082,5.082,0,1,1,3.589,8.674m0-8.638a3.557,3.557,0,0,0-3.549,3.745,3.584,3.584,0,0,0,3.367,3.364,3.557,3.557,0,0,0,3.736-3.739,3.583,3.583,0,0,0-3.365-3.365c-.063,0-.126,0-.189,0" transform="translate(-149.881 0)" fill="#3d4451"/>
    <path id="Trazado_35815" data-name="Trazado 35815" d="M176.532,65.172h-12.15a2.185,2.185,0,0,1-2.14-2.617c.878-4.4,4.41-7.713,8.215-7.713s7.337,3.316,8.215,7.713a2.185,2.185,0,0,1-2.14,2.617m-6.075-8.8c-3.395,0-6.082,3.3-6.719,6.486a.664.664,0,0,0,.137.553.646.646,0,0,0,.507.24h12.15a.646.646,0,0,0,.507-.24.664.664,0,0,0,.137-.553c-.637-3.188-3.324-6.486-6.719-6.486" transform="translate(-135.178 -45.707)" fill="#3d4451"/>
    <path id="Trazado_35816" data-name="Trazado 35816" d="M109.631,187.831a.851.851,0,0,1-.512-1.531,8.141,8.141,0,0,0,3.552-6.882c-4.871-2.616-7.763-6.862-7.763-11.44,0-7.706,8.2-13.975,18.274-13.975s18.273,6.269,18.273,13.975-8.189,13.969-18.259,13.975l-3.345.116c-1.679,3.908-9.161,5.561-10.049,5.745a.856.856,0,0,1-.172.018M123.183,155.7c-9.138,0-16.571,5.506-16.571,12.273,0,4.059,2.718,7.853,7.271,10.151a.852.852,0,0,1,.465.7,9.683,9.683,0,0,1-1.825,6.45c2.518-.886,5.409-2.339,5.892-4.246a.851.851,0,0,1,.8-.642l3.943-.137h.03c9.137,0,16.571-5.506,16.571-12.273S132.32,155.7,123.183,155.7" transform="translate(-87.432 -128.347)" fill="#3d4451"/>
    <path id="Trazado_35817" data-name="Trazado 35817" d="M205.222,190.7l-3.5,0,0-3.319s0-1.4,0-1.673a.581.581,0,0,0-.247-.439l-2,0c-.329,0-.411.164-.411.164s-1.815,4.139-2.612,5.482a2.863,2.863,0,0,1-2.415,1.286l-.008,7.132,2.359,0,1.534,1.318,6.5.007a1.705,1.705,0,0,0,1.1-.4l.781-.653a1.705,1.705,0,0,0,.611-1.306l.007-5.892a1.705,1.705,0,0,0-1.7-1.707" transform="translate(-161.713 -154.404)" fill="#f5fafc"/>
    <path id="Trazado_35818" data-name="Trazado 35818" d="M204.569,208.84l-3.292,0,0-2.6s0-1.094,0-1.309a.454.454,0,0,0-.233-.343l-1.886,0c-.31,0-.388.128-.388.128s-1.709,3.238-2.459,4.288a2.937,2.937,0,0,1-2.275,1.006l-.006,5.579,2.222,0,1.445,1.031,6.122.007a1.815,1.815,0,0,0,1.032-.31l.736-.511a1.256,1.256,0,0,0,.575-1.021l.005-4.609a1.306,1.306,0,0,0-.776-1.144,1.861,1.861,0,0,0-.828-.192" transform="translate(-161.712 -170.504)" fill="#fdc345"/>
    <path id="Trazado_35819" data-name="Trazado 35819" d="M201.136,198.025h0l-6.743-.007-1.534-1.318-2.774,0,.009-8.471.681.024a2.177,2.177,0,0,0,1.826-.964c.767-1.293,2.557-5.369,2.575-5.41l.014-.03a1.071,1.071,0,0,1,1-.528h0l2.2,0,.165.11a1.226,1.226,0,0,1,.54.988l0,4.333,2.837,0a2.363,2.363,0,0,1,2.36,2.366l-.007,5.892a2.358,2.358,0,0,1-.847,1.81l-.781.653a2.367,2.367,0,0,1-1.516.55m-6.258-1.324,6.257.007h0a1.049,1.049,0,0,0,.672-.244l.781-.653a1.046,1.046,0,0,0,.375-.8l.007-5.892a1.047,1.047,0,0,0-1.046-1.048l-4.153,0,.006-5.43-1.5,0c-.4.9-1.84,4.132-2.547,5.324a3.324,3.324,0,0,1-2.324,1.547l-.007,5.878,1.944,0Z" transform="translate(-158.416 -151.112)" fill="#3d4451"/>
    <rect id="Rectángulo_3603" data-name="Rectángulo 3603" width="9.38" height="7.84" transform="matrix(0.001, -1, 1, 0.001, 25.379, 46.085)" fill="#7eb9c7"/>
    <path id="Trazado_35820" data-name="Trazado 35820" d="M157.813,227.35l-9.026-.01.012-10.565,9.026.01Zm-7.839-1.194,6.656.007.009-8.195-6.656-.008Z" transform="translate(-124.001 -180.663)" fill="#3d4451"/>
    <rect id="Rectángulo_3604" data-name="Rectángulo 3604" width="1.843" height="6.583" transform="translate(26.031 39.137) rotate(-89.936)" fill="#f5fafc"/>
  </g>
</svg>
