<svg id="Grupo_17486" data-name="Grupo 17486" xmlns="http://www.w3.org/2000/svg" xmlns:xlink="http://www.w3.org/1999/xlink" width="82.249" height="68.397" viewBox="0 0 82.249 68.397">
  <defs>
    <clipPath id="clip-path">
      <rect id="Rectángulo_3610" data-name="Rectángulo 3610" width="82.249" height="68.397" fill="none"/>
    </clipPath>
  </defs>
  <g id="Grupo_17485" data-name="Grupo 17485" clip-path="url(#clip-path)">
    <path id="Trazado_35844" data-name="Trazado 35844" d="M311.8,45.769c-4.231.237-7.708-3.565-7.5-8.2.18-3.968,3.121-7.194,6.744-7.4,4.233-.239,7.714,3.567,7.5,8.2-.182,3.967-3.124,7.192-6.747,7.4" transform="translate(-257.093 -25.483)" fill="#c7ddeb"/>
    <path id="Trazado_35845" data-name="Trazado 35845" d="M272.876,168.715a2.677,2.677,0,0,1-2.444-3.275c1.3-7.206,6.662-13.657,13.081-13.664s11.788,6.433,13.108,13.636a2.677,2.677,0,0,1-2.437,3.28Z" transform="translate(-228.446 -128.235)" fill="#c7ddeb"/>
    <path id="Trazado_35846" data-name="Trazado 35846" d="M274.7,21.16q-.271,0-.542-.014a10.608,10.608,0,1,1,.542.014m.026-19.232a8.636,8.636,0,1,0,.447.011q-.224-.012-.447-.011" transform="translate(-223.165 0)" fill="#3d4451"/>
    <path id="Trazado_35847" data-name="Trazado 35847" d="M252.945,152.691h0l-27.052-.028a4.131,4.131,0,0,1-4.039-4.953,22.634,22.634,0,0,1,6.159-11.52,16.341,16.341,0,0,1,11.412-5.043h.015a16.341,16.341,0,0,1,11.418,5.066,22.632,22.632,0,0,1,6.135,11.533,4.131,4.131,0,0,1-4.045,4.944m0-1.928h0a2.186,2.186,0,0,0,1.694-.8,2.21,2.21,0,0,0,.46-1.84,20.682,20.682,0,0,0-5.6-10.542,14.431,14.431,0,0,0-10.06-4.505h-.013a14.433,14.433,0,0,0-10.056,4.484,20.687,20.687,0,0,0-5.626,10.531,2.21,2.21,0,0,0,.456,1.841,2.185,2.185,0,0,0,1.695.8Z" transform="translate(-187.372 -110.806)" fill="#3d4451"/>
    <path id="Trazado_35848" data-name="Trazado 35848" d="M453.692,354.167l1.431,3.111,6.084.667-3.547,3.922,1.051,5.475-4.8-2.788-4.777,3.011,1.984-6.261-2.6-2.742,3.366-.112Z" transform="translate(-378.959 -299.235)" fill="#f04f4c"/>
    <path id="Trazado_35849" data-name="Trazado 35849" d="M426.984,352.159l.945-5.608-4.084-3.958,5.626-.834,2.5-5.107,2.532,5.092,5.63.8-4.061,3.982.977,5.6L432.01,349.5Zm-.218-8.626,2.621,2.54-.606,3.6,3.225-1.708,3.235,1.689-.627-3.595,2.606-2.555-3.613-.514-1.625-3.268L430.376,343Z" transform="translate(-358.105 -284.436)" fill="#3d4451"/>
    <path id="Trazado_35850" data-name="Trazado 35850" d="M426.984,352.159l.945-5.608-4.084-3.958,5.626-.834,2.5-5.107,2.532,5.092,5.63.8-4.061,3.982.977,5.6L432.01,349.5Zm-.218-8.626,2.621,2.54-.606,3.6,3.225-1.708,3.235,1.689-.627-3.595,2.606-2.555-3.613-.514-1.625-3.268L430.376,343Z" transform="translate(-358.105 -284.436)" fill="#3d4451"/>
    <path id="Trazado_35851" data-name="Trazado 35851" d="M29.848,354.167l1.431,3.111,6.084.667-3.547,3.922,1.051,5.475-4.8-2.788-4.777,3.011,1.984-6.261-2.6-2.742,3.366-.112Z" transform="translate(-20.854 -299.235)" fill="#f04f4c"/>
    <path id="Trazado_35852" data-name="Trazado 35852" d="M3.139,352.159l.945-5.608L0,342.593l5.626-.834,2.5-5.107,2.532,5.092,5.63.8-4.061,3.982.978,5.6L8.165,349.5Zm-.217-8.626,2.621,2.54-.606,3.6,3.225-1.708,3.235,1.689-.628-3.595,2.606-2.555-3.613-.514-1.625-3.268L6.531,343Z" transform="translate(0 -284.436)" fill="#3d4451"/>
    <path id="Trazado_35853" data-name="Trazado 35853" d="M3.139,352.159l.945-5.608L0,342.593l5.626-.834,2.5-5.107,2.532,5.092,5.63.8-4.061,3.982.978,5.6L8.165,349.5Zm-.217-8.626,2.621,2.54-.606,3.6,3.225-1.708,3.235,1.689-.628-3.595,2.606-2.555-3.613-.514-1.625-3.268L6.531,343Z" transform="translate(0 -284.436)" fill="#3d4451"/>
    <path id="Trazado_35854" data-name="Trazado 35854" d="M347.434,354.6l1.431,3.111,6.084.667L351.4,362.3l1.051,5.475-4.8-2.788L342.88,368l1.984-6.262-2.6-2.742,3.366-.112Z" transform="translate(-289.182 -299.598)" fill="#f04f4c"/>
    <path id="Trazado_35855" data-name="Trazado 35855" d="M320.725,352.589l.945-5.608-4.084-3.958,5.626-.834,2.5-5.107,2.532,5.093,5.63.8-4.061,3.981.977,5.6-5.041-2.632Zm-.217-8.626,2.621,2.54-.606,3.6,3.225-1.708,3.235,1.689-.627-3.6,2.606-2.555-3.613-.514-1.625-3.268-1.606,3.277Z" transform="translate(-268.327 -284.8)" fill="#3d4451"/>
    <path id="Trazado_35856" data-name="Trazado 35856" d="M320.725,352.589l.945-5.608-4.084-3.958,5.626-.834,2.5-5.107,2.532,5.093,5.63.8-4.061,3.981.977,5.6-5.041-2.632Zm-.217-8.626,2.621,2.54-.606,3.6,3.225-1.708,3.235,1.689-.627-3.6,2.606-2.555-3.613-.514-1.625-3.268-1.606,3.277Z" transform="translate(-268.327 -284.8)" fill="#3d4451"/>
    <path id="Trazado_35857" data-name="Trazado 35857" d="M239.98,354.167l1.431,3.111,6.084.667-3.547,3.922L245,367.343l-4.8-2.788-4.777,3.011,1.984-6.261-2.6-2.742,3.366-.112Z" transform="translate(-198.394 -299.235)" fill="#f04f4c"/>
    <path id="Trazado_35858" data-name="Trazado 35858" d="M213.272,352.159l.945-5.608-4.084-3.958,5.626-.834,2.5-5.107,2.532,5.092,5.63.8-4.061,3.982.978,5.6L218.3,349.5Zm-.218-8.626,2.621,2.54-.606,3.6,3.225-1.708,3.235,1.689-.628-3.595,2.606-2.555-3.613-.514-1.625-3.268L216.664,343Z" transform="translate(-177.541 -284.436)" fill="#3d4451"/>
    <path id="Trazado_35859" data-name="Trazado 35859" d="M213.272,352.159l.945-5.608-4.084-3.958,5.626-.834,2.5-5.107,2.532,5.092,5.63.8-4.061,3.982.978,5.6L218.3,349.5Zm-.218-8.626,2.621,2.54-.606,3.6,3.225-1.708,3.235,1.689-.628-3.595,2.606-2.555-3.613-.514-1.625-3.268L216.664,343Z" transform="translate(-177.541 -284.436)" fill="#3d4451"/>
    <path id="Trazado_35860" data-name="Trazado 35860" d="M133.72,354.6l1.431,3.111,6.084.667-3.547,3.923,1.051,5.475-4.8-2.788L129.166,368l1.984-6.262-2.6-2.742,3.367-.112Z" transform="translate(-108.615 -299.598)" fill="#f04f4c"/>
    <path id="Trazado_35861" data-name="Trazado 35861" d="M107.013,352.589l.945-5.608-4.084-3.958,5.626-.834,2.5-5.107,2.532,5.093,5.63.8-4.061,3.981.977,5.6-5.041-2.632Zm-.218-8.626,2.621,2.54-.606,3.6,3.225-1.708,3.235,1.689-.627-3.6,2.606-2.555-3.613-.514-1.625-3.268-1.605,3.277Z" transform="translate(-87.763 -284.8)" fill="#3d4451"/>
    <path id="Trazado_35862" data-name="Trazado 35862" d="M107.013,352.589l.945-5.608-4.084-3.958,5.626-.834,2.5-5.107,2.532,5.093,5.63.8-4.061,3.981.977,5.6-5.041-2.632Zm-.218-8.626,2.621,2.54-.606,3.6,3.225-1.708,3.235,1.689-.627-3.6,2.606-2.555-3.613-.514-1.625-3.268-1.605,3.277Z" transform="translate(-87.763 -284.8)" fill="#3d4451"/>
    <path id="Trazado_35863" data-name="Trazado 35863" d="M142.948,140.62l-6.491,0,0-6.163s0-2.6,0-3.107a1.078,1.078,0,0,0-.46-.815l-3.718,0c-.612,0-.764.306-.764.306s-3.358,7.693-4.833,10.189a5.315,5.315,0,0,1-4.482,2.4l.007,13.244,4.381,0,2.854,2.443,12.072-.007a3.165,3.165,0,0,0,2.033-.741l1.449-1.215a3.166,3.166,0,0,0,1.131-2.427l-.006-10.943a3.166,3.166,0,0,0-3.168-3.164" transform="translate(-103.242 -110.292)" fill="#f5fafc"/>
    <path id="Trazado_35864" data-name="Trazado 35864" d="M141.753,176.963l-6.113,0,0-4.821s0-2.032,0-2.43a.845.845,0,0,0-.433-.637l-3.5,0c-.576,0-.719.239-.719.239s-3.163,6.018-4.553,7.971-4.221,1.875-4.221,1.875l.006,10.361,4.126,0,2.687,1.911,11.37-.006a3.371,3.371,0,0,0,1.915-.58l1.364-.951a2.334,2.334,0,0,0,1.066-1.9l0-8.56a2.426,2.426,0,0,0-1.446-2.122,3.453,3.453,0,0,0-1.538-.354" transform="translate(-103.252 -142.854)" fill="#fdc345"/>
    <path id="Trazado_35865" data-name="Trazado 35865" d="M123.828,154.829l-2.854-2.443-4.989,0-.008-15.206,1,.033a4.3,4.3,0,0,0,3.619-1.923c1.429-2.417,4.746-10.008,4.78-10.084l.02-.044a1.736,1.736,0,0,1,1.626-.84l4.01,0,.243.161a2.012,2.012,0,0,1,.891,1.617l0,8.306,5.527,0h0a4.13,4.13,0,0,1,4.129,4.128l.006,10.943a4.119,4.119,0,0,1-1.475,3.166l-1.449,1.215a4.135,4.135,0,0,1-2.652.966Zm-2.142-4.371,2.854,2.443,11.715-.006a2.206,2.206,0,0,0,1.414-.515l1.449-1.216a2.2,2.2,0,0,0,.787-1.688l-.006-10.943a2.2,2.2,0,0,0-2.2-2.2h0l-7.455,0-.006-10.085-3.214,0c-.621,1.414-3.42,7.743-4.768,10.022a5.972,5.972,0,0,1-4.347,2.794l.006,11.392Z" transform="translate(-97.989 -105.04)" fill="#3d4451"/>
    <rect id="Rectángulo_3608" data-name="Rectángulo 3608" width="14.561" height="17.419" transform="translate(6.061 31.132)" fill="#7eb9c7"/>
    <path id="Trazado_35866" data-name="Trazado 35866" d="M32.842,213.834l-.011-19.347,16.489-.009.011,19.347Zm1.918-17.42.009,15.492L47.4,211.9l-.009-15.492Z" transform="translate(-27.739 -164.314)" fill="#3d4451"/>
    <rect id="Rectángulo_3609" data-name="Rectángulo 3609" width="12.225" height="3.423" transform="translate(7.254 32.225)" fill="#f5fafc"/>
    <path id="Trazado_35867" data-name="Trazado 35867" d="M341.471,161.41a2.551,2.551,0,0,1-1.773-.827l-8.706-9.095a2.116,2.116,0,0,1,.192-3.131,2.508,2.508,0,0,1,3.352.166l6.817,7.08,14.167-16.764a2.5,2.5,0,0,1,3.334-.378,2.1,2.1,0,0,1,.4,3.09l-15.919,18.924a2.456,2.456,0,0,1-1.794.935Z" transform="translate(-279.145 -116.59)" fill="#4ece46"/>
    <path id="Trazado_35868" data-name="Trazado 35868" d="M335.785,156.743h-.075a3.583,3.583,0,0,1-2.534-1.151l-8.708-9.1a3.15,3.15,0,0,1-.891-2.385,3.185,3.185,0,0,1,1.173-2.293,3.587,3.587,0,0,1,4.788.248l6,6.236,13.41-15.869a3.579,3.579,0,0,1,4.763-.551,3.2,3.2,0,0,1,1.324,2.219,3.122,3.122,0,0,1-.733,2.409l-15.917,18.922a3.507,3.507,0,0,1-2.6,1.312m-8.772-13.615a1.44,1.44,0,0,0-.917.32,1.092,1.092,0,0,0-.409.782,1.06,1.06,0,0,0,.305.8l8.708,9.1a1.513,1.513,0,0,0,1.009.5h.075a1.432,1.432,0,0,0,.985-.559l15.919-18.924a1.03,1.03,0,0,0,.25-.793,1.11,1.11,0,0,0-.468-.762,1.448,1.448,0,0,0-1.9.206l-14.924,17.66-7.63-7.924a1.387,1.387,0,0,0-1-.4" transform="translate(-273.384 -110.866)" fill="#3d4451"/>
  </g>
</svg>
