<svg id="Grupo_17492" data-name="Grupo 17492" xmlns="http://www.w3.org/2000/svg" xmlns:xlink="http://www.w3.org/1999/xlink" width="81.109" height="68.835" viewBox="0 0 81.109 68.835">
  <defs>
    <clipPath id="clip-path">
      <rect id="Rectángulo_3622" data-name="Rectángulo 3622" width="81.109" height="68.835" fill="none"/>
    </clipPath>
  </defs>
  <g id="Grupo_17491" data-name="Grupo 17491" clip-path="url(#clip-path)">
    <path id="Trazado_35917" data-name="Trazado 35917" d="M48.06,21.8a7.7,7.7,0,1,0-7.292-7.285A7.7,7.7,0,0,0,48.06,21.8" transform="translate(-33.034 -5.199)" fill="#c7ddeb"/>
    <path id="Trazado_35918" data-name="Trazado 35918" d="M23.934,106.8v10.986H18.34v16.739c3.811.268,5.655,4.836,5.655,4.836H11.579V117.65H6.416V101.476c0-6.18,5.224-9.269,5.224-9.269" transform="translate(-5.2 -74.735)" fill="#c7ddeb"/>
    <path id="Trazado_35919" data-name="Trazado 35919" d="M316.291,21.8a7.7,7.7,0,1,1,7.293-7.285,7.7,7.7,0,0,1-7.293,7.285" transform="translate(-249.797 -5.199)" fill="#c7ddeb"/>
    <path id="Trazado_35920" data-name="Trazado 35920" d="M341.218,92.207s5.225,3.09,5.225,9.269v16.174h-5.163v21.71H328.863s1.844-4.568,5.655-4.836V117.785h-5.593V106.8" transform="translate(-266.549 -74.735)" fill="#c7ddeb"/>
    <path id="Trazado_35921" data-name="Trazado 35921" d="M101.835,103.039l6.946,6.946,4.893-.059a3.671,3.671,0,0,0,.14,1.229,7.476,7.476,0,0,0,2.578,3.265q.456.389.9.789H104.909L97.5,107.8" transform="translate(-79.026 -83.515)" fill="#c7ddeb"/>
    <path id="Trazado_35922" data-name="Trazado 35922" d="M249.237,103.039l-6.946,6.946-4.894-.059a3.666,3.666,0,0,1-.14,1.229,7.476,7.476,0,0,1-2.577,3.265c-.3.26-.6.523-.9.789h12.383l7.408-7.408" transform="translate(-189.483 -83.515)" fill="#c7ddeb"/>
    <path id="Trazado_35923" data-name="Trazado 35923" d="M196.151,125.132a3.594,3.594,0,0,0-3.63-3.331c-1.267,0-2.383,1.148-3.035,2.1-.652-.956-1.768-2.1-3.035-2.1a3.612,3.612,0,0,0-3.2,1.9,3.436,3.436,0,0,0-.4,1.429" transform="translate(-148.208 -98.722)" fill="#c7ddeb"/>
    <path id="Trazado_35924" data-name="Trazado 35924" d="M201.946,167.266c.849.759,1.681,1.534,2.554,2.271.628.531.724.422,1.242-.1.686-.684,1.461-1.422,2.229-2.176" transform="translate(-163.68 -135.572)" fill="#c7ddeb"/>
    <path id="Trazado_35925" data-name="Trazado 35925" d="M194.715,120.592q-.006-.14-.02-.282a4,4,0,0,0-3.63-3.66,3.789,3.789,0,0,0-3.495,2,3.788,3.788,0,0,0-3.515-1.994,4,4,0,0,0-3.617,3.733,4.455,4.455,0,0,0,.129,1.526,1.862,1.862,0,0,0,.423.782l6.542,7.151,6.344-6.948a3.234,3.234,0,0,0,.84-2.3" transform="translate(-146.234 -94.542)" fill="#c7ddeb"/>
    <path id="Trazado_35926" data-name="Trazado 35926" d="M43.247,17.832q-.224,0-.448-.011A8.916,8.916,0,0,1,36.95,2.614a8.916,8.916,0,1,1,6.3,15.217m.005-15.4a6.484,6.484,0,0,0-6.47,6.827,6.534,6.534,0,0,0,6.139,6.133,6.485,6.485,0,0,0,6.811-6.816A6.532,6.532,0,0,0,43.6,2.441q-.173-.009-.344-.009" transform="translate(-27.834 -0.001)" fill="#3d4451"/>
    <path id="Trazado_35927" data-name="Trazado 35927" d="M20.6,135.374H5.163v-21.71H0V96.274A12.544,12.544,0,0,1,5.821,85.958a1.216,1.216,0,1,1,1.238,2.093,10.078,10.078,0,0,0-4.628,8.223v14.959H7.595v21.71h9.111a5.2,5.2,0,0,0-3.651-2.408l-1.13-.08V111.367h5.593V101.6a1.216,1.216,0,1,1,2.431,0v12.2H14.356v14.5c3.737.981,5.487,5.211,5.566,5.408Z" transform="translate(0 -69.533)" fill="#3d4451"/>
    <path id="Trazado_35928" data-name="Trazado 35928" d="M310.7,17.831a8.915,8.915,0,0,1-8.914-9.378,8.916,8.916,0,1,1,17.808.93,8.989,8.989,0,0,1-8.446,8.437q-.224.011-.448.011m-.005-15.4c-.114,0-.229,0-.344.009a6.533,6.533,0,0,0-6.136,6.135,6.485,6.485,0,0,0,6.811,6.816,6.534,6.534,0,0,0,6.139-6.133,6.484,6.484,0,0,0-6.47-6.827" transform="translate(-244.597 0)" fill="#3d4451"/>
    <path id="Trazado_35929" data-name="Trazado 35929" d="M334.788,135.375H319.354l.674-1.671c.079-.2,1.83-4.427,5.567-5.408V113.8H320V101.6a1.216,1.216,0,0,1,2.431,0v9.771h5.593v19.088l-1.13.08a5.219,5.219,0,0,0-3.644,2.408h9.1v-21.71h5.163V96.275a10.173,10.173,0,0,0-4.628-8.223,1.216,1.216,0,1,1,1.238-2.093,12.544,12.544,0,0,1,5.822,10.316v17.39h-5.163Z" transform="translate(-258.842 -69.534)" fill="#3d4451"/>
    <path id="Trazado_35930" data-name="Trazado 35930" d="M115.273,111.223H99.2l-7.764-7.764a1.216,1.216,0,0,1,1.719-1.719l7.051,7.052h8.749a6.313,6.313,0,0,1-1.515-2.5q-.048-.168-.085-.339l-4.278.051L95.775,98.7a1.216,1.216,0,0,1,1.719-1.72l6.583,6.583,5.682-.068-.073,1.3a2.448,2.448,0,0,0,.094.823,6.51,6.51,0,0,0,2.2,2.679c.278.237.57.494.921.808Z" transform="translate(-73.825 -78.313)" fill="#3d4451"/>
    <path id="Trazado_35931" data-name="Trazado 35931" d="M233.048,111.223h-16.07l2.373-2.122c.352-.315.645-.572.92-.807a6.512,6.512,0,0,0,2.2-2.679,2.452,2.452,0,0,0,.094-.823l-.073-1.3,5.683.068,6.583-6.583a1.216,1.216,0,1,1,1.72,1.72L229.17,106l-4.278-.051q-.037.17-.085.339a6.313,6.313,0,0,1-1.515,2.5h8.749l7.051-7.052a1.216,1.216,0,0,1,1.72,1.719Z" transform="translate(-175.864 -78.313)" fill="#3d4451"/>
    <path id="Trazado_35932" data-name="Trazado 35932" d="M177.657,121.148l-.07,0a1.216,1.216,0,0,1-1.145-1.282,4.639,4.639,0,0,1,.537-1.931,4.82,4.82,0,0,1,4.272-2.548,4.451,4.451,0,0,1,3.035,1.431,4.454,4.454,0,0,1,3.035-1.431,4.831,4.831,0,0,1,2.759.838,4.912,4.912,0,0,1,2.085,3.646,1.216,1.216,0,0,1-2.428.124,2.378,2.378,0,0,0-2.416-2.177,3.125,3.125,0,0,0-2.031,1.573l-1,1.472-1-1.472a3.122,3.122,0,0,0-2.031-1.573,2.393,2.393,0,0,0-2.125,1.258,2.226,2.226,0,0,0-.256.926,1.216,1.216,0,0,1-1.213,1.147" transform="translate(-143.007 -93.521)" fill="#3d4451"/>
    <path id="Trazado_35933" data-name="Trazado 35933" d="M199.928,165.9a2.233,2.233,0,0,1-1.413-.639c-.633-.534-1.247-1.09-1.841-1.627q-.369-.334-.739-.666a1.216,1.216,0,0,1,1.621-1.813q.377.337.75.676c.5.457,1.024.927,1.548,1.376.356-.352.728-.713,1.119-1.092.312-.3.63-.611.947-.922a1.216,1.216,0,0,1,1.7,1.735c-.32.315-.642.626-.958.933-.447.433-.869.843-1.264,1.237l-.017.017a2.134,2.134,0,0,1-1.455.784" transform="translate(-158.48 -130.371)" fill="#3d4451"/>
    <path id="Trazado_35934" data-name="Trazado 35934" d="M194.715,120.592q-.006-.14-.02-.282a4,4,0,0,0-3.63-3.66,3.789,3.789,0,0,0-3.495,2,3.788,3.788,0,0,0-3.515-1.994,4,4,0,0,0-3.617,3.733,4.455,4.455,0,0,0,.129,1.526,1.862,1.862,0,0,0,.423.782l6.542,7.151,6.344-6.948a3.234,3.234,0,0,0,.84-2.3" transform="translate(-146.234 -94.542)" fill="#f04f4c"/>
    <path id="Trazado_35935" data-name="Trazado 35935" d="M182.332,126.443l-7.44-8.133a3.09,3.09,0,0,1-.7-1.291,5.669,5.669,0,0,1-.165-1.942,5.223,5.223,0,0,1,4.757-4.841,4.894,4.894,0,0,1,3.587,1.278,4.889,4.889,0,0,1,3.559-1.28,5.226,5.226,0,0,1,4.775,4.749c.012.119.021.238.026.357h0a4.467,4.467,0,0,1-1.157,3.173Zm-3.265-13.784q-.07,0-.141,0a2.782,2.782,0,0,0-2.477,2.624,3.235,3.235,0,0,0,.093,1.11.649.649,0,0,0,.144.272l5.644,6.17,5.447-5.966a2.016,2.016,0,0,0,.522-1.432c0-.069-.008-.138-.015-.207a2.78,2.78,0,0,0-2.485-2.572,2.585,2.585,0,0,0-2.37,1.377l-1.06,1.884-1.06-1.884a2.6,2.6,0,0,0-2.244-1.38" transform="translate(-141.033 -89.341)" fill="#3d4451"/>
    <path id="Trazado_35936" data-name="Trazado 35936" d="M180.012,238.975l-10.37,5.85-10.369-5.85v-11.7l10.369-5.85,10.37,5.85Z" transform="translate(-129.093 -179.469)" fill="#fdc345"/>
    <path id="Trazado_35937" data-name="Trazado 35937" d="M152.481,229.488,138.006,221.7V206l14.475-7.788L166.956,206v15.7Zm-12.368-9.047,12.368,6.654,12.368-6.654V207.258L152.481,200.6l-12.368,6.654Z" transform="translate(-111.856 -160.653)" fill="#3d4451"/>
    <rect id="Rectángulo_3618" data-name="Rectángulo 3618" width="2.107" height="14.857" transform="translate(39.373 52.83)" fill="#3d4451"/>
    <rect id="Rectángulo_3619" data-name="Rectángulo 3619" width="15.151" height="2.107" transform="matrix(0.891, -0.453, 0.453, 0.891, 40.135, 51.899)" fill="#3d4451"/>
    <rect id="Rectángulo_3620" data-name="Rectángulo 3620" width="2.107" height="15.037" transform="translate(26.751 46.912) rotate(-62.846)" fill="#3d4451"/>
    <rect id="Rectángulo_3621" data-name="Rectángulo 3621" width="2.107" height="15.113" transform="translate(33.822 43.126) rotate(-61.945)" fill="#3d4451"/>
  </g>
</svg>
