<svg id="Grupo_17494" data-name="Grupo 17494" xmlns="http://www.w3.org/2000/svg" xmlns:xlink="http://www.w3.org/1999/xlink" width="94.047" height="70.746" viewBox="0 0 94.047 70.746">
  <defs>
    <clipPath id="clip-path">
      <rect id="Rect치ngulo_3624" data-name="Rect치ngulo 3624" width="94.047" height="70.746" fill="none"/>
    </clipPath>
  </defs>
  <g id="Grupo_17493" data-name="Grupo 17493" clip-path="url(#clip-path)">
    <path id="Trazado_35938" data-name="Trazado 35938" d="M168.183,127.136a3.444,3.444,0,0,1-3.552,3.324H109.585a3.444,3.444,0,0,1-3.552-3.324V95.562a3.444,3.444,0,0,1,3.552-3.324H164.63a3.444,3.444,0,0,1,3.552,3.324Z" transform="translate(-87.691 -76.282)" fill="#c7ddeb"/>
    <path id="Trazado_35939" data-name="Trazado 35939" d="M136.676,95.829H83.232a1.268,1.268,0,0,1-1.27-1.263V60.24a1.268,1.268,0,0,1,1.27-1.263h53.445a1.268,1.268,0,0,1,1.27,1.263V94.565a1.268,1.268,0,0,1-1.27,1.263M83.232,60.134a.109.109,0,0,0-.112.106V94.565a.109.109,0,0,0,.112.106h53.445a.109.109,0,0,0,.112-.106V60.24a.109.109,0,0,0-.112-.106Z" transform="translate(-67.784 -48.775)" fill="#3d4451"/>
    <path id="Trazado_35940" data-name="Trazado 35940" d="M122.173,78.181H57.053V33.15h65.12ZM59.037,76.2h61.153V35.133H59.037Z" transform="translate(-47.184 -27.416)" fill="#3d4451"/>
    <path id="Trazado_35941" data-name="Trazado 35941" d="M291.4,31.2c0-12,9.469-21.728,21.15-21.728S333.7,19.2,333.7,31.2s-9.469,21.728-21.15,21.728S291.4,43.2,291.4,31.2" transform="translate(-240.994 -7.834)" fill="#7eb9c7"/>
    <path id="Trazado_35942" data-name="Trazado 35942" d="M412.375,3.847l-.236,24.085,22.38-2.658s-3.7-17.353-22.144-21.427" transform="translate(-340.845 -3.182)" fill="#f04f4c"/>
    <path id="Trazado_35943" data-name="Trazado 35943" d="M302.907,46.068a23.035,23.035,0,1,1,22.8-23.033,22.941,22.941,0,0,1-22.8,23.033m0-44.124A21.092,21.092,0,1,0,323.76,23.034,21,21,0,0,0,302.907,1.944" transform="translate(-231.656 -0.001)" fill="#3d4451"/>
    <path id="Trazado_35944" data-name="Trazado 35944" d="M409.347,5.493V29.581L430.922,27.5s.483,9.44-4.186,13.021L409.347,29.781" transform="translate(-338.536 -4.543)" fill="#fdc345"/>
    <path id="Trazado_35945" data-name="Trazado 35945" d="M423.075,41.465,405.231,30.441l.027-.044-.4.038V5.493h1.551V28.728l21.533-2.075.042.81c.021.4.447,9.891-4.489,13.676ZM407.727,30.16l15.232,9.41c3.148-2.876,3.479-9.006,3.491-11.214Z" transform="translate(-334.827 -4.543)" fill="#3d4451"/>
    <rect id="Rect치ngulo_3623" data-name="Rect치ngulo 3623" width="21.937" height="2.59" transform="translate(71.12 23.96) rotate(-5.796)" fill="#3d4451"/>
    <path id="Trazado_35946" data-name="Trazado 35946" d="M158.538,127.485a7.375,7.375,0,1,0-6.91-6.978,7.336,7.336,0,0,0,6.91,6.978" transform="translate(-125.391 -93.242)" fill="#3d4451"/>
    <path id="Trazado_35947" data-name="Trazado 35947" d="M114.505,198.75l-3.1,7.721a2.985,2.985,0,0,1-3.791,1.689,3.173,3.173,0,0,1-1.821-1.771,4.223,4.223,0,0,1,.273-2.8l2.982-9.6c.841-2.708,1.728-5.815,3.777-7.876a10.36,10.36,0,0,1,7.185-3.309c1.159,0,5.837-.016,8.468.151,0,0,13.8-3.567,14.614-3.7a3.447,3.447,0,0,1,2.392.379,2.161,2.161,0,0,1,.975,1.331,2.928,2.928,0,0,1-.711,2.586c-1.226,1.366-3.241,1.9-4.892,2.52l-5.877,2.205A6.841,6.841,0,0,0,131.768,190a7.293,7.293,0,0,0-1.369,2.831,20.329,20.329,0,0,0-.5,4.062c-.234,4.269-.582,8.551-.58,12.823,0,2.032.064,4.063.065,6.1a3.105,3.105,0,0,1-2.585,3.1,3.061,3.061,0,0,1-3.5-3.041V205.232h-2.8v10.238a3.109,3.109,0,0,1-2.576,3.106,3.06,3.06,0,0,1-3.507-3.039V198.75" transform="translate(-87.367 -148.198)" fill="#3d4451"/>
    <path id="Trazado_35948" data-name="Trazado 35948" d="M327.674,122.264l18.633-14.277-1.042-1.347L325.59,119.186" transform="translate(-269.268 -88.193)" fill="#3d4451"/>
    <path id="Trazado_35949" data-name="Trazado 35949" d="M16.209,296.078v-3.531h-3v3.531H9.877v3.189H13.2V302.8h3v-3.531h3.327v-3.189Z" transform="translate(-8.169 -241.941)" fill="#7eb9c7"/>
    <path id="Trazado_35950" data-name="Trazado 35950" d="M7.534,295.22H3.482V291.7H0v-4.086H3.482v-3.52H7.534v3.52h3.482V291.7H7.534Zm-3.145-.906H6.627v-3.52h3.482v-2.273H6.627V285H4.388v3.52H.906v2.273H4.388Z" transform="translate(0 -234.95)" fill="#3d4451"/>
  </g>
</svg>
