<svg id="Grupo_17480" data-name="Grupo 17480" xmlns="http://www.w3.org/2000/svg" xmlns:xlink="http://www.w3.org/1999/xlink" width="71.807" height="72.163" viewBox="0 0 71.807 72.163">
  <defs>
    <clipPath id="clip-path">
      <rect id="Rectángulo_3602" data-name="Rectángulo 3602" width="71.807" height="72.163" fill="none"/>
    </clipPath>
  </defs>
  <g id="Grupo_17479" data-name="Grupo 17479" clip-path="url(#clip-path)">
    <path id="Trazado_35783" data-name="Trazado 35783" d="M58.093,25.586a26.777,26.777,0,1,0,0,37.869,26.777,26.777,0,0,0,0-37.869M54.987,60.349a22.385,22.385,0,1,1,0-31.657,22.385,22.385,0,0,1,0,31.657" transform="translate(-10.17 -14.574)" fill="#c7ddeb"/>
    <path id="Trazado_35784" data-name="Trazado 35784" d="M310.677,315.535a2.734,2.734,0,0,1,.281,3.8l-2.576,2.576a2.734,2.734,0,0,1-3.8-.281l-9.8-9.8a2.663,2.663,0,0,1-.229-3.746l2.577-2.576a2.663,2.663,0,0,1,3.746.229Z" transform="translate(-241.395 -250.391)" fill="#c7ddeb"/>
    <path id="Trazado_35785" data-name="Trazado 35785" d="M104.94,200.005c0,1.873-6.908,3.392-15.429,3.392s-15.429-1.519-15.429-3.392,6.908-3.392,15.429-3.392,15.429,1.519,15.429,3.392" transform="translate(-60.85 -161.495)" fill="#7eb9c7"/>
    <path id="Trazado_35786" data-name="Trazado 35786" d="M27.872,55.744A27.872,27.872,0,0,1,8.163,8.163,27.872,27.872,0,0,1,47.58,47.58a27.69,27.69,0,0,1-19.708,8.163m0-53.555A25.683,25.683,0,0,0,9.711,46.033,25.683,25.683,0,0,0,46.032,9.711,25.514,25.514,0,0,0,27.872,2.189" transform="translate(0)" fill="#3d4451"/>
    <path id="Trazado_35787" data-name="Trazado 35787" d="M49.946,73.017a23.071,23.071,0,1,1,16.322-6.75,23.009,23.009,0,0,1-16.322,6.75m0-44.83A21.759,21.759,0,1,0,65.34,34.553a21.7,21.7,0,0,0-15.393-6.366" transform="translate(-22.075 -22.075)" fill="#3d4451"/>
    <path id="Trazado_35788" data-name="Trazado 35788" d="M260.761,255.534l-7.95-7.95,5.1-5.1,7.95,7.95Zm-6.37-7.95,6.37,6.37,3.518-3.519-6.37-6.37Z" transform="translate(-207.655 -199.173)" fill="#3d4451"/>
    <path id="Trazado_35789" data-name="Trazado 35789" d="M306.467,302.827c-.049,0-.1,0-.148,0a3.464,3.464,0,0,1-2.3-1.019l-9.8-9.8a3.348,3.348,0,0,1-.993-2.286,3.063,3.063,0,0,1,.893-2.269l2.767-2.766a3.067,3.067,0,0,1,2.269-.894,3.347,3.347,0,0,1,2.286.993l9.8,9.8a3.465,3.465,0,0,1,1.018,2.3,3.025,3.025,0,0,1-.868,2.3l-2.766,2.766a3.009,3.009,0,0,1-2.156.87m-7.4-18.077a2.106,2.106,0,0,0-1.506.613l-2.766,2.766a2.112,2.112,0,0,0-.613,1.565,2.392,2.392,0,0,0,.713,1.631l9.8,9.8a2.541,2.541,0,0,0,1.666.738,2.066,2.066,0,0,0,1.583-.587l2.766-2.766a2.076,2.076,0,0,0,.587-1.583,2.542,2.542,0,0,0-.738-1.666l-9.8-9.8a2.39,2.39,0,0,0-1.631-.712h-.059" transform="translate(-240.848 -233.1)" fill="#3d4451"/>
    <path id="Trazado_35790" data-name="Trazado 35790" d="M304.651,301.4c-.055,0-.11,0-.166,0a3.86,3.86,0,0,1-2.566-1.134l-9.8-9.8a3.741,3.741,0,0,1-1.109-2.555,3.454,3.454,0,0,1,1.009-2.559l2.766-2.766a3.442,3.442,0,0,1,2.559-1.009,3.739,3.739,0,0,1,2.555,1.109l9.8,9.8a3.86,3.86,0,0,1,1.134,2.566,3.416,3.416,0,0,1-.983,2.6l-2.766,2.766a3.4,3.4,0,0,1-2.434.986m-7.4-18.077a1.716,1.716,0,0,0-1.227.5l-2.766,2.766a1.72,1.72,0,0,0-.5,1.276,2,2,0,0,0,.6,1.362l9.8,9.8a2.141,2.141,0,0,0,1.4.623,1.679,1.679,0,0,0,1.286-.471l2.766-2.766a1.685,1.685,0,0,0,.472-1.287,2.141,2.141,0,0,0-.623-1.4l-9.8-9.8a2,2,0,0,0-1.362-.6h-.049" transform="translate(-239.03 -231.282)" fill="#3d4451"/>
    <path id="Trazado_35791" data-name="Trazado 35791" d="M319.995,326.605a.479.479,0,0,1-.34-.141l-9.192-9.192a.48.48,0,0,1,.679-.679l9.192,9.192a.48.48,0,0,1-.34.82" transform="translate(-254.894 -259.93)" fill="#3d4451"/>
    <rect id="Rectángulo_3598" data-name="Rectángulo 3598" width="6.077" height="22.6" transform="translate(29.256 15.046)" fill="#fdc345"/>
    <path id="Trazado_35792" data-name="Trazado 35792" d="M167.607,104.574h-7.335V80.716h7.335Zm-6.077-1.258h4.819V81.974H161.53Z" transform="translate(-131.645 -66.299)" fill="#3d4451"/>
    <rect id="Rectángulo_3599" data-name="Rectángulo 3599" width="5.294" height="14.647" transform="translate(21.626 22.999)" fill="#f04f4c"/>
    <path id="Trazado_35793" data-name="Trazado 35793" d="M124.075,141.114H117.5V125.191h6.571Zm-5.294-1.277H122.8v-13.37h-4.017Z" transform="translate(-96.516 -102.83)" fill="#3d4451"/>
    <rect id="Rectángulo_3600" data-name="Rectángulo 3600" width="4.848" height="11.261" transform="translate(37.645 26.385)" fill="#c7ddeb"/>
    <path id="Trazado_35794" data-name="Trazado 35794" d="M213.436,156.812h-6.054V144.345h6.054Zm-4.848-1.206h3.642V145.551h-3.642Z" transform="translate(-170.34 -118.563)" fill="#3d4451"/>
    <rect id="Rectángulo_3601" data-name="Rectángulo 3601" width="4.823" height="9.765" transform="translate(14.499 27.882)" fill="#7eb9c7"/>
    <path id="Trazado_35795" data-name="Trazado 35795" d="M83.831,163.7H77.805V152.73h6.026Zm-4.823-1.2h3.62v-8.561h-3.62Z" transform="translate(-63.908 -125.45)" fill="#3d4451"/>
    <path id="Trazado_35796" data-name="Trazado 35796" d="M126.661,261.082a6.187,6.187,0,1,0-5.859-5.854,6.187,6.187,0,0,0,5.859,5.854" transform="translate(-99.218 -204.292)" fill="#7eb9c7"/>
    <path id="Trazado_35797" data-name="Trazado 35797" d="M123.3,258.219q-.175,0-.351-.009a7,7,0,1,1,.351.009m-.271-1.6a5.389,5.389,0,1,0-5.1-5.1,5.411,5.411,0,0,0,5.1,5.1" transform="translate(-95.55 -200.623)" fill="#3d4451"/>
    <path id="Trazado_35798" data-name="Trazado 35798" d="M116.667,334.594a2.037,2.037,0,0,0,1.994-2.442c-1.072-5.367-5.453-10.169-10.7-10.169s-9.623,4.8-10.695,10.169a2.037,2.037,0,0,0,1.994,2.442Z" transform="translate(-79.863 -264.472)" fill="#7eb9c7"/>
    <path id="Trazado_35799" data-name="Trazado 35799" d="M113,331.722h-17.4a2.835,2.835,0,0,1-2.776-3.4c1.231-6.163,6.165-10.811,11.477-10.811s10.248,4.648,11.479,10.811a2.835,2.835,0,0,1-2.776,3.4m-8.7-12.611a9.107,9.107,0,0,0-6.349,2.84,13.129,13.129,0,0,0-3.563,6.687,1.244,1.244,0,0,0,.258,1.037,1.228,1.228,0,0,0,.953.451H113a1.228,1.228,0,0,0,.953-.451,1.244,1.244,0,0,0,.258-1.037,13.128,13.128,0,0,0-3.563-6.687,9.109,9.109,0,0,0-6.35-2.84" transform="translate(-76.193 -260.802)" fill="#3d4451"/>
  </g>
</svg>
