<svg id="Grupo_17484" data-name="Grupo 17484" xmlns="http://www.w3.org/2000/svg" xmlns:xlink="http://www.w3.org/1999/xlink" width="85.712" height="67.026" viewBox="0 0 85.712 67.026">
  <defs>
    <clipPath id="clip-path">
      <rect id="Rectángulo_3607" data-name="Rectángulo 3607" width="85.712" height="67.026" fill="none"/>
    </clipPath>
  </defs>
  <g id="Grupo_17483" data-name="Grupo 17483" clip-path="url(#clip-path)">
    <path id="Trazado_35821" data-name="Trazado 35821" d="M395.051,161a4.938,4.938,0,1,0-4.866-4.95,4.908,4.908,0,0,0,4.866,4.95" transform="translate(-317.735 -123.065)" fill="#7eb9c7"/>
    <path id="Trazado_35822" data-name="Trazado 35822" d="M379.251,148.483h-.022a8.541,8.541,0,0,1-5.928-14.558,8.326,8.326,0,0,1,5.948-2.484h.022A8.541,8.541,0,0,1,385.2,146a8.327,8.327,0,0,1-5.948,2.484m0-15.333a6.63,6.63,0,0,0-4.735,1.98,6.832,6.832,0,0,0,4.719,11.644h.017a6.63,6.63,0,0,0,4.735-1.98,6.832,6.832,0,0,0-4.719-11.644Z" transform="translate(-301.967 -107.035)" fill="#3d4451"/>
    <path id="Trazado_35823" data-name="Trazado 35823" d="M395.051,298.751a4.938,4.938,0,1,0-4.866-4.95,4.908,4.908,0,0,0,4.866,4.95" transform="translate(-317.735 -235.236)" fill="#7eb9c7"/>
    <path id="Trazado_35824" data-name="Trazado 35824" d="M379.251,286.233h-.022a8.541,8.541,0,0,1-5.928-14.558,8.327,8.327,0,0,1,5.948-2.484h.022a8.541,8.541,0,0,1,5.928,14.558,8.327,8.327,0,0,1-5.948,2.484m0-15.333a6.629,6.629,0,0,0-4.735,1.979,6.832,6.832,0,0,0,4.719,11.644h.017a6.629,6.629,0,0,0,4.735-1.979,6.832,6.832,0,0,0-4.719-11.644Z" transform="translate(-301.967 -219.207)" fill="#3d4451"/>
    <path id="Trazado_35825" data-name="Trazado 35825" d="M395.051,29.561a4.938,4.938,0,1,0-4.866-4.95,4.908,4.908,0,0,0,4.866,4.95" transform="translate(-317.735 -16.03)" fill="#7eb9c7"/>
    <path id="Trazado_35826" data-name="Trazado 35826" d="M379.251,17.042h-.022A8.541,8.541,0,0,1,373.3,2.484,8.327,8.327,0,0,1,379.25,0h.022A8.541,8.541,0,0,1,385.2,14.558a8.327,8.327,0,0,1-5.948,2.484m0-15.333a6.63,6.63,0,0,0-4.735,1.98,6.832,6.832,0,0,0,4.719,11.644h.017a6.63,6.63,0,0,0,4.735-1.98,6.832,6.832,0,0,0-4.719-11.644Z" transform="translate(-301.967)" fill="#3d4451"/>
    <path id="Trazado_35827" data-name="Trazado 35827" d="M304.733,96.268a1.131,1.131,0,0,1-.645-.2l-13.931-9.63a1.136,1.136,0,0,1-.206-1.687l13.138-14.885L289.523,57.259a1.136,1.136,0,0,1,.091-1.741l14.377-10.812a1.136,1.136,0,1,1,1.366,1.816l-13.292,10,13.383,12.436a1.137,1.137,0,0,1,.078,1.585L292.5,85.295l12.878,8.9a1.136,1.136,0,0,1-.647,2.071" transform="translate(-235.469 -36.22)" fill="#3d4451"/>
    <path id="Trazado_35828" data-name="Trazado 35828" d="M175.941,223.244a1.131,1.131,0,0,1-.544-.14l-8.44-4.617a1.136,1.136,0,1,1,1.091-1.994l8.44,4.617a1.136,1.136,0,0,1-.546,2.133" transform="translate(-135.474 -176.181)" fill="#3d4451"/>
    <path id="Trazado_35829" data-name="Trazado 35829" d="M170.258,135.914a1.136,1.136,0,0,1-.587-2.11l8.133-4.9a1.136,1.136,0,1,1,1.172,1.947l-8.133,4.9a1.13,1.13,0,0,1-.585.163" transform="translate(-137.718 -104.839)" fill="#3d4451"/>
    <path id="Trazado_35830" data-name="Trazado 35830" d="M239.347,239.323a4.466,4.466,0,1,0-4.4-4.477,4.439,4.439,0,0,0,4.4,4.477" transform="translate(-191.321 -187.612)" fill="#7eb9c7"/>
    <path id="Trazado_35831" data-name="Trazado 35831" d="M225.057,228h-.02a7.725,7.725,0,0,1-5.361-13.166,7.532,7.532,0,0,1,5.38-2.247h.019a7.725,7.725,0,0,1,5.361,13.166A7.53,7.53,0,0,1,225.057,228m0-13.867a6,6,0,0,0-4.283,1.791,6.178,6.178,0,0,0,4.268,10.531h.016a5.994,5.994,0,0,0,4.282-1.79,6.179,6.179,0,0,0-4.268-10.531Z" transform="translate(-177.061 -173.115)" fill="#3d4451"/>
    <path id="Trazado_35832" data-name="Trazado 35832" d="M236.191,99.471a4.466,4.466,0,1,0-4.4-4.477,4.439,4.439,0,0,0,4.4,4.477" transform="translate(-188.751 -73.728)" fill="#7eb9c7"/>
    <path id="Trazado_35833" data-name="Trazado 35833" d="M221.9,88.149h-.019a7.725,7.725,0,0,1-5.361-13.166,7.531,7.531,0,0,1,5.38-2.247h.02A7.725,7.725,0,0,1,227.282,85.9a7.532,7.532,0,0,1-5.38,2.247m-.015-1.546h.015a6,6,0,0,0,4.283-1.79,6.178,6.178,0,0,0-4.268-10.531H221.9a5.994,5.994,0,0,0-4.282,1.79A6.179,6.179,0,0,0,221.887,86.6" transform="translate(-174.492 -59.23)" fill="#3d4451"/>
    <path id="Trazado_35834" data-name="Trazado 35834" d="M36.076,162.015l-12.757-2.462c-1.112-.215-1.944-2.369-1.944-4.031v-1.631c0-1.662.832-3.816,1.944-4.031L36.076,147.4c1.336-.258,2.521,1.284,2.521,3.281v8.055c0,2-1.184,3.539-2.521,3.281" transform="translate(-17.406 -120.006)" fill="#f5fafc"/>
    <path id="Trazado_35835" data-name="Trazado 35835" d="M7.284,168.4a3.731,3.731,0,1,0,0,7.457" transform="translate(-2.791 -137.13)" fill="#f04f4c"/>
    <path id="Trazado_35836" data-name="Trazado 35836" d="M4.493,173.7a4.367,4.367,0,1,1,0-8.73v1.273a3.095,3.095,0,1,0,0,6.184Z" transform="translate(0 -134.339)" fill="#3d4451"/>
    <path id="Trazado_35837" data-name="Trazado 35837" d="M37.237,212.676s-3.011,3.139-.566,6.389a.41.41,0,0,1-.326.653H33.212A.713.713,0,0,1,32.5,219v-7.1" transform="translate(-26.469 -172.553)" fill="#fdc345"/>
    <path id="Trazado_35838" data-name="Trazado 35838" d="M33.553,220.355H30.422A1.35,1.35,0,0,1,29.077,219v-7.1H30.35V219a.077.077,0,0,0,.072.08h2.694c-1.8-2.8-.251-5.676.871-6.846l.92.88c-.107.113-2.6,2.8-.518,5.567a1.046,1.046,0,0,1-.835,1.672" transform="translate(-23.678 -172.554)" fill="#3d4451"/>
    <path id="Trazado_35839" data-name="Trazado 35839" d="M34.491,178.782l-12.082-1.715c-1.054-.15-1.842-1.65-1.842-2.808v-1.137c0-1.158.788-2.659,1.842-2.808L34.491,168.6a2.187,2.187,0,0,1,2.387,2.286V176.5a2.187,2.187,0,0,1-2.387,2.286" transform="translate(-16.748 -137.277)" fill="#fdc345"/>
    <path id="Trazado_35840" data-name="Trazado 35840" d="M32.525,159.079a2.408,2.408,0,0,1-.457-.044l-12.757-2.462c-1.732-.334-2.654-3.055-2.654-4.891v-1.631c0-1.836.922-4.557,2.654-4.891L32.069,142.7a2.51,2.51,0,0,1,2.1.572,4.616,4.616,0,0,1,1.467,3.568v8.055a4.616,4.616,0,0,1-1.467,3.569,2.568,2.568,0,0,1-1.639.616m-.125-1.764a.775.775,0,0,0,.649-.2,2.961,2.961,0,0,0,.83-2.218v-8.055a2.96,2.96,0,0,0-.83-2.217.774.774,0,0,0-.649-.2L19.644,146.88c-.417.08-1.234,1.566-1.234,3.171v1.631c0,1.605.817,3.091,1.235,3.171Z" transform="translate(-13.565 -116.167)" fill="#3d4451"/>
    <line id="Línea_3" data-name="Línea 3" y2="14.338" transform="translate(18.658 27.181)" fill="#fdc345"/>
    <rect id="Rectángulo_3606" data-name="Rectángulo 3606" width="1.273" height="14.338" transform="translate(18.021 27.181)" fill="#3d4451"/>
    <path id="Trazado_35841" data-name="Trazado 35841" d="M154.864,156.937l-1.378-1.4a11.919,11.919,0,0,0,.047-16.607l1.379-1.4a13.909,13.909,0,0,1-.048,19.4" transform="translate(-124.987 -111.999)" fill="#3d4451"/>
    <path id="Trazado_35842" data-name="Trazado 35842" d="M140.04,166.373l-1.379-1.4a7.944,7.944,0,0,0,.047-11.035l1.379-1.4a9.933,9.933,0,0,1-.047,13.826" transform="translate(-112.914 -124.222)" fill="#3d4451"/>
    <path id="Trazado_35843" data-name="Trazado 35843" d="M125.209,175.81l-1.38-1.4a3.977,3.977,0,0,0,.048-5.461l1.379-1.4a5.967,5.967,0,0,1-.046,8.252" transform="translate(-100.836 -136.446)" fill="#3d4451"/>
  </g>
</svg>
