<svg id="Grupo_17632" data-name="Grupo 17632" xmlns="http://www.w3.org/2000/svg" xmlns:xlink="http://www.w3.org/1999/xlink" width="176.169" height="152.093" viewBox="0 0 176.169 152.093">
  <defs>
    <clipPath id="clip-path">
      <rect id="Rectángulo_3999" data-name="Rectángulo 3999" width="176.169" height="152.093" fill="none"/>
    </clipPath>
  </defs>
  <g id="Grupo_17631" data-name="Grupo 17631" clip-path="url(#clip-path)">
    <path id="Trazado_36084" data-name="Trazado 36084" d="M176.169,364.845c0,3.742-39.437,6.776-88.084,6.776S0,368.587,0,364.845s39.437-6.776,88.084-6.776,88.084,3.033,88.084,6.776" transform="translate(0 -219.527)" fill="#c7ddeb"/>
    <rect id="Rectángulo_3994" data-name="Rectángulo 3994" width="20.955" height="97.63" transform="translate(134.653 47.35)" fill="#f5fafc"/>
    <rect id="Rectángulo_3995" data-name="Rectángulo 3995" width="12.558" height="23.875" transform="translate(23.725 118.149)" fill="#c7ddeb"/>
    <rect id="Rectángulo_3996" data-name="Rectángulo 3996" width="15.942" height="48.724" transform="translate(61.642 95.048)" fill="#7eb9c7"/>
    <rect id="Rectángulo_3997" data-name="Rectángulo 3997" width="18.233" height="71.329" transform="translate(101.107 73.729)" fill="#fdc345"/>
    <rect id="Rectángulo_3998" data-name="Rectángulo 3998" width="15.638" height="91.849" transform="translate(141.734 53.131)" fill="#f04f4c"/>
    <path id="Trazado_36085" data-name="Trazado 36085" d="M60.2,326.922H35.8V295.128H60.2Zm-20.9-3.5H56.7v-24.8h-17.4Z" transform="translate(-21.946 -180.939)" fill="#3d4451"/>
    <path id="Trazado_36086" data-name="Trazado 36086" d="M159.235,289.082H134.674v-56.5h24.561ZM138.4,285.352h17.1V236.306H138.4Z" transform="translate(-82.567 -142.59)" fill="#3d4451"/>
    <path id="Trazado_36087" data-name="Trazado 36087" d="M263.438,253.82h-26.6V174.449h26.6Zm-22.592-4h18.588V178.454H240.846Z" transform="translate(-145.205 -106.952)" fill="#3d4451"/>
    <path id="Trazado_36088" data-name="Trazado 36088" d="M369.725,218.664h-26.6V117.247h26.6Zm-22.592-4h18.588V121.251H347.133Z" transform="translate(-210.368 -71.883)" fill="#3d4451"/>
    <path id="Trazado_36089" data-name="Trazado 36089" d="M40.65,105.943,93.023,59.3l34.724-1.319L174.253,22.2l8.53,12.236L190,4.018,158.469,5.463l8.639,8.41-41.425,34.64-34.021,2.1L51.141,92.392Z" transform="translate(-24.922 -2.463)" fill="#50ce42"/>
    <path id="Trazado_36090" data-name="Trazado 36090" d="M38.187,105.034a1.554,1.554,0,0,1-1.229-2.506L47.449,88.976a1.583,1.583,0,0,1,.113-.131L88.083,47.064a1.554,1.554,0,0,1,1.02-.469l33.511-2.067,39.711-33.207-7.4-7.208a1.555,1.555,0,0,1,1.013-2.667L187.469,0a1.555,1.555,0,0,1,1.584,1.912l-7.221,30.413a1.554,1.554,0,0,1-2.788.53l-7.6-10.9-45.214,34.79a1.557,1.557,0,0,1-.889.322l-34.166,1.3L39.22,104.64a1.553,1.553,0,0,1-1.034.393M49.854,90.948l-.145.188L89.527,55.674a1.554,1.554,0,0,1,.975-.393l34.229-1.3L170.841,18.5a1.555,1.555,0,0,1,2.223.343l6.545,9.388L185.552,3.2,159.661,4.387l6.068,5.907a1.555,1.555,0,0,1-.087,2.306l-41.425,34.64a1.554,1.554,0,0,1-.9.359L89.9,49.66Z" transform="translate(-22.459 0)" fill="#3d4451"/>
  </g>
</svg>
