<svg id="Grupo_17488" data-name="Grupo 17488" xmlns="http://www.w3.org/2000/svg" xmlns:xlink="http://www.w3.org/1999/xlink" width="80.109" height="69.161" viewBox="0 0 80.109 69.161">
  <defs>
    <clipPath id="clip-path">
      <rect id="Rectángulo_3616" data-name="Rectángulo 3616" width="80.109" height="69.161" fill="none"/>
    </clipPath>
  </defs>
  <g id="Grupo_17487" data-name="Grupo 17487" clip-path="url(#clip-path)">
    <path id="Trazado_35869" data-name="Trazado 35869" d="M80.109,361.15c0,1.7-17.933,3.081-40.055,3.081S0,362.852,0,361.15s17.933-3.081,40.055-3.081,40.055,1.379,40.055,3.081" transform="translate(0 -295.07)" fill="#c7ddeb"/>
    <rect id="Rectángulo_3611" data-name="Rectángulo 3611" width="9.529" height="44.395" transform="translate(61.231 21.532)" fill="#f5fafc"/>
    <rect id="Rectángulo_3612" data-name="Rectángulo 3612" width="5.711" height="10.857" transform="translate(10.788 53.726)" fill="#c7ddeb"/>
    <rect id="Rectángulo_3613" data-name="Rectángulo 3613" width="7.249" height="22.156" transform="translate(28.031 43.221)" fill="#7eb9c7"/>
    <rect id="Rectángulo_3614" data-name="Rectángulo 3614" width="8.291" height="32.436" transform="translate(45.977 33.527)" fill="#fdc345"/>
    <rect id="Rectángulo_3615" data-name="Rectángulo 3615" width="7.111" height="41.766" transform="translate(64.451 24.16)" fill="#f04f4c"/>
    <path id="Trazado_35870" data-name="Trazado 35870" d="M46.892,309.586H35.8V295.128h11.1ZM37.387,308H45.3V296.719H37.387Z" transform="translate(-29.498 -243.203)" fill="#3d4451"/>
    <path id="Trazado_35871" data-name="Trazado 35871" d="M145.843,258.271H134.674V232.577h11.169Zm-9.473-1.7h7.777v-22.3H136.37Z" transform="translate(-110.979 -191.657)" fill="#3d4451"/>
    <path id="Trazado_35872" data-name="Trazado 35872" d="M248.936,210.542H236.842V174.449h12.094Zm-10.273-1.821h8.453V176.27h-8.453Z" transform="translate(-195.172 -143.756)" fill="#3d4451"/>
    <path id="Trazado_35873" data-name="Trazado 35873" d="M355.223,163.365H343.129V117.247h12.094Zm-10.273-1.821H353.4V119.068H344.95Z" transform="translate(-282.758 -96.618)" fill="#3d4451"/>
    <path id="Trazado_35874" data-name="Trazado 35874" d="M40.65,50.366,64.466,29.155l15.79-.6L101.4,12.284l3.879,5.564,3.284-13.83-14.34.657L98.154,8.5,79.317,24.251l-15.47.954L45.42,44.2Z" transform="translate(-33.498 -3.311)" fill="#50ce42"/>
    <path id="Trazado_35875" data-name="Trazado 35875" d="M37.339,47.762a.707.707,0,0,1-.559-1.139l4.771-6.162A.722.722,0,0,1,41.6,40.4l18.426-19a.707.707,0,0,1,.464-.213l15.238-.94,18.058-15.1L90.422,1.87A.707.707,0,0,1,90.883.657L105.222,0a.707.707,0,0,1,.72.87L102.659,14.7a.707.707,0,0,1-1.268.241L97.936,9.984,77.376,25.8a.708.708,0,0,1-.4.146l-15.537.59L37.809,47.583a.706.706,0,0,1-.47.179m5.306-6.405-.066.086L60.685,25.316a.707.707,0,0,1,.443-.179l15.565-.591L97.661,8.412a.707.707,0,0,1,1.011.156l2.976,4.269,2.7-11.381-11.773.539,2.759,2.686A.707.707,0,0,1,95.3,5.73L76.46,21.482a.707.707,0,0,1-.41.163l-15.2.937Z" transform="translate(-30.187 0)" fill="#3d4451"/>
  </g>
</svg>
