<svg xmlns="http://www.w3.org/2000/svg" width="73.473" height="70.965" viewBox="0 0 73.473 70.965">
  <g id="Grupo_17495" data-name="Grupo 17495" transform="translate(-131 -4374.129)">
    <path id="Trazado_35966" data-name="Trazado 35966" d="M70.325,196.132l-42.476-8.2c-3.7-.715-6.474-7.888-6.474-13.422v-5.431c0-5.534,2.771-12.707,6.474-13.422l42.476-8.2c4.449-.858,8.393,4.275,8.393,10.923v26.821c0,6.649-3.944,11.783-8.393,10.924" transform="translate(122.84 4229.674)" fill="#f5fafc"/>
    <path id="Trazado_35967" data-name="Trazado 35967" d="M16.268,168.4a12.422,12.422,0,1,0,0,24.831" transform="translate(129.692 4221.646)" fill="#f04f4c"/>
    <path id="Trazado_35968" data-name="Trazado 35968" d="M14.96,194.04a14.541,14.541,0,1,1,0-29.069v4.239a10.3,10.3,0,1,0,0,20.592Z" transform="translate(131 4222.956)" fill="#3d4451"/>
    <path id="Trazado_35969" data-name="Trazado 35969" d="M48.262,214.486s-10.026,10.452-1.886,21.274a1.364,1.364,0,0,1-1.087,2.174H34.861a2.372,2.372,0,0,1-2.357-2.387V211.9" transform="translate(118.592 4205.041)" fill="#fdc345"/>
    <path id="Trazado_35970" data-name="Trazado 35970" d="M43.982,240.054H33.554a4.5,4.5,0,0,1-4.477-4.506V211.9h4.238v23.648a.255.255,0,0,0,.239.268h8.972c-5.992-9.326-.837-18.9,2.9-22.8l3.063,2.93c-.357.376-8.661,9.317-1.726,18.537a3.483,3.483,0,0,1-2.78,5.567" transform="translate(119.9 4205.041)" fill="#3d4451"/>
    <path id="Trazado_35971" data-name="Trazado 35971" d="M66.929,202.551l-40.23-5.71c-3.508-.5-6.132-5.5-6.132-9.351v-3.784c0-3.856,2.624-8.853,6.132-9.351l40.23-5.711c4.214-.6,7.95,2.979,7.95,7.611V194.94c0,4.633-3.736,8.209-7.95,7.611" transform="translate(123.149 4221.577)" fill="#fdc345"/>
    <path id="Trazado_35972" data-name="Trazado 35972" d="M69.491,197.341a8.02,8.02,0,0,1-1.52-.146L25.5,189c-5.767-1.113-8.837-10.173-8.837-16.285v-5.431c0-6.112,3.071-15.172,8.837-16.285l42.476-8.2a8.356,8.356,0,0,1,6.978,1.9c3.058,2.524,4.884,6.967,4.884,11.882v26.821c0,4.915-1.826,9.357-4.884,11.882a8.549,8.549,0,0,1-5.457,2.051m-.415-5.872a2.58,2.58,0,0,0,2.16-.677c1.68-1.386,2.765-4.285,2.765-7.384V156.587c0-3.1-1.085-6-2.765-7.383a2.576,2.576,0,0,0-2.16-.677l-42.476,8.2c-1.389.268-4.11,5.214-4.11,10.559v5.431c0,5.344,2.722,10.291,4.111,10.559Z" transform="translate(124.641 4231.474)" fill="#3d4451"/>
    <line id="Línea_4" data-name="Línea 4" y2="47.741" transform="translate(193.125 4376.437)" fill="#fdc345"/>
    <rect id="Rectángulo_3860" data-name="Rectángulo 3860" width="4.238" height="47.741" transform="translate(191.005 4376.437)" fill="#3d4451"/>
  </g>
</svg>
