<svg id="Grupo_12153" data-name="Grupo 12153" xmlns="http://www.w3.org/2000/svg" xmlns:xlink="http://www.w3.org/1999/xlink" width="258.701" height="239.792" viewBox="0 0 258.701 239.792">
  <defs>
    <clipPath id="clip-path">
      <rect id="Rectángulo_3308" data-name="Rectángulo 3308" width="258.701" height="239.792" fill="none"/>
    </clipPath>
  </defs>
  <g id="Grupo_12152" data-name="Grupo 12152" clip-path="url(#clip-path)">
    <path id="Trazado_35068" data-name="Trazado 35068" d="M58.809,103.761H53.393L52.4,98.833a18.533,18.533,0,0,1-2.14-.575l-3.318,3.776-4.69-2.708,1.61-4.765A18.19,18.19,0,0,1,42.3,93l-4.764,1.611-2.711-4.69L38.6,86.6a18.427,18.427,0,0,1-.576-2.136L33.1,83.476v-5.42l4.924-.98a18.24,18.24,0,0,1,.578-2.147l-3.778-3.311,2.711-4.7L42.3,68.536a18.316,18.316,0,0,1,1.563-1.563L42.255,62.2l4.69-2.7,3.32,3.774A18.654,18.654,0,0,1,52.4,62.7l.988-4.928h5.422l.982,4.927a18.561,18.561,0,0,1,2.137.572L65.252,59.5l4.69,2.7-1.611,4.77a18.745,18.745,0,0,1,1.562,1.563l4.775-1.615,2.694,4.7-3.771,3.313a18.56,18.56,0,0,1,.575,2.143l4.924.983v5.419l-4.926.992a18.454,18.454,0,0,1-.572,2.129l3.768,3.323-2.693,4.691L69.893,93a18.5,18.5,0,0,1-1.561,1.562l1.611,4.765-4.69,2.707-3.323-3.772a18.441,18.441,0,0,1-2.138.574Zm-3.293-2.591h1.168l.917-4.6.9-.135a15.743,15.743,0,0,0,3.35-.9l.843-.327,3.1,3.52,1.012-.584L65.3,93.7l.708-.567a15.766,15.766,0,0,0,2.449-2.449l.567-.708,4.453,1.5.58-1.01-3.52-3.1.327-.843a15.956,15.956,0,0,0,.9-3.343l.137-.9,4.6-.927V80.182l-4.6-.917-.137-.9a15.958,15.958,0,0,0-.9-3.358l-.327-.845,3.521-3.094-.58-1.012-4.449,1.5-.567-.7A16.056,16.056,0,0,0,66.01,68.4l-.706-.567,1.5-4.448-1.012-.583-3.1,3.518L61.848,66a15.979,15.979,0,0,0-3.351-.9l-.9-.137-.917-4.6H55.511l-.922,4.6-.9.137a16,16,0,0,0-3.35.9l-.843.327-3.1-3.522-1.011.583,1.5,4.451-.709.567a15.812,15.812,0,0,0-2.451,2.449l-.567.709-4.447-1.506-.585,1.013,3.525,3.089-.329.846a15.78,15.78,0,0,0-.9,3.361l-.135.9-4.6.916v1.171l4.6.925.136.9a15.631,15.631,0,0,0,.9,3.347l.327.845-3.524,3.1.585,1.011,4.452-1.506.566.711a15.4,15.4,0,0,0,2.447,2.444l.71.567-1.5,4.452,1.011.583L49.5,95.2l.844.327a15.8,15.8,0,0,0,3.353.9l.9.135Z" transform="translate(-8.594 -14.999)" fill="#41464b"/>
    <path id="Trazado_35069" data-name="Trazado 35069" d="M60.034,96.478A11.785,11.785,0,1,1,71.821,84.7,11.769,11.769,0,0,1,60.034,96.478" transform="translate(-12.525 -18.928)" fill="#4cbed8"/>
    <path id="Trazado_35070" data-name="Trazado 35070" d="M61.834,93.146a6.651,6.651,0,1,1,6.652-6.65,6.66,6.66,0,0,1-6.652,6.65m0-10.711A4.06,4.06,0,1,0,65.9,86.5a4.067,4.067,0,0,0-4.061-4.061" transform="translate(-14.325 -20.728)" fill="#41464b"/>
    <path id="Trazado_35071" data-name="Trazado 35071" d="M125.332,317.954a3.158,3.158,0,0,0,.912,2.232,3.221,3.221,0,0,0,2.229.925h17.4a3.134,3.134,0,0,0,2.225-.925,3.047,3.047,0,0,0,.93-2.232v-3.506H125.332Z" transform="translate(-32.538 -81.634)" fill="#ff7443"/>
    <rect id="Rectángulo_3253" data-name="Rectángulo 3253" width="47.4" height="28.33" transform="translate(80.916 204.483)" fill="#afafaf"/>
    <path id="Trazado_35072" data-name="Trazado 35072" d="M144.59,221.763H94.606v-6.6a46.089,46.089,0,0,0-15.03-33.953l-.592-.512c-.381-.329-.757-.655-1.132-.991a62.058,62.058,0,0,1-20.17-45.766,61.34,61.34,0,0,1,5.3-25.092l2.368,1.053a58.777,58.777,0,0,0-5.078,24.04A59.456,59.456,0,0,0,79.59,177.789c.355.317.72.633,1.089.951l.623.54a48.7,48.7,0,0,1,15.9,35.885v4.005H142v-4.005A48.7,48.7,0,0,1,157.85,179.3c.319-.278.615-.533.911-.788s.57-.491.857-.741A59.345,59.345,0,0,0,129.37,75.407l-1.084-.179V64.178h-17.4v11.07l-1.082.181a58.729,58.729,0,0,0-19.075,6.693l-1.265-2.26a61.239,61.239,0,0,1,18.832-6.8V61.587h22.582V73.04A61.936,61.936,0,0,1,161.345,179.7c-.313.274-.6.524-.894.774s-.581.5-.874.756a46.082,46.082,0,0,0-14.987,33.933Z" transform="translate(-14.975 -15.989)" fill="#41464b"/>
    <rect id="Rectángulo_3254" data-name="Rectángulo 3254" width="56.694" height="2.591" transform="translate(76.274 203.188)" fill="#41464b"/>
    <rect id="Rectángulo_3255" data-name="Rectángulo 3255" width="52.037" height="2.591" transform="translate(78.591 208.853)" fill="#41464b"/>
    <rect id="Rectángulo_3256" data-name="Rectángulo 3256" width="52.037" height="2.591" transform="translate(78.591 214.526)" fill="#41464b"/>
    <rect id="Rectángulo_3257" data-name="Rectángulo 3257" width="52.037" height="2.591" transform="translate(78.591 220.186)" fill="#41464b"/>
    <rect id="Rectángulo_3258" data-name="Rectángulo 3258" width="52.037" height="2.591" transform="translate(78.591 225.869)" fill="#41464b"/>
    <rect id="Rectángulo_3259" data-name="Rectángulo 3259" width="56.694" height="2.591" transform="translate(76.274 231.517)" fill="#41464b"/>
    <path id="Trazado_35073" data-name="Trazado 35073" d="M87.329,145.3a39.981,39.981,0,1,0,40-39.986,39.992,39.992,0,0,0-40,39.986" transform="translate(-22.672 -27.339)" fill="#ff7443"/>
    <path id="Trazado_35074" data-name="Trazado 35074" d="M116.329,152.824a18.51,18.51,0,1,0,18.519-18.512,18.515,18.515,0,0,0-18.519,18.512" transform="translate(-30.2 -34.869)" fill="#fff"/>
    <path id="Trazado_35075" data-name="Trazado 35075" d="M75.474,155.395l-2.588-.135q.034-.664.086-1.326l2.583.2q-.049.628-.081,1.26" transform="translate(-18.922 -39.963)" fill="#41464b"/>
    <path id="Trazado_35076" data-name="Trazado 35076" d="M75.942,135.383l-2.569-.335c.114-.877.252-1.759.412-2.623l2.548.469c-.151.82-.283,1.658-.392,2.489m.914-4.954-2.52-.6c.205-.858.436-1.721.686-2.566l2.485.735c-.238.8-.456,1.62-.651,2.434m1.43-4.834-2.442-.866c.295-.831.615-1.667.954-2.483l2.393.994c-.321.774-.626,1.566-.906,2.355m1.934-4.659-2.338-1.117c.382-.8.789-1.6,1.21-2.368l2.275,1.24c-.4.731-.785,1.487-1.147,2.245m2.411-4.428-2.207-1.357c.46-.748.947-1.5,1.45-2.226l2.134,1.47c-.477.692-.94,1.4-1.376,2.113m2.861-4.151-2.054-1.58c.537-.7,1.1-1.393,1.673-2.063l1.969,1.684c-.544.637-1.079,1.3-1.589,1.959m3.277-3.831-1.879-1.785c.611-.643,1.242-1.273,1.878-1.877l1.784,1.88c-.6.572-1.2,1.172-1.783,1.782m3.655-3.469-1.684-1.97c.672-.574,1.365-1.136,2.063-1.671l1.579,2.055c-.662.509-1.321,1.042-1.958,1.587m3.994-3.069-1.47-2.135c.725-.5,1.473-.986,2.224-1.447l1.356,2.208c-.712.438-1.423.9-2.111,1.374m4.291-2.635-1.239-2.277c.775-.421,1.57-.828,2.363-1.207l1.117,2.338c-.752.359-1.506.745-2.241,1.145m4.539-2.172-.993-2.393c.816-.339,1.649-.659,2.475-.952l.866,2.443c-.783.278-1.573.582-2.348.9m4.739-1.681-.737-2.485c.846-.25,1.71-.482,2.566-.687l.6,2.52c-.812.195-1.63.414-2.433.652m4.9-1.176-.471-2.548c.867-.161,1.75-.3,2.622-.415l.338,2.569c-.828.109-1.666.241-2.489.393" transform="translate(-19.048 -23.719)" fill="#41464b"/>
    <path id="Trazado_35077" data-name="Trazado 35077" d="M136.172,93.538l-.2-2.583q.662-.052,1.327-.086l.134,2.588q-.632.033-1.26.081" transform="translate(-35.3 -23.591)" fill="#41464b"/>
    <path id="Trazado_35078" data-name="Trazado 35078" d="M146.022,93.539c-.418-.032-.839-.06-1.26-.081l.134-2.588q.665.033,1.327.086Z" transform="translate(-37.582 -23.591)" fill="#41464b"/>
    <path id="Trazado_35079" data-name="Trazado 35079" d="M191.278,135.344c-.107-.826-.241-1.663-.392-2.487l2.548-.471c.161.868.3,1.75.415,2.622Zm-.916-4.95c-.195-.814-.415-1.633-.652-2.432l2.485-.737c.25.843.48,1.705.688,2.564Zm-1.43-4.823c-.278-.784-.581-1.573-.9-2.346l2.392-.994c.338.814.659,1.647.952,2.474ZM187,120.928c-.358-.749-.743-1.5-1.145-2.24l2.277-1.239c.423.778.83,1.573,1.206,2.362Zm-2.406-4.419c-.435-.709-.9-1.419-1.372-2.109l2.133-1.47c.5.728.988,1.476,1.447,2.224Zm-2.854-4.145c-.509-.664-1.044-1.323-1.586-1.957l1.97-1.684c.57.668,1.133,1.362,1.67,2.061Zm-3.273-3.829c-.575-.606-1.174-1.206-1.78-1.782l1.784-1.879c.638.607,1.27,1.239,1.876,1.878Zm-3.652-3.469c-.638-.546-1.3-1.08-1.958-1.588l1.58-2.054c.7.535,1.389,1.1,2.061,1.673Zm-4-3.073c-.688-.475-1.4-.937-2.112-1.376l1.357-2.207c.751.461,1.5.949,2.226,1.449Zm-4.293-2.639c-.734-.4-1.489-.786-2.243-1.148l1.116-2.337c.8.381,1.593.788,2.367,1.21Zm-4.547-2.176c-.772-.321-1.564-.625-2.352-.9l.865-2.443c.832.295,1.667.616,2.482.954Zm-4.752-1.685c-.8-.236-1.617-.456-2.433-.652l.606-2.52c.859.206,1.722.438,2.563.686Zm-4.9-1.174c-.823-.152-1.661-.284-2.488-.392l.335-2.569c.873.114,1.755.253,2.622.413Z" transform="translate(-38.903 -23.718)" fill="#41464b"/>
    <path id="Trazado_35080" data-name="Trazado 35080" d="M206.246,155.395q-.033-.632-.081-1.26l2.583-.2q.052.662.086,1.326Z" transform="translate(-53.523 -39.963)" fill="#41464b"/>
    <path id="Trazado_35081" data-name="Trazado 35081" d="M123.578,210.947a50.711,50.711,0,0,1-50.692-48.088l2.588-.133a48.121,48.121,0,0,0,48.1,45.63Z" transform="translate(-18.922 -42.246)" fill="#41464b"/>
    <path id="Trazado_35082" data-name="Trazado 35082" d="M141.353,210.947v-2.591a48.1,48.1,0,0,0,48.067-45.63l2.588.133a50.692,50.692,0,0,1-50.655,48.088" transform="translate(-36.697 -42.246)" fill="#41464b"/>
    <path id="Trazado_35083" data-name="Trazado 35083" d="M210.64,161.84h-7.774v-7.774h7.774Zm-5.183-2.591h2.591v-2.591h-2.591Z" transform="translate(-52.666 -39.997)" fill="#41464b"/>
    <path id="Trazado_35084" data-name="Trazado 35084" d="M77.068,161.84H69.294v-7.774h7.774Zm-5.183-2.591h2.591v-2.591H71.885Z" transform="translate(-17.99 -39.997)" fill="#41464b"/>
    <path id="Trazado_35085" data-name="Trazado 35085" d="M143.878,95.052H136.1V87.278h7.774ZM138.7,92.461h2.591V89.869H138.7Z" transform="translate(-35.334 -22.658)" fill="#41464b"/>
    <rect id="Rectángulo_3260" data-name="Rectángulo 3260" width="23.691" height="49.353" transform="translate(92.794 148.467)" fill="#fed65c"/>
    <path id="Trazado_35086" data-name="Trazado 35086" d="M147.393,189.041l-10.639-27.4-10.636,27.4L123.7,188.1l13.052-33.622L149.809,188.1Z" transform="translate(-32.114 -40.105)" fill="#41464b"/>
    <rect id="Rectángulo_3261" data-name="Rectángulo 3261" width="7.888" height="2.591" transform="translate(100.696 127.656)" fill="#41464b"/>
    <path id="Trazado_35087" data-name="Trazado 35087" d="M148.569,250.72H124.878a1.3,1.3,0,0,1-1.3-1.3V200.072a1.3,1.3,0,0,1,1.3-1.3H148.57a1.3,1.3,0,0,1,1.3,1.3v49.353a1.3,1.3,0,0,1-1.3,1.3m-22.4-2.591h21.1V201.367h-21.1Z" transform="translate(-32.083 -51.605)" fill="#41464b"/>
    <path id="Trazado_35088" data-name="Trazado 35088" d="M144.371,250.72H133.6a1.3,1.3,0,0,1-1.3-1.3l0-49.353a1.3,1.3,0,0,1,1.3-1.3h10.765a1.294,1.294,0,0,1,1.3,1.3v49.353a1.3,1.3,0,0,1-1.3,1.3m-9.473-2.591h8.178V201.367H134.9Z" transform="translate(-34.348 -51.605)" fill="#41464b"/>
    <path id="Trazado_35089" data-name="Trazado 35089" d="M149.866,274.689H123.582v-9.255h26.284ZM126.173,272.1h21.1v-4.072h-21.1Z" transform="translate(-32.083 -68.91)" fill="#41464b"/>
    <path id="Trazado_35090" data-name="Trazado 35090" d="M147.817,61.081H121.574a5.7,5.7,0,1,1,0-11.409h26.242a5.7,5.7,0,1,1,0,11.409m-26.242-8.818a3.113,3.113,0,1,0,0,6.227h26.242a3.113,3.113,0,1,0,0-6.227Z" transform="translate(-30.081 -12.895)" fill="#41464b"/>
    <path id="Trazado_35091" data-name="Trazado 35091" d="M234.815,118.863h-2.591V21.145a5.333,5.333,0,0,0-10.666,0V41.509a7.912,7.912,0,0,1-15.824,0V34.317a5.315,5.315,0,1,0-10.63,0V53.092a7.909,7.909,0,1,1-15.818,0V7.91a5.319,5.319,0,1,0-10.637,0V23.8a7.911,7.911,0,0,1-15.823,0V20.691a5.316,5.316,0,1,0-10.631,0V33.644H139.6V20.691a7.907,7.907,0,1,1,15.814,0V23.8a5.32,5.32,0,0,0,10.64,0V7.91a7.91,7.91,0,1,1,15.82,0V53.092a5.318,5.318,0,1,0,10.636,0V34.317a7.907,7.907,0,1,1,15.813,0v7.192a5.32,5.32,0,0,0,10.641,0V21.145a7.924,7.924,0,0,1,15.849,0Z" transform="translate(-36.243)" fill="#41464b"/>
    <path id="Trazado_35092" data-name="Trazado 35092" d="M275.468,174.4h-22.24a4.446,4.446,0,0,1,0-8.891h22.24a4.446,4.446,0,0,1,0,8.891m-22.24-6.3a1.854,1.854,0,0,0,0,3.709h22.24a1.854,1.854,0,0,0,0-3.709Z" transform="translate(-64.587 -42.967)" fill="#41464b"/>
    <path id="Trazado_35093" data-name="Trazado 35093" d="M287.835,267.942h-60.29a4.34,4.34,0,0,1-3.158-1.323,4.275,4.275,0,0,1-1.294-3.123v-7.178l25.425-44.037V174.014h18.327v38.268l25.415,44.036V263.5a4.4,4.4,0,0,1-1.282,3.142,4.449,4.449,0,0,1-3.143,1.3m-62.15-10.93V263.5a1.736,1.736,0,0,0,.528,1.285,1.8,1.8,0,0,0,1.333.57h60.29a1.843,1.843,0,0,0,1.317-.552,1.806,1.806,0,0,0,.517-1.3v-6.484l-25.415-44.036v-36.37H251.109v36.369Z" transform="translate(-57.918 -45.176)" fill="#41464b"/>
    <path id="Trazado_35094" data-name="Trazado 35094" d="M246.086,255.853l-13.606,23.572v2.8h55.274v-2.8l-13.612-23.572Z" transform="translate(-60.354 -66.422)" fill="#4cbed8"/>
    <path id="Trazado_35095" data-name="Trazado 35095" d="M261.745,241.911a3.8,3.8,0,1,1,3.794-3.8,3.8,3.8,0,0,1-3.794,3.8m0-5a1.206,1.206,0,1,0,1.2,1.2,1.205,1.205,0,0,0-1.2-1.2" transform="translate(-66.967 -60.831)" fill="#41464b"/>
    <path id="Trazado_35096" data-name="Trazado 35096" d="M255.462,282.118h-.029a4.473,4.473,0,0,1-3.157-1.294l1.819-1.847a1.893,1.893,0,0,0,1.338.549Zm3.183-1.342-1.843-1.822a1.905,1.905,0,0,0,.555-1.348l2.591-.013v.013a4.481,4.481,0,0,1-1.3,3.17m-7.715-3.137v-.033a4.49,4.49,0,0,1,1.281-3.15l1.856,1.808a1.912,1.912,0,0,0-.546,1.342Zm5.86-1.393a1.916,1.916,0,0,0-1.357-.56l-.031-2.153,0-.438h0a4.5,4.5,0,0,1,3.211,1.312Z" transform="translate(-65.144 -70.899)" fill="#41464b"/>
    <path id="Trazado_35097" data-name="Trazado 35097" d="M275.127,273.072l-.017-2.591a4.4,4.4,0,0,0,1.913-.446l1.137,2.329a6.962,6.962,0,0,1-3.033.709m-3.044-.674a7.055,7.055,0,0,1-2.447-1.927l2.014-1.63a4.453,4.453,0,0,0,1.544,1.216Zm8.5-1.988-2.031-1.61a4.428,4.428,0,0,0,.846-1.77l2.528.566a7.036,7.036,0,0,1-1.344,2.813m-12.324-2.738a7.07,7.07,0,0,1-.026-3.113l2.532.552a4.479,4.479,0,0,0-.1.949,4.418,4.418,0,0,0,.118,1.018Zm11.132-2.608a4.43,4.43,0,0,0-.857-1.765l2.021-1.622a7.025,7.025,0,0,1,1.361,2.8Zm-7.79-1.728-2.04-1.6a7.058,7.058,0,0,1,2.417-1.966l1.147,2.323a4.462,4.462,0,0,0-1.524,1.24m5.392-1.26a4.391,4.391,0,0,0-1.916-.434l-.041-1.922.015-.669h0a6.986,6.986,0,0,1,3.062.689Z" transform="translate(-69.596 -67.253)" fill="#41464b"/>
    <rect id="Rectángulo_3262" data-name="Rectángulo 3262" width="4.442" height="2.591" transform="translate(191.896 166.156)" fill="#41464b"/>
    <rect id="Rectángulo_3263" data-name="Rectángulo 3263" width="4.442" height="2.591" transform="translate(191.896 160.825)" fill="#41464b"/>
    <rect id="Rectángulo_3264" data-name="Rectángulo 3264" width="4.442" height="2.591" transform="translate(191.896 155.495)" fill="#41464b"/>
    <rect id="Rectángulo_3265" data-name="Rectángulo 3265" width="4.442" height="2.591" transform="translate(191.896 150.163)" fill="#41464b"/>
    <rect id="Rectángulo_3266" data-name="Rectángulo 3266" width="4.442" height="2.591" transform="translate(191.896 144.832)" fill="#41464b"/>
    <rect id="Rectángulo_3267" data-name="Rectángulo 3267" width="4.442" height="2.591" transform="translate(191.896 139.501)" fill="#41464b"/>
    <rect id="Rectángulo_3268" data-name="Rectángulo 3268" width="4.442" height="2.591" transform="translate(191.896 134.169)" fill="#41464b"/>
    <path id="Trazado_35098" data-name="Trazado 35098" d="M330.131,75.166a15,15,0,1,1-15-15,15,15,0,0,1,15,15" transform="translate(-77.917 -15.62)" fill="#afafaf"/>
    <rect id="Rectángulo_3269" data-name="Rectángulo 3269" width="2.591" height="14.289" transform="translate(235.921 49.903)" fill="#41464b"/>
    <rect id="Rectángulo_3270" data-name="Rectángulo 3270" width="2.591" height="2.499" transform="translate(235.921 66.692)" fill="#41464b"/>
    <path id="Trazado_35099" data-name="Trazado 35099" d="M312.862,94.381a21.485,21.485,0,1,1,21.485-21.488,21.51,21.51,0,0,1-21.485,21.488m0-40.379a18.894,18.894,0,1,0,18.894,18.891A18.913,18.913,0,0,0,312.862,54" transform="translate(-75.645 -13.347)" fill="#41464b"/>
    <rect id="Rectángulo_3271" data-name="Rectángulo 3271" width="2.591" height="8.882" transform="translate(235.921 79.738)" fill="#41464b"/>
    <path id="Trazado_35100" data-name="Trazado 35100" d="M318.808,148.218a4.525,4.525,0,0,1-4.522-4.528V117.943h9.048V143.69a4.531,4.531,0,0,1-4.525,4.528m-1.931-27.684V143.69a1.911,1.911,0,0,0,.561,1.365,1.969,1.969,0,0,0,2.736,0,1.93,1.93,0,0,0,.567-1.367V120.534Z" transform="translate(-81.592 -30.619)" fill="#41464b"/>
    <rect id="Rectángulo_3272" data-name="Rectángulo 3272" width="6.456" height="2.591" transform="translate(233.989 93.84)" fill="#41464b"/>
    <rect id="Rectángulo_3273" data-name="Rectángulo 3273" width="14.541" height="2.591" transform="translate(229.943 87.324)" fill="#41464b"/>
    <path id="Trazado_35101" data-name="Trazado 35101" d="M302.285,208.3l-.464-2.549a5.488,5.488,0,0,0,1.944-.757l1.377,2.2a8.063,8.063,0,0,1-2.857,1.111m-3.064-.032a8.117,8.117,0,0,1-2.832-1.163l1.415-2.171a5.545,5.545,0,0,0,1.932.8Zm8.163-3.156-2.083-1.542a5.519,5.519,0,0,0,.908-1.882l2.5.666a8.14,8.14,0,0,1-1.329,2.758m-13.2-.118a8.094,8.094,0,0,1-1.288-2.78l2.516-.624a5.5,5.5,0,0,0,.877,1.893Zm14.8-5.544h-2.591V196.86h2.591Zm-13.736-.122h-2.591v-2.591h2.591Zm13.736-5.061h-2.591v-2.591h2.591Zm-13.736-.122h-2.591v-2.591h2.591Zm13.736-5.061h-2.591v-2.591h2.591Zm-13.736-.122h-2.591v-2.591h2.591Zm13.736-5.061h-2.591v-2.591h2.591Zm-13.736-.122h-2.591V181.19h2.591Zm13.736-5.061h-2.591v-2.591h2.591Zm-13.736-.122h-2.591v-2.591h2.591Zm13.736-5.061h-2.591v-2.591h2.591Zm-13.736-.122h-2.591v-2.591h2.591Zm13.736-5.061h-2.591v-2.591h2.591Zm-13.736-.122h-2.591v-2.591h2.591Zm13.736-5.061h-2.591v-2.591h2.591Zm-13.736-.122h-2.591v-2.591h2.591Zm13.736-5.061h-2.591V155.4h2.591Zm-13.736-.122h-2.591v-2.591h2.591Zm13.736-5.061h-2.591v-2.591h2.591Zm-13.736-.122h-2.591v-2.591h2.591Zm-21.2-4.613h-2.591V145.48h2.591Zm21.2-.569h-2.591v-2.591h2.591Zm-21.2-4.613h-2.591V140.3h2.591Zm21.2-.569h-2.591v-2.591h2.591Zm-21.2-4.613h-2.591v-2.591h2.591Zm21.2-.569h-2.591v-2.591h2.591Zm-21.2-4.613h-2.591v-2.591h2.591Zm21.2-.569h-2.591v-2.591h2.591Zm-21.2-4.613h-2.591v-.449a11.872,11.872,0,0,1,.244-2.388l2.538.523a9.308,9.308,0,0,0-.19,1.867Zm18.613-.5a9.249,9.249,0,0,0-.29-2.249l2.511-.644a11.868,11.868,0,0,1,.37,2.877Zm-17.7-3.958-2.333-1.128a11.95,11.95,0,0,1,1.569-2.436l1.993,1.655a9.423,9.423,0,0,0-1.229,1.909m16.577-.4a9.478,9.478,0,0,0-1.317-1.852l1.916-1.744a12.037,12.037,0,0,1,1.678,2.361Zm-13.7-3.07-1.542-2.083a11.963,11.963,0,0,1,2.523-1.43l.994,2.393a9.347,9.347,0,0,0-1.975,1.119m10.658-.264a9.256,9.256,0,0,0-2.023-1.023l.877-2.438a11.9,11.9,0,0,1,2.588,1.308Zm-6.5-1.462-.38-2.563a11.982,11.982,0,0,1,2.9-.073l-.25,2.579a9.471,9.471,0,0,0-2.268.058" transform="translate(-70.472 -29.854)" fill="#41464b"/>
    <path id="Trazado_35102" data-name="Trazado 35102" d="M215.784,313.713h-2.591V292.318h-2.407v21.394h-2.591V289.727h7.59Z" transform="translate(-54.05 -75.217)" fill="#41464b"/>
    <path id="Trazado_35103" data-name="Trazado 35103" d="M328.757,313.713h-2.591V292.318h-2.414v21.394H321.16V289.727h7.6Z" transform="translate(-83.377 -75.217)" fill="#41464b"/>
    <rect id="Rectángulo_3274" data-name="Rectángulo 3274" width="100.73" height="2.591" transform="translate(149.407 220.18)" fill="#41464b"/>
    <rect id="Rectángulo_3275" data-name="Rectángulo 3275" width="68.411" height="6.843" transform="translate(1.296 231.653)" fill="#4cbed8"/>
    <path id="Trazado_35104" data-name="Trazado 35104" d="M71,320.565H0V311.13H71ZM2.591,317.973h65.82v-4.252H2.591Z" transform="translate(0 -80.773)" fill="#41464b"/>
    <path id="Trazado_35105" data-name="Trazado 35105" d="M21.937,278.249a4.787,4.787,0,0,0-8.173,3.386v15.051h9.578V281.634a4.778,4.778,0,0,0-1.4-3.386" transform="translate(-3.573 -71.873)" fill="#fed65c"/>
    <path id="Trazado_35106" data-name="Trazado 35106" d="M25.516,311.323H9.242v-9.432H25.516Zm-13.683-2.591H22.924v-4.249H11.833Z" transform="translate(-2.399 -78.374)" fill="#41464b"/>
    <rect id="Rectángulo_3276" data-name="Rectángulo 3276" width="2.591" height="9.008" transform="translate(13.682 215.805)" fill="#41464b"/>
    <rect id="Rectángulo_3277" data-name="Rectángulo 3277" width="2.591" height="3.378" transform="translate(13.682 198.192)" fill="#41464b"/>
    <rect id="Rectángulo_3278" data-name="Rectángulo 3278" width="3.378" height="2.591" transform="matrix(0.5, -0.866, 0.866, 0.5, 17.952, 202.019)" fill="#41464b"/>
    <rect id="Rectángulo_3279" data-name="Rectángulo 3279" width="2.591" height="3.378" transform="translate(8.07 200.388) rotate(-29.993)" fill="#41464b"/>
    <path id="Trazado_35107" data-name="Trazado 35107" d="M49.658,278.249a4.791,4.791,0,0,0-8.177,3.386v15.051h9.578V281.634a4.775,4.775,0,0,0-1.4-3.386" transform="translate(-10.769 -71.873)" fill="#fed65c"/>
    <path id="Trazado_35108" data-name="Trazado 35108" d="M53.233,311.323H36.959v-9.432H53.233ZM39.55,308.731H50.641v-4.249H39.55Z" transform="translate(-9.595 -78.374)" fill="#41464b"/>
    <rect id="Rectángulo_3280" data-name="Rectángulo 3280" width="2.591" height="9.008" transform="translate(34.207 215.805)" fill="#41464b"/>
    <rect id="Rectángulo_3281" data-name="Rectángulo 3281" width="2.591" height="3.378" transform="translate(34.207 198.192)" fill="#41464b"/>
    <rect id="Rectángulo_3282" data-name="Rectángulo 3282" width="3.378" height="2.591" transform="translate(38.477 202.019) rotate(-59.999)" fill="#41464b"/>
    <rect id="Rectángulo_3283" data-name="Rectángulo 3283" width="2.591" height="3.379" transform="matrix(0.866, -0.5, 0.5, 0.866, 28.594, 200.389)" fill="#41464b"/>
    <path id="Trazado_35109" data-name="Trazado 35109" d="M77.377,278.249a4.788,4.788,0,0,0-8.174,3.386v15.051h9.578V281.634a4.762,4.762,0,0,0-1.4-3.386" transform="translate(-17.966 -71.873)" fill="#fed65c"/>
    <path id="Trazado_35110" data-name="Trazado 35110" d="M80.956,311.323H64.683v-9.432H80.956Zm-13.682-2.591h11.09v-4.249H67.274Z" transform="translate(-16.792 -78.374)" fill="#41464b"/>
    <rect id="Rectángulo_3284" data-name="Rectángulo 3284" width="2.591" height="9.008" transform="translate(54.729 215.805)" fill="#41464b"/>
    <rect id="Rectángulo_3285" data-name="Rectángulo 3285" width="2.591" height="3.378" transform="translate(54.729 198.192)" fill="#41464b"/>
    <rect id="Rectángulo_3286" data-name="Rectángulo 3286" width="3.379" height="2.591" transform="matrix(0.5, -0.866, 0.866, 0.5, 59.001, 202.018)" fill="#41464b"/>
    <rect id="Rectángulo_3287" data-name="Rectángulo 3287" width="2.591" height="3.378" transform="matrix(0.866, -0.5, 0.5, 0.866, 49.117, 200.388)" fill="#41464b"/>
    <path id="Trazado_35111" data-name="Trazado 35111" d="M25.2,154.038a9.811,9.811,0,1,1,9.811-9.812,9.823,9.823,0,0,1-9.811,9.812m0-17.031a7.22,7.22,0,1,0,7.22,7.22,7.229,7.229,0,0,0-7.22-7.22" transform="translate(-3.995 -34.896)" fill="#41464b"/>
    <path id="Trazado_35112" data-name="Trazado 35112" d="M27.086,150.546a4.434,4.434,0,1,1,4.436-4.433,4.441,4.441,0,0,1-4.436,4.433m0-6.276a1.842,1.842,0,1,0,1.844,1.843,1.848,1.848,0,0,0-1.844-1.843" transform="translate(-5.879 -36.781)" fill="#41464b"/>
    <rect id="Rectángulo_3288" data-name="Rectángulo 3288" width="2.591" height="3.418" transform="translate(19.911 97.397)" fill="#41464b"/>
    <rect id="Rectángulo_3289" data-name="Rectángulo 3289" width="2.592" height="3.415" transform="translate(14.117 99.646) rotate(-29.995)" fill="#41464b"/>
    <rect id="Rectángulo_3290" data-name="Rectángulo 3290" width="2.591" height="3.418" transform="translate(10.224 104.487) rotate(-60.013)" fill="#41464b"/>
    <rect id="Rectángulo_3291" data-name="Rectángulo 3291" width="3.416" height="2.591" transform="translate(9.273 108.035)" fill="#41464b"/>
    <rect id="Rectángulo_3292" data-name="Rectángulo 3292" width="3.419" height="2.591" transform="matrix(0.866, -0.501, 0.501, 0.866, 10.223, 114.176)" fill="#41464b"/>
    <rect id="Rectángulo_3293" data-name="Rectángulo 3293" width="3.414" height="2.592" transform="matrix(0.5, -0.866, 0.866, 0.5, 14.118, 119.014)" fill="#41464b"/>
    <rect id="Rectángulo_3294" data-name="Rectángulo 3294" width="2.591" height="3.416" transform="translate(19.911 117.847)" fill="#41464b"/>
    <rect id="Rectángulo_3295" data-name="Rectángulo 3295" width="2.591" height="3.415" transform="matrix(0.866, -0.501, 0.501, 0.866, 24.338, 117.355)" fill="#41464b"/>
    <rect id="Rectángulo_3296" data-name="Rectángulo 3296" width="2.591" height="3.42" transform="matrix(0.5, -0.866, 0.866, 0.5, 27.931, 114.708)" fill="#41464b"/>
    <rect id="Rectángulo_3297" data-name="Rectángulo 3297" width="3.415" height="2.591" transform="translate(29.721 108.035)" fill="#41464b"/>
    <rect id="Rectángulo_3298" data-name="Rectángulo 3298" width="3.419" height="2.591" transform="matrix(0.866, -0.5, 0.5, 0.866, 27.932, 103.951)" fill="#41464b"/>
    <rect id="Rectángulo_3299" data-name="Rectángulo 3299" width="3.416" height="2.591" transform="matrix(0.501, -0.866, 0.866, 0.501, 24.338, 101.308)" fill="#41464b"/>
    <rect id="Rectángulo_3300" data-name="Rectángulo 3300" width="2.591" height="3.229" transform="translate(44.725 165.745) rotate(-45.019)" fill="#41464b"/>
    <rect id="Rectángulo_3301" data-name="Rectángulo 3301" width="2.591" height="3.222" transform="translate(39.866 160.893) rotate(-45.149)" fill="#41464b"/>
    <rect id="Rectángulo_3302" data-name="Rectángulo 3302" width="3.222" height="2.591" transform="matrix(0.709, -0.705, 0.705, 0.709, 44.727, 161.329)" fill="#41464b"/>
    <rect id="Rectángulo_3303" data-name="Rectángulo 3303" width="3.229" height="2.591" transform="matrix(0.707, -0.707, 0.707, 0.707, 39.864, 166.194)" fill="#41464b"/>
    <rect id="Rectángulo_3304" data-name="Rectángulo 3304" width="2.591" height="4.522" transform="translate(30.056 176.995) rotate(-45)" fill="#41464b"/>
    <rect id="Rectángulo_3305" data-name="Rectángulo 3305" width="2.591" height="4.509" transform="translate(23.254 170.205) rotate(-45.1)" fill="#41464b"/>
    <rect id="Rectángulo_3306" data-name="Rectángulo 3306" width="4.512" height="2.591" transform="translate(30.058 171.552) rotate(-44.873)" fill="#41464b"/>
    <rect id="Rectángulo_3307" data-name="Rectángulo 3307" width="4.519" height="2.591" transform="matrix(0.707, -0.708, 0.708, 0.707, 23.251, 178.361)" fill="#41464b"/>
    <path id="Trazado_35113" data-name="Trazado 35113" d="M277.338,80.155a3.8,3.8,0,1,1,3.8-3.8,3.8,3.8,0,0,1-3.8,3.8m0-5a1.2,1.2,0,1,0,1.2,1.2,1.205,1.205,0,0,0-1.2-1.2" transform="translate(-71.015 -18.839)" fill="#41464b"/>
    <path id="Trazado_35114" data-name="Trazado 35114" d="M254.3,92.318a2.5,2.5,0,1,1-2.5-2.5,2.5,2.5,0,0,1,2.5,2.5" transform="translate(-64.723 -23.317)" fill="#afafaf"/>
    <path id="Trazado_35115" data-name="Trazado 35115" d="M246.952,138.224a4.51,4.51,0,1,1,4.508-4.512,4.515,4.515,0,0,1-4.508,4.512m0-6.429a1.919,1.919,0,1,0,1.917,1.917,1.919,1.919,0,0,0-1.917-1.917" transform="translate(-62.941 -33.543)" fill="#41464b"/>
    <path id="Trazado_35116" data-name="Trazado 35116" d="M240.418,115.453a8.349,8.349,0,1,1,8.349-8.349,8.358,8.358,0,0,1-8.349,8.349m0-14.107a5.758,5.758,0,1,0,5.758,5.758,5.764,5.764,0,0,0-5.758-5.758" transform="translate(-60.248 -25.638)" fill="#41464b"/>
    <path id="Trazado_35117" data-name="Trazado 35117" d="M283.882,144.615a3.929,3.929,0,1,1-3.928,3.93,3.93,3.93,0,0,1,3.928-3.93" transform="translate(-72.679 -37.544)" fill="#ff7443"/>
    <path id="Trazado_35118" data-name="Trazado 35118" d="M112.912,30.455a3.8,3.8,0,1,1,3.8-3.8,3.8,3.8,0,0,1-3.8,3.8m0-5a1.2,1.2,0,1,0,1.2,1.2,1.205,1.205,0,0,0-1.2-1.2" transform="translate(-28.328 -5.936)" fill="#41464b"/>
    <path id="Trazado_35119" data-name="Trazado 35119" d="M54.087,27.382a7.041,7.041,0,1,1,7.038-7.045,7.049,7.049,0,0,1-7.038,7.045m0-11.492a4.45,4.45,0,1,0,4.447,4.447,4.452,4.452,0,0,0-4.447-4.447" transform="translate(-12.214 -3.453)" fill="#41464b"/>
    <path id="Trazado_35120" data-name="Trazado 35120" d="M101.329,36.512a4.812,4.812,0,1,1-4.81,4.813,4.813,4.813,0,0,1,4.81-4.813" transform="translate(-25.057 -9.479)" fill="#afafaf"/>
  </g>
</svg>
