<svg id="Grupo_12157" data-name="Grupo 12157" xmlns="http://www.w3.org/2000/svg" xmlns:xlink="http://www.w3.org/1999/xlink" width="277.806" height="268.402" viewBox="0 0 277.806 268.402">
  <defs>
    <clipPath id="clip-path">
      <rect id="Rectángulo_3367" data-name="Rectángulo 3367" width="277.806" height="268.402" fill="none"/>
    </clipPath>
  </defs>
  <g id="Grupo_12156" data-name="Grupo 12156" clip-path="url(#clip-path)">
    <path id="Trazado_35122" data-name="Trazado 35122" d="M122.4,47.606V44.674a3.458,3.458,0,1,0-1.4-6.618,1.466,1.466,0,0,1-2.057-1.342l0-.156a8.168,8.168,0,1,0-16.335-.054,8.38,8.38,0,0,0,.155,1.587,1.466,1.466,0,0,1-1.927,1.662,2.416,2.416,0,0,0-.805-.134,2.527,2.527,0,1,0,0,5.054l2.792,0,0,2.932-2.791,0A5.459,5.459,0,0,1,99.677,36.7c0-.065,0-.13,0-.194a11.1,11.1,0,0,1,22.078-1.644,6.389,6.389,0,1,1,.644,12.746" transform="translate(-15.35 -4.124)" fill="#41464b"/>
    <path id="Trazado_35123" data-name="Trazado 35123" d="M80.217,76.319c.134,0,.265.015.384.021a11.792,11.792,0,0,1-.776-4.175A11.591,11.591,0,0,1,96.358,61.678a19.873,19.873,0,0,1,38.9,5.752c0,.194-.011.384-.011.57h.011a11.588,11.588,0,0,1,0,23.175H80.217a7.428,7.428,0,0,1,0-14.856" transform="translate(-11.817 -7.719)" fill="#4cbed8"/>
    <path id="Trazado_35124" data-name="Trazado 35124" d="M230.931,279.373,220.162,222.8l.11-.352,17.419-55.287a72.971,72.971,0,1,0-142-23.668l-.044,9.173-.071.217L80.514,199.292H98.405l3.733,46.923,35.593-4.258,5.377,36.931-2.9.422-4.966-34.1-35.783,4.281L95.7,202.224H76.479l16.239-50.032.042-8.709a75.9,75.9,0,1,1,147.714,24.59l-17.295,54.9,10.631,55.851Z" transform="translate(-12.414 -10.971)" fill="#41464b"/>
    <rect id="Rectángulo_3310" data-name="Rectángulo 3310" width="2.932" height="2.932" transform="translate(154.779 216.556)" fill="#41464b"/>
    <rect id="Rectángulo_3311" data-name="Rectángulo 3311" width="2.932" height="2.932" transform="translate(154.779 222.636)" fill="#41464b"/>
    <rect id="Rectángulo_3312" data-name="Rectángulo 3312" width="2.932" height="2.932" transform="translate(154.779 228.717)" fill="#41464b"/>
    <rect id="Rectángulo_3313" data-name="Rectángulo 3313" width="2.932" height="2.932" transform="translate(154.779 234.797)" fill="#41464b"/>
    <rect id="Rectángulo_3314" data-name="Rectángulo 3314" width="2.932" height="2.932" transform="translate(154.779 240.877)" fill="#41464b"/>
    <rect id="Rectángulo_3315" data-name="Rectángulo 3315" width="2.932" height="2.932" transform="translate(154.779 246.956)" fill="#41464b"/>
    <rect id="Rectángulo_3316" data-name="Rectángulo 3316" width="2.932" height="2.932" transform="translate(154.779 253.037)" fill="#41464b"/>
    <rect id="Rectángulo_3317" data-name="Rectángulo 3317" width="2.932" height="2.932" transform="translate(154.779 259.117)" fill="#41464b"/>
    <rect id="Rectángulo_3318" data-name="Rectángulo 3318" width="2.932" height="2.931" transform="translate(154.779 265.197)" fill="#41464b"/>
    <path id="Trazado_35125" data-name="Trazado 35125" d="M178.407,108.2a41.887,41.887,0,0,0-28.231,72.832c.4.344.8.689,1.2,1.04a32.514,32.514,0,0,1,10.663,24.109v5.448h32.732v-5.448a32.514,32.514,0,0,1,10.663-24.109c.4-.35.8-.7,1.2-1.04A41.887,41.887,0,0,0,178.407,108.2" transform="translate(-22.159 -17.562)" fill="#fed65c"/>
    <rect id="Rectángulo_3319" data-name="Rectángulo 3319" width="12.392" height="6.61" transform="translate(150.049 211.412)" fill="#afafaf"/>
    <path id="Trazado_35126" data-name="Trazado 35126" d="M200.9,250.2H165.233V229.916H200.9Zm-32.733-2.932h29.8V232.848h-29.8Z" transform="translate(-26.82 -37.318)" fill="#41464b"/>
    <rect id="Rectángulo_3320" data-name="Rectángulo 3320" width="38.831" height="2.932" transform="translate(136.829 192.598)" fill="#41464b"/>
    <rect id="Rectángulo_3321" data-name="Rectángulo 3321" width="38.831" height="2.932" transform="translate(136.829 198.38)" fill="#41464b"/>
    <rect id="Rectángulo_3322" data-name="Rectángulo 3322" width="38.831" height="2.932" transform="translate(136.829 204.163)" fill="#41464b"/>
    <rect id="Rectángulo_3323" data-name="Rectángulo 3323" width="38.831" height="2.932" transform="translate(136.829 209.947)" fill="#41464b"/>
    <path id="Trazado_35127" data-name="Trazado 35127" d="M192.7,260.168H177.373v-9.542H192.7ZM180.3,257.236h9.46v-3.678H180.3Z" transform="translate(-28.79 -40.68)" fill="#41464b"/>
    <rect id="Rectángulo_3324" data-name="Rectángulo 3324" width="2.932" height="38.659" transform="translate(154.779 155.404)" fill="#41464b"/>
    <path id="Trazado_35128" data-name="Trazado 35128" d="M186.492,164.467,182,155.491l-1.339,2.676h-8.146v-2.932h6.335l3.151-6.3,4.488,8.975,1.337-2.676h8.146v2.932h-6.333Z" transform="translate(-28.002 -24.174)" fill="#41464b"/>
    <path id="Trazado_35129" data-name="Trazado 35129" d="M183.766,184.133l-14.23-22.423,2.475-1.571,11.754,18.523,11.754-18.515L198,161.719Z" transform="translate(-27.518 -25.993)" fill="#41464b"/>
    <path id="Trazado_35130" data-name="Trazado 35130" d="M168.168,161.752a4.4,4.4,0,1,1,4.4-4.4,4.4,4.4,0,0,1-4.4,4.4m0-5.864a1.466,1.466,0,1,0,1.466,1.466,1.468,1.468,0,0,0-1.466-1.466" transform="translate(-26.582 -24.827)" fill="#41464b"/>
    <path id="Trazado_35131" data-name="Trazado 35131" d="M203.168,161.752a4.4,4.4,0,1,1,4.4-4.4,4.4,4.4,0,0,1-4.4,4.4m0-5.864a1.466,1.466,0,1,0,1.466,1.466,1.468,1.468,0,0,0-1.466-1.466" transform="translate(-32.263 -24.827)" fill="#41464b"/>
    <rect id="Rectángulo_3325" data-name="Rectángulo 3325" width="2.932" height="5.864" transform="translate(154.779 76.481)" fill="#41464b"/>
    <rect id="Rectángulo_3326" data-name="Rectángulo 3326" width="5.864" height="2.932" transform="matrix(0.208, -0.978, 0.978, 0.208, 165.242, 83.136)" fill="#41464b"/>
    <rect id="Rectángulo_3327" data-name="Rectángulo 3327" width="5.864" height="2.932" transform="translate(175.314 86.086) rotate(-66.006)" fill="#41464b"/>
    <rect id="Rectángulo_3328" data-name="Rectángulo 3328" width="5.865" height="2.933" transform="translate(184.551 91.065) rotate(-53.994)" fill="#41464b"/>
    <rect id="Rectángulo_3329" data-name="Rectángulo 3329" width="5.864" height="2.932" transform="translate(192.552 97.856) rotate(-42.001)" fill="#41464b"/>
    <rect id="Rectángulo_3330" data-name="Rectángulo 3330" width="5.864" height="2.932" transform="matrix(0.866, -0.501, 0.501, 0.866, 198.967, 106.164)" fill="#41464b"/>
    <rect id="Rectángulo_3331" data-name="Rectángulo 3331" width="5.865" height="2.931" transform="matrix(0.951, -0.309, 0.309, 0.951, 203.512, 115.621)" fill="#41464b"/>
    <rect id="Rectángulo_3332" data-name="Rectángulo 3332" width="5.865" height="2.932" transform="translate(205.993 125.818) rotate(-6.02)" fill="#41464b"/>
    <rect id="Rectángulo_3333" data-name="Rectángulo 3333" width="2.932" height="5.865" transform="translate(205.993 139.222) rotate(-84.015)" fill="#41464b"/>
    <rect id="Rectángulo_3334" data-name="Rectángulo 3334" width="2.932" height="5.866" transform="matrix(0.309, -0.951, 0.951, 0.309, 203.513, 149.419)" fill="#41464b"/>
    <rect id="Rectángulo_3335" data-name="Rectángulo 3335" width="2.932" height="5.865" transform="translate(198.968 158.877) rotate(-60.015)" fill="#41464b"/>
    <rect id="Rectángulo_3336" data-name="Rectángulo 3336" width="2.932" height="5.865" transform="translate(192.553 167.183) rotate(-48.022)" fill="#41464b"/>
    <rect id="Rectángulo_3337" data-name="Rectángulo 3337" width="2.932" height="5.864" transform="translate(184.554 173.974) rotate(-36.022)" fill="#41464b"/>
    <rect id="Rectángulo_3338" data-name="Rectángulo 3338" width="2.932" height="5.863" transform="matrix(0.978, -0.208, 0.208, 0.978, 143.16, 78.011)" fill="#41464b"/>
    <rect id="Rectángulo_3339" data-name="Rectángulo 3339" width="2.932" height="5.864" transform="translate(132.113 81.923) rotate(-24.006)" fill="#41464b"/>
    <rect id="Rectángulo_3340" data-name="Rectángulo 3340" width="2.933" height="5.863" transform="translate(122.121 88.047) rotate(-36.009)" fill="#41464b"/>
    <rect id="Rectángulo_3341" data-name="Rectángulo 3341" width="2.932" height="5.864" transform="translate(113.621 96.114) rotate(-48.011)" fill="#41464b"/>
    <rect id="Rectángulo_3342" data-name="Rectángulo 3342" width="2.932" height="5.863" transform="translate(106.982 105.772) rotate(-60.006)" fill="#41464b"/>
    <rect id="Rectángulo_3343" data-name="Rectángulo 3343" width="2.932" height="5.864" transform="translate(102.498 116.599) rotate(-72.01)" fill="#41464b"/>
    <rect id="Rectángulo_3344" data-name="Rectángulo 3344" width="2.932" height="5.863" transform="translate(100.363 128.122) rotate(-84.005)" fill="#41464b"/>
    <rect id="Rectángulo_3345" data-name="Rectángulo 3345" width="5.863" height="2.932" transform="translate(100.362 136.922) rotate(-6.02)" fill="#41464b"/>
    <rect id="Rectángulo_3346" data-name="Rectángulo 3346" width="5.863" height="2.932" transform="matrix(0.951, -0.309, 0.309, 0.951, 102.499, 148.444)" fill="#41464b"/>
    <rect id="Rectángulo_3347" data-name="Rectángulo 3347" width="5.863" height="2.932" transform="translate(106.985 159.271) rotate(-30.001)" fill="#41464b"/>
    <rect id="Rectángulo_3348" data-name="Rectángulo 3348" width="5.863" height="2.932" transform="translate(113.623 168.928) rotate(-42.001)" fill="#41464b"/>
    <rect id="Rectángulo_3349" data-name="Rectángulo 3349" width="5.863" height="2.932" transform="translate(122.124 176.995) rotate(-54.008)" fill="#41464b"/>
    <path id="Trazado_35132" data-name="Trazado 35132" d="M271.951,84.548h-6.714l-1.289-6.421a23.853,23.853,0,0,1-3.073-.825l-4.322,4.92-5.818-3.357,2.1-6.209a23.441,23.441,0,0,1-2.245-2.242l-6.207,2.1-3.36-5.815,4.92-4.322a23.732,23.732,0,0,1-.827-3.068l-6.418-1.29V51.3l6.417-1.277a23.865,23.865,0,0,1,.828-3.083l-4.921-4.313,3.36-5.823,6.206,2.1a24.056,24.056,0,0,1,2.245-2.244l-2.1-6.213,5.818-3.352,4.325,4.917a24.02,24.02,0,0,1,3.064-.823l1.288-6.421h6.721l1.282,6.419a24.2,24.2,0,0,1,3.066.821L280.63,27.1l5.815,3.348-2.1,6.214A24.34,24.34,0,0,1,286.59,38.9l6.219-2.1,3.341,5.824-4.912,4.316a24.05,24.05,0,0,1,.825,3.077l6.414,1.28v6.719l-6.416,1.293a24.132,24.132,0,0,1-.821,3.058l4.91,4.33-3.341,5.815-6.221-2.1a23.727,23.727,0,0,1-2.242,2.243l2.1,6.21-5.815,3.356L276.3,77.305a23.751,23.751,0,0,1-3.069.823Zm-4.312-2.932h1.907l1.209-6.056,1.019-.152a20.842,20.842,0,0,0,4.436-1.189l.954-.369,4.079,4.632,1.655-.955-1.979-5.854.8-.641a20.955,20.955,0,0,0,3.244-3.245l.641-.8,5.86,1.979.949-1.652-4.629-4.083.369-.953a21.156,21.156,0,0,0,1.188-4.428l.155-1.013,6.048-1.22V53.7L289.5,52.5l-.156-1.016a21.04,21.04,0,0,0-1.192-4.448l-.37-.955,4.634-4.071-.949-1.654-5.855,1.979-.643-.8a21.357,21.357,0,0,0-3.249-3.25l-.8-.642,1.977-5.853-1.655-.952-4.084,4.63-.952-.37a21.176,21.176,0,0,0-4.438-1.187l-1.015-.155L269.546,27.7h-1.914l-1.213,6.053-1.014.155a21.2,21.2,0,0,0-4.437,1.19l-.955.371-4.077-4.636-1.653.953,1.977,5.857-.8.641a20.9,20.9,0,0,0-3.247,3.245l-.643.8-5.851-1.982-.956,1.656,4.638,4.064-.372.957a20.915,20.915,0,0,0-1.195,4.452l-.152,1.019-6.053,1.2v1.913l6.056,1.217.152,1.017a20.814,20.814,0,0,0,1.191,4.434l.372.956-4.637,4.074.956,1.652,5.857-1.98.642.8a20.387,20.387,0,0,0,3.24,3.238l.805.642-1.979,5.858,1.653.954,4.074-4.636.955.37a20.954,20.954,0,0,0,4.441,1.191l1.017.153Z" transform="translate(-38.744 -4.02)" fill="#41464b"/>
    <path id="Trazado_35133" data-name="Trazado 35133" d="M271.305,73.272a15.911,15.911,0,1,1,15.916-15.907,15.889,15.889,0,0,1-15.916,15.907" transform="translate(-41.453 -6.728)" fill="#ff7443"/>
    <path id="Trazado_35134" data-name="Trazado 35134" d="M272.6,68.04h-.034a9.436,9.436,0,0,1-3.22-.562l1-2.757a6.494,6.494,0,0,0,2.222.387Zm3.225-.577-1.013-2.753a6.463,6.463,0,0,0,1.946-1.133l1.893,2.24a9.429,9.429,0,0,1-2.826,1.646m-9.314-1.618a9.392,9.392,0,0,1-2.106-2.5l2.537-1.468a6.444,6.444,0,0,0,1.45,1.722ZM280.743,63.3,278.2,61.846a6.441,6.441,0,0,0,.762-2.118l2.889.5a9.358,9.358,0,0,1-1.107,3.08M263.28,60.267A9.546,9.546,0,0,1,263.275,57l2.889.5a6.608,6.608,0,0,0,0,2.258Zm15.671-2.8a6.433,6.433,0,0,0-.776-2.112l2.532-1.476a9.323,9.323,0,0,1,1.129,3.073Zm-12.022-2.087-2.541-1.462a9.386,9.386,0,0,1,2.1-2.51l1.888,2.243a6.444,6.444,0,0,0-1.447,1.728m9.793-1.746a6.465,6.465,0,0,0-1.954-1.122l.993-2.759a9.374,9.374,0,0,1,2.84,1.628Zm-6.4-1.112-1.006-2.753a9.4,9.4,0,0,1,3.219-.571l.006,2.932a6.492,6.492,0,0,0-2.219.393" transform="translate(-42.711 -7.986)" fill="#41464b"/>
    <path id="Trazado_35135" data-name="Trazado 35135" d="M302.542,146.856h-5.459l-1.49-3.9a13.865,13.865,0,0,1-2.026-.842l-3.821,1.7-3.858-3.856,1.707-3.816a13.605,13.605,0,0,1-.842-2.029l-3.9-1.488v-5.465l3.9-1.488a13.756,13.756,0,0,1,.842-2.026l-1.707-3.818,3.858-3.86,3.819,1.708a13.856,13.856,0,0,1,2.026-.841l1.49-3.9h5.459l1.491,3.9a13.735,13.735,0,0,1,2.027.841l3.819-1.708,3.857,3.858-1.7,3.82a13.8,13.8,0,0,1,.841,2.026l3.906,1.489v5.463l-3.905,1.489a13.793,13.793,0,0,1-.841,2.026l1.7,3.818-3.856,3.856-3.821-1.7a13.952,13.952,0,0,1-2.026.842Zm-3.44-2.932h1.422l1.3-3.4.726-.193a10.894,10.894,0,0,0,2.708-1.125l.648-.378,3.329,1.483,1-1-1.484-3.326.379-.649a10.939,10.939,0,0,0,1.125-2.71l.193-.725,3.4-1.3v-1.424l-3.4-1.3-.194-.725a11.044,11.044,0,0,0-1.127-2.713l-.377-.65,1.484-3.322-1-1.005-3.333,1.491-.652-.385a10.672,10.672,0,0,0-2.7-1.121l-.727-.192-1.3-3.4H299.1l-1.3,3.4-.726.194a10.809,10.809,0,0,0-2.7,1.121l-.651.383-3.33-1.489-1,1,1.487,3.325-.379.65a10.955,10.955,0,0,0-1.125,2.71l-.193.728-3.4,1.294V130.6l3.4,1.3.193.727a10.8,10.8,0,0,0,1.123,2.707l.381.651-1.488,3.326,1,1,3.326-1.482.649.377a10.979,10.979,0,0,0,2.709,1.126l.726.192Z" transform="translate(-45.91 -18.33)" fill="#41464b"/>
    <path id="Trazado_35136" data-name="Trazado 35136" d="M301.8,138.573a6.692,6.692,0,1,1,6.691-6.691,6.691,6.691,0,0,1-6.691,6.691" transform="translate(-47.901 -20.32)" fill="#afafaf"/>
    <path id="Trazado_35137" data-name="Trazado 35137" d="M186.174,31h-2.932V28.646a9.273,9.273,0,0,1,4.39-7.91l.1-.057c.126-.065.245-.135.363-.209a6.388,6.388,0,1,0-9.767-5.422h-2.932a9.319,9.319,0,1,1,14.248,7.91c-.166.1-.33.2-.5.292a6.356,6.356,0,0,0-2.968,5.4Z" transform="translate(-28.469 -0.93)" fill="#41464b"/>
    <rect id="Rectángulo_3350" data-name="Rectángulo 3350" width="2.932" height="2.748" transform="translate(154.773 32.821)" fill="#41464b"/>
    <path id="Trazado_35138" data-name="Trazado 35138" d="M206.26,40.862h-2.932V39.45a6.144,6.144,0,0,1,2.911-5.243l.083-.048c.072-.039.144-.081.218-.125a3.248,3.248,0,1,0-4.988-2.743h-2.932a6.178,6.178,0,1,1,9.449,5.245c-.119.071-.218.128-.313.181a3.23,3.23,0,0,0-1.5,2.733Z" transform="translate(-32.239 -4.076)" fill="#41464b"/>
    <rect id="Rectángulo_3351" data-name="Rectángulo 3351" width="2.932" height="2.748" transform="translate(171.089 39.536)" fill="#41464b"/>
    <path id="Trazado_35139" data-name="Trazado 35139" d="M167.311,40.862h-2.932V39.45a6.144,6.144,0,0,1,2.911-5.243l.1-.058a1.763,1.763,0,0,0,.156-.09,3.247,3.247,0,1,0-4.946-2.768H159.67a6.179,6.179,0,1,1,9.447,5.245c-.093.06-.2.124-.318.185a3.228,3.228,0,0,0-1.489,2.729Z" transform="translate(-25.917 -4.076)" fill="#41464b"/>
    <rect id="Rectángulo_3352" data-name="Rectángulo 3352" width="2.932" height="2.748" transform="translate(138.462 39.536)" fill="#41464b"/>
    <path id="Trazado_35140" data-name="Trazado 35140" d="M58.962,199.757a3.6,3.6,0,0,0-1.193.2,9.073,9.073,0,0,0,.167-1.721,8.9,8.9,0,0,0-17.791,0c0,.066.007.128.007.194a4.546,4.546,0,1,0-1.84,8.7l20.651,0a3.687,3.687,0,0,0,0-7.373" transform="translate(-5.481 -30.733)" fill="#4cbed8"/>
    <path id="Trazado_35141" data-name="Trazado 35141" d="M73.029,145.679h-.007l0-2.932h0a2.36,2.36,0,0,0,2.355-2.356,2.355,2.355,0,0,0-3-2.268,1.466,1.466,0,0,1-1.87-1.317,5.588,5.588,0,0,0-10.182-2.815,1.467,1.467,0,0,1-2.211.238,4.988,4.988,0,0,0-4.838-1.123,1.466,1.466,0,0,1-1.894-1.281,10.091,10.091,0,0,0-20.147.833c0,.209.008.413.021.617a1.466,1.466,0,0,1-1.288,1.547,3.978,3.978,0,0,0,.49,7.925v2.932a6.911,6.911,0,0,1-2.147-13.48,13.022,13.022,0,0,1,25.759-2.217,7.867,7.867,0,0,1,4.823,1.163A8.521,8.521,0,0,1,73.2,135.1a5.29,5.29,0,0,1-.174,10.577" transform="translate(-3.822 -19.418)" fill="#41464b"/>
    <path id="Trazado_35142" data-name="Trazado 35142" d="M51.643,163.9v-2.932H69.849a1.383,1.383,0,0,0,0-2.766,1.343,1.343,0,0,0-.438.073,1.464,1.464,0,0,1-1.923-1.666,5.5,5.5,0,0,0,.1-1.048,5.41,5.41,0,0,0-5.406-5.4v-2.932a8.346,8.346,0,0,1,8.334,8.1,4.315,4.315,0,0,1-.671,8.578Z" transform="translate(-8.382 -23.897)" fill="#41464b"/>
    <rect id="Rectángulo_3353" data-name="Rectángulo 3353" width="15.206" height="2.932" transform="translate(26.639 123.329)" fill="#41464b"/>
    <rect id="Rectángulo_3354" data-name="Rectángulo 3354" width="3.756" height="2.932" transform="translate(45.585 123.329)" fill="#41464b"/>
    <path id="Trazado_35143" data-name="Trazado 35143" d="M292.743,220.751a11.462,11.462,0,0,1-3.148-.919l1.215-2.668a8.528,8.528,0,0,0,2.343.684Zm3.272,0-.415-2.9a8.475,8.475,0,0,0,2.34-.688l1.222,2.665a11.418,11.418,0,0,1-3.146.926m-9.178-2.685a11.588,11.588,0,0,1-2.149-2.47L287.15,214a8.648,8.648,0,0,0,1.6,1.845Zm15.079-.015-1.922-2.214a8.622,8.622,0,0,0,1.6-1.848l2.466,1.587a11.611,11.611,0,0,1-2.144,2.475m-18.6-5.435a11.533,11.533,0,0,1-.47-3.243l2.932,0a8.606,8.606,0,0,0,.35,2.417Zm22.1-.022-2.815-.826a8.562,8.562,0,0,0,.345-2.418l2.932-.041v.041a11.556,11.556,0,0,1-.462,3.244m-19.3-5.646-2.815-.818a11.5,11.5,0,0,1,1.355-2.984l2.471,1.58a8.532,8.532,0,0,0-1.011,2.222M302.6,206.9a8.573,8.573,0,0,0-1.024-2.216l2.459-1.6a11.472,11.472,0,0,1,1.375,2.975Zm-13.87-4.023-1.927-2.21a11.528,11.528,0,0,1,2.75-1.782l1.227,2.663a8.568,8.568,0,0,0-2.05,1.329m11.237-.034a8.576,8.576,0,0,0-2.058-1.316l1.21-2.671a11.539,11.539,0,0,1,2.762,1.765Zm-6.847-1.988-.424-2.9a11.509,11.509,0,0,1,1.664-.121h.009a11.631,11.631,0,0,1,1.6.111l-.405,2.9c-.4-.056-.836-.069-1.2-.083a8.627,8.627,0,0,0-1.241.09" transform="translate(-45.91 -32.11)" fill="#41464b"/>
    <path id="Trazado_35144" data-name="Trazado 35144" d="M319.237,99.29l-.008-2.932a4.382,4.382,0,0,0,2.191-.592l1.474,2.536a7.328,7.328,0,0,1-3.657.988m-3.664-.967a7.369,7.369,0,0,1-2.687-2.664l2.529-1.483a4.429,4.429,0,0,0,1.618,1.6Zm9.994-2.7-2.539-1.466a4.4,4.4,0,0,0,.586-2.195l2.932-.07v.07a7.331,7.331,0,0,1-.978,3.661M314.818,92l-2.932,0a7.349,7.349,0,0,1,.957-3.654l2.547,1.451a4.395,4.395,0,0,0-.573,2.136ZM323,89.722a4.43,4.43,0,0,0-1.627-1.593l1.445-2.552a7.382,7.382,0,0,1,2.7,2.648Zm-6.013-1.554L315.5,85.641a7.331,7.331,0,0,1,3.651-1.01l.026,2.932a4.393,4.393,0,0,0-2.189.6" transform="translate(-50.623 -13.737)" fill="#41464b"/>
    <rect id="Rectángulo_3355" data-name="Rectángulo 3355" width="2.932" height="3.786" transform="translate(181.933 7.766) rotate(-45.018)" fill="#41464b"/>
    <rect id="Rectángulo_3356" data-name="Rectángulo 3356" width="2.932" height="3.778" transform="matrix(0.705, -0.709, 0.709, 0.705, 176.237, 2.079)" fill="#41464b"/>
    <rect id="Rectángulo_3357" data-name="Rectángulo 3357" width="3.778" height="2.932" transform="matrix(0.709, -0.705, 0.705, 0.709, 181.935, 2.665)" fill="#41464b"/>
    <rect id="Rectángulo_3358" data-name="Rectángulo 3358" width="3.786" height="2.932" transform="translate(176.234 8.369) rotate(-44.989)" fill="#41464b"/>
    <rect id="Rectángulo_3359" data-name="Rectángulo 3359" width="2.932" height="5.301" transform="matrix(0.707, -0.707, 0.707, 0.707, 271.175, 148.684)" fill="#41464b"/>
    <rect id="Rectángulo_3360" data-name="Rectángulo 3360" width="2.932" height="5.289" transform="matrix(0.705, -0.709, 0.709, 0.705, 263.198, 140.721)" fill="#41464b"/>
    <rect id="Rectángulo_3361" data-name="Rectángulo 3361" width="5.289" height="2.932" transform="matrix(0.709, -0.706, 0.706, 0.709, 271.177, 142.375)" fill="#41464b"/>
    <rect id="Rectángulo_3362" data-name="Rectángulo 3362" width="5.301" height="2.932" transform="translate(263.195 150.359) rotate(-45)" fill="#41464b"/>
    <path id="Trazado_35145" data-name="Trazado 35145" d="M330.337,192.329a3.351,3.351,0,1,1-3.351-3.351,3.352,3.352,0,0,1,3.351,3.351" transform="translate(-52.53 -30.674)" fill="#afafaf"/>
    <path id="Trazado_35146" data-name="Trazado 35146" d="M283.277,236.756a6.283,6.283,0,1,1-6.283-6.283,6.281,6.281,0,0,1,6.283,6.283" transform="translate(-43.94 -37.409)" fill="#ff7443"/>
    <rect id="Rectángulo_3363" data-name="Rectángulo 3363" width="21.438" height="2.932" transform="translate(8.091 134.27)" fill="#41464b"/>
    <rect id="Rectángulo_3364" data-name="Rectángulo 3364" width="3.979" height="2.932" transform="translate(0 134.27)" fill="#41464b"/>
    <rect id="Rectángulo_3365" data-name="Rectángulo 3365" width="4.812" height="2.932" transform="translate(20.528 153.987)" fill="#41464b"/>
    <rect id="Rectángulo_3366" data-name="Rectángulo 3366" width="4.192" height="2.932" transform="translate(56.583 37.515)" fill="#41464b"/>
    <path id="Trazado_35147" data-name="Trazado 35147" d="M82.485,52.9H55.118a3.9,3.9,0,0,1-.781-7.714,7.34,7.34,0,0,1,7.321-6.944v2.932a4.4,4.4,0,0,0-4.4,4.4,4.66,4.66,0,0,0,.085.861,1.465,1.465,0,0,1-1.927,1.657.877.877,0,0,0-.3-.049.965.965,0,1,0,0,1.929H82.485Z" transform="translate(-8.314 -6.207)" fill="#41464b"/>
    <path id="Trazado_35148" data-name="Trazado 35148" d="M58.33,75.277c.008-.126.013-.251.013-.379A6.182,6.182,0,0,0,46,74.388a3.422,3.422,0,0,0-3.356.778,3.773,3.773,0,0,0-6.875,1.9,2.015,2.015,0,0,0-.561-.08,2.045,2.045,0,1,0,0,4.09H57.975a2.912,2.912,0,0,0,.355-5.8" transform="translate(-5.383 -11.153)" fill="#afafaf"/>
  </g>
</svg>
